<svg width="322" height="117" viewBox="0 0 322 117" fill="none" xmlns="http://www.w3.org/2000/svg">
<g clip-path="url(#clip0_120_6)">
<rect width="322" height="117" fill="white"/>
<g filter="url(#filter0_dd_120_6)">
<mask id="path-1-outside-1_120_6" maskUnits="userSpaceOnUse" x="1" y="31" width="310" height="50" fill="black">
<rect fill="white" x="1" y="31" width="310" height="50"/>
<path d="M15.8523 69.4773C13.1932 69.4773 10.8352 69.0227 8.77841 68.1136C6.73295 67.1932 5.11932 65.9261 3.9375 64.3125C2.75568 62.6989 2.15341 60.8409 2.13068 58.7386H10.6193C10.6534 59.5 10.8977 60.1761 11.3523 60.767C11.8068 61.3466 12.4261 61.8011 13.2102 62.1307C13.9943 62.4602 14.8864 62.625 15.8864 62.625C16.8864 62.625 17.767 62.4489 18.5284 62.0966C19.3011 61.733 19.9034 61.2386 20.3352 60.6136C20.767 59.9773 20.9773 59.25 20.9659 58.4318C20.9773 57.6136 20.7443 56.8864 20.267 56.25C19.7898 55.6136 19.1136 55.1193 18.2386 54.767C17.375 54.4148 16.3523 54.2386 15.1705 54.2386H11.7784V48.2386H15.1705C16.2045 48.2386 17.1136 48.0682 17.8977 47.7273C18.6932 47.3864 19.3125 46.9091 19.7557 46.2955C20.1989 45.6705 20.4148 44.9545 20.4034 44.1477C20.4148 43.3636 20.2273 42.6761 19.8409 42.0852C19.4659 41.483 18.9375 41.017 18.2557 40.6875C17.5852 40.358 16.8068 40.1932 15.9205 40.1932C14.9886 40.1932 14.142 40.358 13.3807 40.6875C12.6307 41.017 12.0341 41.483 11.5909 42.0852C11.1477 42.6875 10.9148 43.3864 10.892 44.1818H2.82955C2.85227 42.1023 3.43182 40.2727 4.56818 38.6932C5.70455 37.1023 7.25 35.858 9.20455 34.9602C11.1705 34.0625 13.4091 33.6136 15.9205 33.6136C18.4205 33.6136 20.6193 34.0511 22.517 34.9261C24.4148 35.8011 25.892 36.9943 26.9489 38.5057C28.0057 40.0057 28.5341 41.7045 28.5341 43.6023C28.5455 45.5682 27.9034 47.1875 26.608 48.4602C25.3239 49.733 23.6705 50.517 21.6477 50.8125V51.0852C24.3523 51.4034 26.392 52.2784 27.767 53.7102C29.1534 55.142 29.8409 56.9318 29.8295 59.0795C29.8295 61.1023 29.233 62.8977 28.0398 64.4659C26.858 66.0227 25.2102 67.25 23.0966 68.1477C20.9943 69.0341 18.5795 69.4773 15.8523 69.4773ZM50.8168 32.4545L39.5668 74.25H32.4588L43.7088 32.4545H50.8168ZM53.429 63.2045V56.625L67.7301 34.0909H73.5767V43.0227H70.1847L61.8153 56.2841V56.5568H82.5256V63.2045H53.429ZM70.2869 69V61.1932L70.4574 58.3125V34.0909H78.3494V69H70.2869ZM101.795 42.8182V48.9545H85.2784V42.8182H101.795ZM88.7386 36.5455H97.0739V60.767C97.0739 61.2784 97.1534 61.6932 97.3125 62.0114C97.483 62.3182 97.7273 62.5398 98.0455 62.6761C98.3636 62.8011 98.7443 62.8636 99.1875 62.8636C99.5057 62.8636 99.8409 62.8352 100.193 62.7784C100.557 62.7102 100.83 62.6534 101.011 62.608L102.273 68.625C101.875 68.7386 101.313 68.8807 100.585 69.0511C99.8693 69.2216 99.0114 69.3295 98.0114 69.375C96.0568 69.4659 94.3807 69.2386 92.983 68.6932C91.5966 68.1364 90.5341 67.2727 89.7955 66.1023C89.0682 64.9318 88.7159 63.4602 88.7386 61.6875V36.5455ZM114.946 54.0682V69H106.611V34.0909H114.673V47.625H114.963C115.554 46.0114 116.52 44.75 117.861 43.8409C119.213 42.9318 120.866 42.4773 122.821 42.4773C124.662 42.4773 126.264 42.8864 127.628 43.7045C128.991 44.5114 130.048 45.6534 130.798 47.1307C131.56 48.608 131.935 50.3352 131.923 52.3125V69H123.588V53.9489C123.599 52.4943 123.236 51.358 122.497 50.5398C121.759 49.7216 120.719 49.3125 119.378 49.3125C118.503 49.3125 117.73 49.5057 117.06 49.892C116.401 50.267 115.884 50.8068 115.509 51.5114C115.145 52.2159 114.957 53.0682 114.946 54.0682ZM147.439 69V34.0909H155.876V62.1477H170.399V69H147.439ZM187.006 69.4943C184.267 69.4943 181.903 68.9545 179.915 67.875C177.938 66.7841 176.415 65.233 175.347 63.2216C174.29 61.1989 173.761 58.7955 173.761 56.0114C173.761 53.3068 174.295 50.9432 175.364 48.9205C176.432 46.8864 177.938 45.3068 179.881 44.1818C181.824 43.0455 184.114 42.4773 186.75 42.4773C188.614 42.4773 190.318 42.767 191.864 43.3466C193.409 43.9261 194.744 44.7841 195.869 45.9205C196.994 47.0568 197.869 48.4602 198.494 50.1307C199.119 51.7898 199.432 53.6932 199.432 55.8409V57.9205H176.676V53.0795H191.676C191.665 52.1932 191.455 51.4034 191.045 50.7102C190.636 50.017 190.074 49.4773 189.358 49.0909C188.653 48.6932 187.841 48.4943 186.92 48.4943C185.989 48.4943 185.153 48.7045 184.415 49.125C183.676 49.5341 183.091 50.0966 182.659 50.8125C182.227 51.517 182 52.3182 181.977 53.2159V58.142C181.977 59.2102 182.188 60.1477 182.608 60.9545C183.028 61.75 183.625 62.3693 184.398 62.8125C185.17 63.2557 186.091 63.4773 187.159 63.4773C187.898 63.4773 188.568 63.375 189.17 63.1705C189.773 62.9659 190.29 62.6648 190.722 62.267C191.153 61.8693 191.477 61.3807 191.693 60.8011L199.347 61.0227C199.028 62.7386 198.33 64.233 197.25 65.5057C196.182 66.767 194.778 67.75 193.04 68.4545C191.301 69.1477 189.29 69.4943 187.006 69.4943ZM212.024 54.0682V69H203.689V42.8182H211.615V47.625H211.905C212.484 46.0227 213.473 44.767 214.871 43.858C216.268 42.9375 217.933 42.4773 219.865 42.4773C221.706 42.4773 223.303 42.892 224.655 43.7216C226.018 44.5398 227.075 45.6875 227.825 47.1648C228.587 48.6307 228.962 50.3466 228.95 52.3125V69H220.615V53.9489C220.626 52.4943 220.257 51.358 219.507 50.5398C218.768 49.7216 217.74 49.3125 216.422 49.3125C215.547 49.3125 214.774 49.5057 214.104 49.892C213.445 50.267 212.933 50.8068 212.57 51.5114C212.217 52.2159 212.036 53.0682 212.024 54.0682ZM246.315 79.3636C243.827 79.3636 241.696 79.017 239.923 78.3239C238.151 77.6307 236.759 76.6818 235.747 75.4773C234.736 74.2727 234.128 72.9091 233.923 71.3864L241.815 70.9432C241.963 71.4773 242.236 71.9432 242.634 72.3409C243.043 72.7386 243.571 73.0455 244.219 73.2614C244.878 73.4773 245.651 73.5852 246.537 73.5852C247.935 73.5852 249.088 73.2443 249.997 72.5625C250.918 71.892 251.378 70.7159 251.378 69.0341V64.4318H251.088C250.759 65.2386 250.259 65.9602 249.588 66.5966C248.918 67.233 248.082 67.733 247.082 68.0966C246.094 68.4602 244.957 68.642 243.673 68.642C241.764 68.642 240.014 68.1989 238.423 67.3125C236.844 66.4148 235.577 65.0284 234.622 63.1534C233.679 61.267 233.207 58.8409 233.207 55.875C233.207 52.8182 233.696 50.3011 234.673 48.3239C235.651 46.3352 236.929 44.8636 238.509 43.9091C240.099 42.9545 241.81 42.4773 243.639 42.4773C245.014 42.4773 246.19 42.7159 247.168 43.1932C248.156 43.6591 248.969 44.2614 249.605 45C250.241 45.7386 250.724 46.5057 251.054 47.3011H251.293V42.8182H259.594V69.1023C259.594 71.3182 259.037 73.1875 257.923 74.7102C256.81 76.233 255.253 77.3864 253.253 78.1705C251.253 78.9659 248.94 79.3636 246.315 79.3636ZM246.571 62.5739C247.582 62.5739 248.446 62.3068 249.162 61.7727C249.878 61.2386 250.429 60.4716 250.815 59.4716C251.202 58.4716 251.395 57.2727 251.395 55.875C251.395 54.4545 251.202 53.233 250.815 52.2102C250.44 51.1761 249.889 50.3807 249.162 49.8239C248.446 49.267 247.582 48.9886 246.571 48.9886C245.537 48.9886 244.662 49.2727 243.946 49.8409C243.23 50.4091 242.685 51.2102 242.31 52.2443C241.946 53.267 241.764 54.4773 241.764 55.875C241.764 57.2727 241.952 58.4716 242.327 59.4716C242.702 60.4716 243.241 61.2386 243.946 61.7727C244.662 62.3068 245.537 62.5739 246.571 62.5739ZM279.686 42.8182V48.9545H263.169V42.8182H279.686ZM266.629 36.5455H274.964V60.767C274.964 61.2784 275.044 61.6932 275.203 62.0114C275.374 62.3182 275.618 62.5398 275.936 62.6761C276.254 62.8011 276.635 62.8636 277.078 62.8636C277.396 62.8636 277.732 62.8352 278.084 62.7784C278.447 62.7102 278.72 62.6534 278.902 62.608L280.163 68.625C279.766 68.7386 279.203 68.8807 278.476 69.0511C277.76 69.2216 276.902 69.3295 275.902 69.375C273.947 69.4659 272.271 69.2386 270.874 68.6932C269.487 68.1364 268.425 67.2727 267.686 66.1023C266.959 64.9318 266.607 63.4602 266.629 61.6875V36.5455ZM292.837 54.0682V69H284.501V34.0909H292.564V47.625H292.854C293.445 46.0114 294.411 44.75 295.751 43.8409C297.104 42.9318 298.757 42.4773 300.712 42.4773C302.553 42.4773 304.155 42.8864 305.518 43.7045C306.882 44.5114 307.939 45.6534 308.689 47.1307C309.45 48.608 309.825 50.3352 309.814 52.3125V69H301.479V53.9489C301.49 52.4943 301.126 51.358 300.388 50.5398C299.649 49.7216 298.609 49.3125 297.268 49.3125C296.393 49.3125 295.621 49.5057 294.95 49.892C294.291 50.267 293.774 50.8068 293.399 51.5114C293.036 52.2159 292.848 53.0682 292.837 54.0682Z"/>
</mask>
<path d="M15.8523 69.4773C13.1932 69.4773 10.8352 69.0227 8.77841 68.1136C6.73295 67.1932 5.11932 65.9261 3.9375 64.3125C2.75568 62.6989 2.15341 60.8409 2.13068 58.7386H10.6193C10.6534 59.5 10.8977 60.1761 11.3523 60.767C11.8068 61.3466 12.4261 61.8011 13.2102 62.1307C13.9943 62.4602 14.8864 62.625 15.8864 62.625C16.8864 62.625 17.767 62.4489 18.5284 62.0966C19.3011 61.733 19.9034 61.2386 20.3352 60.6136C20.767 59.9773 20.9773 59.25 20.9659 58.4318C20.9773 57.6136 20.7443 56.8864 20.267 56.25C19.7898 55.6136 19.1136 55.1193 18.2386 54.767C17.375 54.4148 16.3523 54.2386 15.1705 54.2386H11.7784V48.2386H15.1705C16.2045 48.2386 17.1136 48.0682 17.8977 47.7273C18.6932 47.3864 19.3125 46.9091 19.7557 46.2955C20.1989 45.6705 20.4148 44.9545 20.4034 44.1477C20.4148 43.3636 20.2273 42.6761 19.8409 42.0852C19.4659 41.483 18.9375 41.017 18.2557 40.6875C17.5852 40.358 16.8068 40.1932 15.9205 40.1932C14.9886 40.1932 14.142 40.358 13.3807 40.6875C12.6307 41.017 12.0341 41.483 11.5909 42.0852C11.1477 42.6875 10.9148 43.3864 10.892 44.1818H2.82955C2.85227 42.1023 3.43182 40.2727 4.56818 38.6932C5.70455 37.1023 7.25 35.858 9.20455 34.9602C11.1705 34.0625 13.4091 33.6136 15.9205 33.6136C18.4205 33.6136 20.6193 34.0511 22.517 34.9261C24.4148 35.8011 25.892 36.9943 26.9489 38.5057C28.0057 40.0057 28.5341 41.7045 28.5341 43.6023C28.5455 45.5682 27.9034 47.1875 26.608 48.4602C25.3239 49.733 23.6705 50.517 21.6477 50.8125V51.0852C24.3523 51.4034 26.392 52.2784 27.767 53.7102C29.1534 55.142 29.8409 56.9318 29.8295 59.0795C29.8295 61.1023 29.233 62.8977 28.0398 64.4659C26.858 66.0227 25.2102 67.25 23.0966 68.1477C20.9943 69.0341 18.5795 69.4773 15.8523 69.4773ZM50.8168 32.4545L39.5668 74.25H32.4588L43.7088 32.4545H50.8168ZM53.429 63.2045V56.625L67.7301 34.0909H73.5767V43.0227H70.1847L61.8153 56.2841V56.5568H82.5256V63.2045H53.429ZM70.2869 69V61.1932L70.4574 58.3125V34.0909H78.3494V69H70.2869ZM101.795 42.8182V48.9545H85.2784V42.8182H101.795ZM88.7386 36.5455H97.0739V60.767C97.0739 61.2784 97.1534 61.6932 97.3125 62.0114C97.483 62.3182 97.7273 62.5398 98.0455 62.6761C98.3636 62.8011 98.7443 62.8636 99.1875 62.8636C99.5057 62.8636 99.8409 62.8352 100.193 62.7784C100.557 62.7102 100.83 62.6534 101.011 62.608L102.273 68.625C101.875 68.7386 101.313 68.8807 100.585 69.0511C99.8693 69.2216 99.0114 69.3295 98.0114 69.375C96.0568 69.4659 94.3807 69.2386 92.983 68.6932C91.5966 68.1364 90.5341 67.2727 89.7955 66.1023C89.0682 64.9318 88.7159 63.4602 88.7386 61.6875V36.5455ZM114.946 54.0682V69H106.611V34.0909H114.673V47.625H114.963C115.554 46.0114 116.52 44.75 117.861 43.8409C119.213 42.9318 120.866 42.4773 122.821 42.4773C124.662 42.4773 126.264 42.8864 127.628 43.7045C128.991 44.5114 130.048 45.6534 130.798 47.1307C131.56 48.608 131.935 50.3352 131.923 52.3125V69H123.588V53.9489C123.599 52.4943 123.236 51.358 122.497 50.5398C121.759 49.7216 120.719 49.3125 119.378 49.3125C118.503 49.3125 117.73 49.5057 117.06 49.892C116.401 50.267 115.884 50.8068 115.509 51.5114C115.145 52.2159 114.957 53.0682 114.946 54.0682ZM147.439 69V34.0909H155.876V62.1477H170.399V69H147.439ZM187.006 69.4943C184.267 69.4943 181.903 68.9545 179.915 67.875C177.938 66.7841 176.415 65.233 175.347 63.2216C174.29 61.1989 173.761 58.7955 173.761 56.0114C173.761 53.3068 174.295 50.9432 175.364 48.9205C176.432 46.8864 177.938 45.3068 179.881 44.1818C181.824 43.0455 184.114 42.4773 186.75 42.4773C188.614 42.4773 190.318 42.767 191.864 43.3466C193.409 43.9261 194.744 44.7841 195.869 45.9205C196.994 47.0568 197.869 48.4602 198.494 50.1307C199.119 51.7898 199.432 53.6932 199.432 55.8409V57.9205H176.676V53.0795H191.676C191.665 52.1932 191.455 51.4034 191.045 50.7102C190.636 50.017 190.074 49.4773 189.358 49.0909C188.653 48.6932 187.841 48.4943 186.92 48.4943C185.989 48.4943 185.153 48.7045 184.415 49.125C183.676 49.5341 183.091 50.0966 182.659 50.8125C182.227 51.517 182 52.3182 181.977 53.2159V58.142C181.977 59.2102 182.188 60.1477 182.608 60.9545C183.028 61.75 183.625 62.3693 184.398 62.8125C185.17 63.2557 186.091 63.4773 187.159 63.4773C187.898 63.4773 188.568 63.375 189.17 63.1705C189.773 62.9659 190.29 62.6648 190.722 62.267C191.153 61.8693 191.477 61.3807 191.693 60.8011L199.347 61.0227C199.028 62.7386 198.33 64.233 197.25 65.5057C196.182 66.767 194.778 67.75 193.04 68.4545C191.301 69.1477 189.29 69.4943 187.006 69.4943ZM212.024 54.0682V69H203.689V42.8182H211.615V47.625H211.905C212.484 46.0227 213.473 44.767 214.871 43.858C216.268 42.9375 217.933 42.4773 219.865 42.4773C221.706 42.4773 223.303 42.892 224.655 43.7216C226.018 44.5398 227.075 45.6875 227.825 47.1648C228.587 48.6307 228.962 50.3466 228.95 52.3125V69H220.615V53.9489C220.626 52.4943 220.257 51.358 219.507 50.5398C218.768 49.7216 217.74 49.3125 216.422 49.3125C215.547 49.3125 214.774 49.5057 214.104 49.892C213.445 50.267 212.933 50.8068 212.57 51.5114C212.217 52.2159 212.036 53.0682 212.024 54.0682ZM246.315 79.3636C243.827 79.3636 241.696 79.017 239.923 78.3239C238.151 77.6307 236.759 76.6818 235.747 75.4773C234.736 74.2727 234.128 72.9091 233.923 71.3864L241.815 70.9432C241.963 71.4773 242.236 71.9432 242.634 72.3409C243.043 72.7386 243.571 73.0455 244.219 73.2614C244.878 73.4773 245.651 73.5852 246.537 73.5852C247.935 73.5852 249.088 73.2443 249.997 72.5625C250.918 71.892 251.378 70.7159 251.378 69.0341V64.4318H251.088C250.759 65.2386 250.259 65.9602 249.588 66.5966C248.918 67.233 248.082 67.733 247.082 68.0966C246.094 68.4602 244.957 68.642 243.673 68.642C241.764 68.642 240.014 68.1989 238.423 67.3125C236.844 66.4148 235.577 65.0284 234.622 63.1534C233.679 61.267 233.207 58.8409 233.207 55.875C233.207 52.8182 233.696 50.3011 234.673 48.3239C235.651 46.3352 236.929 44.8636 238.509 43.9091C240.099 42.9545 241.81 42.4773 243.639 42.4773C245.014 42.4773 246.19 42.7159 247.168 43.1932C248.156 43.6591 248.969 44.2614 249.605 45C250.241 45.7386 250.724 46.5057 251.054 47.3011H251.293V42.8182H259.594V69.1023C259.594 71.3182 259.037 73.1875 257.923 74.7102C256.81 76.233 255.253 77.3864 253.253 78.1705C251.253 78.9659 248.94 79.3636 246.315 79.3636ZM246.571 62.5739C247.582 62.5739 248.446 62.3068 249.162 61.7727C249.878 61.2386 250.429 60.4716 250.815 59.4716C251.202 58.4716 251.395 57.2727 251.395 55.875C251.395 54.4545 251.202 53.233 250.815 52.2102C250.44 51.1761 249.889 50.3807 249.162 49.8239C248.446 49.267 247.582 48.9886 246.571 48.9886C245.537 48.9886 244.662 49.2727 243.946 49.8409C243.23 50.4091 242.685 51.2102 242.31 52.2443C241.946 53.267 241.764 54.4773 241.764 55.875C241.764 57.2727 241.952 58.4716 242.327 59.4716C242.702 60.4716 243.241 61.2386 243.946 61.7727C244.662 62.3068 245.537 62.5739 246.571 62.5739ZM279.686 42.8182V48.9545H263.169V42.8182H279.686ZM266.629 36.5455H274.964V60.767C274.964 61.2784 275.044 61.6932 275.203 62.0114C275.374 62.3182 275.618 62.5398 275.936 62.6761C276.254 62.8011 276.635 62.8636 277.078 62.8636C277.396 62.8636 277.732 62.8352 278.084 62.7784C278.447 62.7102 278.72 62.6534 278.902 62.608L280.163 68.625C279.766 68.7386 279.203 68.8807 278.476 69.0511C277.76 69.2216 276.902 69.3295 275.902 69.375C273.947 69.4659 272.271 69.2386 270.874 68.6932C269.487 68.1364 268.425 67.2727 267.686 66.1023C266.959 64.9318 266.607 63.4602 266.629 61.6875V36.5455ZM292.837 54.0682V69H284.501V34.0909H292.564V47.625H292.854C293.445 46.0114 294.411 44.75 295.751 43.8409C297.104 42.9318 298.757 42.4773 300.712 42.4773C302.553 42.4773 304.155 42.8864 305.518 43.7045C306.882 44.5114 307.939 45.6534 308.689 47.1307C309.45 48.608 309.825 50.3352 309.814 52.3125V69H301.479V53.9489C301.49 52.4943 301.126 51.358 300.388 50.5398C299.649 49.7216 298.609 49.3125 297.268 49.3125C296.393 49.3125 295.621 49.5057 294.95 49.892C294.291 50.267 293.774 50.8068 293.399 51.5114C293.036 52.2159 292.848 53.0682 292.837 54.0682Z" fill="#002855"/>
<path d="M8.77841 68.1136L8.36804 69.0256L8.37415 69.0283L8.77841 68.1136ZM3.9375 64.3125L3.13073 64.9034L3.13073 64.9034L3.9375 64.3125ZM2.13068 58.7386V57.7386H1.11981L1.13074 58.7494L2.13068 58.7386ZM10.6193 58.7386L11.6183 58.6939L11.5755 57.7386H10.6193V58.7386ZM11.3523 60.767L10.5596 61.3768L10.5654 61.3842L11.3523 60.767ZM13.2102 62.1307L12.8228 63.0526L12.8228 63.0526L13.2102 62.1307ZM18.5284 62.0966L18.9483 63.0042L18.9542 63.0014L18.5284 62.0966ZM20.3352 60.6136L21.158 61.1821L21.1627 61.1751L20.3352 60.6136ZM20.9659 58.4318L19.966 58.4179L19.9658 58.4318L19.966 58.4457L20.9659 58.4318ZM20.267 56.25L19.467 56.85L19.467 56.85L20.267 56.25ZM18.2386 54.767L17.8609 55.693L17.8652 55.6947L18.2386 54.767ZM11.7784 54.2386H10.7784V55.2386H11.7784V54.2386ZM11.7784 48.2386V47.2386H10.7784V48.2386H11.7784ZM17.8977 47.7273L17.5038 46.8081L17.499 46.8102L17.8977 47.7273ZM19.7557 46.2955L20.5664 46.881L20.5714 46.8739L19.7557 46.2955ZM20.4034 44.1477L19.4035 44.1332L19.4033 44.1475L19.4035 44.1618L20.4034 44.1477ZM19.8409 42.0852L18.992 42.6138L18.9979 42.6232L19.0039 42.6325L19.8409 42.0852ZM18.2557 40.6875L17.8146 41.585L17.8205 41.5878L18.2557 40.6875ZM13.3807 40.6875L12.9835 39.7698L12.9784 39.772L13.3807 40.6875ZM11.5909 42.0852L12.3963 42.6779L12.3963 42.6779L11.5909 42.0852ZM10.892 44.1818V45.1818H11.8639L11.8916 44.2104L10.892 44.1818ZM2.82955 44.1818L1.82961 44.1709L1.81856 45.1818H2.82955V44.1818ZM4.56818 38.6932L5.37994 39.2772L5.38192 39.2744L4.56818 38.6932ZM9.20455 34.9602L8.78916 34.0506L8.78716 34.0515L9.20455 34.9602ZM22.517 34.9261L22.0983 35.8343L22.0983 35.8343L22.517 34.9261ZM26.9489 38.5057L26.1293 39.0787L26.1314 39.0816L26.9489 38.5057ZM28.5341 43.6023L27.5341 43.6023L27.5341 43.6081L28.5341 43.6023ZM26.608 48.4602L25.9071 47.7469L25.904 47.75L26.608 48.4602ZM21.6477 50.8125L21.5032 49.823L20.6477 49.948V50.8125H21.6477ZM21.6477 51.0852H20.6477V51.9745L21.5309 52.0784L21.6477 51.0852ZM27.767 53.7102L27.0458 54.4029L27.0486 54.4058L27.767 53.7102ZM29.8295 59.0795L28.8295 59.0743V59.0795H29.8295ZM28.0398 64.4659L27.2439 63.8604L27.2433 63.8613L28.0398 64.4659ZM23.0966 68.1477L23.4851 69.0692L23.4875 69.0681L23.0966 68.1477ZM15.8523 68.4773C13.3074 68.4773 11.0911 68.0425 9.18267 67.199L8.37415 69.0283C10.5794 70.003 13.079 70.4773 15.8523 70.4773V68.4773ZM9.18877 67.2017C7.28146 66.3434 5.81198 65.1795 4.74427 63.7216L3.13073 64.9034C4.42666 66.6728 6.18445 68.0429 8.36804 69.0256L9.18877 67.2017ZM4.74427 63.7216C3.69236 62.2854 3.15122 60.6327 3.13062 58.7278L1.13074 58.7494C1.1556 61.0492 1.81901 63.1124 3.13073 64.9034L4.74427 63.7216ZM2.13068 59.7386H10.6193V57.7386H2.13068V59.7386ZM9.62032 58.7834C9.66337 59.7449 9.97702 60.6193 10.5596 61.3768L12.1449 60.1573C11.8184 59.7329 11.6434 59.2551 11.6183 58.6939L9.62032 58.7834ZM10.5654 61.3842C11.1403 62.1171 11.9063 62.6674 12.8228 63.0526L13.5977 61.2088C12.946 60.9349 12.4734 60.5761 12.1391 60.1499L10.5654 61.3842ZM12.8228 63.0526C13.7491 63.4419 14.7763 63.625 15.8864 63.625V61.625C14.9964 61.625 14.2395 61.4785 13.5977 61.2088L12.8228 63.0526ZM15.8864 63.625C17.0039 63.625 18.0325 63.4279 18.9483 63.0042L18.1085 61.189C17.5016 61.4698 16.7688 61.625 15.8864 61.625V63.625ZM18.9542 63.0014C19.8664 62.5722 20.6138 61.9696 21.158 61.1821L19.5125 60.0452C19.193 60.5076 18.7359 60.8937 18.1026 61.1918L18.9542 63.0014ZM21.1627 61.1751C21.7171 60.3581 21.9798 59.4272 21.9658 58.4179L19.966 58.4457C19.9747 59.0728 19.8169 59.5965 19.5078 60.0521L21.1627 61.1751ZM21.9658 58.4457C21.9802 57.4133 21.681 56.4687 21.067 55.65L19.467 56.85C19.8076 57.3041 19.9744 57.814 19.966 58.4179L21.9658 58.4457ZM21.067 55.65C20.4613 54.8424 19.6248 54.2471 18.6121 53.8394L17.8652 55.6947C18.6025 55.9915 19.1182 56.3849 19.467 56.85L21.067 55.65ZM18.6163 53.8411C17.6054 53.4288 16.4485 53.2386 15.1705 53.2386V55.2386C16.256 55.2386 17.1446 55.4008 17.861 55.693L18.6163 53.8411ZM15.1705 53.2386H11.7784V55.2386H15.1705V53.2386ZM12.7784 54.2386V48.2386H10.7784V54.2386H12.7784ZM11.7784 49.2386H15.1705V47.2386H11.7784V49.2386ZM15.1705 49.2386C16.3136 49.2386 17.3631 49.0501 18.2965 48.6443L17.499 46.8102C16.8642 47.0862 16.0955 47.2386 15.1705 47.2386V49.2386ZM18.2916 48.6464C19.2294 48.2445 20.0026 47.6616 20.5664 46.8809L18.945 45.71C18.6224 46.1566 18.157 46.5282 17.5038 46.8081L18.2916 48.6464ZM20.5714 46.8739C21.144 46.0664 21.4175 45.1405 21.4033 44.1336L19.4035 44.1618C19.4121 44.7686 19.2537 45.2745 18.9399 45.717L20.5714 46.8739ZM21.4033 44.1622C21.4172 43.2018 21.1852 42.3139 20.6779 41.538L19.0039 42.6325C19.2693 43.0383 19.4123 43.5255 19.4035 44.1332L21.4033 44.1622ZM20.6898 41.5567C20.208 40.7829 19.531 40.1932 18.6908 39.7872L17.8205 41.5878C18.344 41.8409 18.7238 42.183 18.992 42.6138L20.6898 41.5567ZM18.6968 39.7901C17.8658 39.3816 16.9315 39.1932 15.9205 39.1932V41.1932C16.6822 41.1932 17.3047 41.3343 17.8146 41.5849L18.6968 39.7901ZM15.9205 39.1932C14.8688 39.1932 13.8848 39.3796 12.9835 39.7698L13.7779 41.6052C14.3993 41.3363 15.1084 41.1932 15.9205 41.1932V39.1932ZM12.9784 39.772C12.0838 40.1651 11.3422 40.736 10.7855 41.4925L12.3963 42.6779C12.726 42.2299 13.1775 41.869 13.783 41.603L12.9784 39.772ZM10.7855 41.4925C10.2138 42.2695 9.9206 43.1682 9.89245 44.1533L11.8916 44.2104C11.9089 43.6045 12.0817 43.1055 12.3963 42.6779L10.7855 41.4925ZM10.892 43.1818H2.82955V45.1818H10.892V43.1818ZM3.82949 44.1927C3.85013 42.3041 4.37224 40.6779 5.37994 39.2772L3.75643 38.1092C2.4914 39.8676 1.85442 41.9005 1.82961 44.1709L3.82949 44.1927ZM5.38192 39.2744C6.40703 37.8393 7.8095 36.7014 9.62193 35.869L8.78716 34.0515C6.6905 35.0145 5.00206 36.3653 3.75445 38.1119L5.38192 39.2744ZM9.61993 35.8699C11.436 35.0406 13.5294 34.6136 15.9205 34.6136V32.6136C13.2888 32.6136 10.9049 33.0844 8.78916 34.0506L9.61993 35.8699ZM15.9205 34.6136C18.3039 34.6136 20.3551 35.0305 22.0983 35.8343L22.9358 34.018C20.8835 33.0718 18.5371 32.6136 15.9205 32.6136V34.6136ZM22.0983 35.8343C23.857 36.6451 25.187 37.7311 26.1293 39.0787L27.7684 37.9326C26.5971 36.2575 24.9726 34.9571 22.9358 34.018L22.0983 35.8343ZM26.1314 39.0816C27.0652 40.407 27.5341 41.9032 27.5341 43.6023H29.5341C29.5341 41.5059 28.9462 39.6043 27.7663 37.9297L26.1314 39.0816ZM27.5341 43.6081C27.5441 45.3284 26.9928 46.6802 25.9071 47.7469L27.3088 49.1736C28.814 47.6947 29.5469 45.808 29.5341 43.5965L27.5341 43.6081ZM25.904 47.75C24.7912 48.8529 23.3433 49.5542 21.5032 49.823L21.7923 51.802C23.9976 51.4799 25.8565 50.613 27.3119 49.1705L25.904 47.75ZM20.6477 50.8125V51.0852H22.6477V50.8125H20.6477ZM21.5309 52.0784C24.0903 52.3795 25.8821 53.1911 27.0458 54.4029L28.4883 53.0176C26.902 51.3657 24.6142 50.4273 21.7646 50.0921L21.5309 52.0784ZM27.0486 54.4058C28.2381 55.6343 28.8397 57.1656 28.8296 59.0743L30.8295 59.0848C30.8422 56.698 30.0687 54.6497 28.4855 53.0146L27.0486 54.4058ZM28.8295 59.0795C28.8295 60.8898 28.3009 62.4712 27.2439 63.8604L28.8356 65.0714C30.165 63.3243 30.8295 61.3148 30.8295 59.0795H28.8295ZM27.2433 63.8613C26.1839 65.2567 24.6871 66.3857 22.7057 67.2273L23.4875 69.0681C25.7333 68.1143 27.532 66.7887 28.8363 65.0706L27.2433 63.8613ZM22.7081 67.2263C20.7503 68.0517 18.4717 68.4773 15.8523 68.4773V70.4773C18.6874 70.4773 21.2383 70.0165 23.4851 69.0692L22.7081 67.2263ZM50.8168 32.4545L51.7824 32.7145L52.1215 31.4545H50.8168V32.4545ZM39.5668 74.25V75.25H40.3332L40.5324 74.5099L39.5668 74.25ZM32.4588 74.25L31.4932 73.9901L31.154 75.25H32.4588V74.25ZM43.7088 32.4545V31.4545H42.9424L42.7432 32.1946L43.7088 32.4545ZM49.8511 32.1946L38.6011 73.9901L40.5324 74.5099L51.7824 32.7145L49.8511 32.1946ZM39.5668 73.25H32.4588V75.25H39.5668V73.25ZM33.4244 74.5099L44.6744 32.7145L42.7432 32.1946L31.4932 73.9901L33.4244 74.5099ZM43.7088 33.4545H50.8168V31.4545H43.7088V33.4545ZM53.429 63.2045H52.429V64.2045H53.429V63.2045ZM53.429 56.625L52.5847 56.0892L52.429 56.3345V56.625H53.429ZM67.7301 34.0909V33.0909H67.1804L66.8858 33.5551L67.7301 34.0909ZM73.5767 34.0909H74.5767V33.0909H73.5767V34.0909ZM73.5767 43.0227V44.0227H74.5767V43.0227H73.5767ZM70.1847 43.0227V42.0227H69.6333L69.339 42.489L70.1847 43.0227ZM61.8153 56.2841L60.9697 55.7504L60.8153 55.9949V56.2841H61.8153ZM61.8153 56.5568H60.8153V57.5568H61.8153V56.5568ZM82.5256 56.5568H83.5256V55.5568H82.5256V56.5568ZM82.5256 63.2045V64.2045H83.5256V63.2045H82.5256ZM70.2869 69H69.2869V70H70.2869V69ZM70.2869 61.1932L69.2887 61.1341L69.2869 61.1636V61.1932H70.2869ZM70.4574 58.3125L71.4556 58.3716L71.4574 58.3421V58.3125H70.4574ZM70.4574 34.0909V33.0909H69.4574V34.0909H70.4574ZM78.3494 34.0909H79.3494V33.0909H78.3494V34.0909ZM78.3494 69V70H79.3494V69H78.3494ZM54.429 63.2045V56.625H52.429V63.2045H54.429ZM54.2733 57.1608L68.5744 34.6267L66.8858 33.5551L52.5847 56.0892L54.2733 57.1608ZM67.7301 35.0909H73.5767V33.0909H67.7301V35.0909ZM72.5767 34.0909V43.0227H74.5767V34.0909H72.5767ZM73.5767 42.0227H70.1847V44.0227H73.5767V42.0227ZM69.339 42.489L60.9697 55.7504L62.661 56.8178L71.0303 43.5564L69.339 42.489ZM60.8153 56.2841V56.5568H62.8153V56.2841H60.8153ZM61.8153 57.5568H82.5256V55.5568H61.8153V57.5568ZM81.5256 56.5568V63.2045H83.5256V56.5568H81.5256ZM82.5256 62.2045H53.429V64.2045H82.5256V62.2045ZM71.2869 69V61.1932H69.2869V69H71.2869ZM71.2852 61.2522L71.4556 58.3716L69.4591 58.2534L69.2887 61.1341L71.2852 61.2522ZM71.4574 58.3125V34.0909H69.4574V58.3125H71.4574ZM70.4574 35.0909H78.3494V33.0909H70.4574V35.0909ZM77.3494 34.0909V69H79.3494V34.0909H77.3494ZM78.3494 68H70.2869V70H78.3494V68ZM101.795 42.8182H102.795V41.8182H101.795V42.8182ZM101.795 48.9545V49.9545H102.795V48.9545H101.795ZM85.2784 48.9545H84.2784V49.9545H85.2784V48.9545ZM85.2784 42.8182V41.8182H84.2784V42.8182H85.2784ZM88.7386 36.5455V35.5455H87.7386V36.5455H88.7386ZM97.0739 36.5455H98.0739V35.5455H97.0739V36.5455ZM97.3125 62.0114L96.4181 62.4586L96.4278 62.478L96.4383 62.497L97.3125 62.0114ZM98.0455 62.6761L97.6515 63.5953L97.6656 63.6013L97.6798 63.6069L98.0455 62.6761ZM100.193 62.7784L100.352 63.7656L100.365 63.7636L100.377 63.7613L100.193 62.7784ZM101.011 62.608L101.99 62.4028L101.777 61.3858L100.769 61.6378L101.011 62.608ZM102.273 68.625L102.547 69.5865L103.442 69.3308L103.251 68.4198L102.273 68.625ZM100.585 69.0511L100.357 68.0775L100.354 68.0783L100.585 69.0511ZM98.0114 69.375L97.966 68.376L97.9649 68.3761L98.0114 69.375ZM92.983 68.6932L92.6102 69.6212L92.6194 69.6248L92.983 68.6932ZM89.7955 66.1023L88.946 66.6301L88.9498 66.636L89.7955 66.1023ZM88.7386 61.6875L89.7386 61.7003V61.6875H88.7386ZM100.795 42.8182V48.9545H102.795V42.8182H100.795ZM101.795 47.9545H85.2784V49.9545H101.795V47.9545ZM86.2784 48.9545V42.8182H84.2784V48.9545H86.2784ZM85.2784 43.8182H101.795V41.8182H85.2784V43.8182ZM88.7386 37.5455H97.0739V35.5455H88.7386V37.5455ZM96.0739 36.5455V60.767H98.0739V36.5455H96.0739ZM96.0739 60.767C96.0739 61.3705 96.1659 61.9543 96.4181 62.4586L98.2069 61.5641C98.1409 61.432 98.0739 61.1864 98.0739 60.767H96.0739ZM96.4383 62.497C96.7148 62.9946 97.1266 63.3703 97.6515 63.5953L98.4394 61.757C98.3279 61.7092 98.2511 61.6417 98.1867 61.5257L96.4383 62.497ZM97.6798 63.6069C98.1433 63.789 98.6545 63.8636 99.1875 63.8636V61.8636C98.8342 61.8636 98.5839 61.8133 98.4111 61.7454L97.6798 63.6069ZM99.1875 63.8636C99.565 63.8636 99.9537 63.83 100.352 63.7656L100.034 61.7912C99.7281 61.8405 99.4464 61.8636 99.1875 61.8636V63.8636ZM100.377 63.7613C100.746 63.6922 101.042 63.631 101.254 63.5781L100.769 61.6378C100.617 61.6758 100.368 61.7282 100.009 61.7955L100.377 63.7613ZM100.033 62.8131L101.294 68.8302L103.251 68.4198L101.99 62.4028L100.033 62.8131ZM101.998 67.6635C101.623 67.7705 101.079 67.9083 100.357 68.0775L100.813 70.0248C101.546 69.853 102.127 69.7067 102.547 69.5865L101.998 67.6635ZM100.354 68.0783C99.7162 68.2301 98.924 68.3325 97.966 68.376L98.0568 70.374C99.0988 70.3266 100.022 70.2131 100.817 70.0239L100.354 68.0783ZM97.9649 68.3761C96.1096 68.4624 94.5805 68.2432 93.3465 67.7616L92.6194 69.6248C94.1808 70.2341 96.0041 70.4694 98.0578 70.3739L97.9649 68.3761ZM93.3557 67.7652C92.1481 67.2802 91.2584 66.5468 90.6411 65.5686L88.9498 66.636C89.8097 67.9987 91.0451 68.9925 92.6103 69.6211L93.3557 67.7652ZM90.6448 65.5745C90.0435 64.6067 89.7176 63.3362 89.7386 61.7003L87.7387 61.6747C87.7142 63.5842 88.0929 65.257 88.9461 66.63L90.6448 65.5745ZM89.7386 61.6875V36.5455H87.7386V61.6875H89.7386ZM114.946 54.0682L113.946 54.0568V54.0682H114.946ZM114.946 69V70H115.946V69H114.946ZM106.611 69H105.611V70H106.611V69ZM106.611 34.0909V33.0909H105.611V34.0909H106.611ZM114.673 34.0909H115.673V33.0909H114.673V34.0909ZM114.673 47.625H113.673V48.625H114.673V47.625ZM114.963 47.625V48.625H115.662L115.902 47.9689L114.963 47.625ZM117.861 43.8409L117.303 43.011L117.3 43.0132L117.861 43.8409ZM127.628 43.7045L127.113 44.5621L127.119 44.5652L127.628 43.7045ZM130.798 47.1307L129.907 47.5834L129.909 47.5888L130.798 47.1307ZM131.923 52.3125L130.923 52.3068V52.3125H131.923ZM131.923 69V70H132.923V69H131.923ZM123.588 69H122.588V70H123.588V69ZM123.588 53.9489L122.588 53.9411V53.9489H123.588ZM122.497 50.5398L121.755 51.2099L121.755 51.2099L122.497 50.5398ZM117.06 49.892L117.554 50.7612L117.559 50.7585L117.06 49.892ZM115.509 51.5114L114.626 51.0415L114.62 51.0527L115.509 51.5114ZM113.946 54.0682V69H115.946V54.0682H113.946ZM114.946 68H106.611V70H114.946V68ZM107.611 69V34.0909H105.611V69H107.611ZM106.611 35.0909H114.673V33.0909H106.611V35.0909ZM113.673 34.0909V47.625H115.673V34.0909H113.673ZM114.673 48.625H114.963V46.625H114.673V48.625ZM115.902 47.9689C116.426 46.5394 117.265 45.4527 118.422 44.6686L117.3 43.0132C115.774 44.0473 114.682 45.4833 114.024 47.2811L115.902 47.9689ZM118.419 44.6708C119.576 43.8931 121.025 43.4773 122.821 43.4773V41.4773C120.708 41.4773 118.851 41.9705 117.303 43.011L118.419 44.6708ZM122.821 43.4773C124.51 43.4773 125.928 43.851 127.113 44.562L128.142 42.8471C126.6 41.9217 124.814 41.4773 122.821 41.4773V43.4773ZM127.119 44.5652C128.311 45.2706 129.239 46.2676 129.907 47.5834L131.69 46.678C130.858 45.0393 129.672 43.7521 128.137 42.8439L127.119 44.5652ZM129.909 47.5888C130.584 48.8978 130.934 50.4603 130.923 52.3068L132.923 52.3182C132.935 50.2101 132.535 48.3181 131.687 46.6726L129.909 47.5888ZM130.923 52.3125V69H132.923V52.3125H130.923ZM131.923 68H123.588V70H131.923V68ZM124.588 69V53.9489H122.588V69H124.588ZM124.588 53.9567C124.601 52.3337 124.194 50.9266 123.239 49.8697L121.755 51.2099C122.278 51.7894 122.598 52.6549 122.588 53.9411L124.588 53.9567ZM123.239 49.8697C122.271 48.7968 120.935 48.3125 119.378 48.3125V50.3125C120.502 50.3125 121.246 50.6464 121.755 51.2099L123.239 49.8697ZM119.378 48.3125C118.351 48.3125 117.402 48.5408 116.56 49.0256L117.559 50.7585C118.059 50.4706 118.655 50.3125 119.378 50.3125V48.3125ZM116.565 49.0229C115.733 49.4966 115.085 50.179 114.626 51.0415L116.391 51.9812C116.682 51.4346 117.069 51.0375 117.554 50.7612L116.565 49.0229ZM114.62 51.0527C114.169 51.927 113.959 52.9407 113.946 54.0568L115.946 54.0795C115.956 53.1956 116.121 52.5048 116.397 51.97L114.62 51.0527ZM147.439 69H146.439V70H147.439V69ZM147.439 34.0909V33.0909H146.439V34.0909H147.439ZM155.876 34.0909H156.876V33.0909H155.876V34.0909ZM155.876 62.1477H154.876V63.1477H155.876V62.1477ZM170.399 62.1477H171.399V61.1477H170.399V62.1477ZM170.399 69V70H171.399V69H170.399ZM148.439 69V34.0909H146.439V69H148.439ZM147.439 35.0909H155.876V33.0909H147.439V35.0909ZM154.876 34.0909V62.1477H156.876V34.0909H154.876ZM155.876 63.1477H170.399V61.1477H155.876V63.1477ZM169.399 62.1477V69H171.399V62.1477H169.399ZM170.399 68H147.439V70H170.399V68ZM179.915 67.875L179.432 68.7506L179.438 68.7539L179.915 67.875ZM175.347 63.2216L174.46 63.6847L174.463 63.6906L175.347 63.2216ZM175.364 48.9205L176.248 49.3874L176.249 49.3854L175.364 48.9205ZM179.881 44.1818L180.382 45.0473L180.385 45.045L179.881 44.1818ZM191.864 43.3466L192.215 42.4103L192.215 42.4103L191.864 43.3466ZM198.494 50.1307L197.558 50.4811L197.559 50.4832L198.494 50.1307ZM199.432 57.9205V58.9205H200.432V57.9205H199.432ZM176.676 57.9205H175.676V58.9205H176.676V57.9205ZM176.676 53.0795V52.0795H175.676V53.0795H176.676ZM191.676 53.0795V54.0795H192.689L192.676 53.0667L191.676 53.0795ZM189.358 49.0909L188.866 49.9617L188.875 49.9664L188.883 49.9709L189.358 49.0909ZM184.415 49.125L184.899 49.9999L184.909 49.9941L184.415 49.125ZM182.659 50.8125L183.512 51.3351L183.515 51.329L182.659 50.8125ZM181.977 53.2159L180.978 53.1906L180.977 53.2033V53.2159H181.977ZM182.608 60.9545L181.721 61.4167L181.724 61.4219L182.608 60.9545ZM184.398 62.8125L183.9 63.68L183.9 63.68L184.398 62.8125ZM189.17 63.1705L189.492 64.1173L189.492 64.1173L189.17 63.1705ZM190.722 62.267L191.399 63.0026L191.399 63.0026L190.722 62.267ZM191.693 60.8011L191.722 59.8016L191.006 59.7808L190.756 60.452L191.693 60.8011ZM199.347 61.0227L200.33 61.205L200.543 60.0569L199.376 60.0231L199.347 61.0227ZM197.25 65.5057L196.487 64.8588L196.487 64.8594L197.25 65.5057ZM193.04 68.4545L193.41 69.3835L193.415 69.3813L193.04 68.4545ZM187.006 68.4943C184.399 68.4943 182.206 67.9811 180.392 66.9961L179.438 68.7539C181.601 69.928 184.135 70.4943 187.006 70.4943V68.4943ZM180.398 66.9994C178.592 66.0032 177.208 64.594 176.23 62.7526L174.463 63.6906C175.622 65.8719 177.283 67.565 179.432 68.7506L180.398 66.9994ZM176.233 62.7585C175.265 60.9068 174.761 58.6692 174.761 56.0114H172.761C172.761 58.9217 173.314 61.4909 174.46 63.6847L176.233 62.7585ZM174.761 56.0114C174.761 53.4399 175.268 51.2421 176.248 49.3874L174.479 48.4535C173.322 50.6442 172.761 53.1737 172.761 56.0114H174.761ZM176.249 49.3854C177.232 47.5143 178.606 46.0754 180.382 45.0472L179.38 43.3164C177.269 44.5382 175.632 46.2584 174.478 48.4555L176.249 49.3854ZM180.385 45.045C182.151 44.0126 184.26 43.4773 186.75 43.4773V41.4773C183.967 41.4773 181.497 42.0784 179.376 43.3186L180.385 45.045ZM186.75 43.4773C188.509 43.4773 190.093 43.7506 191.513 44.2829L192.215 42.4103C190.544 41.7835 188.718 41.4773 186.75 41.4773V43.4773ZM191.513 44.2829C192.927 44.8134 194.139 45.5936 195.159 46.624L196.58 45.2169C195.35 43.9746 193.891 43.0388 192.215 42.4103L191.513 44.2829ZM195.159 46.624C196.173 47.6489 196.977 48.9277 197.558 50.4811L199.431 49.7803C198.762 47.9928 197.815 46.4647 196.58 45.2169L195.159 46.624ZM197.559 50.4832C198.133 52.0086 198.432 53.7889 198.432 55.8409H200.432C200.432 53.5975 200.105 51.571 199.43 49.7782L197.559 50.4832ZM198.432 55.8409V57.9205H200.432V55.8409H198.432ZM199.432 56.9205H176.676V58.9205H199.432V56.9205ZM177.676 57.9205V53.0795H175.676V57.9205H177.676ZM176.676 54.0795H191.676V52.0795H176.676V54.0795ZM192.676 53.0667C192.663 52.0241 192.413 51.0603 191.907 50.202L190.184 51.2185C190.496 51.7466 190.667 52.3623 190.676 53.0924L192.676 53.0667ZM191.907 50.202C191.404 49.3503 190.707 48.6827 189.833 48.2109L188.883 49.9709C189.441 50.2718 189.869 50.6838 190.184 51.2185L191.907 50.202ZM189.85 48.2201C188.975 47.7266 187.989 47.4943 186.92 47.4943V49.4943C187.693 49.4943 188.331 49.6598 188.866 49.9617L189.85 48.2201ZM186.92 47.4943C185.832 47.4943 184.824 47.7416 183.92 48.2559L184.909 49.9941C185.483 49.6675 186.145 49.4943 186.92 49.4943V47.4943ZM183.93 48.2502C183.04 48.7432 182.326 49.4286 181.803 50.296L183.515 51.329C183.856 50.7646 184.312 50.3249 184.899 49.9998L183.93 48.2502ZM181.806 50.2899C181.275 51.1573 181.004 52.1328 180.978 53.1906L182.977 53.2412C182.996 52.5036 183.18 51.8768 183.512 51.3351L181.806 50.2899ZM180.977 53.2159V58.142H182.977V53.2159H180.977ZM180.977 58.142C180.977 59.3431 181.214 60.4443 181.721 61.4167L183.495 60.4924C183.161 59.8512 182.977 59.0773 182.977 58.142H180.977ZM181.724 61.4219C182.232 62.3828 182.962 63.1417 183.9 63.68L184.895 61.945C184.288 61.597 183.825 61.1172 183.492 60.4872L181.724 61.4219ZM183.9 63.68C184.852 64.2258 185.951 64.4773 187.159 64.4773V62.4773C186.231 62.4773 185.489 62.2856 184.895 61.945L183.9 63.68ZM187.159 64.4773C187.99 64.4773 188.771 64.3622 189.492 64.1173L188.849 62.2236C188.365 62.3878 187.806 62.4773 187.159 62.4773V64.4773ZM189.492 64.1173C190.215 63.8717 190.856 63.5025 191.399 63.0026L190.044 61.5315C189.723 61.8271 189.33 62.0601 188.849 62.2236L189.492 64.1173ZM191.399 63.0026C191.953 62.4926 192.362 61.8691 192.63 61.1502L190.756 60.452C190.592 60.8922 190.354 61.2461 190.044 61.5315L191.399 63.0026ZM191.664 61.8007L199.318 62.0223L199.376 60.0231L191.722 59.8016L191.664 61.8007ZM198.363 60.8404C198.075 62.393 197.449 63.7252 196.487 64.8588L198.013 66.1525C199.21 64.7407 199.981 63.0842 200.33 61.205L198.363 60.8404ZM196.487 64.8594C195.537 65.9815 194.273 66.8757 192.664 67.5277L193.415 69.3813C195.284 68.6243 196.827 67.5526 198.013 66.1519L196.487 64.8594ZM192.669 67.5257C191.071 68.1628 189.19 68.4943 187.006 68.4943V70.4943C189.389 70.4943 191.531 70.1327 193.41 69.3834L192.669 67.5257ZM212.024 54.0682L211.024 54.0568V54.0682H212.024ZM212.024 69V70H213.024V69H212.024ZM203.689 69H202.689V70H203.689V69ZM203.689 42.8182V41.8182H202.689V42.8182H203.689ZM211.615 42.8182H212.615V41.8182H211.615V42.8182ZM211.615 47.625H210.615V48.625H211.615V47.625ZM211.905 47.625V48.625H212.607L212.845 47.9651L211.905 47.625ZM214.871 43.858L215.416 44.6963L215.421 44.6931L214.871 43.858ZM224.655 43.7216L224.132 44.574L224.14 44.5791L224.655 43.7216ZM227.825 47.1648L226.934 47.6175L226.938 47.6257L227.825 47.1648ZM228.95 52.3125L227.95 52.3067V52.3125H228.95ZM228.95 69V70H229.95V69H228.95ZM220.615 69H219.615V70H220.615V69ZM220.615 53.9489L219.615 53.9411V53.9489H220.615ZM219.507 50.5398L218.765 51.2099L218.77 51.2155L219.507 50.5398ZM214.104 49.892L214.598 50.7612L214.603 50.7585L214.104 49.892ZM212.57 51.5114L211.681 51.0527L211.675 51.0641L212.57 51.5114ZM211.024 54.0682V69H213.024V54.0682H211.024ZM212.024 68H203.689V70H212.024V68ZM204.689 69V42.8182H202.689V69H204.689ZM203.689 43.8182H211.615V41.8182H203.689V43.8182ZM210.615 42.8182V47.625H212.615V42.8182H210.615ZM211.615 48.625H211.905V46.625H211.615V48.625ZM212.845 47.9651C213.352 46.5627 214.205 45.4839 215.416 44.6962L214.326 43.0197C212.741 44.0502 211.616 45.4828 210.964 47.2849L212.845 47.9651ZM215.421 44.6931C216.631 43.896 218.098 43.4773 219.865 43.4773V41.4773C217.769 41.4773 215.906 41.979 214.321 43.0228L215.421 44.6931ZM219.865 43.4773C221.551 43.4773 222.961 43.8556 224.132 44.574L225.178 42.8692C223.644 41.9285 221.86 41.4773 219.865 41.4773V43.4773ZM224.14 44.5791C225.336 45.2963 226.265 46.3005 226.934 47.6175L228.717 46.7121C227.886 45.0745 226.701 43.7832 225.169 42.8641L224.14 44.5791ZM226.938 47.6257C227.611 48.9225 227.961 50.4724 227.95 52.3067L229.95 52.3183C229.962 50.2207 229.562 48.3389 228.713 46.7039L226.938 47.6257ZM227.95 52.3125V69H229.95V52.3125H227.95ZM228.95 68H220.615V70H228.95V68ZM221.615 69V53.9489H219.615V69H221.615ZM221.615 53.9567C221.628 52.33 221.213 50.9207 220.244 49.864L218.77 51.2155C219.301 51.7952 219.625 52.6586 219.615 53.9411L221.615 53.9567ZM220.249 49.8697C219.284 48.8005 217.963 48.3125 216.422 48.3125V50.3125C217.517 50.3125 218.253 50.6427 218.765 51.2099L220.249 49.8697ZM216.422 48.3125C215.395 48.3125 214.446 48.5408 213.604 49.0256L214.603 50.7585C215.103 50.4706 215.699 50.3125 216.422 50.3125V48.3125ZM213.609 49.0229C212.774 49.4982 212.129 50.1843 211.681 51.0527L213.458 51.97C213.737 51.4293 214.115 51.0359 214.598 50.7612L213.609 49.0229ZM211.675 51.0641C211.239 51.9356 211.037 52.945 211.024 54.0568L213.024 54.0795C213.034 53.1913 213.195 52.4963 213.464 51.9586L211.675 51.0641ZM239.923 78.3239L239.559 79.2552L239.559 79.2552L239.923 78.3239ZM235.747 75.4773L234.981 76.1203L234.981 76.1203L235.747 75.4773ZM233.923 71.3864L233.867 70.3879L232.788 70.4485L232.932 71.5195L233.923 71.3864ZM241.815 70.9432L242.779 70.6766L242.564 69.8996L241.759 69.9448L241.815 70.9432ZM242.634 72.3409L241.926 73.0481L241.936 73.0579L242.634 72.3409ZM244.219 73.2614L243.903 74.2101L243.907 74.2117L244.219 73.2614ZM249.997 72.5625L249.408 71.7541L249.397 71.7625L249.997 72.5625ZM251.378 64.4318H252.378V63.4318H251.378V64.4318ZM251.088 64.4318V63.4318H250.416L250.162 64.0537L251.088 64.4318ZM249.588 66.5966L250.276 67.3219L250.276 67.3219L249.588 66.5966ZM247.082 68.0966L246.741 67.1568L246.737 67.1581L247.082 68.0966ZM238.423 67.3125L237.929 68.1819L237.937 68.1861L238.423 67.3125ZM234.622 63.1534L233.728 63.6006L233.731 63.6071L234.622 63.1534ZM234.673 48.3239L235.57 48.767L235.571 48.7649L234.673 48.3239ZM238.509 43.9091L237.994 43.0516L237.991 43.0532L238.509 43.9091ZM247.168 43.1932L246.729 44.0918L246.741 44.0978L247.168 43.1932ZM249.605 45L248.848 45.6527L248.848 45.6527L249.605 45ZM251.054 47.3011L250.13 47.6839L250.386 48.3011H251.054V47.3011ZM251.293 47.3011V48.3011H252.293V47.3011H251.293ZM251.293 42.8182V41.8182H250.293V42.8182H251.293ZM259.594 42.8182H260.594V41.8182H259.594V42.8182ZM253.253 78.1705L252.888 77.2394L252.883 77.2413L253.253 78.1705ZM250.815 59.4716L251.748 59.832L251.748 59.832L250.815 59.4716ZM250.815 52.2102L249.875 52.5512L249.88 52.5636L250.815 52.2102ZM249.162 49.8239L248.548 50.6132L248.554 50.6179L249.162 49.8239ZM242.31 52.2443L241.37 51.9034L241.367 51.9093L242.31 52.2443ZM243.946 61.7727L243.342 62.5697L243.348 62.5743L243.946 61.7727ZM246.315 78.3636C243.915 78.3636 241.915 78.0288 240.287 77.3925L239.559 79.2552C241.478 80.0053 243.738 80.3636 246.315 80.3636V78.3636ZM240.287 77.3925C238.638 76.7476 237.396 75.8862 236.513 74.8343L234.981 76.1203C236.121 77.4774 237.663 78.5138 239.559 79.2552L240.287 77.3925ZM236.513 74.8343C235.62 73.7712 235.093 72.5834 234.914 71.2532L232.932 71.5195C233.163 73.2348 233.851 74.7742 234.981 76.1203L236.513 74.8343ZM233.979 72.3848L241.871 71.9416L241.759 69.9448L233.867 70.3879L233.979 72.3848ZM240.852 71.2098C241.046 71.913 241.408 72.53 241.926 73.048L243.341 71.6338C243.063 71.3563 242.88 71.0415 242.779 70.6766L240.852 71.2098ZM241.936 73.0579C242.473 73.5792 243.14 73.9558 243.903 74.21L244.535 72.3127C244.002 72.1351 243.613 71.8981 243.331 71.6239L241.936 73.0579ZM243.907 74.2117C244.69 74.4682 245.573 74.5852 246.537 74.5852V72.5852C245.728 72.5852 245.065 72.4864 244.53 72.3111L243.907 74.2117ZM246.537 74.5852C248.1 74.5852 249.478 74.2016 250.597 73.3625L249.397 71.7625C248.698 72.287 247.769 72.5852 246.537 72.5852V74.5852ZM250.586 73.3708C251.871 72.4345 252.378 70.8757 252.378 69.0341H250.378C250.378 70.5561 249.964 71.3496 249.408 71.7542L250.586 73.3708ZM252.378 69.0341V64.4318H250.378V69.0341H252.378ZM251.378 63.4318H251.088V65.4318H251.378V63.4318ZM250.162 64.0537C249.89 64.7214 249.474 65.3265 248.9 65.8713L250.276 67.3219C251.043 66.594 251.627 65.7559 252.014 64.8099L250.162 64.0537ZM248.9 65.8713C248.343 66.3999 247.631 66.833 246.741 67.1568L247.424 69.0364C248.534 68.6329 249.492 68.066 250.276 67.3219L248.9 65.8713ZM246.737 67.1581C245.88 67.4732 244.865 67.642 243.673 67.642V69.642C245.05 69.642 246.307 69.4472 247.428 69.0351L246.737 67.1581ZM243.673 67.642C241.926 67.642 240.345 67.2383 238.91 66.4389L237.937 68.1861C239.684 69.1594 241.602 69.642 243.673 69.642V67.642ZM238.917 66.4431C237.534 65.6567 236.393 64.4285 235.513 62.6997L233.731 63.6071C234.76 65.6283 236.154 67.1729 237.929 68.1819L238.917 66.4431ZM235.517 62.7062C234.665 61.0034 234.207 58.7448 234.207 55.875H232.207C232.207 58.937 232.693 61.5307 233.728 63.6006L235.517 62.7062ZM234.207 55.875C234.207 52.916 234.682 50.5638 235.57 48.767L233.777 47.8808C232.71 50.0384 232.207 52.7204 232.207 55.875H234.207ZM235.571 48.7649C236.481 46.9133 237.64 45.6021 239.026 44.7649L237.991 43.0532C236.218 44.1251 234.82 45.7572 233.776 47.8828L235.571 48.7649ZM239.023 44.7666C240.461 43.9039 241.994 43.4773 243.639 43.4773V41.4773C241.626 41.4773 239.738 42.0052 237.994 43.0516L239.023 44.7666ZM243.639 43.4773C244.901 43.4773 245.919 43.6965 246.729 44.0917L247.606 42.2946C246.461 41.7353 245.127 41.4773 243.639 41.4773V43.4773ZM246.741 44.0978C247.618 44.5111 248.313 45.0325 248.848 45.6527L250.363 44.3473C249.624 43.4902 248.694 42.807 247.594 42.2886L246.741 44.0978ZM248.848 45.6527C249.424 46.3213 249.846 46.9987 250.13 47.6839L251.978 46.9184C251.603 46.0126 251.059 45.156 250.363 44.3473L248.848 45.6527ZM251.054 48.3011H251.293V46.3011H251.054V48.3011ZM252.293 47.3011V42.8182H250.293V47.3011H252.293ZM251.293 43.8182H259.594V41.8182H251.293V43.8182ZM258.594 42.8182V69.1023H260.594V42.8182H258.594ZM258.594 69.1023C258.594 71.1442 258.084 72.797 257.116 74.1199L258.73 75.3005C259.99 73.578 260.594 71.4922 260.594 69.1023H258.594ZM257.116 74.1199C256.13 75.469 254.736 76.5148 252.888 77.2394L253.618 79.1015C255.769 78.2579 257.49 76.9969 258.73 75.3005L257.116 74.1199ZM252.883 77.2413C251.024 77.9809 248.841 78.3636 246.315 78.3636V80.3636C249.04 80.3636 251.482 79.9509 253.622 79.0997L252.883 77.2413ZM246.571 63.5739C247.768 63.5739 248.849 63.254 249.76 62.5743L248.564 60.9712C248.043 61.3597 247.397 61.5739 246.571 61.5739V63.5739ZM249.76 62.5743C250.655 61.9068 251.308 60.9721 251.748 59.832L249.883 59.1112C249.55 59.971 249.101 60.5705 248.564 60.9712L249.76 62.5743ZM251.748 59.832C252.19 58.688 252.395 57.3604 252.395 55.875H250.395C250.395 57.185 250.213 58.2552 249.883 59.1112L251.748 59.832ZM252.395 55.875C252.395 54.3681 252.19 53.0207 251.751 51.8568L249.88 52.5636C250.213 53.4453 250.395 54.541 250.395 55.875H252.395ZM251.755 51.8693C251.329 50.692 250.677 49.7244 249.77 49.0299L248.554 50.6179C249.101 51.037 249.552 51.6602 249.875 52.5511L251.755 51.8693ZM249.776 49.0345C248.864 48.3254 247.778 47.9886 246.571 47.9886V49.9886C247.387 49.9886 248.028 50.2086 248.548 50.6132L249.776 49.0345ZM246.571 47.9886C245.342 47.9886 244.24 48.3308 243.324 49.0576L244.568 50.6242C245.084 50.2146 245.731 49.9886 246.571 49.9886V47.9886ZM243.324 49.0576C242.436 49.7624 241.795 50.7309 241.37 51.9034L243.25 52.5852C243.575 51.6896 244.024 51.0558 244.568 50.6242L243.324 49.0576ZM241.367 51.9093C240.956 53.0655 240.764 54.3943 240.764 55.875H242.764C242.764 54.5602 242.936 53.4686 243.252 52.5793L241.367 51.9093ZM240.764 55.875C240.764 57.3576 240.963 58.6817 241.39 59.8227L243.263 59.1205C242.941 58.2614 242.764 57.1879 242.764 55.875H240.764ZM241.39 59.8227C241.818 60.9626 242.458 61.8996 243.342 62.5696L244.55 60.9758C244.025 60.5777 243.586 59.9805 243.263 59.1205L241.39 59.8227ZM243.348 62.5743C244.263 63.2568 245.357 63.5739 246.571 63.5739V61.5739C245.717 61.5739 245.061 61.3568 244.544 60.9712L243.348 62.5743ZM279.686 42.8182H280.686V41.8182H279.686V42.8182ZM279.686 48.9545V49.9545H280.686V48.9545H279.686ZM263.169 48.9545H262.169V49.9545H263.169V48.9545ZM263.169 42.8182V41.8182H262.169V42.8182H263.169ZM266.629 36.5455V35.5455H265.629V36.5455H266.629ZM274.964 36.5455H275.964V35.5455H274.964V36.5455ZM275.203 62.0114L274.309 62.4586L274.318 62.478L274.329 62.497L275.203 62.0114ZM275.936 62.6761L275.542 63.5953L275.556 63.6013L275.57 63.6069L275.936 62.6761ZM278.084 62.7784L278.243 63.7656L278.256 63.7636L278.268 63.7613L278.084 62.7784ZM278.902 62.608L279.881 62.4028L279.668 61.3858L278.659 61.6378L278.902 62.608ZM280.163 68.625L280.438 69.5865L281.333 69.3308L281.142 68.4198L280.163 68.625ZM278.476 69.0511L278.248 68.0775L278.244 68.0783L278.476 69.0511ZM275.902 69.375L275.857 68.376L275.856 68.3761L275.902 69.375ZM270.874 68.6932L270.501 69.6212L270.51 69.6248L270.874 68.6932ZM267.686 66.1023L266.837 66.6301L266.84 66.636L267.686 66.1023ZM266.629 61.6875L267.629 61.7003V61.6875H266.629ZM278.686 42.8182V48.9545H280.686V42.8182H278.686ZM279.686 47.9545H263.169V49.9545H279.686V47.9545ZM264.169 48.9545V42.8182H262.169V48.9545H264.169ZM263.169 43.8182H279.686V41.8182H263.169V43.8182ZM266.629 37.5455H274.964V35.5455H266.629V37.5455ZM273.964 36.5455V60.767H275.964V36.5455H273.964ZM273.964 60.767C273.964 61.3705 274.057 61.9543 274.309 62.4586L276.098 61.5641C276.031 61.432 275.964 61.1864 275.964 60.767H273.964ZM274.329 62.497C274.605 62.9946 275.017 63.3703 275.542 63.5953L276.33 61.757C276.219 61.7092 276.142 61.6417 276.077 61.5257L274.329 62.497ZM275.57 63.6069C276.034 63.789 276.545 63.8636 277.078 63.8636V61.8636C276.725 61.8636 276.475 61.8133 276.302 61.7454L275.57 63.6069ZM277.078 63.8636C277.456 63.8636 277.844 63.83 278.243 63.7656L277.925 61.7912C277.619 61.8405 277.337 61.8636 277.078 61.8636V63.8636ZM278.268 63.7613C278.636 63.6922 278.933 63.631 279.145 63.5781L278.659 61.6378C278.507 61.6758 278.259 61.7282 277.9 61.7955L278.268 63.7613ZM277.923 62.8131L279.185 68.8302L281.142 68.4198L279.881 62.4028L277.923 62.8131ZM279.889 67.6635C279.514 67.7705 278.97 67.9083 278.248 68.0775L278.704 70.0248C279.437 69.853 280.017 69.7067 280.438 69.5865L279.889 67.6635ZM278.244 68.0783C277.607 68.2301 276.815 68.3325 275.857 68.376L275.947 70.374C276.989 70.3266 277.913 70.2131 278.707 70.0239L278.244 68.0783ZM275.856 68.3761C274 68.4624 272.471 68.2432 271.237 67.7616L270.51 69.6248C272.071 70.2341 273.895 70.4694 275.948 70.3739L275.856 68.3761ZM271.246 67.7652C270.039 67.2802 269.149 66.5468 268.532 65.5686L266.84 66.636C267.7 67.9987 268.936 68.9925 270.501 69.6211L271.246 67.7652ZM268.535 65.5745C267.934 64.6067 267.608 63.3362 267.629 61.7003L265.629 61.6747C265.605 63.5842 265.984 65.257 266.837 66.63L268.535 65.5745ZM267.629 61.6875V36.5455H265.629V61.6875H267.629ZM292.837 54.0682L291.837 54.0568V54.0682H292.837ZM292.837 69V70H293.837V69H292.837ZM284.501 69H283.501V70H284.501V69ZM284.501 34.0909V33.0909H283.501V34.0909H284.501ZM292.564 34.0909H293.564V33.0909H292.564V34.0909ZM292.564 47.625H291.564V48.625H292.564V47.625ZM292.854 47.625V48.625H293.552L293.793 47.9689L292.854 47.625ZM295.751 43.8409L295.194 43.011L295.19 43.0132L295.751 43.8409ZM305.518 43.7045L305.004 44.5621L305.009 44.5652L305.518 43.7045ZM308.689 47.1307L307.797 47.5834L307.8 47.5888L308.689 47.1307ZM309.814 52.3125L308.814 52.3068V52.3125H309.814ZM309.814 69V70H310.814V69H309.814ZM301.479 69H300.479V70H301.479V69ZM301.479 53.9489L300.479 53.9411V53.9489H301.479ZM300.388 50.5398L299.646 51.2099L299.646 51.2099L300.388 50.5398ZM294.95 49.892L295.445 50.7612L295.45 50.7585L294.95 49.892ZM293.399 51.5114L292.516 51.0415L292.511 51.0527L293.399 51.5114ZM291.837 54.0682V69H293.837V54.0682H291.837ZM292.837 68H284.501V70H292.837V68ZM285.501 69V34.0909H283.501V69H285.501ZM284.501 35.0909H292.564V33.0909H284.501V35.0909ZM291.564 34.0909V47.625H293.564V34.0909H291.564ZM292.564 48.625H292.854V46.625H292.564V48.625ZM293.793 47.9689C294.316 46.5394 295.156 45.4527 296.313 44.6686L295.19 43.0132C293.665 44.0473 292.573 45.4833 291.915 47.2811L293.793 47.9689ZM296.309 44.6708C297.466 43.8931 298.916 43.4773 300.712 43.4773V41.4773C298.599 41.4773 296.741 41.9705 295.194 43.011L296.309 44.6708ZM300.712 43.4773C302.4 43.4773 303.819 43.851 305.004 44.562L306.033 42.8471C304.491 41.9217 302.705 41.4773 300.712 41.4773V43.4773ZM305.009 44.5652C306.202 45.2706 307.129 46.2676 307.797 47.5834L309.581 46.678C308.749 45.0393 307.563 43.7521 306.028 42.8439L305.009 44.5652ZM307.8 47.5888C308.475 48.8978 308.825 50.4603 308.814 52.3068L310.814 52.3182C310.826 50.2101 310.426 48.3181 309.578 46.6726L307.8 47.5888ZM308.814 52.3125V69H310.814V52.3125H308.814ZM309.814 68H301.479V70H309.814V68ZM302.479 69V53.9489H300.479V69H302.479ZM302.479 53.9567C302.491 52.3337 302.084 50.9266 301.13 49.8697L299.646 51.2099C300.169 51.7894 300.489 52.6549 300.479 53.9411L302.479 53.9567ZM301.13 49.8697C300.161 48.7968 298.826 48.3125 297.268 48.3125V50.3125C298.393 50.3125 299.137 50.6464 299.646 51.2099L301.13 49.8697ZM297.268 48.3125C296.242 48.3125 295.292 48.5408 294.451 49.0256L295.45 50.7585C295.949 50.4706 296.545 50.3125 297.268 50.3125V48.3125ZM294.456 49.0229C293.623 49.4966 292.975 50.179 292.516 51.0415L294.282 51.9812C294.573 51.4346 294.959 51.0375 295.445 50.7612L294.456 49.0229ZM292.511 51.0527C292.059 51.927 291.849 52.9407 291.837 54.0568L293.837 54.0795C293.847 53.1956 294.012 52.5048 294.288 51.97L292.511 51.0527Z" fill="black" mask="url(#path-1-outside-1_120_6)"/>
<path d="M8.77841 68.1136L8.36804 69.0256L8.37415 69.0283L8.77841 68.1136ZM3.9375 64.3125L3.13073 64.9034L3.13073 64.9034L3.9375 64.3125ZM2.13068 58.7386V57.7386H1.11981L1.13074 58.7494L2.13068 58.7386ZM10.6193 58.7386L11.6183 58.6939L11.5755 57.7386H10.6193V58.7386ZM11.3523 60.767L10.5596 61.3768L10.5654 61.3842L11.3523 60.767ZM13.2102 62.1307L12.8228 63.0526L12.8228 63.0526L13.2102 62.1307ZM18.5284 62.0966L18.9483 63.0042L18.9542 63.0014L18.5284 62.0966ZM20.3352 60.6136L21.158 61.1821L21.1627 61.1751L20.3352 60.6136ZM20.9659 58.4318L19.966 58.4179L19.9658 58.4318L19.966 58.4457L20.9659 58.4318ZM20.267 56.25L19.467 56.85L19.467 56.85L20.267 56.25ZM18.2386 54.767L17.8609 55.693L17.8652 55.6947L18.2386 54.767ZM11.7784 54.2386H10.7784V55.2386H11.7784V54.2386ZM11.7784 48.2386V47.2386H10.7784V48.2386H11.7784ZM17.8977 47.7273L17.5038 46.8081L17.499 46.8102L17.8977 47.7273ZM19.7557 46.2955L20.5664 46.881L20.5714 46.8739L19.7557 46.2955ZM20.4034 44.1477L19.4035 44.1332L19.4033 44.1475L19.4035 44.1618L20.4034 44.1477ZM19.8409 42.0852L18.992 42.6138L18.9979 42.6232L19.0039 42.6325L19.8409 42.0852ZM18.2557 40.6875L17.8146 41.585L17.8205 41.5878L18.2557 40.6875ZM13.3807 40.6875L12.9835 39.7698L12.9784 39.772L13.3807 40.6875ZM11.5909 42.0852L12.3963 42.6779L12.3963 42.6779L11.5909 42.0852ZM10.892 44.1818V45.1818H11.8639L11.8916 44.2104L10.892 44.1818ZM2.82955 44.1818L1.82961 44.1709L1.81856 45.1818H2.82955V44.1818ZM4.56818 38.6932L5.37994 39.2772L5.38192 39.2744L4.56818 38.6932ZM9.20455 34.9602L8.78916 34.0506L8.78716 34.0515L9.20455 34.9602ZM22.517 34.9261L22.0983 35.8343L22.0983 35.8343L22.517 34.9261ZM26.9489 38.5057L26.1293 39.0787L26.1314 39.0816L26.9489 38.5057ZM28.5341 43.6023L27.5341 43.6023L27.5341 43.6081L28.5341 43.6023ZM26.608 48.4602L25.9071 47.7469L25.904 47.75L26.608 48.4602ZM21.6477 50.8125L21.5032 49.823L20.6477 49.948V50.8125H21.6477ZM21.6477 51.0852H20.6477V51.9745L21.5309 52.0784L21.6477 51.0852ZM27.767 53.7102L27.0458 54.4029L27.0486 54.4058L27.767 53.7102ZM29.8295 59.0795L28.8295 59.0743V59.0795H29.8295ZM28.0398 64.4659L27.2439 63.8604L27.2433 63.8613L28.0398 64.4659ZM23.0966 68.1477L23.4851 69.0692L23.4875 69.0681L23.0966 68.1477ZM15.8523 68.4773C13.3074 68.4773 11.0911 68.0425 9.18267 67.199L8.37415 69.0283C10.5794 70.003 13.079 70.4773 15.8523 70.4773V68.4773ZM9.18877 67.2017C7.28146 66.3434 5.81198 65.1795 4.74427 63.7216L3.13073 64.9034C4.42666 66.6728 6.18445 68.0429 8.36804 69.0256L9.18877 67.2017ZM4.74427 63.7216C3.69236 62.2854 3.15122 60.6327 3.13062 58.7278L1.13074 58.7494C1.1556 61.0492 1.81901 63.1124 3.13073 64.9034L4.74427 63.7216ZM2.13068 59.7386H10.6193V57.7386H2.13068V59.7386ZM9.62032 58.7834C9.66337 59.7449 9.97702 60.6193 10.5596 61.3768L12.1449 60.1573C11.8184 59.7329 11.6434 59.2551 11.6183 58.6939L9.62032 58.7834ZM10.5654 61.3842C11.1403 62.1171 11.9063 62.6674 12.8228 63.0526L13.5977 61.2088C12.946 60.9349 12.4734 60.5761 12.1391 60.1499L10.5654 61.3842ZM12.8228 63.0526C13.7491 63.4419 14.7763 63.625 15.8864 63.625V61.625C14.9964 61.625 14.2395 61.4785 13.5977 61.2088L12.8228 63.0526ZM15.8864 63.625C17.0039 63.625 18.0325 63.4279 18.9483 63.0042L18.1085 61.189C17.5016 61.4698 16.7688 61.625 15.8864 61.625V63.625ZM18.9542 63.0014C19.8664 62.5722 20.6138 61.9696 21.158 61.1821L19.5125 60.0452C19.193 60.5076 18.7359 60.8937 18.1026 61.1918L18.9542 63.0014ZM21.1627 61.1751C21.7171 60.3581 21.9798 59.4272 21.9658 58.4179L19.966 58.4457C19.9747 59.0728 19.8169 59.5965 19.5078 60.0521L21.1627 61.1751ZM21.9658 58.4457C21.9802 57.4133 21.681 56.4687 21.067 55.65L19.467 56.85C19.8076 57.3041 19.9744 57.814 19.966 58.4179L21.9658 58.4457ZM21.067 55.65C20.4613 54.8424 19.6248 54.2471 18.6121 53.8394L17.8652 55.6947C18.6025 55.9915 19.1182 56.3849 19.467 56.85L21.067 55.65ZM18.6163 53.8411C17.6054 53.4288 16.4485 53.2386 15.1705 53.2386V55.2386C16.256 55.2386 17.1446 55.4008 17.861 55.693L18.6163 53.8411ZM15.1705 53.2386H11.7784V55.2386H15.1705V53.2386ZM12.7784 54.2386V48.2386H10.7784V54.2386H12.7784ZM11.7784 49.2386H15.1705V47.2386H11.7784V49.2386ZM15.1705 49.2386C16.3136 49.2386 17.3631 49.0501 18.2965 48.6443L17.499 46.8102C16.8642 47.0862 16.0955 47.2386 15.1705 47.2386V49.2386ZM18.2916 48.6464C19.2294 48.2445 20.0026 47.6616 20.5664 46.8809L18.945 45.71C18.6224 46.1566 18.157 46.5282 17.5038 46.8081L18.2916 48.6464ZM20.5714 46.8739C21.144 46.0664 21.4175 45.1405 21.4033 44.1336L19.4035 44.1618C19.4121 44.7686 19.2537 45.2745 18.9399 45.717L20.5714 46.8739ZM21.4033 44.1622C21.4172 43.2018 21.1852 42.3139 20.6779 41.538L19.0039 42.6325C19.2693 43.0383 19.4123 43.5255 19.4035 44.1332L21.4033 44.1622ZM20.6898 41.5567C20.208 40.7829 19.531 40.1932 18.6908 39.7872L17.8205 41.5878C18.344 41.8409 18.7238 42.183 18.992 42.6138L20.6898 41.5567ZM18.6968 39.7901C17.8658 39.3816 16.9315 39.1932 15.9205 39.1932V41.1932C16.6822 41.1932 17.3047 41.3343 17.8146 41.5849L18.6968 39.7901ZM15.9205 39.1932C14.8688 39.1932 13.8848 39.3796 12.9835 39.7698L13.7779 41.6052C14.3993 41.3363 15.1084 41.1932 15.9205 41.1932V39.1932ZM12.9784 39.772C12.0838 40.1651 11.3422 40.736 10.7855 41.4925L12.3963 42.6779C12.726 42.2299 13.1775 41.869 13.783 41.603L12.9784 39.772ZM10.7855 41.4925C10.2138 42.2695 9.9206 43.1682 9.89245 44.1533L11.8916 44.2104C11.9089 43.6045 12.0817 43.1055 12.3963 42.6779L10.7855 41.4925ZM10.892 43.1818H2.82955V45.1818H10.892V43.1818ZM3.82949 44.1927C3.85013 42.3041 4.37224 40.6779 5.37994 39.2772L3.75643 38.1092C2.4914 39.8676 1.85442 41.9005 1.82961 44.1709L3.82949 44.1927ZM5.38192 39.2744C6.40703 37.8393 7.8095 36.7014 9.62193 35.869L8.78716 34.0515C6.6905 35.0145 5.00206 36.3653 3.75445 38.1119L5.38192 39.2744ZM9.61993 35.8699C11.436 35.0406 13.5294 34.6136 15.9205 34.6136V32.6136C13.2888 32.6136 10.9049 33.0844 8.78916 34.0506L9.61993 35.8699ZM15.9205 34.6136C18.3039 34.6136 20.3551 35.0305 22.0983 35.8343L22.9358 34.018C20.8835 33.0718 18.5371 32.6136 15.9205 32.6136V34.6136ZM22.0983 35.8343C23.857 36.6451 25.187 37.7311 26.1293 39.0787L27.7684 37.9326C26.5971 36.2575 24.9726 34.9571 22.9358 34.018L22.0983 35.8343ZM26.1314 39.0816C27.0652 40.407 27.5341 41.9032 27.5341 43.6023H29.5341C29.5341 41.5059 28.9462 39.6043 27.7663 37.9297L26.1314 39.0816ZM27.5341 43.6081C27.5441 45.3284 26.9928 46.6802 25.9071 47.7469L27.3088 49.1736C28.814 47.6947 29.5469 45.808 29.5341 43.5965L27.5341 43.6081ZM25.904 47.75C24.7912 48.8529 23.3433 49.5542 21.5032 49.823L21.7923 51.802C23.9976 51.4799 25.8565 50.613 27.3119 49.1705L25.904 47.75ZM20.6477 50.8125V51.0852H22.6477V50.8125H20.6477ZM21.5309 52.0784C24.0903 52.3795 25.8821 53.1911 27.0458 54.4029L28.4883 53.0176C26.902 51.3657 24.6142 50.4273 21.7646 50.0921L21.5309 52.0784ZM27.0486 54.4058C28.2381 55.6343 28.8397 57.1656 28.8296 59.0743L30.8295 59.0848C30.8422 56.698 30.0687 54.6497 28.4855 53.0146L27.0486 54.4058ZM28.8295 59.0795C28.8295 60.8898 28.3009 62.4712 27.2439 63.8604L28.8356 65.0714C30.165 63.3243 30.8295 61.3148 30.8295 59.0795H28.8295ZM27.2433 63.8613C26.1839 65.2567 24.6871 66.3857 22.7057 67.2273L23.4875 69.0681C25.7333 68.1143 27.532 66.7887 28.8363 65.0706L27.2433 63.8613ZM22.7081 67.2263C20.7503 68.0517 18.4717 68.4773 15.8523 68.4773V70.4773C18.6874 70.4773 21.2383 70.0165 23.4851 69.0692L22.7081 67.2263ZM50.8168 32.4545L51.7824 32.7145L52.1215 31.4545H50.8168V32.4545ZM39.5668 74.25V75.25H40.3332L40.5324 74.5099L39.5668 74.25ZM32.4588 74.25L31.4932 73.9901L31.154 75.25H32.4588V74.25ZM43.7088 32.4545V31.4545H42.9424L42.7432 32.1946L43.7088 32.4545ZM49.8511 32.1946L38.6011 73.9901L40.5324 74.5099L51.7824 32.7145L49.8511 32.1946ZM39.5668 73.25H32.4588V75.25H39.5668V73.25ZM33.4244 74.5099L44.6744 32.7145L42.7432 32.1946L31.4932 73.9901L33.4244 74.5099ZM43.7088 33.4545H50.8168V31.4545H43.7088V33.4545ZM53.429 63.2045H52.429V64.2045H53.429V63.2045ZM53.429 56.625L52.5847 56.0892L52.429 56.3345V56.625H53.429ZM67.7301 34.0909V33.0909H67.1804L66.8858 33.5551L67.7301 34.0909ZM73.5767 34.0909H74.5767V33.0909H73.5767V34.0909ZM73.5767 43.0227V44.0227H74.5767V43.0227H73.5767ZM70.1847 43.0227V42.0227H69.6333L69.339 42.489L70.1847 43.0227ZM61.8153 56.2841L60.9697 55.7504L60.8153 55.9949V56.2841H61.8153ZM61.8153 56.5568H60.8153V57.5568H61.8153V56.5568ZM82.5256 56.5568H83.5256V55.5568H82.5256V56.5568ZM82.5256 63.2045V64.2045H83.5256V63.2045H82.5256ZM70.2869 69H69.2869V70H70.2869V69ZM70.2869 61.1932L69.2887 61.1341L69.2869 61.1636V61.1932H70.2869ZM70.4574 58.3125L71.4556 58.3716L71.4574 58.3421V58.3125H70.4574ZM70.4574 34.0909V33.0909H69.4574V34.0909H70.4574ZM78.3494 34.0909H79.3494V33.0909H78.3494V34.0909ZM78.3494 69V70H79.3494V69H78.3494ZM54.429 63.2045V56.625H52.429V63.2045H54.429ZM54.2733 57.1608L68.5744 34.6267L66.8858 33.5551L52.5847 56.0892L54.2733 57.1608ZM67.7301 35.0909H73.5767V33.0909H67.7301V35.0909ZM72.5767 34.0909V43.0227H74.5767V34.0909H72.5767ZM73.5767 42.0227H70.1847V44.0227H73.5767V42.0227ZM69.339 42.489L60.9697 55.7504L62.661 56.8178L71.0303 43.5564L69.339 42.489ZM60.8153 56.2841V56.5568H62.8153V56.2841H60.8153ZM61.8153 57.5568H82.5256V55.5568H61.8153V57.5568ZM81.5256 56.5568V63.2045H83.5256V56.5568H81.5256ZM82.5256 62.2045H53.429V64.2045H82.5256V62.2045ZM71.2869 69V61.1932H69.2869V69H71.2869ZM71.2852 61.2522L71.4556 58.3716L69.4591 58.2534L69.2887 61.1341L71.2852 61.2522ZM71.4574 58.3125V34.0909H69.4574V58.3125H71.4574ZM70.4574 35.0909H78.3494V33.0909H70.4574V35.0909ZM77.3494 34.0909V69H79.3494V34.0909H77.3494ZM78.3494 68H70.2869V70H78.3494V68ZM101.795 42.8182H102.795V41.8182H101.795V42.8182ZM101.795 48.9545V49.9545H102.795V48.9545H101.795ZM85.2784 48.9545H84.2784V49.9545H85.2784V48.9545ZM85.2784 42.8182V41.8182H84.2784V42.8182H85.2784ZM88.7386 36.5455V35.5455H87.7386V36.5455H88.7386ZM97.0739 36.5455H98.0739V35.5455H97.0739V36.5455ZM97.3125 62.0114L96.4181 62.4586L96.4278 62.478L96.4383 62.497L97.3125 62.0114ZM98.0455 62.6761L97.6515 63.5953L97.6656 63.6013L97.6798 63.6069L98.0455 62.6761ZM100.193 62.7784L100.352 63.7656L100.365 63.7636L100.377 63.7613L100.193 62.7784ZM101.011 62.608L101.99 62.4028L101.777 61.3858L100.769 61.6378L101.011 62.608ZM102.273 68.625L102.547 69.5865L103.442 69.3308L103.251 68.4198L102.273 68.625ZM100.585 69.0511L100.357 68.0775L100.354 68.0783L100.585 69.0511ZM98.0114 69.375L97.966 68.376L97.9649 68.3761L98.0114 69.375ZM92.983 68.6932L92.6102 69.6212L92.6194 69.6248L92.983 68.6932ZM89.7955 66.1023L88.946 66.6301L88.9498 66.636L89.7955 66.1023ZM88.7386 61.6875L89.7386 61.7003V61.6875H88.7386ZM100.795 42.8182V48.9545H102.795V42.8182H100.795ZM101.795 47.9545H85.2784V49.9545H101.795V47.9545ZM86.2784 48.9545V42.8182H84.2784V48.9545H86.2784ZM85.2784 43.8182H101.795V41.8182H85.2784V43.8182ZM88.7386 37.5455H97.0739V35.5455H88.7386V37.5455ZM96.0739 36.5455V60.767H98.0739V36.5455H96.0739ZM96.0739 60.767C96.0739 61.3705 96.1659 61.9543 96.4181 62.4586L98.2069 61.5641C98.1409 61.432 98.0739 61.1864 98.0739 60.767H96.0739ZM96.4383 62.497C96.7148 62.9946 97.1266 63.3703 97.6515 63.5953L98.4394 61.757C98.3279 61.7092 98.2511 61.6417 98.1867 61.5257L96.4383 62.497ZM97.6798 63.6069C98.1433 63.789 98.6545 63.8636 99.1875 63.8636V61.8636C98.8342 61.8636 98.5839 61.8133 98.4111 61.7454L97.6798 63.6069ZM99.1875 63.8636C99.565 63.8636 99.9537 63.83 100.352 63.7656L100.034 61.7912C99.7281 61.8405 99.4464 61.8636 99.1875 61.8636V63.8636ZM100.377 63.7613C100.746 63.6922 101.042 63.631 101.254 63.5781L100.769 61.6378C100.617 61.6758 100.368 61.7282 100.009 61.7955L100.377 63.7613ZM100.033 62.8131L101.294 68.8302L103.251 68.4198L101.99 62.4028L100.033 62.8131ZM101.998 67.6635C101.623 67.7705 101.079 67.9083 100.357 68.0775L100.813 70.0248C101.546 69.853 102.127 69.7067 102.547 69.5865L101.998 67.6635ZM100.354 68.0783C99.7162 68.2301 98.924 68.3325 97.966 68.376L98.0568 70.374C99.0988 70.3266 100.022 70.2131 100.817 70.0239L100.354 68.0783ZM97.9649 68.3761C96.1096 68.4624 94.5805 68.2432 93.3465 67.7616L92.6194 69.6248C94.1808 70.2341 96.0041 70.4694 98.0578 70.3739L97.9649 68.3761ZM93.3557 67.7652C92.1481 67.2802 91.2584 66.5468 90.6411 65.5686L88.9498 66.636C89.8097 67.9987 91.0451 68.9925 92.6103 69.6211L93.3557 67.7652ZM90.6448 65.5745C90.0435 64.6067 89.7176 63.3362 89.7386 61.7003L87.7387 61.6747C87.7142 63.5842 88.0929 65.257 88.9461 66.63L90.6448 65.5745ZM89.7386 61.6875V36.5455H87.7386V61.6875H89.7386ZM114.946 54.0682L113.946 54.0568V54.0682H114.946ZM114.946 69V70H115.946V69H114.946ZM106.611 69H105.611V70H106.611V69ZM106.611 34.0909V33.0909H105.611V34.0909H106.611ZM114.673 34.0909H115.673V33.0909H114.673V34.0909ZM114.673 47.625H113.673V48.625H114.673V47.625ZM114.963 47.625V48.625H115.662L115.902 47.9689L114.963 47.625ZM117.861 43.8409L117.303 43.011L117.3 43.0132L117.861 43.8409ZM127.628 43.7045L127.113 44.5621L127.119 44.5652L127.628 43.7045ZM130.798 47.1307L129.907 47.5834L129.909 47.5888L130.798 47.1307ZM131.923 52.3125L130.923 52.3068V52.3125H131.923ZM131.923 69V70H132.923V69H131.923ZM123.588 69H122.588V70H123.588V69ZM123.588 53.9489L122.588 53.9411V53.9489H123.588ZM122.497 50.5398L121.755 51.2099L121.755 51.2099L122.497 50.5398ZM117.06 49.892L117.554 50.7612L117.559 50.7585L117.06 49.892ZM115.509 51.5114L114.626 51.0415L114.62 51.0527L115.509 51.5114ZM113.946 54.0682V69H115.946V54.0682H113.946ZM114.946 68H106.611V70H114.946V68ZM107.611 69V34.0909H105.611V69H107.611ZM106.611 35.0909H114.673V33.0909H106.611V35.0909ZM113.673 34.0909V47.625H115.673V34.0909H113.673ZM114.673 48.625H114.963V46.625H114.673V48.625ZM115.902 47.9689C116.426 46.5394 117.265 45.4527 118.422 44.6686L117.3 43.0132C115.774 44.0473 114.682 45.4833 114.024 47.2811L115.902 47.9689ZM118.419 44.6708C119.576 43.8931 121.025 43.4773 122.821 43.4773V41.4773C120.708 41.4773 118.851 41.9705 117.303 43.011L118.419 44.6708ZM122.821 43.4773C124.51 43.4773 125.928 43.851 127.113 44.562L128.142 42.8471C126.6 41.9217 124.814 41.4773 122.821 41.4773V43.4773ZM127.119 44.5652C128.311 45.2706 129.239 46.2676 129.907 47.5834L131.69 46.678C130.858 45.0393 129.672 43.7521 128.137 42.8439L127.119 44.5652ZM129.909 47.5888C130.584 48.8978 130.934 50.4603 130.923 52.3068L132.923 52.3182C132.935 50.2101 132.535 48.3181 131.687 46.6726L129.909 47.5888ZM130.923 52.3125V69H132.923V52.3125H130.923ZM131.923 68H123.588V70H131.923V68ZM124.588 69V53.9489H122.588V69H124.588ZM124.588 53.9567C124.601 52.3337 124.194 50.9266 123.239 49.8697L121.755 51.2099C122.278 51.7894 122.598 52.6549 122.588 53.9411L124.588 53.9567ZM123.239 49.8697C122.271 48.7968 120.935 48.3125 119.378 48.3125V50.3125C120.502 50.3125 121.246 50.6464 121.755 51.2099L123.239 49.8697ZM119.378 48.3125C118.351 48.3125 117.402 48.5408 116.56 49.0256L117.559 50.7585C118.059 50.4706 118.655 50.3125 119.378 50.3125V48.3125ZM116.565 49.0229C115.733 49.4966 115.085 50.179 114.626 51.0415L116.391 51.9812C116.682 51.4346 117.069 51.0375 117.554 50.7612L116.565 49.0229ZM114.62 51.0527C114.169 51.927 113.959 52.9407 113.946 54.0568L115.946 54.0795C115.956 53.1956 116.121 52.5048 116.397 51.97L114.62 51.0527ZM147.439 69H146.439V70H147.439V69ZM147.439 34.0909V33.0909H146.439V34.0909H147.439ZM155.876 34.0909H156.876V33.0909H155.876V34.0909ZM155.876 62.1477H154.876V63.1477H155.876V62.1477ZM170.399 62.1477H171.399V61.1477H170.399V62.1477ZM170.399 69V70H171.399V69H170.399ZM148.439 69V34.0909H146.439V69H148.439ZM147.439 35.0909H155.876V33.0909H147.439V35.0909ZM154.876 34.0909V62.1477H156.876V34.0909H154.876ZM155.876 63.1477H170.399V61.1477H155.876V63.1477ZM169.399 62.1477V69H171.399V62.1477H169.399ZM170.399 68H147.439V70H170.399V68ZM179.915 67.875L179.432 68.7506L179.438 68.7539L179.915 67.875ZM175.347 63.2216L174.46 63.6847L174.463 63.6906L175.347 63.2216ZM175.364 48.9205L176.248 49.3874L176.249 49.3854L175.364 48.9205ZM179.881 44.1818L180.382 45.0473L180.385 45.045L179.881 44.1818ZM191.864 43.3466L192.215 42.4103L192.215 42.4103L191.864 43.3466ZM198.494 50.1307L197.558 50.4811L197.559 50.4832L198.494 50.1307ZM199.432 57.9205V58.9205H200.432V57.9205H199.432ZM176.676 57.9205H175.676V58.9205H176.676V57.9205ZM176.676 53.0795V52.0795H175.676V53.0795H176.676ZM191.676 53.0795V54.0795H192.689L192.676 53.0667L191.676 53.0795ZM189.358 49.0909L188.866 49.9617L188.875 49.9664L188.883 49.9709L189.358 49.0909ZM184.415 49.125L184.899 49.9999L184.909 49.9941L184.415 49.125ZM182.659 50.8125L183.512 51.3351L183.515 51.329L182.659 50.8125ZM181.977 53.2159L180.978 53.1906L180.977 53.2033V53.2159H181.977ZM182.608 60.9545L181.721 61.4167L181.724 61.4219L182.608 60.9545ZM184.398 62.8125L183.9 63.68L183.9 63.68L184.398 62.8125ZM189.17 63.1705L189.492 64.1173L189.492 64.1173L189.17 63.1705ZM190.722 62.267L191.399 63.0026L191.399 63.0026L190.722 62.267ZM191.693 60.8011L191.722 59.8016L191.006 59.7808L190.756 60.452L191.693 60.8011ZM199.347 61.0227L200.33 61.205L200.543 60.0569L199.376 60.0231L199.347 61.0227ZM197.25 65.5057L196.487 64.8588L196.487 64.8594L197.25 65.5057ZM193.04 68.4545L193.41 69.3835L193.415 69.3813L193.04 68.4545ZM187.006 68.4943C184.399 68.4943 182.206 67.9811 180.392 66.9961L179.438 68.7539C181.601 69.928 184.135 70.4943 187.006 70.4943V68.4943ZM180.398 66.9994C178.592 66.0032 177.208 64.594 176.23 62.7526L174.463 63.6906C175.622 65.8719 177.283 67.565 179.432 68.7506L180.398 66.9994ZM176.233 62.7585C175.265 60.9068 174.761 58.6692 174.761 56.0114H172.761C172.761 58.9217 173.314 61.4909 174.46 63.6847L176.233 62.7585ZM174.761 56.0114C174.761 53.4399 175.268 51.2421 176.248 49.3874L174.479 48.4535C173.322 50.6442 172.761 53.1737 172.761 56.0114H174.761ZM176.249 49.3854C177.232 47.5143 178.606 46.0754 180.382 45.0472L179.38 43.3164C177.269 44.5382 175.632 46.2584 174.478 48.4555L176.249 49.3854ZM180.385 45.045C182.151 44.0126 184.26 43.4773 186.75 43.4773V41.4773C183.967 41.4773 181.497 42.0784 179.376 43.3186L180.385 45.045ZM186.75 43.4773C188.509 43.4773 190.093 43.7506 191.513 44.2829L192.215 42.4103C190.544 41.7835 188.718 41.4773 186.75 41.4773V43.4773ZM191.513 44.2829C192.927 44.8134 194.139 45.5936 195.159 46.624L196.58 45.2169C195.35 43.9746 193.891 43.0388 192.215 42.4103L191.513 44.2829ZM195.159 46.624C196.173 47.6489 196.977 48.9277 197.558 50.4811L199.431 49.7803C198.762 47.9928 197.815 46.4647 196.58 45.2169L195.159 46.624ZM197.559 50.4832C198.133 52.0086 198.432 53.7889 198.432 55.8409H200.432C200.432 53.5975 200.105 51.571 199.43 49.7782L197.559 50.4832ZM198.432 55.8409V57.9205H200.432V55.8409H198.432ZM199.432 56.9205H176.676V58.9205H199.432V56.9205ZM177.676 57.9205V53.0795H175.676V57.9205H177.676ZM176.676 54.0795H191.676V52.0795H176.676V54.0795ZM192.676 53.0667C192.663 52.0241 192.413 51.0603 191.907 50.202L190.184 51.2185C190.496 51.7466 190.667 52.3623 190.676 53.0924L192.676 53.0667ZM191.907 50.202C191.404 49.3503 190.707 48.6827 189.833 48.2109L188.883 49.9709C189.441 50.2718 189.869 50.6838 190.184 51.2185L191.907 50.202ZM189.85 48.2201C188.975 47.7266 187.989 47.4943 186.92 47.4943V49.4943C187.693 49.4943 188.331 49.6598 188.866 49.9617L189.85 48.2201ZM186.92 47.4943C185.832 47.4943 184.824 47.7416 183.92 48.2559L184.909 49.9941C185.483 49.6675 186.145 49.4943 186.92 49.4943V47.4943ZM183.93 48.2502C183.04 48.7432 182.326 49.4286 181.803 50.296L183.515 51.329C183.856 50.7646 184.312 50.3249 184.899 49.9998L183.93 48.2502ZM181.806 50.2899C181.275 51.1573 181.004 52.1328 180.978 53.1906L182.977 53.2412C182.996 52.5036 183.18 51.8768 183.512 51.3351L181.806 50.2899ZM180.977 53.2159V58.142H182.977V53.2159H180.977ZM180.977 58.142C180.977 59.3431 181.214 60.4443 181.721 61.4167L183.495 60.4924C183.161 59.8512 182.977 59.0773 182.977 58.142H180.977ZM181.724 61.4219C182.232 62.3828 182.962 63.1417 183.9 63.68L184.895 61.945C184.288 61.597 183.825 61.1172 183.492 60.4872L181.724 61.4219ZM183.9 63.68C184.852 64.2258 185.951 64.4773 187.159 64.4773V62.4773C186.231 62.4773 185.489 62.2856 184.895 61.945L183.9 63.68ZM187.159 64.4773C187.99 64.4773 188.771 64.3622 189.492 64.1173L188.849 62.2236C188.365 62.3878 187.806 62.4773 187.159 62.4773V64.4773ZM189.492 64.1173C190.215 63.8717 190.856 63.5025 191.399 63.0026L190.044 61.5315C189.723 61.8271 189.33 62.0601 188.849 62.2236L189.492 64.1173ZM191.399 63.0026C191.953 62.4926 192.362 61.8691 192.63 61.1502L190.756 60.452C190.592 60.8922 190.354 61.2461 190.044 61.5315L191.399 63.0026ZM191.664 61.8007L199.318 62.0223L199.376 60.0231L191.722 59.8016L191.664 61.8007ZM198.363 60.8404C198.075 62.393 197.449 63.7252 196.487 64.8588L198.013 66.1525C199.21 64.7407 199.981 63.0842 200.33 61.205L198.363 60.8404ZM196.487 64.8594C195.537 65.9815 194.273 66.8757 192.664 67.5277L193.415 69.3813C195.284 68.6243 196.827 67.5526 198.013 66.1519L196.487 64.8594ZM192.669 67.5257C191.071 68.1628 189.19 68.4943 187.006 68.4943V70.4943C189.389 70.4943 191.531 70.1327 193.41 69.3834L192.669 67.5257ZM212.024 54.0682L211.024 54.0568V54.0682H212.024ZM212.024 69V70H213.024V69H212.024ZM203.689 69H202.689V70H203.689V69ZM203.689 42.8182V41.8182H202.689V42.8182H203.689ZM211.615 42.8182H212.615V41.8182H211.615V42.8182ZM211.615 47.625H210.615V48.625H211.615V47.625ZM211.905 47.625V48.625H212.607L212.845 47.9651L211.905 47.625ZM214.871 43.858L215.416 44.6963L215.421 44.6931L214.871 43.858ZM224.655 43.7216L224.132 44.574L224.14 44.5791L224.655 43.7216ZM227.825 47.1648L226.934 47.6175L226.938 47.6257L227.825 47.1648ZM228.95 52.3125L227.95 52.3067V52.3125H228.95ZM228.95 69V70H229.95V69H228.95ZM220.615 69H219.615V70H220.615V69ZM220.615 53.9489L219.615 53.9411V53.9489H220.615ZM219.507 50.5398L218.765 51.2099L218.77 51.2155L219.507 50.5398ZM214.104 49.892L214.598 50.7612L214.603 50.7585L214.104 49.892ZM212.57 51.5114L211.681 51.0527L211.675 51.0641L212.57 51.5114ZM211.024 54.0682V69H213.024V54.0682H211.024ZM212.024 68H203.689V70H212.024V68ZM204.689 69V42.8182H202.689V69H204.689ZM203.689 43.8182H211.615V41.8182H203.689V43.8182ZM210.615 42.8182V47.625H212.615V42.8182H210.615ZM211.615 48.625H211.905V46.625H211.615V48.625ZM212.845 47.9651C213.352 46.5627 214.205 45.4839 215.416 44.6962L214.326 43.0197C212.741 44.0502 211.616 45.4828 210.964 47.2849L212.845 47.9651ZM215.421 44.6931C216.631 43.896 218.098 43.4773 219.865 43.4773V41.4773C217.769 41.4773 215.906 41.979 214.321 43.0228L215.421 44.6931ZM219.865 43.4773C221.551 43.4773 222.961 43.8556 224.132 44.574L225.178 42.8692C223.644 41.9285 221.86 41.4773 219.865 41.4773V43.4773ZM224.14 44.5791C225.336 45.2963 226.265 46.3005 226.934 47.6175L228.717 46.7121C227.886 45.0745 226.701 43.7832 225.169 42.8641L224.14 44.5791ZM226.938 47.6257C227.611 48.9225 227.961 50.4724 227.95 52.3067L229.95 52.3183C229.962 50.2207 229.562 48.3389 228.713 46.7039L226.938 47.6257ZM227.95 52.3125V69H229.95V52.3125H227.95ZM228.95 68H220.615V70H228.95V68ZM221.615 69V53.9489H219.615V69H221.615ZM221.615 53.9567C221.628 52.33 221.213 50.9207 220.244 49.864L218.77 51.2155C219.301 51.7952 219.625 52.6586 219.615 53.9411L221.615 53.9567ZM220.249 49.8697C219.284 48.8005 217.963 48.3125 216.422 48.3125V50.3125C217.517 50.3125 218.253 50.6427 218.765 51.2099L220.249 49.8697ZM216.422 48.3125C215.395 48.3125 214.446 48.5408 213.604 49.0256L214.603 50.7585C215.103 50.4706 215.699 50.3125 216.422 50.3125V48.3125ZM213.609 49.0229C212.774 49.4982 212.129 50.1843 211.681 51.0527L213.458 51.97C213.737 51.4293 214.115 51.0359 214.598 50.7612L213.609 49.0229ZM211.675 51.0641C211.239 51.9356 211.037 52.945 211.024 54.0568L213.024 54.0795C213.034 53.1913 213.195 52.4963 213.464 51.9586L211.675 51.0641ZM239.923 78.3239L239.559 79.2552L239.559 79.2552L239.923 78.3239ZM235.747 75.4773L234.981 76.1203L234.981 76.1203L235.747 75.4773ZM233.923 71.3864L233.867 70.3879L232.788 70.4485L232.932 71.5195L233.923 71.3864ZM241.815 70.9432L242.779 70.6766L242.564 69.8996L241.759 69.9448L241.815 70.9432ZM242.634 72.3409L241.926 73.0481L241.936 73.0579L242.634 72.3409ZM244.219 73.2614L243.903 74.2101L243.907 74.2117L244.219 73.2614ZM249.997 72.5625L249.408 71.7541L249.397 71.7625L249.997 72.5625ZM251.378 64.4318H252.378V63.4318H251.378V64.4318ZM251.088 64.4318V63.4318H250.416L250.162 64.0537L251.088 64.4318ZM249.588 66.5966L250.276 67.3219L250.276 67.3219L249.588 66.5966ZM247.082 68.0966L246.741 67.1568L246.737 67.1581L247.082 68.0966ZM238.423 67.3125L237.929 68.1819L237.937 68.1861L238.423 67.3125ZM234.622 63.1534L233.728 63.6006L233.731 63.6071L234.622 63.1534ZM234.673 48.3239L235.57 48.767L235.571 48.7649L234.673 48.3239ZM238.509 43.9091L237.994 43.0516L237.991 43.0532L238.509 43.9091ZM247.168 43.1932L246.729 44.0918L246.741 44.0978L247.168 43.1932ZM249.605 45L248.848 45.6527L248.848 45.6527L249.605 45ZM251.054 47.3011L250.13 47.6839L250.386 48.3011H251.054V47.3011ZM251.293 47.3011V48.3011H252.293V47.3011H251.293ZM251.293 42.8182V41.8182H250.293V42.8182H251.293ZM259.594 42.8182H260.594V41.8182H259.594V42.8182ZM253.253 78.1705L252.888 77.2394L252.883 77.2413L253.253 78.1705ZM250.815 59.4716L251.748 59.832L251.748 59.832L250.815 59.4716ZM250.815 52.2102L249.875 52.5512L249.88 52.5636L250.815 52.2102ZM249.162 49.8239L248.548 50.6132L248.554 50.6179L249.162 49.8239ZM242.31 52.2443L241.37 51.9034L241.367 51.9093L242.31 52.2443ZM243.946 61.7727L243.342 62.5697L243.348 62.5743L243.946 61.7727ZM246.315 78.3636C243.915 78.3636 241.915 78.0288 240.287 77.3925L239.559 79.2552C241.478 80.0053 243.738 80.3636 246.315 80.3636V78.3636ZM240.287 77.3925C238.638 76.7476 237.396 75.8862 236.513 74.8343L234.981 76.1203C236.121 77.4774 237.663 78.5138 239.559 79.2552L240.287 77.3925ZM236.513 74.8343C235.62 73.7712 235.093 72.5834 234.914 71.2532L232.932 71.5195C233.163 73.2348 233.851 74.7742 234.981 76.1203L236.513 74.8343ZM233.979 72.3848L241.871 71.9416L241.759 69.9448L233.867 70.3879L233.979 72.3848ZM240.852 71.2098C241.046 71.913 241.408 72.53 241.926 73.048L243.341 71.6338C243.063 71.3563 242.88 71.0415 242.779 70.6766L240.852 71.2098ZM241.936 73.0579C242.473 73.5792 243.14 73.9558 243.903 74.21L244.535 72.3127C244.002 72.1351 243.613 71.8981 243.331 71.6239L241.936 73.0579ZM243.907 74.2117C244.69 74.4682 245.573 74.5852 246.537 74.5852V72.5852C245.728 72.5852 245.065 72.4864 244.53 72.3111L243.907 74.2117ZM246.537 74.5852C248.1 74.5852 249.478 74.2016 250.597 73.3625L249.397 71.7625C248.698 72.287 247.769 72.5852 246.537 72.5852V74.5852ZM250.586 73.3708C251.871 72.4345 252.378 70.8757 252.378 69.0341H250.378C250.378 70.5561 249.964 71.3496 249.408 71.7542L250.586 73.3708ZM252.378 69.0341V64.4318H250.378V69.0341H252.378ZM251.378 63.4318H251.088V65.4318H251.378V63.4318ZM250.162 64.0537C249.89 64.7214 249.474 65.3265 248.9 65.8713L250.276 67.3219C251.043 66.594 251.627 65.7559 252.014 64.8099L250.162 64.0537ZM248.9 65.8713C248.343 66.3999 247.631 66.833 246.741 67.1568L247.424 69.0364C248.534 68.6329 249.492 68.066 250.276 67.3219L248.9 65.8713ZM246.737 67.1581C245.88 67.4732 244.865 67.642 243.673 67.642V69.642C245.05 69.642 246.307 69.4472 247.428 69.0351L246.737 67.1581ZM243.673 67.642C241.926 67.642 240.345 67.2383 238.91 66.4389L237.937 68.1861C239.684 69.1594 241.602 69.642 243.673 69.642V67.642ZM238.917 66.4431C237.534 65.6567 236.393 64.4285 235.513 62.6997L233.731 63.6071C234.76 65.6283 236.154 67.1729 237.929 68.1819L238.917 66.4431ZM235.517 62.7062C234.665 61.0034 234.207 58.7448 234.207 55.875H232.207C232.207 58.937 232.693 61.5307 233.728 63.6006L235.517 62.7062ZM234.207 55.875C234.207 52.916 234.682 50.5638 235.57 48.767L233.777 47.8808C232.71 50.0384 232.207 52.7204 232.207 55.875H234.207ZM235.571 48.7649C236.481 46.9133 237.64 45.6021 239.026 44.7649L237.991 43.0532C236.218 44.1251 234.82 45.7572 233.776 47.8828L235.571 48.7649ZM239.023 44.7666C240.461 43.9039 241.994 43.4773 243.639 43.4773V41.4773C241.626 41.4773 239.738 42.0052 237.994 43.0516L239.023 44.7666ZM243.639 43.4773C244.901 43.4773 245.919 43.6965 246.729 44.0917L247.606 42.2946C246.461 41.7353 245.127 41.4773 243.639 41.4773V43.4773ZM246.741 44.0978C247.618 44.5111 248.313 45.0325 248.848 45.6527L250.363 44.3473C249.624 43.4902 248.694 42.807 247.594 42.2886L246.741 44.0978ZM248.848 45.6527C249.424 46.3213 249.846 46.9987 250.13 47.6839L251.978 46.9184C251.603 46.0126 251.059 45.156 250.363 44.3473L248.848 45.6527ZM251.054 48.3011H251.293V46.3011H251.054V48.3011ZM252.293 47.3011V42.8182H250.293V47.3011H252.293ZM251.293 43.8182H259.594V41.8182H251.293V43.8182ZM258.594 42.8182V69.1023H260.594V42.8182H258.594ZM258.594 69.1023C258.594 71.1442 258.084 72.797 257.116 74.1199L258.73 75.3005C259.99 73.578 260.594 71.4922 260.594 69.1023H258.594ZM257.116 74.1199C256.13 75.469 254.736 76.5148 252.888 77.2394L253.618 79.1015C255.769 78.2579 257.49 76.9969 258.73 75.3005L257.116 74.1199ZM252.883 77.2413C251.024 77.9809 248.841 78.3636 246.315 78.3636V80.3636C249.04 80.3636 251.482 79.9509 253.622 79.0997L252.883 77.2413ZM246.571 63.5739C247.768 63.5739 248.849 63.254 249.76 62.5743L248.564 60.9712C248.043 61.3597 247.397 61.5739 246.571 61.5739V63.5739ZM249.76 62.5743C250.655 61.9068 251.308 60.9721 251.748 59.832L249.883 59.1112C249.55 59.971 249.101 60.5705 248.564 60.9712L249.76 62.5743ZM251.748 59.832C252.19 58.688 252.395 57.3604 252.395 55.875H250.395C250.395 57.185 250.213 58.2552 249.883 59.1112L251.748 59.832ZM252.395 55.875C252.395 54.3681 252.19 53.0207 251.751 51.8568L249.88 52.5636C250.213 53.4453 250.395 54.541 250.395 55.875H252.395ZM251.755 51.8693C251.329 50.692 250.677 49.7244 249.77 49.0299L248.554 50.6179C249.101 51.037 249.552 51.6602 249.875 52.5511L251.755 51.8693ZM249.776 49.0345C248.864 48.3254 247.778 47.9886 246.571 47.9886V49.9886C247.387 49.9886 248.028 50.2086 248.548 50.6132L249.776 49.0345ZM246.571 47.9886C245.342 47.9886 244.24 48.3308 243.324 49.0576L244.568 50.6242C245.084 50.2146 245.731 49.9886 246.571 49.9886V47.9886ZM243.324 49.0576C242.436 49.7624 241.795 50.7309 241.37 51.9034L243.25 52.5852C243.575 51.6896 244.024 51.0558 244.568 50.6242L243.324 49.0576ZM241.367 51.9093C240.956 53.0655 240.764 54.3943 240.764 55.875H242.764C242.764 54.5602 242.936 53.4686 243.252 52.5793L241.367 51.9093ZM240.764 55.875C240.764 57.3576 240.963 58.6817 241.39 59.8227L243.263 59.1205C242.941 58.2614 242.764 57.1879 242.764 55.875H240.764ZM241.39 59.8227C241.818 60.9626 242.458 61.8996 243.342 62.5696L244.55 60.9758C244.025 60.5777 243.586 59.9805 243.263 59.1205L241.39 59.8227ZM243.348 62.5743C244.263 63.2568 245.357 63.5739 246.571 63.5739V61.5739C245.717 61.5739 245.061 61.3568 244.544 60.9712L243.348 62.5743ZM279.686 42.8182H280.686V41.8182H279.686V42.8182ZM279.686 48.9545V49.9545H280.686V48.9545H279.686ZM263.169 48.9545H262.169V49.9545H263.169V48.9545ZM263.169 42.8182V41.8182H262.169V42.8182H263.169ZM266.629 36.5455V35.5455H265.629V36.5455H266.629ZM274.964 36.5455H275.964V35.5455H274.964V36.5455ZM275.203 62.0114L274.309 62.4586L274.318 62.478L274.329 62.497L275.203 62.0114ZM275.936 62.6761L275.542 63.5953L275.556 63.6013L275.57 63.6069L275.936 62.6761ZM278.084 62.7784L278.243 63.7656L278.256 63.7636L278.268 63.7613L278.084 62.7784ZM278.902 62.608L279.881 62.4028L279.668 61.3858L278.659 61.6378L278.902 62.608ZM280.163 68.625L280.438 69.5865L281.333 69.3308L281.142 68.4198L280.163 68.625ZM278.476 69.0511L278.248 68.0775L278.244 68.0783L278.476 69.0511ZM275.902 69.375L275.857 68.376L275.856 68.3761L275.902 69.375ZM270.874 68.6932L270.501 69.6212L270.51 69.6248L270.874 68.6932ZM267.686 66.1023L266.837 66.6301L266.84 66.636L267.686 66.1023ZM266.629 61.6875L267.629 61.7003V61.6875H266.629ZM278.686 42.8182V48.9545H280.686V42.8182H278.686ZM279.686 47.9545H263.169V49.9545H279.686V47.9545ZM264.169 48.9545V42.8182H262.169V48.9545H264.169ZM263.169 43.8182H279.686V41.8182H263.169V43.8182ZM266.629 37.5455H274.964V35.5455H266.629V37.5455ZM273.964 36.5455V60.767H275.964V36.5455H273.964ZM273.964 60.767C273.964 61.3705 274.057 61.9543 274.309 62.4586L276.098 61.5641C276.031 61.432 275.964 61.1864 275.964 60.767H273.964ZM274.329 62.497C274.605 62.9946 275.017 63.3703 275.542 63.5953L276.33 61.757C276.219 61.7092 276.142 61.6417 276.077 61.5257L274.329 62.497ZM275.57 63.6069C276.034 63.789 276.545 63.8636 277.078 63.8636V61.8636C276.725 61.8636 276.475 61.8133 276.302 61.7454L275.57 63.6069ZM277.078 63.8636C277.456 63.8636 277.844 63.83 278.243 63.7656L277.925 61.7912C277.619 61.8405 277.337 61.8636 277.078 61.8636V63.8636ZM278.268 63.7613C278.636 63.6922 278.933 63.631 279.145 63.5781L278.659 61.6378C278.507 61.6758 278.259 61.7282 277.9 61.7955L278.268 63.7613ZM277.923 62.8131L279.185 68.8302L281.142 68.4198L279.881 62.4028L277.923 62.8131ZM279.889 67.6635C279.514 67.7705 278.97 67.9083 278.248 68.0775L278.704 70.0248C279.437 69.853 280.017 69.7067 280.438 69.5865L279.889 67.6635ZM278.244 68.0783C277.607 68.2301 276.815 68.3325 275.857 68.376L275.947 70.374C276.989 70.3266 277.913 70.2131 278.707 70.0239L278.244 68.0783ZM275.856 68.3761C274 68.4624 272.471 68.2432 271.237 67.7616L270.51 69.6248C272.071 70.2341 273.895 70.4694 275.948 70.3739L275.856 68.3761ZM271.246 67.7652C270.039 67.2802 269.149 66.5468 268.532 65.5686L266.84 66.636C267.7 67.9987 268.936 68.9925 270.501 69.6211L271.246 67.7652ZM268.535 65.5745C267.934 64.6067 267.608 63.3362 267.629 61.7003L265.629 61.6747C265.605 63.5842 265.984 65.257 266.837 66.63L268.535 65.5745ZM267.629 61.6875V36.5455H265.629V61.6875H267.629ZM292.837 54.0682L291.837 54.0568V54.0682H292.837ZM292.837 69V70H293.837V69H292.837ZM284.501 69H283.501V70H284.501V69ZM284.501 34.0909V33.0909H283.501V34.0909H284.501ZM292.564 34.0909H293.564V33.0909H292.564V34.0909ZM292.564 47.625H291.564V48.625H292.564V47.625ZM292.854 47.625V48.625H293.552L293.793 47.9689L292.854 47.625ZM295.751 43.8409L295.194 43.011L295.19 43.0132L295.751 43.8409ZM305.518 43.7045L305.004 44.5621L305.009 44.5652L305.518 43.7045ZM308.689 47.1307L307.797 47.5834L307.8 47.5888L308.689 47.1307ZM309.814 52.3125L308.814 52.3068V52.3125H309.814ZM309.814 69V70H310.814V69H309.814ZM301.479 69H300.479V70H301.479V69ZM301.479 53.9489L300.479 53.9411V53.9489H301.479ZM300.388 50.5398L299.646 51.2099L299.646 51.2099L300.388 50.5398ZM294.95 49.892L295.445 50.7612L295.45 50.7585L294.95 49.892ZM293.399 51.5114L292.516 51.0415L292.511 51.0527L293.399 51.5114ZM291.837 54.0682V69H293.837V54.0682H291.837ZM292.837 68H284.501V70H292.837V68ZM285.501 69V34.0909H283.501V69H285.501ZM284.501 35.0909H292.564V33.0909H284.501V35.0909ZM291.564 34.0909V47.625H293.564V34.0909H291.564ZM292.564 48.625H292.854V46.625H292.564V48.625ZM293.793 47.9689C294.316 46.5394 295.156 45.4527 296.313 44.6686L295.19 43.0132C293.665 44.0473 292.573 45.4833 291.915 47.2811L293.793 47.9689ZM296.309 44.6708C297.466 43.8931 298.916 43.4773 300.712 43.4773V41.4773C298.599 41.4773 296.741 41.9705 295.194 43.011L296.309 44.6708ZM300.712 43.4773C302.4 43.4773 303.819 43.851 305.004 44.562L306.033 42.8471C304.491 41.9217 302.705 41.4773 300.712 41.4773V43.4773ZM305.009 44.5652C306.202 45.2706 307.129 46.2676 307.797 47.5834L309.581 46.678C308.749 45.0393 307.563 43.7521 306.028 42.8439L305.009 44.5652ZM307.8 47.5888C308.475 48.8978 308.825 50.4603 308.814 52.3068L310.814 52.3182C310.826 50.2101 310.426 48.3181 309.578 46.6726L307.8 47.5888ZM308.814 52.3125V69H310.814V52.3125H308.814ZM309.814 68H301.479V70H309.814V68ZM302.479 69V53.9489H300.479V69H302.479ZM302.479 53.9567C302.491 52.3337 302.084 50.9266 301.13 49.8697L299.646 51.2099C300.169 51.7894 300.489 52.6549 300.479 53.9411L302.479 53.9567ZM301.13 49.8697C300.161 48.7968 298.826 48.3125 297.268 48.3125V50.3125C298.393 50.3125 299.137 50.6464 299.646 51.2099L301.13 49.8697ZM297.268 48.3125C296.242 48.3125 295.292 48.5408 294.451 49.0256L295.45 50.7585C295.949 50.4706 296.545 50.3125 297.268 50.3125V48.3125ZM294.456 49.0229C293.623 49.4966 292.975 50.179 292.516 51.0415L294.282 51.9812C294.573 51.4346 294.959 51.0375 295.445 50.7612L294.456 49.0229ZM292.511 51.0527C292.059 51.927 291.849 52.9407 291.837 54.0568L293.837 54.0795C293.847 53.1956 294.012 52.5048 294.288 51.97L292.511 51.0527Z" fill="black" fill-opacity="0.2" mask="url(#path-1-outside-1_120_6)"/>
</g>
</g>
<defs>
<filter id="filter0_dd_120_6" x="-2.88013" y="31.4545" width="317.694" height="56.9091" filterUnits="userSpaceOnUse" color-interpolation-filters="sRGB">
<feFlood flood-opacity="0" result="BackgroundImageFix"/>
<feColorMatrix in="SourceAlpha" type="matrix" values="0 0 0 0 0 0 0 0 0 0 0 0 0 0 0 0 0 0 127 0" result="hardAlpha"/>
<feOffset dy="4"/>
<feGaussianBlur stdDeviation="2"/>
<feComposite in2="hardAlpha" operator="out"/>
<feColorMatrix type="matrix" values="0 0 0 0 0 0 0 0 0 0 0 0 0 0 0 0 0 0 0.25 0"/>
<feBlend mode="normal" in2="BackgroundImageFix" result="effect1_dropShadow_120_6"/>
<feColorMatrix in="SourceAlpha" type="matrix" values="0 0 0 0 0 0 0 0 0 0 0 0 0 0 0 0 0 0 127 0" result="hardAlpha"/>
<feOffset dy="4"/>
<feGaussianBlur stdDeviation="2"/>
<feComposite in2="hardAlpha" operator="out"/>
<feColorMatrix type="matrix" values="0 0 0 0 0 0 0 0 0 0 0 0 0 0 0 0 0 0 0.25 0"/>
<feBlend mode="normal" in2="effect1_dropShadow_120_6" result="effect2_dropShadow_120_6"/>
<feBlend mode="normal" in="SourceGraphic" in2="effect2_dropShadow_120_6" result="shape"/>
</filter>
<clipPath id="clip0_120_6">
<rect width="322" height="117" fill="white"/>
</clipPath>
</defs>
</svg>
