<svg width="322" height="117" viewBox="0 0 322 117" fill="none" xmlns="http://www.w3.org/2000/svg">
<g clip-path="url(#clip0_66_92)">
<rect width="322" height="117" fill="white"/>
<g filter="url(#filter0_dd_66_92)">
<mask id="path-1-outside-1_66_92" maskUnits="userSpaceOnUse" x="-1" y="32" width="213" height="39" fill="black">
<rect fill="white" x="-1" y="32" width="213" height="39"/>
<path d="M10.1932 69H1.125L12.9034 34.0909H24.1364L35.9148 69H26.8466L18.6477 42.8864H18.375L10.1932 69ZM8.98295 55.2614H27.9375V61.6705H8.98295V55.2614ZM48.0085 34.0909V69H39.6733V34.0909H48.0085ZM61.6491 34.0909V69H53.3139V34.0909H61.6491ZM110.216 51.5455C110.216 55.3864 109.477 58.642 108 61.3125C106.523 63.983 104.523 66.0114 102 67.3977C99.4886 68.7841 96.6705 69.4773 93.5455 69.4773C90.4091 69.4773 87.5852 68.7784 85.0739 67.3807C82.5625 65.983 80.5682 63.9545 79.0909 61.2955C77.625 58.625 76.892 55.375 76.892 51.5455C76.892 47.7045 77.625 44.4489 79.0909 41.7784C80.5682 39.108 82.5625 37.0795 85.0739 35.6932C87.5852 34.3068 90.4091 33.6136 93.5455 33.6136C96.6705 33.6136 99.4886 34.3068 102 35.6932C104.523 37.0795 106.523 39.108 108 41.7784C109.477 44.4489 110.216 47.7045 110.216 51.5455ZM101.591 51.5455C101.591 49.2727 101.267 47.3523 100.619 45.7841C99.983 44.2159 99.0625 43.0284 97.858 42.2216C96.6648 41.4148 95.2273 41.0114 93.5455 41.0114C91.875 41.0114 90.4375 41.4148 89.233 42.2216C88.0284 43.0284 87.1023 44.2159 86.4545 45.7841C85.8182 47.3523 85.5 49.2727 85.5 51.5455C85.5 53.8182 85.8182 55.7386 86.4545 57.3068C87.1023 58.875 88.0284 60.0625 89.233 60.8693C90.4375 61.6761 91.875 62.0795 93.5455 62.0795C95.2273 62.0795 96.6648 61.6761 97.858 60.8693C99.0625 60.0625 99.983 58.875 100.619 57.3068C101.267 55.7386 101.591 53.8182 101.591 51.5455ZM129.92 42.8182V48.9545H113.403V42.8182H129.92ZM116.864 36.5455H125.199V60.767C125.199 61.2784 125.278 61.6932 125.438 62.0114C125.608 62.3182 125.852 62.5398 126.17 62.6761C126.489 62.8011 126.869 62.8636 127.312 62.8636C127.631 62.8636 127.966 62.8352 128.318 62.7784C128.682 62.7102 128.955 62.6534 129.136 62.608L130.398 68.625C130 68.7386 129.438 68.8807 128.71 69.0511C127.994 69.2216 127.136 69.3295 126.136 69.375C124.182 69.4659 122.506 69.2386 121.108 68.6932C119.722 68.1364 118.659 67.2727 117.92 66.1023C117.193 64.9318 116.841 63.4602 116.864 61.6875V36.5455ZM143.071 54.0682V69H134.736V34.0909H142.798V47.625H143.088C143.679 46.0114 144.645 44.75 145.986 43.8409C147.338 42.9318 148.991 42.4773 150.946 42.4773C152.787 42.4773 154.389 42.8864 155.753 43.7045C157.116 44.5114 158.173 45.6534 158.923 47.1307C159.685 48.608 160.06 50.3352 160.048 52.3125V69H151.713V53.9489C151.724 52.4943 151.361 51.358 150.622 50.5398C149.884 49.7216 148.844 49.3125 147.503 49.3125C146.628 49.3125 145.855 49.5057 145.185 49.892C144.526 50.267 144.009 50.8068 143.634 51.5114C143.27 52.2159 143.082 53.0682 143.071 54.0682ZM177.49 69.4943C174.751 69.4943 172.388 68.9545 170.399 67.875C168.422 66.7841 166.899 65.233 165.831 63.2216C164.774 61.1989 164.246 58.7955 164.246 56.0114C164.246 53.3068 164.78 50.9432 165.848 48.9205C166.916 46.8864 168.422 45.3068 170.365 44.1818C172.308 43.0455 174.598 42.4773 177.234 42.4773C179.098 42.4773 180.803 42.767 182.348 43.3466C183.893 43.9261 185.229 44.7841 186.354 45.9205C187.479 47.0568 188.354 48.4602 188.979 50.1307C189.604 51.7898 189.916 53.6932 189.916 55.8409V57.9205H167.161V53.0795H182.161C182.149 52.1932 181.939 51.4034 181.53 50.7102C181.121 50.017 180.558 49.4773 179.842 49.0909C179.138 48.6932 178.325 48.4943 177.405 48.4943C176.473 48.4943 175.638 48.7045 174.899 49.125C174.161 49.5341 173.575 50.0966 173.143 50.8125C172.712 51.517 172.484 52.3182 172.462 53.2159V58.142C172.462 59.2102 172.672 60.1477 173.092 60.9545C173.513 61.75 174.109 62.3693 174.882 62.8125C175.655 63.2557 176.575 63.4773 177.643 63.4773C178.382 63.4773 179.053 63.375 179.655 63.1705C180.257 62.9659 180.774 62.6648 181.206 62.267C181.638 61.8693 181.962 61.3807 182.178 60.8011L189.831 61.0227C189.513 62.7386 188.814 64.233 187.734 65.5057C186.666 66.767 185.263 67.75 183.524 68.4545C181.786 69.1477 179.774 69.4943 177.49 69.4943ZM194.173 69V42.8182H202.27V47.5909H202.543C203.02 45.8636 203.798 44.5795 204.878 43.7386C205.957 42.8864 207.213 42.4602 208.645 42.4602C209.031 42.4602 209.429 42.4886 209.838 42.5455C210.247 42.5909 210.628 42.6648 210.98 42.767V50.0114C210.582 49.875 210.06 49.767 209.412 49.6875C208.776 49.608 208.207 49.5682 207.707 49.5682C206.719 49.5682 205.827 49.7898 205.031 50.233C204.247 50.6648 203.628 51.2727 203.173 52.0568C202.73 52.8295 202.509 53.7386 202.509 54.7841V69H194.173Z"/>
</mask>
<path d="M10.1932 69H1.125L12.9034 34.0909H24.1364L35.9148 69H26.8466L18.6477 42.8864H18.375L10.1932 69ZM8.98295 55.2614H27.9375V61.6705H8.98295V55.2614ZM48.0085 34.0909V69H39.6733V34.0909H48.0085ZM61.6491 34.0909V69H53.3139V34.0909H61.6491ZM110.216 51.5455C110.216 55.3864 109.477 58.642 108 61.3125C106.523 63.983 104.523 66.0114 102 67.3977C99.4886 68.7841 96.6705 69.4773 93.5455 69.4773C90.4091 69.4773 87.5852 68.7784 85.0739 67.3807C82.5625 65.983 80.5682 63.9545 79.0909 61.2955C77.625 58.625 76.892 55.375 76.892 51.5455C76.892 47.7045 77.625 44.4489 79.0909 41.7784C80.5682 39.108 82.5625 37.0795 85.0739 35.6932C87.5852 34.3068 90.4091 33.6136 93.5455 33.6136C96.6705 33.6136 99.4886 34.3068 102 35.6932C104.523 37.0795 106.523 39.108 108 41.7784C109.477 44.4489 110.216 47.7045 110.216 51.5455ZM101.591 51.5455C101.591 49.2727 101.267 47.3523 100.619 45.7841C99.983 44.2159 99.0625 43.0284 97.858 42.2216C96.6648 41.4148 95.2273 41.0114 93.5455 41.0114C91.875 41.0114 90.4375 41.4148 89.233 42.2216C88.0284 43.0284 87.1023 44.2159 86.4545 45.7841C85.8182 47.3523 85.5 49.2727 85.5 51.5455C85.5 53.8182 85.8182 55.7386 86.4545 57.3068C87.1023 58.875 88.0284 60.0625 89.233 60.8693C90.4375 61.6761 91.875 62.0795 93.5455 62.0795C95.2273 62.0795 96.6648 61.6761 97.858 60.8693C99.0625 60.0625 99.983 58.875 100.619 57.3068C101.267 55.7386 101.591 53.8182 101.591 51.5455ZM129.92 42.8182V48.9545H113.403V42.8182H129.92ZM116.864 36.5455H125.199V60.767C125.199 61.2784 125.278 61.6932 125.438 62.0114C125.608 62.3182 125.852 62.5398 126.17 62.6761C126.489 62.8011 126.869 62.8636 127.312 62.8636C127.631 62.8636 127.966 62.8352 128.318 62.7784C128.682 62.7102 128.955 62.6534 129.136 62.608L130.398 68.625C130 68.7386 129.438 68.8807 128.71 69.0511C127.994 69.2216 127.136 69.3295 126.136 69.375C124.182 69.4659 122.506 69.2386 121.108 68.6932C119.722 68.1364 118.659 67.2727 117.92 66.1023C117.193 64.9318 116.841 63.4602 116.864 61.6875V36.5455ZM143.071 54.0682V69H134.736V34.0909H142.798V47.625H143.088C143.679 46.0114 144.645 44.75 145.986 43.8409C147.338 42.9318 148.991 42.4773 150.946 42.4773C152.787 42.4773 154.389 42.8864 155.753 43.7045C157.116 44.5114 158.173 45.6534 158.923 47.1307C159.685 48.608 160.06 50.3352 160.048 52.3125V69H151.713V53.9489C151.724 52.4943 151.361 51.358 150.622 50.5398C149.884 49.7216 148.844 49.3125 147.503 49.3125C146.628 49.3125 145.855 49.5057 145.185 49.892C144.526 50.267 144.009 50.8068 143.634 51.5114C143.27 52.2159 143.082 53.0682 143.071 54.0682ZM177.49 69.4943C174.751 69.4943 172.388 68.9545 170.399 67.875C168.422 66.7841 166.899 65.233 165.831 63.2216C164.774 61.1989 164.246 58.7955 164.246 56.0114C164.246 53.3068 164.78 50.9432 165.848 48.9205C166.916 46.8864 168.422 45.3068 170.365 44.1818C172.308 43.0455 174.598 42.4773 177.234 42.4773C179.098 42.4773 180.803 42.767 182.348 43.3466C183.893 43.9261 185.229 44.7841 186.354 45.9205C187.479 47.0568 188.354 48.4602 188.979 50.1307C189.604 51.7898 189.916 53.6932 189.916 55.8409V57.9205H167.161V53.0795H182.161C182.149 52.1932 181.939 51.4034 181.53 50.7102C181.121 50.017 180.558 49.4773 179.842 49.0909C179.138 48.6932 178.325 48.4943 177.405 48.4943C176.473 48.4943 175.638 48.7045 174.899 49.125C174.161 49.5341 173.575 50.0966 173.143 50.8125C172.712 51.517 172.484 52.3182 172.462 53.2159V58.142C172.462 59.2102 172.672 60.1477 173.092 60.9545C173.513 61.75 174.109 62.3693 174.882 62.8125C175.655 63.2557 176.575 63.4773 177.643 63.4773C178.382 63.4773 179.053 63.375 179.655 63.1705C180.257 62.9659 180.774 62.6648 181.206 62.267C181.638 61.8693 181.962 61.3807 182.178 60.8011L189.831 61.0227C189.513 62.7386 188.814 64.233 187.734 65.5057C186.666 66.767 185.263 67.75 183.524 68.4545C181.786 69.1477 179.774 69.4943 177.49 69.4943ZM194.173 69V42.8182H202.27V47.5909H202.543C203.02 45.8636 203.798 44.5795 204.878 43.7386C205.957 42.8864 207.213 42.4602 208.645 42.4602C209.031 42.4602 209.429 42.4886 209.838 42.5455C210.247 42.5909 210.628 42.6648 210.98 42.767V50.0114C210.582 49.875 210.06 49.767 209.412 49.6875C208.776 49.608 208.207 49.5682 207.707 49.5682C206.719 49.5682 205.827 49.7898 205.031 50.233C204.247 50.6648 203.628 51.2727 203.173 52.0568C202.73 52.8295 202.509 53.7386 202.509 54.7841V69H194.173Z" fill="black"/>
<path d="M10.1932 69V70H10.9278L11.1474 69.299L10.1932 69ZM1.125 69L0.17748 68.6803L-0.267789 70H1.125V69ZM12.9034 34.0909V33.0909H12.1854L11.9559 33.7712L12.9034 34.0909ZM24.1364 34.0909L25.0839 33.7712L24.8543 33.0909H24.1364V34.0909ZM35.9148 69V70H37.3076L36.8623 68.6803L35.9148 69ZM26.8466 69L25.8925 69.2996L26.1124 70H26.8466V69ZM18.6477 42.8864L19.6018 42.5868L19.3819 41.8864H18.6477V42.8864ZM18.375 42.8864V41.8864H17.6404L17.4207 42.5874L18.375 42.8864ZM8.98295 55.2614V54.2614H7.98295V55.2614H8.98295ZM27.9375 55.2614H28.9375V54.2614H27.9375V55.2614ZM27.9375 61.6705V62.6705H28.9375V61.6705H27.9375ZM8.98295 61.6705H7.98295V62.6705H8.98295V61.6705ZM10.1932 68H1.125V70H10.1932V68ZM2.07252 69.3197L13.8509 34.4106L11.9559 33.7712L0.17748 68.6803L2.07252 69.3197ZM12.9034 35.0909H24.1364V33.0909H12.9034V35.0909ZM23.1888 34.4106L34.9673 69.3197L36.8623 68.6803L25.0839 33.7712L23.1888 34.4106ZM35.9148 68H26.8466V70H35.9148V68ZM27.8007 68.7004L19.6018 42.5868L17.6936 43.1859L25.8925 69.2996L27.8007 68.7004ZM18.6477 41.8864H18.375V43.8864H18.6477V41.8864ZM17.4207 42.5874L9.23892 68.701L11.1474 69.299L19.3293 43.1853L17.4207 42.5874ZM8.98295 56.2614H27.9375V54.2614H8.98295V56.2614ZM26.9375 55.2614V61.6705H28.9375V55.2614H26.9375ZM27.9375 60.6705H8.98295V62.6705H27.9375V60.6705ZM9.98295 61.6705V55.2614H7.98295V61.6705H9.98295ZM48.0085 34.0909H49.0085V33.0909H48.0085V34.0909ZM48.0085 69V70H49.0085V69H48.0085ZM39.6733 69H38.6733V70H39.6733V69ZM39.6733 34.0909V33.0909H38.6733V34.0909H39.6733ZM47.0085 34.0909V69H49.0085V34.0909H47.0085ZM48.0085 68H39.6733V70H48.0085V68ZM40.6733 69V34.0909H38.6733V69H40.6733ZM39.6733 35.0909H48.0085V33.0909H39.6733V35.0909ZM61.6491 34.0909H62.6491V33.0909H61.6491V34.0909ZM61.6491 69V70H62.6491V69H61.6491ZM53.3139 69H52.3139V70H53.3139V69ZM53.3139 34.0909V33.0909H52.3139V34.0909H53.3139ZM60.6491 34.0909V69H62.6491V34.0909H60.6491ZM61.6491 68H53.3139V70H61.6491V68ZM54.3139 69V34.0909H52.3139V69H54.3139ZM53.3139 35.0909H61.6491V33.0909H53.3139V35.0909ZM108 61.3125L107.125 60.8284L108 61.3125ZM102 67.3977L101.518 66.5213L101.517 66.5223L102 67.3977ZM85.0739 67.3807L85.5602 66.5069L85.0739 67.3807ZM79.0909 61.2955L78.2143 61.7767L78.2168 61.7811L79.0909 61.2955ZM79.0909 41.7784L78.2159 41.2943L78.2143 41.2972L79.0909 41.7784ZM85.0739 35.6932L85.5572 36.5686V36.5686L85.0739 35.6932ZM102 35.6932L101.517 36.5686L101.518 36.5696L102 35.6932ZM108 41.7784L107.125 42.2625L108 41.7784ZM100.619 45.7841L99.6927 46.1601L99.6951 46.1659L100.619 45.7841ZM97.858 42.2216L97.2978 43.05L97.3014 43.0524L97.858 42.2216ZM89.233 42.2216L89.7895 43.0524H89.7895L89.233 42.2216ZM86.4545 45.7841L85.5303 45.4023L85.5279 45.4081L86.4545 45.7841ZM86.4545 57.3068L85.5279 57.6828L85.5303 57.6886L86.4545 57.3068ZM89.233 60.8693L89.7895 60.0385L89.233 60.8693ZM97.858 60.8693L97.3014 60.0385L97.2978 60.0409L97.858 60.8693ZM100.619 57.3068L99.695 56.925L99.6927 56.9308L100.619 57.3068ZM109.216 51.5455C109.216 55.26 108.502 58.3397 107.125 60.8284L108.875 61.7966C110.453 58.9444 111.216 55.5127 111.216 51.5455H109.216ZM107.125 60.8284C105.733 63.344 103.865 65.2315 101.518 66.5213L102.482 68.2741C105.18 66.7912 107.312 64.6219 108.875 61.7966L107.125 60.8284ZM101.517 66.5223C99.1663 67.8198 96.5169 68.4773 93.5455 68.4773V70.4773C96.824 70.4773 99.8109 69.7484 102.483 68.2732L101.517 66.5223ZM93.5455 68.4773C90.5634 68.4773 87.9095 67.8144 85.5602 66.5069L84.5875 68.2545C87.261 69.7424 90.2548 70.4773 93.5455 70.4773V68.4773ZM85.5602 66.5069C83.2214 65.2052 81.3573 63.3158 79.9651 60.8098L78.2168 61.7811C79.7791 64.5933 81.9036 66.7607 84.5875 68.2545L85.5602 66.5069ZM79.9675 60.8143C78.6008 58.3245 77.892 55.2492 77.892 51.5455H75.892C75.892 55.5008 76.6492 58.9255 78.2143 61.7767L79.9675 60.8143ZM77.892 51.5455C77.892 47.8297 78.601 44.749 79.9675 42.2596L78.2143 41.2972C76.649 44.1488 75.892 47.5794 75.892 51.5455H77.892ZM79.9659 42.2625C81.3582 39.7458 83.2213 37.8581 85.5572 36.5686L84.5906 34.8177C81.9037 36.301 79.7782 38.4701 78.2159 41.2943L79.9659 42.2625ZM85.5572 36.5686C87.907 35.2714 90.562 34.6136 93.5455 34.6136V32.6136C90.2562 32.6136 87.2635 33.3422 84.5906 34.8177L85.5572 36.5686ZM93.5455 34.6136C96.5169 34.6136 99.1663 35.2711 101.517 36.5686L102.483 34.8177C99.8109 33.3425 96.824 32.6136 93.5455 32.6136V34.6136ZM101.518 36.5696C103.865 37.8594 105.733 39.7469 107.125 42.2625L108.875 41.2943C107.312 38.469 105.18 36.2997 102.482 34.8168L101.518 36.5696ZM107.125 42.2625C108.502 44.7512 109.216 47.8309 109.216 51.5455H111.216C111.216 47.5782 110.453 44.1465 108.875 41.2943L107.125 42.2625ZM102.591 51.5455C102.591 49.1837 102.255 47.1251 101.544 45.4023L99.6951 46.1659C100.279 47.5794 100.591 49.3618 100.591 51.5455H102.591ZM101.546 45.4081C100.847 43.6865 99.8114 42.3264 98.4145 41.3907L97.3014 43.0524C98.3136 43.7304 99.1186 44.7453 99.6927 46.1601L101.546 45.4081ZM98.4181 41.3932C97.0332 40.4568 95.3926 40.0114 93.5455 40.0114V42.0114C95.0619 42.0114 96.2963 42.3728 97.2978 43.05L98.4181 41.3932ZM93.5455 40.0114C91.7078 40.0114 90.0696 40.4576 88.6764 41.3907L89.7895 43.0524C90.8054 42.372 92.0422 42.0114 93.5455 42.0114V40.0114ZM88.6764 41.3907C87.2812 42.3253 86.2403 43.6832 85.5303 45.4023L87.3788 46.1658C87.9642 44.7486 88.7757 43.7315 89.7895 43.0524L88.6764 41.3907ZM85.5279 45.4081C84.8296 47.129 84.5 49.1855 84.5 51.5455H86.5C86.5 49.36 86.8068 47.5755 87.3812 46.1601L85.5279 45.4081ZM84.5 51.5455C84.5 53.9054 84.8296 55.9619 85.5279 57.6828L87.3812 56.9308C86.8068 55.5154 86.5 53.7309 86.5 51.5455H84.5ZM85.5303 57.6886C86.2403 59.4077 87.2812 60.7656 88.6764 61.7002L89.7895 60.0385C88.7757 59.3594 87.9642 58.3423 87.3788 56.9251L85.5303 57.6886ZM88.6764 61.7002C90.0696 62.6333 91.7078 63.0795 93.5455 63.0795V61.0795C92.0422 61.0795 90.8054 60.7189 89.7895 60.0385L88.6764 61.7002ZM93.5455 63.0795C95.3926 63.0795 97.0332 62.6342 98.4181 61.6977L97.2978 60.0409C96.2963 60.7181 95.0619 61.0795 93.5455 61.0795V63.0795ZM98.4145 61.7002C99.8114 60.7645 100.847 59.4044 101.546 57.6828L99.6927 56.9308C99.1186 58.3456 98.3136 59.3605 97.3014 60.0385L98.4145 61.7002ZM101.544 57.6886C102.255 55.9658 102.591 53.9072 102.591 51.5455H100.591C100.591 53.7292 100.279 55.5115 99.6951 56.9251L101.544 57.6886ZM129.92 42.8182H130.92V41.8182H129.92V42.8182ZM129.92 48.9545V49.9545H130.92V48.9545H129.92ZM113.403 48.9545H112.403V49.9545H113.403V48.9545ZM113.403 42.8182V41.8182H112.403V42.8182H113.403ZM116.864 36.5455V35.5455H115.864V36.5455H116.864ZM125.199 36.5455H126.199V35.5455H125.199V36.5455ZM125.438 62.0114L124.543 62.4586L124.553 62.478L124.563 62.497L125.438 62.0114ZM126.17 62.6761L125.777 63.5953L125.791 63.6013L125.805 63.6069L126.17 62.6761ZM128.318 62.7784L128.477 63.7656L128.49 63.7636L128.502 63.7613L128.318 62.7784ZM129.136 62.608L130.115 62.4028L129.902 61.3858L128.894 61.6378L129.136 62.608ZM130.398 68.625L130.672 69.5865L131.567 69.3308L131.376 68.4198L130.398 68.625ZM128.71 69.0511L128.482 68.0775L128.479 68.0783L128.71 69.0511ZM126.136 69.375L126.091 68.376L126.09 68.3761L126.136 69.375ZM121.108 68.6932L120.735 69.6212L120.744 69.6248L121.108 68.6932ZM117.92 66.1023L117.071 66.6301L117.075 66.636L117.92 66.1023ZM116.864 61.6875L117.864 61.7003V61.6875H116.864ZM128.92 42.8182V48.9545H130.92V42.8182H128.92ZM129.92 47.9545H113.403V49.9545H129.92V47.9545ZM114.403 48.9545V42.8182H112.403V48.9545H114.403ZM113.403 43.8182H129.92V41.8182H113.403V43.8182ZM116.864 37.5455H125.199V35.5455H116.864V37.5455ZM124.199 36.5455V60.767H126.199V36.5455H124.199ZM124.199 60.767C124.199 61.3705 124.291 61.9543 124.543 62.4586L126.332 61.5642C126.266 61.432 126.199 61.1864 126.199 60.767H124.199ZM124.563 62.497C124.84 62.9946 125.252 63.3703 125.777 63.5953L126.564 61.757C126.453 61.7092 126.376 61.6417 126.312 61.5257L124.563 62.497ZM125.805 63.6069C126.268 63.789 126.779 63.8636 127.312 63.8636V61.8636C126.959 61.8636 126.709 61.8133 126.536 61.7454L125.805 63.6069ZM127.312 63.8636C127.69 63.8636 128.079 63.83 128.477 63.7656L128.159 61.7912C127.853 61.8405 127.571 61.8636 127.312 61.8636V63.8636ZM128.502 63.7613C128.871 63.6922 129.167 63.631 129.379 63.5781L128.894 61.6378C128.742 61.6758 128.493 61.7282 128.134 61.7955L128.502 63.7613ZM128.158 62.8131L129.419 68.8302L131.376 68.4198L130.115 62.4028L128.158 62.8131ZM130.123 67.6635C129.748 67.7705 129.204 67.9083 128.482 68.0775L128.938 70.0248C129.671 69.853 130.252 69.7067 130.672 69.5865L130.123 67.6635ZM128.479 68.0783C127.841 68.2301 127.049 68.3325 126.091 68.376L126.182 70.374C127.224 70.3266 128.147 70.2131 128.942 70.0239L128.479 68.0783ZM126.09 68.3761C124.235 68.4624 122.706 68.2432 121.471 67.7616L120.744 69.6248C122.306 70.2341 124.129 70.4694 126.183 70.3739L126.09 68.3761ZM121.481 67.7652C120.273 67.2802 119.383 66.5468 118.766 65.5686L117.075 66.636C117.935 67.9987 119.17 68.9925 120.735 69.6211L121.481 67.7652ZM118.77 65.5745C118.168 64.6067 117.843 63.3362 117.864 61.7003L115.864 61.6747C115.839 63.5842 116.218 65.257 117.071 66.63L118.77 65.5745ZM117.864 61.6875V36.5455H115.864V61.6875H117.864ZM143.071 54.0682L142.071 54.0568V54.0682H143.071ZM143.071 69V70H144.071V69H143.071ZM134.736 69H133.736V70H134.736V69ZM134.736 34.0909V33.0909H133.736V34.0909H134.736ZM142.798 34.0909H143.798V33.0909H142.798V34.0909ZM142.798 47.625H141.798V48.625H142.798V47.625ZM143.088 47.625V48.625H143.787L144.027 47.9689L143.088 47.625ZM145.986 43.8409L145.428 43.011L145.425 43.0132L145.986 43.8409ZM155.753 43.7045L155.238 44.5621L155.244 44.5652L155.753 43.7045ZM158.923 47.1307L158.032 47.5834L158.034 47.5888L158.923 47.1307ZM160.048 52.3125L159.048 52.3068V52.3125H160.048ZM160.048 69V70H161.048V69H160.048ZM151.713 69H150.713V70H151.713V69ZM151.713 53.9489L150.713 53.9411V53.9489H151.713ZM150.622 50.5398L149.88 51.2099L150.622 50.5398ZM145.185 49.892L145.679 50.7612L145.684 50.7585L145.185 49.892ZM143.634 51.5114L142.751 51.0415L142.745 51.0527L143.634 51.5114ZM142.071 54.0682V69H144.071V54.0682H142.071ZM143.071 68H134.736V70H143.071V68ZM135.736 69V34.0909H133.736V69H135.736ZM134.736 35.0909H142.798V33.0909H134.736V35.0909ZM141.798 34.0909V47.625H143.798V34.0909H141.798ZM142.798 48.625H143.088V46.625H142.798V48.625ZM144.027 47.9689C144.551 46.5394 145.39 45.4527 146.547 44.6686L145.425 43.0132C143.899 44.0473 142.807 45.4833 142.149 47.2811L144.027 47.9689ZM146.544 44.6708C147.701 43.8931 149.15 43.4773 150.946 43.4773V41.4773C148.833 41.4773 146.976 41.9705 145.428 43.011L146.544 44.6708ZM150.946 43.4773C152.635 43.4773 154.053 43.851 155.238 44.562L156.267 42.8471C154.725 41.9217 152.939 41.4773 150.946 41.4773V43.4773ZM155.244 44.5652C156.436 45.2706 157.364 46.2676 158.032 47.5834L159.815 46.678C158.983 45.0393 157.797 43.7521 156.262 42.8439L155.244 44.5652ZM158.034 47.5888C158.709 48.8978 159.059 50.4603 159.048 52.3068L161.048 52.3182C161.06 50.2101 160.66 48.3181 159.812 46.6726L158.034 47.5888ZM159.048 52.3125V69H161.048V52.3125H159.048ZM160.048 68H151.713V70H160.048V68ZM152.713 69V53.9489H150.713V69H152.713ZM152.713 53.9567C152.726 52.3337 152.319 50.9266 151.364 49.8697L149.88 51.2099C150.403 51.7894 150.723 52.6549 150.713 53.9411L152.713 53.9567ZM151.364 49.8697C150.396 48.7968 149.06 48.3125 147.503 48.3125V50.3125C148.627 50.3125 149.371 50.6464 149.88 51.2099L151.364 49.8697ZM147.503 48.3125C146.476 48.3125 145.527 48.5408 144.685 49.0256L145.684 50.7585C146.184 50.4706 146.78 50.3125 147.503 50.3125V48.3125ZM144.69 49.0229C143.858 49.4966 143.21 50.179 142.751 51.0415L144.516 51.9812C144.807 51.4346 145.194 51.0375 145.679 50.7612L144.69 49.0229ZM142.745 51.0527C142.294 51.927 142.084 52.9407 142.071 54.0568L144.071 54.0795C144.081 53.1956 144.246 52.5048 144.522 51.97L142.745 51.0527ZM170.399 67.875L169.916 68.7506L169.922 68.7539L170.399 67.875ZM165.831 63.2216L164.945 63.6847L164.948 63.6906L165.831 63.2216ZM165.848 48.9205L166.732 49.3874L166.733 49.3854L165.848 48.9205ZM170.365 44.1818L170.866 45.0473L170.87 45.045L170.365 44.1818ZM182.348 43.3466L182.699 42.4103H182.699L182.348 43.3466ZM188.979 50.1307L188.042 50.4811L188.043 50.4832L188.979 50.1307ZM189.916 57.9205V58.9205H190.916V57.9205H189.916ZM167.161 57.9205H166.161V58.9205H167.161V57.9205ZM167.161 53.0795V52.0795H166.161V53.0795H167.161ZM182.161 53.0795V54.0795H183.173L183.16 53.0667L182.161 53.0795ZM179.842 49.0909L179.351 49.9617L179.359 49.9664L179.367 49.9709L179.842 49.0909ZM174.899 49.125L175.384 49.9999L175.394 49.9941L174.899 49.125ZM173.143 50.8125L173.996 51.3351L174 51.329L173.143 50.8125ZM172.462 53.2159L171.462 53.1906L171.462 53.2033V53.2159H172.462ZM173.092 60.9545L172.206 61.4167L172.208 61.4219L173.092 60.9545ZM174.882 62.8125L174.385 63.68H174.385L174.882 62.8125ZM179.655 63.1705L179.976 64.1173L179.655 63.1705ZM181.206 62.267L181.883 63.0026L181.206 62.267ZM182.178 60.8011L182.206 59.8016L181.491 59.7808L181.24 60.452L182.178 60.8011ZM189.831 61.0227L190.814 61.2051L191.027 60.0569L189.86 60.0231L189.831 61.0227ZM187.734 65.5057L186.972 64.8588L186.971 64.8594L187.734 65.5057ZM183.524 68.4545L183.895 69.3835L183.9 69.3813L183.524 68.4545ZM177.49 68.4943C174.883 68.4943 172.691 67.9811 170.876 66.9961L169.922 68.7539C172.085 69.928 174.62 70.4943 177.49 70.4943V68.4943ZM170.882 66.9994C169.076 66.0032 167.692 64.594 166.714 62.7526L164.948 63.6906C166.106 65.8719 167.767 67.565 169.916 68.7506L170.882 66.9994ZM166.717 62.7585C165.75 60.9068 165.246 58.6692 165.246 56.0114H163.246C163.246 58.9217 163.798 61.4909 164.945 63.6847L166.717 62.7585ZM165.246 56.0114C165.246 53.4399 165.753 51.2421 166.732 49.3874L164.964 48.4535C163.807 50.6442 163.246 53.1737 163.246 56.0114H165.246ZM166.733 49.3854C167.716 47.5143 169.09 46.0754 170.866 45.0472L169.864 43.3164C167.754 44.5382 166.116 46.2584 164.963 48.4555L166.733 49.3854ZM170.87 45.045C172.635 44.0126 174.745 43.4773 177.234 43.4773V41.4773C174.451 41.4773 171.981 42.0784 169.86 43.3186L170.87 45.045ZM177.234 43.4773C178.993 43.4773 180.577 43.7506 181.997 44.2829L182.699 42.4103C181.028 41.7835 179.203 41.4773 177.234 41.4773V43.4773ZM181.997 44.2829C183.412 44.8134 184.623 45.5936 185.643 46.624L187.064 45.2169C185.834 43.9746 184.375 43.0388 182.699 42.4103L181.997 44.2829ZM185.643 46.624C186.658 47.6489 187.461 48.9277 188.042 50.4811L189.915 49.7803C189.247 47.9928 188.3 46.4647 187.064 45.2169L185.643 46.624ZM188.043 50.4832C188.618 52.0086 188.916 53.7889 188.916 55.8409H190.916C190.916 53.5975 190.59 51.571 189.914 49.7782L188.043 50.4832ZM188.916 55.8409V57.9205H190.916V55.8409H188.916ZM189.916 56.9205H167.161V58.9205H189.916V56.9205ZM168.161 57.9205V53.0795H166.161V57.9205H168.161ZM167.161 54.0795H182.161V52.0795H167.161V54.0795ZM183.16 53.0667C183.147 52.0241 182.898 51.0603 182.391 50.202L180.669 51.2185C180.98 51.7466 181.151 52.3623 181.161 53.0924L183.16 53.0667ZM182.391 50.202C181.888 49.3503 181.192 48.6827 180.317 48.2109L179.367 49.9709C179.925 50.2718 180.353 50.6838 180.669 51.2185L182.391 50.202ZM180.334 48.2201C179.46 47.7266 178.473 47.4943 177.405 47.4943V49.4943C178.177 49.4943 178.816 49.6598 179.351 49.9617L180.334 48.2201ZM177.405 47.4943C176.317 47.4943 175.308 47.7416 174.404 48.2559L175.394 49.9941C175.967 49.6675 176.629 49.4943 177.405 49.4943V47.4943ZM174.415 48.2502C173.524 48.7432 172.81 49.4286 172.287 50.296L174 51.329C174.34 50.7646 174.797 50.3249 175.384 49.9998L174.415 48.2502ZM172.291 50.2899C171.759 51.1573 171.489 52.1328 171.462 53.1906L173.461 53.2412C173.48 52.5036 173.664 51.8768 173.996 51.3351L172.291 50.2899ZM171.462 53.2159V58.142H173.462V53.2159H171.462ZM171.462 58.142C171.462 59.3431 171.699 60.4443 172.206 61.4167L173.979 60.4924C173.645 59.8512 173.462 59.0773 173.462 58.142H171.462ZM172.208 61.4219C172.716 62.3828 173.446 63.1417 174.385 63.68L175.38 61.945C174.773 61.597 174.309 61.1172 173.976 60.4872L172.208 61.4219ZM174.385 63.68C175.336 64.2258 176.436 64.4773 177.643 64.4773V62.4773C176.715 62.4773 175.973 62.2856 175.38 61.945L174.385 63.68ZM177.643 64.4773C178.474 64.4773 179.255 64.3622 179.976 64.1173L179.333 62.2236C178.85 62.3878 178.29 62.4773 177.643 62.4773V64.4773ZM179.976 64.1173C180.7 63.8717 181.341 63.5025 181.883 63.0026L180.528 61.5315C180.208 61.8271 179.815 62.0601 179.333 62.2236L179.976 64.1173ZM181.883 63.0026C182.437 62.4926 182.847 61.8691 183.115 61.1502L181.24 60.452C181.076 60.8922 180.838 61.2461 180.528 61.5315L181.883 63.0026ZM182.149 61.8007L189.802 62.0223L189.86 60.0231L182.206 59.8016L182.149 61.8007ZM188.848 60.8404C188.56 62.393 187.933 63.7252 186.972 64.8588L188.497 66.1525C189.695 64.7407 190.466 63.0842 190.814 61.2051L188.848 60.8404ZM186.971 64.8594C186.021 65.9815 184.758 66.8757 183.149 67.5277L183.9 69.3813C185.768 68.6243 187.311 67.5526 188.497 66.1519L186.971 64.8594ZM183.154 67.5257C181.556 68.1628 179.674 68.4943 177.49 68.4943V70.4943C179.874 70.4943 182.015 70.1327 183.894 69.3834L183.154 67.5257ZM194.173 69H193.173V70H194.173V69ZM194.173 42.8182V41.8182H193.173V42.8182H194.173ZM202.27 42.8182H203.27V41.8182H202.27V42.8182ZM202.27 47.5909H201.27V48.5909H202.27V47.5909ZM202.543 47.5909V48.5909H203.304L203.507 47.8572L202.543 47.5909ZM204.878 43.7386L205.492 44.5276L205.497 44.5235L204.878 43.7386ZM209.838 42.5455L209.701 43.5359L209.714 43.5378L209.728 43.5393L209.838 42.5455ZM210.98 42.767H211.98V42.0161L211.259 41.8067L210.98 42.767ZM210.98 50.0114L210.656 50.9573L211.98 51.4114V50.0114H210.98ZM209.412 49.6875L209.288 50.6798L209.29 50.68L209.412 49.6875ZM205.031 50.233L205.514 51.1089L205.518 51.1065L205.031 50.233ZM203.173 52.0568L202.308 51.5553L202.306 51.5593L203.173 52.0568ZM202.509 69V70H203.509V69H202.509ZM195.173 69V42.8182H193.173V69H195.173ZM194.173 43.8182H202.27V41.8182H194.173V43.8182ZM201.27 42.8182V47.5909H203.27V42.8182H201.27ZM202.27 48.5909H202.543V46.5909H202.27V48.5909ZM203.507 47.8572C203.944 46.2732 204.628 45.2006 205.492 44.5275L204.263 42.9497C202.968 43.9584 202.096 45.4541 201.579 47.3246L203.507 47.8572ZM205.497 44.5235C206.393 43.8166 207.428 43.4602 208.645 43.4602V41.4602C206.998 41.4602 205.522 41.9561 204.258 42.9538L205.497 44.5235ZM208.645 43.4602C208.982 43.4602 209.334 43.485 209.701 43.5359L209.976 41.555C209.524 41.4922 209.08 41.4602 208.645 41.4602V43.4602ZM209.728 43.5393C210.087 43.5792 210.41 43.6429 210.701 43.7274L211.259 41.8067C210.845 41.6866 210.408 41.6026 209.949 41.5516L209.728 43.5393ZM209.98 42.767V50.0114H211.98V42.767H209.98ZM211.304 49.0654C210.815 48.8978 210.217 48.7789 209.534 48.695L209.29 50.68C209.902 50.7552 210.349 50.8522 210.656 50.9573L211.304 49.0654ZM209.536 48.6952C208.869 48.6119 208.259 48.5682 207.707 48.5682V50.5682C208.156 50.5682 208.682 50.604 209.288 50.6798L209.536 48.6952ZM207.707 48.5682C206.563 48.5682 205.501 48.8263 204.545 49.3594L205.518 51.1065C206.152 50.7533 206.874 50.5682 207.707 50.5682V48.5682ZM204.549 49.357C203.603 49.8777 202.853 50.616 202.308 51.5553L204.038 52.5583C204.403 51.9295 204.891 51.4519 205.514 51.1089L204.549 49.357ZM202.306 51.5593C201.762 52.5079 201.509 53.5946 201.509 54.7841H203.509C203.509 53.8827 203.698 53.1512 204.041 52.5543L202.306 51.5593ZM201.509 54.7841V69H203.509V54.7841H201.509ZM202.509 68H194.173V70H202.509V68Z" fill="black" mask="url(#path-1-outside-1_66_92)"/>
<path d="M10.1932 69V70H10.9278L11.1474 69.299L10.1932 69ZM1.125 69L0.17748 68.6803L-0.267789 70H1.125V69ZM12.9034 34.0909V33.0909H12.1854L11.9559 33.7712L12.9034 34.0909ZM24.1364 34.0909L25.0839 33.7712L24.8543 33.0909H24.1364V34.0909ZM35.9148 69V70H37.3076L36.8623 68.6803L35.9148 69ZM26.8466 69L25.8925 69.2996L26.1124 70H26.8466V69ZM18.6477 42.8864L19.6018 42.5868L19.3819 41.8864H18.6477V42.8864ZM18.375 42.8864V41.8864H17.6404L17.4207 42.5874L18.375 42.8864ZM8.98295 55.2614V54.2614H7.98295V55.2614H8.98295ZM27.9375 55.2614H28.9375V54.2614H27.9375V55.2614ZM27.9375 61.6705V62.6705H28.9375V61.6705H27.9375ZM8.98295 61.6705H7.98295V62.6705H8.98295V61.6705ZM10.1932 68H1.125V70H10.1932V68ZM2.07252 69.3197L13.8509 34.4106L11.9559 33.7712L0.17748 68.6803L2.07252 69.3197ZM12.9034 35.0909H24.1364V33.0909H12.9034V35.0909ZM23.1888 34.4106L34.9673 69.3197L36.8623 68.6803L25.0839 33.7712L23.1888 34.4106ZM35.9148 68H26.8466V70H35.9148V68ZM27.8007 68.7004L19.6018 42.5868L17.6936 43.1859L25.8925 69.2996L27.8007 68.7004ZM18.6477 41.8864H18.375V43.8864H18.6477V41.8864ZM17.4207 42.5874L9.23892 68.701L11.1474 69.299L19.3293 43.1853L17.4207 42.5874ZM8.98295 56.2614H27.9375V54.2614H8.98295V56.2614ZM26.9375 55.2614V61.6705H28.9375V55.2614H26.9375ZM27.9375 60.6705H8.98295V62.6705H27.9375V60.6705ZM9.98295 61.6705V55.2614H7.98295V61.6705H9.98295ZM48.0085 34.0909H49.0085V33.0909H48.0085V34.0909ZM48.0085 69V70H49.0085V69H48.0085ZM39.6733 69H38.6733V70H39.6733V69ZM39.6733 34.0909V33.0909H38.6733V34.0909H39.6733ZM47.0085 34.0909V69H49.0085V34.0909H47.0085ZM48.0085 68H39.6733V70H48.0085V68ZM40.6733 69V34.0909H38.6733V69H40.6733ZM39.6733 35.0909H48.0085V33.0909H39.6733V35.0909ZM61.6491 34.0909H62.6491V33.0909H61.6491V34.0909ZM61.6491 69V70H62.6491V69H61.6491ZM53.3139 69H52.3139V70H53.3139V69ZM53.3139 34.0909V33.0909H52.3139V34.0909H53.3139ZM60.6491 34.0909V69H62.6491V34.0909H60.6491ZM61.6491 68H53.3139V70H61.6491V68ZM54.3139 69V34.0909H52.3139V69H54.3139ZM53.3139 35.0909H61.6491V33.0909H53.3139V35.0909ZM108 61.3125L107.125 60.8284L108 61.3125ZM102 67.3977L101.518 66.5213L101.517 66.5223L102 67.3977ZM85.0739 67.3807L85.5602 66.5069L85.0739 67.3807ZM79.0909 61.2955L78.2143 61.7767L78.2168 61.7811L79.0909 61.2955ZM79.0909 41.7784L78.2159 41.2943L78.2143 41.2972L79.0909 41.7784ZM85.0739 35.6932L85.5572 36.5686V36.5686L85.0739 35.6932ZM102 35.6932L101.517 36.5686L101.518 36.5696L102 35.6932ZM108 41.7784L107.125 42.2625L108 41.7784ZM100.619 45.7841L99.6927 46.1601L99.6951 46.1659L100.619 45.7841ZM97.858 42.2216L97.2978 43.05L97.3014 43.0524L97.858 42.2216ZM89.233 42.2216L89.7895 43.0524H89.7895L89.233 42.2216ZM86.4545 45.7841L85.5303 45.4023L85.5279 45.4081L86.4545 45.7841ZM86.4545 57.3068L85.5279 57.6828L85.5303 57.6886L86.4545 57.3068ZM89.233 60.8693L89.7895 60.0385L89.233 60.8693ZM97.858 60.8693L97.3014 60.0385L97.2978 60.0409L97.858 60.8693ZM100.619 57.3068L99.695 56.925L99.6927 56.9308L100.619 57.3068ZM109.216 51.5455C109.216 55.26 108.502 58.3397 107.125 60.8284L108.875 61.7966C110.453 58.9444 111.216 55.5127 111.216 51.5455H109.216ZM107.125 60.8284C105.733 63.344 103.865 65.2315 101.518 66.5213L102.482 68.2741C105.18 66.7912 107.312 64.6219 108.875 61.7966L107.125 60.8284ZM101.517 66.5223C99.1663 67.8198 96.5169 68.4773 93.5455 68.4773V70.4773C96.824 70.4773 99.8109 69.7484 102.483 68.2732L101.517 66.5223ZM93.5455 68.4773C90.5634 68.4773 87.9095 67.8144 85.5602 66.5069L84.5875 68.2545C87.261 69.7424 90.2548 70.4773 93.5455 70.4773V68.4773ZM85.5602 66.5069C83.2214 65.2052 81.3573 63.3158 79.9651 60.8098L78.2168 61.7811C79.7791 64.5933 81.9036 66.7607 84.5875 68.2545L85.5602 66.5069ZM79.9675 60.8143C78.6008 58.3245 77.892 55.2492 77.892 51.5455H75.892C75.892 55.5008 76.6492 58.9255 78.2143 61.7767L79.9675 60.8143ZM77.892 51.5455C77.892 47.8297 78.601 44.749 79.9675 42.2596L78.2143 41.2972C76.649 44.1488 75.892 47.5794 75.892 51.5455H77.892ZM79.9659 42.2625C81.3582 39.7458 83.2213 37.8581 85.5572 36.5686L84.5906 34.8177C81.9037 36.301 79.7782 38.4701 78.2159 41.2943L79.9659 42.2625ZM85.5572 36.5686C87.907 35.2714 90.562 34.6136 93.5455 34.6136V32.6136C90.2562 32.6136 87.2635 33.3422 84.5906 34.8177L85.5572 36.5686ZM93.5455 34.6136C96.5169 34.6136 99.1663 35.2711 101.517 36.5686L102.483 34.8177C99.8109 33.3425 96.824 32.6136 93.5455 32.6136V34.6136ZM101.518 36.5696C103.865 37.8594 105.733 39.7469 107.125 42.2625L108.875 41.2943C107.312 38.469 105.18 36.2997 102.482 34.8168L101.518 36.5696ZM107.125 42.2625C108.502 44.7512 109.216 47.8309 109.216 51.5455H111.216C111.216 47.5782 110.453 44.1465 108.875 41.2943L107.125 42.2625ZM102.591 51.5455C102.591 49.1837 102.255 47.1251 101.544 45.4023L99.6951 46.1659C100.279 47.5794 100.591 49.3618 100.591 51.5455H102.591ZM101.546 45.4081C100.847 43.6865 99.8114 42.3264 98.4145 41.3907L97.3014 43.0524C98.3136 43.7304 99.1186 44.7453 99.6927 46.1601L101.546 45.4081ZM98.4181 41.3932C97.0332 40.4568 95.3926 40.0114 93.5455 40.0114V42.0114C95.0619 42.0114 96.2963 42.3728 97.2978 43.05L98.4181 41.3932ZM93.5455 40.0114C91.7078 40.0114 90.0696 40.4576 88.6764 41.3907L89.7895 43.0524C90.8054 42.372 92.0422 42.0114 93.5455 42.0114V40.0114ZM88.6764 41.3907C87.2812 42.3253 86.2403 43.6832 85.5303 45.4023L87.3788 46.1658C87.9642 44.7486 88.7757 43.7315 89.7895 43.0524L88.6764 41.3907ZM85.5279 45.4081C84.8296 47.129 84.5 49.1855 84.5 51.5455H86.5C86.5 49.36 86.8068 47.5755 87.3812 46.1601L85.5279 45.4081ZM84.5 51.5455C84.5 53.9054 84.8296 55.9619 85.5279 57.6828L87.3812 56.9308C86.8068 55.5154 86.5 53.7309 86.5 51.5455H84.5ZM85.5303 57.6886C86.2403 59.4077 87.2812 60.7656 88.6764 61.7002L89.7895 60.0385C88.7757 59.3594 87.9642 58.3423 87.3788 56.9251L85.5303 57.6886ZM88.6764 61.7002C90.0696 62.6333 91.7078 63.0795 93.5455 63.0795V61.0795C92.0422 61.0795 90.8054 60.7189 89.7895 60.0385L88.6764 61.7002ZM93.5455 63.0795C95.3926 63.0795 97.0332 62.6342 98.4181 61.6977L97.2978 60.0409C96.2963 60.7181 95.0619 61.0795 93.5455 61.0795V63.0795ZM98.4145 61.7002C99.8114 60.7645 100.847 59.4044 101.546 57.6828L99.6927 56.9308C99.1186 58.3456 98.3136 59.3605 97.3014 60.0385L98.4145 61.7002ZM101.544 57.6886C102.255 55.9658 102.591 53.9072 102.591 51.5455H100.591C100.591 53.7292 100.279 55.5115 99.6951 56.9251L101.544 57.6886ZM129.92 42.8182H130.92V41.8182H129.92V42.8182ZM129.92 48.9545V49.9545H130.92V48.9545H129.92ZM113.403 48.9545H112.403V49.9545H113.403V48.9545ZM113.403 42.8182V41.8182H112.403V42.8182H113.403ZM116.864 36.5455V35.5455H115.864V36.5455H116.864ZM125.199 36.5455H126.199V35.5455H125.199V36.5455ZM125.438 62.0114L124.543 62.4586L124.553 62.478L124.563 62.497L125.438 62.0114ZM126.17 62.6761L125.777 63.5953L125.791 63.6013L125.805 63.6069L126.17 62.6761ZM128.318 62.7784L128.477 63.7656L128.49 63.7636L128.502 63.7613L128.318 62.7784ZM129.136 62.608L130.115 62.4028L129.902 61.3858L128.894 61.6378L129.136 62.608ZM130.398 68.625L130.672 69.5865L131.567 69.3308L131.376 68.4198L130.398 68.625ZM128.71 69.0511L128.482 68.0775L128.479 68.0783L128.71 69.0511ZM126.136 69.375L126.091 68.376L126.09 68.3761L126.136 69.375ZM121.108 68.6932L120.735 69.6212L120.744 69.6248L121.108 68.6932ZM117.92 66.1023L117.071 66.6301L117.075 66.636L117.92 66.1023ZM116.864 61.6875L117.864 61.7003V61.6875H116.864ZM128.92 42.8182V48.9545H130.92V42.8182H128.92ZM129.92 47.9545H113.403V49.9545H129.92V47.9545ZM114.403 48.9545V42.8182H112.403V48.9545H114.403ZM113.403 43.8182H129.92V41.8182H113.403V43.8182ZM116.864 37.5455H125.199V35.5455H116.864V37.5455ZM124.199 36.5455V60.767H126.199V36.5455H124.199ZM124.199 60.767C124.199 61.3705 124.291 61.9543 124.543 62.4586L126.332 61.5642C126.266 61.432 126.199 61.1864 126.199 60.767H124.199ZM124.563 62.497C124.84 62.9946 125.252 63.3703 125.777 63.5953L126.564 61.757C126.453 61.7092 126.376 61.6417 126.312 61.5257L124.563 62.497ZM125.805 63.6069C126.268 63.789 126.779 63.8636 127.312 63.8636V61.8636C126.959 61.8636 126.709 61.8133 126.536 61.7454L125.805 63.6069ZM127.312 63.8636C127.69 63.8636 128.079 63.83 128.477 63.7656L128.159 61.7912C127.853 61.8405 127.571 61.8636 127.312 61.8636V63.8636ZM128.502 63.7613C128.871 63.6922 129.167 63.631 129.379 63.5781L128.894 61.6378C128.742 61.6758 128.493 61.7282 128.134 61.7955L128.502 63.7613ZM128.158 62.8131L129.419 68.8302L131.376 68.4198L130.115 62.4028L128.158 62.8131ZM130.123 67.6635C129.748 67.7705 129.204 67.9083 128.482 68.0775L128.938 70.0248C129.671 69.853 130.252 69.7067 130.672 69.5865L130.123 67.6635ZM128.479 68.0783C127.841 68.2301 127.049 68.3325 126.091 68.376L126.182 70.374C127.224 70.3266 128.147 70.2131 128.942 70.0239L128.479 68.0783ZM126.09 68.3761C124.235 68.4624 122.706 68.2432 121.471 67.7616L120.744 69.6248C122.306 70.2341 124.129 70.4694 126.183 70.3739L126.09 68.3761ZM121.481 67.7652C120.273 67.2802 119.383 66.5468 118.766 65.5686L117.075 66.636C117.935 67.9987 119.17 68.9925 120.735 69.6211L121.481 67.7652ZM118.77 65.5745C118.168 64.6067 117.843 63.3362 117.864 61.7003L115.864 61.6747C115.839 63.5842 116.218 65.257 117.071 66.63L118.77 65.5745ZM117.864 61.6875V36.5455H115.864V61.6875H117.864ZM143.071 54.0682L142.071 54.0568V54.0682H143.071ZM143.071 69V70H144.071V69H143.071ZM134.736 69H133.736V70H134.736V69ZM134.736 34.0909V33.0909H133.736V34.0909H134.736ZM142.798 34.0909H143.798V33.0909H142.798V34.0909ZM142.798 47.625H141.798V48.625H142.798V47.625ZM143.088 47.625V48.625H143.787L144.027 47.9689L143.088 47.625ZM145.986 43.8409L145.428 43.011L145.425 43.0132L145.986 43.8409ZM155.753 43.7045L155.238 44.5621L155.244 44.5652L155.753 43.7045ZM158.923 47.1307L158.032 47.5834L158.034 47.5888L158.923 47.1307ZM160.048 52.3125L159.048 52.3068V52.3125H160.048ZM160.048 69V70H161.048V69H160.048ZM151.713 69H150.713V70H151.713V69ZM151.713 53.9489L150.713 53.9411V53.9489H151.713ZM150.622 50.5398L149.88 51.2099L150.622 50.5398ZM145.185 49.892L145.679 50.7612L145.684 50.7585L145.185 49.892ZM143.634 51.5114L142.751 51.0415L142.745 51.0527L143.634 51.5114ZM142.071 54.0682V69H144.071V54.0682H142.071ZM143.071 68H134.736V70H143.071V68ZM135.736 69V34.0909H133.736V69H135.736ZM134.736 35.0909H142.798V33.0909H134.736V35.0909ZM141.798 34.0909V47.625H143.798V34.0909H141.798ZM142.798 48.625H143.088V46.625H142.798V48.625ZM144.027 47.9689C144.551 46.5394 145.39 45.4527 146.547 44.6686L145.425 43.0132C143.899 44.0473 142.807 45.4833 142.149 47.2811L144.027 47.9689ZM146.544 44.6708C147.701 43.8931 149.15 43.4773 150.946 43.4773V41.4773C148.833 41.4773 146.976 41.9705 145.428 43.011L146.544 44.6708ZM150.946 43.4773C152.635 43.4773 154.053 43.851 155.238 44.562L156.267 42.8471C154.725 41.9217 152.939 41.4773 150.946 41.4773V43.4773ZM155.244 44.5652C156.436 45.2706 157.364 46.2676 158.032 47.5834L159.815 46.678C158.983 45.0393 157.797 43.7521 156.262 42.8439L155.244 44.5652ZM158.034 47.5888C158.709 48.8978 159.059 50.4603 159.048 52.3068L161.048 52.3182C161.06 50.2101 160.66 48.3181 159.812 46.6726L158.034 47.5888ZM159.048 52.3125V69H161.048V52.3125H159.048ZM160.048 68H151.713V70H160.048V68ZM152.713 69V53.9489H150.713V69H152.713ZM152.713 53.9567C152.726 52.3337 152.319 50.9266 151.364 49.8697L149.88 51.2099C150.403 51.7894 150.723 52.6549 150.713 53.9411L152.713 53.9567ZM151.364 49.8697C150.396 48.7968 149.06 48.3125 147.503 48.3125V50.3125C148.627 50.3125 149.371 50.6464 149.88 51.2099L151.364 49.8697ZM147.503 48.3125C146.476 48.3125 145.527 48.5408 144.685 49.0256L145.684 50.7585C146.184 50.4706 146.78 50.3125 147.503 50.3125V48.3125ZM144.69 49.0229C143.858 49.4966 143.21 50.179 142.751 51.0415L144.516 51.9812C144.807 51.4346 145.194 51.0375 145.679 50.7612L144.69 49.0229ZM142.745 51.0527C142.294 51.927 142.084 52.9407 142.071 54.0568L144.071 54.0795C144.081 53.1956 144.246 52.5048 144.522 51.97L142.745 51.0527ZM170.399 67.875L169.916 68.7506L169.922 68.7539L170.399 67.875ZM165.831 63.2216L164.945 63.6847L164.948 63.6906L165.831 63.2216ZM165.848 48.9205L166.732 49.3874L166.733 49.3854L165.848 48.9205ZM170.365 44.1818L170.866 45.0473L170.87 45.045L170.365 44.1818ZM182.348 43.3466L182.699 42.4103H182.699L182.348 43.3466ZM188.979 50.1307L188.042 50.4811L188.043 50.4832L188.979 50.1307ZM189.916 57.9205V58.9205H190.916V57.9205H189.916ZM167.161 57.9205H166.161V58.9205H167.161V57.9205ZM167.161 53.0795V52.0795H166.161V53.0795H167.161ZM182.161 53.0795V54.0795H183.173L183.16 53.0667L182.161 53.0795ZM179.842 49.0909L179.351 49.9617L179.359 49.9664L179.367 49.9709L179.842 49.0909ZM174.899 49.125L175.384 49.9999L175.394 49.9941L174.899 49.125ZM173.143 50.8125L173.996 51.3351L174 51.329L173.143 50.8125ZM172.462 53.2159L171.462 53.1906L171.462 53.2033V53.2159H172.462ZM173.092 60.9545L172.206 61.4167L172.208 61.4219L173.092 60.9545ZM174.882 62.8125L174.385 63.68H174.385L174.882 62.8125ZM179.655 63.1705L179.976 64.1173L179.655 63.1705ZM181.206 62.267L181.883 63.0026L181.206 62.267ZM182.178 60.8011L182.206 59.8016L181.491 59.7808L181.24 60.452L182.178 60.8011ZM189.831 61.0227L190.814 61.2051L191.027 60.0569L189.86 60.0231L189.831 61.0227ZM187.734 65.5057L186.972 64.8588L186.971 64.8594L187.734 65.5057ZM183.524 68.4545L183.895 69.3835L183.9 69.3813L183.524 68.4545ZM177.49 68.4943C174.883 68.4943 172.691 67.9811 170.876 66.9961L169.922 68.7539C172.085 69.928 174.62 70.4943 177.49 70.4943V68.4943ZM170.882 66.9994C169.076 66.0032 167.692 64.594 166.714 62.7526L164.948 63.6906C166.106 65.8719 167.767 67.565 169.916 68.7506L170.882 66.9994ZM166.717 62.7585C165.75 60.9068 165.246 58.6692 165.246 56.0114H163.246C163.246 58.9217 163.798 61.4909 164.945 63.6847L166.717 62.7585ZM165.246 56.0114C165.246 53.4399 165.753 51.2421 166.732 49.3874L164.964 48.4535C163.807 50.6442 163.246 53.1737 163.246 56.0114H165.246ZM166.733 49.3854C167.716 47.5143 169.09 46.0754 170.866 45.0472L169.864 43.3164C167.754 44.5382 166.116 46.2584 164.963 48.4555L166.733 49.3854ZM170.87 45.045C172.635 44.0126 174.745 43.4773 177.234 43.4773V41.4773C174.451 41.4773 171.981 42.0784 169.86 43.3186L170.87 45.045ZM177.234 43.4773C178.993 43.4773 180.577 43.7506 181.997 44.2829L182.699 42.4103C181.028 41.7835 179.203 41.4773 177.234 41.4773V43.4773ZM181.997 44.2829C183.412 44.8134 184.623 45.5936 185.643 46.624L187.064 45.2169C185.834 43.9746 184.375 43.0388 182.699 42.4103L181.997 44.2829ZM185.643 46.624C186.658 47.6489 187.461 48.9277 188.042 50.4811L189.915 49.7803C189.247 47.9928 188.3 46.4647 187.064 45.2169L185.643 46.624ZM188.043 50.4832C188.618 52.0086 188.916 53.7889 188.916 55.8409H190.916C190.916 53.5975 190.59 51.571 189.914 49.7782L188.043 50.4832ZM188.916 55.8409V57.9205H190.916V55.8409H188.916ZM189.916 56.9205H167.161V58.9205H189.916V56.9205ZM168.161 57.9205V53.0795H166.161V57.9205H168.161ZM167.161 54.0795H182.161V52.0795H167.161V54.0795ZM183.16 53.0667C183.147 52.0241 182.898 51.0603 182.391 50.202L180.669 51.2185C180.98 51.7466 181.151 52.3623 181.161 53.0924L183.16 53.0667ZM182.391 50.202C181.888 49.3503 181.192 48.6827 180.317 48.2109L179.367 49.9709C179.925 50.2718 180.353 50.6838 180.669 51.2185L182.391 50.202ZM180.334 48.2201C179.46 47.7266 178.473 47.4943 177.405 47.4943V49.4943C178.177 49.4943 178.816 49.6598 179.351 49.9617L180.334 48.2201ZM177.405 47.4943C176.317 47.4943 175.308 47.7416 174.404 48.2559L175.394 49.9941C175.967 49.6675 176.629 49.4943 177.405 49.4943V47.4943ZM174.415 48.2502C173.524 48.7432 172.81 49.4286 172.287 50.296L174 51.329C174.34 50.7646 174.797 50.3249 175.384 49.9998L174.415 48.2502ZM172.291 50.2899C171.759 51.1573 171.489 52.1328 171.462 53.1906L173.461 53.2412C173.48 52.5036 173.664 51.8768 173.996 51.3351L172.291 50.2899ZM171.462 53.2159V58.142H173.462V53.2159H171.462ZM171.462 58.142C171.462 59.3431 171.699 60.4443 172.206 61.4167L173.979 60.4924C173.645 59.8512 173.462 59.0773 173.462 58.142H171.462ZM172.208 61.4219C172.716 62.3828 173.446 63.1417 174.385 63.68L175.38 61.945C174.773 61.597 174.309 61.1172 173.976 60.4872L172.208 61.4219ZM174.385 63.68C175.336 64.2258 176.436 64.4773 177.643 64.4773V62.4773C176.715 62.4773 175.973 62.2856 175.38 61.945L174.385 63.68ZM177.643 64.4773C178.474 64.4773 179.255 64.3622 179.976 64.1173L179.333 62.2236C178.85 62.3878 178.29 62.4773 177.643 62.4773V64.4773ZM179.976 64.1173C180.7 63.8717 181.341 63.5025 181.883 63.0026L180.528 61.5315C180.208 61.8271 179.815 62.0601 179.333 62.2236L179.976 64.1173ZM181.883 63.0026C182.437 62.4926 182.847 61.8691 183.115 61.1502L181.24 60.452C181.076 60.8922 180.838 61.2461 180.528 61.5315L181.883 63.0026ZM182.149 61.8007L189.802 62.0223L189.86 60.0231L182.206 59.8016L182.149 61.8007ZM188.848 60.8404C188.56 62.393 187.933 63.7252 186.972 64.8588L188.497 66.1525C189.695 64.7407 190.466 63.0842 190.814 61.2051L188.848 60.8404ZM186.971 64.8594C186.021 65.9815 184.758 66.8757 183.149 67.5277L183.9 69.3813C185.768 68.6243 187.311 67.5526 188.497 66.1519L186.971 64.8594ZM183.154 67.5257C181.556 68.1628 179.674 68.4943 177.49 68.4943V70.4943C179.874 70.4943 182.015 70.1327 183.894 69.3834L183.154 67.5257ZM194.173 69H193.173V70H194.173V69ZM194.173 42.8182V41.8182H193.173V42.8182H194.173ZM202.27 42.8182H203.27V41.8182H202.27V42.8182ZM202.27 47.5909H201.27V48.5909H202.27V47.5909ZM202.543 47.5909V48.5909H203.304L203.507 47.8572L202.543 47.5909ZM204.878 43.7386L205.492 44.5276L205.497 44.5235L204.878 43.7386ZM209.838 42.5455L209.701 43.5359L209.714 43.5378L209.728 43.5393L209.838 42.5455ZM210.98 42.767H211.98V42.0161L211.259 41.8067L210.98 42.767ZM210.98 50.0114L210.656 50.9573L211.98 51.4114V50.0114H210.98ZM209.412 49.6875L209.288 50.6798L209.29 50.68L209.412 49.6875ZM205.031 50.233L205.514 51.1089L205.518 51.1065L205.031 50.233ZM203.173 52.0568L202.308 51.5553L202.306 51.5593L203.173 52.0568ZM202.509 69V70H203.509V69H202.509ZM195.173 69V42.8182H193.173V69H195.173ZM194.173 43.8182H202.27V41.8182H194.173V43.8182ZM201.27 42.8182V47.5909H203.27V42.8182H201.27ZM202.27 48.5909H202.543V46.5909H202.27V48.5909ZM203.507 47.8572C203.944 46.2732 204.628 45.2006 205.492 44.5275L204.263 42.9497C202.968 43.9584 202.096 45.4541 201.579 47.3246L203.507 47.8572ZM205.497 44.5235C206.393 43.8166 207.428 43.4602 208.645 43.4602V41.4602C206.998 41.4602 205.522 41.9561 204.258 42.9538L205.497 44.5235ZM208.645 43.4602C208.982 43.4602 209.334 43.485 209.701 43.5359L209.976 41.555C209.524 41.4922 209.08 41.4602 208.645 41.4602V43.4602ZM209.728 43.5393C210.087 43.5792 210.41 43.6429 210.701 43.7274L211.259 41.8067C210.845 41.6866 210.408 41.6026 209.949 41.5516L209.728 43.5393ZM209.98 42.767V50.0114H211.98V42.767H209.98ZM211.304 49.0654C210.815 48.8978 210.217 48.7789 209.534 48.695L209.29 50.68C209.902 50.7552 210.349 50.8522 210.656 50.9573L211.304 49.0654ZM209.536 48.6952C208.869 48.6119 208.259 48.5682 207.707 48.5682V50.5682C208.156 50.5682 208.682 50.604 209.288 50.6798L209.536 48.6952ZM207.707 48.5682C206.563 48.5682 205.501 48.8263 204.545 49.3594L205.518 51.1065C206.152 50.7533 206.874 50.5682 207.707 50.5682V48.5682ZM204.549 49.357C203.603 49.8777 202.853 50.616 202.308 51.5553L204.038 52.5583C204.403 51.9295 204.891 51.4519 205.514 51.1089L204.549 49.357ZM202.306 51.5593C201.762 52.5079 201.509 53.5946 201.509 54.7841H203.509C203.509 53.8827 203.698 53.1512 204.041 52.5543L202.306 51.5593ZM201.509 54.7841V69H203.509V54.7841H201.509ZM202.509 68H194.173V70H202.509V68Z" fill="black" fill-opacity="0.2" mask="url(#path-1-outside-1_66_92)"/>
</g>
<a href="https://raw.githubusercontent.com/pkasaragod24/Brand_Images/refs/heads/main/TWB.svg?token=GHSAT0AAAAAADAURL55YRDVRZNFNQ3S52GMZ6YAJ7Q">
<rect fill="black" fill-opacity="0" y="-0.0454559" width="211.747" height="58.0909"/>
</a>
</g>
<defs>
<filter id="filter0_dd_66_92" x="-4.26758" y="32.6136" width="220.248" height="45.8807" filterUnits="userSpaceOnUse" color-interpolation-filters="sRGB">
<feFlood flood-opacity="0" result="BackgroundImageFix"/>
<feColorMatrix in="SourceAlpha" type="matrix" values="0 0 0 0 0 0 0 0 0 0 0 0 0 0 0 0 0 0 127 0" result="hardAlpha"/>
<feOffset dy="4"/>
<feGaussianBlur stdDeviation="2"/>
<feComposite in2="hardAlpha" operator="out"/>
<feColorMatrix type="matrix" values="0 0 0 0 0 0 0 0 0 0 0 0 0 0 0 0 0 0 0.25 0"/>
<feBlend mode="normal" in2="BackgroundImageFix" result="effect1_dropShadow_66_92"/>
<feColorMatrix in="SourceAlpha" type="matrix" values="0 0 0 0 0 0 0 0 0 0 0 0 0 0 0 0 0 0 127 0" result="hardAlpha"/>
<feOffset dy="4"/>
<feGaussianBlur stdDeviation="2"/>
<feComposite in2="hardAlpha" operator="out"/>
<feColorMatrix type="matrix" values="0 0 0 0 0 0 0 0 0 0 0 0 0 0 0 0 0 0 0.25 0"/>
<feBlend mode="normal" in2="effect1_dropShadow_66_92" result="effect2_dropShadow_66_92"/>
<feBlend mode="normal" in="SourceGraphic" in2="effect2_dropShadow_66_92" result="shape"/>
</filter>
<clipPath id="clip0_66_92">
<rect width="322" height="117" fill="white"/>
</clipPath>
</defs>
</svg>
