<svg width="322" height="117" viewBox="0 0 322 117" fill="none" xmlns="http://www.w3.org/2000/svg">
<g clip-path="url(#clip0_138_518)">
<rect width="322" height="117" fill="white"/>
<g filter="url(#filter0_dd_138_518)">
<mask id="path-1-outside-1_138_518" maskUnits="userSpaceOnUse" x="1" y="33" width="107" height="38" fill="black">
<rect fill="white" x="1" y="33" width="107" height="38"/>
<path d="M2.64205 69V34.0909H17.1989C19.8125 34.0909 22 34.4602 23.7614 35.1989C25.5341 35.9375 26.8636 36.9716 27.75 38.3011C28.6477 39.6307 29.0966 41.1705 29.0966 42.9205C29.0966 44.25 28.8182 45.4375 28.2614 46.483C27.7045 47.517 26.9375 48.375 25.9602 49.0568C24.983 49.7386 23.8523 50.2159 22.5682 50.4886V50.8295C23.9773 50.8977 25.2784 51.2784 26.4716 51.9716C27.6761 52.6648 28.642 53.6307 29.3693 54.8693C30.0966 56.0966 30.4602 57.5511 30.4602 59.233C30.4602 61.108 29.983 62.7841 29.0284 64.2614C28.0739 65.7273 26.6932 66.8864 24.8864 67.7386C23.0795 68.5795 20.8864 69 18.3068 69H2.64205ZM11.0795 62.1989H16.2955C18.125 62.1989 19.4716 61.8523 20.3352 61.1591C21.2102 60.4659 21.6477 59.5 21.6477 58.2614C21.6477 57.3636 21.4375 56.5909 21.017 55.9432C20.5966 55.2841 20 54.7784 19.2273 54.4261C18.4545 54.0625 17.5284 53.8807 16.4489 53.8807H11.0795V62.1989ZM11.0795 48.4432H15.75C16.6705 48.4432 17.4886 48.2898 18.2045 47.983C18.9205 47.6761 19.4773 47.233 19.875 46.6534C20.2841 46.0739 20.4886 45.375 20.4886 44.5568C20.4886 43.3864 20.0739 42.4659 19.2443 41.7955C18.4148 41.125 17.2955 40.7898 15.8864 40.7898H11.0795V48.4432ZM41.8977 69.4432C40.2273 69.4432 38.7443 69.1648 37.4489 68.608C36.1648 68.0398 35.1477 67.1875 34.3977 66.0511C33.6591 64.9034 33.2898 63.4659 33.2898 61.7386C33.2898 60.2841 33.5455 59.0568 34.0568 58.0568C34.5682 57.0568 35.2727 56.2443 36.1705 55.6193C37.0682 54.9943 38.1023 54.5227 39.2727 54.2045C40.4432 53.875 41.6932 53.6534 43.0227 53.5398C44.5114 53.4034 45.7102 53.2614 46.6193 53.1136C47.5284 52.9545 48.1875 52.733 48.5966 52.4489C49.017 52.1534 49.2273 51.7386 49.2273 51.2045V51.1193C49.2273 50.2443 48.9261 49.5682 48.3239 49.0909C47.7216 48.6136 46.9091 48.375 45.8864 48.375C44.7841 48.375 43.8977 48.6136 43.2273 49.0909C42.5568 49.5682 42.1307 50.2273 41.9489 51.0682L34.2614 50.7955C34.4886 49.2045 35.0739 47.7841 36.017 46.5341C36.9716 45.2727 38.2784 44.2841 39.9375 43.5682C41.608 42.8409 43.6136 42.4773 45.9545 42.4773C47.625 42.4773 49.1648 42.6761 50.5739 43.0739C51.983 43.4602 53.2102 44.0284 54.2557 44.7784C55.3011 45.517 56.108 46.4261 56.6761 47.5057C57.2557 48.5852 57.5455 49.8182 57.5455 51.2045V69H49.7045V65.3523H49.5C49.0341 66.2386 48.4375 66.9886 47.7102 67.6023C46.9943 68.2159 46.1477 68.6761 45.1705 68.983C44.2045 69.2898 43.1136 69.4432 41.8977 69.4432ZM44.4716 63.9886C45.3693 63.9886 46.1761 63.8068 46.892 63.4432C47.6193 63.0795 48.1989 62.5795 48.6307 61.9432C49.0625 61.2955 49.2784 60.5455 49.2784 59.6932V57.2045C49.0398 57.3295 48.75 57.4432 48.4091 57.5455C48.0795 57.6477 47.7159 57.7443 47.3182 57.8352C46.9205 57.9261 46.5114 58.0057 46.0909 58.0739C45.6705 58.142 45.267 58.2045 44.8807 58.2614C44.0966 58.3864 43.4261 58.5795 42.8693 58.8409C42.3239 59.1023 41.9034 59.4432 41.608 59.8636C41.3239 60.2727 41.1818 60.7614 41.1818 61.3295C41.1818 62.1932 41.4886 62.8523 42.1023 63.3068C42.7273 63.7614 43.517 63.9886 44.4716 63.9886ZM62.642 69V42.8182H70.7386V47.5909H71.0114C71.4886 45.8636 72.267 44.5795 73.3466 43.7386C74.4261 42.8864 75.6818 42.4602 77.1136 42.4602C77.5 42.4602 77.8977 42.4886 78.3068 42.5455C78.7159 42.5909 79.0966 42.6648 79.4489 42.767V50.0114C79.0511 49.875 78.5284 49.767 77.8807 49.6875C77.2443 49.608 76.6761 49.5682 76.1761 49.5682C75.1875 49.5682 74.2955 49.7898 73.5 50.233C72.7159 50.6648 72.0966 51.2727 71.642 52.0568C71.1989 52.8295 70.9773 53.7386 70.9773 54.7841V69H62.642ZM93.7244 69.4943C90.9858 69.4943 88.6222 68.9545 86.6335 67.875C84.6563 66.7841 83.1335 65.233 82.0653 63.2216C81.0085 61.1989 80.4801 58.7955 80.4801 56.0114C80.4801 53.3068 81.0142 50.9432 82.0824 48.9205C83.1506 46.8864 84.6562 45.3068 86.5994 44.1818C88.5426 43.0455 90.8324 42.4773 93.4688 42.4773C95.3324 42.4773 97.0369 42.767 98.5824 43.3466C100.128 43.9261 101.463 44.7841 102.588 45.9205C103.713 47.0568 104.588 48.4602 105.213 50.1307C105.838 51.7898 106.151 53.6932 106.151 55.8409V57.9205H83.3949V53.0795H98.3949C98.3835 52.1932 98.1733 51.4034 97.7642 50.7102C97.3551 50.017 96.7926 49.4773 96.0767 49.0909C95.3722 48.6932 94.5597 48.4943 93.6392 48.4943C92.7074 48.4943 91.8722 48.7045 91.1335 49.125C90.3949 49.5341 89.8097 50.0966 89.3778 50.8125C88.946 51.517 88.7188 52.3182 88.696 53.2159V58.142C88.696 59.2102 88.9063 60.1477 89.3267 60.9545C89.7472 61.75 90.3438 62.3693 91.1165 62.8125C91.8892 63.2557 92.8097 63.4773 93.8778 63.4773C94.6165 63.4773 95.2869 63.375 95.8892 63.1705C96.4915 62.9659 97.0085 62.6648 97.4403 62.267C97.8722 61.8693 98.196 61.3807 98.4119 60.8011L106.065 61.0227C105.747 62.7386 105.048 64.233 103.969 65.5057C102.901 66.767 101.497 67.75 99.7585 68.4545C98.0199 69.1477 96.0085 69.4943 93.7244 69.4943Z"/>
</mask>
<path d="M2.64205 69V34.0909H17.1989C19.8125 34.0909 22 34.4602 23.7614 35.1989C25.5341 35.9375 26.8636 36.9716 27.75 38.3011C28.6477 39.6307 29.0966 41.1705 29.0966 42.9205C29.0966 44.25 28.8182 45.4375 28.2614 46.483C27.7045 47.517 26.9375 48.375 25.9602 49.0568C24.983 49.7386 23.8523 50.2159 22.5682 50.4886V50.8295C23.9773 50.8977 25.2784 51.2784 26.4716 51.9716C27.6761 52.6648 28.642 53.6307 29.3693 54.8693C30.0966 56.0966 30.4602 57.5511 30.4602 59.233C30.4602 61.108 29.983 62.7841 29.0284 64.2614C28.0739 65.7273 26.6932 66.8864 24.8864 67.7386C23.0795 68.5795 20.8864 69 18.3068 69H2.64205ZM11.0795 62.1989H16.2955C18.125 62.1989 19.4716 61.8523 20.3352 61.1591C21.2102 60.4659 21.6477 59.5 21.6477 58.2614C21.6477 57.3636 21.4375 56.5909 21.017 55.9432C20.5966 55.2841 20 54.7784 19.2273 54.4261C18.4545 54.0625 17.5284 53.8807 16.4489 53.8807H11.0795V62.1989ZM11.0795 48.4432H15.75C16.6705 48.4432 17.4886 48.2898 18.2045 47.983C18.9205 47.6761 19.4773 47.233 19.875 46.6534C20.2841 46.0739 20.4886 45.375 20.4886 44.5568C20.4886 43.3864 20.0739 42.4659 19.2443 41.7955C18.4148 41.125 17.2955 40.7898 15.8864 40.7898H11.0795V48.4432ZM41.8977 69.4432C40.2273 69.4432 38.7443 69.1648 37.4489 68.608C36.1648 68.0398 35.1477 67.1875 34.3977 66.0511C33.6591 64.9034 33.2898 63.4659 33.2898 61.7386C33.2898 60.2841 33.5455 59.0568 34.0568 58.0568C34.5682 57.0568 35.2727 56.2443 36.1705 55.6193C37.0682 54.9943 38.1023 54.5227 39.2727 54.2045C40.4432 53.875 41.6932 53.6534 43.0227 53.5398C44.5114 53.4034 45.7102 53.2614 46.6193 53.1136C47.5284 52.9545 48.1875 52.733 48.5966 52.4489C49.017 52.1534 49.2273 51.7386 49.2273 51.2045V51.1193C49.2273 50.2443 48.9261 49.5682 48.3239 49.0909C47.7216 48.6136 46.9091 48.375 45.8864 48.375C44.7841 48.375 43.8977 48.6136 43.2273 49.0909C42.5568 49.5682 42.1307 50.2273 41.9489 51.0682L34.2614 50.7955C34.4886 49.2045 35.0739 47.7841 36.017 46.5341C36.9716 45.2727 38.2784 44.2841 39.9375 43.5682C41.608 42.8409 43.6136 42.4773 45.9545 42.4773C47.625 42.4773 49.1648 42.6761 50.5739 43.0739C51.983 43.4602 53.2102 44.0284 54.2557 44.7784C55.3011 45.517 56.108 46.4261 56.6761 47.5057C57.2557 48.5852 57.5455 49.8182 57.5455 51.2045V69H49.7045V65.3523H49.5C49.0341 66.2386 48.4375 66.9886 47.7102 67.6023C46.9943 68.2159 46.1477 68.6761 45.1705 68.983C44.2045 69.2898 43.1136 69.4432 41.8977 69.4432ZM44.4716 63.9886C45.3693 63.9886 46.1761 63.8068 46.892 63.4432C47.6193 63.0795 48.1989 62.5795 48.6307 61.9432C49.0625 61.2955 49.2784 60.5455 49.2784 59.6932V57.2045C49.0398 57.3295 48.75 57.4432 48.4091 57.5455C48.0795 57.6477 47.7159 57.7443 47.3182 57.8352C46.9205 57.9261 46.5114 58.0057 46.0909 58.0739C45.6705 58.142 45.267 58.2045 44.8807 58.2614C44.0966 58.3864 43.4261 58.5795 42.8693 58.8409C42.3239 59.1023 41.9034 59.4432 41.608 59.8636C41.3239 60.2727 41.1818 60.7614 41.1818 61.3295C41.1818 62.1932 41.4886 62.8523 42.1023 63.3068C42.7273 63.7614 43.517 63.9886 44.4716 63.9886ZM62.642 69V42.8182H70.7386V47.5909H71.0114C71.4886 45.8636 72.267 44.5795 73.3466 43.7386C74.4261 42.8864 75.6818 42.4602 77.1136 42.4602C77.5 42.4602 77.8977 42.4886 78.3068 42.5455C78.7159 42.5909 79.0966 42.6648 79.4489 42.767V50.0114C79.0511 49.875 78.5284 49.767 77.8807 49.6875C77.2443 49.608 76.6761 49.5682 76.1761 49.5682C75.1875 49.5682 74.2955 49.7898 73.5 50.233C72.7159 50.6648 72.0966 51.2727 71.642 52.0568C71.1989 52.8295 70.9773 53.7386 70.9773 54.7841V69H62.642ZM93.7244 69.4943C90.9858 69.4943 88.6222 68.9545 86.6335 67.875C84.6563 66.7841 83.1335 65.233 82.0653 63.2216C81.0085 61.1989 80.4801 58.7955 80.4801 56.0114C80.4801 53.3068 81.0142 50.9432 82.0824 48.9205C83.1506 46.8864 84.6562 45.3068 86.5994 44.1818C88.5426 43.0455 90.8324 42.4773 93.4688 42.4773C95.3324 42.4773 97.0369 42.767 98.5824 43.3466C100.128 43.9261 101.463 44.7841 102.588 45.9205C103.713 47.0568 104.588 48.4602 105.213 50.1307C105.838 51.7898 106.151 53.6932 106.151 55.8409V57.9205H83.3949V53.0795H98.3949C98.3835 52.1932 98.1733 51.4034 97.7642 50.7102C97.3551 50.017 96.7926 49.4773 96.0767 49.0909C95.3722 48.6932 94.5597 48.4943 93.6392 48.4943C92.7074 48.4943 91.8722 48.7045 91.1335 49.125C90.3949 49.5341 89.8097 50.0966 89.3778 50.8125C88.946 51.517 88.7188 52.3182 88.696 53.2159V58.142C88.696 59.2102 88.9063 60.1477 89.3267 60.9545C89.7472 61.75 90.3438 62.3693 91.1165 62.8125C91.8892 63.2557 92.8097 63.4773 93.8778 63.4773C94.6165 63.4773 95.2869 63.375 95.8892 63.1705C96.4915 62.9659 97.0085 62.6648 97.4403 62.267C97.8722 61.8693 98.196 61.3807 98.4119 60.8011L106.065 61.0227C105.747 62.7386 105.048 64.233 103.969 65.5057C102.901 66.767 101.497 67.75 99.7585 68.4545C98.0199 69.1477 96.0085 69.4943 93.7244 69.4943Z" fill="#002855"/>
<path d="M2.64205 69H1.64205V70H2.64205V69ZM2.64205 34.0909V33.0909H1.64205V34.0909H2.64205ZM23.7614 35.1989L23.3746 36.1211L23.3767 36.1219L23.7614 35.1989ZM27.75 38.3011L26.9179 38.8558L26.9212 38.8607L27.75 38.3011ZM28.2614 46.483L29.1418 46.9571L29.144 46.953L28.2614 46.483ZM25.9602 49.0568L25.388 48.2367L25.388 48.2367L25.9602 49.0568ZM22.5682 50.4886L22.3604 49.5105L21.5682 49.6787V50.4886H22.5682ZM22.5682 50.8295H21.5682V51.7823L22.5199 51.8284L22.5682 50.8295ZM26.4716 51.9716L25.9693 52.8363L25.9728 52.8383L26.4716 51.9716ZM29.3693 54.8693L28.507 55.3756L28.509 55.3791L29.3693 54.8693ZM29.0284 64.2614L29.8664 64.807L29.8683 64.8041L29.0284 64.2614ZM24.8864 67.7386L25.3083 68.6453L25.313 68.6431L24.8864 67.7386ZM11.0795 62.1989H10.0795V63.1989H11.0795V62.1989ZM20.3352 61.1591L19.7143 60.3752L19.7093 60.3792L20.3352 61.1591ZM21.017 55.9432L20.174 56.481L20.1783 56.4877L21.017 55.9432ZM19.2273 54.4261L18.8014 55.331L18.8125 55.336L19.2273 54.4261ZM11.0795 53.8807V52.8807H10.0795V53.8807H11.0795ZM11.0795 48.4432H10.0795V49.4432H11.0795V48.4432ZM19.875 46.6534L19.058 46.0767L19.0505 46.0876L19.875 46.6534ZM19.2443 41.7955L19.8729 41.0177L19.8729 41.0177L19.2443 41.7955ZM11.0795 40.7898V39.7898H10.0795V40.7898H11.0795ZM3.64205 69V34.0909H1.64205V69H3.64205ZM2.64205 35.0909H17.1989V33.0909H2.64205V35.0909ZM17.1989 35.0909C19.7256 35.0909 21.7719 35.4489 23.3746 36.1211L24.1481 34.2767C22.2281 33.4715 19.8994 33.0909 17.1989 33.0909V35.0909ZM23.3767 36.1219C25.0046 36.8002 26.1616 37.7212 26.9179 38.8558L28.5821 37.7464C27.5657 36.2219 26.0636 35.0748 24.146 34.2758L23.3767 36.1219ZM26.9212 38.8607C27.6972 40.01 28.0966 41.3509 28.0966 42.9205H30.0966C30.0966 40.99 29.5982 39.2514 28.5788 37.7415L26.9212 38.8607ZM28.0966 42.9205C28.0966 44.1064 27.8495 45.1291 27.3787 46.0129L29.144 46.953C29.7869 45.7459 30.0966 44.3936 30.0966 42.9205H28.0966ZM27.3809 46.0089C26.8994 46.903 26.2388 47.6431 25.388 48.2367L26.5324 49.8769C27.6362 49.1069 28.5097 48.1311 29.1418 46.9571L27.3809 46.0089ZM25.388 48.2367C24.5311 48.8345 23.5271 49.2627 22.3604 49.5105L22.7759 51.4668C24.1775 51.1691 25.4348 50.6427 26.5324 49.8769L25.388 48.2367ZM21.5682 50.4886V50.8295H23.5682V50.4886H21.5682ZM22.5199 51.8284C23.7728 51.889 24.9177 52.2253 25.9693 52.8363L26.9739 51.1069C25.6392 50.3315 24.1818 49.9065 22.6165 49.8307L22.5199 51.8284ZM25.9728 52.8383C27.0218 53.442 27.8645 54.2814 28.507 55.3756L30.2317 54.363C29.4196 52.9799 28.3305 51.8876 26.9704 51.1049L25.9728 52.8383ZM28.509 55.3791C29.1296 56.4264 29.4602 57.6981 29.4602 59.233H31.4602C31.4602 57.4041 31.0635 55.7668 30.2296 54.3595L28.509 55.3791ZM29.4602 59.233C29.4602 60.9287 29.0315 62.4139 28.1885 63.7186L29.8683 64.8041C30.9344 63.1543 31.4602 61.2872 31.4602 59.233H29.4602ZM28.1904 63.7157C27.3508 65.0051 26.1232 66.0496 24.4597 66.8342L25.313 68.6431C27.2632 67.7232 28.7969 66.4495 29.8664 64.807L28.1904 63.7157ZM24.4644 66.832C22.8226 67.5961 20.7818 68 18.3068 68V70C20.9909 70 23.3364 69.563 25.3083 68.6453L24.4644 66.832ZM18.3068 68H2.64205V70H18.3068V68ZM11.0795 63.1989H16.2955V61.1989H11.0795V63.1989ZM16.2955 63.1989C18.2159 63.1989 19.8367 62.8415 20.9612 61.939L19.7093 60.3792C19.1065 60.8631 18.0341 61.1989 16.2955 61.1989V63.1989ZM20.9562 61.9429C22.099 61.0376 22.6477 59.7673 22.6477 58.2614H20.6477C20.6477 59.2327 20.3214 59.8942 19.7143 60.3753L20.9562 61.9429ZM22.6477 58.2614C22.6477 57.2025 22.3977 56.2335 21.8558 55.3987L20.1783 56.4877C20.4773 56.9483 20.6477 57.5248 20.6477 58.2614H22.6477ZM21.8601 55.4054C21.3269 54.5695 20.5747 53.9414 19.6421 53.5162L18.8125 55.336C19.4253 55.6154 19.8663 55.9987 20.174 56.481L21.8601 55.4054ZM19.6531 53.5213C18.7168 53.0807 17.6379 52.8807 16.4489 52.8807V54.8807C17.4189 54.8807 18.1923 55.0443 18.8015 55.331L19.6531 53.5213ZM16.4489 52.8807H11.0795V54.8807H16.4489V52.8807ZM10.0795 53.8807V62.1989H12.0795V53.8807H10.0795ZM11.0795 49.4432H15.75V47.4432H11.0795V49.4432ZM15.75 49.4432C16.7816 49.4432 17.7376 49.271 18.5985 48.9021L17.8106 47.0638C17.2397 47.3085 16.5593 47.4432 15.75 47.4432V49.4432ZM18.5985 48.9021C19.469 48.529 20.1832 47.9715 20.6995 47.2192L19.0505 46.0876C18.7713 46.4944 18.3719 46.8233 17.8106 47.0638L18.5985 48.9021ZM20.692 47.2301C21.2377 46.4569 21.4886 45.5488 21.4886 44.5568H19.4886C19.4886 45.2012 19.3304 45.6908 19.058 46.0767L20.692 47.2301ZM21.4886 44.5568C21.4886 43.1178 20.9622 41.8981 19.8729 41.0177L18.6157 42.5732C19.1855 43.0337 19.4886 43.6549 19.4886 44.5568H21.4886ZM19.8729 41.0177C18.8154 40.163 17.4504 39.7898 15.8864 39.7898V41.7898C17.1405 41.7898 18.0141 42.087 18.6157 42.5732L19.8729 41.0177ZM15.8864 39.7898H11.0795V41.7898H15.8864V39.7898ZM10.0795 40.7898V48.4432H12.0795V40.7898H10.0795ZM37.4489 68.608L37.0442 69.5225L37.054 69.5267L37.4489 68.608ZM34.3977 66.0511L33.5568 66.5924L33.5631 66.602L34.3977 66.0511ZM34.0568 58.0568L33.1665 57.6015L33.1665 57.6015L34.0568 58.0568ZM36.1705 55.6193L36.7418 56.44L36.7418 56.44L36.1705 55.6193ZM39.2727 54.2045L39.5351 55.1696L39.5437 55.1671L39.2727 54.2045ZM43.0227 53.5398L43.1079 54.5362L43.1139 54.5356L43.0227 53.5398ZM46.6193 53.1136L46.7797 54.1008L46.7917 54.0987L46.6193 53.1136ZM48.5966 52.4489L49.167 53.2702L49.1715 53.2671L48.5966 52.4489ZM48.3239 49.0909L48.9449 48.3072L48.9449 48.3072L48.3239 49.0909ZM43.2273 49.0909L42.6473 48.2762L42.6473 48.2762L43.2273 49.0909ZM41.9489 51.0682L41.9134 52.0676L42.7495 52.0972L42.9263 51.2795L41.9489 51.0682ZM34.2614 50.7955L33.2714 50.654L33.1141 51.7554L34.2259 51.7948L34.2614 50.7955ZM36.017 46.5341L35.2196 45.9306L35.2188 45.9318L36.017 46.5341ZM39.9375 43.5682L40.3337 44.4864L40.3367 44.4851L39.9375 43.5682ZM50.5739 43.0739L50.3022 44.0363L50.3094 44.0383L50.5739 43.0739ZM54.2557 44.7784L53.6728 45.591L53.6787 45.5951L54.2557 44.7784ZM56.6761 47.5057L55.7912 47.9714L55.7951 47.9787L56.6761 47.5057ZM57.5455 69V70H58.5455V69H57.5455ZM49.7045 69H48.7045V70H49.7045V69ZM49.7045 65.3523H50.7045V64.3523H49.7045V65.3523ZM49.5 65.3523V64.3523H48.8959L48.6148 64.887L49.5 65.3523ZM47.7102 67.6023L47.0653 66.838L47.0594 66.843L47.7102 67.6023ZM45.1705 68.983L44.8709 68.0289L44.8677 68.0299L45.1705 68.983ZM46.892 63.4432L46.4448 62.5487L46.4392 62.5516L46.892 63.4432ZM48.6307 61.9432L49.4582 62.5047L49.4627 62.4979L48.6307 61.9432ZM49.2784 57.2045H50.2784V55.5519L48.8144 56.3187L49.2784 57.2045ZM48.4091 57.5455L48.1217 56.5876L48.1127 56.5904L48.4091 57.5455ZM46.0909 58.0739L46.251 59.061L46.251 59.061L46.0909 58.0739ZM44.8807 58.2614L44.7352 57.2719L44.7233 57.2738L44.8807 58.2614ZM42.8693 58.8409L42.4444 57.9356L42.4372 57.9391L42.8693 58.8409ZM41.608 59.8636L40.7898 59.2887L40.7866 59.2932L41.608 59.8636ZM42.1023 63.3068L41.507 64.1104L41.5141 64.1156L42.1023 63.3068ZM41.8977 68.4432C40.3384 68.4432 38.9936 68.1835 37.8438 67.6892L37.054 69.5267C38.495 70.1461 40.1162 70.4432 41.8977 70.4432V68.4432ZM37.8535 67.6935C36.7388 67.2003 35.8734 66.4716 35.2323 65.5003L33.5631 66.602C34.4221 67.9034 35.5907 68.8793 37.0442 69.5224L37.8535 67.6935ZM35.2386 65.51C34.6282 64.5615 34.2898 63.3246 34.2898 61.7386H32.2898C32.2898 63.6072 32.6899 65.2453 33.5568 66.5923L35.2386 65.51ZM34.2898 61.7386C34.2898 60.3972 34.526 59.3358 34.9472 58.5121L33.1665 57.6015C32.565 58.7778 32.2898 60.171 32.2898 61.7386H34.2898ZM34.9472 58.5121C35.3859 57.6542 35.9825 56.9687 36.7418 56.44L35.5991 54.7986C34.563 55.52 33.7505 56.4595 33.1665 57.6015L34.9472 58.5121ZM36.7418 56.44C37.5359 55.8872 38.4631 55.4609 39.5351 55.1695L39.0104 53.2396C37.7414 53.5845 36.6005 54.1015 35.5991 54.7986L36.7418 56.44ZM39.5437 55.1671C40.6479 54.8562 41.8352 54.6449 43.1079 54.5361L42.9376 52.5434C41.5512 52.6619 40.2385 52.8938 39.0017 53.242L39.5437 55.1671ZM43.1139 54.5356C44.6134 54.3982 45.8381 54.2537 46.7797 54.1007L46.4589 52.1266C45.5824 52.269 44.4093 52.4086 42.9315 52.5439L43.1139 54.5356ZM46.7917 54.0987C47.7422 53.9323 48.576 53.6807 49.167 53.2702L48.0262 51.6275C47.799 51.7852 47.3147 51.9768 46.4469 52.1286L46.7917 54.0987ZM49.1715 53.2671C49.8707 52.7758 50.2273 52.0491 50.2273 51.2045H48.2273C48.2273 51.4282 48.1634 51.531 48.0216 51.6307L49.1715 53.2671ZM50.2273 51.2045V51.1193H48.2273V51.2045H50.2273ZM50.2273 51.1193C50.2273 49.9868 49.8218 49.002 48.9449 48.3072L47.7028 49.8747C48.0305 50.1344 48.2273 50.5018 48.2273 51.1193H50.2273ZM48.9449 48.3072C48.1152 47.6496 47.0599 47.375 45.8864 47.375V49.375C46.7582 49.375 47.328 49.5776 47.7028 49.8747L48.9449 48.3072ZM45.8864 47.375C44.6457 47.375 43.5361 47.6435 42.6473 48.2762L43.8072 49.9056C44.2593 49.5837 44.9224 49.375 45.8864 49.375V47.375ZM42.6473 48.2762C41.7639 48.9051 41.2033 49.7845 40.9715 50.8568L42.9263 51.2795C43.058 50.6701 43.3497 50.2312 43.8072 49.9056L42.6473 48.2762ZM41.9843 50.0688L34.2968 49.7961L34.2259 51.7948L41.9134 52.0676L41.9843 50.0688ZM35.2513 50.9369C35.4553 49.5087 35.9767 48.2478 36.8153 47.1364L35.2188 45.9318C34.171 47.3204 33.5219 48.9003 33.2714 50.654L35.2513 50.9369ZM36.8145 47.1375C37.6506 46.0326 38.8104 45.1437 40.3337 44.4863L39.5413 42.65C37.7464 43.4245 36.2926 44.5129 35.2196 45.9306L36.8145 47.1375ZM40.3367 44.4851C41.8508 43.8258 43.7134 43.4773 45.9545 43.4773V41.4773C43.5138 41.4773 41.3651 41.856 39.5383 42.6513L40.3367 44.4851ZM45.9545 43.4773C47.5458 43.4773 48.9929 43.6667 50.3022 44.0363L50.8455 42.1115C49.3366 41.6856 47.7042 41.4773 45.9545 41.4773V43.4773ZM50.3094 44.0383C51.6195 44.3975 52.7358 44.9187 53.6728 45.5909L54.8386 43.9659C53.6847 43.1381 52.3464 42.523 50.8383 42.1095L50.3094 44.0383ZM53.6787 45.5951C54.6018 46.2473 55.3002 47.0385 55.7912 47.9714L57.5611 47.0399C56.9157 45.8138 56.0005 44.7868 54.8327 43.9617L53.6787 45.5951ZM55.7951 47.9787C56.2868 48.8946 56.5455 49.9613 56.5455 51.2045H58.5455C58.5455 49.6751 58.2246 48.2759 57.5572 47.0327L55.7951 47.9787ZM56.5455 51.2045V69H58.5455V51.2045H56.5455ZM57.5455 68H49.7045V70H57.5455V68ZM50.7045 69V65.3523H48.7045V69H50.7045ZM49.7045 64.3523H49.5V66.3523H49.7045V64.3523ZM48.6148 64.887C48.2058 65.6652 47.6889 66.3119 47.0654 66.838L48.3551 68.3666C49.1861 67.6654 49.8624 66.8121 50.3852 65.8176L48.6148 64.887ZM47.0594 66.843C46.4548 67.3613 45.7304 67.759 44.8709 68.0289L45.47 69.937C46.5651 69.5932 47.5338 69.0706 48.361 68.3615L47.0594 66.843ZM44.8677 68.0299C44.017 68.3001 43.0308 68.4432 41.8977 68.4432V70.4432C43.1965 70.4432 44.3921 70.2794 45.4732 69.936L44.8677 68.0299ZM44.4716 64.9886C45.5079 64.9886 46.4728 64.7777 47.3449 64.3348L46.4392 62.5516C45.8794 62.8359 45.2307 62.9886 44.4716 62.9886V64.9886ZM47.3393 64.3376C48.2106 63.9019 48.9246 63.2909 49.4582 62.5047L47.8032 61.3817C47.4731 61.8682 47.028 62.2572 46.4448 62.5488L47.3393 64.3376ZM49.4627 62.4979C50.0144 61.6704 50.2784 60.7234 50.2784 59.6932H48.2784C48.2784 60.3675 48.1106 60.9205 47.7986 61.3885L49.4627 62.4979ZM50.2784 59.6932V57.2045H48.2784V59.6932H50.2784ZM48.8144 56.3187C48.6469 56.4065 48.4198 56.4982 48.1217 56.5876L48.6964 58.5033C49.0802 58.3881 49.4327 58.2526 49.7424 58.0904L48.8144 56.3187ZM48.1127 56.5904C47.8113 56.6839 47.4726 56.7741 47.0954 56.8604L47.541 58.8101C47.9592 58.7145 48.3478 58.6115 48.7055 58.5005L48.1127 56.5904ZM47.0954 56.8604C46.7193 56.9463 46.3312 57.0218 45.9308 57.0868L46.251 59.061C46.6916 58.9895 47.1216 58.9059 47.541 58.8101L47.0954 56.8604ZM45.9308 57.0868C45.5148 57.1542 45.1163 57.216 44.7352 57.272L45.0262 59.2507C45.4178 59.1931 45.8261 59.1299 46.251 59.061L45.9308 57.0868ZM44.7233 57.2738C43.872 57.4095 43.1066 57.6249 42.4444 57.9357L43.2942 59.7461C43.7457 59.5342 44.3212 59.3632 45.0381 59.2489L44.7233 57.2738ZM42.4372 57.9391C41.7647 58.2614 41.1999 58.705 40.7898 59.2887L42.4261 60.4386C42.6069 60.1814 42.8831 59.9432 43.3014 59.7427L42.4372 57.9391ZM40.7866 59.2932C40.3703 59.8927 40.1818 60.5872 40.1818 61.3295H42.1818C42.1818 60.9355 42.2774 60.6528 42.4293 60.434L40.7866 59.2932ZM40.1818 61.3295C40.1818 62.4624 40.6028 63.4406 41.507 64.1104L42.6975 62.5033C42.3744 62.264 42.1818 61.9239 42.1818 61.3295H40.1818ZM41.5141 64.1156C42.3468 64.7211 43.3562 64.9886 44.4716 64.9886V62.9886C43.6779 62.9886 43.1078 62.8016 42.6904 62.4981L41.5141 64.1156ZM62.642 69H61.642V70H62.642V69ZM62.642 42.8182V41.8182H61.642V42.8182H62.642ZM70.7386 42.8182H71.7386V41.8182H70.7386V42.8182ZM70.7386 47.5909H69.7386V48.5909H70.7386V47.5909ZM71.0114 47.5909V48.5909H71.7725L71.9752 47.8572L71.0114 47.5909ZM73.3466 43.7386L73.9611 44.5276L73.9662 44.5235L73.3466 43.7386ZM78.3068 42.5455L78.1693 43.5359L78.1828 43.5378L78.1964 43.5393L78.3068 42.5455ZM79.4489 42.767H80.4489V42.0161L79.7277 41.8067L79.4489 42.767ZM79.4489 50.0114L79.1245 50.9573L80.4489 51.4114V50.0114H79.4489ZM77.8807 49.6875L77.7566 50.6798L77.7588 50.68L77.8807 49.6875ZM73.5 50.233L73.9824 51.1089L73.9867 51.1065L73.5 50.233ZM71.642 52.0568L70.7769 51.5553L70.7746 51.5593L71.642 52.0568ZM70.9773 69V70H71.9773V69H70.9773ZM63.642 69V42.8182H61.642V69H63.642ZM62.642 43.8182H70.7386V41.8182H62.642V43.8182ZM69.7386 42.8182V47.5909H71.7386V42.8182H69.7386ZM70.7386 48.5909H71.0114V46.5909H70.7386V48.5909ZM71.9752 47.8572C72.413 46.2732 73.097 45.2006 73.9611 44.5275L72.7321 42.9497C71.4371 43.9584 70.5643 45.4541 70.0475 47.3246L71.9752 47.8572ZM73.9662 44.5235C74.8616 43.8166 75.8967 43.4602 77.1136 43.4602V41.4602C75.4669 41.4602 73.9906 41.9561 72.7269 42.9538L73.9662 44.5235ZM77.1136 43.4602C77.451 43.4602 77.8026 43.485 78.1693 43.5359L78.4444 41.555C77.9928 41.4922 77.549 41.4602 77.1136 41.4602V43.4602ZM78.1964 43.5393C78.5553 43.5792 78.879 43.6429 79.17 43.7274L79.7277 41.8067C79.3142 41.6866 78.8765 41.6026 78.4172 41.5516L78.1964 43.5393ZM78.4489 42.767V50.0114H80.4489V42.767H78.4489ZM79.7732 49.0654C79.2842 48.8978 78.6859 48.7789 78.0026 48.695L77.7588 50.68C78.3709 50.7552 78.818 50.8522 79.1245 50.9573L79.7732 49.0654ZM78.0047 48.6952C77.3381 48.6119 76.7273 48.5682 76.1761 48.5682V50.5682C76.625 50.5682 77.1506 50.604 77.7566 50.6798L78.0047 48.6952ZM76.1761 48.5682C75.0322 48.5682 73.9702 48.8263 73.0133 49.3594L73.9867 51.1065C74.6208 50.7533 75.3428 50.5682 76.1761 50.5682V48.5682ZM73.0176 49.357C72.0722 49.8777 71.3214 50.616 70.7769 51.5553L72.5072 52.5583C72.8718 51.9295 73.3596 51.4519 73.9824 51.1089L73.0176 49.357ZM70.7746 51.5593C70.2305 52.5079 69.9773 53.5946 69.9773 54.7841H71.9773C71.9773 53.8827 72.1672 53.1512 72.5095 52.5543L70.7746 51.5593ZM69.9773 54.7841V69H71.9773V54.7841H69.9773ZM70.9773 68H62.642V70H70.9773V68ZM86.6335 67.875L86.1504 68.7506L86.1564 68.7539L86.6335 67.875ZM82.0653 63.2216L81.179 63.6847L81.1822 63.6906L82.0653 63.2216ZM82.0824 48.9205L82.9667 49.3874L82.9677 49.3854L82.0824 48.9205ZM86.5994 44.1818L87.1005 45.0473L87.1042 45.045L86.5994 44.1818ZM98.5824 43.3466L98.9335 42.4103L98.9335 42.4103L98.5824 43.3466ZM105.213 50.1307L104.276 50.4811L104.277 50.4832L105.213 50.1307ZM106.151 57.9205V58.9205H107.151V57.9205H106.151ZM83.3949 57.9205H82.3949V58.9205H83.3949V57.9205ZM83.3949 53.0795V52.0795H82.3949V53.0795H83.3949ZM98.3949 53.0795V54.0795H99.4078L99.3948 53.0667L98.3949 53.0795ZM96.0767 49.0909L95.5851 49.9617L95.5934 49.9664L95.6018 49.9709L96.0767 49.0909ZM91.1335 49.125L91.6181 49.9999L91.6282 49.9941L91.1335 49.125ZM89.3778 50.8125L90.2305 51.3351L90.2341 51.329L89.3778 50.8125ZM88.696 53.2159L87.6963 53.1906L87.696 53.2033V53.2159H88.696ZM89.3267 60.9545L88.4399 61.4167L88.4426 61.4219L89.3267 60.9545ZM91.1165 62.8125L90.619 63.68L90.619 63.68L91.1165 62.8125ZM95.8892 63.1705L96.2108 64.1173L96.2108 64.1173L95.8892 63.1705ZM97.4403 62.267L98.1178 63.0026L98.1178 63.0026L97.4403 62.267ZM98.4119 60.8011L98.4409 59.8016L97.7249 59.7808L97.4749 60.452L98.4119 60.8011ZM106.065 61.0227L107.049 61.205L107.261 60.0569L106.094 60.0231L106.065 61.0227ZM103.969 65.5057L103.206 64.8588L103.206 64.8594L103.969 65.5057ZM99.7585 68.4545L100.129 69.3835L100.134 69.3813L99.7585 68.4545ZM93.7244 68.4943C91.1176 68.4943 88.925 67.9811 87.1106 66.9961L86.1564 68.7539C88.3193 69.928 90.854 70.4943 93.7244 70.4943V68.4943ZM87.1166 66.9994C85.3109 66.0032 83.9265 64.594 82.9485 62.7526L81.1822 63.6906C82.3406 65.8719 84.0016 67.565 86.1504 68.7506L87.1166 66.9994ZM82.9517 62.7585C81.9842 60.9068 81.4801 58.6692 81.4801 56.0114H79.4801C79.4801 58.9217 80.0328 61.4909 81.179 63.6847L82.9517 62.7585ZM81.4801 56.0114C81.4801 53.4399 81.9872 51.2421 82.9667 49.3874L81.1981 48.4535C80.0412 50.6442 79.4801 53.1737 79.4801 56.0114H81.4801ZM82.9677 49.3854C83.9503 47.5143 85.3246 46.0754 87.1005 45.0472L86.0984 43.3164C83.9879 44.5382 82.3508 46.2584 81.197 48.4555L82.9677 49.3854ZM87.1042 45.045C88.8698 44.0126 90.9791 43.4773 93.4688 43.4773V41.4773C90.6856 41.4773 88.2154 42.0784 86.0946 43.3186L87.1042 45.045ZM93.4688 43.4773C95.2278 43.4773 96.8116 43.7506 98.2313 44.2829L98.9335 42.4103C97.2623 41.7835 95.4369 41.4773 93.4688 41.4773V43.4773ZM98.2313 44.2829C99.6459 44.8134 100.857 45.5936 101.877 46.624L103.299 45.2169C102.069 43.9746 100.61 43.0388 98.9335 42.4103L98.2313 44.2829ZM101.877 46.624C102.892 47.6489 103.695 48.9277 104.276 50.4811L106.15 49.7803C105.481 47.9928 104.534 46.4647 103.299 45.2169L101.877 46.624ZM104.277 50.4832C104.852 52.0086 105.151 53.7889 105.151 55.8409H107.151C107.151 53.5975 106.824 51.571 106.149 49.7782L104.277 50.4832ZM105.151 55.8409V57.9205H107.151V55.8409H105.151ZM106.151 56.9205H83.3949V58.9205H106.151V56.9205ZM84.3949 57.9205V53.0795H82.3949V57.9205H84.3949ZM83.3949 54.0795H98.3949V52.0795H83.3949V54.0795ZM99.3948 53.0667C99.3814 52.0241 99.1319 51.0603 98.6254 50.202L96.903 51.2185C97.2147 51.7466 97.3856 52.3623 97.395 53.0924L99.3948 53.0667ZM98.6254 50.202C98.1228 49.3503 97.4259 48.6827 96.5516 48.2109L95.6018 49.9709C96.1593 50.2718 96.5875 50.6838 96.903 51.2185L98.6254 50.202ZM96.5683 48.2201C95.6941 47.7266 94.7078 47.4943 93.6392 47.4943V49.4943C94.4115 49.4943 95.0502 49.6598 95.5851 49.9617L96.5683 48.2201ZM93.6392 47.4943C92.5511 47.4943 91.5425 47.7416 90.6388 48.2559L91.6282 49.9941C92.2019 49.6675 92.8637 49.4943 93.6392 49.4943V47.4943ZM90.649 48.2502C89.7588 48.7432 89.0447 49.4286 88.5215 50.296L90.2341 51.329C90.5746 50.7646 91.0309 50.3249 91.618 49.9998L90.649 48.2502ZM88.5252 50.2899C87.9936 51.1573 87.7231 52.1328 87.6963 53.1906L89.6957 53.2412C89.7144 52.5036 89.8984 51.8768 90.2304 51.3351L88.5252 50.2899ZM87.696 53.2159V58.142H89.696V53.2159H87.696ZM87.696 58.142C87.696 59.3431 87.9331 60.4443 88.4399 61.4167L90.2135 60.4924C89.8794 59.8512 89.696 59.0773 89.696 58.142H87.696ZM88.4426 61.4219C88.9505 62.3828 89.6804 63.1417 90.619 63.68L91.614 61.945C91.0071 61.597 90.5438 61.1172 90.2108 60.4872L88.4426 61.4219ZM90.619 63.68C91.5707 64.2258 92.6699 64.4773 93.8778 64.4773V62.4773C92.9494 62.4773 92.2077 62.2856 91.614 61.945L90.619 63.68ZM93.8778 64.4773C94.7086 64.4773 95.4898 64.3622 96.2108 64.1173L95.5676 62.2236C95.0841 62.3878 94.5244 62.4773 93.8778 62.4773V64.4773ZM96.2108 64.1173C96.934 63.8717 97.5751 63.5025 98.1178 63.0026L96.7629 61.5315C96.442 61.8271 96.049 62.0601 95.5676 62.2236L96.2108 64.1173ZM98.1178 63.0026C98.6716 62.4926 99.0812 61.8691 99.349 61.1502L97.4749 60.452C97.3108 60.8922 97.0728 61.2461 96.7629 61.5315L98.1178 63.0026ZM98.383 61.8007L106.036 62.0223L106.094 60.0231L98.4409 59.8016L98.383 61.8007ZM105.082 60.8404C104.794 62.393 104.168 63.7252 103.206 64.8588L104.731 66.1525C105.929 64.7407 106.7 63.0842 107.049 61.205L105.082 60.8404ZM103.206 64.8594C102.255 65.9815 100.992 66.8757 99.383 67.5277L100.134 69.3813C102.002 68.6243 103.546 67.5526 104.732 66.1519L103.206 64.8594ZM99.3882 67.5257C97.7902 68.1628 95.9088 68.4943 93.7244 68.4943V70.4943C96.1082 70.4943 98.2496 70.1327 100.129 69.3834L99.3882 67.5257Z" fill="black" mask="url(#path-1-outside-1_138_518)"/>
<path d="M2.64205 69H1.64205V70H2.64205V69ZM2.64205 34.0909V33.0909H1.64205V34.0909H2.64205ZM23.7614 35.1989L23.3746 36.1211L23.3767 36.1219L23.7614 35.1989ZM27.75 38.3011L26.9179 38.8558L26.9212 38.8607L27.75 38.3011ZM28.2614 46.483L29.1418 46.9571L29.144 46.953L28.2614 46.483ZM25.9602 49.0568L25.388 48.2367L25.388 48.2367L25.9602 49.0568ZM22.5682 50.4886L22.3604 49.5105L21.5682 49.6787V50.4886H22.5682ZM22.5682 50.8295H21.5682V51.7823L22.5199 51.8284L22.5682 50.8295ZM26.4716 51.9716L25.9693 52.8363L25.9728 52.8383L26.4716 51.9716ZM29.3693 54.8693L28.507 55.3756L28.509 55.3791L29.3693 54.8693ZM29.0284 64.2614L29.8664 64.807L29.8683 64.8041L29.0284 64.2614ZM24.8864 67.7386L25.3083 68.6453L25.313 68.6431L24.8864 67.7386ZM11.0795 62.1989H10.0795V63.1989H11.0795V62.1989ZM20.3352 61.1591L19.7143 60.3752L19.7093 60.3792L20.3352 61.1591ZM21.017 55.9432L20.174 56.481L20.1783 56.4877L21.017 55.9432ZM19.2273 54.4261L18.8014 55.331L18.8125 55.336L19.2273 54.4261ZM11.0795 53.8807V52.8807H10.0795V53.8807H11.0795ZM11.0795 48.4432H10.0795V49.4432H11.0795V48.4432ZM19.875 46.6534L19.058 46.0767L19.0505 46.0876L19.875 46.6534ZM19.2443 41.7955L19.8729 41.0177L19.8729 41.0177L19.2443 41.7955ZM11.0795 40.7898V39.7898H10.0795V40.7898H11.0795ZM3.64205 69V34.0909H1.64205V69H3.64205ZM2.64205 35.0909H17.1989V33.0909H2.64205V35.0909ZM17.1989 35.0909C19.7256 35.0909 21.7719 35.4489 23.3746 36.1211L24.1481 34.2767C22.2281 33.4715 19.8994 33.0909 17.1989 33.0909V35.0909ZM23.3767 36.1219C25.0046 36.8002 26.1616 37.7212 26.9179 38.8558L28.5821 37.7464C27.5657 36.2219 26.0636 35.0748 24.146 34.2758L23.3767 36.1219ZM26.9212 38.8607C27.6972 40.01 28.0966 41.3509 28.0966 42.9205H30.0966C30.0966 40.99 29.5982 39.2514 28.5788 37.7415L26.9212 38.8607ZM28.0966 42.9205C28.0966 44.1064 27.8495 45.1291 27.3787 46.0129L29.144 46.953C29.7869 45.7459 30.0966 44.3936 30.0966 42.9205H28.0966ZM27.3809 46.0089C26.8994 46.903 26.2388 47.6431 25.388 48.2367L26.5324 49.8769C27.6362 49.1069 28.5097 48.1311 29.1418 46.9571L27.3809 46.0089ZM25.388 48.2367C24.5311 48.8345 23.5271 49.2627 22.3604 49.5105L22.7759 51.4668C24.1775 51.1691 25.4348 50.6427 26.5324 49.8769L25.388 48.2367ZM21.5682 50.4886V50.8295H23.5682V50.4886H21.5682ZM22.5199 51.8284C23.7728 51.889 24.9177 52.2253 25.9693 52.8363L26.9739 51.1069C25.6392 50.3315 24.1818 49.9065 22.6165 49.8307L22.5199 51.8284ZM25.9728 52.8383C27.0218 53.442 27.8645 54.2814 28.507 55.3756L30.2317 54.363C29.4196 52.9799 28.3305 51.8876 26.9704 51.1049L25.9728 52.8383ZM28.509 55.3791C29.1296 56.4264 29.4602 57.6981 29.4602 59.233H31.4602C31.4602 57.4041 31.0635 55.7668 30.2296 54.3595L28.509 55.3791ZM29.4602 59.233C29.4602 60.9287 29.0315 62.4139 28.1885 63.7186L29.8683 64.8041C30.9344 63.1543 31.4602 61.2872 31.4602 59.233H29.4602ZM28.1904 63.7157C27.3508 65.0051 26.1232 66.0496 24.4597 66.8342L25.313 68.6431C27.2632 67.7232 28.7969 66.4495 29.8664 64.807L28.1904 63.7157ZM24.4644 66.832C22.8226 67.5961 20.7818 68 18.3068 68V70C20.9909 70 23.3364 69.563 25.3083 68.6453L24.4644 66.832ZM18.3068 68H2.64205V70H18.3068V68ZM11.0795 63.1989H16.2955V61.1989H11.0795V63.1989ZM16.2955 63.1989C18.2159 63.1989 19.8367 62.8415 20.9612 61.939L19.7093 60.3792C19.1065 60.8631 18.0341 61.1989 16.2955 61.1989V63.1989ZM20.9562 61.9429C22.099 61.0376 22.6477 59.7673 22.6477 58.2614H20.6477C20.6477 59.2327 20.3214 59.8942 19.7143 60.3753L20.9562 61.9429ZM22.6477 58.2614C22.6477 57.2025 22.3977 56.2335 21.8558 55.3987L20.1783 56.4877C20.4773 56.9483 20.6477 57.5248 20.6477 58.2614H22.6477ZM21.8601 55.4054C21.3269 54.5695 20.5747 53.9414 19.6421 53.5162L18.8125 55.336C19.4253 55.6154 19.8663 55.9987 20.174 56.481L21.8601 55.4054ZM19.6531 53.5213C18.7168 53.0807 17.6379 52.8807 16.4489 52.8807V54.8807C17.4189 54.8807 18.1923 55.0443 18.8015 55.331L19.6531 53.5213ZM16.4489 52.8807H11.0795V54.8807H16.4489V52.8807ZM10.0795 53.8807V62.1989H12.0795V53.8807H10.0795ZM11.0795 49.4432H15.75V47.4432H11.0795V49.4432ZM15.75 49.4432C16.7816 49.4432 17.7376 49.271 18.5985 48.9021L17.8106 47.0638C17.2397 47.3085 16.5593 47.4432 15.75 47.4432V49.4432ZM18.5985 48.9021C19.469 48.529 20.1832 47.9715 20.6995 47.2192L19.0505 46.0876C18.7713 46.4944 18.3719 46.8233 17.8106 47.0638L18.5985 48.9021ZM20.692 47.2301C21.2377 46.4569 21.4886 45.5488 21.4886 44.5568H19.4886C19.4886 45.2012 19.3304 45.6908 19.058 46.0767L20.692 47.2301ZM21.4886 44.5568C21.4886 43.1178 20.9622 41.8981 19.8729 41.0177L18.6157 42.5732C19.1855 43.0337 19.4886 43.6549 19.4886 44.5568H21.4886ZM19.8729 41.0177C18.8154 40.163 17.4504 39.7898 15.8864 39.7898V41.7898C17.1405 41.7898 18.0141 42.087 18.6157 42.5732L19.8729 41.0177ZM15.8864 39.7898H11.0795V41.7898H15.8864V39.7898ZM10.0795 40.7898V48.4432H12.0795V40.7898H10.0795ZM37.4489 68.608L37.0442 69.5225L37.054 69.5267L37.4489 68.608ZM34.3977 66.0511L33.5568 66.5924L33.5631 66.602L34.3977 66.0511ZM34.0568 58.0568L33.1665 57.6015L33.1665 57.6015L34.0568 58.0568ZM36.1705 55.6193L36.7418 56.44L36.7418 56.44L36.1705 55.6193ZM39.2727 54.2045L39.5351 55.1696L39.5437 55.1671L39.2727 54.2045ZM43.0227 53.5398L43.1079 54.5362L43.1139 54.5356L43.0227 53.5398ZM46.6193 53.1136L46.7797 54.1008L46.7917 54.0987L46.6193 53.1136ZM48.5966 52.4489L49.167 53.2702L49.1715 53.2671L48.5966 52.4489ZM48.3239 49.0909L48.9449 48.3072L48.9449 48.3072L48.3239 49.0909ZM43.2273 49.0909L42.6473 48.2762L42.6473 48.2762L43.2273 49.0909ZM41.9489 51.0682L41.9134 52.0676L42.7495 52.0972L42.9263 51.2795L41.9489 51.0682ZM34.2614 50.7955L33.2714 50.654L33.1141 51.7554L34.2259 51.7948L34.2614 50.7955ZM36.017 46.5341L35.2196 45.9306L35.2188 45.9318L36.017 46.5341ZM39.9375 43.5682L40.3337 44.4864L40.3367 44.4851L39.9375 43.5682ZM50.5739 43.0739L50.3022 44.0363L50.3094 44.0383L50.5739 43.0739ZM54.2557 44.7784L53.6728 45.591L53.6787 45.5951L54.2557 44.7784ZM56.6761 47.5057L55.7912 47.9714L55.7951 47.9787L56.6761 47.5057ZM57.5455 69V70H58.5455V69H57.5455ZM49.7045 69H48.7045V70H49.7045V69ZM49.7045 65.3523H50.7045V64.3523H49.7045V65.3523ZM49.5 65.3523V64.3523H48.8959L48.6148 64.887L49.5 65.3523ZM47.7102 67.6023L47.0653 66.838L47.0594 66.843L47.7102 67.6023ZM45.1705 68.983L44.8709 68.0289L44.8677 68.0299L45.1705 68.983ZM46.892 63.4432L46.4448 62.5487L46.4392 62.5516L46.892 63.4432ZM48.6307 61.9432L49.4582 62.5047L49.4627 62.4979L48.6307 61.9432ZM49.2784 57.2045H50.2784V55.5519L48.8144 56.3187L49.2784 57.2045ZM48.4091 57.5455L48.1217 56.5876L48.1127 56.5904L48.4091 57.5455ZM46.0909 58.0739L46.251 59.061L46.251 59.061L46.0909 58.0739ZM44.8807 58.2614L44.7352 57.2719L44.7233 57.2738L44.8807 58.2614ZM42.8693 58.8409L42.4444 57.9356L42.4372 57.9391L42.8693 58.8409ZM41.608 59.8636L40.7898 59.2887L40.7866 59.2932L41.608 59.8636ZM42.1023 63.3068L41.507 64.1104L41.5141 64.1156L42.1023 63.3068ZM41.8977 68.4432C40.3384 68.4432 38.9936 68.1835 37.8438 67.6892L37.054 69.5267C38.495 70.1461 40.1162 70.4432 41.8977 70.4432V68.4432ZM37.8535 67.6935C36.7388 67.2003 35.8734 66.4716 35.2323 65.5003L33.5631 66.602C34.4221 67.9034 35.5907 68.8793 37.0442 69.5224L37.8535 67.6935ZM35.2386 65.51C34.6282 64.5615 34.2898 63.3246 34.2898 61.7386H32.2898C32.2898 63.6072 32.6899 65.2453 33.5568 66.5923L35.2386 65.51ZM34.2898 61.7386C34.2898 60.3972 34.526 59.3358 34.9472 58.5121L33.1665 57.6015C32.565 58.7778 32.2898 60.171 32.2898 61.7386H34.2898ZM34.9472 58.5121C35.3859 57.6542 35.9825 56.9687 36.7418 56.44L35.5991 54.7986C34.563 55.52 33.7505 56.4595 33.1665 57.6015L34.9472 58.5121ZM36.7418 56.44C37.5359 55.8872 38.4631 55.4609 39.5351 55.1695L39.0104 53.2396C37.7414 53.5845 36.6005 54.1015 35.5991 54.7986L36.7418 56.44ZM39.5437 55.1671C40.6479 54.8562 41.8352 54.6449 43.1079 54.5361L42.9376 52.5434C41.5512 52.6619 40.2385 52.8938 39.0017 53.242L39.5437 55.1671ZM43.1139 54.5356C44.6134 54.3982 45.8381 54.2537 46.7797 54.1007L46.4589 52.1266C45.5824 52.269 44.4093 52.4086 42.9315 52.5439L43.1139 54.5356ZM46.7917 54.0987C47.7422 53.9323 48.576 53.6807 49.167 53.2702L48.0262 51.6275C47.799 51.7852 47.3147 51.9768 46.4469 52.1286L46.7917 54.0987ZM49.1715 53.2671C49.8707 52.7758 50.2273 52.0491 50.2273 51.2045H48.2273C48.2273 51.4282 48.1634 51.531 48.0216 51.6307L49.1715 53.2671ZM50.2273 51.2045V51.1193H48.2273V51.2045H50.2273ZM50.2273 51.1193C50.2273 49.9868 49.8218 49.002 48.9449 48.3072L47.7028 49.8747C48.0305 50.1344 48.2273 50.5018 48.2273 51.1193H50.2273ZM48.9449 48.3072C48.1152 47.6496 47.0599 47.375 45.8864 47.375V49.375C46.7582 49.375 47.328 49.5776 47.7028 49.8747L48.9449 48.3072ZM45.8864 47.375C44.6457 47.375 43.5361 47.6435 42.6473 48.2762L43.8072 49.9056C44.2593 49.5837 44.9224 49.375 45.8864 49.375V47.375ZM42.6473 48.2762C41.7639 48.9051 41.2033 49.7845 40.9715 50.8568L42.9263 51.2795C43.058 50.6701 43.3497 50.2312 43.8072 49.9056L42.6473 48.2762ZM41.9843 50.0688L34.2968 49.7961L34.2259 51.7948L41.9134 52.0676L41.9843 50.0688ZM35.2513 50.9369C35.4553 49.5087 35.9767 48.2478 36.8153 47.1364L35.2188 45.9318C34.171 47.3204 33.5219 48.9003 33.2714 50.654L35.2513 50.9369ZM36.8145 47.1375C37.6506 46.0326 38.8104 45.1437 40.3337 44.4863L39.5413 42.65C37.7464 43.4245 36.2926 44.5129 35.2196 45.9306L36.8145 47.1375ZM40.3367 44.4851C41.8508 43.8258 43.7134 43.4773 45.9545 43.4773V41.4773C43.5138 41.4773 41.3651 41.856 39.5383 42.6513L40.3367 44.4851ZM45.9545 43.4773C47.5458 43.4773 48.9929 43.6667 50.3022 44.0363L50.8455 42.1115C49.3366 41.6856 47.7042 41.4773 45.9545 41.4773V43.4773ZM50.3094 44.0383C51.6195 44.3975 52.7358 44.9187 53.6728 45.5909L54.8386 43.9659C53.6847 43.1381 52.3464 42.523 50.8383 42.1095L50.3094 44.0383ZM53.6787 45.5951C54.6018 46.2473 55.3002 47.0385 55.7912 47.9714L57.5611 47.0399C56.9157 45.8138 56.0005 44.7868 54.8327 43.9617L53.6787 45.5951ZM55.7951 47.9787C56.2868 48.8946 56.5455 49.9613 56.5455 51.2045H58.5455C58.5455 49.6751 58.2246 48.2759 57.5572 47.0327L55.7951 47.9787ZM56.5455 51.2045V69H58.5455V51.2045H56.5455ZM57.5455 68H49.7045V70H57.5455V68ZM50.7045 69V65.3523H48.7045V69H50.7045ZM49.7045 64.3523H49.5V66.3523H49.7045V64.3523ZM48.6148 64.887C48.2058 65.6652 47.6889 66.3119 47.0654 66.838L48.3551 68.3666C49.1861 67.6654 49.8624 66.8121 50.3852 65.8176L48.6148 64.887ZM47.0594 66.843C46.4548 67.3613 45.7304 67.759 44.8709 68.0289L45.47 69.937C46.5651 69.5932 47.5338 69.0706 48.361 68.3615L47.0594 66.843ZM44.8677 68.0299C44.017 68.3001 43.0308 68.4432 41.8977 68.4432V70.4432C43.1965 70.4432 44.3921 70.2794 45.4732 69.936L44.8677 68.0299ZM44.4716 64.9886C45.5079 64.9886 46.4728 64.7777 47.3449 64.3348L46.4392 62.5516C45.8794 62.8359 45.2307 62.9886 44.4716 62.9886V64.9886ZM47.3393 64.3376C48.2106 63.9019 48.9246 63.2909 49.4582 62.5047L47.8032 61.3817C47.4731 61.8682 47.028 62.2572 46.4448 62.5488L47.3393 64.3376ZM49.4627 62.4979C50.0144 61.6704 50.2784 60.7234 50.2784 59.6932H48.2784C48.2784 60.3675 48.1106 60.9205 47.7986 61.3885L49.4627 62.4979ZM50.2784 59.6932V57.2045H48.2784V59.6932H50.2784ZM48.8144 56.3187C48.6469 56.4065 48.4198 56.4982 48.1217 56.5876L48.6964 58.5033C49.0802 58.3881 49.4327 58.2526 49.7424 58.0904L48.8144 56.3187ZM48.1127 56.5904C47.8113 56.6839 47.4726 56.7741 47.0954 56.8604L47.541 58.8101C47.9592 58.7145 48.3478 58.6115 48.7055 58.5005L48.1127 56.5904ZM47.0954 56.8604C46.7193 56.9463 46.3312 57.0218 45.9308 57.0868L46.251 59.061C46.6916 58.9895 47.1216 58.9059 47.541 58.8101L47.0954 56.8604ZM45.9308 57.0868C45.5148 57.1542 45.1163 57.216 44.7352 57.272L45.0262 59.2507C45.4178 59.1931 45.8261 59.1299 46.251 59.061L45.9308 57.0868ZM44.7233 57.2738C43.872 57.4095 43.1066 57.6249 42.4444 57.9357L43.2942 59.7461C43.7457 59.5342 44.3212 59.3632 45.0381 59.2489L44.7233 57.2738ZM42.4372 57.9391C41.7647 58.2614 41.1999 58.705 40.7898 59.2887L42.4261 60.4386C42.6069 60.1814 42.8831 59.9432 43.3014 59.7427L42.4372 57.9391ZM40.7866 59.2932C40.3703 59.8927 40.1818 60.5872 40.1818 61.3295H42.1818C42.1818 60.9355 42.2774 60.6528 42.4293 60.434L40.7866 59.2932ZM40.1818 61.3295C40.1818 62.4624 40.6028 63.4406 41.507 64.1104L42.6975 62.5033C42.3744 62.264 42.1818 61.9239 42.1818 61.3295H40.1818ZM41.5141 64.1156C42.3468 64.7211 43.3562 64.9886 44.4716 64.9886V62.9886C43.6779 62.9886 43.1078 62.8016 42.6904 62.4981L41.5141 64.1156ZM62.642 69H61.642V70H62.642V69ZM62.642 42.8182V41.8182H61.642V42.8182H62.642ZM70.7386 42.8182H71.7386V41.8182H70.7386V42.8182ZM70.7386 47.5909H69.7386V48.5909H70.7386V47.5909ZM71.0114 47.5909V48.5909H71.7725L71.9752 47.8572L71.0114 47.5909ZM73.3466 43.7386L73.9611 44.5276L73.9662 44.5235L73.3466 43.7386ZM78.3068 42.5455L78.1693 43.5359L78.1828 43.5378L78.1964 43.5393L78.3068 42.5455ZM79.4489 42.767H80.4489V42.0161L79.7277 41.8067L79.4489 42.767ZM79.4489 50.0114L79.1245 50.9573L80.4489 51.4114V50.0114H79.4489ZM77.8807 49.6875L77.7566 50.6798L77.7588 50.68L77.8807 49.6875ZM73.5 50.233L73.9824 51.1089L73.9867 51.1065L73.5 50.233ZM71.642 52.0568L70.7769 51.5553L70.7746 51.5593L71.642 52.0568ZM70.9773 69V70H71.9773V69H70.9773ZM63.642 69V42.8182H61.642V69H63.642ZM62.642 43.8182H70.7386V41.8182H62.642V43.8182ZM69.7386 42.8182V47.5909H71.7386V42.8182H69.7386ZM70.7386 48.5909H71.0114V46.5909H70.7386V48.5909ZM71.9752 47.8572C72.413 46.2732 73.097 45.2006 73.9611 44.5275L72.7321 42.9497C71.4371 43.9584 70.5643 45.4541 70.0475 47.3246L71.9752 47.8572ZM73.9662 44.5235C74.8616 43.8166 75.8967 43.4602 77.1136 43.4602V41.4602C75.4669 41.4602 73.9906 41.9561 72.7269 42.9538L73.9662 44.5235ZM77.1136 43.4602C77.451 43.4602 77.8026 43.485 78.1693 43.5359L78.4444 41.555C77.9928 41.4922 77.549 41.4602 77.1136 41.4602V43.4602ZM78.1964 43.5393C78.5553 43.5792 78.879 43.6429 79.17 43.7274L79.7277 41.8067C79.3142 41.6866 78.8765 41.6026 78.4172 41.5516L78.1964 43.5393ZM78.4489 42.767V50.0114H80.4489V42.767H78.4489ZM79.7732 49.0654C79.2842 48.8978 78.6859 48.7789 78.0026 48.695L77.7588 50.68C78.3709 50.7552 78.818 50.8522 79.1245 50.9573L79.7732 49.0654ZM78.0047 48.6952C77.3381 48.6119 76.7273 48.5682 76.1761 48.5682V50.5682C76.625 50.5682 77.1506 50.604 77.7566 50.6798L78.0047 48.6952ZM76.1761 48.5682C75.0322 48.5682 73.9702 48.8263 73.0133 49.3594L73.9867 51.1065C74.6208 50.7533 75.3428 50.5682 76.1761 50.5682V48.5682ZM73.0176 49.357C72.0722 49.8777 71.3214 50.616 70.7769 51.5553L72.5072 52.5583C72.8718 51.9295 73.3596 51.4519 73.9824 51.1089L73.0176 49.357ZM70.7746 51.5593C70.2305 52.5079 69.9773 53.5946 69.9773 54.7841H71.9773C71.9773 53.8827 72.1672 53.1512 72.5095 52.5543L70.7746 51.5593ZM69.9773 54.7841V69H71.9773V54.7841H69.9773ZM70.9773 68H62.642V70H70.9773V68ZM86.6335 67.875L86.1504 68.7506L86.1564 68.7539L86.6335 67.875ZM82.0653 63.2216L81.179 63.6847L81.1822 63.6906L82.0653 63.2216ZM82.0824 48.9205L82.9667 49.3874L82.9677 49.3854L82.0824 48.9205ZM86.5994 44.1818L87.1005 45.0473L87.1042 45.045L86.5994 44.1818ZM98.5824 43.3466L98.9335 42.4103L98.9335 42.4103L98.5824 43.3466ZM105.213 50.1307L104.276 50.4811L104.277 50.4832L105.213 50.1307ZM106.151 57.9205V58.9205H107.151V57.9205H106.151ZM83.3949 57.9205H82.3949V58.9205H83.3949V57.9205ZM83.3949 53.0795V52.0795H82.3949V53.0795H83.3949ZM98.3949 53.0795V54.0795H99.4078L99.3948 53.0667L98.3949 53.0795ZM96.0767 49.0909L95.5851 49.9617L95.5934 49.9664L95.6018 49.9709L96.0767 49.0909ZM91.1335 49.125L91.6181 49.9999L91.6282 49.9941L91.1335 49.125ZM89.3778 50.8125L90.2305 51.3351L90.2341 51.329L89.3778 50.8125ZM88.696 53.2159L87.6963 53.1906L87.696 53.2033V53.2159H88.696ZM89.3267 60.9545L88.4399 61.4167L88.4426 61.4219L89.3267 60.9545ZM91.1165 62.8125L90.619 63.68L90.619 63.68L91.1165 62.8125ZM95.8892 63.1705L96.2108 64.1173L96.2108 64.1173L95.8892 63.1705ZM97.4403 62.267L98.1178 63.0026L98.1178 63.0026L97.4403 62.267ZM98.4119 60.8011L98.4409 59.8016L97.7249 59.7808L97.4749 60.452L98.4119 60.8011ZM106.065 61.0227L107.049 61.205L107.261 60.0569L106.094 60.0231L106.065 61.0227ZM103.969 65.5057L103.206 64.8588L103.206 64.8594L103.969 65.5057ZM99.7585 68.4545L100.129 69.3835L100.134 69.3813L99.7585 68.4545ZM93.7244 68.4943C91.1176 68.4943 88.925 67.9811 87.1106 66.9961L86.1564 68.7539C88.3193 69.928 90.854 70.4943 93.7244 70.4943V68.4943ZM87.1166 66.9994C85.3109 66.0032 83.9265 64.594 82.9485 62.7526L81.1822 63.6906C82.3406 65.8719 84.0016 67.565 86.1504 68.7506L87.1166 66.9994ZM82.9517 62.7585C81.9842 60.9068 81.4801 58.6692 81.4801 56.0114H79.4801C79.4801 58.9217 80.0328 61.4909 81.179 63.6847L82.9517 62.7585ZM81.4801 56.0114C81.4801 53.4399 81.9872 51.2421 82.9667 49.3874L81.1981 48.4535C80.0412 50.6442 79.4801 53.1737 79.4801 56.0114H81.4801ZM82.9677 49.3854C83.9503 47.5143 85.3246 46.0754 87.1005 45.0472L86.0984 43.3164C83.9879 44.5382 82.3508 46.2584 81.197 48.4555L82.9677 49.3854ZM87.1042 45.045C88.8698 44.0126 90.9791 43.4773 93.4688 43.4773V41.4773C90.6856 41.4773 88.2154 42.0784 86.0946 43.3186L87.1042 45.045ZM93.4688 43.4773C95.2278 43.4773 96.8116 43.7506 98.2313 44.2829L98.9335 42.4103C97.2623 41.7835 95.4369 41.4773 93.4688 41.4773V43.4773ZM98.2313 44.2829C99.6459 44.8134 100.857 45.5936 101.877 46.624L103.299 45.2169C102.069 43.9746 100.61 43.0388 98.9335 42.4103L98.2313 44.2829ZM101.877 46.624C102.892 47.6489 103.695 48.9277 104.276 50.4811L106.15 49.7803C105.481 47.9928 104.534 46.4647 103.299 45.2169L101.877 46.624ZM104.277 50.4832C104.852 52.0086 105.151 53.7889 105.151 55.8409H107.151C107.151 53.5975 106.824 51.571 106.149 49.7782L104.277 50.4832ZM105.151 55.8409V57.9205H107.151V55.8409H105.151ZM106.151 56.9205H83.3949V58.9205H106.151V56.9205ZM84.3949 57.9205V53.0795H82.3949V57.9205H84.3949ZM83.3949 54.0795H98.3949V52.0795H83.3949V54.0795ZM99.3948 53.0667C99.3814 52.0241 99.1319 51.0603 98.6254 50.202L96.903 51.2185C97.2147 51.7466 97.3856 52.3623 97.395 53.0924L99.3948 53.0667ZM98.6254 50.202C98.1228 49.3503 97.4259 48.6827 96.5516 48.2109L95.6018 49.9709C96.1593 50.2718 96.5875 50.6838 96.903 51.2185L98.6254 50.202ZM96.5683 48.2201C95.6941 47.7266 94.7078 47.4943 93.6392 47.4943V49.4943C94.4115 49.4943 95.0502 49.6598 95.5851 49.9617L96.5683 48.2201ZM93.6392 47.4943C92.5511 47.4943 91.5425 47.7416 90.6388 48.2559L91.6282 49.9941C92.2019 49.6675 92.8637 49.4943 93.6392 49.4943V47.4943ZM90.649 48.2502C89.7588 48.7432 89.0447 49.4286 88.5215 50.296L90.2341 51.329C90.5746 50.7646 91.0309 50.3249 91.618 49.9998L90.649 48.2502ZM88.5252 50.2899C87.9936 51.1573 87.7231 52.1328 87.6963 53.1906L89.6957 53.2412C89.7144 52.5036 89.8984 51.8768 90.2304 51.3351L88.5252 50.2899ZM87.696 53.2159V58.142H89.696V53.2159H87.696ZM87.696 58.142C87.696 59.3431 87.9331 60.4443 88.4399 61.4167L90.2135 60.4924C89.8794 59.8512 89.696 59.0773 89.696 58.142H87.696ZM88.4426 61.4219C88.9505 62.3828 89.6804 63.1417 90.619 63.68L91.614 61.945C91.0071 61.597 90.5438 61.1172 90.2108 60.4872L88.4426 61.4219ZM90.619 63.68C91.5707 64.2258 92.6699 64.4773 93.8778 64.4773V62.4773C92.9494 62.4773 92.2077 62.2856 91.614 61.945L90.619 63.68ZM93.8778 64.4773C94.7086 64.4773 95.4898 64.3622 96.2108 64.1173L95.5676 62.2236C95.0841 62.3878 94.5244 62.4773 93.8778 62.4773V64.4773ZM96.2108 64.1173C96.934 63.8717 97.5751 63.5025 98.1178 63.0026L96.7629 61.5315C96.442 61.8271 96.049 62.0601 95.5676 62.2236L96.2108 64.1173ZM98.1178 63.0026C98.6716 62.4926 99.0812 61.8691 99.349 61.1502L97.4749 60.452C97.3108 60.8922 97.0728 61.2461 96.7629 61.5315L98.1178 63.0026ZM98.383 61.8007L106.036 62.0223L106.094 60.0231L98.4409 59.8016L98.383 61.8007ZM105.082 60.8404C104.794 62.393 104.168 63.7252 103.206 64.8588L104.731 66.1525C105.929 64.7407 106.7 63.0842 107.049 61.205L105.082 60.8404ZM103.206 64.8594C102.255 65.9815 100.992 66.8757 99.383 67.5277L100.134 69.3813C102.002 68.6243 103.546 67.5526 104.732 66.1519L103.206 64.8594ZM99.3882 67.5257C97.7902 68.1628 95.9088 68.4943 93.7244 68.4943V70.4943C96.1082 70.4943 98.2496 70.1327 100.129 69.3834L99.3882 67.5257Z" fill="black" fill-opacity="0.2" mask="url(#path-1-outside-1_138_518)"/>
</g>
</g>
<defs>
<filter id="filter0_dd_138_518" x="-2.35797" y="33.0909" width="113.619" height="45.4034" filterUnits="userSpaceOnUse" color-interpolation-filters="sRGB">
<feFlood flood-opacity="0" result="BackgroundImageFix"/>
<feColorMatrix in="SourceAlpha" type="matrix" values="0 0 0 0 0 0 0 0 0 0 0 0 0 0 0 0 0 0 127 0" result="hardAlpha"/>
<feOffset dy="4"/>
<feGaussianBlur stdDeviation="2"/>
<feComposite in2="hardAlpha" operator="out"/>
<feColorMatrix type="matrix" values="0 0 0 0 0 0 0 0 0 0 0 0 0 0 0 0 0 0 0.25 0"/>
<feBlend mode="normal" in2="BackgroundImageFix" result="effect1_dropShadow_138_518"/>
<feColorMatrix in="SourceAlpha" type="matrix" values="0 0 0 0 0 0 0 0 0 0 0 0 0 0 0 0 0 0 127 0" result="hardAlpha"/>
<feOffset dy="4"/>
<feGaussianBlur stdDeviation="2"/>
<feComposite in2="hardAlpha" operator="out"/>
<feColorMatrix type="matrix" values="0 0 0 0 0 0 0 0 0 0 0 0 0 0 0 0 0 0 0.25 0"/>
<feBlend mode="normal" in2="effect1_dropShadow_138_518" result="effect2_dropShadow_138_518"/>
<feBlend mode="normal" in="SourceGraphic" in2="effect2_dropShadow_138_518" result="shape"/>
</filter>
<clipPath id="clip0_138_518">
<rect width="322" height="117" fill="white"/>
</clipPath>
</defs>
</svg>
