<svg width="322" height="117" viewBox="0 0 322 117" fill="none" xmlns="http://www.w3.org/2000/svg">
<g clip-path="url(#clip0_115_2)">
<rect width="322" height="117" fill="white"/>
<g filter="url(#filter0_dd_115_2)">
<mask id="path-1-outside-1_115_2" maskUnits="userSpaceOnUse" x="1" y="32" width="203" height="39" fill="black">
<rect fill="white" x="1" y="32" width="203" height="39"/>
<path d="M34.3295 46.7386H25.8068C25.6932 45.8636 25.4602 45.0739 25.108 44.3693C24.7557 43.6648 24.2898 43.0625 23.7102 42.5625C23.1307 42.0625 22.4432 41.6818 21.6477 41.4205C20.8636 41.1477 19.9943 41.0114 19.0398 41.0114C17.3466 41.0114 15.8864 41.4261 14.6591 42.2557C13.4432 43.0852 12.5057 44.2841 11.8466 45.8523C11.1989 47.4205 10.875 49.3182 10.875 51.5455C10.875 53.8636 11.2045 55.8068 11.8636 57.375C12.5341 58.9318 13.4716 60.108 14.6761 60.9034C15.892 61.6875 17.3295 62.0795 18.9886 62.0795C19.9205 62.0795 20.767 61.9602 21.5284 61.7216C22.3011 61.483 22.9773 61.1364 23.5568 60.6818C24.1477 60.2159 24.6307 59.6534 25.0057 58.9943C25.392 58.3239 25.6591 57.5682 25.8068 56.7273L34.3295 56.7784C34.1818 58.3239 33.733 59.8466 32.983 61.3466C32.2443 62.8466 31.2273 64.2159 29.9318 65.4545C28.6364 66.6818 27.0568 67.6591 25.1932 68.3864C23.3409 69.1136 21.2159 69.4773 18.8182 69.4773C15.6591 69.4773 12.8295 68.7841 10.3295 67.3977C7.84091 66 5.875 63.9659 4.43182 61.2955C2.98864 58.625 2.26705 55.375 2.26705 51.5455C2.26705 47.7045 3 44.4489 4.46591 41.7784C5.93182 39.108 7.91477 37.0795 10.4148 35.6932C12.9148 34.3068 15.7159 33.6136 18.8182 33.6136C20.9318 33.6136 22.8864 33.9091 24.6818 34.5C26.4773 35.0795 28.0568 35.9318 29.4205 37.0568C30.7841 38.1705 31.892 39.5398 32.7443 41.1648C33.5966 42.7898 34.125 44.6477 34.3295 46.7386ZM47.4929 34.0909V69H39.1577V34.0909H47.4929ZM69.6903 57.6989V42.8182H78.0085V69H70.0653V64.125H69.7926C69.2131 65.7273 68.2244 67 66.8267 67.9432C65.4403 68.875 63.7642 69.3409 61.7983 69.3409C60.0142 69.3409 58.446 68.9318 57.0938 68.1136C55.7415 67.2955 54.6903 66.1534 53.9403 64.6875C53.1903 63.2102 52.8097 61.483 52.7983 59.5057V42.8182H61.1335V57.8693C61.1449 59.2898 61.5199 60.4091 62.2585 61.2273C62.9972 62.0455 64.0028 62.4545 65.2756 62.4545C66.1051 62.4545 66.8494 62.2727 67.5085 61.9091C68.179 61.5341 68.7074 60.9943 69.0938 60.2898C69.4915 59.5739 69.6903 58.7102 69.6903 57.6989ZM106.172 50.8125L98.5185 51.017C98.4389 50.4716 98.223 49.9886 97.8707 49.5682C97.5185 49.1364 97.0582 48.8011 96.4901 48.5625C95.9332 48.3125 95.2855 48.1875 94.5469 48.1875C93.581 48.1875 92.7571 48.3807 92.0753 48.767C91.4048 49.1534 91.0753 49.6761 91.0866 50.3352C91.0753 50.8466 91.2798 51.2898 91.7003 51.6648C92.1321 52.0398 92.8991 52.3409 94.0014 52.5682L99.0469 53.5227C101.661 54.0227 103.604 54.8523 104.876 56.0114C106.161 57.1705 106.808 58.7045 106.82 60.6136C106.808 62.4091 106.274 63.9716 105.217 65.3011C104.172 66.6307 102.74 67.6648 100.922 68.4034C99.1037 69.1307 97.0241 69.4943 94.6832 69.4943C90.9446 69.4943 87.9957 68.7273 85.8366 67.1932C83.6889 65.6477 82.4616 63.5795 82.1548 60.9886L90.3878 60.7841C90.5696 61.7386 91.0412 62.4659 91.8026 62.9659C92.5639 63.4659 93.5355 63.7159 94.7173 63.7159C95.7855 63.7159 96.6548 63.517 97.3253 63.1193C97.9957 62.7216 98.3366 62.1932 98.348 61.5341C98.3366 60.9432 98.0753 60.4716 97.5639 60.1193C97.0526 59.7557 96.2514 59.4716 95.1605 59.267L90.5923 58.3977C87.9673 57.9205 86.0128 57.0398 84.7287 55.7557C83.4446 54.4602 82.8082 52.8125 82.8196 50.8125C82.8082 49.0625 83.2741 47.5682 84.2173 46.3295C85.1605 45.0795 86.5014 44.125 88.2401 43.4659C89.9787 42.8068 92.0298 42.4773 94.3935 42.4773C97.9389 42.4773 100.734 43.2216 102.78 44.7102C104.825 46.1875 105.956 48.2216 106.172 50.8125ZM125.702 42.8182V48.9545H109.185V42.8182H125.702ZM112.645 36.5455H120.98V60.767C120.98 61.2784 121.06 61.6932 121.219 62.0114C121.389 62.3182 121.634 62.5398 121.952 62.6761C122.27 62.8011 122.651 62.8636 123.094 62.8636C123.412 62.8636 123.747 62.8352 124.099 62.7784C124.463 62.7102 124.736 62.6534 124.918 62.608L126.179 68.625C125.781 68.7386 125.219 68.8807 124.491 69.0511C123.776 69.2216 122.918 69.3295 121.918 69.375C119.963 69.4659 118.287 69.2386 116.889 68.6932C115.503 68.1364 114.44 67.2727 113.702 66.1023C112.974 64.9318 112.622 63.4602 112.645 61.6875V36.5455ZM141.912 69.4943C139.173 69.4943 136.81 68.9545 134.821 67.875C132.844 66.7841 131.321 65.233 130.253 63.2216C129.196 61.1989 128.668 58.7955 128.668 56.0114C128.668 53.3068 129.202 50.9432 130.27 48.9205C131.338 46.8864 132.844 45.3068 134.787 44.1818C136.73 43.0455 139.02 42.4773 141.656 42.4773C143.52 42.4773 145.224 42.767 146.77 43.3466C148.315 43.9261 149.651 44.7841 150.776 45.9205C151.901 47.0568 152.776 48.4602 153.401 50.1307C154.026 51.7898 154.338 53.6932 154.338 55.8409V57.9205H131.582V53.0795H146.582C146.571 52.1932 146.361 51.4034 145.952 50.7102C145.543 50.017 144.98 49.4773 144.264 49.0909C143.56 48.6932 142.747 48.4943 141.827 48.4943C140.895 48.4943 140.06 48.7045 139.321 49.125C138.582 49.5341 137.997 50.0966 137.565 50.8125C137.134 51.517 136.906 52.3182 136.884 53.2159V58.142C136.884 59.2102 137.094 60.1477 137.514 60.9545C137.935 61.75 138.531 62.3693 139.304 62.8125C140.077 63.2557 140.997 63.4773 142.065 63.4773C142.804 63.4773 143.474 63.375 144.077 63.1705C144.679 62.9659 145.196 62.6648 145.628 62.267C146.06 61.8693 146.384 61.3807 146.599 60.8011L154.253 61.0227C153.935 62.7386 153.236 64.233 152.156 65.5057C151.088 66.767 149.685 67.75 147.946 68.4545C146.207 69.1477 144.196 69.4943 141.912 69.4943ZM158.595 69V42.8182H166.692V47.5909H166.964C167.442 45.8636 168.22 44.5795 169.3 43.7386C170.379 42.8864 171.635 42.4602 173.067 42.4602C173.453 42.4602 173.851 42.4886 174.26 42.5455C174.669 42.5909 175.05 42.6648 175.402 42.767V50.0114C175.004 49.875 174.482 49.767 173.834 49.6875C173.197 49.608 172.629 49.5682 172.129 49.5682C171.141 49.5682 170.249 49.7898 169.453 50.233C168.669 50.6648 168.05 51.2727 167.595 52.0568C167.152 52.8295 166.93 53.7386 166.93 54.7841V69H158.595ZM201.656 50.8125L194.003 51.017C193.923 50.4716 193.707 49.9886 193.355 49.5682C193.003 49.1364 192.543 48.8011 191.974 48.5625C191.418 48.3125 190.77 48.1875 190.031 48.1875C189.065 48.1875 188.241 48.3807 187.56 48.767C186.889 49.1534 186.56 49.6761 186.571 50.3352C186.56 50.8466 186.764 51.2898 187.185 51.6648C187.616 52.0398 188.384 52.3409 189.486 52.5682L194.531 53.5227C197.145 54.0227 199.088 54.8523 200.361 56.0114C201.645 57.1705 202.293 58.7045 202.304 60.6136C202.293 62.4091 201.759 63.9716 200.702 65.3011C199.656 66.6307 198.224 67.6648 196.406 68.4034C194.588 69.1307 192.509 69.4943 190.168 69.4943C186.429 69.4943 183.48 68.7273 181.321 67.1932C179.173 65.6477 177.946 63.5795 177.639 60.9886L185.872 60.7841C186.054 61.7386 186.526 62.4659 187.287 62.9659C188.048 63.4659 189.02 63.7159 190.202 63.7159C191.27 63.7159 192.139 63.517 192.81 63.1193C193.48 62.7216 193.821 62.1932 193.832 61.5341C193.821 60.9432 193.56 60.4716 193.048 60.1193C192.537 59.7557 191.736 59.4716 190.645 59.267L186.077 58.3977C183.452 57.9205 181.497 57.0398 180.213 55.7557C178.929 54.4602 178.293 52.8125 178.304 50.8125C178.293 49.0625 178.759 47.5682 179.702 46.3295C180.645 45.0795 181.986 44.125 183.724 43.4659C185.463 42.8068 187.514 42.4773 189.878 42.4773C193.423 42.4773 196.219 43.2216 198.264 44.7102C200.31 46.1875 201.44 48.2216 201.656 50.8125Z"/>
</mask>
<path d="M34.3295 46.7386H25.8068C25.6932 45.8636 25.4602 45.0739 25.108 44.3693C24.7557 43.6648 24.2898 43.0625 23.7102 42.5625C23.1307 42.0625 22.4432 41.6818 21.6477 41.4205C20.8636 41.1477 19.9943 41.0114 19.0398 41.0114C17.3466 41.0114 15.8864 41.4261 14.6591 42.2557C13.4432 43.0852 12.5057 44.2841 11.8466 45.8523C11.1989 47.4205 10.875 49.3182 10.875 51.5455C10.875 53.8636 11.2045 55.8068 11.8636 57.375C12.5341 58.9318 13.4716 60.108 14.6761 60.9034C15.892 61.6875 17.3295 62.0795 18.9886 62.0795C19.9205 62.0795 20.767 61.9602 21.5284 61.7216C22.3011 61.483 22.9773 61.1364 23.5568 60.6818C24.1477 60.2159 24.6307 59.6534 25.0057 58.9943C25.392 58.3239 25.6591 57.5682 25.8068 56.7273L34.3295 56.7784C34.1818 58.3239 33.733 59.8466 32.983 61.3466C32.2443 62.8466 31.2273 64.2159 29.9318 65.4545C28.6364 66.6818 27.0568 67.6591 25.1932 68.3864C23.3409 69.1136 21.2159 69.4773 18.8182 69.4773C15.6591 69.4773 12.8295 68.7841 10.3295 67.3977C7.84091 66 5.875 63.9659 4.43182 61.2955C2.98864 58.625 2.26705 55.375 2.26705 51.5455C2.26705 47.7045 3 44.4489 4.46591 41.7784C5.93182 39.108 7.91477 37.0795 10.4148 35.6932C12.9148 34.3068 15.7159 33.6136 18.8182 33.6136C20.9318 33.6136 22.8864 33.9091 24.6818 34.5C26.4773 35.0795 28.0568 35.9318 29.4205 37.0568C30.7841 38.1705 31.892 39.5398 32.7443 41.1648C33.5966 42.7898 34.125 44.6477 34.3295 46.7386ZM47.4929 34.0909V69H39.1577V34.0909H47.4929ZM69.6903 57.6989V42.8182H78.0085V69H70.0653V64.125H69.7926C69.2131 65.7273 68.2244 67 66.8267 67.9432C65.4403 68.875 63.7642 69.3409 61.7983 69.3409C60.0142 69.3409 58.446 68.9318 57.0938 68.1136C55.7415 67.2955 54.6903 66.1534 53.9403 64.6875C53.1903 63.2102 52.8097 61.483 52.7983 59.5057V42.8182H61.1335V57.8693C61.1449 59.2898 61.5199 60.4091 62.2585 61.2273C62.9972 62.0455 64.0028 62.4545 65.2756 62.4545C66.1051 62.4545 66.8494 62.2727 67.5085 61.9091C68.179 61.5341 68.7074 60.9943 69.0938 60.2898C69.4915 59.5739 69.6903 58.7102 69.6903 57.6989ZM106.172 50.8125L98.5185 51.017C98.4389 50.4716 98.223 49.9886 97.8707 49.5682C97.5185 49.1364 97.0582 48.8011 96.4901 48.5625C95.9332 48.3125 95.2855 48.1875 94.5469 48.1875C93.581 48.1875 92.7571 48.3807 92.0753 48.767C91.4048 49.1534 91.0753 49.6761 91.0866 50.3352C91.0753 50.8466 91.2798 51.2898 91.7003 51.6648C92.1321 52.0398 92.8991 52.3409 94.0014 52.5682L99.0469 53.5227C101.661 54.0227 103.604 54.8523 104.876 56.0114C106.161 57.1705 106.808 58.7045 106.82 60.6136C106.808 62.4091 106.274 63.9716 105.217 65.3011C104.172 66.6307 102.74 67.6648 100.922 68.4034C99.1037 69.1307 97.0241 69.4943 94.6832 69.4943C90.9446 69.4943 87.9957 68.7273 85.8366 67.1932C83.6889 65.6477 82.4616 63.5795 82.1548 60.9886L90.3878 60.7841C90.5696 61.7386 91.0412 62.4659 91.8026 62.9659C92.5639 63.4659 93.5355 63.7159 94.7173 63.7159C95.7855 63.7159 96.6548 63.517 97.3253 63.1193C97.9957 62.7216 98.3366 62.1932 98.348 61.5341C98.3366 60.9432 98.0753 60.4716 97.5639 60.1193C97.0526 59.7557 96.2514 59.4716 95.1605 59.267L90.5923 58.3977C87.9673 57.9205 86.0128 57.0398 84.7287 55.7557C83.4446 54.4602 82.8082 52.8125 82.8196 50.8125C82.8082 49.0625 83.2741 47.5682 84.2173 46.3295C85.1605 45.0795 86.5014 44.125 88.2401 43.4659C89.9787 42.8068 92.0298 42.4773 94.3935 42.4773C97.9389 42.4773 100.734 43.2216 102.78 44.7102C104.825 46.1875 105.956 48.2216 106.172 50.8125ZM125.702 42.8182V48.9545H109.185V42.8182H125.702ZM112.645 36.5455H120.98V60.767C120.98 61.2784 121.06 61.6932 121.219 62.0114C121.389 62.3182 121.634 62.5398 121.952 62.6761C122.27 62.8011 122.651 62.8636 123.094 62.8636C123.412 62.8636 123.747 62.8352 124.099 62.7784C124.463 62.7102 124.736 62.6534 124.918 62.608L126.179 68.625C125.781 68.7386 125.219 68.8807 124.491 69.0511C123.776 69.2216 122.918 69.3295 121.918 69.375C119.963 69.4659 118.287 69.2386 116.889 68.6932C115.503 68.1364 114.44 67.2727 113.702 66.1023C112.974 64.9318 112.622 63.4602 112.645 61.6875V36.5455ZM141.912 69.4943C139.173 69.4943 136.81 68.9545 134.821 67.875C132.844 66.7841 131.321 65.233 130.253 63.2216C129.196 61.1989 128.668 58.7955 128.668 56.0114C128.668 53.3068 129.202 50.9432 130.27 48.9205C131.338 46.8864 132.844 45.3068 134.787 44.1818C136.73 43.0455 139.02 42.4773 141.656 42.4773C143.52 42.4773 145.224 42.767 146.77 43.3466C148.315 43.9261 149.651 44.7841 150.776 45.9205C151.901 47.0568 152.776 48.4602 153.401 50.1307C154.026 51.7898 154.338 53.6932 154.338 55.8409V57.9205H131.582V53.0795H146.582C146.571 52.1932 146.361 51.4034 145.952 50.7102C145.543 50.017 144.98 49.4773 144.264 49.0909C143.56 48.6932 142.747 48.4943 141.827 48.4943C140.895 48.4943 140.06 48.7045 139.321 49.125C138.582 49.5341 137.997 50.0966 137.565 50.8125C137.134 51.517 136.906 52.3182 136.884 53.2159V58.142C136.884 59.2102 137.094 60.1477 137.514 60.9545C137.935 61.75 138.531 62.3693 139.304 62.8125C140.077 63.2557 140.997 63.4773 142.065 63.4773C142.804 63.4773 143.474 63.375 144.077 63.1705C144.679 62.9659 145.196 62.6648 145.628 62.267C146.06 61.8693 146.384 61.3807 146.599 60.8011L154.253 61.0227C153.935 62.7386 153.236 64.233 152.156 65.5057C151.088 66.767 149.685 67.75 147.946 68.4545C146.207 69.1477 144.196 69.4943 141.912 69.4943ZM158.595 69V42.8182H166.692V47.5909H166.964C167.442 45.8636 168.22 44.5795 169.3 43.7386C170.379 42.8864 171.635 42.4602 173.067 42.4602C173.453 42.4602 173.851 42.4886 174.26 42.5455C174.669 42.5909 175.05 42.6648 175.402 42.767V50.0114C175.004 49.875 174.482 49.767 173.834 49.6875C173.197 49.608 172.629 49.5682 172.129 49.5682C171.141 49.5682 170.249 49.7898 169.453 50.233C168.669 50.6648 168.05 51.2727 167.595 52.0568C167.152 52.8295 166.93 53.7386 166.93 54.7841V69H158.595ZM201.656 50.8125L194.003 51.017C193.923 50.4716 193.707 49.9886 193.355 49.5682C193.003 49.1364 192.543 48.8011 191.974 48.5625C191.418 48.3125 190.77 48.1875 190.031 48.1875C189.065 48.1875 188.241 48.3807 187.56 48.767C186.889 49.1534 186.56 49.6761 186.571 50.3352C186.56 50.8466 186.764 51.2898 187.185 51.6648C187.616 52.0398 188.384 52.3409 189.486 52.5682L194.531 53.5227C197.145 54.0227 199.088 54.8523 200.361 56.0114C201.645 57.1705 202.293 58.7045 202.304 60.6136C202.293 62.4091 201.759 63.9716 200.702 65.3011C199.656 66.6307 198.224 67.6648 196.406 68.4034C194.588 69.1307 192.509 69.4943 190.168 69.4943C186.429 69.4943 183.48 68.7273 181.321 67.1932C179.173 65.6477 177.946 63.5795 177.639 60.9886L185.872 60.7841C186.054 61.7386 186.526 62.4659 187.287 62.9659C188.048 63.4659 189.02 63.7159 190.202 63.7159C191.27 63.7159 192.139 63.517 192.81 63.1193C193.48 62.7216 193.821 62.1932 193.832 61.5341C193.821 60.9432 193.56 60.4716 193.048 60.1193C192.537 59.7557 191.736 59.4716 190.645 59.267L186.077 58.3977C183.452 57.9205 181.497 57.0398 180.213 55.7557C178.929 54.4602 178.293 52.8125 178.304 50.8125C178.293 49.0625 178.759 47.5682 179.702 46.3295C180.645 45.0795 181.986 44.125 183.724 43.4659C185.463 42.8068 187.514 42.4773 189.878 42.4773C193.423 42.4773 196.219 43.2216 198.264 44.7102C200.31 46.1875 201.44 48.2216 201.656 50.8125Z" fill="#002855"/>
<path d="M34.3295 46.7386V47.7386H35.4321L35.3248 46.6413L34.3295 46.7386ZM25.8068 46.7386L24.8151 46.8674L24.9283 47.7386H25.8068V46.7386ZM25.108 44.3693L24.2135 44.8165L24.2135 44.8165L25.108 44.3693ZM23.7102 42.5625L24.3635 41.8053L24.3635 41.8053L23.7102 42.5625ZM21.6477 41.4205L21.3192 42.365L21.3274 42.3678L21.3356 42.3705L21.6477 41.4205ZM14.6591 42.2557L14.0991 41.4272L14.0955 41.4296L14.6591 42.2557ZM11.8466 45.8523L10.9247 45.4648L10.9223 45.4705L11.8466 45.8523ZM11.8636 57.375L10.9417 57.7625L10.9452 57.7705L11.8636 57.375ZM14.6761 60.9034L14.125 61.7379L14.1342 61.7438L14.6761 60.9034ZM21.5284 61.7216L21.2333 60.7661L21.2293 60.7674L21.5284 61.7216ZM23.5568 60.6818L24.174 61.4687L24.176 61.4671L23.5568 60.6818ZM25.0057 58.9943L24.1392 58.495L24.1365 58.4998L25.0057 58.9943ZM25.8068 56.7273L25.8128 55.7273L24.9681 55.7222L24.8219 56.5542L25.8068 56.7273ZM34.3295 56.7784L35.325 56.8736L35.4291 55.785L34.3355 55.7784L34.3295 56.7784ZM32.983 61.3466L32.0885 60.8994L32.0858 60.9048L32.983 61.3466ZM29.9318 65.4545L30.6196 66.1805L30.6229 66.1773L29.9318 65.4545ZM25.1932 68.3864L24.8296 67.4548L24.8277 67.4555L25.1932 68.3864ZM10.3295 67.3977L9.83984 68.2696L9.84458 68.2723L10.3295 67.3977ZM4.43182 61.2955L5.31157 60.82L4.43182 61.2955ZM4.46591 41.7784L3.5893 41.2972L3.5893 41.2972L4.46591 41.7784ZM24.6818 34.5L24.3692 35.4499L24.3746 35.4517L24.6818 34.5ZM29.4205 37.0568L28.7841 37.8282L28.7879 37.8313L29.4205 37.0568ZM34.3295 45.7386H25.8068V47.7386H34.3295V45.7386ZM26.7985 46.6098C26.6722 45.6372 26.4103 44.7379 26.0024 43.9221L24.2135 44.8165C24.5102 45.4099 24.7142 46.0901 24.8151 46.8674L26.7985 46.6098ZM26.0024 43.9221C25.5927 43.1028 25.046 42.3942 24.3635 41.8053L23.057 43.3197C23.5335 43.7308 23.9186 44.2267 24.2135 44.8165L26.0024 43.9221ZM24.3635 41.8053C23.675 41.2114 22.8688 40.7691 21.9599 40.4704L21.3356 42.3705C22.0176 42.5946 22.5863 42.9136 23.057 43.3197L24.3635 41.8053ZM21.9762 40.476C21.072 40.1614 20.0897 40.0114 19.0398 40.0114V42.0114C19.899 42.0114 20.6553 42.134 21.3192 42.365L21.9762 40.476ZM19.0398 40.0114C17.1764 40.0114 15.5146 40.4704 14.0991 41.4272L15.2191 43.0842C16.2582 42.3818 17.5167 42.0114 19.0398 42.0114V40.0114ZM14.0955 41.4296C12.6968 42.3839 11.6466 43.7473 10.9247 45.4648L12.7685 46.2397C13.3648 44.8209 14.1896 43.7866 15.2227 43.0817L14.0955 41.4296ZM10.9223 45.4705C10.2116 47.1912 9.875 49.2261 9.875 51.5455H11.875C11.875 49.4103 12.1861 47.6497 12.7709 46.234L10.9223 45.4705ZM9.875 51.5455C9.875 53.9514 10.216 56.0358 10.9417 57.7625L12.7855 56.9875C12.193 55.5778 11.875 53.7759 11.875 51.5455H9.875ZM10.9452 57.7705C11.679 59.4745 12.7312 60.8174 14.1251 61.7379L15.2272 60.0689C14.2119 59.3985 13.3892 58.3891 12.7821 56.9795L10.9452 57.7705ZM14.1342 61.7438C15.5344 62.6467 17.1662 63.0795 18.9886 63.0795V61.0795C17.4929 61.0795 16.2497 60.7283 15.2181 60.063L14.1342 61.7438ZM18.9886 63.0795C20.0053 63.0795 20.9547 62.9494 21.8275 62.6758L21.2293 60.7674C20.5794 60.9711 19.8356 61.0795 18.9886 61.0795V63.0795ZM21.8235 62.6771C22.7015 62.4059 23.4893 62.0057 24.174 61.4687L22.9397 59.895C22.4653 60.267 21.9008 60.56 21.2333 60.7661L21.8235 62.6771ZM24.176 61.4671C24.869 60.9207 25.4366 60.2592 25.8748 59.4888L24.1365 58.4998C23.8248 59.0476 23.4265 59.5112 22.9377 59.8965L24.176 61.4671ZM25.8721 59.4936C26.3224 58.7122 26.6259 57.8442 26.7917 56.9003L24.8219 56.5542C24.6923 57.2922 24.4617 57.9355 24.1393 58.495L25.8721 59.4936ZM25.8008 57.7273L34.3235 57.7784L34.3355 55.7784L25.8128 55.7273L25.8008 57.7273ZM33.3341 56.6833C33.199 58.0966 32.7879 59.5006 32.0885 60.8994L33.8774 61.7938C34.678 60.1926 35.1647 58.5511 35.325 56.8736L33.3341 56.6833ZM32.0858 60.9048C31.4025 62.2925 30.4577 63.5682 29.2407 64.7318L30.6229 66.1773C31.9968 64.8636 33.0861 63.4007 33.8801 61.7884L32.0858 60.9048ZM29.2441 64.7286C28.0531 65.8569 26.5875 66.7688 24.8296 67.4548L25.5567 69.3179C27.5262 68.5494 29.2196 67.5067 30.6196 66.1805L29.2441 64.7286ZM24.8277 67.4555C23.113 68.1288 21.1158 68.4773 18.8182 68.4773V70.4773C21.316 70.4773 23.5688 70.0985 25.5587 69.3172L24.8277 67.4555ZM18.8182 68.4773C15.8105 68.4773 13.151 67.8189 10.8145 66.5232L9.84458 68.2723C12.5081 69.7493 15.5076 70.4773 18.8182 70.4773V68.4773ZM10.8192 66.5258C8.50611 65.2267 6.6708 63.3351 5.31157 60.82L3.55207 61.7709C5.0792 64.5967 7.17571 66.7733 9.83985 68.2696L10.8192 66.5258ZM5.31157 60.82C3.96533 58.3289 3.26705 55.2515 3.26705 51.5455H1.26705C1.26705 55.4985 2.01195 58.9211 3.55207 61.7709L5.31157 60.82ZM3.26705 51.5455C3.26705 47.8297 3.97602 44.749 5.34252 42.2596L3.5893 41.2972C2.02398 44.1488 1.26705 47.5794 1.26705 51.5455H3.26705ZM5.34252 42.2596C6.72384 39.7432 8.57575 37.8565 10.8997 36.5677L9.92981 34.8186C7.25379 36.3026 5.1398 38.4727 3.5893 41.2972L5.34252 42.2596ZM10.8997 36.5677C13.2389 35.2706 15.8707 34.6136 18.8182 34.6136V32.6136C15.5611 32.6136 12.5907 33.3431 9.92981 34.8186L10.8997 36.5677ZM18.8182 34.6136C20.838 34.6136 22.6858 34.8958 24.3692 35.4499L24.9944 33.5501C23.0869 32.9223 21.0256 32.6136 18.8182 32.6136V34.6136ZM24.3746 35.4517C26.0581 35.9951 27.5242 36.7888 28.7841 37.8282L30.0568 36.2854C28.5894 35.0748 26.8964 34.164 24.989 33.5483L24.3746 35.4517ZM28.7879 37.8313C30.0428 38.8561 31.0664 40.1185 31.8587 41.6292L33.6299 40.7003C32.7177 38.9611 31.5254 37.4848 30.053 36.2823L28.7879 37.8313ZM31.8587 41.6292C32.6431 43.1248 33.1405 44.8549 33.3343 46.836L35.3248 46.6413C35.1095 44.4405 34.5501 42.4548 33.6299 40.7003L31.8587 41.6292ZM47.4929 34.0909H48.4929V33.0909H47.4929V34.0909ZM47.4929 69V70H48.4929V69H47.4929ZM39.1577 69H38.1577V70H39.1577V69ZM39.1577 34.0909V33.0909H38.1577V34.0909H39.1577ZM46.4929 34.0909V69H48.4929V34.0909H46.4929ZM47.4929 68H39.1577V70H47.4929V68ZM40.1577 69V34.0909H38.1577V69H40.1577ZM39.1577 35.0909H47.4929V33.0909H39.1577V35.0909ZM69.6903 42.8182V41.8182H68.6903V42.8182H69.6903ZM78.0085 42.8182H79.0085V41.8182H78.0085V42.8182ZM78.0085 69V70H79.0085V69H78.0085ZM70.0653 69H69.0653V70H70.0653V69ZM70.0653 64.125H71.0653V63.125H70.0653V64.125ZM69.7926 64.125V63.125H69.0909L68.8522 63.7849L69.7926 64.125ZM66.8267 67.9432L67.3845 68.7731L67.3861 68.7721L66.8267 67.9432ZM57.0938 68.1136L56.5761 68.9692L56.5761 68.9692L57.0938 68.1136ZM53.9403 64.6875L53.0487 65.1402L53.0501 65.143L53.9403 64.6875ZM52.7983 59.5057L51.7983 59.5057L51.7983 59.5114L52.7983 59.5057ZM52.7983 42.8182V41.8182H51.7983V42.8182H52.7983ZM61.1335 42.8182H62.1335V41.8182H61.1335V42.8182ZM61.1335 57.8693L60.1335 57.8693L60.1336 57.8773L61.1335 57.8693ZM62.2585 61.2273L63.0008 60.5572L63.0008 60.5572L62.2585 61.2273ZM67.5085 61.9091L67.9916 62.7847L67.9967 62.7818L67.5085 61.9091ZM69.0938 60.2898L68.2196 59.8041L68.2169 59.8089L69.0938 60.2898ZM70.6903 57.6989V42.8182H68.6903V57.6989H70.6903ZM69.6903 43.8182H78.0085V41.8182H69.6903V43.8182ZM77.0085 42.8182V69H79.0085V42.8182H77.0085ZM78.0085 68H70.0653V70H78.0085V68ZM71.0653 69V64.125H69.0653V69H71.0653ZM70.0653 63.125H69.7926V65.125H70.0653V63.125ZM68.8522 63.7849C68.3439 65.1902 67.4875 66.2909 66.2673 67.1143L67.3861 68.7721C68.9613 67.7091 70.0822 66.2643 70.733 64.4651L68.8522 63.7849ZM66.2689 67.1132C65.0749 67.9157 63.6014 68.3409 61.7983 68.3409V70.3409C63.927 70.3409 65.8058 69.8343 67.3845 68.7731L66.2689 67.1132ZM61.7983 68.3409C60.1726 68.3409 58.7882 67.97 57.6114 67.2581L56.5761 68.9692C58.1039 69.8936 59.8558 70.3409 61.7983 70.3409V68.3409ZM57.6114 67.2581C56.4249 66.5402 55.4997 65.5398 54.8306 64.232L53.0501 65.143C53.881 66.767 55.058 68.0507 56.5761 68.9692L57.6114 67.2581ZM54.832 64.2348C54.1647 62.9204 53.8089 61.3516 53.7983 59.4999L51.7983 59.5114C51.8104 61.6143 52.216 63.5 53.0487 65.1402L54.832 64.2348ZM53.7983 59.5057V42.8182H51.7983V59.5057H53.7983ZM52.7983 43.8182H61.1335V41.8182H52.7983V43.8182ZM60.1335 42.8182V57.8693H62.1335V42.8182H60.1335ZM60.1336 57.8773C60.1463 59.47 60.5707 60.85 61.5163 61.8974L63.0008 60.5572C62.4691 59.9682 62.1435 59.1096 62.1335 57.8613L60.1336 57.8773ZM61.5163 61.8974C62.4746 62.9589 63.7681 63.4545 65.2756 63.4545V61.4545C64.2376 61.4545 63.5198 61.132 63.0008 60.5572L61.5163 61.8974ZM65.2756 63.4545C66.2564 63.4545 67.1699 63.238 67.9916 62.7847L67.0254 61.0335C66.529 61.3074 65.9538 61.4545 65.2756 61.4545V63.4545ZM67.9967 62.7818C68.8386 62.3109 69.4983 61.6317 69.9706 60.7706L68.2169 59.8089C67.9164 60.3569 67.5193 60.7572 67.0204 61.0363L67.9967 62.7818ZM69.9679 60.7754C70.4654 59.8799 70.6903 58.8407 70.6903 57.6989H68.6903C68.6903 58.5798 68.5175 59.2678 68.2196 59.8041L69.9679 60.7754ZM106.172 50.8125L106.199 51.8121L107.256 51.7839L107.168 50.7295L106.172 50.8125ZM98.5185 51.017L97.5289 51.1614L97.6571 52.0404L98.5452 52.0167L98.5185 51.017ZM97.8707 49.5682L97.0958 50.2004L97.1042 50.2104L97.8707 49.5682ZM96.4901 48.5625L96.0805 49.4748L96.0916 49.4798L96.1028 49.4845L96.4901 48.5625ZM92.0753 48.767L91.5823 47.897L91.576 47.9006L92.0753 48.767ZM91.0866 50.3352L92.0864 50.3574L92.0868 50.3377L92.0865 50.318L91.0866 50.3352ZM91.7003 51.6648L91.0346 52.4111L91.0446 52.4198L91.7003 51.6648ZM94.0014 52.5682L93.7995 53.5476L93.8075 53.5492L93.8155 53.5508L94.0014 52.5682ZM99.0469 53.5227L99.2348 52.5405L99.2328 52.5402L99.0469 53.5227ZM104.876 56.0114L104.203 56.7507L104.206 56.7537L104.876 56.0114ZM106.82 60.6136L107.82 60.62L107.82 60.6077L106.82 60.6136ZM105.217 65.3011L104.434 64.6789L104.431 64.683L105.217 65.3011ZM100.922 68.4034L101.293 69.3319L101.298 69.3299L100.922 68.4034ZM85.8366 67.1932L85.2526 68.0049L85.2574 68.0084L85.8366 67.1932ZM82.1548 60.9886L82.13 59.9889L81.0327 60.0162L81.1618 61.1062L82.1548 60.9886ZM90.3878 60.7841L91.3701 60.597L91.2113 59.7633L90.3629 59.7844L90.3878 60.7841ZM91.8026 62.9659L92.3515 62.13L92.3515 62.13L91.8026 62.9659ZM97.3253 63.1193L96.8151 62.2593L96.8151 62.2593L97.3253 63.1193ZM98.348 61.5341L99.3479 61.5513L99.3482 61.5331L99.3478 61.5149L98.348 61.5341ZM97.5639 60.1193L96.9844 60.9343L96.9905 60.9386L96.9966 60.9428L97.5639 60.1193ZM95.1605 59.267L94.9736 60.2494L94.9762 60.2499L95.1605 59.267ZM90.5923 58.3977L90.7793 57.4153L90.7712 57.4139L90.5923 58.3977ZM84.7287 55.7557L84.0185 56.4597L84.0216 56.4628L84.7287 55.7557ZM82.8196 50.8125L83.8197 50.8182L83.8196 50.806L82.8196 50.8125ZM84.2173 46.3295L85.0129 46.9354L85.0156 46.9319L84.2173 46.3295ZM88.2401 43.4659L87.8856 42.5308L87.8856 42.5308L88.2401 43.4659ZM102.78 44.7102L102.191 45.5188L102.194 45.5209L102.78 44.7102ZM106.145 49.8129L98.4918 50.0174L98.5452 52.0167L106.199 51.8121L106.145 49.8129ZM99.508 50.8727C99.4018 50.1448 99.1092 49.4892 98.6373 48.926L97.1042 50.2104C97.3368 50.488 97.476 50.7984 97.5289 51.1614L99.508 50.8727ZM98.6456 48.9361C98.1792 48.3643 97.5802 47.9357 96.8773 47.6405L96.1028 49.4845C96.5363 49.6665 96.8577 49.9084 97.0959 50.2003L98.6456 48.9361ZM96.8996 47.6502C96.1899 47.3316 95.3976 47.1875 94.5469 47.1875V49.1875C95.1734 49.1875 95.6766 49.2934 96.0805 49.4748L96.8996 47.6502ZM94.5469 47.1875C93.448 47.1875 92.4457 47.4078 91.5823 47.897L92.5683 49.6371C93.0686 49.3536 93.714 49.1875 94.5469 49.1875V47.1875ZM91.576 47.9006C90.6561 48.4307 90.068 49.2597 90.0868 50.3525L92.0865 50.318C92.0826 50.0925 92.1536 49.8761 92.5746 49.6335L91.576 47.9006ZM90.0869 50.313C90.0683 51.149 90.4207 51.8635 91.0347 52.4111L92.3659 50.9185C92.139 50.7161 92.0823 50.5442 92.0864 50.3574L90.0869 50.313ZM91.0446 52.4198C91.68 52.9716 92.6626 53.3132 93.7995 53.5476L94.2034 51.5888C93.1357 51.3686 92.5842 51.108 92.356 50.9097L91.0446 52.4198ZM93.8155 53.5508L98.861 54.5053L99.2328 52.5402L94.1873 51.5856L93.8155 53.5508ZM98.859 54.5049C101.382 54.9877 103.122 55.766 104.203 56.7507L105.55 55.272C104.086 53.9385 101.939 53.0578 99.2348 52.5405L98.859 54.5049ZM104.206 56.7537C105.259 57.7039 105.81 58.959 105.82 60.6196L107.82 60.6077C107.807 58.4501 107.062 56.637 105.546 55.269L104.206 56.7537ZM105.82 60.6073C105.81 62.1927 105.344 63.535 104.435 64.6789L106 65.9234C107.205 64.4082 107.807 62.6255 107.82 60.62L105.82 60.6073ZM104.431 64.683C103.509 65.8554 102.229 66.7931 100.545 67.4769L101.298 69.3299C103.251 68.5364 104.834 67.406 106.003 65.9193L104.431 64.683ZM100.55 67.4749C98.8711 68.1467 96.9212 68.4943 94.6832 68.4943V70.4943C97.1271 70.4943 99.3363 70.1147 101.293 69.3319L100.55 67.4749ZM94.6832 68.4943C91.0696 68.4943 88.349 67.7515 86.4159 66.378L85.2574 68.0084C87.6425 69.703 90.8196 70.4943 94.6832 70.4943V68.4943ZM86.4207 66.3815C84.4969 64.9972 83.4212 63.179 83.1479 60.871L81.1618 61.1062C81.5021 63.9801 82.8809 66.2983 85.2526 68.0049L86.4207 66.3815ZM82.1797 61.9883L90.4126 61.7838L90.3629 59.7844L82.13 59.9889L82.1797 61.9883ZM89.4054 60.9712C89.6342 62.172 90.2496 63.1424 91.2536 63.8018L92.3515 62.13C91.8328 61.7894 91.505 61.3053 91.3701 60.597L89.4054 60.9712ZM91.2536 63.8018C92.2201 64.4365 93.3978 64.7159 94.7173 64.7159V62.7159C93.6733 62.7159 92.9077 62.4953 92.3515 62.13L91.2536 63.8018ZM94.7173 64.7159C95.9013 64.7159 96.9637 64.4965 97.8355 63.9794L96.8151 62.2593C96.346 62.5375 95.6698 62.7159 94.7173 62.7159V64.7159ZM97.8355 63.9794C98.7405 63.4425 99.3293 62.6255 99.3479 61.5513L97.3482 61.5169C97.344 61.7609 97.251 62.0007 96.8151 62.2593L97.8355 63.9794ZM99.3478 61.5149C99.3299 60.5831 98.8921 59.8199 98.1312 59.2958L96.9966 60.9428C97.2585 61.1232 97.3434 61.3033 97.3482 61.5533L99.3478 61.5149ZM98.1434 59.3044C97.4557 58.8153 96.485 58.498 95.3448 58.2842L94.9762 60.2499C96.0179 60.4452 96.6495 60.6961 96.9844 60.9343L98.1434 59.3044ZM95.3475 58.2847L90.7793 57.4154L90.4054 59.3801L94.9736 60.2494L95.3475 58.2847ZM90.7712 57.4139C88.2572 56.9568 86.5231 56.1359 85.4358 55.0486L84.0216 56.4628C85.5025 57.9437 87.6775 58.8841 90.4134 59.3816L90.7712 57.4139ZM85.4389 55.0517C84.3608 53.964 83.8096 52.5807 83.8196 50.8182L81.8196 50.8068C81.8069 53.0443 82.5284 54.9564 84.0185 56.4597L85.4389 55.0517ZM83.8196 50.806C83.8095 49.2482 84.2202 47.9764 85.0129 46.9354L83.4217 45.7237C82.3281 47.1599 81.807 48.8768 81.8196 50.819L83.8196 50.806ZM85.0156 46.9319C85.8254 45.8586 86.9988 45.0059 88.5945 44.401L87.8856 42.5308C86.0041 43.2441 84.4956 44.3005 83.4191 45.7272L85.0156 46.9319ZM88.5945 44.401C90.1938 43.7947 92.1195 43.4773 94.3935 43.4773V41.4773C91.9401 41.4773 89.7635 41.8189 87.8856 42.5308L88.5945 44.401ZM94.3935 43.4773C97.81 43.4773 100.373 44.1956 102.191 45.5188L103.368 43.9017C101.095 42.2476 98.0679 41.4773 94.3935 41.4773V43.4773ZM102.194 45.5209C103.995 46.8214 104.983 48.5854 105.175 50.8955L107.168 50.7295C106.929 47.8578 105.656 45.5536 103.365 43.8995L102.194 45.5209ZM125.702 42.8182H126.702V41.8182H125.702V42.8182ZM125.702 48.9545V49.9545H126.702V48.9545H125.702ZM109.185 48.9545H108.185V49.9545H109.185V48.9545ZM109.185 42.8182V41.8182H108.185V42.8182H109.185ZM112.645 36.5455V35.5455H111.645V36.5455H112.645ZM120.98 36.5455H121.98V35.5455H120.98V36.5455ZM121.219 62.0114L120.324 62.4586L120.334 62.478L120.345 62.497L121.219 62.0114ZM121.952 62.6761L121.558 63.5953L121.572 63.6013L121.586 63.6069L121.952 62.6761ZM124.099 62.7784L124.259 63.7656L124.271 63.7636L124.284 63.7613L124.099 62.7784ZM124.918 62.608L125.896 62.4028L125.683 61.3858L124.675 61.6378L124.918 62.608ZM126.179 68.625L126.454 69.5865L127.349 69.3308L127.158 68.4198L126.179 68.625ZM124.491 69.0511L124.263 68.0775L124.26 68.0783L124.491 69.0511ZM121.918 69.375L121.872 68.376L121.871 68.3761L121.918 69.375ZM116.889 68.6932L116.516 69.6212L116.526 69.6248L116.889 68.6932ZM113.702 66.1023L112.852 66.6301L112.856 66.636L113.702 66.1023ZM112.645 61.6875L113.645 61.7003V61.6875H112.645ZM124.702 42.8182V48.9545H126.702V42.8182H124.702ZM125.702 47.9545H109.185V49.9545H125.702V47.9545ZM110.185 48.9545V42.8182H108.185V48.9545H110.185ZM109.185 43.8182H125.702V41.8182H109.185V43.8182ZM112.645 37.5455H120.98V35.5455H112.645V37.5455ZM119.98 36.5455V60.767H121.98V36.5455H119.98ZM119.98 60.767C119.98 61.3705 120.072 61.9543 120.324 62.4586L122.113 61.5641C122.047 61.432 121.98 61.1864 121.98 60.767H119.98ZM120.345 62.497C120.621 62.9946 121.033 63.3703 121.558 63.5953L122.346 61.757C122.234 61.7092 122.157 61.6417 122.093 61.5257L120.345 62.497ZM121.586 63.6069C122.05 63.789 122.561 63.8636 123.094 63.8636V61.8636C122.74 61.8636 122.49 61.8133 122.317 61.7454L121.586 63.6069ZM123.094 63.8636C123.471 63.8636 123.86 63.83 124.259 63.7656L123.94 61.7912C123.634 61.8405 123.353 61.8636 123.094 61.8636V63.8636ZM124.284 63.7613C124.652 63.6922 124.948 63.631 125.16 63.5781L124.675 61.6378C124.523 61.6758 124.274 61.7282 123.915 61.7955L124.284 63.7613ZM123.939 62.8131L125.2 68.8302L127.158 68.4198L125.896 62.4028L123.939 62.8131ZM125.904 67.6635C125.53 67.7705 124.985 67.9083 124.263 68.0775L124.72 70.0248C125.452 69.853 126.033 69.7067 126.454 69.5865L125.904 67.6635ZM124.26 68.0783C123.622 68.2301 122.83 68.3325 121.872 68.376L121.963 70.374C123.005 70.3266 123.929 70.2131 124.723 70.0239L124.26 68.0783ZM121.871 68.3761C120.016 68.4624 118.487 68.2432 117.253 67.7616L116.526 69.6248C118.087 70.2341 119.91 70.4694 121.964 70.3739L121.871 68.3761ZM117.262 67.7652C116.054 67.2802 115.165 66.5468 114.547 65.5686L112.856 66.636C113.716 67.9987 114.951 68.9925 116.517 69.6211L117.262 67.7652ZM114.551 65.5745C113.95 64.6067 113.624 63.3362 113.645 61.7003L111.645 61.6747C111.62 63.5842 111.999 65.257 112.852 66.63L114.551 65.5745ZM113.645 61.6875V36.5455H111.645V61.6875H113.645ZM134.821 67.875L134.338 68.7506L134.344 68.7539L134.821 67.875ZM130.253 63.2216L129.367 63.6847L129.37 63.6906L130.253 63.2216ZM130.27 48.9205L131.154 49.3874L131.155 49.3854L130.27 48.9205ZM134.787 44.1818L135.288 45.0473L135.292 45.045L134.787 44.1818ZM146.77 43.3466L147.121 42.4103L147.121 42.4103L146.77 43.3466ZM153.401 50.1307L152.464 50.4811L152.465 50.4832L153.401 50.1307ZM154.338 57.9205V58.9205H155.338V57.9205H154.338ZM131.582 57.9205H130.582V58.9205H131.582V57.9205ZM131.582 53.0795V52.0795H130.582V53.0795H131.582ZM146.582 53.0795V54.0795H147.595L147.582 53.0667L146.582 53.0795ZM144.264 49.0909L143.773 49.9617L143.781 49.9664L143.789 49.9709L144.264 49.0909ZM139.321 49.125L139.806 49.9999L139.816 49.9941L139.321 49.125ZM137.565 50.8125L138.418 51.3351L138.422 51.329L137.565 50.8125ZM136.884 53.2159L135.884 53.1906L135.884 53.2033V53.2159H136.884ZM137.514 60.9545L136.627 61.4167L136.63 61.4219L137.514 60.9545ZM139.304 62.8125L138.806 63.68L138.806 63.68L139.304 62.8125ZM144.077 63.1705L144.398 64.1173L144.398 64.1173L144.077 63.1705ZM145.628 62.267L146.305 63.0026L146.305 63.0026L145.628 62.267ZM146.599 60.8011L146.628 59.8016L145.912 59.7808L145.662 60.452L146.599 60.8011ZM154.253 61.0227L155.236 61.205L155.449 60.0569L154.282 60.0231L154.253 61.0227ZM152.156 65.5057L151.394 64.8588L151.393 64.8594L152.156 65.5057ZM147.946 68.4545L148.316 69.3835L148.322 69.3813L147.946 68.4545ZM141.912 68.4943C139.305 68.4943 137.112 67.9811 135.298 66.9961L134.344 68.7539C136.507 69.928 139.041 70.4943 141.912 70.4943V68.4943ZM135.304 66.9994C133.498 66.0032 132.114 64.594 131.136 62.7526L129.37 63.6906C130.528 65.8719 132.189 67.565 134.338 68.7506L135.304 66.9994ZM131.139 62.7585C130.172 60.9068 129.668 58.6692 129.668 56.0114H127.668C127.668 58.9217 128.22 61.4909 129.367 63.6847L131.139 62.7585ZM129.668 56.0114C129.668 53.4399 130.175 51.2421 131.154 49.3874L129.386 48.4535C128.229 50.6442 127.668 53.1737 127.668 56.0114H129.668ZM131.155 49.3854C132.138 47.5143 133.512 46.0754 135.288 45.0472L134.286 43.3164C132.175 44.5382 130.538 46.2584 129.385 48.4555L131.155 49.3854ZM135.292 45.045C137.057 44.0126 139.167 43.4773 141.656 43.4773V41.4773C138.873 41.4773 136.403 42.0784 134.282 43.3186L135.292 45.045ZM141.656 43.4773C143.415 43.4773 144.999 43.7506 146.419 44.2829L147.121 42.4103C145.45 41.7835 143.624 41.4773 141.656 41.4773V43.4773ZM146.419 44.2829C147.833 44.8134 149.045 45.5936 150.065 46.624L151.486 45.2169C150.256 43.9746 148.797 43.0388 147.121 42.4103L146.419 44.2829ZM150.065 46.624C151.08 47.6489 151.883 48.9277 152.464 50.4811L154.337 49.7803C153.668 47.9928 152.722 46.4647 151.486 45.2169L150.065 46.624ZM152.465 50.4832C153.039 52.0086 153.338 53.7889 153.338 55.8409H155.338C155.338 53.5975 155.012 51.571 154.336 49.7782L152.465 50.4832ZM153.338 55.8409V57.9205H155.338V55.8409H153.338ZM154.338 56.9205H131.582V58.9205H154.338V56.9205ZM132.582 57.9205V53.0795H130.582V57.9205H132.582ZM131.582 54.0795H146.582V52.0795H131.582V54.0795ZM147.582 53.0667C147.569 52.0241 147.319 51.0603 146.813 50.202L145.09 51.2185C145.402 51.7466 145.573 52.3623 145.582 53.0924L147.582 53.0667ZM146.813 50.202C146.31 49.3503 145.613 48.6827 144.739 48.2109L143.789 49.9709C144.347 50.2718 144.775 50.6838 145.09 51.2185L146.813 50.202ZM144.756 48.2201C143.882 47.7266 142.895 47.4943 141.827 47.4943V49.4943C142.599 49.4943 143.238 49.6598 143.773 49.9617L144.756 48.2201ZM141.827 47.4943C140.739 47.4943 139.73 47.7416 138.826 48.2559L139.816 49.9941C140.389 49.6675 141.051 49.4943 141.827 49.4943V47.4943ZM138.837 48.2502C137.946 48.7432 137.232 49.4286 136.709 50.296L138.422 51.329C138.762 50.7646 139.218 50.3249 139.806 49.9998L138.837 48.2502ZM136.713 50.2899C136.181 51.1573 135.911 52.1328 135.884 53.1906L137.883 53.2412C137.902 52.5036 138.086 51.8768 138.418 51.3351L136.713 50.2899ZM135.884 53.2159V58.142H137.884V53.2159H135.884ZM135.884 58.142C135.884 59.3431 136.121 60.4443 136.627 61.4167L138.401 60.4924C138.067 59.8512 137.884 59.0773 137.884 58.142H135.884ZM136.63 61.4219C137.138 62.3828 137.868 63.1417 138.806 63.68L139.801 61.945C139.195 61.597 138.731 61.1172 138.398 60.4872L136.63 61.4219ZM138.806 63.68C139.758 64.2258 140.857 64.4773 142.065 64.4773V62.4773C141.137 62.4773 140.395 62.2856 139.801 61.945L138.806 63.68ZM142.065 64.4773C142.896 64.4773 143.677 64.3622 144.398 64.1173L143.755 62.2236C143.272 62.3878 142.712 62.4773 142.065 62.4773V64.4773ZM144.398 64.1173C145.121 63.8717 145.763 63.5025 146.305 63.0026L144.95 61.5315C144.629 61.8271 144.236 62.0601 143.755 62.2236L144.398 64.1173ZM146.305 63.0026C146.859 62.4926 147.269 61.8691 147.537 61.1502L145.662 60.452C145.498 60.8922 145.26 61.2461 144.95 61.5315L146.305 63.0026ZM146.57 61.8007L154.224 62.0223L154.282 60.0231L146.628 59.8016L146.57 61.8007ZM153.27 60.8404C152.982 62.393 152.355 63.7252 151.394 64.8588L152.919 66.1525C154.116 64.7407 154.888 63.0842 155.236 61.205L153.27 60.8404ZM151.393 64.8594C150.443 65.9815 149.18 66.8757 147.57 67.5277L148.322 69.3813C150.19 68.6243 151.733 67.5526 152.919 66.1519L151.393 64.8594ZM147.576 67.5257C145.978 68.1628 144.096 68.4943 141.912 68.4943V70.4943C144.296 70.4943 146.437 70.1327 148.316 69.3834L147.576 67.5257ZM158.595 69H157.595V70H158.595V69ZM158.595 42.8182V41.8182H157.595V42.8182H158.595ZM166.692 42.8182H167.692V41.8182H166.692V42.8182ZM166.692 47.5909H165.692V48.5909H166.692V47.5909ZM166.964 47.5909V48.5909H167.726L167.928 47.8572L166.964 47.5909ZM169.3 43.7386L169.914 44.5276L169.919 44.5235L169.3 43.7386ZM174.26 42.5455L174.122 43.5359L174.136 43.5378L174.15 43.5393L174.26 42.5455ZM175.402 42.767H176.402V42.0161L175.681 41.8067L175.402 42.767ZM175.402 50.0114L175.078 50.9573L176.402 51.4114V50.0114H175.402ZM173.834 49.6875L173.71 50.6798L173.712 50.68L173.834 49.6875ZM169.453 50.233L169.936 51.1089L169.94 51.1065L169.453 50.233ZM167.595 52.0568L166.73 51.5553L166.728 51.5593L167.595 52.0568ZM166.93 69V70H167.93V69H166.93ZM159.595 69V42.8182H157.595V69H159.595ZM158.595 43.8182H166.692V41.8182H158.595V43.8182ZM165.692 42.8182V47.5909H167.692V42.8182H165.692ZM166.692 48.5909H166.964V46.5909H166.692V48.5909ZM167.928 47.8572C168.366 46.2732 169.05 45.2006 169.914 44.5275L168.685 42.9497C167.39 43.9584 166.517 45.4541 166.001 47.3246L167.928 47.8572ZM169.919 44.5235C170.815 43.8166 171.85 43.4602 173.067 43.4602V41.4602C171.42 41.4602 169.944 41.9561 168.68 42.9538L169.919 44.5235ZM173.067 43.4602C173.404 43.4602 173.756 43.485 174.122 43.5359L174.398 41.555C173.946 41.4922 173.502 41.4602 173.067 41.4602V43.4602ZM174.15 43.5393C174.508 43.5792 174.832 43.6429 175.123 43.7274L175.681 41.8067C175.267 41.6866 174.83 41.6026 174.37 41.5516L174.15 43.5393ZM174.402 42.767V50.0114H176.402V42.767H174.402ZM175.726 49.0654C175.237 48.8978 174.639 48.7789 173.956 48.695L173.712 50.68C174.324 50.7552 174.771 50.8522 175.078 50.9573L175.726 49.0654ZM173.958 48.6952C173.291 48.6119 172.68 48.5682 172.129 48.5682V50.5682C172.578 50.5682 173.104 50.604 173.71 50.6798L173.958 48.6952ZM172.129 48.5682C170.985 48.5682 169.923 48.8263 168.966 49.3594L169.94 51.1065C170.574 50.7533 171.296 50.5682 172.129 50.5682V48.5682ZM168.971 49.357C168.025 49.8777 167.275 50.616 166.73 51.5553L168.46 52.5583C168.825 51.9295 169.313 51.4519 169.936 51.1089L168.971 49.357ZM166.728 51.5593C166.184 52.5079 165.93 53.5946 165.93 54.7841H167.93C167.93 53.8827 168.12 53.1512 168.463 52.5543L166.728 51.5593ZM165.93 54.7841V69H167.93V54.7841H165.93ZM166.93 68H158.595V70H166.93V68ZM201.656 50.8125L201.683 51.8121L202.741 51.7839L202.653 50.7295L201.656 50.8125ZM194.003 51.017L193.013 51.1614L193.142 52.0404L194.03 52.0167L194.003 51.017ZM193.355 49.5682L192.58 50.2004L192.589 50.2104L193.355 49.5682ZM191.974 48.5625L191.565 49.4748L191.576 49.4798L191.587 49.4845L191.974 48.5625ZM187.56 48.767L187.067 47.897L187.06 47.9006L187.56 48.767ZM186.571 50.3352L187.571 50.3574L187.571 50.3377L187.571 50.318L186.571 50.3352ZM187.185 51.6648L186.519 52.4111L186.529 52.4198L187.185 51.6648ZM189.486 52.5682L189.284 53.5476L189.292 53.5492L189.3 53.5508L189.486 52.5682ZM194.531 53.5227L194.719 52.5405L194.717 52.5402L194.531 53.5227ZM200.361 56.0114L199.687 56.7507L199.691 56.7537L200.361 56.0114ZM202.304 60.6136L203.304 60.62L203.304 60.6077L202.304 60.6136ZM200.702 65.3011L199.919 64.6789L199.916 64.683L200.702 65.3011ZM196.406 68.4034L196.778 69.3319L196.783 69.3299L196.406 68.4034ZM181.321 67.1932L180.737 68.0049L180.742 68.0084L181.321 67.1932ZM177.639 60.9886L177.614 59.9889L176.517 60.0162L176.646 61.1062L177.639 60.9886ZM185.872 60.7841L186.854 60.597L186.696 59.7633L185.847 59.7844L185.872 60.7841ZM187.287 62.9659L187.836 62.13L187.836 62.13L187.287 62.9659ZM192.81 63.1193L192.299 62.2593L192.299 62.2593L192.81 63.1193ZM193.832 61.5341L194.832 61.5513L194.833 61.5331L194.832 61.5149L193.832 61.5341ZM193.048 60.1193L192.469 60.9343L192.475 60.9386L192.481 60.9428L193.048 60.1193ZM190.645 59.267L190.458 60.2494L190.461 60.2499L190.645 59.267ZM186.077 58.3977L186.264 57.4153L186.256 57.4139L186.077 58.3977ZM180.213 55.7557L179.503 56.4597L179.506 56.4628L180.213 55.7557ZM178.304 50.8125L179.304 50.8182L179.304 50.806L178.304 50.8125ZM179.702 46.3295L180.497 46.9354L180.5 46.9319L179.702 46.3295ZM183.724 43.4659L183.37 42.5308L183.37 42.5308L183.724 43.4659ZM198.264 44.7102L197.676 45.5188L197.679 45.5209L198.264 44.7102ZM201.63 49.8129L193.976 50.0174L194.03 52.0167L201.683 51.8121L201.63 49.8129ZM194.992 50.8727C194.886 50.1448 194.594 49.4892 194.122 48.926L192.589 50.2104C192.821 50.488 192.96 50.7984 193.013 51.1614L194.992 50.8727ZM194.13 48.9361C193.664 48.3643 193.065 47.9357 192.362 47.6405L191.587 49.4845C192.021 49.6665 192.342 49.9084 192.58 50.2003L194.13 48.9361ZM192.384 47.6502C191.674 47.3316 190.882 47.1875 190.031 47.1875V49.1875C190.658 49.1875 191.161 49.2934 191.565 49.4748L192.384 47.6502ZM190.031 47.1875C188.932 47.1875 187.93 47.4078 187.067 47.897L188.053 49.6371C188.553 49.3536 189.198 49.1875 190.031 49.1875V47.1875ZM187.06 47.9006C186.14 48.4307 185.552 49.2597 185.571 50.3525L187.571 50.318C187.567 50.0925 187.638 49.8761 188.059 49.6335L187.06 47.9006ZM185.571 50.313C185.553 51.149 185.905 51.8635 186.519 52.4111L187.85 50.9185C187.623 50.7161 187.567 50.5442 187.571 50.3574L185.571 50.313ZM186.529 52.4198C187.164 52.9716 188.147 53.3132 189.284 53.5476L189.688 51.5888C188.62 51.3686 188.069 51.108 187.84 50.9097L186.529 52.4198ZM189.3 53.5508L194.345 54.5053L194.717 52.5402L189.672 51.5856L189.3 53.5508ZM194.343 54.5049C196.867 54.9877 198.606 55.766 199.687 56.7507L201.034 55.272C199.57 53.9385 197.423 53.0578 194.719 52.5405L194.343 54.5049ZM199.691 56.7537C200.743 57.7039 201.294 58.959 201.304 60.6196L203.304 60.6077C203.291 58.4501 202.546 56.637 201.031 55.269L199.691 56.7537ZM201.304 60.6073C201.294 62.1927 200.828 63.535 199.919 64.6789L201.485 65.9234C202.689 64.4082 203.291 62.6255 203.304 60.62L201.304 60.6073ZM199.916 64.683C198.994 65.8554 197.713 66.7931 196.03 67.4769L196.783 69.3299C198.736 68.5364 200.319 67.406 201.488 65.9193L199.916 64.683ZM196.035 67.4749C194.355 68.1467 192.406 68.4943 190.168 68.4943V70.4943C192.611 70.4943 194.821 70.1147 196.778 69.3319L196.035 67.4749ZM190.168 68.4943C186.554 68.4943 183.833 67.7515 181.9 66.378L180.742 68.0084C183.127 69.703 186.304 70.4943 190.168 70.4943V68.4943ZM181.905 66.3815C179.981 64.9972 178.906 63.179 178.632 60.871L176.646 61.1062C176.986 63.9801 178.365 66.2983 180.737 68.0049L181.905 66.3815ZM177.664 61.9883L185.897 61.7838L185.847 59.7844L177.614 59.9889L177.664 61.9883ZM184.89 60.9712C185.119 62.172 185.734 63.1424 186.738 63.8018L187.836 62.13C187.317 61.7894 186.989 61.3053 186.854 60.597L184.89 60.9712ZM186.738 63.8018C187.705 64.4365 188.882 64.7159 190.202 64.7159V62.7159C189.158 62.7159 188.392 62.4953 187.836 62.13L186.738 63.8018ZM190.202 64.7159C191.386 64.7159 192.448 64.4965 193.32 63.9794L192.299 62.2593C191.83 62.5375 191.154 62.7159 190.202 62.7159V64.7159ZM193.32 63.9794C194.225 63.4425 194.814 62.6255 194.832 61.5513L192.833 61.5169C192.828 61.7609 192.735 62.0007 192.299 62.2593L193.32 63.9794ZM194.832 61.5149C194.814 60.5831 194.376 59.8199 193.616 59.2958L192.481 60.9428C192.743 61.1232 192.828 61.3033 192.833 61.5533L194.832 61.5149ZM193.628 59.3044C192.94 58.8153 191.969 58.498 190.829 58.2842L190.461 60.2499C191.502 60.4452 192.134 60.6961 192.469 60.9343L193.628 59.3044ZM190.832 58.2847L186.264 57.4154L185.89 59.3801L190.458 60.2494L190.832 58.2847ZM186.256 57.4139C183.742 56.9568 182.007 56.1359 180.92 55.0486L179.506 56.4628C180.987 57.9437 183.162 58.8841 185.898 59.3816L186.256 57.4139ZM180.923 55.0517C179.845 53.964 179.294 52.5807 179.304 50.8182L177.304 50.8068C177.291 53.0443 178.013 54.9564 179.503 56.4597L180.923 55.0517ZM179.304 50.806C179.294 49.2482 179.705 47.9764 180.497 46.9354L178.906 45.7237C177.812 47.1599 177.291 48.8768 177.304 50.819L179.304 50.806ZM180.5 46.9319C181.31 45.8586 182.483 45.0059 184.079 44.401L183.37 42.5308C181.488 43.2441 179.98 44.3005 178.903 45.7272L180.5 46.9319ZM184.079 44.401C185.678 43.7947 187.604 43.4773 189.878 43.4773V41.4773C187.425 41.4773 185.248 41.8189 183.37 42.5308L184.079 44.401ZM189.878 43.4773C193.294 43.4773 195.858 44.1956 197.676 45.5188L198.853 43.9017C196.58 42.2476 193.552 41.4773 189.878 41.4773V43.4773ZM197.679 45.5209C199.479 46.8214 200.467 48.5854 200.66 50.8955L202.653 50.7295C202.413 47.8578 201.14 45.5536 198.85 43.8995L197.679 45.5209Z" fill="black" mask="url(#path-1-outside-1_115_2)"/>
<path d="M34.3295 46.7386V47.7386H35.4321L35.3248 46.6413L34.3295 46.7386ZM25.8068 46.7386L24.8151 46.8674L24.9283 47.7386H25.8068V46.7386ZM25.108 44.3693L24.2135 44.8165L24.2135 44.8165L25.108 44.3693ZM23.7102 42.5625L24.3635 41.8053L24.3635 41.8053L23.7102 42.5625ZM21.6477 41.4205L21.3192 42.365L21.3274 42.3678L21.3356 42.3705L21.6477 41.4205ZM14.6591 42.2557L14.0991 41.4272L14.0955 41.4296L14.6591 42.2557ZM11.8466 45.8523L10.9247 45.4648L10.9223 45.4705L11.8466 45.8523ZM11.8636 57.375L10.9417 57.7625L10.9452 57.7705L11.8636 57.375ZM14.6761 60.9034L14.125 61.7379L14.1342 61.7438L14.6761 60.9034ZM21.5284 61.7216L21.2333 60.7661L21.2293 60.7674L21.5284 61.7216ZM23.5568 60.6818L24.174 61.4687L24.176 61.4671L23.5568 60.6818ZM25.0057 58.9943L24.1392 58.495L24.1365 58.4998L25.0057 58.9943ZM25.8068 56.7273L25.8128 55.7273L24.9681 55.7222L24.8219 56.5542L25.8068 56.7273ZM34.3295 56.7784L35.325 56.8736L35.4291 55.785L34.3355 55.7784L34.3295 56.7784ZM32.983 61.3466L32.0885 60.8994L32.0858 60.9048L32.983 61.3466ZM29.9318 65.4545L30.6196 66.1805L30.6229 66.1773L29.9318 65.4545ZM25.1932 68.3864L24.8296 67.4548L24.8277 67.4555L25.1932 68.3864ZM10.3295 67.3977L9.83984 68.2696L9.84458 68.2723L10.3295 67.3977ZM4.43182 61.2955L5.31157 60.82L4.43182 61.2955ZM4.46591 41.7784L3.5893 41.2972L3.5893 41.2972L4.46591 41.7784ZM24.6818 34.5L24.3692 35.4499L24.3746 35.4517L24.6818 34.5ZM29.4205 37.0568L28.7841 37.8282L28.7879 37.8313L29.4205 37.0568ZM34.3295 45.7386H25.8068V47.7386H34.3295V45.7386ZM26.7985 46.6098C26.6722 45.6372 26.4103 44.7379 26.0024 43.9221L24.2135 44.8165C24.5102 45.4099 24.7142 46.0901 24.8151 46.8674L26.7985 46.6098ZM26.0024 43.9221C25.5927 43.1028 25.046 42.3942 24.3635 41.8053L23.057 43.3197C23.5335 43.7308 23.9186 44.2267 24.2135 44.8165L26.0024 43.9221ZM24.3635 41.8053C23.675 41.2114 22.8688 40.7691 21.9599 40.4704L21.3356 42.3705C22.0176 42.5946 22.5863 42.9136 23.057 43.3197L24.3635 41.8053ZM21.9762 40.476C21.072 40.1614 20.0897 40.0114 19.0398 40.0114V42.0114C19.899 42.0114 20.6553 42.134 21.3192 42.365L21.9762 40.476ZM19.0398 40.0114C17.1764 40.0114 15.5146 40.4704 14.0991 41.4272L15.2191 43.0842C16.2582 42.3818 17.5167 42.0114 19.0398 42.0114V40.0114ZM14.0955 41.4296C12.6968 42.3839 11.6466 43.7473 10.9247 45.4648L12.7685 46.2397C13.3648 44.8209 14.1896 43.7866 15.2227 43.0817L14.0955 41.4296ZM10.9223 45.4705C10.2116 47.1912 9.875 49.2261 9.875 51.5455H11.875C11.875 49.4103 12.1861 47.6497 12.7709 46.234L10.9223 45.4705ZM9.875 51.5455C9.875 53.9514 10.216 56.0358 10.9417 57.7625L12.7855 56.9875C12.193 55.5778 11.875 53.7759 11.875 51.5455H9.875ZM10.9452 57.7705C11.679 59.4745 12.7312 60.8174 14.1251 61.7379L15.2272 60.0689C14.2119 59.3985 13.3892 58.3891 12.7821 56.9795L10.9452 57.7705ZM14.1342 61.7438C15.5344 62.6467 17.1662 63.0795 18.9886 63.0795V61.0795C17.4929 61.0795 16.2497 60.7283 15.2181 60.063L14.1342 61.7438ZM18.9886 63.0795C20.0053 63.0795 20.9547 62.9494 21.8275 62.6758L21.2293 60.7674C20.5794 60.9711 19.8356 61.0795 18.9886 61.0795V63.0795ZM21.8235 62.6771C22.7015 62.4059 23.4893 62.0057 24.174 61.4687L22.9397 59.895C22.4653 60.267 21.9008 60.56 21.2333 60.7661L21.8235 62.6771ZM24.176 61.4671C24.869 60.9207 25.4366 60.2592 25.8748 59.4888L24.1365 58.4998C23.8248 59.0476 23.4265 59.5112 22.9377 59.8965L24.176 61.4671ZM25.8721 59.4936C26.3224 58.7122 26.6259 57.8442 26.7917 56.9003L24.8219 56.5542C24.6923 57.2922 24.4617 57.9355 24.1393 58.495L25.8721 59.4936ZM25.8008 57.7273L34.3235 57.7784L34.3355 55.7784L25.8128 55.7273L25.8008 57.7273ZM33.3341 56.6833C33.199 58.0966 32.7879 59.5006 32.0885 60.8994L33.8774 61.7938C34.678 60.1926 35.1647 58.5511 35.325 56.8736L33.3341 56.6833ZM32.0858 60.9048C31.4025 62.2925 30.4577 63.5682 29.2407 64.7318L30.6229 66.1773C31.9968 64.8636 33.0861 63.4007 33.8801 61.7884L32.0858 60.9048ZM29.2441 64.7286C28.0531 65.8569 26.5875 66.7688 24.8296 67.4548L25.5567 69.3179C27.5262 68.5494 29.2196 67.5067 30.6196 66.1805L29.2441 64.7286ZM24.8277 67.4555C23.113 68.1288 21.1158 68.4773 18.8182 68.4773V70.4773C21.316 70.4773 23.5688 70.0985 25.5587 69.3172L24.8277 67.4555ZM18.8182 68.4773C15.8105 68.4773 13.151 67.8189 10.8145 66.5232L9.84458 68.2723C12.5081 69.7493 15.5076 70.4773 18.8182 70.4773V68.4773ZM10.8192 66.5258C8.50611 65.2267 6.6708 63.3351 5.31157 60.82L3.55207 61.7709C5.0792 64.5967 7.17571 66.7733 9.83985 68.2696L10.8192 66.5258ZM5.31157 60.82C3.96533 58.3289 3.26705 55.2515 3.26705 51.5455H1.26705C1.26705 55.4985 2.01195 58.9211 3.55207 61.7709L5.31157 60.82ZM3.26705 51.5455C3.26705 47.8297 3.97602 44.749 5.34252 42.2596L3.5893 41.2972C2.02398 44.1488 1.26705 47.5794 1.26705 51.5455H3.26705ZM5.34252 42.2596C6.72384 39.7432 8.57575 37.8565 10.8997 36.5677L9.92981 34.8186C7.25379 36.3026 5.1398 38.4727 3.5893 41.2972L5.34252 42.2596ZM10.8997 36.5677C13.2389 35.2706 15.8707 34.6136 18.8182 34.6136V32.6136C15.5611 32.6136 12.5907 33.3431 9.92981 34.8186L10.8997 36.5677ZM18.8182 34.6136C20.838 34.6136 22.6858 34.8958 24.3692 35.4499L24.9944 33.5501C23.0869 32.9223 21.0256 32.6136 18.8182 32.6136V34.6136ZM24.3746 35.4517C26.0581 35.9951 27.5242 36.7888 28.7841 37.8282L30.0568 36.2854C28.5894 35.0748 26.8964 34.164 24.989 33.5483L24.3746 35.4517ZM28.7879 37.8313C30.0428 38.8561 31.0664 40.1185 31.8587 41.6292L33.6299 40.7003C32.7177 38.9611 31.5254 37.4848 30.053 36.2823L28.7879 37.8313ZM31.8587 41.6292C32.6431 43.1248 33.1405 44.8549 33.3343 46.836L35.3248 46.6413C35.1095 44.4405 34.5501 42.4548 33.6299 40.7003L31.8587 41.6292ZM47.4929 34.0909H48.4929V33.0909H47.4929V34.0909ZM47.4929 69V70H48.4929V69H47.4929ZM39.1577 69H38.1577V70H39.1577V69ZM39.1577 34.0909V33.0909H38.1577V34.0909H39.1577ZM46.4929 34.0909V69H48.4929V34.0909H46.4929ZM47.4929 68H39.1577V70H47.4929V68ZM40.1577 69V34.0909H38.1577V69H40.1577ZM39.1577 35.0909H47.4929V33.0909H39.1577V35.0909ZM69.6903 42.8182V41.8182H68.6903V42.8182H69.6903ZM78.0085 42.8182H79.0085V41.8182H78.0085V42.8182ZM78.0085 69V70H79.0085V69H78.0085ZM70.0653 69H69.0653V70H70.0653V69ZM70.0653 64.125H71.0653V63.125H70.0653V64.125ZM69.7926 64.125V63.125H69.0909L68.8522 63.7849L69.7926 64.125ZM66.8267 67.9432L67.3845 68.7731L67.3861 68.7721L66.8267 67.9432ZM57.0938 68.1136L56.5761 68.9692L56.5761 68.9692L57.0938 68.1136ZM53.9403 64.6875L53.0487 65.1402L53.0501 65.143L53.9403 64.6875ZM52.7983 59.5057L51.7983 59.5057L51.7983 59.5114L52.7983 59.5057ZM52.7983 42.8182V41.8182H51.7983V42.8182H52.7983ZM61.1335 42.8182H62.1335V41.8182H61.1335V42.8182ZM61.1335 57.8693L60.1335 57.8693L60.1336 57.8773L61.1335 57.8693ZM62.2585 61.2273L63.0008 60.5572L63.0008 60.5572L62.2585 61.2273ZM67.5085 61.9091L67.9916 62.7847L67.9967 62.7818L67.5085 61.9091ZM69.0938 60.2898L68.2196 59.8041L68.2169 59.8089L69.0938 60.2898ZM70.6903 57.6989V42.8182H68.6903V57.6989H70.6903ZM69.6903 43.8182H78.0085V41.8182H69.6903V43.8182ZM77.0085 42.8182V69H79.0085V42.8182H77.0085ZM78.0085 68H70.0653V70H78.0085V68ZM71.0653 69V64.125H69.0653V69H71.0653ZM70.0653 63.125H69.7926V65.125H70.0653V63.125ZM68.8522 63.7849C68.3439 65.1902 67.4875 66.2909 66.2673 67.1143L67.3861 68.7721C68.9613 67.7091 70.0822 66.2643 70.733 64.4651L68.8522 63.7849ZM66.2689 67.1132C65.0749 67.9157 63.6014 68.3409 61.7983 68.3409V70.3409C63.927 70.3409 65.8058 69.8343 67.3845 68.7731L66.2689 67.1132ZM61.7983 68.3409C60.1726 68.3409 58.7882 67.97 57.6114 67.2581L56.5761 68.9692C58.1039 69.8936 59.8558 70.3409 61.7983 70.3409V68.3409ZM57.6114 67.2581C56.4249 66.5402 55.4997 65.5398 54.8306 64.232L53.0501 65.143C53.881 66.767 55.058 68.0507 56.5761 68.9692L57.6114 67.2581ZM54.832 64.2348C54.1647 62.9204 53.8089 61.3516 53.7983 59.4999L51.7983 59.5114C51.8104 61.6143 52.216 63.5 53.0487 65.1402L54.832 64.2348ZM53.7983 59.5057V42.8182H51.7983V59.5057H53.7983ZM52.7983 43.8182H61.1335V41.8182H52.7983V43.8182ZM60.1335 42.8182V57.8693H62.1335V42.8182H60.1335ZM60.1336 57.8773C60.1463 59.47 60.5707 60.85 61.5163 61.8974L63.0008 60.5572C62.4691 59.9682 62.1435 59.1096 62.1335 57.8613L60.1336 57.8773ZM61.5163 61.8974C62.4746 62.9589 63.7681 63.4545 65.2756 63.4545V61.4545C64.2376 61.4545 63.5198 61.132 63.0008 60.5572L61.5163 61.8974ZM65.2756 63.4545C66.2564 63.4545 67.1699 63.238 67.9916 62.7847L67.0254 61.0335C66.529 61.3074 65.9538 61.4545 65.2756 61.4545V63.4545ZM67.9967 62.7818C68.8386 62.3109 69.4983 61.6317 69.9706 60.7706L68.2169 59.8089C67.9164 60.3569 67.5193 60.7572 67.0204 61.0363L67.9967 62.7818ZM69.9679 60.7754C70.4654 59.8799 70.6903 58.8407 70.6903 57.6989H68.6903C68.6903 58.5798 68.5175 59.2678 68.2196 59.8041L69.9679 60.7754ZM106.172 50.8125L106.199 51.8121L107.256 51.7839L107.168 50.7295L106.172 50.8125ZM98.5185 51.017L97.5289 51.1614L97.6571 52.0404L98.5452 52.0167L98.5185 51.017ZM97.8707 49.5682L97.0958 50.2004L97.1042 50.2104L97.8707 49.5682ZM96.4901 48.5625L96.0805 49.4748L96.0916 49.4798L96.1028 49.4845L96.4901 48.5625ZM92.0753 48.767L91.5823 47.897L91.576 47.9006L92.0753 48.767ZM91.0866 50.3352L92.0864 50.3574L92.0868 50.3377L92.0865 50.318L91.0866 50.3352ZM91.7003 51.6648L91.0346 52.4111L91.0446 52.4198L91.7003 51.6648ZM94.0014 52.5682L93.7995 53.5476L93.8075 53.5492L93.8155 53.5508L94.0014 52.5682ZM99.0469 53.5227L99.2348 52.5405L99.2328 52.5402L99.0469 53.5227ZM104.876 56.0114L104.203 56.7507L104.206 56.7537L104.876 56.0114ZM106.82 60.6136L107.82 60.62L107.82 60.6077L106.82 60.6136ZM105.217 65.3011L104.434 64.6789L104.431 64.683L105.217 65.3011ZM100.922 68.4034L101.293 69.3319L101.298 69.3299L100.922 68.4034ZM85.8366 67.1932L85.2526 68.0049L85.2574 68.0084L85.8366 67.1932ZM82.1548 60.9886L82.13 59.9889L81.0327 60.0162L81.1618 61.1062L82.1548 60.9886ZM90.3878 60.7841L91.3701 60.597L91.2113 59.7633L90.3629 59.7844L90.3878 60.7841ZM91.8026 62.9659L92.3515 62.13L92.3515 62.13L91.8026 62.9659ZM97.3253 63.1193L96.8151 62.2593L96.8151 62.2593L97.3253 63.1193ZM98.348 61.5341L99.3479 61.5513L99.3482 61.5331L99.3478 61.5149L98.348 61.5341ZM97.5639 60.1193L96.9844 60.9343L96.9905 60.9386L96.9966 60.9428L97.5639 60.1193ZM95.1605 59.267L94.9736 60.2494L94.9762 60.2499L95.1605 59.267ZM90.5923 58.3977L90.7793 57.4153L90.7712 57.4139L90.5923 58.3977ZM84.7287 55.7557L84.0185 56.4597L84.0216 56.4628L84.7287 55.7557ZM82.8196 50.8125L83.8197 50.8182L83.8196 50.806L82.8196 50.8125ZM84.2173 46.3295L85.0129 46.9354L85.0156 46.9319L84.2173 46.3295ZM88.2401 43.4659L87.8856 42.5308L87.8856 42.5308L88.2401 43.4659ZM102.78 44.7102L102.191 45.5188L102.194 45.5209L102.78 44.7102ZM106.145 49.8129L98.4918 50.0174L98.5452 52.0167L106.199 51.8121L106.145 49.8129ZM99.508 50.8727C99.4018 50.1448 99.1092 49.4892 98.6373 48.926L97.1042 50.2104C97.3368 50.488 97.476 50.7984 97.5289 51.1614L99.508 50.8727ZM98.6456 48.9361C98.1792 48.3643 97.5802 47.9357 96.8773 47.6405L96.1028 49.4845C96.5363 49.6665 96.8577 49.9084 97.0959 50.2003L98.6456 48.9361ZM96.8996 47.6502C96.1899 47.3316 95.3976 47.1875 94.5469 47.1875V49.1875C95.1734 49.1875 95.6766 49.2934 96.0805 49.4748L96.8996 47.6502ZM94.5469 47.1875C93.448 47.1875 92.4457 47.4078 91.5823 47.897L92.5683 49.6371C93.0686 49.3536 93.714 49.1875 94.5469 49.1875V47.1875ZM91.576 47.9006C90.6561 48.4307 90.068 49.2597 90.0868 50.3525L92.0865 50.318C92.0826 50.0925 92.1536 49.8761 92.5746 49.6335L91.576 47.9006ZM90.0869 50.313C90.0683 51.149 90.4207 51.8635 91.0347 52.4111L92.3659 50.9185C92.139 50.7161 92.0823 50.5442 92.0864 50.3574L90.0869 50.313ZM91.0446 52.4198C91.68 52.9716 92.6626 53.3132 93.7995 53.5476L94.2034 51.5888C93.1357 51.3686 92.5842 51.108 92.356 50.9097L91.0446 52.4198ZM93.8155 53.5508L98.861 54.5053L99.2328 52.5402L94.1873 51.5856L93.8155 53.5508ZM98.859 54.5049C101.382 54.9877 103.122 55.766 104.203 56.7507L105.55 55.272C104.086 53.9385 101.939 53.0578 99.2348 52.5405L98.859 54.5049ZM104.206 56.7537C105.259 57.7039 105.81 58.959 105.82 60.6196L107.82 60.6077C107.807 58.4501 107.062 56.637 105.546 55.269L104.206 56.7537ZM105.82 60.6073C105.81 62.1927 105.344 63.535 104.435 64.6789L106 65.9234C107.205 64.4082 107.807 62.6255 107.82 60.62L105.82 60.6073ZM104.431 64.683C103.509 65.8554 102.229 66.7931 100.545 67.4769L101.298 69.3299C103.251 68.5364 104.834 67.406 106.003 65.9193L104.431 64.683ZM100.55 67.4749C98.8711 68.1467 96.9212 68.4943 94.6832 68.4943V70.4943C97.1271 70.4943 99.3363 70.1147 101.293 69.3319L100.55 67.4749ZM94.6832 68.4943C91.0696 68.4943 88.349 67.7515 86.4159 66.378L85.2574 68.0084C87.6425 69.703 90.8196 70.4943 94.6832 70.4943V68.4943ZM86.4207 66.3815C84.4969 64.9972 83.4212 63.179 83.1479 60.871L81.1618 61.1062C81.5021 63.9801 82.8809 66.2983 85.2526 68.0049L86.4207 66.3815ZM82.1797 61.9883L90.4126 61.7838L90.3629 59.7844L82.13 59.9889L82.1797 61.9883ZM89.4054 60.9712C89.6342 62.172 90.2496 63.1424 91.2536 63.8018L92.3515 62.13C91.8328 61.7894 91.505 61.3053 91.3701 60.597L89.4054 60.9712ZM91.2536 63.8018C92.2201 64.4365 93.3978 64.7159 94.7173 64.7159V62.7159C93.6733 62.7159 92.9077 62.4953 92.3515 62.13L91.2536 63.8018ZM94.7173 64.7159C95.9013 64.7159 96.9637 64.4965 97.8355 63.9794L96.8151 62.2593C96.346 62.5375 95.6698 62.7159 94.7173 62.7159V64.7159ZM97.8355 63.9794C98.7405 63.4425 99.3293 62.6255 99.3479 61.5513L97.3482 61.5169C97.344 61.7609 97.251 62.0007 96.8151 62.2593L97.8355 63.9794ZM99.3478 61.5149C99.3299 60.5831 98.8921 59.8199 98.1312 59.2958L96.9966 60.9428C97.2585 61.1232 97.3434 61.3033 97.3482 61.5533L99.3478 61.5149ZM98.1434 59.3044C97.4557 58.8153 96.485 58.498 95.3448 58.2842L94.9762 60.2499C96.0179 60.4452 96.6495 60.6961 96.9844 60.9343L98.1434 59.3044ZM95.3475 58.2847L90.7793 57.4154L90.4054 59.3801L94.9736 60.2494L95.3475 58.2847ZM90.7712 57.4139C88.2572 56.9568 86.5231 56.1359 85.4358 55.0486L84.0216 56.4628C85.5025 57.9437 87.6775 58.8841 90.4134 59.3816L90.7712 57.4139ZM85.4389 55.0517C84.3608 53.964 83.8096 52.5807 83.8196 50.8182L81.8196 50.8068C81.8069 53.0443 82.5284 54.9564 84.0185 56.4597L85.4389 55.0517ZM83.8196 50.806C83.8095 49.2482 84.2202 47.9764 85.0129 46.9354L83.4217 45.7237C82.3281 47.1599 81.807 48.8768 81.8196 50.819L83.8196 50.806ZM85.0156 46.9319C85.8254 45.8586 86.9988 45.0059 88.5945 44.401L87.8856 42.5308C86.0041 43.2441 84.4956 44.3005 83.4191 45.7272L85.0156 46.9319ZM88.5945 44.401C90.1938 43.7947 92.1195 43.4773 94.3935 43.4773V41.4773C91.9401 41.4773 89.7635 41.8189 87.8856 42.5308L88.5945 44.401ZM94.3935 43.4773C97.81 43.4773 100.373 44.1956 102.191 45.5188L103.368 43.9017C101.095 42.2476 98.0679 41.4773 94.3935 41.4773V43.4773ZM102.194 45.5209C103.995 46.8214 104.983 48.5854 105.175 50.8955L107.168 50.7295C106.929 47.8578 105.656 45.5536 103.365 43.8995L102.194 45.5209ZM125.702 42.8182H126.702V41.8182H125.702V42.8182ZM125.702 48.9545V49.9545H126.702V48.9545H125.702ZM109.185 48.9545H108.185V49.9545H109.185V48.9545ZM109.185 42.8182V41.8182H108.185V42.8182H109.185ZM112.645 36.5455V35.5455H111.645V36.5455H112.645ZM120.98 36.5455H121.98V35.5455H120.98V36.5455ZM121.219 62.0114L120.324 62.4586L120.334 62.478L120.345 62.497L121.219 62.0114ZM121.952 62.6761L121.558 63.5953L121.572 63.6013L121.586 63.6069L121.952 62.6761ZM124.099 62.7784L124.259 63.7656L124.271 63.7636L124.284 63.7613L124.099 62.7784ZM124.918 62.608L125.896 62.4028L125.683 61.3858L124.675 61.6378L124.918 62.608ZM126.179 68.625L126.454 69.5865L127.349 69.3308L127.158 68.4198L126.179 68.625ZM124.491 69.0511L124.263 68.0775L124.26 68.0783L124.491 69.0511ZM121.918 69.375L121.872 68.376L121.871 68.3761L121.918 69.375ZM116.889 68.6932L116.516 69.6212L116.526 69.6248L116.889 68.6932ZM113.702 66.1023L112.852 66.6301L112.856 66.636L113.702 66.1023ZM112.645 61.6875L113.645 61.7003V61.6875H112.645ZM124.702 42.8182V48.9545H126.702V42.8182H124.702ZM125.702 47.9545H109.185V49.9545H125.702V47.9545ZM110.185 48.9545V42.8182H108.185V48.9545H110.185ZM109.185 43.8182H125.702V41.8182H109.185V43.8182ZM112.645 37.5455H120.98V35.5455H112.645V37.5455ZM119.98 36.5455V60.767H121.98V36.5455H119.98ZM119.98 60.767C119.98 61.3705 120.072 61.9543 120.324 62.4586L122.113 61.5641C122.047 61.432 121.98 61.1864 121.98 60.767H119.98ZM120.345 62.497C120.621 62.9946 121.033 63.3703 121.558 63.5953L122.346 61.757C122.234 61.7092 122.157 61.6417 122.093 61.5257L120.345 62.497ZM121.586 63.6069C122.05 63.789 122.561 63.8636 123.094 63.8636V61.8636C122.74 61.8636 122.49 61.8133 122.317 61.7454L121.586 63.6069ZM123.094 63.8636C123.471 63.8636 123.86 63.83 124.259 63.7656L123.94 61.7912C123.634 61.8405 123.353 61.8636 123.094 61.8636V63.8636ZM124.284 63.7613C124.652 63.6922 124.948 63.631 125.16 63.5781L124.675 61.6378C124.523 61.6758 124.274 61.7282 123.915 61.7955L124.284 63.7613ZM123.939 62.8131L125.2 68.8302L127.158 68.4198L125.896 62.4028L123.939 62.8131ZM125.904 67.6635C125.53 67.7705 124.985 67.9083 124.263 68.0775L124.72 70.0248C125.452 69.853 126.033 69.7067 126.454 69.5865L125.904 67.6635ZM124.26 68.0783C123.622 68.2301 122.83 68.3325 121.872 68.376L121.963 70.374C123.005 70.3266 123.929 70.2131 124.723 70.0239L124.26 68.0783ZM121.871 68.3761C120.016 68.4624 118.487 68.2432 117.253 67.7616L116.526 69.6248C118.087 70.2341 119.91 70.4694 121.964 70.3739L121.871 68.3761ZM117.262 67.7652C116.054 67.2802 115.165 66.5468 114.547 65.5686L112.856 66.636C113.716 67.9987 114.951 68.9925 116.517 69.6211L117.262 67.7652ZM114.551 65.5745C113.95 64.6067 113.624 63.3362 113.645 61.7003L111.645 61.6747C111.62 63.5842 111.999 65.257 112.852 66.63L114.551 65.5745ZM113.645 61.6875V36.5455H111.645V61.6875H113.645ZM134.821 67.875L134.338 68.7506L134.344 68.7539L134.821 67.875ZM130.253 63.2216L129.367 63.6847L129.37 63.6906L130.253 63.2216ZM130.27 48.9205L131.154 49.3874L131.155 49.3854L130.27 48.9205ZM134.787 44.1818L135.288 45.0473L135.292 45.045L134.787 44.1818ZM146.77 43.3466L147.121 42.4103L147.121 42.4103L146.77 43.3466ZM153.401 50.1307L152.464 50.4811L152.465 50.4832L153.401 50.1307ZM154.338 57.9205V58.9205H155.338V57.9205H154.338ZM131.582 57.9205H130.582V58.9205H131.582V57.9205ZM131.582 53.0795V52.0795H130.582V53.0795H131.582ZM146.582 53.0795V54.0795H147.595L147.582 53.0667L146.582 53.0795ZM144.264 49.0909L143.773 49.9617L143.781 49.9664L143.789 49.9709L144.264 49.0909ZM139.321 49.125L139.806 49.9999L139.816 49.9941L139.321 49.125ZM137.565 50.8125L138.418 51.3351L138.422 51.329L137.565 50.8125ZM136.884 53.2159L135.884 53.1906L135.884 53.2033V53.2159H136.884ZM137.514 60.9545L136.627 61.4167L136.63 61.4219L137.514 60.9545ZM139.304 62.8125L138.806 63.68L138.806 63.68L139.304 62.8125ZM144.077 63.1705L144.398 64.1173L144.398 64.1173L144.077 63.1705ZM145.628 62.267L146.305 63.0026L146.305 63.0026L145.628 62.267ZM146.599 60.8011L146.628 59.8016L145.912 59.7808L145.662 60.452L146.599 60.8011ZM154.253 61.0227L155.236 61.205L155.449 60.0569L154.282 60.0231L154.253 61.0227ZM152.156 65.5057L151.394 64.8588L151.393 64.8594L152.156 65.5057ZM147.946 68.4545L148.316 69.3835L148.322 69.3813L147.946 68.4545ZM141.912 68.4943C139.305 68.4943 137.112 67.9811 135.298 66.9961L134.344 68.7539C136.507 69.928 139.041 70.4943 141.912 70.4943V68.4943ZM135.304 66.9994C133.498 66.0032 132.114 64.594 131.136 62.7526L129.37 63.6906C130.528 65.8719 132.189 67.565 134.338 68.7506L135.304 66.9994ZM131.139 62.7585C130.172 60.9068 129.668 58.6692 129.668 56.0114H127.668C127.668 58.9217 128.22 61.4909 129.367 63.6847L131.139 62.7585ZM129.668 56.0114C129.668 53.4399 130.175 51.2421 131.154 49.3874L129.386 48.4535C128.229 50.6442 127.668 53.1737 127.668 56.0114H129.668ZM131.155 49.3854C132.138 47.5143 133.512 46.0754 135.288 45.0472L134.286 43.3164C132.175 44.5382 130.538 46.2584 129.385 48.4555L131.155 49.3854ZM135.292 45.045C137.057 44.0126 139.167 43.4773 141.656 43.4773V41.4773C138.873 41.4773 136.403 42.0784 134.282 43.3186L135.292 45.045ZM141.656 43.4773C143.415 43.4773 144.999 43.7506 146.419 44.2829L147.121 42.4103C145.45 41.7835 143.624 41.4773 141.656 41.4773V43.4773ZM146.419 44.2829C147.833 44.8134 149.045 45.5936 150.065 46.624L151.486 45.2169C150.256 43.9746 148.797 43.0388 147.121 42.4103L146.419 44.2829ZM150.065 46.624C151.08 47.6489 151.883 48.9277 152.464 50.4811L154.337 49.7803C153.668 47.9928 152.722 46.4647 151.486 45.2169L150.065 46.624ZM152.465 50.4832C153.039 52.0086 153.338 53.7889 153.338 55.8409H155.338C155.338 53.5975 155.012 51.571 154.336 49.7782L152.465 50.4832ZM153.338 55.8409V57.9205H155.338V55.8409H153.338ZM154.338 56.9205H131.582V58.9205H154.338V56.9205ZM132.582 57.9205V53.0795H130.582V57.9205H132.582ZM131.582 54.0795H146.582V52.0795H131.582V54.0795ZM147.582 53.0667C147.569 52.0241 147.319 51.0603 146.813 50.202L145.09 51.2185C145.402 51.7466 145.573 52.3623 145.582 53.0924L147.582 53.0667ZM146.813 50.202C146.31 49.3503 145.613 48.6827 144.739 48.2109L143.789 49.9709C144.347 50.2718 144.775 50.6838 145.09 51.2185L146.813 50.202ZM144.756 48.2201C143.882 47.7266 142.895 47.4943 141.827 47.4943V49.4943C142.599 49.4943 143.238 49.6598 143.773 49.9617L144.756 48.2201ZM141.827 47.4943C140.739 47.4943 139.73 47.7416 138.826 48.2559L139.816 49.9941C140.389 49.6675 141.051 49.4943 141.827 49.4943V47.4943ZM138.837 48.2502C137.946 48.7432 137.232 49.4286 136.709 50.296L138.422 51.329C138.762 50.7646 139.218 50.3249 139.806 49.9998L138.837 48.2502ZM136.713 50.2899C136.181 51.1573 135.911 52.1328 135.884 53.1906L137.883 53.2412C137.902 52.5036 138.086 51.8768 138.418 51.3351L136.713 50.2899ZM135.884 53.2159V58.142H137.884V53.2159H135.884ZM135.884 58.142C135.884 59.3431 136.121 60.4443 136.627 61.4167L138.401 60.4924C138.067 59.8512 137.884 59.0773 137.884 58.142H135.884ZM136.63 61.4219C137.138 62.3828 137.868 63.1417 138.806 63.68L139.801 61.945C139.195 61.597 138.731 61.1172 138.398 60.4872L136.63 61.4219ZM138.806 63.68C139.758 64.2258 140.857 64.4773 142.065 64.4773V62.4773C141.137 62.4773 140.395 62.2856 139.801 61.945L138.806 63.68ZM142.065 64.4773C142.896 64.4773 143.677 64.3622 144.398 64.1173L143.755 62.2236C143.272 62.3878 142.712 62.4773 142.065 62.4773V64.4773ZM144.398 64.1173C145.121 63.8717 145.763 63.5025 146.305 63.0026L144.95 61.5315C144.629 61.8271 144.236 62.0601 143.755 62.2236L144.398 64.1173ZM146.305 63.0026C146.859 62.4926 147.269 61.8691 147.537 61.1502L145.662 60.452C145.498 60.8922 145.26 61.2461 144.95 61.5315L146.305 63.0026ZM146.57 61.8007L154.224 62.0223L154.282 60.0231L146.628 59.8016L146.57 61.8007ZM153.27 60.8404C152.982 62.393 152.355 63.7252 151.394 64.8588L152.919 66.1525C154.116 64.7407 154.888 63.0842 155.236 61.205L153.27 60.8404ZM151.393 64.8594C150.443 65.9815 149.18 66.8757 147.57 67.5277L148.322 69.3813C150.19 68.6243 151.733 67.5526 152.919 66.1519L151.393 64.8594ZM147.576 67.5257C145.978 68.1628 144.096 68.4943 141.912 68.4943V70.4943C144.296 70.4943 146.437 70.1327 148.316 69.3834L147.576 67.5257ZM158.595 69H157.595V70H158.595V69ZM158.595 42.8182V41.8182H157.595V42.8182H158.595ZM166.692 42.8182H167.692V41.8182H166.692V42.8182ZM166.692 47.5909H165.692V48.5909H166.692V47.5909ZM166.964 47.5909V48.5909H167.726L167.928 47.8572L166.964 47.5909ZM169.3 43.7386L169.914 44.5276L169.919 44.5235L169.3 43.7386ZM174.26 42.5455L174.122 43.5359L174.136 43.5378L174.15 43.5393L174.26 42.5455ZM175.402 42.767H176.402V42.0161L175.681 41.8067L175.402 42.767ZM175.402 50.0114L175.078 50.9573L176.402 51.4114V50.0114H175.402ZM173.834 49.6875L173.71 50.6798L173.712 50.68L173.834 49.6875ZM169.453 50.233L169.936 51.1089L169.94 51.1065L169.453 50.233ZM167.595 52.0568L166.73 51.5553L166.728 51.5593L167.595 52.0568ZM166.93 69V70H167.93V69H166.93ZM159.595 69V42.8182H157.595V69H159.595ZM158.595 43.8182H166.692V41.8182H158.595V43.8182ZM165.692 42.8182V47.5909H167.692V42.8182H165.692ZM166.692 48.5909H166.964V46.5909H166.692V48.5909ZM167.928 47.8572C168.366 46.2732 169.05 45.2006 169.914 44.5275L168.685 42.9497C167.39 43.9584 166.517 45.4541 166.001 47.3246L167.928 47.8572ZM169.919 44.5235C170.815 43.8166 171.85 43.4602 173.067 43.4602V41.4602C171.42 41.4602 169.944 41.9561 168.68 42.9538L169.919 44.5235ZM173.067 43.4602C173.404 43.4602 173.756 43.485 174.122 43.5359L174.398 41.555C173.946 41.4922 173.502 41.4602 173.067 41.4602V43.4602ZM174.15 43.5393C174.508 43.5792 174.832 43.6429 175.123 43.7274L175.681 41.8067C175.267 41.6866 174.83 41.6026 174.37 41.5516L174.15 43.5393ZM174.402 42.767V50.0114H176.402V42.767H174.402ZM175.726 49.0654C175.237 48.8978 174.639 48.7789 173.956 48.695L173.712 50.68C174.324 50.7552 174.771 50.8522 175.078 50.9573L175.726 49.0654ZM173.958 48.6952C173.291 48.6119 172.68 48.5682 172.129 48.5682V50.5682C172.578 50.5682 173.104 50.604 173.71 50.6798L173.958 48.6952ZM172.129 48.5682C170.985 48.5682 169.923 48.8263 168.966 49.3594L169.94 51.1065C170.574 50.7533 171.296 50.5682 172.129 50.5682V48.5682ZM168.971 49.357C168.025 49.8777 167.275 50.616 166.73 51.5553L168.46 52.5583C168.825 51.9295 169.313 51.4519 169.936 51.1089L168.971 49.357ZM166.728 51.5593C166.184 52.5079 165.93 53.5946 165.93 54.7841H167.93C167.93 53.8827 168.12 53.1512 168.463 52.5543L166.728 51.5593ZM165.93 54.7841V69H167.93V54.7841H165.93ZM166.93 68H158.595V70H166.93V68ZM201.656 50.8125L201.683 51.8121L202.741 51.7839L202.653 50.7295L201.656 50.8125ZM194.003 51.017L193.013 51.1614L193.142 52.0404L194.03 52.0167L194.003 51.017ZM193.355 49.5682L192.58 50.2004L192.589 50.2104L193.355 49.5682ZM191.974 48.5625L191.565 49.4748L191.576 49.4798L191.587 49.4845L191.974 48.5625ZM187.56 48.767L187.067 47.897L187.06 47.9006L187.56 48.767ZM186.571 50.3352L187.571 50.3574L187.571 50.3377L187.571 50.318L186.571 50.3352ZM187.185 51.6648L186.519 52.4111L186.529 52.4198L187.185 51.6648ZM189.486 52.5682L189.284 53.5476L189.292 53.5492L189.3 53.5508L189.486 52.5682ZM194.531 53.5227L194.719 52.5405L194.717 52.5402L194.531 53.5227ZM200.361 56.0114L199.687 56.7507L199.691 56.7537L200.361 56.0114ZM202.304 60.6136L203.304 60.62L203.304 60.6077L202.304 60.6136ZM200.702 65.3011L199.919 64.6789L199.916 64.683L200.702 65.3011ZM196.406 68.4034L196.778 69.3319L196.783 69.3299L196.406 68.4034ZM181.321 67.1932L180.737 68.0049L180.742 68.0084L181.321 67.1932ZM177.639 60.9886L177.614 59.9889L176.517 60.0162L176.646 61.1062L177.639 60.9886ZM185.872 60.7841L186.854 60.597L186.696 59.7633L185.847 59.7844L185.872 60.7841ZM187.287 62.9659L187.836 62.13L187.836 62.13L187.287 62.9659ZM192.81 63.1193L192.299 62.2593L192.299 62.2593L192.81 63.1193ZM193.832 61.5341L194.832 61.5513L194.833 61.5331L194.832 61.5149L193.832 61.5341ZM193.048 60.1193L192.469 60.9343L192.475 60.9386L192.481 60.9428L193.048 60.1193ZM190.645 59.267L190.458 60.2494L190.461 60.2499L190.645 59.267ZM186.077 58.3977L186.264 57.4153L186.256 57.4139L186.077 58.3977ZM180.213 55.7557L179.503 56.4597L179.506 56.4628L180.213 55.7557ZM178.304 50.8125L179.304 50.8182L179.304 50.806L178.304 50.8125ZM179.702 46.3295L180.497 46.9354L180.5 46.9319L179.702 46.3295ZM183.724 43.4659L183.37 42.5308L183.37 42.5308L183.724 43.4659ZM198.264 44.7102L197.676 45.5188L197.679 45.5209L198.264 44.7102ZM201.63 49.8129L193.976 50.0174L194.03 52.0167L201.683 51.8121L201.63 49.8129ZM194.992 50.8727C194.886 50.1448 194.594 49.4892 194.122 48.926L192.589 50.2104C192.821 50.488 192.96 50.7984 193.013 51.1614L194.992 50.8727ZM194.13 48.9361C193.664 48.3643 193.065 47.9357 192.362 47.6405L191.587 49.4845C192.021 49.6665 192.342 49.9084 192.58 50.2003L194.13 48.9361ZM192.384 47.6502C191.674 47.3316 190.882 47.1875 190.031 47.1875V49.1875C190.658 49.1875 191.161 49.2934 191.565 49.4748L192.384 47.6502ZM190.031 47.1875C188.932 47.1875 187.93 47.4078 187.067 47.897L188.053 49.6371C188.553 49.3536 189.198 49.1875 190.031 49.1875V47.1875ZM187.06 47.9006C186.14 48.4307 185.552 49.2597 185.571 50.3525L187.571 50.318C187.567 50.0925 187.638 49.8761 188.059 49.6335L187.06 47.9006ZM185.571 50.313C185.553 51.149 185.905 51.8635 186.519 52.4111L187.85 50.9185C187.623 50.7161 187.567 50.5442 187.571 50.3574L185.571 50.313ZM186.529 52.4198C187.164 52.9716 188.147 53.3132 189.284 53.5476L189.688 51.5888C188.62 51.3686 188.069 51.108 187.84 50.9097L186.529 52.4198ZM189.3 53.5508L194.345 54.5053L194.717 52.5402L189.672 51.5856L189.3 53.5508ZM194.343 54.5049C196.867 54.9877 198.606 55.766 199.687 56.7507L201.034 55.272C199.57 53.9385 197.423 53.0578 194.719 52.5405L194.343 54.5049ZM199.691 56.7537C200.743 57.7039 201.294 58.959 201.304 60.6196L203.304 60.6077C203.291 58.4501 202.546 56.637 201.031 55.269L199.691 56.7537ZM201.304 60.6073C201.294 62.1927 200.828 63.535 199.919 64.6789L201.485 65.9234C202.689 64.4082 203.291 62.6255 203.304 60.62L201.304 60.6073ZM199.916 64.683C198.994 65.8554 197.713 66.7931 196.03 67.4769L196.783 69.3299C198.736 68.5364 200.319 67.406 201.488 65.9193L199.916 64.683ZM196.035 67.4749C194.355 68.1467 192.406 68.4943 190.168 68.4943V70.4943C192.611 70.4943 194.821 70.1147 196.778 69.3319L196.035 67.4749ZM190.168 68.4943C186.554 68.4943 183.833 67.7515 181.9 66.378L180.742 68.0084C183.127 69.703 186.304 70.4943 190.168 70.4943V68.4943ZM181.905 66.3815C179.981 64.9972 178.906 63.179 178.632 60.871L176.646 61.1062C176.986 63.9801 178.365 66.2983 180.737 68.0049L181.905 66.3815ZM177.664 61.9883L185.897 61.7838L185.847 59.7844L177.614 59.9889L177.664 61.9883ZM184.89 60.9712C185.119 62.172 185.734 63.1424 186.738 63.8018L187.836 62.13C187.317 61.7894 186.989 61.3053 186.854 60.597L184.89 60.9712ZM186.738 63.8018C187.705 64.4365 188.882 64.7159 190.202 64.7159V62.7159C189.158 62.7159 188.392 62.4953 187.836 62.13L186.738 63.8018ZM190.202 64.7159C191.386 64.7159 192.448 64.4965 193.32 63.9794L192.299 62.2593C191.83 62.5375 191.154 62.7159 190.202 62.7159V64.7159ZM193.32 63.9794C194.225 63.4425 194.814 62.6255 194.832 61.5513L192.833 61.5169C192.828 61.7609 192.735 62.0007 192.299 62.2593L193.32 63.9794ZM194.832 61.5149C194.814 60.5831 194.376 59.8199 193.616 59.2958L192.481 60.9428C192.743 61.1232 192.828 61.3033 192.833 61.5533L194.832 61.5149ZM193.628 59.3044C192.94 58.8153 191.969 58.498 190.829 58.2842L190.461 60.2499C191.502 60.4452 192.134 60.6961 192.469 60.9343L193.628 59.3044ZM190.832 58.2847L186.264 57.4154L185.89 59.3801L190.458 60.2494L190.832 58.2847ZM186.256 57.4139C183.742 56.9568 182.007 56.1359 180.92 55.0486L179.506 56.4628C180.987 57.9437 183.162 58.8841 185.898 59.3816L186.256 57.4139ZM180.923 55.0517C179.845 53.964 179.294 52.5807 179.304 50.8182L177.304 50.8068C177.291 53.0443 178.013 54.9564 179.503 56.4597L180.923 55.0517ZM179.304 50.806C179.294 49.2482 179.705 47.9764 180.497 46.9354L178.906 45.7237C177.812 47.1599 177.291 48.8768 177.304 50.819L179.304 50.806ZM180.5 46.9319C181.31 45.8586 182.483 45.0059 184.079 44.401L183.37 42.5308C181.488 43.2441 179.98 44.3005 178.903 45.7272L180.5 46.9319ZM184.079 44.401C185.678 43.7947 187.604 43.4773 189.878 43.4773V41.4773C187.425 41.4773 185.248 41.8189 183.37 42.5308L184.079 44.401ZM189.878 43.4773C193.294 43.4773 195.858 44.1956 197.676 45.5188L198.853 43.9017C196.58 42.2476 193.552 41.4773 189.878 41.4773V43.4773ZM197.679 45.5209C199.479 46.8214 200.467 48.5854 200.66 50.8955L202.653 50.7295C202.413 47.8578 201.14 45.5536 198.85 43.8995L197.679 45.5209Z" fill="black" fill-opacity="0.2" mask="url(#path-1-outside-1_115_2)"/>
</g>
</g>
<defs>
<filter id="filter0_dd_115_2" x="-2.73291" y="32.6136" width="210.037" height="45.8807" filterUnits="userSpaceOnUse" color-interpolation-filters="sRGB">
<feFlood flood-opacity="0" result="BackgroundImageFix"/>
<feColorMatrix in="SourceAlpha" type="matrix" values="0 0 0 0 0 0 0 0 0 0 0 0 0 0 0 0 0 0 127 0" result="hardAlpha"/>
<feOffset dy="4"/>
<feGaussianBlur stdDeviation="2"/>
<feComposite in2="hardAlpha" operator="out"/>
<feColorMatrix type="matrix" values="0 0 0 0 0 0 0 0 0 0 0 0 0 0 0 0 0 0 0.25 0"/>
<feBlend mode="normal" in2="BackgroundImageFix" result="effect1_dropShadow_115_2"/>
<feColorMatrix in="SourceAlpha" type="matrix" values="0 0 0 0 0 0 0 0 0 0 0 0 0 0 0 0 0 0 127 0" result="hardAlpha"/>
<feOffset dy="4"/>
<feGaussianBlur stdDeviation="2"/>
<feComposite in2="hardAlpha" operator="out"/>
<feColorMatrix type="matrix" values="0 0 0 0 0 0 0 0 0 0 0 0 0 0 0 0 0 0 0.25 0"/>
<feBlend mode="normal" in2="effect1_dropShadow_115_2" result="effect2_dropShadow_115_2"/>
<feBlend mode="normal" in="SourceGraphic" in2="effect2_dropShadow_115_2" result="shape"/>
</filter>
<clipPath id="clip0_115_2">
<rect width="322" height="117" fill="white"/>
</clipPath>
</defs>
</svg>
