<svg width="322" height="117" viewBox="0 0 322 117" fill="none" xmlns="http://www.w3.org/2000/svg">
<g clip-path="url(#clip0_120_21)">
<rect width="322" height="117" fill="white"/>
<g filter="url(#filter0_dd_120_21)">
<mask id="path-1-outside-1_120_21" maskUnits="userSpaceOnUse" x="1" y="30" width="243" height="41" fill="black">
<rect fill="white" x="1" y="30" width="243" height="41"/>
<path d="M2.64205 69V34.0909H26.4716V40.9432H11.0795V48.1023H24.9545V54.9716H11.0795V69H2.64205ZM37.679 69.4432C36.0085 69.4432 34.5256 69.1648 33.2301 68.608C31.946 68.0398 30.929 67.1875 30.179 66.0511C29.4403 64.9034 29.071 63.4659 29.071 61.7386C29.071 60.2841 29.3267 59.0568 29.8381 58.0568C30.3494 57.0568 31.054 56.2443 31.9517 55.6193C32.8494 54.9943 33.8835 54.5227 35.054 54.2045C36.2244 53.875 37.4744 53.6534 38.804 53.5398C40.2926 53.4034 41.4915 53.2614 42.4006 53.1136C43.3097 52.9545 43.9688 52.733 44.3778 52.4489C44.7983 52.1534 45.0085 51.7386 45.0085 51.2045V51.1193C45.0085 50.2443 44.7074 49.5682 44.1051 49.0909C43.5028 48.6136 42.6903 48.375 41.6676 48.375C40.5653 48.375 39.679 48.6136 39.0085 49.0909C38.3381 49.5682 37.9119 50.2273 37.7301 51.0682L30.0426 50.7955C30.2699 49.2045 30.8551 47.7841 31.7983 46.5341C32.7528 45.2727 34.0597 44.2841 35.7188 43.5682C37.3892 42.8409 39.3949 42.4773 41.7358 42.4773C43.4063 42.4773 44.946 42.6761 46.3551 43.0739C47.7642 43.4602 48.9915 44.0284 50.0369 44.7784C51.0824 45.517 51.8892 46.4261 52.4574 47.5057C53.0369 48.5852 53.3267 49.8182 53.3267 51.2045V69H45.4858V65.3523H45.2812C44.8153 66.2386 44.2188 66.9886 43.4915 67.6023C42.7756 68.2159 41.929 68.6761 40.9517 68.983C39.9858 69.2898 38.8949 69.4432 37.679 69.4432ZM40.2528 63.9886C41.1506 63.9886 41.9574 63.8068 42.6733 63.4432C43.4006 63.0795 43.9801 62.5795 44.4119 61.9432C44.8438 61.2955 45.0597 60.5455 45.0597 59.6932V57.2045C44.821 57.3295 44.5313 57.4432 44.1903 57.5455C43.8608 57.6477 43.4972 57.7443 43.0994 57.8352C42.7017 57.9261 42.2926 58.0057 41.8722 58.0739C41.4517 58.142 41.0483 58.2045 40.6619 58.2614C39.8778 58.3864 39.2074 58.5795 38.6506 58.8409C38.1051 59.1023 37.6847 59.4432 37.3892 59.8636C37.1051 60.2727 36.9631 60.7614 36.9631 61.3295C36.9631 62.1932 37.2699 62.8523 37.8835 63.3068C38.5085 63.7614 39.2983 63.9886 40.2528 63.9886ZM75.3153 57.6989V42.8182H83.6335V69H75.6903V64.125H75.4176C74.8381 65.7273 73.8494 67 72.4517 67.9432C71.0653 68.875 69.3892 69.3409 67.4233 69.3409C65.6392 69.3409 64.071 68.9318 62.7188 68.1136C61.3665 67.2955 60.3153 66.1534 59.5653 64.6875C58.8153 63.2102 58.4347 61.483 58.4233 59.5057V42.8182H66.7585V57.8693C66.7699 59.2898 67.1449 60.4091 67.8835 61.2273C68.6222 62.0455 69.6278 62.4545 70.9006 62.4545C71.7301 62.4545 72.4744 62.2727 73.1335 61.9091C73.804 61.5341 74.3324 60.9943 74.7188 60.2898C75.1165 59.5739 75.3153 58.7102 75.3153 57.6989ZM96.0298 42.8182L100.342 51.4432L104.808 42.8182H113.212L105.899 55.9091L113.484 69H105.149L100.342 60.3068L95.6548 69H87.2003L94.8026 55.9091L87.5753 42.8182H96.0298ZM127.33 34.0909H137.778L146.642 55.7045H147.051L155.915 34.0909H166.364V69H158.148V47.5568H157.858L149.472 68.7784H144.222L135.835 47.4375H135.545V69H127.33V34.0909ZM171.626 69V42.8182H179.962V69H171.626ZM175.803 39.767C174.632 39.767 173.626 39.3807 172.786 38.608C171.945 37.8239 171.524 36.8807 171.524 35.7784C171.524 34.6875 171.945 33.7557 172.786 32.983C173.626 32.1989 174.632 31.8068 175.803 31.8068C176.984 31.8068 177.99 32.1989 178.82 32.983C179.661 33.7557 180.081 34.6875 180.081 35.7784C180.081 36.8807 179.661 37.8239 178.82 38.608C177.99 39.3807 176.984 39.767 175.803 39.767ZM193.602 54.0682V69H185.267V42.8182H193.193V47.625H193.483C194.063 46.0227 195.051 44.767 196.449 43.858C197.847 42.9375 199.511 42.4773 201.443 42.4773C203.284 42.4773 204.881 42.892 206.233 43.7216C207.597 44.5398 208.653 45.6875 209.403 47.1648C210.165 48.6307 210.54 50.3466 210.528 52.3125V69H202.193V53.9489C202.205 52.4943 201.835 51.358 201.085 50.5398C200.347 49.7216 199.318 49.3125 198 49.3125C197.125 49.3125 196.352 49.5057 195.682 49.892C195.023 50.267 194.511 50.8068 194.148 51.5114C193.795 52.2159 193.614 53.0682 193.602 54.0682ZM223.206 62.1307L223.24 52.1932H224.399L231.763 42.8182H241.206L230.263 56.25H228.064L223.206 62.1307ZM215.689 69V34.0909H224.024V69H215.689ZM231.95 69L225.098 58.125L230.587 52.2102L241.581 69H231.95Z"/>
</mask>
<path d="M2.64205 69V34.0909H26.4716V40.9432H11.0795V48.1023H24.9545V54.9716H11.0795V69H2.64205ZM37.679 69.4432C36.0085 69.4432 34.5256 69.1648 33.2301 68.608C31.946 68.0398 30.929 67.1875 30.179 66.0511C29.4403 64.9034 29.071 63.4659 29.071 61.7386C29.071 60.2841 29.3267 59.0568 29.8381 58.0568C30.3494 57.0568 31.054 56.2443 31.9517 55.6193C32.8494 54.9943 33.8835 54.5227 35.054 54.2045C36.2244 53.875 37.4744 53.6534 38.804 53.5398C40.2926 53.4034 41.4915 53.2614 42.4006 53.1136C43.3097 52.9545 43.9688 52.733 44.3778 52.4489C44.7983 52.1534 45.0085 51.7386 45.0085 51.2045V51.1193C45.0085 50.2443 44.7074 49.5682 44.1051 49.0909C43.5028 48.6136 42.6903 48.375 41.6676 48.375C40.5653 48.375 39.679 48.6136 39.0085 49.0909C38.3381 49.5682 37.9119 50.2273 37.7301 51.0682L30.0426 50.7955C30.2699 49.2045 30.8551 47.7841 31.7983 46.5341C32.7528 45.2727 34.0597 44.2841 35.7188 43.5682C37.3892 42.8409 39.3949 42.4773 41.7358 42.4773C43.4063 42.4773 44.946 42.6761 46.3551 43.0739C47.7642 43.4602 48.9915 44.0284 50.0369 44.7784C51.0824 45.517 51.8892 46.4261 52.4574 47.5057C53.0369 48.5852 53.3267 49.8182 53.3267 51.2045V69H45.4858V65.3523H45.2812C44.8153 66.2386 44.2188 66.9886 43.4915 67.6023C42.7756 68.2159 41.929 68.6761 40.9517 68.983C39.9858 69.2898 38.8949 69.4432 37.679 69.4432ZM40.2528 63.9886C41.1506 63.9886 41.9574 63.8068 42.6733 63.4432C43.4006 63.0795 43.9801 62.5795 44.4119 61.9432C44.8438 61.2955 45.0597 60.5455 45.0597 59.6932V57.2045C44.821 57.3295 44.5313 57.4432 44.1903 57.5455C43.8608 57.6477 43.4972 57.7443 43.0994 57.8352C42.7017 57.9261 42.2926 58.0057 41.8722 58.0739C41.4517 58.142 41.0483 58.2045 40.6619 58.2614C39.8778 58.3864 39.2074 58.5795 38.6506 58.8409C38.1051 59.1023 37.6847 59.4432 37.3892 59.8636C37.1051 60.2727 36.9631 60.7614 36.9631 61.3295C36.9631 62.1932 37.2699 62.8523 37.8835 63.3068C38.5085 63.7614 39.2983 63.9886 40.2528 63.9886ZM75.3153 57.6989V42.8182H83.6335V69H75.6903V64.125H75.4176C74.8381 65.7273 73.8494 67 72.4517 67.9432C71.0653 68.875 69.3892 69.3409 67.4233 69.3409C65.6392 69.3409 64.071 68.9318 62.7188 68.1136C61.3665 67.2955 60.3153 66.1534 59.5653 64.6875C58.8153 63.2102 58.4347 61.483 58.4233 59.5057V42.8182H66.7585V57.8693C66.7699 59.2898 67.1449 60.4091 67.8835 61.2273C68.6222 62.0455 69.6278 62.4545 70.9006 62.4545C71.7301 62.4545 72.4744 62.2727 73.1335 61.9091C73.804 61.5341 74.3324 60.9943 74.7188 60.2898C75.1165 59.5739 75.3153 58.7102 75.3153 57.6989ZM96.0298 42.8182L100.342 51.4432L104.808 42.8182H113.212L105.899 55.9091L113.484 69H105.149L100.342 60.3068L95.6548 69H87.2003L94.8026 55.9091L87.5753 42.8182H96.0298ZM127.33 34.0909H137.778L146.642 55.7045H147.051L155.915 34.0909H166.364V69H158.148V47.5568H157.858L149.472 68.7784H144.222L135.835 47.4375H135.545V69H127.33V34.0909ZM171.626 69V42.8182H179.962V69H171.626ZM175.803 39.767C174.632 39.767 173.626 39.3807 172.786 38.608C171.945 37.8239 171.524 36.8807 171.524 35.7784C171.524 34.6875 171.945 33.7557 172.786 32.983C173.626 32.1989 174.632 31.8068 175.803 31.8068C176.984 31.8068 177.99 32.1989 178.82 32.983C179.661 33.7557 180.081 34.6875 180.081 35.7784C180.081 36.8807 179.661 37.8239 178.82 38.608C177.99 39.3807 176.984 39.767 175.803 39.767ZM193.602 54.0682V69H185.267V42.8182H193.193V47.625H193.483C194.063 46.0227 195.051 44.767 196.449 43.858C197.847 42.9375 199.511 42.4773 201.443 42.4773C203.284 42.4773 204.881 42.892 206.233 43.7216C207.597 44.5398 208.653 45.6875 209.403 47.1648C210.165 48.6307 210.54 50.3466 210.528 52.3125V69H202.193V53.9489C202.205 52.4943 201.835 51.358 201.085 50.5398C200.347 49.7216 199.318 49.3125 198 49.3125C197.125 49.3125 196.352 49.5057 195.682 49.892C195.023 50.267 194.511 50.8068 194.148 51.5114C193.795 52.2159 193.614 53.0682 193.602 54.0682ZM223.206 62.1307L223.24 52.1932H224.399L231.763 42.8182H241.206L230.263 56.25H228.064L223.206 62.1307ZM215.689 69V34.0909H224.024V69H215.689ZM231.95 69L225.098 58.125L230.587 52.2102L241.581 69H231.95Z" fill="#002855"/>
<path d="M2.64205 69H1.64205V70H2.64205V69ZM2.64205 34.0909V33.0909H1.64205V34.0909H2.64205ZM26.4716 34.0909H27.4716V33.0909H26.4716V34.0909ZM26.4716 40.9432V41.9432H27.4716V40.9432H26.4716ZM11.0795 40.9432V39.9432H10.0795V40.9432H11.0795ZM11.0795 48.1023H10.0795V49.1023H11.0795V48.1023ZM24.9545 48.1023H25.9545V47.1023H24.9545V48.1023ZM24.9545 54.9716V55.9716H25.9545V54.9716H24.9545ZM11.0795 54.9716V53.9716H10.0795V54.9716H11.0795ZM11.0795 69V70H12.0795V69H11.0795ZM3.64205 69V34.0909H1.64205V69H3.64205ZM2.64205 35.0909H26.4716V33.0909H2.64205V35.0909ZM25.4716 34.0909V40.9432H27.4716V34.0909H25.4716ZM26.4716 39.9432H11.0795V41.9432H26.4716V39.9432ZM10.0795 40.9432V48.1023H12.0795V40.9432H10.0795ZM11.0795 49.1023H24.9545V47.1023H11.0795V49.1023ZM23.9545 48.1023V54.9716H25.9545V48.1023H23.9545ZM24.9545 53.9716H11.0795V55.9716H24.9545V53.9716ZM10.0795 54.9716V69H12.0795V54.9716H10.0795ZM11.0795 68H2.64205V70H11.0795V68ZM33.2301 68.608L32.8255 69.5225L32.8352 69.5267L33.2301 68.608ZM30.179 66.0511L29.338 66.5924L29.3444 66.602L30.179 66.0511ZM29.8381 58.0568L28.9477 57.6015L28.9477 57.6015L29.8381 58.0568ZM31.9517 55.6193L32.5231 56.44L32.5231 56.44L31.9517 55.6193ZM35.054 54.2045L35.3163 55.1696L35.325 55.1671L35.054 54.2045ZM38.804 53.5398L38.8891 54.5362L38.8952 54.5356L38.804 53.5398ZM42.4006 53.1136L42.561 54.1008L42.5729 54.0987L42.4006 53.1136ZM44.3778 52.4489L44.9482 53.2702L44.9528 53.2671L44.3778 52.4489ZM44.1051 49.0909L44.7262 48.3072L44.7262 48.3072L44.1051 49.0909ZM39.0085 49.0909L38.4286 48.2762L38.4286 48.2762L39.0085 49.0909ZM37.7301 51.0682L37.6947 52.0676L38.5307 52.0972L38.7075 51.2795L37.7301 51.0682ZM30.0426 50.7955L29.0527 50.654L28.8953 51.7554L30.0072 51.7948L30.0426 50.7955ZM31.7983 46.5341L31.0009 45.9306L31 45.9318L31.7983 46.5341ZM35.7188 43.5682L36.1149 44.4864L36.1179 44.4851L35.7188 43.5682ZM46.3551 43.0739L46.0835 44.0363L46.0907 44.0383L46.3551 43.0739ZM50.0369 44.7784L49.454 45.591L49.4599 45.5951L50.0369 44.7784ZM52.4574 47.5057L51.5724 47.9714L51.5763 47.9787L52.4574 47.5057ZM53.3267 69V70H54.3267V69H53.3267ZM45.4858 69H44.4858V70H45.4858V69ZM45.4858 65.3523H46.4858V64.3523H45.4858V65.3523ZM45.2812 65.3523V64.3523H44.6772L44.3961 64.887L45.2812 65.3523ZM43.4915 67.6023L42.8466 66.838L42.8407 66.843L43.4915 67.6023ZM40.9517 68.983L40.6522 68.0289L40.649 68.0299L40.9517 68.983ZM42.6733 63.4432L42.2261 62.5487L42.2204 62.5516L42.6733 63.4432ZM44.4119 61.9432L45.2394 62.5047L45.244 62.4979L44.4119 61.9432ZM45.0597 57.2045H46.0597V55.5519L44.5957 56.3187L45.0597 57.2045ZM44.1903 57.5455L43.903 56.5876L43.8939 56.5904L44.1903 57.5455ZM41.8722 58.0739L42.0322 59.061L42.0322 59.061L41.8722 58.0739ZM40.6619 58.2614L40.5164 57.2719L40.5045 57.2738L40.6619 58.2614ZM38.6506 58.8409L38.2256 57.9356L38.2184 57.9391L38.6506 58.8409ZM37.3892 59.8636L36.571 59.2887L36.5678 59.2932L37.3892 59.8636ZM37.8835 63.3068L37.2883 64.1104L37.2954 64.1156L37.8835 63.3068ZM37.679 68.4432C36.1196 68.4432 34.7749 68.1835 33.625 67.6892L32.8352 69.5267C34.2763 70.1461 35.8974 70.4432 37.679 70.4432V68.4432ZM33.6348 67.6935C32.5201 67.2003 31.6546 66.4716 31.0136 65.5003L29.3444 66.602C30.2033 67.9034 31.372 68.8793 32.8255 69.5224L33.6348 67.6935ZM31.0199 65.51C30.4095 64.5615 30.071 63.3246 30.071 61.7386H28.071C28.071 63.6072 28.4712 65.2453 29.3381 66.5923L31.0199 65.51ZM30.071 61.7386C30.071 60.3972 30.3072 59.3358 30.7284 58.5121L28.9477 57.6015C28.3462 58.7778 28.071 60.171 28.071 61.7386H30.071ZM30.7284 58.5121C31.1671 57.6542 31.7637 56.9687 32.5231 56.44L31.3803 54.7986C30.3442 55.52 29.5317 56.4595 28.9477 57.6015L30.7284 58.5121ZM32.5231 56.44C33.3171 55.8872 34.2444 55.4609 35.3163 55.1695L34.7917 53.2396C33.5226 53.5845 32.3817 54.1015 31.3803 54.7986L32.5231 56.44ZM35.325 55.1671C36.4292 54.8562 37.6165 54.6449 38.8891 54.5361L38.7188 52.5434C37.3324 52.6619 36.0197 52.8938 34.783 53.242L35.325 55.1671ZM38.8952 54.5356C40.3947 54.3982 41.6193 54.2537 42.561 54.1007L42.2402 52.1266C41.3636 52.269 40.1906 52.4086 38.7128 52.5439L38.8952 54.5356ZM42.5729 54.0987C43.5234 53.9323 44.3572 53.6807 44.9482 53.2702L43.8074 51.6275C43.5803 51.7852 43.0959 51.9768 42.2282 52.1286L42.5729 54.0987ZM44.9528 53.2671C45.6519 52.7758 46.0085 52.0491 46.0085 51.2045H44.0085C44.0085 51.4282 43.9447 51.531 43.8029 51.6307L44.9528 53.2671ZM46.0085 51.2045V51.1193H44.0085V51.2045H46.0085ZM46.0085 51.1193C46.0085 49.9868 45.603 49.002 44.7262 48.3072L43.484 49.8747C43.8118 50.1344 44.0085 50.5018 44.0085 51.1193H46.0085ZM44.7262 48.3072C43.8964 47.6496 42.8412 47.375 41.6676 47.375V49.375C42.5395 49.375 43.1092 49.5776 43.484 49.8747L44.7262 48.3072ZM41.6676 47.375C40.427 47.375 39.3174 47.6435 38.4286 48.2762L39.5885 49.9056C40.0406 49.5837 40.7037 49.375 41.6676 49.375V47.375ZM38.4286 48.2762C37.5452 48.9051 36.9846 49.7845 36.7527 50.8568L38.7075 51.2795C38.8393 50.6701 39.131 50.2312 39.5885 49.9056L38.4286 48.2762ZM37.7656 50.0688L30.0781 49.7961L30.0072 51.7948L37.6947 52.0676L37.7656 50.0688ZM31.0326 50.9369C31.2366 49.5087 31.758 48.2478 32.5966 47.1364L31 45.9318C29.9523 47.3204 29.3032 48.9003 29.0527 50.654L31.0326 50.9369ZM32.5957 47.1375C33.4319 46.0326 34.5916 45.1437 36.1149 44.4863L35.3226 42.65C33.5277 43.4245 32.0738 44.5129 31.0009 45.9306L32.5957 47.1375ZM36.1179 44.4851C37.6321 43.8258 39.4947 43.4773 41.7358 43.4773V41.4773C39.2951 41.4773 37.1464 41.856 35.3196 42.6513L36.1179 44.4851ZM41.7358 43.4773C43.3271 43.4773 44.7742 43.6667 46.0835 44.0363L46.6268 42.1115C45.1179 41.6856 43.4854 41.4773 41.7358 41.4773V43.4773ZM46.0907 44.0383C47.4008 44.3975 48.517 44.9187 49.454 45.5909L50.6198 43.9659C49.4659 43.1381 48.1276 42.523 46.6195 42.1095L46.0907 44.0383ZM49.4599 45.5951C50.383 46.2473 51.0814 47.0385 51.5725 47.9714L53.3423 47.0399C52.697 45.8138 51.7818 44.7868 50.614 43.9617L49.4599 45.5951ZM51.5763 47.9787C52.068 48.8946 52.3267 49.9613 52.3267 51.2045H54.3267C54.3267 49.6751 54.0058 48.2759 53.3385 47.0327L51.5763 47.9787ZM52.3267 51.2045V69H54.3267V51.2045H52.3267ZM53.3267 68H45.4858V70H53.3267V68ZM46.4858 69V65.3523H44.4858V69H46.4858ZM45.4858 64.3523H45.2812V66.3523H45.4858V64.3523ZM44.3961 64.887C43.987 65.6652 43.4701 66.3119 42.8466 66.838L44.1363 68.3666C44.9674 67.6654 45.6436 66.8121 46.1664 65.8176L44.3961 64.887ZM42.8407 66.843C42.2361 67.3613 41.5116 67.759 40.6522 68.0289L41.2512 69.937C42.3463 69.5932 43.3151 69.0706 44.1423 68.3615L42.8407 66.843ZM40.649 68.0299C39.7982 68.3001 38.812 68.4432 37.679 68.4432V70.4432C38.9778 70.4432 40.1734 70.2794 41.2544 69.936L40.649 68.0299ZM40.2528 64.9886C41.2892 64.9886 42.2541 64.7777 43.1262 64.3348L42.2204 62.5516C41.6607 62.8359 41.012 62.9886 40.2528 62.9886V64.9886ZM43.1205 64.3376C43.9919 63.9019 44.7059 63.2909 45.2394 62.5047L43.5845 61.3817C43.2543 61.8682 42.8093 62.2572 42.2261 62.5488L43.1205 64.3376ZM45.244 62.4979C45.7957 61.6704 46.0597 60.7234 46.0597 59.6932H44.0597C44.0597 60.3675 43.8918 60.9205 43.5799 61.3885L45.244 62.4979ZM46.0597 59.6932V57.2045H44.0597V59.6932H46.0597ZM44.5957 56.3187C44.4281 56.4065 44.201 56.4982 43.903 56.5876L44.4777 58.5033C44.8615 58.3881 45.2139 58.2526 45.5237 58.0904L44.5957 56.3187ZM43.8939 56.5904C43.5926 56.6839 43.2539 56.7741 42.8766 56.8604L43.3223 58.8101C43.7404 58.7145 44.129 58.6115 44.4867 58.5005L43.8939 56.5904ZM42.8766 56.8604C42.5005 56.9463 42.1124 57.0218 41.7121 57.0868L42.0322 59.061C42.4728 58.9895 42.9029 58.9059 43.3223 58.8101L42.8766 56.8604ZM41.7121 57.0868C41.2961 57.1542 40.8975 57.216 40.5164 57.272L40.8074 59.2507C41.1991 59.1931 41.6074 59.1299 42.0322 59.061L41.7121 57.0868ZM40.5045 57.2738C39.6532 57.4095 38.8878 57.6249 38.2257 57.9357L39.0755 59.7461C39.527 59.5342 40.1025 59.3632 40.8194 59.2489L40.5045 57.2738ZM38.2184 57.9391C37.5459 58.2614 36.9812 58.705 36.571 59.2887L38.2074 60.4386C38.3881 60.1814 38.6643 59.9432 39.0827 59.7427L38.2184 57.9391ZM36.5678 59.2932C36.1516 59.8927 35.9631 60.5872 35.9631 61.3295H37.9631C37.9631 60.9355 38.0587 60.6528 38.2106 60.434L36.5678 59.2932ZM35.9631 61.3295C35.9631 62.4624 36.3841 63.4406 37.2883 64.1104L38.4788 62.5033C38.1557 62.264 37.9631 61.9239 37.9631 61.3295H35.9631ZM37.2954 64.1156C38.128 64.7211 39.1374 64.9886 40.2528 64.9886V62.9886C39.4592 62.9886 38.889 62.8016 38.4717 62.4981L37.2954 64.1156ZM75.3153 42.8182V41.8182H74.3153V42.8182H75.3153ZM83.6335 42.8182H84.6335V41.8182H83.6335V42.8182ZM83.6335 69V70H84.6335V69H83.6335ZM75.6903 69H74.6903V70H75.6903V69ZM75.6903 64.125H76.6903V63.125H75.6903V64.125ZM75.4176 64.125V63.125H74.7159L74.4772 63.7849L75.4176 64.125ZM72.4517 67.9432L73.0095 68.7731L73.0111 68.7721L72.4517 67.9432ZM62.7188 68.1136L62.2011 68.9692L62.2011 68.9692L62.7188 68.1136ZM59.5653 64.6875L58.6737 65.1402L58.6751 65.143L59.5653 64.6875ZM58.4233 59.5057L57.4233 59.5057L57.4233 59.5114L58.4233 59.5057ZM58.4233 42.8182V41.8182H57.4233V42.8182H58.4233ZM66.7585 42.8182H67.7585V41.8182H66.7585V42.8182ZM66.7585 57.8693L65.7585 57.8693L65.7586 57.8773L66.7585 57.8693ZM67.8835 61.2273L68.6258 60.5572L68.6258 60.5572L67.8835 61.2273ZM73.1335 61.9091L73.6166 62.7847L73.6217 62.7818L73.1335 61.9091ZM74.7188 60.2898L73.8446 59.8041L73.8419 59.8089L74.7188 60.2898ZM76.3153 57.6989V42.8182H74.3153V57.6989H76.3153ZM75.3153 43.8182H83.6335V41.8182H75.3153V43.8182ZM82.6335 42.8182V69H84.6335V42.8182H82.6335ZM83.6335 68H75.6903V70H83.6335V68ZM76.6903 69V64.125H74.6903V69H76.6903ZM75.6903 63.125H75.4176V65.125H75.6903V63.125ZM74.4772 63.7849C73.9689 65.1902 73.1125 66.2909 71.8923 67.1143L73.0111 68.7721C74.5863 67.7091 75.7072 66.2643 76.358 64.4651L74.4772 63.7849ZM71.8939 67.1132C70.6999 67.9157 69.2264 68.3409 67.4233 68.3409V70.3409C69.552 70.3409 71.4308 69.8343 73.0095 68.7731L71.8939 67.1132ZM67.4233 68.3409C65.7976 68.3409 64.4132 67.97 63.2364 67.2581L62.2011 68.9692C63.7289 69.8936 65.4808 70.3409 67.4233 70.3409V68.3409ZM63.2364 67.2581C62.0499 66.5402 61.1247 65.5398 60.4556 64.232L58.6751 65.143C59.506 66.767 60.683 68.0507 62.2011 68.9692L63.2364 67.2581ZM60.457 64.2348C59.7897 62.9204 59.4339 61.3516 59.4233 59.4999L57.4233 59.5114C57.4354 61.6143 57.841 63.5 58.6737 65.1402L60.457 64.2348ZM59.4233 59.5057V42.8182H57.4233V59.5057H59.4233ZM58.4233 43.8182H66.7585V41.8182H58.4233V43.8182ZM65.7585 42.8182V57.8693H67.7585V42.8182H65.7585ZM65.7586 57.8773C65.7713 59.47 66.1957 60.85 67.1413 61.8974L68.6258 60.5572C68.0941 59.9682 67.7685 59.1096 67.7585 57.8613L65.7586 57.8773ZM67.1413 61.8974C68.0996 62.9589 69.3931 63.4545 70.9006 63.4545V61.4545C69.8626 61.4545 69.1448 61.132 68.6258 60.5572L67.1413 61.8974ZM70.9006 63.4545C71.8814 63.4545 72.7949 63.238 73.6166 62.7847L72.6504 61.0335C72.154 61.3074 71.5788 61.4545 70.9006 61.4545V63.4545ZM73.6217 62.7818C74.4636 62.3109 75.1233 61.6317 75.5956 60.7706L73.8419 59.8089C73.5414 60.3569 73.1443 60.7572 72.6454 61.0363L73.6217 62.7818ZM75.5929 60.7754C76.0904 59.8799 76.3153 58.8407 76.3153 57.6989H74.3153C74.3153 58.5798 74.1425 59.2678 73.8446 59.8041L75.5929 60.7754ZM96.0298 42.8182L96.9243 42.371L96.6479 41.8182H96.0298V42.8182ZM100.342 51.4432L99.4479 51.8904L100.327 53.6481L101.23 51.903L100.342 51.4432ZM104.808 42.8182V41.8182H104.2L103.92 42.3584L104.808 42.8182ZM113.212 42.8182L114.085 43.3058L114.916 41.8182H113.212V42.8182ZM105.899 55.9091L105.026 55.4214L104.749 55.9181L105.034 56.4104L105.899 55.9091ZM113.484 69V70H115.22L114.35 68.4987L113.484 69ZM105.149 69L104.274 69.4839L104.559 70H105.149V69ZM100.342 60.3068L101.217 59.8229L100.331 58.2203L99.4621 59.8322L100.342 60.3068ZM95.6548 69V70H96.2517L96.535 69.4746L95.6548 69ZM87.2003 69L86.3355 68.4978L85.4632 70H87.2003V69ZM94.8026 55.9091L95.6673 56.4113L95.9517 55.9216L95.678 55.4258L94.8026 55.9091ZM87.5753 42.8182V41.8182H85.8809L86.6998 43.3015L87.5753 42.8182ZM95.1354 43.2654L99.4479 51.8904L101.237 50.996L96.9243 42.371L95.1354 43.2654ZM101.23 51.903L105.696 43.278L103.92 42.3584L99.4543 50.9834L101.23 51.903ZM104.808 43.8182H113.212V41.8182H104.808V43.8182ZM112.339 42.3305L105.026 55.4214L106.772 56.3968L114.085 43.3058L112.339 42.3305ZM105.034 56.4104L112.619 69.5013L114.35 68.4987L106.764 55.4077L105.034 56.4104ZM113.484 68H105.149V70H113.484V68ZM106.024 68.5161L101.217 59.8229L99.4672 60.7907L104.274 69.4839L106.024 68.5161ZM99.4621 59.8322L94.7746 68.5254L96.535 69.4746L101.223 60.7814L99.4621 59.8322ZM95.6548 68H87.2003V70H95.6548V68ZM88.065 69.5022L95.6673 56.4113L93.9378 55.4069L86.3355 68.4978L88.065 69.5022ZM95.678 55.4258L88.4507 42.3349L86.6998 43.3015L93.9271 56.3924L95.678 55.4258ZM87.5753 43.8182H96.0298V41.8182H87.5753V43.8182ZM127.33 34.0909V33.0909H126.33V34.0909H127.33ZM137.778 34.0909L138.704 33.7115L138.449 33.0909H137.778V34.0909ZM146.642 55.7045L145.717 56.084L145.971 56.7045H146.642V55.7045ZM147.051 55.7045V56.7045H147.722L147.976 56.084L147.051 55.7045ZM155.915 34.0909V33.0909H155.244L154.99 33.7115L155.915 34.0909ZM166.364 34.0909H167.364V33.0909H166.364V34.0909ZM166.364 69V70H167.364V69H166.364ZM158.148 69H157.148V70H158.148V69ZM158.148 47.5568H159.148V46.5568H158.148V47.5568ZM157.858 47.5568V46.5568H157.178L156.928 47.1893L157.858 47.5568ZM149.472 68.7784V69.7784H150.152L150.402 69.1459L149.472 68.7784ZM144.222 68.7784L143.291 69.1442L143.54 69.7784H144.222V68.7784ZM135.835 47.4375L136.766 47.0718L136.517 46.4375H135.835V47.4375ZM135.545 47.4375V46.4375H134.545V47.4375H135.545ZM135.545 69V70H136.545V69H135.545ZM127.33 69H126.33V70H127.33V69ZM127.33 35.0909H137.778V33.0909H127.33V35.0909ZM136.853 34.4703L145.717 56.084L147.567 55.3251L138.704 33.7115L136.853 34.4703ZM146.642 56.7045H147.051V54.7045H146.642V56.7045ZM147.976 56.084L156.84 34.4703L154.99 33.7115L146.126 55.3251L147.976 56.084ZM155.915 35.0909H166.364V33.0909H155.915V35.0909ZM165.364 34.0909V69H167.364V34.0909H165.364ZM166.364 68H158.148V70H166.364V68ZM159.148 69V47.5568H157.148V69H159.148ZM158.148 46.5568H157.858V48.5568H158.148V46.5568ZM156.928 47.1893L148.542 68.4109L150.402 69.1459L158.788 47.9243L156.928 47.1893ZM149.472 67.7784H144.222V69.7784H149.472V67.7784ZM145.152 68.4127L136.766 47.0718L134.905 47.8032L143.291 69.1442L145.152 68.4127ZM135.835 46.4375H135.545V48.4375H135.835V46.4375ZM134.545 47.4375V69H136.545V47.4375H134.545ZM135.545 68H127.33V70H135.545V68ZM128.33 69V34.0909H126.33V69H128.33ZM171.626 69H170.626V70H171.626V69ZM171.626 42.8182V41.8182H170.626V42.8182H171.626ZM179.962 42.8182H180.962V41.8182H179.962V42.8182ZM179.962 69V70H180.962V69H179.962ZM172.786 38.608L172.104 39.3394L172.109 39.3443L172.786 38.608ZM172.786 32.983L173.462 33.7193L173.467 33.7143L172.786 32.983ZM178.82 32.983L178.133 33.7098L178.143 33.7193L178.82 32.983ZM178.82 38.608L179.501 39.3397L179.502 39.3393L178.82 38.608ZM172.626 69V42.8182H170.626V69H172.626ZM171.626 43.8182H179.962V41.8182H171.626V43.8182ZM178.962 42.8182V69H180.962V42.8182H178.962ZM179.962 68H171.626V70H179.962V68ZM175.803 38.767C174.876 38.767 174.113 38.4702 173.462 37.8716L172.109 39.3443C173.139 40.2912 174.388 40.767 175.803 40.767V38.767ZM173.467 37.8766C172.82 37.2724 172.524 36.5901 172.524 35.7784H170.524C170.524 37.1712 171.07 38.3753 172.104 39.3393L173.467 37.8766ZM172.524 35.7784C172.524 34.9819 172.816 34.3127 173.462 33.7193L172.109 32.2466C171.073 33.1987 170.524 34.3931 170.524 35.7784H172.524ZM173.467 33.7143C174.12 33.1063 174.88 32.8068 175.803 32.8068V30.8068C174.384 30.8068 173.133 31.2914 172.104 32.2516L173.467 33.7143ZM175.803 32.8068C176.739 32.8068 177.496 33.1078 178.133 33.7097L179.507 32.2562C178.484 31.2899 177.23 30.8068 175.803 30.8068V32.8068ZM178.143 33.7193C178.789 34.3127 179.081 34.9819 179.081 35.7784H181.081C181.081 34.3931 180.532 33.1987 179.496 32.2466L178.143 33.7193ZM179.081 35.7784C179.081 36.5901 178.786 37.2724 178.138 37.8766L179.502 39.3393C180.535 38.3753 181.081 37.1712 181.081 35.7784H179.081ZM178.138 37.8762C177.502 38.4686 176.743 38.767 175.803 38.767V40.767C177.225 40.767 178.478 40.2927 179.501 39.3397L178.138 37.8762ZM193.602 54.0682L192.602 54.0568V54.0682H193.602ZM193.602 69V70H194.602V69H193.602ZM185.267 69H184.267V70H185.267V69ZM185.267 42.8182V41.8182H184.267V42.8182H185.267ZM193.193 42.8182H194.193V41.8182H193.193V42.8182ZM193.193 47.625H192.193V48.625H193.193V47.625ZM193.483 47.625V48.625H194.185L194.423 47.9651L193.483 47.625ZM196.449 43.858L196.994 44.6963L196.999 44.6931L196.449 43.858ZM206.233 43.7216L205.71 44.574L205.718 44.5791L206.233 43.7216ZM209.403 47.1648L208.512 47.6175L208.516 47.6257L209.403 47.1648ZM210.528 52.3125L209.528 52.3067V52.3125H210.528ZM210.528 69V70H211.528V69H210.528ZM202.193 69H201.193V70H202.193V69ZM202.193 53.9489L201.193 53.9411V53.9489H202.193ZM201.085 50.5398L200.343 51.2099L200.348 51.2155L201.085 50.5398ZM195.682 49.892L196.176 50.7612L196.181 50.7585L195.682 49.892ZM194.148 51.5114L193.259 51.0527L193.253 51.0641L194.148 51.5114ZM192.602 54.0682V69H194.602V54.0682H192.602ZM193.602 68H185.267V70H193.602V68ZM186.267 69V42.8182H184.267V69H186.267ZM185.267 43.8182H193.193V41.8182H185.267V43.8182ZM192.193 42.8182V47.625H194.193V42.8182H192.193ZM193.193 48.625H193.483V46.625H193.193V48.625ZM194.423 47.9651C194.931 46.5627 195.783 45.4839 196.994 44.6962L195.904 43.0197C194.319 44.0502 193.194 45.4828 192.543 47.2849L194.423 47.9651ZM196.999 44.6931C198.209 43.896 199.676 43.4773 201.443 43.4773V41.4773C199.347 41.4773 197.484 41.979 195.899 43.0228L196.999 44.6931ZM201.443 43.4773C203.13 43.4773 204.539 43.8556 205.71 44.574L206.756 42.8692C205.222 41.9285 203.439 41.4773 201.443 41.4773V43.4773ZM205.718 44.5791C206.914 45.2963 207.843 46.3005 208.512 47.6175L210.295 46.7121C209.464 45.0745 208.279 43.7832 206.747 42.8641L205.718 44.5791ZM208.516 47.6257C209.189 48.9225 209.539 50.4724 209.528 52.3067L211.528 52.3183C211.541 50.2207 211.14 48.3389 210.291 46.7039L208.516 47.6257ZM209.528 52.3125V69H211.528V52.3125H209.528ZM210.528 68H202.193V70H210.528V68ZM203.193 69V53.9489H201.193V69H203.193ZM203.193 53.9567C203.206 52.33 202.791 50.9207 201.822 49.864L200.348 51.2155C200.879 51.7952 201.203 52.6586 201.193 53.9411L203.193 53.9567ZM201.827 49.8697C200.862 48.8005 199.541 48.3125 198 48.3125V50.3125C199.096 50.3125 199.831 50.6427 200.343 51.2099L201.827 49.8697ZM198 48.3125C196.973 48.3125 196.024 48.5408 195.183 49.0256L196.181 50.7585C196.681 50.4706 197.277 50.3125 198 50.3125V48.3125ZM195.187 49.0229C194.352 49.4982 193.707 50.1843 193.259 51.0527L195.036 51.97C195.315 51.4293 195.694 51.0359 196.176 50.7612L195.187 49.0229ZM193.253 51.0641C192.818 51.9356 192.615 52.945 192.602 54.0568L194.602 54.0795C194.612 53.1913 194.773 52.4963 195.042 51.9586L193.253 51.0641ZM223.206 62.1307L222.206 62.1273L222.196 64.923L223.977 62.7676L223.206 62.1307ZM223.24 52.1932V51.1932H222.243L222.24 52.1898L223.24 52.1932ZM224.399 52.1932V53.1932H224.885L225.186 52.8109L224.399 52.1932ZM231.763 42.8182V41.8182H231.277L230.976 42.2005L231.763 42.8182ZM241.206 42.8182L241.981 43.4498L243.311 41.8182H241.206V42.8182ZM230.263 56.25V57.25H230.738L231.038 56.8816L230.263 56.25ZM228.064 56.25V55.25H227.593L227.293 55.6131L228.064 56.25ZM215.689 69H214.689V70H215.689V69ZM215.689 34.0909V33.0909H214.689V34.0909H215.689ZM224.024 34.0909H225.024V33.0909H224.024V34.0909ZM224.024 69V70H225.024V69H224.024ZM231.95 69L231.104 69.5331L231.398 70H231.95V69ZM225.098 58.125L224.365 57.4448L223.842 58.008L224.252 58.6581L225.098 58.125ZM230.587 52.2102L231.423 51.6624L230.723 50.5931L229.854 51.53L230.587 52.2102ZM241.581 69V70H243.431L242.418 68.4522L241.581 69ZM224.206 62.1341L224.24 52.1966L222.24 52.1898L222.206 62.1273L224.206 62.1341ZM223.24 53.1932H224.399V51.1932H223.24V53.1932ZM225.186 52.8109L232.549 43.4359L230.976 42.2005L223.613 51.5755L225.186 52.8109ZM231.763 43.8182H241.206V41.8182H231.763V43.8182ZM240.431 42.1866L229.488 55.6184L231.038 56.8816L241.981 43.4498L240.431 42.1866ZM230.263 55.25H228.064V57.25H230.263V55.25ZM227.293 55.6131L222.435 61.4938L223.977 62.7676L228.835 56.8869L227.293 55.6131ZM216.689 69V34.0909H214.689V69H216.689ZM215.689 35.0909H224.024V33.0909H215.689V35.0909ZM223.024 34.0909V69H225.024V34.0909H223.024ZM224.024 68H215.689V70H224.024V68ZM232.796 68.4669L225.944 57.5919L224.252 58.6581L231.104 69.5331L232.796 68.4669ZM225.831 58.8052L231.32 52.8904L229.854 51.53L224.365 57.4448L225.831 58.8052ZM229.75 52.758L240.744 69.5478L242.418 68.4522L231.423 51.6624L229.75 52.758ZM241.581 68H231.95V70H241.581V68Z" fill="black" mask="url(#path-1-outside-1_120_21)"/>
<path d="M2.64205 69H1.64205V70H2.64205V69ZM2.64205 34.0909V33.0909H1.64205V34.0909H2.64205ZM26.4716 34.0909H27.4716V33.0909H26.4716V34.0909ZM26.4716 40.9432V41.9432H27.4716V40.9432H26.4716ZM11.0795 40.9432V39.9432H10.0795V40.9432H11.0795ZM11.0795 48.1023H10.0795V49.1023H11.0795V48.1023ZM24.9545 48.1023H25.9545V47.1023H24.9545V48.1023ZM24.9545 54.9716V55.9716H25.9545V54.9716H24.9545ZM11.0795 54.9716V53.9716H10.0795V54.9716H11.0795ZM11.0795 69V70H12.0795V69H11.0795ZM3.64205 69V34.0909H1.64205V69H3.64205ZM2.64205 35.0909H26.4716V33.0909H2.64205V35.0909ZM25.4716 34.0909V40.9432H27.4716V34.0909H25.4716ZM26.4716 39.9432H11.0795V41.9432H26.4716V39.9432ZM10.0795 40.9432V48.1023H12.0795V40.9432H10.0795ZM11.0795 49.1023H24.9545V47.1023H11.0795V49.1023ZM23.9545 48.1023V54.9716H25.9545V48.1023H23.9545ZM24.9545 53.9716H11.0795V55.9716H24.9545V53.9716ZM10.0795 54.9716V69H12.0795V54.9716H10.0795ZM11.0795 68H2.64205V70H11.0795V68ZM33.2301 68.608L32.8255 69.5225L32.8352 69.5267L33.2301 68.608ZM30.179 66.0511L29.338 66.5924L29.3444 66.602L30.179 66.0511ZM29.8381 58.0568L28.9477 57.6015L28.9477 57.6015L29.8381 58.0568ZM31.9517 55.6193L32.5231 56.44L32.5231 56.44L31.9517 55.6193ZM35.054 54.2045L35.3163 55.1696L35.325 55.1671L35.054 54.2045ZM38.804 53.5398L38.8891 54.5362L38.8952 54.5356L38.804 53.5398ZM42.4006 53.1136L42.561 54.1008L42.5729 54.0987L42.4006 53.1136ZM44.3778 52.4489L44.9482 53.2702L44.9528 53.2671L44.3778 52.4489ZM44.1051 49.0909L44.7262 48.3072L44.7262 48.3072L44.1051 49.0909ZM39.0085 49.0909L38.4286 48.2762L38.4286 48.2762L39.0085 49.0909ZM37.7301 51.0682L37.6947 52.0676L38.5307 52.0972L38.7075 51.2795L37.7301 51.0682ZM30.0426 50.7955L29.0527 50.654L28.8953 51.7554L30.0072 51.7948L30.0426 50.7955ZM31.7983 46.5341L31.0009 45.9306L31 45.9318L31.7983 46.5341ZM35.7188 43.5682L36.1149 44.4864L36.1179 44.4851L35.7188 43.5682ZM46.3551 43.0739L46.0835 44.0363L46.0907 44.0383L46.3551 43.0739ZM50.0369 44.7784L49.454 45.591L49.4599 45.5951L50.0369 44.7784ZM52.4574 47.5057L51.5724 47.9714L51.5763 47.9787L52.4574 47.5057ZM53.3267 69V70H54.3267V69H53.3267ZM45.4858 69H44.4858V70H45.4858V69ZM45.4858 65.3523H46.4858V64.3523H45.4858V65.3523ZM45.2812 65.3523V64.3523H44.6772L44.3961 64.887L45.2812 65.3523ZM43.4915 67.6023L42.8466 66.838L42.8407 66.843L43.4915 67.6023ZM40.9517 68.983L40.6522 68.0289L40.649 68.0299L40.9517 68.983ZM42.6733 63.4432L42.2261 62.5487L42.2204 62.5516L42.6733 63.4432ZM44.4119 61.9432L45.2394 62.5047L45.244 62.4979L44.4119 61.9432ZM45.0597 57.2045H46.0597V55.5519L44.5957 56.3187L45.0597 57.2045ZM44.1903 57.5455L43.903 56.5876L43.8939 56.5904L44.1903 57.5455ZM41.8722 58.0739L42.0322 59.061L42.0322 59.061L41.8722 58.0739ZM40.6619 58.2614L40.5164 57.2719L40.5045 57.2738L40.6619 58.2614ZM38.6506 58.8409L38.2256 57.9356L38.2184 57.9391L38.6506 58.8409ZM37.3892 59.8636L36.571 59.2887L36.5678 59.2932L37.3892 59.8636ZM37.8835 63.3068L37.2883 64.1104L37.2954 64.1156L37.8835 63.3068ZM37.679 68.4432C36.1196 68.4432 34.7749 68.1835 33.625 67.6892L32.8352 69.5267C34.2763 70.1461 35.8974 70.4432 37.679 70.4432V68.4432ZM33.6348 67.6935C32.5201 67.2003 31.6546 66.4716 31.0136 65.5003L29.3444 66.602C30.2033 67.9034 31.372 68.8793 32.8255 69.5224L33.6348 67.6935ZM31.0199 65.51C30.4095 64.5615 30.071 63.3246 30.071 61.7386H28.071C28.071 63.6072 28.4712 65.2453 29.3381 66.5923L31.0199 65.51ZM30.071 61.7386C30.071 60.3972 30.3072 59.3358 30.7284 58.5121L28.9477 57.6015C28.3462 58.7778 28.071 60.171 28.071 61.7386H30.071ZM30.7284 58.5121C31.1671 57.6542 31.7637 56.9687 32.5231 56.44L31.3803 54.7986C30.3442 55.52 29.5317 56.4595 28.9477 57.6015L30.7284 58.5121ZM32.5231 56.44C33.3171 55.8872 34.2444 55.4609 35.3163 55.1695L34.7917 53.2396C33.5226 53.5845 32.3817 54.1015 31.3803 54.7986L32.5231 56.44ZM35.325 55.1671C36.4292 54.8562 37.6165 54.6449 38.8891 54.5361L38.7188 52.5434C37.3324 52.6619 36.0197 52.8938 34.783 53.242L35.325 55.1671ZM38.8952 54.5356C40.3947 54.3982 41.6193 54.2537 42.561 54.1007L42.2402 52.1266C41.3636 52.269 40.1906 52.4086 38.7128 52.5439L38.8952 54.5356ZM42.5729 54.0987C43.5234 53.9323 44.3572 53.6807 44.9482 53.2702L43.8074 51.6275C43.5803 51.7852 43.0959 51.9768 42.2282 52.1286L42.5729 54.0987ZM44.9528 53.2671C45.6519 52.7758 46.0085 52.0491 46.0085 51.2045H44.0085C44.0085 51.4282 43.9447 51.531 43.8029 51.6307L44.9528 53.2671ZM46.0085 51.2045V51.1193H44.0085V51.2045H46.0085ZM46.0085 51.1193C46.0085 49.9868 45.603 49.002 44.7262 48.3072L43.484 49.8747C43.8118 50.1344 44.0085 50.5018 44.0085 51.1193H46.0085ZM44.7262 48.3072C43.8964 47.6496 42.8412 47.375 41.6676 47.375V49.375C42.5395 49.375 43.1092 49.5776 43.484 49.8747L44.7262 48.3072ZM41.6676 47.375C40.427 47.375 39.3174 47.6435 38.4286 48.2762L39.5885 49.9056C40.0406 49.5837 40.7037 49.375 41.6676 49.375V47.375ZM38.4286 48.2762C37.5452 48.9051 36.9846 49.7845 36.7527 50.8568L38.7075 51.2795C38.8393 50.6701 39.131 50.2312 39.5885 49.9056L38.4286 48.2762ZM37.7656 50.0688L30.0781 49.7961L30.0072 51.7948L37.6947 52.0676L37.7656 50.0688ZM31.0326 50.9369C31.2366 49.5087 31.758 48.2478 32.5966 47.1364L31 45.9318C29.9523 47.3204 29.3032 48.9003 29.0527 50.654L31.0326 50.9369ZM32.5957 47.1375C33.4319 46.0326 34.5916 45.1437 36.1149 44.4863L35.3226 42.65C33.5277 43.4245 32.0738 44.5129 31.0009 45.9306L32.5957 47.1375ZM36.1179 44.4851C37.6321 43.8258 39.4947 43.4773 41.7358 43.4773V41.4773C39.2951 41.4773 37.1464 41.856 35.3196 42.6513L36.1179 44.4851ZM41.7358 43.4773C43.3271 43.4773 44.7742 43.6667 46.0835 44.0363L46.6268 42.1115C45.1179 41.6856 43.4854 41.4773 41.7358 41.4773V43.4773ZM46.0907 44.0383C47.4008 44.3975 48.517 44.9187 49.454 45.5909L50.6198 43.9659C49.4659 43.1381 48.1276 42.523 46.6195 42.1095L46.0907 44.0383ZM49.4599 45.5951C50.383 46.2473 51.0814 47.0385 51.5725 47.9714L53.3423 47.0399C52.697 45.8138 51.7818 44.7868 50.614 43.9617L49.4599 45.5951ZM51.5763 47.9787C52.068 48.8946 52.3267 49.9613 52.3267 51.2045H54.3267C54.3267 49.6751 54.0058 48.2759 53.3385 47.0327L51.5763 47.9787ZM52.3267 51.2045V69H54.3267V51.2045H52.3267ZM53.3267 68H45.4858V70H53.3267V68ZM46.4858 69V65.3523H44.4858V69H46.4858ZM45.4858 64.3523H45.2812V66.3523H45.4858V64.3523ZM44.3961 64.887C43.987 65.6652 43.4701 66.3119 42.8466 66.838L44.1363 68.3666C44.9674 67.6654 45.6436 66.8121 46.1664 65.8176L44.3961 64.887ZM42.8407 66.843C42.2361 67.3613 41.5116 67.759 40.6522 68.0289L41.2512 69.937C42.3463 69.5932 43.3151 69.0706 44.1423 68.3615L42.8407 66.843ZM40.649 68.0299C39.7982 68.3001 38.812 68.4432 37.679 68.4432V70.4432C38.9778 70.4432 40.1734 70.2794 41.2544 69.936L40.649 68.0299ZM40.2528 64.9886C41.2892 64.9886 42.2541 64.7777 43.1262 64.3348L42.2204 62.5516C41.6607 62.8359 41.012 62.9886 40.2528 62.9886V64.9886ZM43.1205 64.3376C43.9919 63.9019 44.7059 63.2909 45.2394 62.5047L43.5845 61.3817C43.2543 61.8682 42.8093 62.2572 42.2261 62.5488L43.1205 64.3376ZM45.244 62.4979C45.7957 61.6704 46.0597 60.7234 46.0597 59.6932H44.0597C44.0597 60.3675 43.8918 60.9205 43.5799 61.3885L45.244 62.4979ZM46.0597 59.6932V57.2045H44.0597V59.6932H46.0597ZM44.5957 56.3187C44.4281 56.4065 44.201 56.4982 43.903 56.5876L44.4777 58.5033C44.8615 58.3881 45.2139 58.2526 45.5237 58.0904L44.5957 56.3187ZM43.8939 56.5904C43.5926 56.6839 43.2539 56.7741 42.8766 56.8604L43.3223 58.8101C43.7404 58.7145 44.129 58.6115 44.4867 58.5005L43.8939 56.5904ZM42.8766 56.8604C42.5005 56.9463 42.1124 57.0218 41.7121 57.0868L42.0322 59.061C42.4728 58.9895 42.9029 58.9059 43.3223 58.8101L42.8766 56.8604ZM41.7121 57.0868C41.2961 57.1542 40.8975 57.216 40.5164 57.272L40.8074 59.2507C41.1991 59.1931 41.6074 59.1299 42.0322 59.061L41.7121 57.0868ZM40.5045 57.2738C39.6532 57.4095 38.8878 57.6249 38.2257 57.9357L39.0755 59.7461C39.527 59.5342 40.1025 59.3632 40.8194 59.2489L40.5045 57.2738ZM38.2184 57.9391C37.5459 58.2614 36.9812 58.705 36.571 59.2887L38.2074 60.4386C38.3881 60.1814 38.6643 59.9432 39.0827 59.7427L38.2184 57.9391ZM36.5678 59.2932C36.1516 59.8927 35.9631 60.5872 35.9631 61.3295H37.9631C37.9631 60.9355 38.0587 60.6528 38.2106 60.434L36.5678 59.2932ZM35.9631 61.3295C35.9631 62.4624 36.3841 63.4406 37.2883 64.1104L38.4788 62.5033C38.1557 62.264 37.9631 61.9239 37.9631 61.3295H35.9631ZM37.2954 64.1156C38.128 64.7211 39.1374 64.9886 40.2528 64.9886V62.9886C39.4592 62.9886 38.889 62.8016 38.4717 62.4981L37.2954 64.1156ZM75.3153 42.8182V41.8182H74.3153V42.8182H75.3153ZM83.6335 42.8182H84.6335V41.8182H83.6335V42.8182ZM83.6335 69V70H84.6335V69H83.6335ZM75.6903 69H74.6903V70H75.6903V69ZM75.6903 64.125H76.6903V63.125H75.6903V64.125ZM75.4176 64.125V63.125H74.7159L74.4772 63.7849L75.4176 64.125ZM72.4517 67.9432L73.0095 68.7731L73.0111 68.7721L72.4517 67.9432ZM62.7188 68.1136L62.2011 68.9692L62.2011 68.9692L62.7188 68.1136ZM59.5653 64.6875L58.6737 65.1402L58.6751 65.143L59.5653 64.6875ZM58.4233 59.5057L57.4233 59.5057L57.4233 59.5114L58.4233 59.5057ZM58.4233 42.8182V41.8182H57.4233V42.8182H58.4233ZM66.7585 42.8182H67.7585V41.8182H66.7585V42.8182ZM66.7585 57.8693L65.7585 57.8693L65.7586 57.8773L66.7585 57.8693ZM67.8835 61.2273L68.6258 60.5572L68.6258 60.5572L67.8835 61.2273ZM73.1335 61.9091L73.6166 62.7847L73.6217 62.7818L73.1335 61.9091ZM74.7188 60.2898L73.8446 59.8041L73.8419 59.8089L74.7188 60.2898ZM76.3153 57.6989V42.8182H74.3153V57.6989H76.3153ZM75.3153 43.8182H83.6335V41.8182H75.3153V43.8182ZM82.6335 42.8182V69H84.6335V42.8182H82.6335ZM83.6335 68H75.6903V70H83.6335V68ZM76.6903 69V64.125H74.6903V69H76.6903ZM75.6903 63.125H75.4176V65.125H75.6903V63.125ZM74.4772 63.7849C73.9689 65.1902 73.1125 66.2909 71.8923 67.1143L73.0111 68.7721C74.5863 67.7091 75.7072 66.2643 76.358 64.4651L74.4772 63.7849ZM71.8939 67.1132C70.6999 67.9157 69.2264 68.3409 67.4233 68.3409V70.3409C69.552 70.3409 71.4308 69.8343 73.0095 68.7731L71.8939 67.1132ZM67.4233 68.3409C65.7976 68.3409 64.4132 67.97 63.2364 67.2581L62.2011 68.9692C63.7289 69.8936 65.4808 70.3409 67.4233 70.3409V68.3409ZM63.2364 67.2581C62.0499 66.5402 61.1247 65.5398 60.4556 64.232L58.6751 65.143C59.506 66.767 60.683 68.0507 62.2011 68.9692L63.2364 67.2581ZM60.457 64.2348C59.7897 62.9204 59.4339 61.3516 59.4233 59.4999L57.4233 59.5114C57.4354 61.6143 57.841 63.5 58.6737 65.1402L60.457 64.2348ZM59.4233 59.5057V42.8182H57.4233V59.5057H59.4233ZM58.4233 43.8182H66.7585V41.8182H58.4233V43.8182ZM65.7585 42.8182V57.8693H67.7585V42.8182H65.7585ZM65.7586 57.8773C65.7713 59.47 66.1957 60.85 67.1413 61.8974L68.6258 60.5572C68.0941 59.9682 67.7685 59.1096 67.7585 57.8613L65.7586 57.8773ZM67.1413 61.8974C68.0996 62.9589 69.3931 63.4545 70.9006 63.4545V61.4545C69.8626 61.4545 69.1448 61.132 68.6258 60.5572L67.1413 61.8974ZM70.9006 63.4545C71.8814 63.4545 72.7949 63.238 73.6166 62.7847L72.6504 61.0335C72.154 61.3074 71.5788 61.4545 70.9006 61.4545V63.4545ZM73.6217 62.7818C74.4636 62.3109 75.1233 61.6317 75.5956 60.7706L73.8419 59.8089C73.5414 60.3569 73.1443 60.7572 72.6454 61.0363L73.6217 62.7818ZM75.5929 60.7754C76.0904 59.8799 76.3153 58.8407 76.3153 57.6989H74.3153C74.3153 58.5798 74.1425 59.2678 73.8446 59.8041L75.5929 60.7754ZM96.0298 42.8182L96.9243 42.371L96.6479 41.8182H96.0298V42.8182ZM100.342 51.4432L99.4479 51.8904L100.327 53.6481L101.23 51.903L100.342 51.4432ZM104.808 42.8182V41.8182H104.2L103.92 42.3584L104.808 42.8182ZM113.212 42.8182L114.085 43.3058L114.916 41.8182H113.212V42.8182ZM105.899 55.9091L105.026 55.4214L104.749 55.9181L105.034 56.4104L105.899 55.9091ZM113.484 69V70H115.22L114.35 68.4987L113.484 69ZM105.149 69L104.274 69.4839L104.559 70H105.149V69ZM100.342 60.3068L101.217 59.8229L100.331 58.2203L99.4621 59.8322L100.342 60.3068ZM95.6548 69V70H96.2517L96.535 69.4746L95.6548 69ZM87.2003 69L86.3355 68.4978L85.4632 70H87.2003V69ZM94.8026 55.9091L95.6673 56.4113L95.9517 55.9216L95.678 55.4258L94.8026 55.9091ZM87.5753 42.8182V41.8182H85.8809L86.6998 43.3015L87.5753 42.8182ZM95.1354 43.2654L99.4479 51.8904L101.237 50.996L96.9243 42.371L95.1354 43.2654ZM101.23 51.903L105.696 43.278L103.92 42.3584L99.4543 50.9834L101.23 51.903ZM104.808 43.8182H113.212V41.8182H104.808V43.8182ZM112.339 42.3305L105.026 55.4214L106.772 56.3968L114.085 43.3058L112.339 42.3305ZM105.034 56.4104L112.619 69.5013L114.35 68.4987L106.764 55.4077L105.034 56.4104ZM113.484 68H105.149V70H113.484V68ZM106.024 68.5161L101.217 59.8229L99.4672 60.7907L104.274 69.4839L106.024 68.5161ZM99.4621 59.8322L94.7746 68.5254L96.535 69.4746L101.223 60.7814L99.4621 59.8322ZM95.6548 68H87.2003V70H95.6548V68ZM88.065 69.5022L95.6673 56.4113L93.9378 55.4069L86.3355 68.4978L88.065 69.5022ZM95.678 55.4258L88.4507 42.3349L86.6998 43.3015L93.9271 56.3924L95.678 55.4258ZM87.5753 43.8182H96.0298V41.8182H87.5753V43.8182ZM127.33 34.0909V33.0909H126.33V34.0909H127.33ZM137.778 34.0909L138.704 33.7115L138.449 33.0909H137.778V34.0909ZM146.642 55.7045L145.717 56.084L145.971 56.7045H146.642V55.7045ZM147.051 55.7045V56.7045H147.722L147.976 56.084L147.051 55.7045ZM155.915 34.0909V33.0909H155.244L154.99 33.7115L155.915 34.0909ZM166.364 34.0909H167.364V33.0909H166.364V34.0909ZM166.364 69V70H167.364V69H166.364ZM158.148 69H157.148V70H158.148V69ZM158.148 47.5568H159.148V46.5568H158.148V47.5568ZM157.858 47.5568V46.5568H157.178L156.928 47.1893L157.858 47.5568ZM149.472 68.7784V69.7784H150.152L150.402 69.1459L149.472 68.7784ZM144.222 68.7784L143.291 69.1442L143.54 69.7784H144.222V68.7784ZM135.835 47.4375L136.766 47.0718L136.517 46.4375H135.835V47.4375ZM135.545 47.4375V46.4375H134.545V47.4375H135.545ZM135.545 69V70H136.545V69H135.545ZM127.33 69H126.33V70H127.33V69ZM127.33 35.0909H137.778V33.0909H127.33V35.0909ZM136.853 34.4703L145.717 56.084L147.567 55.3251L138.704 33.7115L136.853 34.4703ZM146.642 56.7045H147.051V54.7045H146.642V56.7045ZM147.976 56.084L156.84 34.4703L154.99 33.7115L146.126 55.3251L147.976 56.084ZM155.915 35.0909H166.364V33.0909H155.915V35.0909ZM165.364 34.0909V69H167.364V34.0909H165.364ZM166.364 68H158.148V70H166.364V68ZM159.148 69V47.5568H157.148V69H159.148ZM158.148 46.5568H157.858V48.5568H158.148V46.5568ZM156.928 47.1893L148.542 68.4109L150.402 69.1459L158.788 47.9243L156.928 47.1893ZM149.472 67.7784H144.222V69.7784H149.472V67.7784ZM145.152 68.4127L136.766 47.0718L134.905 47.8032L143.291 69.1442L145.152 68.4127ZM135.835 46.4375H135.545V48.4375H135.835V46.4375ZM134.545 47.4375V69H136.545V47.4375H134.545ZM135.545 68H127.33V70H135.545V68ZM128.33 69V34.0909H126.33V69H128.33ZM171.626 69H170.626V70H171.626V69ZM171.626 42.8182V41.8182H170.626V42.8182H171.626ZM179.962 42.8182H180.962V41.8182H179.962V42.8182ZM179.962 69V70H180.962V69H179.962ZM172.786 38.608L172.104 39.3394L172.109 39.3443L172.786 38.608ZM172.786 32.983L173.462 33.7193L173.467 33.7143L172.786 32.983ZM178.82 32.983L178.133 33.7098L178.143 33.7193L178.82 32.983ZM178.82 38.608L179.501 39.3397L179.502 39.3393L178.82 38.608ZM172.626 69V42.8182H170.626V69H172.626ZM171.626 43.8182H179.962V41.8182H171.626V43.8182ZM178.962 42.8182V69H180.962V42.8182H178.962ZM179.962 68H171.626V70H179.962V68ZM175.803 38.767C174.876 38.767 174.113 38.4702 173.462 37.8716L172.109 39.3443C173.139 40.2912 174.388 40.767 175.803 40.767V38.767ZM173.467 37.8766C172.82 37.2724 172.524 36.5901 172.524 35.7784H170.524C170.524 37.1712 171.07 38.3753 172.104 39.3393L173.467 37.8766ZM172.524 35.7784C172.524 34.9819 172.816 34.3127 173.462 33.7193L172.109 32.2466C171.073 33.1987 170.524 34.3931 170.524 35.7784H172.524ZM173.467 33.7143C174.12 33.1063 174.88 32.8068 175.803 32.8068V30.8068C174.384 30.8068 173.133 31.2914 172.104 32.2516L173.467 33.7143ZM175.803 32.8068C176.739 32.8068 177.496 33.1078 178.133 33.7097L179.507 32.2562C178.484 31.2899 177.23 30.8068 175.803 30.8068V32.8068ZM178.143 33.7193C178.789 34.3127 179.081 34.9819 179.081 35.7784H181.081C181.081 34.3931 180.532 33.1987 179.496 32.2466L178.143 33.7193ZM179.081 35.7784C179.081 36.5901 178.786 37.2724 178.138 37.8766L179.502 39.3393C180.535 38.3753 181.081 37.1712 181.081 35.7784H179.081ZM178.138 37.8762C177.502 38.4686 176.743 38.767 175.803 38.767V40.767C177.225 40.767 178.478 40.2927 179.501 39.3397L178.138 37.8762ZM193.602 54.0682L192.602 54.0568V54.0682H193.602ZM193.602 69V70H194.602V69H193.602ZM185.267 69H184.267V70H185.267V69ZM185.267 42.8182V41.8182H184.267V42.8182H185.267ZM193.193 42.8182H194.193V41.8182H193.193V42.8182ZM193.193 47.625H192.193V48.625H193.193V47.625ZM193.483 47.625V48.625H194.185L194.423 47.9651L193.483 47.625ZM196.449 43.858L196.994 44.6963L196.999 44.6931L196.449 43.858ZM206.233 43.7216L205.71 44.574L205.718 44.5791L206.233 43.7216ZM209.403 47.1648L208.512 47.6175L208.516 47.6257L209.403 47.1648ZM210.528 52.3125L209.528 52.3067V52.3125H210.528ZM210.528 69V70H211.528V69H210.528ZM202.193 69H201.193V70H202.193V69ZM202.193 53.9489L201.193 53.9411V53.9489H202.193ZM201.085 50.5398L200.343 51.2099L200.348 51.2155L201.085 50.5398ZM195.682 49.892L196.176 50.7612L196.181 50.7585L195.682 49.892ZM194.148 51.5114L193.259 51.0527L193.253 51.0641L194.148 51.5114ZM192.602 54.0682V69H194.602V54.0682H192.602ZM193.602 68H185.267V70H193.602V68ZM186.267 69V42.8182H184.267V69H186.267ZM185.267 43.8182H193.193V41.8182H185.267V43.8182ZM192.193 42.8182V47.625H194.193V42.8182H192.193ZM193.193 48.625H193.483V46.625H193.193V48.625ZM194.423 47.9651C194.931 46.5627 195.783 45.4839 196.994 44.6962L195.904 43.0197C194.319 44.0502 193.194 45.4828 192.543 47.2849L194.423 47.9651ZM196.999 44.6931C198.209 43.896 199.676 43.4773 201.443 43.4773V41.4773C199.347 41.4773 197.484 41.979 195.899 43.0228L196.999 44.6931ZM201.443 43.4773C203.13 43.4773 204.539 43.8556 205.71 44.574L206.756 42.8692C205.222 41.9285 203.439 41.4773 201.443 41.4773V43.4773ZM205.718 44.5791C206.914 45.2963 207.843 46.3005 208.512 47.6175L210.295 46.7121C209.464 45.0745 208.279 43.7832 206.747 42.8641L205.718 44.5791ZM208.516 47.6257C209.189 48.9225 209.539 50.4724 209.528 52.3067L211.528 52.3183C211.541 50.2207 211.14 48.3389 210.291 46.7039L208.516 47.6257ZM209.528 52.3125V69H211.528V52.3125H209.528ZM210.528 68H202.193V70H210.528V68ZM203.193 69V53.9489H201.193V69H203.193ZM203.193 53.9567C203.206 52.33 202.791 50.9207 201.822 49.864L200.348 51.2155C200.879 51.7952 201.203 52.6586 201.193 53.9411L203.193 53.9567ZM201.827 49.8697C200.862 48.8005 199.541 48.3125 198 48.3125V50.3125C199.096 50.3125 199.831 50.6427 200.343 51.2099L201.827 49.8697ZM198 48.3125C196.973 48.3125 196.024 48.5408 195.183 49.0256L196.181 50.7585C196.681 50.4706 197.277 50.3125 198 50.3125V48.3125ZM195.187 49.0229C194.352 49.4982 193.707 50.1843 193.259 51.0527L195.036 51.97C195.315 51.4293 195.694 51.0359 196.176 50.7612L195.187 49.0229ZM193.253 51.0641C192.818 51.9356 192.615 52.945 192.602 54.0568L194.602 54.0795C194.612 53.1913 194.773 52.4963 195.042 51.9586L193.253 51.0641ZM223.206 62.1307L222.206 62.1273L222.196 64.923L223.977 62.7676L223.206 62.1307ZM223.24 52.1932V51.1932H222.243L222.24 52.1898L223.24 52.1932ZM224.399 52.1932V53.1932H224.885L225.186 52.8109L224.399 52.1932ZM231.763 42.8182V41.8182H231.277L230.976 42.2005L231.763 42.8182ZM241.206 42.8182L241.981 43.4498L243.311 41.8182H241.206V42.8182ZM230.263 56.25V57.25H230.738L231.038 56.8816L230.263 56.25ZM228.064 56.25V55.25H227.593L227.293 55.6131L228.064 56.25ZM215.689 69H214.689V70H215.689V69ZM215.689 34.0909V33.0909H214.689V34.0909H215.689ZM224.024 34.0909H225.024V33.0909H224.024V34.0909ZM224.024 69V70H225.024V69H224.024ZM231.95 69L231.104 69.5331L231.398 70H231.95V69ZM225.098 58.125L224.365 57.4448L223.842 58.008L224.252 58.6581L225.098 58.125ZM230.587 52.2102L231.423 51.6624L230.723 50.5931L229.854 51.53L230.587 52.2102ZM241.581 69V70H243.431L242.418 68.4522L241.581 69ZM224.206 62.1341L224.24 52.1966L222.24 52.1898L222.206 62.1273L224.206 62.1341ZM223.24 53.1932H224.399V51.1932H223.24V53.1932ZM225.186 52.8109L232.549 43.4359L230.976 42.2005L223.613 51.5755L225.186 52.8109ZM231.763 43.8182H241.206V41.8182H231.763V43.8182ZM240.431 42.1866L229.488 55.6184L231.038 56.8816L241.981 43.4498L240.431 42.1866ZM230.263 55.25H228.064V57.25H230.263V55.25ZM227.293 55.6131L222.435 61.4938L223.977 62.7676L228.835 56.8869L227.293 55.6131ZM216.689 69V34.0909H214.689V69H216.689ZM215.689 35.0909H224.024V33.0909H215.689V35.0909ZM223.024 34.0909V69H225.024V34.0909H223.024ZM224.024 68H215.689V70H224.024V68ZM232.796 68.4669L225.944 57.5919L224.252 58.6581L231.104 69.5331L232.796 68.4669ZM225.831 58.8052L231.32 52.8904L229.854 51.53L224.365 57.4448L225.831 58.8052ZM229.75 52.758L240.744 69.5478L242.418 68.4522L231.423 51.6624L229.75 52.758ZM241.581 68H231.95V70H241.581V68Z" fill="black" fill-opacity="0.2" mask="url(#path-1-outside-1_120_21)"/>
</g>
</g>
<defs>
<filter id="filter0_dd_120_21" x="-2.35791" y="30.8068" width="249.789" height="47.6365" filterUnits="userSpaceOnUse" color-interpolation-filters="sRGB">
<feFlood flood-opacity="0" result="BackgroundImageFix"/>
<feColorMatrix in="SourceAlpha" type="matrix" values="0 0 0 0 0 0 0 0 0 0 0 0 0 0 0 0 0 0 127 0" result="hardAlpha"/>
<feOffset dy="4"/>
<feGaussianBlur stdDeviation="2"/>
<feComposite in2="hardAlpha" operator="out"/>
<feColorMatrix type="matrix" values="0 0 0 0 0 0 0 0 0 0 0 0 0 0 0 0 0 0 0.25 0"/>
<feBlend mode="normal" in2="BackgroundImageFix" result="effect1_dropShadow_120_21"/>
<feColorMatrix in="SourceAlpha" type="matrix" values="0 0 0 0 0 0 0 0 0 0 0 0 0 0 0 0 0 0 127 0" result="hardAlpha"/>
<feOffset dy="4"/>
<feGaussianBlur stdDeviation="2"/>
<feComposite in2="hardAlpha" operator="out"/>
<feColorMatrix type="matrix" values="0 0 0 0 0 0 0 0 0 0 0 0 0 0 0 0 0 0 0.25 0"/>
<feBlend mode="normal" in2="effect1_dropShadow_120_21" result="effect2_dropShadow_120_21"/>
<feBlend mode="normal" in="SourceGraphic" in2="effect2_dropShadow_120_21" result="shape"/>
</filter>
<clipPath id="clip0_120_21">
<rect width="322" height="117" fill="white"/>
</clipPath>
</defs>
</svg>
