<svg width="322" height="117" viewBox="0 0 322 117" fill="none" xmlns="http://www.w3.org/2000/svg">
<g clip-path="url(#clip0_138_502)">
<rect width="322" height="117" fill="white"/>
<g filter="url(#filter0_dd_138_502)">
<mask id="path-1-outside-1_138_502" maskUnits="userSpaceOnUse" x="1" y="32" width="109" height="39" fill="black">
<rect fill="white" x="1" y="32" width="109" height="39"/>
<path d="M25.5511 45.4943C25.358 44.7784 25.0739 44.1477 24.6989 43.6023C24.3239 43.0455 23.8636 42.5739 23.3182 42.1875C22.7727 41.8011 22.1477 41.5114 21.4432 41.3182C20.7386 41.1136 19.9659 41.0114 19.125 41.0114C17.4318 41.0114 15.9659 41.4205 14.7273 42.2386C13.5 43.0568 12.5511 44.25 11.8807 45.8182C11.2102 47.375 10.875 49.267 10.875 51.4943C10.875 53.733 11.1989 55.642 11.8466 57.2216C12.4943 58.8011 13.4318 60.0057 14.6591 60.8352C15.8864 61.6648 17.375 62.0795 19.125 62.0795C20.6705 62.0795 21.9773 61.8295 23.0455 61.3295C24.125 60.8182 24.9432 60.0966 25.5 59.1648C26.0568 58.233 26.3352 57.1364 26.3352 55.875L27.9034 56.0625H19.4148V49.9091H34.4659V54.5284C34.4659 57.6534 33.8011 60.3295 32.4716 62.5568C31.1534 64.7841 29.3352 66.4943 27.017 67.6875C24.7102 68.8807 22.0568 69.4773 19.0568 69.4773C15.7273 69.4773 12.8011 68.7557 10.2784 67.3125C7.75568 65.8693 5.78977 63.8125 4.38068 61.142C2.97159 58.4602 2.26705 55.2784 2.26705 51.5966C2.26705 48.733 2.69318 46.1932 3.54545 43.9773C4.39773 41.75 5.58523 39.8636 7.10795 38.3182C8.64205 36.7727 10.4148 35.6023 12.4261 34.8068C14.4489 34.0114 16.625 33.6136 18.9545 33.6136C20.9773 33.6136 22.858 33.9034 24.5966 34.483C26.3466 35.0625 27.892 35.8807 29.233 36.9375C30.5852 37.9943 31.6818 39.25 32.5227 40.7045C33.3636 42.1591 33.8864 43.7557 34.0909 45.4943H25.5511ZM47.7741 34.0909V69H39.4389V34.0909H47.7741ZM69.9716 57.6989V42.8182H78.2898V69H70.3466V64.125H70.0739C69.4943 65.7273 68.5057 67 67.108 67.9432C65.7216 68.875 64.0455 69.3409 62.0795 69.3409C60.2955 69.3409 58.7273 68.9318 57.375 68.1136C56.0227 67.2955 54.9716 66.1534 54.2216 64.6875C53.4716 63.2102 53.0909 61.483 53.0795 59.5057V42.8182H61.4148V57.8693C61.4261 59.2898 61.8011 60.4091 62.5398 61.2273C63.2784 62.0455 64.2841 62.4545 65.5568 62.4545C66.3864 62.4545 67.1307 62.2727 67.7898 61.9091C68.4602 61.5341 68.9886 60.9943 69.375 60.2898C69.7727 59.5739 69.9716 58.7102 69.9716 57.6989ZM95.8338 69.4943C93.0952 69.4943 90.7315 68.9545 88.7429 67.875C86.7656 66.7841 85.2429 65.233 84.1747 63.2216C83.1179 61.1989 82.5895 58.7955 82.5895 56.0114C82.5895 53.3068 83.1236 50.9432 84.1918 48.9205C85.2599 46.8864 86.7656 45.3068 88.7088 44.1818C90.652 43.0455 92.9418 42.4773 95.5781 42.4773C97.4418 42.4773 99.1463 42.767 100.692 43.3466C102.237 43.9261 103.572 44.7841 104.697 45.9205C105.822 47.0568 106.697 48.4602 107.322 50.1307C107.947 51.7898 108.26 53.6932 108.26 55.8409V57.9205H85.5043V53.0795H100.504C100.493 52.1932 100.283 51.4034 99.8736 50.7102C99.4645 50.017 98.902 49.4773 98.1861 49.0909C97.4815 48.6932 96.669 48.4943 95.7486 48.4943C94.8168 48.4943 93.9815 48.7045 93.2429 49.125C92.5043 49.5341 91.919 50.0966 91.4872 50.8125C91.0554 51.517 90.8281 52.3182 90.8054 53.2159V58.142C90.8054 59.2102 91.0156 60.1477 91.4361 60.9545C91.8565 61.75 92.4531 62.3693 93.2259 62.8125C93.9986 63.2557 94.919 63.4773 95.9872 63.4773C96.7259 63.4773 97.3963 63.375 97.9986 63.1705C98.6009 62.9659 99.1179 62.6648 99.5497 62.267C99.9815 61.8693 100.305 61.3807 100.521 60.8011L108.175 61.0227C107.857 62.7386 107.158 64.233 106.078 65.5057C105.01 66.767 103.607 67.75 101.868 68.4545C100.129 69.1477 98.1179 69.4943 95.8338 69.4943Z"/>
</mask>
<path d="M25.5511 45.4943C25.358 44.7784 25.0739 44.1477 24.6989 43.6023C24.3239 43.0455 23.8636 42.5739 23.3182 42.1875C22.7727 41.8011 22.1477 41.5114 21.4432 41.3182C20.7386 41.1136 19.9659 41.0114 19.125 41.0114C17.4318 41.0114 15.9659 41.4205 14.7273 42.2386C13.5 43.0568 12.5511 44.25 11.8807 45.8182C11.2102 47.375 10.875 49.267 10.875 51.4943C10.875 53.733 11.1989 55.642 11.8466 57.2216C12.4943 58.8011 13.4318 60.0057 14.6591 60.8352C15.8864 61.6648 17.375 62.0795 19.125 62.0795C20.6705 62.0795 21.9773 61.8295 23.0455 61.3295C24.125 60.8182 24.9432 60.0966 25.5 59.1648C26.0568 58.233 26.3352 57.1364 26.3352 55.875L27.9034 56.0625H19.4148V49.9091H34.4659V54.5284C34.4659 57.6534 33.8011 60.3295 32.4716 62.5568C31.1534 64.7841 29.3352 66.4943 27.017 67.6875C24.7102 68.8807 22.0568 69.4773 19.0568 69.4773C15.7273 69.4773 12.8011 68.7557 10.2784 67.3125C7.75568 65.8693 5.78977 63.8125 4.38068 61.142C2.97159 58.4602 2.26705 55.2784 2.26705 51.5966C2.26705 48.733 2.69318 46.1932 3.54545 43.9773C4.39773 41.75 5.58523 39.8636 7.10795 38.3182C8.64205 36.7727 10.4148 35.6023 12.4261 34.8068C14.4489 34.0114 16.625 33.6136 18.9545 33.6136C20.9773 33.6136 22.858 33.9034 24.5966 34.483C26.3466 35.0625 27.892 35.8807 29.233 36.9375C30.5852 37.9943 31.6818 39.25 32.5227 40.7045C33.3636 42.1591 33.8864 43.7557 34.0909 45.4943H25.5511ZM47.7741 34.0909V69H39.4389V34.0909H47.7741ZM69.9716 57.6989V42.8182H78.2898V69H70.3466V64.125H70.0739C69.4943 65.7273 68.5057 67 67.108 67.9432C65.7216 68.875 64.0455 69.3409 62.0795 69.3409C60.2955 69.3409 58.7273 68.9318 57.375 68.1136C56.0227 67.2955 54.9716 66.1534 54.2216 64.6875C53.4716 63.2102 53.0909 61.483 53.0795 59.5057V42.8182H61.4148V57.8693C61.4261 59.2898 61.8011 60.4091 62.5398 61.2273C63.2784 62.0455 64.2841 62.4545 65.5568 62.4545C66.3864 62.4545 67.1307 62.2727 67.7898 61.9091C68.4602 61.5341 68.9886 60.9943 69.375 60.2898C69.7727 59.5739 69.9716 58.7102 69.9716 57.6989ZM95.8338 69.4943C93.0952 69.4943 90.7315 68.9545 88.7429 67.875C86.7656 66.7841 85.2429 65.233 84.1747 63.2216C83.1179 61.1989 82.5895 58.7955 82.5895 56.0114C82.5895 53.3068 83.1236 50.9432 84.1918 48.9205C85.2599 46.8864 86.7656 45.3068 88.7088 44.1818C90.652 43.0455 92.9418 42.4773 95.5781 42.4773C97.4418 42.4773 99.1463 42.767 100.692 43.3466C102.237 43.9261 103.572 44.7841 104.697 45.9205C105.822 47.0568 106.697 48.4602 107.322 50.1307C107.947 51.7898 108.26 53.6932 108.26 55.8409V57.9205H85.5043V53.0795H100.504C100.493 52.1932 100.283 51.4034 99.8736 50.7102C99.4645 50.017 98.902 49.4773 98.1861 49.0909C97.4815 48.6932 96.669 48.4943 95.7486 48.4943C94.8168 48.4943 93.9815 48.7045 93.2429 49.125C92.5043 49.5341 91.919 50.0966 91.4872 50.8125C91.0554 51.517 90.8281 52.3182 90.8054 53.2159V58.142C90.8054 59.2102 91.0156 60.1477 91.4361 60.9545C91.8565 61.75 92.4531 62.3693 93.2259 62.8125C93.9986 63.2557 94.919 63.4773 95.9872 63.4773C96.7259 63.4773 97.3963 63.375 97.9986 63.1705C98.6009 62.9659 99.1179 62.6648 99.5497 62.267C99.9815 61.8693 100.305 61.3807 100.521 60.8011L108.175 61.0227C107.857 62.7386 107.158 64.233 106.078 65.5057C105.01 66.767 103.607 67.75 101.868 68.4545C100.129 69.1477 98.1179 69.4943 95.8338 69.4943Z" fill="#002855"/>
<path d="M25.5511 45.4943L24.5857 45.7548L24.7852 46.4943H25.5511V45.4943ZM24.6989 43.6023L23.8694 44.1609L23.8748 44.1688L24.6989 43.6023ZM21.4432 41.3182L21.1644 42.2785L21.1715 42.2806L21.1787 42.2826L21.4432 41.3182ZM14.7273 42.2386L14.1761 41.4042L14.1726 41.4066L14.7273 42.2386ZM11.8807 45.8182L12.7991 46.2137L12.8002 46.2113L11.8807 45.8182ZM11.8466 57.2216L12.7718 56.8422L12.7718 56.8422L11.8466 57.2216ZM14.6591 60.8352L15.2191 60.0067L15.2191 60.0067L14.6591 60.8352ZM23.0455 61.3295L23.4694 62.2352L23.4735 62.2333L23.0455 61.3295ZM25.5 59.1648L24.6416 58.6518L24.6416 58.6518L25.5 59.1648ZM26.3352 55.875L26.4539 54.8821L25.3352 54.7483V55.875H26.3352ZM27.9034 56.0625V57.0625L28.0221 55.0696L27.9034 56.0625ZM19.4148 56.0625H18.4148V57.0625H19.4148V56.0625ZM19.4148 49.9091V48.9091H18.4148V49.9091H19.4148ZM34.4659 49.9091H35.4659V48.9091H34.4659V49.9091ZM32.4716 62.5568L31.6129 62.0443L31.611 62.0475L32.4716 62.5568ZM27.017 67.6875L26.5594 66.7984L26.5576 66.7993L27.017 67.6875ZM10.2784 67.3125L10.775 66.4445L10.775 66.4445L10.2784 67.3125ZM4.38068 61.142L3.49544 61.6072L3.49625 61.6087L4.38068 61.142ZM3.54545 43.9773L4.4788 44.3363L4.47941 44.3347L3.54545 43.9773ZM7.10795 38.3182L6.39824 37.6137L6.39563 37.6163L7.10795 38.3182ZM12.4261 34.8068L12.0602 33.8762L12.0584 33.8769L12.4261 34.8068ZM24.5966 34.483L24.2804 35.4316L24.2822 35.4323L24.5966 34.483ZM29.233 36.9375L28.614 37.7229L28.6172 37.7254L29.233 36.9375ZM32.5227 40.7045L31.657 41.205L31.657 41.205L32.5227 40.7045ZM34.0909 45.4943V46.4943H35.2155L35.0841 45.3775L34.0909 45.4943ZM26.5166 45.2338C26.2975 44.4216 25.9692 43.685 25.5229 43.0357L23.8748 44.1688C24.1785 44.6105 24.4185 45.1352 24.5857 45.7548L26.5166 45.2338ZM25.5283 43.0437C25.086 42.387 24.5408 41.828 23.8962 41.3715L22.7402 43.0035C23.1865 43.3197 23.5617 43.7039 23.8694 44.1609L25.5283 43.0437ZM23.8962 41.3715C23.2472 40.9118 22.5141 40.5749 21.7076 40.3538L21.1787 42.2826C21.7814 42.4478 22.2982 42.6905 22.7402 43.0035L23.8962 41.3715ZM21.722 40.3578C20.9147 40.1235 20.0468 40.0114 19.125 40.0114V42.0114C19.8851 42.0114 20.5625 42.1038 21.1644 42.2785L21.722 40.3578ZM19.125 40.0114C17.2642 40.0114 15.6004 40.4634 14.1761 41.4042L15.2784 43.073C16.3314 42.3775 17.5994 42.0114 19.125 42.0114V40.0114ZM14.1726 41.4066C12.7596 42.3486 11.6958 43.7068 10.9612 45.4251L12.8002 46.2113C13.4065 44.7932 14.2404 43.7651 15.282 43.0707L14.1726 41.4066ZM10.9622 45.4226C10.2239 47.137 9.875 49.1717 9.875 51.4943H11.875C11.875 49.3624 12.1965 47.613 12.7991 46.2137L10.9622 45.4226ZM9.875 51.4943C9.875 53.8246 10.2115 55.8699 10.9214 57.601L12.7718 56.8422C12.1862 55.4142 11.875 53.6413 11.875 51.4943H9.875ZM10.9214 57.601C11.6322 59.3344 12.6846 60.7076 14.0991 61.6637L15.2191 60.0067C14.179 59.3037 13.3565 58.2679 12.7718 56.8422L10.9214 57.601ZM14.0991 61.6637C15.5199 62.6241 17.2124 63.0795 19.125 63.0795V61.0795C17.5376 61.0795 16.2528 60.7055 15.2191 60.0067L14.0991 61.6637ZM19.125 63.0795C20.7734 63.0795 22.234 62.8135 23.4694 62.2352L22.6215 60.4239C21.7205 60.8456 20.5675 61.0795 19.125 61.0795V63.0795ZM23.4735 62.2333C24.7133 61.646 25.6899 60.7965 26.3584 59.6777L24.6416 58.6518C24.1965 59.3967 23.5367 59.9904 22.6174 60.4258L23.4735 62.2333ZM26.3584 59.6777C27.022 58.5672 27.3352 57.2873 27.3352 55.875H25.3352C25.3352 56.9854 25.0916 57.8987 24.6416 58.6518L26.3584 59.6777ZM26.2165 56.8679L27.7847 57.0554L28.0221 55.0696L26.4539 54.8821L26.2165 56.8679ZM27.9034 55.0625H19.4148V57.0625H27.9034V55.0625ZM20.4148 56.0625V49.9091H18.4148V56.0625H20.4148ZM19.4148 50.9091H34.4659V48.9091H19.4148V50.9091ZM33.4659 49.9091V54.5284H35.4659V49.9091H33.4659ZM33.4659 54.5284C33.4659 57.51 32.8327 60.0009 31.6129 62.0443L33.3302 63.0694C34.7696 60.6581 35.4659 57.7968 35.4659 54.5284H33.4659ZM31.611 62.0475C30.3895 64.1115 28.7115 65.6907 26.5594 66.7984L27.4747 68.5766C29.9589 67.298 31.9174 65.4567 33.3322 63.0661L31.611 62.0475ZM26.5576 66.7993C24.4134 67.9084 21.9218 68.4773 19.0568 68.4773V70.4773C22.1918 70.4773 25.0071 69.853 27.4765 68.5757L26.5576 66.7993ZM19.0568 68.4773C15.8757 68.4773 13.1256 67.7892 10.775 66.4445L9.78185 68.1805C12.4766 69.7221 15.5788 70.4773 19.0568 70.4773V68.4773ZM10.775 66.4445C8.42362 65.0994 6.58925 63.1848 5.26511 60.6754L3.49625 61.6087C4.9903 64.4402 7.08775 66.6393 9.78185 68.1805L10.775 66.4445ZM5.26593 60.6769C3.94678 58.1663 3.26705 55.1509 3.26705 51.5966H1.26705C1.26705 55.4059 1.9964 58.7542 3.49544 61.6072L5.26593 60.6769ZM3.26705 51.5966C3.26705 48.8311 3.67864 46.4167 4.4788 44.3363L2.61211 43.6183C1.70773 45.9697 1.26705 48.6348 1.26705 51.5966H3.26705ZM4.47941 44.3347C5.28729 42.2234 6.40363 40.4578 7.82028 39.02L6.39563 37.6163C4.76682 39.2695 3.50816 41.2766 2.6115 43.6199L4.47941 44.3347ZM7.81767 39.0227C9.25523 37.5745 10.9117 36.4811 12.7939 35.7367L12.0584 33.8769C9.9178 34.7235 8.02887 35.971 6.39824 37.6137L7.81767 39.0227ZM12.7921 35.7374C14.6901 34.991 16.7412 34.6136 18.9545 34.6136V32.6136C16.5088 32.6136 14.2076 33.0317 12.0602 33.8762L12.7921 35.7374ZM18.9545 34.6136C20.8809 34.6136 22.6537 34.8894 24.2804 35.4316L24.9128 33.5343C23.0622 32.9174 21.0737 32.6136 18.9545 32.6136V34.6136ZM24.2822 35.4323C25.9307 35.9782 27.3713 36.7435 28.614 37.7229L29.852 36.1521C28.4128 35.0178 26.7624 34.1468 24.911 33.5337L24.2822 35.4323ZM28.6172 37.7254C29.8707 38.7051 30.8816 39.8639 31.657 41.205L33.3885 40.204C32.482 38.6361 31.2997 37.2836 29.8487 36.1496L28.6172 37.7254ZM31.657 41.205C32.4269 42.5368 32.9084 44.002 33.0978 45.6112L35.0841 45.3775C34.8643 43.5094 34.3004 41.7814 33.3885 40.204L31.657 41.205ZM34.0909 44.4943H25.5511V46.4943H34.0909V44.4943ZM47.7741 34.0909H48.7741V33.0909H47.7741V34.0909ZM47.7741 69V70H48.7741V69H47.7741ZM39.4389 69H38.4389V70H39.4389V69ZM39.4389 34.0909V33.0909H38.4389V34.0909H39.4389ZM46.7741 34.0909V69H48.7741V34.0909H46.7741ZM47.7741 68H39.4389V70H47.7741V68ZM40.4389 69V34.0909H38.4389V69H40.4389ZM39.4389 35.0909H47.7741V33.0909H39.4389V35.0909ZM69.9716 42.8182V41.8182H68.9716V42.8182H69.9716ZM78.2898 42.8182H79.2898V41.8182H78.2898V42.8182ZM78.2898 69V70H79.2898V69H78.2898ZM70.3466 69H69.3466V70H70.3466V69ZM70.3466 64.125H71.3466V63.125H70.3466V64.125ZM70.0739 64.125V63.125H69.3722L69.1335 63.7849L70.0739 64.125ZM67.108 67.9432L67.6658 68.7731L67.6673 68.7721L67.108 67.9432ZM57.375 68.1136L56.8573 68.9692L56.8573 68.9692L57.375 68.1136ZM54.2216 64.6875L53.3299 65.1402L53.3313 65.143L54.2216 64.6875ZM53.0795 59.5057L52.0795 59.5057L52.0796 59.5114L53.0795 59.5057ZM53.0795 42.8182V41.8182H52.0795V42.8182H53.0795ZM61.4148 42.8182H62.4148V41.8182H61.4148V42.8182ZM61.4148 57.8693L60.4147 57.8693L60.4148 57.8773L61.4148 57.8693ZM62.5398 61.2273L63.282 60.5572L63.282 60.5572L62.5398 61.2273ZM67.7898 61.9091L68.2729 62.7847L68.2779 62.7818L67.7898 61.9091ZM69.375 60.2898L68.5008 59.8041L68.4982 59.8089L69.375 60.2898ZM70.9716 57.6989V42.8182H68.9716V57.6989H70.9716ZM69.9716 43.8182H78.2898V41.8182H69.9716V43.8182ZM77.2898 42.8182V69H79.2898V42.8182H77.2898ZM78.2898 68H70.3466V70H78.2898V68ZM71.3466 69V64.125H69.3466V69H71.3466ZM70.3466 63.125H70.0739V65.125H70.3466V63.125ZM69.1335 63.7849C68.6252 65.1902 67.7688 66.2909 66.5486 67.1143L67.6673 68.7721C69.2426 67.7091 70.3635 66.2643 71.0142 64.4651L69.1335 63.7849ZM66.5501 67.1132C65.3562 67.9157 63.8827 68.3409 62.0795 68.3409V70.3409C64.2082 70.3409 66.087 69.8343 67.6658 68.7731L66.5501 67.1132ZM62.0795 68.3409C60.4539 68.3409 59.0694 67.97 57.8927 67.2581L56.8573 68.9692C58.3851 69.8936 60.137 70.3409 62.0795 70.3409V68.3409ZM57.8927 67.2581C56.7062 66.5402 55.7809 65.5398 55.1118 64.232L53.3313 65.143C54.1622 66.767 55.3393 68.0507 56.8573 68.9692L57.8927 67.2581ZM55.1133 64.2348C54.4459 62.9204 54.0902 61.3516 54.0795 59.4999L52.0796 59.5114C52.0916 61.6143 52.4972 63.5 53.3299 65.1402L55.1133 64.2348ZM54.0795 59.5057V42.8182H52.0795V59.5057H54.0795ZM53.0795 43.8182H61.4148V41.8182H53.0795V43.8182ZM60.4148 42.8182V57.8693H62.4148V42.8182H60.4148ZM60.4148 57.8773C60.4275 59.47 60.8519 60.85 61.7975 61.8974L63.282 60.5572C62.7503 59.9682 62.4247 59.1096 62.4147 57.8613L60.4148 57.8773ZM61.7975 61.8974C62.7558 62.9589 64.0493 63.4545 65.5568 63.4545V61.4545C64.5189 61.4545 63.801 61.132 63.282 60.5572L61.7975 61.8974ZM65.5568 63.4545C66.5377 63.4545 67.4511 63.238 68.2729 62.7847L67.3067 61.0335C66.8102 61.3074 66.235 61.4545 65.5568 61.4545V63.4545ZM68.2779 62.7818C69.1199 62.3109 69.7796 61.6317 70.2518 60.7706L68.4982 59.8089C68.1977 60.3569 67.8006 60.7572 67.3016 61.0363L68.2779 62.7818ZM70.2492 60.7754C70.7467 59.8799 70.9716 58.8407 70.9716 57.6989H68.9716C68.9716 58.5798 68.7988 59.2678 68.5008 59.8041L70.2492 60.7754ZM88.7429 67.875L88.2598 68.7506L88.2658 68.7539L88.7429 67.875ZM84.1747 63.2216L83.2884 63.6847L83.2915 63.6906L84.1747 63.2216ZM84.1918 48.9205L85.076 49.3874L85.0771 49.3854L84.1918 48.9205ZM88.7088 44.1818L89.2098 45.0473L89.2136 45.045L88.7088 44.1818ZM100.692 43.3466L101.043 42.4103L101.043 42.4103L100.692 43.3466ZM107.322 50.1307L106.386 50.4811L106.387 50.4832L107.322 50.1307ZM108.26 57.9205V58.9205H109.26V57.9205H108.26ZM85.5043 57.9205H84.5043V58.9205H85.5043V57.9205ZM85.5043 53.0795V52.0795H84.5043V53.0795H85.5043ZM100.504 53.0795V54.0795H101.517L101.504 53.0667L100.504 53.0795ZM98.1861 49.0909L97.6945 49.9617L97.7028 49.9664L97.7111 49.9709L98.1861 49.0909ZM93.2429 49.125L93.7274 49.9999L93.7376 49.9941L93.2429 49.125ZM91.4872 50.8125L92.3398 51.3351L92.3435 51.329L91.4872 50.8125ZM90.8054 53.2159L89.8057 53.1906L89.8054 53.2033V53.2159H90.8054ZM91.4361 60.9545L90.5493 61.4167L90.552 61.4219L91.4361 60.9545ZM93.2259 62.8125L92.7283 63.68L92.7283 63.68L93.2259 62.8125ZM97.9986 63.1705L98.3202 64.1173L98.3202 64.1173L97.9986 63.1705ZM99.5497 62.267L100.227 63.0026L100.227 63.0026L99.5497 62.267ZM100.521 60.8011L100.55 59.8016L99.8343 59.7808L99.5842 60.452L100.521 60.8011ZM108.175 61.0227L109.158 61.205L109.371 60.0569L108.204 60.0231L108.175 61.0227ZM106.078 65.5057L105.316 64.8588L105.315 64.8594L106.078 65.5057ZM101.868 68.4545L102.238 69.3835L102.243 69.3813L101.868 68.4545ZM95.8338 68.4943C93.227 68.4943 91.0344 67.9811 89.22 66.9961L88.2658 68.7539C90.4287 69.928 92.9633 70.4943 95.8338 70.4943V68.4943ZM89.226 66.9994C87.4202 66.0032 86.0358 64.594 85.0579 62.7526L83.2915 63.6906C84.45 65.8719 86.111 67.565 88.2598 68.7506L89.226 66.9994ZM85.061 62.7585C84.0936 60.9068 83.5895 58.6692 83.5895 56.0114H81.5895C81.5895 58.9217 82.1422 61.4909 83.2884 63.6847L85.061 62.7585ZM83.5895 56.0114C83.5895 53.4399 84.0966 51.2421 85.076 49.3874L83.3075 48.4535C82.1506 50.6442 81.5895 53.1737 81.5895 56.0114H83.5895ZM85.0771 49.3854C86.0597 47.5143 87.434 46.0754 89.2098 45.0472L88.2078 43.3164C86.0973 44.5382 84.4602 46.2584 83.3064 48.4555L85.0771 49.3854ZM89.2136 45.045C90.9792 44.0126 93.0885 43.4773 95.5781 43.4773V41.4773C92.795 41.4773 90.3248 42.0784 88.204 43.3186L89.2136 45.045ZM95.5781 43.4773C97.3372 43.4773 98.921 43.7506 100.341 44.2829L101.043 42.4103C99.3716 41.7835 97.5463 41.4773 95.5781 41.4773V43.4773ZM100.341 44.2829C101.755 44.8134 102.967 45.5936 103.987 46.624L105.408 45.2169C104.178 43.9746 102.719 43.0388 101.043 42.4103L100.341 44.2829ZM103.987 46.624C105.001 47.6489 105.805 48.9277 106.386 50.4811L108.259 49.7803C107.59 47.9928 106.643 46.4647 105.408 45.2169L103.987 46.624ZM106.387 50.4832C106.961 52.0086 107.26 53.7889 107.26 55.8409H109.26C109.26 53.5975 108.934 51.571 108.258 49.7782L106.387 50.4832ZM107.26 55.8409V57.9205H109.26V55.8409H107.26ZM108.26 56.9205H85.5043V58.9205H108.26V56.9205ZM86.5043 57.9205V53.0795H84.5043V57.9205H86.5043ZM85.5043 54.0795H100.504V52.0795H85.5043V54.0795ZM101.504 53.0667C101.491 52.0241 101.241 51.0603 100.735 50.202L99.0124 51.2185C99.324 51.7466 99.495 52.3623 99.5043 53.0924L101.504 53.0667ZM100.735 50.202C100.232 49.3503 99.5353 48.6827 98.661 48.2109L97.7111 49.9709C98.2687 50.2718 98.6968 50.6838 99.0124 51.2185L100.735 50.202ZM98.6777 48.2201C97.8035 47.7266 96.8172 47.4943 95.7486 47.4943V49.4943C96.5209 49.4943 97.1596 49.6598 97.6945 49.9617L98.6777 48.2201ZM95.7486 47.4943C94.6605 47.4943 93.6518 47.7416 92.7482 48.2559L93.7376 49.9941C94.3112 49.6675 94.9731 49.4943 95.7486 49.4943V47.4943ZM92.7584 48.2502C91.8682 48.7432 91.1541 49.4286 90.6309 50.296L92.3435 51.329C92.684 50.7646 93.1403 50.3249 93.7274 49.9998L92.7584 48.2502ZM90.6346 50.2899C90.103 51.1573 89.8325 52.1328 89.8057 53.1906L91.8051 53.2412C91.8238 52.5036 92.0078 51.8768 92.3398 51.3351L90.6346 50.2899ZM89.8054 53.2159V58.142H91.8054V53.2159H89.8054ZM89.8054 58.142C89.8054 59.3431 90.0425 60.4443 90.5493 61.4167L92.3229 60.4924C91.9887 59.8512 91.8054 59.0773 91.8054 58.142H89.8054ZM90.552 61.4219C91.0599 62.3828 91.7898 63.1417 92.7283 63.68L93.7234 61.945C93.1165 61.597 92.6532 61.1172 92.3202 60.4872L90.552 61.4219ZM92.7283 63.68C93.6801 64.2258 94.7793 64.4773 95.9872 64.4773V62.4773C95.0588 62.4773 94.3171 62.2856 93.7234 61.945L92.7283 63.68ZM95.9872 64.4773C96.818 64.4773 97.5991 64.3622 98.3202 64.1173L97.677 62.2236C97.1935 62.3878 96.6338 62.4773 95.9872 62.4773V64.4773ZM98.3202 64.1173C99.0434 63.8717 99.6845 63.5025 100.227 63.0026L98.8722 61.5315C98.5513 61.8271 98.1583 62.0601 97.677 62.2236L98.3202 64.1173ZM100.227 63.0026C100.781 62.4926 101.191 61.8691 101.458 61.1502L99.5842 60.452C99.4202 60.8922 99.1821 61.2461 98.8722 61.5315L100.227 63.0026ZM100.492 61.8007L108.146 62.0223L108.204 60.0231L100.55 59.8016L100.492 61.8007ZM107.191 60.8404C106.904 62.393 106.277 63.7252 105.316 64.8588L106.841 66.1525C108.038 64.7407 108.809 63.0842 109.158 61.205L107.191 60.8404ZM105.315 64.8594C104.365 65.9815 103.101 66.8757 101.492 67.5277L102.243 69.3813C104.112 68.6243 105.655 67.5526 106.841 66.1519L105.315 64.8594ZM101.498 67.5257C99.8996 68.1628 98.0182 68.4943 95.8338 68.4943V70.4943C98.2176 70.4943 100.359 70.1327 102.238 69.3834L101.498 67.5257Z" fill="black" mask="url(#path-1-outside-1_138_502)"/>
<path d="M25.5511 45.4943L24.5857 45.7548L24.7852 46.4943H25.5511V45.4943ZM24.6989 43.6023L23.8694 44.1609L23.8748 44.1688L24.6989 43.6023ZM21.4432 41.3182L21.1644 42.2785L21.1715 42.2806L21.1787 42.2826L21.4432 41.3182ZM14.7273 42.2386L14.1761 41.4042L14.1726 41.4066L14.7273 42.2386ZM11.8807 45.8182L12.7991 46.2137L12.8002 46.2113L11.8807 45.8182ZM11.8466 57.2216L12.7718 56.8422L12.7718 56.8422L11.8466 57.2216ZM14.6591 60.8352L15.2191 60.0067L15.2191 60.0067L14.6591 60.8352ZM23.0455 61.3295L23.4694 62.2352L23.4735 62.2333L23.0455 61.3295ZM25.5 59.1648L24.6416 58.6518L24.6416 58.6518L25.5 59.1648ZM26.3352 55.875L26.4539 54.8821L25.3352 54.7483V55.875H26.3352ZM27.9034 56.0625V57.0625L28.0221 55.0696L27.9034 56.0625ZM19.4148 56.0625H18.4148V57.0625H19.4148V56.0625ZM19.4148 49.9091V48.9091H18.4148V49.9091H19.4148ZM34.4659 49.9091H35.4659V48.9091H34.4659V49.9091ZM32.4716 62.5568L31.6129 62.0443L31.611 62.0475L32.4716 62.5568ZM27.017 67.6875L26.5594 66.7984L26.5576 66.7993L27.017 67.6875ZM10.2784 67.3125L10.775 66.4445L10.775 66.4445L10.2784 67.3125ZM4.38068 61.142L3.49544 61.6072L3.49625 61.6087L4.38068 61.142ZM3.54545 43.9773L4.4788 44.3363L4.47941 44.3347L3.54545 43.9773ZM7.10795 38.3182L6.39824 37.6137L6.39563 37.6163L7.10795 38.3182ZM12.4261 34.8068L12.0602 33.8762L12.0584 33.8769L12.4261 34.8068ZM24.5966 34.483L24.2804 35.4316L24.2822 35.4323L24.5966 34.483ZM29.233 36.9375L28.614 37.7229L28.6172 37.7254L29.233 36.9375ZM32.5227 40.7045L31.657 41.205L31.657 41.205L32.5227 40.7045ZM34.0909 45.4943V46.4943H35.2155L35.0841 45.3775L34.0909 45.4943ZM26.5166 45.2338C26.2975 44.4216 25.9692 43.685 25.5229 43.0357L23.8748 44.1688C24.1785 44.6105 24.4185 45.1352 24.5857 45.7548L26.5166 45.2338ZM25.5283 43.0437C25.086 42.387 24.5408 41.828 23.8962 41.3715L22.7402 43.0035C23.1865 43.3197 23.5617 43.7039 23.8694 44.1609L25.5283 43.0437ZM23.8962 41.3715C23.2472 40.9118 22.5141 40.5749 21.7076 40.3538L21.1787 42.2826C21.7814 42.4478 22.2982 42.6905 22.7402 43.0035L23.8962 41.3715ZM21.722 40.3578C20.9147 40.1235 20.0468 40.0114 19.125 40.0114V42.0114C19.8851 42.0114 20.5625 42.1038 21.1644 42.2785L21.722 40.3578ZM19.125 40.0114C17.2642 40.0114 15.6004 40.4634 14.1761 41.4042L15.2784 43.073C16.3314 42.3775 17.5994 42.0114 19.125 42.0114V40.0114ZM14.1726 41.4066C12.7596 42.3486 11.6958 43.7068 10.9612 45.4251L12.8002 46.2113C13.4065 44.7932 14.2404 43.7651 15.282 43.0707L14.1726 41.4066ZM10.9622 45.4226C10.2239 47.137 9.875 49.1717 9.875 51.4943H11.875C11.875 49.3624 12.1965 47.613 12.7991 46.2137L10.9622 45.4226ZM9.875 51.4943C9.875 53.8246 10.2115 55.8699 10.9214 57.601L12.7718 56.8422C12.1862 55.4142 11.875 53.6413 11.875 51.4943H9.875ZM10.9214 57.601C11.6322 59.3344 12.6846 60.7076 14.0991 61.6637L15.2191 60.0067C14.179 59.3037 13.3565 58.2679 12.7718 56.8422L10.9214 57.601ZM14.0991 61.6637C15.5199 62.6241 17.2124 63.0795 19.125 63.0795V61.0795C17.5376 61.0795 16.2528 60.7055 15.2191 60.0067L14.0991 61.6637ZM19.125 63.0795C20.7734 63.0795 22.234 62.8135 23.4694 62.2352L22.6215 60.4239C21.7205 60.8456 20.5675 61.0795 19.125 61.0795V63.0795ZM23.4735 62.2333C24.7133 61.646 25.6899 60.7965 26.3584 59.6777L24.6416 58.6518C24.1965 59.3967 23.5367 59.9904 22.6174 60.4258L23.4735 62.2333ZM26.3584 59.6777C27.022 58.5672 27.3352 57.2873 27.3352 55.875H25.3352C25.3352 56.9854 25.0916 57.8987 24.6416 58.6518L26.3584 59.6777ZM26.2165 56.8679L27.7847 57.0554L28.0221 55.0696L26.4539 54.8821L26.2165 56.8679ZM27.9034 55.0625H19.4148V57.0625H27.9034V55.0625ZM20.4148 56.0625V49.9091H18.4148V56.0625H20.4148ZM19.4148 50.9091H34.4659V48.9091H19.4148V50.9091ZM33.4659 49.9091V54.5284H35.4659V49.9091H33.4659ZM33.4659 54.5284C33.4659 57.51 32.8327 60.0009 31.6129 62.0443L33.3302 63.0694C34.7696 60.6581 35.4659 57.7968 35.4659 54.5284H33.4659ZM31.611 62.0475C30.3895 64.1115 28.7115 65.6907 26.5594 66.7984L27.4747 68.5766C29.9589 67.298 31.9174 65.4567 33.3322 63.0661L31.611 62.0475ZM26.5576 66.7993C24.4134 67.9084 21.9218 68.4773 19.0568 68.4773V70.4773C22.1918 70.4773 25.0071 69.853 27.4765 68.5757L26.5576 66.7993ZM19.0568 68.4773C15.8757 68.4773 13.1256 67.7892 10.775 66.4445L9.78185 68.1805C12.4766 69.7221 15.5788 70.4773 19.0568 70.4773V68.4773ZM10.775 66.4445C8.42362 65.0994 6.58925 63.1848 5.26511 60.6754L3.49625 61.6087C4.9903 64.4402 7.08775 66.6393 9.78185 68.1805L10.775 66.4445ZM5.26593 60.6769C3.94678 58.1663 3.26705 55.1509 3.26705 51.5966H1.26705C1.26705 55.4059 1.9964 58.7542 3.49544 61.6072L5.26593 60.6769ZM3.26705 51.5966C3.26705 48.8311 3.67864 46.4167 4.4788 44.3363L2.61211 43.6183C1.70773 45.9697 1.26705 48.6348 1.26705 51.5966H3.26705ZM4.47941 44.3347C5.28729 42.2234 6.40363 40.4578 7.82028 39.02L6.39563 37.6163C4.76682 39.2695 3.50816 41.2766 2.6115 43.6199L4.47941 44.3347ZM7.81767 39.0227C9.25523 37.5745 10.9117 36.4811 12.7939 35.7367L12.0584 33.8769C9.9178 34.7235 8.02887 35.971 6.39824 37.6137L7.81767 39.0227ZM12.7921 35.7374C14.6901 34.991 16.7412 34.6136 18.9545 34.6136V32.6136C16.5088 32.6136 14.2076 33.0317 12.0602 33.8762L12.7921 35.7374ZM18.9545 34.6136C20.8809 34.6136 22.6537 34.8894 24.2804 35.4316L24.9128 33.5343C23.0622 32.9174 21.0737 32.6136 18.9545 32.6136V34.6136ZM24.2822 35.4323C25.9307 35.9782 27.3713 36.7435 28.614 37.7229L29.852 36.1521C28.4128 35.0178 26.7624 34.1468 24.911 33.5337L24.2822 35.4323ZM28.6172 37.7254C29.8707 38.7051 30.8816 39.8639 31.657 41.205L33.3885 40.204C32.482 38.6361 31.2997 37.2836 29.8487 36.1496L28.6172 37.7254ZM31.657 41.205C32.4269 42.5368 32.9084 44.002 33.0978 45.6112L35.0841 45.3775C34.8643 43.5094 34.3004 41.7814 33.3885 40.204L31.657 41.205ZM34.0909 44.4943H25.5511V46.4943H34.0909V44.4943ZM47.7741 34.0909H48.7741V33.0909H47.7741V34.0909ZM47.7741 69V70H48.7741V69H47.7741ZM39.4389 69H38.4389V70H39.4389V69ZM39.4389 34.0909V33.0909H38.4389V34.0909H39.4389ZM46.7741 34.0909V69H48.7741V34.0909H46.7741ZM47.7741 68H39.4389V70H47.7741V68ZM40.4389 69V34.0909H38.4389V69H40.4389ZM39.4389 35.0909H47.7741V33.0909H39.4389V35.0909ZM69.9716 42.8182V41.8182H68.9716V42.8182H69.9716ZM78.2898 42.8182H79.2898V41.8182H78.2898V42.8182ZM78.2898 69V70H79.2898V69H78.2898ZM70.3466 69H69.3466V70H70.3466V69ZM70.3466 64.125H71.3466V63.125H70.3466V64.125ZM70.0739 64.125V63.125H69.3722L69.1335 63.7849L70.0739 64.125ZM67.108 67.9432L67.6658 68.7731L67.6673 68.7721L67.108 67.9432ZM57.375 68.1136L56.8573 68.9692L56.8573 68.9692L57.375 68.1136ZM54.2216 64.6875L53.3299 65.1402L53.3313 65.143L54.2216 64.6875ZM53.0795 59.5057L52.0795 59.5057L52.0796 59.5114L53.0795 59.5057ZM53.0795 42.8182V41.8182H52.0795V42.8182H53.0795ZM61.4148 42.8182H62.4148V41.8182H61.4148V42.8182ZM61.4148 57.8693L60.4147 57.8693L60.4148 57.8773L61.4148 57.8693ZM62.5398 61.2273L63.282 60.5572L63.282 60.5572L62.5398 61.2273ZM67.7898 61.9091L68.2729 62.7847L68.2779 62.7818L67.7898 61.9091ZM69.375 60.2898L68.5008 59.8041L68.4982 59.8089L69.375 60.2898ZM70.9716 57.6989V42.8182H68.9716V57.6989H70.9716ZM69.9716 43.8182H78.2898V41.8182H69.9716V43.8182ZM77.2898 42.8182V69H79.2898V42.8182H77.2898ZM78.2898 68H70.3466V70H78.2898V68ZM71.3466 69V64.125H69.3466V69H71.3466ZM70.3466 63.125H70.0739V65.125H70.3466V63.125ZM69.1335 63.7849C68.6252 65.1902 67.7688 66.2909 66.5486 67.1143L67.6673 68.7721C69.2426 67.7091 70.3635 66.2643 71.0142 64.4651L69.1335 63.7849ZM66.5501 67.1132C65.3562 67.9157 63.8827 68.3409 62.0795 68.3409V70.3409C64.2082 70.3409 66.087 69.8343 67.6658 68.7731L66.5501 67.1132ZM62.0795 68.3409C60.4539 68.3409 59.0694 67.97 57.8927 67.2581L56.8573 68.9692C58.3851 69.8936 60.137 70.3409 62.0795 70.3409V68.3409ZM57.8927 67.2581C56.7062 66.5402 55.7809 65.5398 55.1118 64.232L53.3313 65.143C54.1622 66.767 55.3393 68.0507 56.8573 68.9692L57.8927 67.2581ZM55.1133 64.2348C54.4459 62.9204 54.0902 61.3516 54.0795 59.4999L52.0796 59.5114C52.0916 61.6143 52.4972 63.5 53.3299 65.1402L55.1133 64.2348ZM54.0795 59.5057V42.8182H52.0795V59.5057H54.0795ZM53.0795 43.8182H61.4148V41.8182H53.0795V43.8182ZM60.4148 42.8182V57.8693H62.4148V42.8182H60.4148ZM60.4148 57.8773C60.4275 59.47 60.8519 60.85 61.7975 61.8974L63.282 60.5572C62.7503 59.9682 62.4247 59.1096 62.4147 57.8613L60.4148 57.8773ZM61.7975 61.8974C62.7558 62.9589 64.0493 63.4545 65.5568 63.4545V61.4545C64.5189 61.4545 63.801 61.132 63.282 60.5572L61.7975 61.8974ZM65.5568 63.4545C66.5377 63.4545 67.4511 63.238 68.2729 62.7847L67.3067 61.0335C66.8102 61.3074 66.235 61.4545 65.5568 61.4545V63.4545ZM68.2779 62.7818C69.1199 62.3109 69.7796 61.6317 70.2518 60.7706L68.4982 59.8089C68.1977 60.3569 67.8006 60.7572 67.3016 61.0363L68.2779 62.7818ZM70.2492 60.7754C70.7467 59.8799 70.9716 58.8407 70.9716 57.6989H68.9716C68.9716 58.5798 68.7988 59.2678 68.5008 59.8041L70.2492 60.7754ZM88.7429 67.875L88.2598 68.7506L88.2658 68.7539L88.7429 67.875ZM84.1747 63.2216L83.2884 63.6847L83.2915 63.6906L84.1747 63.2216ZM84.1918 48.9205L85.076 49.3874L85.0771 49.3854L84.1918 48.9205ZM88.7088 44.1818L89.2098 45.0473L89.2136 45.045L88.7088 44.1818ZM100.692 43.3466L101.043 42.4103L101.043 42.4103L100.692 43.3466ZM107.322 50.1307L106.386 50.4811L106.387 50.4832L107.322 50.1307ZM108.26 57.9205V58.9205H109.26V57.9205H108.26ZM85.5043 57.9205H84.5043V58.9205H85.5043V57.9205ZM85.5043 53.0795V52.0795H84.5043V53.0795H85.5043ZM100.504 53.0795V54.0795H101.517L101.504 53.0667L100.504 53.0795ZM98.1861 49.0909L97.6945 49.9617L97.7028 49.9664L97.7111 49.9709L98.1861 49.0909ZM93.2429 49.125L93.7274 49.9999L93.7376 49.9941L93.2429 49.125ZM91.4872 50.8125L92.3398 51.3351L92.3435 51.329L91.4872 50.8125ZM90.8054 53.2159L89.8057 53.1906L89.8054 53.2033V53.2159H90.8054ZM91.4361 60.9545L90.5493 61.4167L90.552 61.4219L91.4361 60.9545ZM93.2259 62.8125L92.7283 63.68L92.7283 63.68L93.2259 62.8125ZM97.9986 63.1705L98.3202 64.1173L98.3202 64.1173L97.9986 63.1705ZM99.5497 62.267L100.227 63.0026L100.227 63.0026L99.5497 62.267ZM100.521 60.8011L100.55 59.8016L99.8343 59.7808L99.5842 60.452L100.521 60.8011ZM108.175 61.0227L109.158 61.205L109.371 60.0569L108.204 60.0231L108.175 61.0227ZM106.078 65.5057L105.316 64.8588L105.315 64.8594L106.078 65.5057ZM101.868 68.4545L102.238 69.3835L102.243 69.3813L101.868 68.4545ZM95.8338 68.4943C93.227 68.4943 91.0344 67.9811 89.22 66.9961L88.2658 68.7539C90.4287 69.928 92.9633 70.4943 95.8338 70.4943V68.4943ZM89.226 66.9994C87.4202 66.0032 86.0358 64.594 85.0579 62.7526L83.2915 63.6906C84.45 65.8719 86.111 67.565 88.2598 68.7506L89.226 66.9994ZM85.061 62.7585C84.0936 60.9068 83.5895 58.6692 83.5895 56.0114H81.5895C81.5895 58.9217 82.1422 61.4909 83.2884 63.6847L85.061 62.7585ZM83.5895 56.0114C83.5895 53.4399 84.0966 51.2421 85.076 49.3874L83.3075 48.4535C82.1506 50.6442 81.5895 53.1737 81.5895 56.0114H83.5895ZM85.0771 49.3854C86.0597 47.5143 87.434 46.0754 89.2098 45.0472L88.2078 43.3164C86.0973 44.5382 84.4602 46.2584 83.3064 48.4555L85.0771 49.3854ZM89.2136 45.045C90.9792 44.0126 93.0885 43.4773 95.5781 43.4773V41.4773C92.795 41.4773 90.3248 42.0784 88.204 43.3186L89.2136 45.045ZM95.5781 43.4773C97.3372 43.4773 98.921 43.7506 100.341 44.2829L101.043 42.4103C99.3716 41.7835 97.5463 41.4773 95.5781 41.4773V43.4773ZM100.341 44.2829C101.755 44.8134 102.967 45.5936 103.987 46.624L105.408 45.2169C104.178 43.9746 102.719 43.0388 101.043 42.4103L100.341 44.2829ZM103.987 46.624C105.001 47.6489 105.805 48.9277 106.386 50.4811L108.259 49.7803C107.59 47.9928 106.643 46.4647 105.408 45.2169L103.987 46.624ZM106.387 50.4832C106.961 52.0086 107.26 53.7889 107.26 55.8409H109.26C109.26 53.5975 108.934 51.571 108.258 49.7782L106.387 50.4832ZM107.26 55.8409V57.9205H109.26V55.8409H107.26ZM108.26 56.9205H85.5043V58.9205H108.26V56.9205ZM86.5043 57.9205V53.0795H84.5043V57.9205H86.5043ZM85.5043 54.0795H100.504V52.0795H85.5043V54.0795ZM101.504 53.0667C101.491 52.0241 101.241 51.0603 100.735 50.202L99.0124 51.2185C99.324 51.7466 99.495 52.3623 99.5043 53.0924L101.504 53.0667ZM100.735 50.202C100.232 49.3503 99.5353 48.6827 98.661 48.2109L97.7111 49.9709C98.2687 50.2718 98.6968 50.6838 99.0124 51.2185L100.735 50.202ZM98.6777 48.2201C97.8035 47.7266 96.8172 47.4943 95.7486 47.4943V49.4943C96.5209 49.4943 97.1596 49.6598 97.6945 49.9617L98.6777 48.2201ZM95.7486 47.4943C94.6605 47.4943 93.6518 47.7416 92.7482 48.2559L93.7376 49.9941C94.3112 49.6675 94.9731 49.4943 95.7486 49.4943V47.4943ZM92.7584 48.2502C91.8682 48.7432 91.1541 49.4286 90.6309 50.296L92.3435 51.329C92.684 50.7646 93.1403 50.3249 93.7274 49.9998L92.7584 48.2502ZM90.6346 50.2899C90.103 51.1573 89.8325 52.1328 89.8057 53.1906L91.8051 53.2412C91.8238 52.5036 92.0078 51.8768 92.3398 51.3351L90.6346 50.2899ZM89.8054 53.2159V58.142H91.8054V53.2159H89.8054ZM89.8054 58.142C89.8054 59.3431 90.0425 60.4443 90.5493 61.4167L92.3229 60.4924C91.9887 59.8512 91.8054 59.0773 91.8054 58.142H89.8054ZM90.552 61.4219C91.0599 62.3828 91.7898 63.1417 92.7283 63.68L93.7234 61.945C93.1165 61.597 92.6532 61.1172 92.3202 60.4872L90.552 61.4219ZM92.7283 63.68C93.6801 64.2258 94.7793 64.4773 95.9872 64.4773V62.4773C95.0588 62.4773 94.3171 62.2856 93.7234 61.945L92.7283 63.68ZM95.9872 64.4773C96.818 64.4773 97.5991 64.3622 98.3202 64.1173L97.677 62.2236C97.1935 62.3878 96.6338 62.4773 95.9872 62.4773V64.4773ZM98.3202 64.1173C99.0434 63.8717 99.6845 63.5025 100.227 63.0026L98.8722 61.5315C98.5513 61.8271 98.1583 62.0601 97.677 62.2236L98.3202 64.1173ZM100.227 63.0026C100.781 62.4926 101.191 61.8691 101.458 61.1502L99.5842 60.452C99.4202 60.8922 99.1821 61.2461 98.8722 61.5315L100.227 63.0026ZM100.492 61.8007L108.146 62.0223L108.204 60.0231L100.55 59.8016L100.492 61.8007ZM107.191 60.8404C106.904 62.393 106.277 63.7252 105.316 64.8588L106.841 66.1525C108.038 64.7407 108.809 63.0842 109.158 61.205L107.191 60.8404ZM105.315 64.8594C104.365 65.9815 103.101 66.8757 101.492 67.5277L102.243 69.3813C104.112 68.6243 105.655 67.5526 106.841 66.1519L105.315 64.8594ZM101.498 67.5257C99.8996 68.1628 98.0182 68.4943 95.8338 68.4943V70.4943C98.2176 70.4943 100.359 70.1327 102.238 69.3834L101.498 67.5257Z" fill="black" fill-opacity="0.2" mask="url(#path-1-outside-1_138_502)"/>
</g>
</g>
<defs>
<filter id="filter0_dd_138_502" x="-2.73291" y="32.6136" width="116.104" height="45.8807" filterUnits="userSpaceOnUse" color-interpolation-filters="sRGB">
<feFlood flood-opacity="0" result="BackgroundImageFix"/>
<feColorMatrix in="SourceAlpha" type="matrix" values="0 0 0 0 0 0 0 0 0 0 0 0 0 0 0 0 0 0 127 0" result="hardAlpha"/>
<feOffset dy="4"/>
<feGaussianBlur stdDeviation="2"/>
<feComposite in2="hardAlpha" operator="out"/>
<feColorMatrix type="matrix" values="0 0 0 0 0 0 0 0 0 0 0 0 0 0 0 0 0 0 0.25 0"/>
<feBlend mode="normal" in2="BackgroundImageFix" result="effect1_dropShadow_138_502"/>
<feColorMatrix in="SourceAlpha" type="matrix" values="0 0 0 0 0 0 0 0 0 0 0 0 0 0 0 0 0 0 127 0" result="hardAlpha"/>
<feOffset dy="4"/>
<feGaussianBlur stdDeviation="2"/>
<feComposite in2="hardAlpha" operator="out"/>
<feColorMatrix type="matrix" values="0 0 0 0 0 0 0 0 0 0 0 0 0 0 0 0 0 0 0.25 0"/>
<feBlend mode="normal" in2="effect1_dropShadow_138_502" result="effect2_dropShadow_138_502"/>
<feBlend mode="normal" in="SourceGraphic" in2="effect2_dropShadow_138_502" result="shape"/>
</filter>
<clipPath id="clip0_138_502">
<rect width="322" height="117" fill="white"/>
</clipPath>
</defs>
</svg>
