<svg width="322" height="117" viewBox="0 0 322 117" fill="none" xmlns="http://www.w3.org/2000/svg">
<g clip-path="url(#clip0_122_30)">
<rect width="322" height="117" fill="white"/>
<g filter="url(#filter0_dd_122_30)">
<mask id="path-1-outside-1_122_30" maskUnits="userSpaceOnUse" x="1" y="31" width="218" height="40" fill="black">
<rect fill="white" x="1" y="31" width="218" height="40"/>
<path d="M2.64205 69V34.0909H11.0795V48.1023H24.8352V34.0909H33.2557V69H24.8352V54.9716H11.0795V69H2.64205ZM45.929 69.4432C44.2585 69.4432 42.7756 69.1648 41.4801 68.608C40.196 68.0398 39.179 67.1875 38.429 66.0511C37.6903 64.9034 37.321 63.4659 37.321 61.7386C37.321 60.2841 37.5767 59.0568 38.0881 58.0568C38.5994 57.0568 39.304 56.2443 40.2017 55.6193C41.0994 54.9943 42.1335 54.5227 43.304 54.2045C44.4744 53.875 45.7244 53.6534 47.054 53.5398C48.5426 53.4034 49.7415 53.2614 50.6506 53.1136C51.5597 52.9545 52.2188 52.733 52.6278 52.4489C53.0483 52.1534 53.2585 51.7386 53.2585 51.2045V51.1193C53.2585 50.2443 52.9574 49.5682 52.3551 49.0909C51.7528 48.6136 50.9403 48.375 49.9176 48.375C48.8153 48.375 47.929 48.6136 47.2585 49.0909C46.5881 49.5682 46.1619 50.2273 45.9801 51.0682L38.2926 50.7955C38.5199 49.2045 39.1051 47.7841 40.0483 46.5341C41.0028 45.2727 42.3097 44.2841 43.9688 43.5682C45.6392 42.8409 47.6449 42.4773 49.9858 42.4773C51.6563 42.4773 53.196 42.6761 54.6051 43.0739C56.0142 43.4602 57.2415 44.0284 58.2869 44.7784C59.3324 45.517 60.1392 46.4261 60.7074 47.5057C61.2869 48.5852 61.5767 49.8182 61.5767 51.2045V69H53.7358V65.3523H53.5312C53.0653 66.2386 52.4688 66.9886 51.7415 67.6023C51.0256 68.2159 50.179 68.6761 49.2017 68.983C48.2358 69.2898 47.1449 69.4432 45.929 69.4432ZM48.5028 63.9886C49.4006 63.9886 50.2074 63.8068 50.9233 63.4432C51.6506 63.0795 52.2301 62.5795 52.6619 61.9432C53.0938 61.2955 53.3097 60.5455 53.3097 59.6932V57.2045C53.071 57.3295 52.7813 57.4432 52.4403 57.5455C52.1108 57.6477 51.7472 57.7443 51.3494 57.8352C50.9517 57.9261 50.5426 58.0057 50.1222 58.0739C49.7017 58.142 49.2983 58.2045 48.9119 58.2614C48.1278 58.3864 47.4574 58.5795 46.9006 58.8409C46.3551 59.1023 45.9347 59.4432 45.6392 59.8636C45.3551 60.2727 45.2131 60.7614 45.2131 61.3295C45.2131 62.1932 45.5199 62.8523 46.1335 63.3068C46.7585 63.7614 47.5483 63.9886 48.5028 63.9886ZM75.0085 34.0909V69H66.6733V34.0909H75.0085ZM95.1946 42.8182V48.9545H78.3537V42.8182H95.1946ZM81.8651 69V41.4886C81.8651 39.4659 82.2457 37.7898 83.0071 36.4602C83.7685 35.1193 84.8253 34.1193 86.1776 33.4602C87.5298 32.7898 89.0923 32.4545 90.8651 32.4545C92.0241 32.4545 93.1151 32.5455 94.1378 32.7273C95.1719 32.8977 95.9389 33.0511 96.4389 33.1875L95.1094 39.2898C94.8026 39.1875 94.4276 39.1023 93.9844 39.0341C93.5526 38.9659 93.1435 38.9318 92.7571 38.9318C91.7798 38.9318 91.1094 39.1477 90.7457 39.5795C90.3821 40.0114 90.2003 40.6023 90.2003 41.3523V69H81.8651ZM109.517 69V34.0909H117.955V62.1477H132.477V69H109.517ZM144.226 69.4432C142.555 69.4432 141.072 69.1648 139.777 68.608C138.493 68.0398 137.476 67.1875 136.726 66.0511C135.987 64.9034 135.618 63.4659 135.618 61.7386C135.618 60.2841 135.874 59.0568 136.385 58.0568C136.896 57.0568 137.601 56.2443 138.499 55.6193C139.396 54.9943 140.43 54.5227 141.601 54.2045C142.771 53.875 144.021 53.6534 145.351 53.5398C146.839 53.4034 148.038 53.2614 148.947 53.1136C149.857 52.9545 150.516 52.733 150.925 52.4489C151.345 52.1534 151.555 51.7386 151.555 51.2045V51.1193C151.555 50.2443 151.254 49.5682 150.652 49.0909C150.05 48.6136 149.237 48.375 148.214 48.375C147.112 48.375 146.226 48.6136 145.555 49.0909C144.885 49.5682 144.459 50.2273 144.277 51.0682L136.589 50.7955C136.817 49.2045 137.402 47.7841 138.345 46.5341C139.3 45.2727 140.607 44.2841 142.266 43.5682C143.936 42.8409 145.942 42.4773 148.283 42.4773C149.953 42.4773 151.493 42.6761 152.902 43.0739C154.311 43.4602 155.538 44.0284 156.584 44.7784C157.629 45.517 158.436 46.4261 159.004 47.5057C159.584 48.5852 159.874 49.8182 159.874 51.2045V69H152.033V65.3523H151.828C151.362 66.2386 150.766 66.9886 150.038 67.6023C149.322 68.2159 148.476 68.6761 147.499 68.983C146.533 69.2898 145.442 69.4432 144.226 69.4432ZM146.8 63.9886C147.697 63.9886 148.504 63.8068 149.22 63.4432C149.947 63.0795 150.527 62.5795 150.959 61.9432C151.391 61.2955 151.607 60.5455 151.607 59.6932V57.2045C151.368 57.3295 151.078 57.4432 150.737 57.5455C150.408 57.6477 150.044 57.7443 149.646 57.8352C149.249 57.9261 148.839 58.0057 148.419 58.0739C147.999 58.142 147.595 58.2045 147.209 58.2614C146.425 58.3864 145.754 58.5795 145.197 58.8409C144.652 59.1023 144.232 59.4432 143.936 59.8636C143.652 60.2727 143.51 60.7614 143.51 61.3295C143.51 62.1932 143.817 62.8523 144.43 63.3068C145.055 63.7614 145.845 63.9886 146.8 63.9886ZM187.828 50.8125L180.175 51.017C180.095 50.4716 179.879 49.9886 179.527 49.5682C179.175 49.1364 178.714 48.8011 178.146 48.5625C177.589 48.3125 176.942 48.1875 176.203 48.1875C175.237 48.1875 174.413 48.3807 173.732 48.767C173.061 49.1534 172.732 49.6761 172.743 50.3352C172.732 50.8466 172.936 51.2898 173.357 51.6648C173.788 52.0398 174.555 52.3409 175.658 52.5682L180.703 53.5227C183.317 54.0227 185.26 54.8523 186.533 56.0114C187.817 57.1705 188.464 58.7045 188.476 60.6136C188.464 62.4091 187.93 63.9716 186.874 65.3011C185.828 66.6307 184.396 67.6648 182.578 68.4034C180.76 69.1307 178.68 69.4943 176.339 69.4943C172.601 69.4943 169.652 68.7273 167.493 67.1932C165.345 65.6477 164.118 63.5795 163.811 60.9886L172.044 60.7841C172.226 61.7386 172.697 62.4659 173.459 62.9659C174.22 63.4659 175.192 63.7159 176.374 63.7159C177.442 63.7159 178.311 63.517 178.982 63.1193C179.652 62.7216 179.993 62.1932 180.004 61.5341C179.993 60.9432 179.732 60.4716 179.22 60.1193C178.709 59.7557 177.908 59.4716 176.817 59.267L172.249 58.3977C169.624 57.9205 167.669 57.0398 166.385 55.7557C165.101 54.4602 164.464 52.8125 164.476 50.8125C164.464 49.0625 164.93 47.5682 165.874 46.3295C166.817 45.0795 168.158 44.125 169.896 43.4659C171.635 42.8068 173.686 42.4773 176.05 42.4773C179.595 42.4773 182.391 43.2216 184.436 44.7102C186.482 46.1875 187.612 48.2216 187.828 50.8125ZM200.915 54.0682V69H192.58V34.0909H200.642V47.625H200.932C201.523 46.0114 202.489 44.75 203.83 43.8409C205.182 42.9318 206.835 42.4773 208.79 42.4773C210.631 42.4773 212.233 42.8864 213.597 43.7045C214.96 44.5114 216.017 45.6534 216.767 47.1307C217.528 48.608 217.903 50.3352 217.892 52.3125V69H209.557V53.9489C209.568 52.4943 209.205 51.358 208.466 50.5398C207.727 49.7216 206.688 49.3125 205.347 49.3125C204.472 49.3125 203.699 49.5057 203.028 49.892C202.369 50.267 201.852 50.8068 201.477 51.5114C201.114 52.2159 200.926 53.0682 200.915 54.0682Z"/>
</mask>
<path d="M2.64205 69V34.0909H11.0795V48.1023H24.8352V34.0909H33.2557V69H24.8352V54.9716H11.0795V69H2.64205ZM45.929 69.4432C44.2585 69.4432 42.7756 69.1648 41.4801 68.608C40.196 68.0398 39.179 67.1875 38.429 66.0511C37.6903 64.9034 37.321 63.4659 37.321 61.7386C37.321 60.2841 37.5767 59.0568 38.0881 58.0568C38.5994 57.0568 39.304 56.2443 40.2017 55.6193C41.0994 54.9943 42.1335 54.5227 43.304 54.2045C44.4744 53.875 45.7244 53.6534 47.054 53.5398C48.5426 53.4034 49.7415 53.2614 50.6506 53.1136C51.5597 52.9545 52.2188 52.733 52.6278 52.4489C53.0483 52.1534 53.2585 51.7386 53.2585 51.2045V51.1193C53.2585 50.2443 52.9574 49.5682 52.3551 49.0909C51.7528 48.6136 50.9403 48.375 49.9176 48.375C48.8153 48.375 47.929 48.6136 47.2585 49.0909C46.5881 49.5682 46.1619 50.2273 45.9801 51.0682L38.2926 50.7955C38.5199 49.2045 39.1051 47.7841 40.0483 46.5341C41.0028 45.2727 42.3097 44.2841 43.9688 43.5682C45.6392 42.8409 47.6449 42.4773 49.9858 42.4773C51.6563 42.4773 53.196 42.6761 54.6051 43.0739C56.0142 43.4602 57.2415 44.0284 58.2869 44.7784C59.3324 45.517 60.1392 46.4261 60.7074 47.5057C61.2869 48.5852 61.5767 49.8182 61.5767 51.2045V69H53.7358V65.3523H53.5312C53.0653 66.2386 52.4688 66.9886 51.7415 67.6023C51.0256 68.2159 50.179 68.6761 49.2017 68.983C48.2358 69.2898 47.1449 69.4432 45.929 69.4432ZM48.5028 63.9886C49.4006 63.9886 50.2074 63.8068 50.9233 63.4432C51.6506 63.0795 52.2301 62.5795 52.6619 61.9432C53.0938 61.2955 53.3097 60.5455 53.3097 59.6932V57.2045C53.071 57.3295 52.7813 57.4432 52.4403 57.5455C52.1108 57.6477 51.7472 57.7443 51.3494 57.8352C50.9517 57.9261 50.5426 58.0057 50.1222 58.0739C49.7017 58.142 49.2983 58.2045 48.9119 58.2614C48.1278 58.3864 47.4574 58.5795 46.9006 58.8409C46.3551 59.1023 45.9347 59.4432 45.6392 59.8636C45.3551 60.2727 45.2131 60.7614 45.2131 61.3295C45.2131 62.1932 45.5199 62.8523 46.1335 63.3068C46.7585 63.7614 47.5483 63.9886 48.5028 63.9886ZM75.0085 34.0909V69H66.6733V34.0909H75.0085ZM95.1946 42.8182V48.9545H78.3537V42.8182H95.1946ZM81.8651 69V41.4886C81.8651 39.4659 82.2457 37.7898 83.0071 36.4602C83.7685 35.1193 84.8253 34.1193 86.1776 33.4602C87.5298 32.7898 89.0923 32.4545 90.8651 32.4545C92.0241 32.4545 93.1151 32.5455 94.1378 32.7273C95.1719 32.8977 95.9389 33.0511 96.4389 33.1875L95.1094 39.2898C94.8026 39.1875 94.4276 39.1023 93.9844 39.0341C93.5526 38.9659 93.1435 38.9318 92.7571 38.9318C91.7798 38.9318 91.1094 39.1477 90.7457 39.5795C90.3821 40.0114 90.2003 40.6023 90.2003 41.3523V69H81.8651ZM109.517 69V34.0909H117.955V62.1477H132.477V69H109.517ZM144.226 69.4432C142.555 69.4432 141.072 69.1648 139.777 68.608C138.493 68.0398 137.476 67.1875 136.726 66.0511C135.987 64.9034 135.618 63.4659 135.618 61.7386C135.618 60.2841 135.874 59.0568 136.385 58.0568C136.896 57.0568 137.601 56.2443 138.499 55.6193C139.396 54.9943 140.43 54.5227 141.601 54.2045C142.771 53.875 144.021 53.6534 145.351 53.5398C146.839 53.4034 148.038 53.2614 148.947 53.1136C149.857 52.9545 150.516 52.733 150.925 52.4489C151.345 52.1534 151.555 51.7386 151.555 51.2045V51.1193C151.555 50.2443 151.254 49.5682 150.652 49.0909C150.05 48.6136 149.237 48.375 148.214 48.375C147.112 48.375 146.226 48.6136 145.555 49.0909C144.885 49.5682 144.459 50.2273 144.277 51.0682L136.589 50.7955C136.817 49.2045 137.402 47.7841 138.345 46.5341C139.3 45.2727 140.607 44.2841 142.266 43.5682C143.936 42.8409 145.942 42.4773 148.283 42.4773C149.953 42.4773 151.493 42.6761 152.902 43.0739C154.311 43.4602 155.538 44.0284 156.584 44.7784C157.629 45.517 158.436 46.4261 159.004 47.5057C159.584 48.5852 159.874 49.8182 159.874 51.2045V69H152.033V65.3523H151.828C151.362 66.2386 150.766 66.9886 150.038 67.6023C149.322 68.2159 148.476 68.6761 147.499 68.983C146.533 69.2898 145.442 69.4432 144.226 69.4432ZM146.8 63.9886C147.697 63.9886 148.504 63.8068 149.22 63.4432C149.947 63.0795 150.527 62.5795 150.959 61.9432C151.391 61.2955 151.607 60.5455 151.607 59.6932V57.2045C151.368 57.3295 151.078 57.4432 150.737 57.5455C150.408 57.6477 150.044 57.7443 149.646 57.8352C149.249 57.9261 148.839 58.0057 148.419 58.0739C147.999 58.142 147.595 58.2045 147.209 58.2614C146.425 58.3864 145.754 58.5795 145.197 58.8409C144.652 59.1023 144.232 59.4432 143.936 59.8636C143.652 60.2727 143.51 60.7614 143.51 61.3295C143.51 62.1932 143.817 62.8523 144.43 63.3068C145.055 63.7614 145.845 63.9886 146.8 63.9886ZM187.828 50.8125L180.175 51.017C180.095 50.4716 179.879 49.9886 179.527 49.5682C179.175 49.1364 178.714 48.8011 178.146 48.5625C177.589 48.3125 176.942 48.1875 176.203 48.1875C175.237 48.1875 174.413 48.3807 173.732 48.767C173.061 49.1534 172.732 49.6761 172.743 50.3352C172.732 50.8466 172.936 51.2898 173.357 51.6648C173.788 52.0398 174.555 52.3409 175.658 52.5682L180.703 53.5227C183.317 54.0227 185.26 54.8523 186.533 56.0114C187.817 57.1705 188.464 58.7045 188.476 60.6136C188.464 62.4091 187.93 63.9716 186.874 65.3011C185.828 66.6307 184.396 67.6648 182.578 68.4034C180.76 69.1307 178.68 69.4943 176.339 69.4943C172.601 69.4943 169.652 68.7273 167.493 67.1932C165.345 65.6477 164.118 63.5795 163.811 60.9886L172.044 60.7841C172.226 61.7386 172.697 62.4659 173.459 62.9659C174.22 63.4659 175.192 63.7159 176.374 63.7159C177.442 63.7159 178.311 63.517 178.982 63.1193C179.652 62.7216 179.993 62.1932 180.004 61.5341C179.993 60.9432 179.732 60.4716 179.22 60.1193C178.709 59.7557 177.908 59.4716 176.817 59.267L172.249 58.3977C169.624 57.9205 167.669 57.0398 166.385 55.7557C165.101 54.4602 164.464 52.8125 164.476 50.8125C164.464 49.0625 164.93 47.5682 165.874 46.3295C166.817 45.0795 168.158 44.125 169.896 43.4659C171.635 42.8068 173.686 42.4773 176.05 42.4773C179.595 42.4773 182.391 43.2216 184.436 44.7102C186.482 46.1875 187.612 48.2216 187.828 50.8125ZM200.915 54.0682V69H192.58V34.0909H200.642V47.625H200.932C201.523 46.0114 202.489 44.75 203.83 43.8409C205.182 42.9318 206.835 42.4773 208.79 42.4773C210.631 42.4773 212.233 42.8864 213.597 43.7045C214.96 44.5114 216.017 45.6534 216.767 47.1307C217.528 48.608 217.903 50.3352 217.892 52.3125V69H209.557V53.9489C209.568 52.4943 209.205 51.358 208.466 50.5398C207.727 49.7216 206.688 49.3125 205.347 49.3125C204.472 49.3125 203.699 49.5057 203.028 49.892C202.369 50.267 201.852 50.8068 201.477 51.5114C201.114 52.2159 200.926 53.0682 200.915 54.0682Z" fill="#002855"/>
<path d="M2.64205 69H1.64205V70H2.64205V69ZM2.64205 34.0909V33.0909H1.64205V34.0909H2.64205ZM11.0795 34.0909H12.0795V33.0909H11.0795V34.0909ZM11.0795 48.1023H10.0795V49.1023H11.0795V48.1023ZM24.8352 48.1023V49.1023H25.8352V48.1023H24.8352ZM24.8352 34.0909V33.0909H23.8352V34.0909H24.8352ZM33.2557 34.0909H34.2557V33.0909H33.2557V34.0909ZM33.2557 69V70H34.2557V69H33.2557ZM24.8352 69H23.8352V70H24.8352V69ZM24.8352 54.9716H25.8352V53.9716H24.8352V54.9716ZM11.0795 54.9716V53.9716H10.0795V54.9716H11.0795ZM11.0795 69V70H12.0795V69H11.0795ZM3.64205 69V34.0909H1.64205V69H3.64205ZM2.64205 35.0909H11.0795V33.0909H2.64205V35.0909ZM10.0795 34.0909V48.1023H12.0795V34.0909H10.0795ZM11.0795 49.1023H24.8352V47.1023H11.0795V49.1023ZM25.8352 48.1023V34.0909H23.8352V48.1023H25.8352ZM24.8352 35.0909H33.2557V33.0909H24.8352V35.0909ZM32.2557 34.0909V69H34.2557V34.0909H32.2557ZM33.2557 68H24.8352V70H33.2557V68ZM25.8352 69V54.9716H23.8352V69H25.8352ZM24.8352 53.9716H11.0795V55.9716H24.8352V53.9716ZM10.0795 54.9716V69H12.0795V54.9716H10.0795ZM11.0795 68H2.64205V70H11.0795V68ZM41.4801 68.608L41.0755 69.5225L41.0852 69.5267L41.4801 68.608ZM38.429 66.0511L37.588 66.5924L37.5944 66.602L38.429 66.0511ZM38.0881 58.0568L37.1977 57.6015L37.1977 57.6015L38.0881 58.0568ZM40.2017 55.6193L40.7731 56.44L40.7731 56.44L40.2017 55.6193ZM43.304 54.2045L43.5663 55.1696L43.575 55.1671L43.304 54.2045ZM47.054 53.5398L47.1391 54.5362L47.1452 54.5356L47.054 53.5398ZM50.6506 53.1136L50.811 54.1008L50.8229 54.0987L50.6506 53.1136ZM52.6278 52.4489L53.1982 53.2702L53.2028 53.2671L52.6278 52.4489ZM52.3551 49.0909L52.9762 48.3072L52.9762 48.3072L52.3551 49.0909ZM47.2585 49.0909L46.6786 48.2762L46.6786 48.2762L47.2585 49.0909ZM45.9801 51.0682L45.9447 52.0676L46.7807 52.0972L46.9575 51.2795L45.9801 51.0682ZM38.2926 50.7955L37.3027 50.654L37.1453 51.7554L38.2572 51.7948L38.2926 50.7955ZM40.0483 46.5341L39.2509 45.9306L39.25 45.9318L40.0483 46.5341ZM43.9688 43.5682L44.3649 44.4864L44.3679 44.4851L43.9688 43.5682ZM54.6051 43.0739L54.3335 44.0363L54.3407 44.0383L54.6051 43.0739ZM58.2869 44.7784L57.704 45.591L57.7099 45.5951L58.2869 44.7784ZM60.7074 47.5057L59.8224 47.9714L59.8263 47.9787L60.7074 47.5057ZM61.5767 69V70H62.5767V69H61.5767ZM53.7358 69H52.7358V70H53.7358V69ZM53.7358 65.3523H54.7358V64.3523H53.7358V65.3523ZM53.5312 65.3523V64.3523H52.9272L52.6461 64.887L53.5312 65.3523ZM51.7415 67.6023L51.0966 66.838L51.0907 66.843L51.7415 67.6023ZM49.2017 68.983L48.9022 68.0289L48.899 68.0299L49.2017 68.983ZM50.9233 63.4432L50.4761 62.5487L50.4704 62.5516L50.9233 63.4432ZM52.6619 61.9432L53.4894 62.5047L53.494 62.4979L52.6619 61.9432ZM53.3097 57.2045H54.3097V55.5519L52.8457 56.3187L53.3097 57.2045ZM52.4403 57.5455L52.153 56.5876L52.1439 56.5904L52.4403 57.5455ZM50.1222 58.0739L50.2822 59.061L50.2822 59.061L50.1222 58.0739ZM48.9119 58.2614L48.7664 57.2719L48.7545 57.2738L48.9119 58.2614ZM46.9006 58.8409L46.4756 57.9356L46.4684 57.9391L46.9006 58.8409ZM45.6392 59.8636L44.821 59.2887L44.8178 59.2932L45.6392 59.8636ZM46.1335 63.3068L45.5383 64.1104L45.5454 64.1156L46.1335 63.3068ZM45.929 68.4432C44.3696 68.4432 43.0249 68.1835 41.875 67.6892L41.0852 69.5267C42.5263 70.1461 44.1474 70.4432 45.929 70.4432V68.4432ZM41.8848 67.6935C40.7701 67.2003 39.9046 66.4716 39.2636 65.5003L37.5944 66.602C38.4533 67.9034 39.622 68.8793 41.0755 69.5224L41.8848 67.6935ZM39.2699 65.51C38.6595 64.5615 38.321 63.3246 38.321 61.7386H36.321C36.321 63.6072 36.7212 65.2453 37.5881 66.5923L39.2699 65.51ZM38.321 61.7386C38.321 60.3972 38.5572 59.3358 38.9784 58.5121L37.1977 57.6015C36.5962 58.7778 36.321 60.171 36.321 61.7386H38.321ZM38.9784 58.5121C39.4171 57.6542 40.0137 56.9687 40.7731 56.44L39.6303 54.7986C38.5942 55.52 37.7817 56.4595 37.1977 57.6015L38.9784 58.5121ZM40.7731 56.44C41.5671 55.8872 42.4944 55.4609 43.5663 55.1695L43.0417 53.2396C41.7726 53.5845 40.6317 54.1015 39.6303 54.7986L40.7731 56.44ZM43.575 55.1671C44.6792 54.8562 45.8665 54.6449 47.1391 54.5361L46.9688 52.5434C45.5824 52.6619 44.2697 52.8938 43.033 53.242L43.575 55.1671ZM47.1452 54.5356C48.6447 54.3982 49.8693 54.2537 50.811 54.1007L50.4902 52.1266C49.6136 52.269 48.4406 52.4086 46.9628 52.5439L47.1452 54.5356ZM50.8229 54.0987C51.7734 53.9323 52.6072 53.6807 53.1982 53.2702L52.0574 51.6275C51.8303 51.7852 51.3459 51.9768 50.4782 52.1286L50.8229 54.0987ZM53.2028 53.2671C53.9019 52.7758 54.2585 52.0491 54.2585 51.2045H52.2585C52.2585 51.4282 52.1947 51.531 52.0529 51.6307L53.2028 53.2671ZM54.2585 51.2045V51.1193H52.2585V51.2045H54.2585ZM54.2585 51.1193C54.2585 49.9868 53.853 49.002 52.9762 48.3072L51.734 49.8747C52.0618 50.1344 52.2585 50.5018 52.2585 51.1193H54.2585ZM52.9762 48.3072C52.1464 47.6496 51.0912 47.375 49.9176 47.375V49.375C50.7895 49.375 51.3592 49.5776 51.734 49.8747L52.9762 48.3072ZM49.9176 47.375C48.677 47.375 47.5674 47.6435 46.6786 48.2762L47.8385 49.9056C48.2906 49.5837 48.9537 49.375 49.9176 49.375V47.375ZM46.6786 48.2762C45.7952 48.9051 45.2346 49.7845 45.0027 50.8568L46.9575 51.2795C47.0893 50.6701 47.381 50.2312 47.8385 49.9056L46.6786 48.2762ZM46.0156 50.0688L38.3281 49.7961L38.2572 51.7948L45.9447 52.0676L46.0156 50.0688ZM39.2826 50.9369C39.4866 49.5087 40.008 48.2478 40.8466 47.1364L39.25 45.9318C38.2023 47.3204 37.5532 48.9003 37.3027 50.654L39.2826 50.9369ZM40.8457 47.1375C41.6819 46.0326 42.8416 45.1437 44.3649 44.4863L43.5726 42.65C41.7777 43.4245 40.3238 44.5129 39.2509 45.9306L40.8457 47.1375ZM44.3679 44.4851C45.8821 43.8258 47.7447 43.4773 49.9858 43.4773V41.4773C47.5451 41.4773 45.3964 41.856 43.5696 42.6513L44.3679 44.4851ZM49.9858 43.4773C51.5771 43.4773 53.0242 43.6667 54.3335 44.0363L54.8768 42.1115C53.3679 41.6856 51.7354 41.4773 49.9858 41.4773V43.4773ZM54.3407 44.0383C55.6508 44.3975 56.767 44.9187 57.704 45.5909L58.8698 43.9659C57.7159 43.1381 56.3776 42.523 54.8695 42.1095L54.3407 44.0383ZM57.7099 45.5951C58.633 46.2473 59.3314 47.0385 59.8225 47.9714L61.5923 47.0399C60.947 45.8138 60.0318 44.7868 58.864 43.9617L57.7099 45.5951ZM59.8263 47.9787C60.318 48.8946 60.5767 49.9613 60.5767 51.2045H62.5767C62.5767 49.6751 62.2558 48.2759 61.5885 47.0327L59.8263 47.9787ZM60.5767 51.2045V69H62.5767V51.2045H60.5767ZM61.5767 68H53.7358V70H61.5767V68ZM54.7358 69V65.3523H52.7358V69H54.7358ZM53.7358 64.3523H53.5312V66.3523H53.7358V64.3523ZM52.6461 64.887C52.237 65.6652 51.7201 66.3119 51.0966 66.838L52.3863 68.3666C53.2174 67.6654 53.8936 66.8121 54.4164 65.8176L52.6461 64.887ZM51.0907 66.843C50.4861 67.3613 49.7616 67.759 48.9022 68.0289L49.5012 69.937C50.5963 69.5932 51.5651 69.0706 52.3923 68.3615L51.0907 66.843ZM48.899 68.0299C48.0482 68.3001 47.062 68.4432 45.929 68.4432V70.4432C47.2278 70.4432 48.4234 70.2794 49.5044 69.936L48.899 68.0299ZM48.5028 64.9886C49.5392 64.9886 50.5041 64.7777 51.3762 64.3348L50.4704 62.5516C49.9107 62.8359 49.262 62.9886 48.5028 62.9886V64.9886ZM51.3705 64.3376C52.2419 63.9019 52.9559 63.2909 53.4894 62.5047L51.8345 61.3817C51.5043 61.8682 51.0593 62.2572 50.4761 62.5488L51.3705 64.3376ZM53.494 62.4979C54.0457 61.6704 54.3097 60.7234 54.3097 59.6932H52.3097C52.3097 60.3675 52.1418 60.9205 51.8299 61.3885L53.494 62.4979ZM54.3097 59.6932V57.2045H52.3097V59.6932H54.3097ZM52.8457 56.3187C52.6781 56.4065 52.451 56.4982 52.153 56.5876L52.7277 58.5033C53.1115 58.3881 53.4639 58.2526 53.7737 58.0904L52.8457 56.3187ZM52.1439 56.5904C51.8426 56.6839 51.5039 56.7741 51.1266 56.8604L51.5723 58.8101C51.9904 58.7145 52.379 58.6115 52.7367 58.5005L52.1439 56.5904ZM51.1266 56.8604C50.7505 56.9463 50.3624 57.0218 49.9621 57.0868L50.2822 59.061C50.7228 58.9895 51.1529 58.9059 51.5723 58.8101L51.1266 56.8604ZM49.9621 57.0868C49.5461 57.1542 49.1475 57.216 48.7664 57.272L49.0574 59.2507C49.4491 59.1931 49.8574 59.1299 50.2822 59.061L49.9621 57.0868ZM48.7545 57.2738C47.9032 57.4095 47.1378 57.6249 46.4757 57.9357L47.3255 59.7461C47.777 59.5342 48.3525 59.3632 49.0694 59.2489L48.7545 57.2738ZM46.4684 57.9391C45.7959 58.2614 45.2312 58.705 44.821 59.2887L46.4574 60.4386C46.6381 60.1814 46.9143 59.9432 47.3327 59.7427L46.4684 57.9391ZM44.8178 59.2932C44.4016 59.8927 44.2131 60.5872 44.2131 61.3295H46.2131C46.2131 60.9355 46.3087 60.6528 46.4606 60.434L44.8178 59.2932ZM44.2131 61.3295C44.2131 62.4624 44.6341 63.4406 45.5383 64.1104L46.7288 62.5033C46.4057 62.264 46.2131 61.9239 46.2131 61.3295H44.2131ZM45.5454 64.1156C46.378 64.7211 47.3874 64.9886 48.5028 64.9886V62.9886C47.7092 62.9886 47.139 62.8016 46.7217 62.4981L45.5454 64.1156ZM75.0085 34.0909H76.0085V33.0909H75.0085V34.0909ZM75.0085 69V70H76.0085V69H75.0085ZM66.6733 69H65.6733V70H66.6733V69ZM66.6733 34.0909V33.0909H65.6733V34.0909H66.6733ZM74.0085 34.0909V69H76.0085V34.0909H74.0085ZM75.0085 68H66.6733V70H75.0085V68ZM67.6733 69V34.0909H65.6733V69H67.6733ZM66.6733 35.0909H75.0085V33.0909H66.6733V35.0909ZM95.1946 42.8182H96.1946V41.8182H95.1946V42.8182ZM95.1946 48.9545V49.9545H96.1946V48.9545H95.1946ZM78.3537 48.9545H77.3537V49.9545H78.3537V48.9545ZM78.3537 42.8182V41.8182H77.3537V42.8182H78.3537ZM81.8651 69H80.8651V70H81.8651V69ZM83.0071 36.4602L83.8749 36.9572L83.8767 36.954L83.0071 36.4602ZM86.1776 33.4602L86.6157 34.3592L86.6218 34.3562L86.1776 33.4602ZM94.1378 32.7273L93.9627 33.7119L93.9751 33.714L94.1378 32.7273ZM96.4389 33.1875L97.416 33.4004L97.6181 32.4726L96.702 32.2227L96.4389 33.1875ZM95.1094 39.2898L94.7931 40.2385L95.8494 40.5906L96.0865 39.5027L95.1094 39.2898ZM93.9844 39.0341L93.8284 40.0219L93.8323 40.0225L93.9844 39.0341ZM90.7457 39.5795L91.5106 40.2237L91.5107 40.2237L90.7457 39.5795ZM90.2003 69V70H91.2003V69H90.2003ZM94.1946 42.8182V48.9545H96.1946V42.8182H94.1946ZM95.1946 47.9545H78.3537V49.9545H95.1946V47.9545ZM79.3537 48.9545V42.8182H77.3537V48.9545H79.3537ZM78.3537 43.8182H95.1946V41.8182H78.3537V43.8182ZM82.8651 69V41.4886H80.8651V69H82.8651ZM82.8651 41.4886C82.8651 39.5861 83.2236 38.0945 83.8749 36.9572L82.1393 35.9633C81.2679 37.485 80.8651 39.3457 80.8651 41.4886H82.8651ZM83.8767 36.954C84.5411 35.7839 85.4496 34.9275 86.6157 34.3591L85.7394 32.5613C84.201 33.3111 82.9959 34.4547 82.1375 35.9665L83.8767 36.954ZM86.6218 34.3562C87.8138 33.7651 89.2197 33.4545 90.8651 33.4545V31.4545C88.965 31.4545 87.2458 31.8144 85.7334 32.5643L86.6218 34.3562ZM90.8651 33.4545C91.9721 33.4545 93.004 33.5414 93.9627 33.7118L94.3128 31.7427C93.2261 31.5495 92.0762 31.4545 90.8651 31.4545V33.4545ZM93.9751 33.714C95.0022 33.8833 95.7275 34.03 96.1758 34.1523L96.702 32.2227C96.1503 32.0723 95.3415 31.9122 94.3004 31.7406L93.9751 33.714ZM95.4618 32.9746L94.1323 39.0769L96.0865 39.5027L97.416 33.4004L95.4618 32.9746ZM95.4256 38.3411C95.0493 38.2156 94.6157 38.1195 94.1364 38.0457L93.8323 40.0225C94.2394 40.0851 94.5558 40.1594 94.7931 40.2385L95.4256 38.3411ZM94.1403 38.0463C93.6635 37.971 93.202 37.9318 92.7571 37.9318V39.9318C93.085 39.9318 93.4416 39.9608 93.8284 40.0219L94.1403 38.0463ZM92.7571 37.9318C91.6908 37.9318 90.6359 38.1575 89.9808 38.9354L91.5107 40.2237C91.5828 40.138 91.8688 39.9318 92.7571 39.9318V37.9318ZM89.9808 38.9354C89.4217 39.5994 89.2003 40.4447 89.2003 41.3523H91.2003C91.2003 40.7598 91.3425 40.4233 91.5106 40.2237L89.9808 38.9354ZM89.2003 41.3523V69H91.2003V41.3523H89.2003ZM90.2003 68H81.8651V70H90.2003V68ZM109.517 69H108.517V70H109.517V69ZM109.517 34.0909V33.0909H108.517V34.0909H109.517ZM117.955 34.0909H118.955V33.0909H117.955V34.0909ZM117.955 62.1477H116.955V63.1477H117.955V62.1477ZM132.477 62.1477H133.477V61.1477H132.477V62.1477ZM132.477 69V70H133.477V69H132.477ZM110.517 69V34.0909H108.517V69H110.517ZM109.517 35.0909H117.955V33.0909H109.517V35.0909ZM116.955 34.0909V62.1477H118.955V34.0909H116.955ZM117.955 63.1477H132.477V61.1477H117.955V63.1477ZM131.477 62.1477V69H133.477V62.1477H131.477ZM132.477 68H109.517V70H132.477V68ZM139.777 68.608L139.372 69.5225L139.382 69.5267L139.777 68.608ZM136.726 66.0511L135.885 66.5924L135.891 66.602L136.726 66.0511ZM136.385 58.0568L135.495 57.6015L135.495 57.6015L136.385 58.0568ZM138.499 55.6193L139.07 56.44L139.07 56.44L138.499 55.6193ZM141.601 54.2045L141.863 55.1696L141.872 55.1671L141.601 54.2045ZM145.351 53.5398L145.436 54.5362L145.442 54.5356L145.351 53.5398ZM148.947 53.1136L149.108 54.1008L149.12 54.0987L148.947 53.1136ZM150.925 52.4489L151.495 53.2702L151.5 53.2671L150.925 52.4489ZM150.652 49.0909L151.273 48.3072L151.273 48.3072L150.652 49.0909ZM145.555 49.0909L144.975 48.2762L144.975 48.2762L145.555 49.0909ZM144.277 51.0682L144.242 52.0676L145.078 52.0972L145.254 51.2795L144.277 51.0682ZM136.589 50.7955L135.6 50.654L135.442 51.7554L136.554 51.7948L136.589 50.7955ZM138.345 46.5341L137.548 45.9306L137.547 45.9318L138.345 46.5341ZM142.266 43.5682L142.662 44.4864L142.665 44.4851L142.266 43.5682ZM152.902 43.0739L152.63 44.0363L152.638 44.0383L152.902 43.0739ZM156.584 44.7784L156.001 45.591L156.007 45.5951L156.584 44.7784ZM159.004 47.5057L158.119 47.9714L158.123 47.9787L159.004 47.5057ZM159.874 69V70H160.874V69H159.874ZM152.033 69H151.033V70H152.033V69ZM152.033 65.3523H153.033V64.3523H152.033V65.3523ZM151.828 65.3523V64.3523H151.224L150.943 64.887L151.828 65.3523ZM150.038 67.6023L149.393 66.838L149.388 66.843L150.038 67.6023ZM147.499 68.983L147.199 68.0289L147.196 68.0299L147.499 68.983ZM149.22 63.4432L148.773 62.5487L148.767 62.5516L149.22 63.4432ZM150.959 61.9432L151.786 62.5047L151.791 62.4979L150.959 61.9432ZM151.607 57.2045H152.607V55.5519L151.143 56.3187L151.607 57.2045ZM150.737 57.5455L150.45 56.5876L150.441 56.5904L150.737 57.5455ZM148.419 58.0739L148.579 59.061L148.579 59.061L148.419 58.0739ZM147.209 58.2614L147.063 57.2719L147.051 57.2738L147.209 58.2614ZM145.197 58.8409L144.773 57.9356L144.765 57.9391L145.197 58.8409ZM143.936 59.8636L143.118 59.2887L143.115 59.2932L143.936 59.8636ZM144.43 63.3068L143.835 64.1104L143.842 64.1156L144.43 63.3068ZM144.226 68.4432C142.667 68.4432 141.322 68.1835 140.172 67.6892L139.382 69.5267C140.823 70.1461 142.444 70.4432 144.226 70.4432V68.4432ZM140.182 67.6935C139.067 67.2003 138.201 66.4716 137.56 65.5003L135.891 66.602C136.75 67.9034 137.919 68.8793 139.372 69.5224L140.182 67.6935ZM137.567 65.51C136.956 64.5615 136.618 63.3246 136.618 61.7386H134.618C134.618 63.6072 135.018 65.2453 135.885 66.5923L137.567 65.51ZM136.618 61.7386C136.618 60.3972 136.854 59.3358 137.275 58.5121L135.495 57.6015C134.893 58.7778 134.618 60.171 134.618 61.7386H136.618ZM137.275 58.5121C137.714 57.6542 138.311 56.9687 139.07 56.44L137.927 54.7986C136.891 55.52 136.079 56.4595 135.495 57.6015L137.275 58.5121ZM139.07 56.44C139.864 55.8872 140.791 55.4609 141.863 55.1695L141.339 53.2396C140.07 53.5845 138.929 54.1015 137.927 54.7986L139.07 56.44ZM141.872 55.1671C142.976 54.8562 144.163 54.6449 145.436 54.5361L145.266 52.5434C143.879 52.6619 142.567 52.8938 141.33 53.242L141.872 55.1671ZM145.442 54.5356C146.942 54.3982 148.166 54.2537 149.108 54.1007L148.787 52.1266C147.911 52.269 146.737 52.4086 145.26 52.5439L145.442 54.5356ZM149.12 54.0987C150.07 53.9323 150.904 53.6807 151.495 53.2702L150.354 51.6275C150.127 51.7852 149.643 51.9768 148.775 52.1286L149.12 54.0987ZM151.5 53.2671C152.199 52.7758 152.555 52.0491 152.555 51.2045H150.555C150.555 51.4282 150.492 51.531 150.35 51.6307L151.5 53.2671ZM152.555 51.2045V51.1193H150.555V51.2045H152.555ZM152.555 51.1193C152.555 49.9868 152.15 49.002 151.273 48.3072L150.031 49.8747C150.359 50.1344 150.555 50.5018 150.555 51.1193H152.555ZM151.273 48.3072C150.443 47.6496 149.388 47.375 148.214 47.375V49.375C149.086 49.375 149.656 49.5776 150.031 49.8747L151.273 48.3072ZM148.214 47.375C146.974 47.375 145.864 47.6435 144.975 48.2762L146.135 49.9056C146.587 49.5837 147.251 49.375 148.214 49.375V47.375ZM144.975 48.2762C144.092 48.9051 143.531 49.7845 143.3 50.8568L145.254 51.2795C145.386 50.6701 145.678 50.2312 146.135 49.9056L144.975 48.2762ZM144.312 50.0688L136.625 49.7961L136.554 51.7948L144.242 52.0676L144.312 50.0688ZM137.579 50.9369C137.783 49.5087 138.305 48.2478 139.143 47.1364L137.547 45.9318C136.499 47.3204 135.85 48.9003 135.6 50.654L137.579 50.9369ZM139.143 47.1375C139.979 46.0326 141.139 45.1437 142.662 44.4863L141.869 42.65C140.075 43.4245 138.621 44.5129 137.548 45.9306L139.143 47.1375ZM142.665 44.4851C144.179 43.8258 146.042 43.4773 148.283 43.4773V41.4773C145.842 41.4773 143.693 41.856 141.866 42.6513L142.665 44.4851ZM148.283 43.4773C149.874 43.4773 151.321 43.6667 152.63 44.0363L153.174 42.1115C151.665 41.6856 150.032 41.4773 148.283 41.4773V43.4773ZM152.638 44.0383C153.948 44.3975 155.064 44.9187 156.001 45.5909L157.167 43.9659C156.013 43.1381 154.674 42.523 153.166 42.1095L152.638 44.0383ZM156.007 45.5951C156.93 46.2473 157.628 47.0385 158.119 47.9714L159.889 47.0399C159.244 45.8138 158.329 44.7868 157.161 43.9617L156.007 45.5951ZM158.123 47.9787C158.615 48.8946 158.874 49.9613 158.874 51.2045H160.874C160.874 49.6751 160.553 48.2759 159.885 47.0327L158.123 47.9787ZM158.874 51.2045V69H160.874V51.2045H158.874ZM159.874 68H152.033V70H159.874V68ZM153.033 69V65.3523H151.033V69H153.033ZM152.033 64.3523H151.828V66.3523H152.033V64.3523ZM150.943 64.887C150.534 65.6652 150.017 66.3119 149.393 66.838L150.683 68.3666C151.514 67.6654 152.191 66.8121 152.713 65.8176L150.943 64.887ZM149.388 66.843C148.783 67.3613 148.059 67.759 147.199 68.0289L147.798 69.937C148.893 69.5932 149.862 69.0706 150.689 68.3615L149.388 66.843ZM147.196 68.0299C146.345 68.3001 145.359 68.4432 144.226 68.4432V70.4432C145.525 70.4432 146.72 70.2794 147.801 69.936L147.196 68.0299ZM146.8 64.9886C147.836 64.9886 148.801 64.7777 149.673 64.3348L148.767 62.5516C148.208 62.8359 147.559 62.9886 146.8 62.9886V64.9886ZM149.667 64.3376C150.539 63.9019 151.253 63.2909 151.786 62.5047L150.131 61.3817C149.801 61.8682 149.356 62.2572 148.773 62.5488L149.667 64.3376ZM151.791 62.4979C152.343 61.6704 152.607 60.7234 152.607 59.6932H150.607C150.607 60.3675 150.439 60.9205 150.127 61.3885L151.791 62.4979ZM152.607 59.6932V57.2045H150.607V59.6932H152.607ZM151.143 56.3187C150.975 56.4065 150.748 56.4982 150.45 56.5876L151.025 58.5033C151.408 58.3881 151.761 58.2526 152.071 58.0904L151.143 56.3187ZM150.441 56.5904C150.139 56.6839 149.801 56.7741 149.423 56.8604L149.869 58.8101C150.287 58.7145 150.676 58.6115 151.034 58.5005L150.441 56.5904ZM149.423 56.8604C149.047 56.9463 148.659 57.0218 148.259 57.0868L148.579 59.061C149.02 58.9895 149.45 58.9059 149.869 58.8101L149.423 56.8604ZM148.259 57.0868C147.843 57.1542 147.444 57.216 147.063 57.272L147.354 59.2507C147.746 59.1931 148.154 59.1299 148.579 59.061L148.259 57.0868ZM147.051 57.2738C146.2 57.4095 145.435 57.6249 144.773 57.9357L145.622 59.7461C146.074 59.5342 146.649 59.3632 147.366 59.2489L147.051 57.2738ZM144.765 57.9391C144.093 58.2614 143.528 58.705 143.118 59.2887L144.754 60.4386C144.935 60.1814 145.211 59.9432 145.63 59.7427L144.765 57.9391ZM143.115 59.2932C142.698 59.8927 142.51 60.5872 142.51 61.3295H144.51C144.51 60.9355 144.606 60.6528 144.757 60.434L143.115 59.2932ZM142.51 61.3295C142.51 62.4624 142.931 63.4406 143.835 64.1104L145.026 62.5033C144.703 62.264 144.51 61.9239 144.51 61.3295H142.51ZM143.842 64.1156C144.675 64.7211 145.684 64.9886 146.8 64.9886V62.9886C146.006 62.9886 145.436 62.8016 145.019 62.4981L143.842 64.1156ZM187.828 50.8125L187.855 51.8121L188.913 51.7839L188.825 50.7295L187.828 50.8125ZM180.175 51.017L179.185 51.1614L179.313 52.0404L180.201 52.0167L180.175 51.017ZM179.527 49.5682L178.752 50.2004L178.76 50.2104L179.527 49.5682ZM178.146 48.5625L177.737 49.4748L177.748 49.4798L177.759 49.4845L178.146 48.5625ZM173.732 48.767L173.239 47.897L173.232 47.9006L173.732 48.767ZM172.743 50.3352L173.743 50.3574L173.743 50.3377L173.743 50.318L172.743 50.3352ZM173.357 51.6648L172.691 52.4111L172.701 52.4198L173.357 51.6648ZM175.658 52.5682L175.456 53.5476L175.464 53.5492L175.472 53.5508L175.658 52.5682ZM180.703 53.5227L180.891 52.5405L180.889 52.5402L180.703 53.5227ZM186.533 56.0114L185.859 56.7507L185.863 56.7537L186.533 56.0114ZM188.476 60.6136L189.476 60.62L189.476 60.6077L188.476 60.6136ZM186.874 65.3011L186.091 64.6789L186.087 64.683L186.874 65.3011ZM182.578 68.4034L182.95 69.3319L182.955 69.3299L182.578 68.4034ZM167.493 67.1932L166.909 68.0049L166.914 68.0084L167.493 67.1932ZM163.811 60.9886L163.786 59.9889L162.689 60.0162L162.818 61.1062L163.811 60.9886ZM172.044 60.7841L173.026 60.597L172.868 59.7633L172.019 59.7844L172.044 60.7841ZM173.459 62.9659L174.008 62.13L174.008 62.13L173.459 62.9659ZM178.982 63.1193L178.471 62.2593L178.471 62.2593L178.982 63.1193ZM180.004 61.5341L181.004 61.5513L181.004 61.5331L181.004 61.5149L180.004 61.5341ZM179.22 60.1193L178.641 60.9343L178.647 60.9386L178.653 60.9428L179.22 60.1193ZM176.817 59.267L176.63 60.2494L176.632 60.2499L176.817 59.267ZM172.249 58.3977L172.436 57.4153L172.427 57.4139L172.249 58.3977ZM166.385 55.7557L165.675 56.4597L165.678 56.4628L166.385 55.7557ZM164.476 50.8125L165.476 50.8182L165.476 50.806L164.476 50.8125ZM165.874 46.3295L166.669 46.9354L166.672 46.9319L165.874 46.3295ZM169.896 43.4659L169.542 42.5308L169.542 42.5308L169.896 43.4659ZM184.436 44.7102L183.848 45.5188L183.851 45.5209L184.436 44.7102ZM187.801 49.8129L180.148 50.0174L180.201 52.0167L187.855 51.8121L187.801 49.8129ZM181.164 50.8727C181.058 50.1448 180.765 49.4892 180.294 48.926L178.76 50.2104C178.993 50.488 179.132 50.7984 179.185 51.1614L181.164 50.8727ZM180.302 48.9361C179.835 48.3643 179.236 47.9357 178.534 47.6405L177.759 49.4845C178.193 49.6665 178.514 49.9084 178.752 50.2003L180.302 48.9361ZM178.556 47.6502C177.846 47.3316 177.054 47.1875 176.203 47.1875V49.1875C176.83 49.1875 177.333 49.2934 177.737 49.4748L178.556 47.6502ZM176.203 47.1875C175.104 47.1875 174.102 47.4078 173.239 47.897L174.225 49.6371C174.725 49.3536 175.37 49.1875 176.203 49.1875V47.1875ZM173.232 47.9006C172.312 48.4307 171.724 49.2597 171.743 50.3525L173.743 50.318C173.739 50.0925 173.81 49.8761 174.231 49.6335L173.232 47.9006ZM171.743 50.313C171.725 51.149 172.077 51.8635 172.691 52.4111L174.022 50.9185C173.795 50.7161 173.739 50.5442 173.743 50.3574L171.743 50.313ZM172.701 52.4198C173.336 52.9716 174.319 53.3132 175.456 53.5476L175.86 51.5888C174.792 51.3686 174.24 51.108 174.012 50.9097L172.701 52.4198ZM175.472 53.5508L180.517 54.5053L180.889 52.5402L175.844 51.5856L175.472 53.5508ZM180.515 54.5049C183.039 54.9877 184.778 55.766 185.859 56.7507L187.206 55.272C185.742 53.9385 183.595 53.0578 180.891 52.5405L180.515 54.5049ZM185.863 56.7537C186.915 57.7039 187.466 58.959 187.476 60.6196L189.476 60.6077C189.463 58.4501 188.718 56.637 187.203 55.269L185.863 56.7537ZM187.476 60.6073C187.466 62.1927 187 63.535 186.091 64.6789L187.656 65.9234C188.861 64.4082 189.463 62.6255 189.476 60.62L187.476 60.6073ZM186.087 64.683C185.166 65.8554 183.885 66.7931 182.202 67.4769L182.955 69.3299C184.908 68.5364 186.491 67.406 187.66 65.9193L186.087 64.683ZM182.207 67.4749C180.527 68.1467 178.577 68.4943 176.339 68.4943V70.4943C178.783 70.4943 180.993 70.1147 182.95 69.3319L182.207 67.4749ZM176.339 68.4943C172.726 68.4943 170.005 67.7515 168.072 66.378L166.914 68.0084C169.299 69.703 172.476 70.4943 176.339 70.4943V68.4943ZM168.077 66.3815C166.153 64.9972 165.077 63.179 164.804 60.871L162.818 61.1062C163.158 63.9801 164.537 66.2983 166.909 68.0049L168.077 66.3815ZM163.836 61.9883L172.069 61.7838L172.019 59.7844L163.786 59.9889L163.836 61.9883ZM171.062 60.9712C171.29 62.172 171.906 63.1424 172.91 63.8018L174.008 62.13C173.489 61.7894 173.161 61.3053 173.026 60.597L171.062 60.9712ZM172.91 63.8018C173.876 64.4365 175.054 64.7159 176.374 64.7159V62.7159C175.33 62.7159 174.564 62.4953 174.008 62.13L172.91 63.8018ZM176.374 64.7159C177.558 64.7159 178.62 64.4965 179.492 63.9794L178.471 62.2593C178.002 62.5375 177.326 62.7159 176.374 62.7159V64.7159ZM179.492 63.9794C180.397 63.4425 180.986 62.6255 181.004 61.5513L179.004 61.5169C179 61.7609 178.907 62.0007 178.471 62.2593L179.492 63.9794ZM181.004 61.5149C180.986 60.5831 180.548 59.8199 179.787 59.2958L178.653 60.9428C178.915 61.1232 179 61.3033 179.004 61.5533L181.004 61.5149ZM179.8 59.3044C179.112 58.8153 178.141 58.498 177.001 58.2842L176.632 60.2499C177.674 60.4452 178.306 60.6961 178.641 60.9343L179.8 59.3044ZM177.004 58.2847L172.436 57.4154L172.062 59.3801L176.63 60.2494L177.004 58.2847ZM172.427 57.4139C169.913 56.9568 168.179 56.1359 167.092 55.0486L165.678 56.4628C167.159 57.9437 169.334 58.8841 172.07 59.3816L172.427 57.4139ZM167.095 55.0517C166.017 53.964 165.466 52.5807 165.476 50.8182L163.476 50.8068C163.463 53.0443 164.185 54.9564 165.675 56.4597L167.095 55.0517ZM165.476 50.806C165.466 49.2482 165.876 47.9764 166.669 46.9354L165.078 45.7237C163.984 47.1599 163.463 48.8768 163.476 50.819L165.476 50.806ZM166.672 46.9319C167.482 45.8586 168.655 45.0059 170.251 44.401L169.542 42.5308C167.66 43.2441 166.152 44.3005 165.075 45.7272L166.672 46.9319ZM170.251 44.401C171.85 43.7947 173.776 43.4773 176.05 43.4773V41.4773C173.596 41.4773 171.42 41.8189 169.542 42.5308L170.251 44.401ZM176.05 43.4773C179.466 43.4773 182.03 44.1956 183.848 45.5188L185.025 43.9017C182.752 42.2476 179.724 41.4773 176.05 41.4773V43.4773ZM183.851 45.5209C185.651 46.8214 186.639 48.5854 186.832 50.8955L188.825 50.7295C188.585 47.8578 187.312 45.5536 185.022 43.8995L183.851 45.5209ZM200.915 54.0682L199.915 54.0568V54.0682H200.915ZM200.915 69V70H201.915V69H200.915ZM192.58 69H191.58V70H192.58V69ZM192.58 34.0909V33.0909H191.58V34.0909H192.58ZM200.642 34.0909H201.642V33.0909H200.642V34.0909ZM200.642 47.625H199.642V48.625H200.642V47.625ZM200.932 47.625V48.625H201.631L201.871 47.9689L200.932 47.625ZM203.83 43.8409L203.272 43.011L203.268 43.0132L203.83 43.8409ZM213.597 43.7045L213.082 44.5621L213.087 44.5652L213.597 43.7045ZM216.767 47.1307L215.875 47.5834L215.878 47.5888L216.767 47.1307ZM217.892 52.3125L216.892 52.3068V52.3125H217.892ZM217.892 69V70H218.892V69H217.892ZM209.557 69H208.557V70H209.557V69ZM209.557 53.9489L208.557 53.9411V53.9489H209.557ZM208.466 50.5398L207.724 51.2099L207.724 51.2099L208.466 50.5398ZM203.028 49.892L203.523 50.7612L203.528 50.7585L203.028 49.892ZM201.477 51.5114L200.594 51.0415L200.589 51.0527L201.477 51.5114ZM199.915 54.0682V69H201.915V54.0682H199.915ZM200.915 68H192.58V70H200.915V68ZM193.58 69V34.0909H191.58V69H193.58ZM192.58 35.0909H200.642V33.0909H192.58V35.0909ZM199.642 34.0909V47.625H201.642V34.0909H199.642ZM200.642 48.625H200.932V46.625H200.642V48.625ZM201.871 47.9689C202.394 46.5394 203.234 45.4527 204.391 44.6686L203.268 43.0132C201.743 44.0473 200.651 45.4833 199.993 47.2811L201.871 47.9689ZM204.387 44.6708C205.544 43.8931 206.994 43.4773 208.79 43.4773V41.4773C206.677 41.4773 204.819 41.9705 203.272 43.011L204.387 44.6708ZM208.79 43.4773C210.478 43.4773 211.897 43.851 213.082 44.562L214.111 42.8471C212.569 41.9217 210.783 41.4773 208.79 41.4773V43.4773ZM213.087 44.5652C214.28 45.2706 215.207 46.2676 215.875 47.5834L217.659 46.678C216.827 45.0393 215.641 43.7521 214.106 42.8439L213.087 44.5652ZM215.878 47.5888C216.553 48.8978 216.903 50.4603 216.892 52.3068L218.892 52.3182C218.904 50.2101 218.504 48.3181 217.656 46.6726L215.878 47.5888ZM216.892 52.3125V69H218.892V52.3125H216.892ZM217.892 68H209.557V70H217.892V68ZM210.557 69V53.9489H208.557V69H210.557ZM210.557 53.9567C210.569 52.3337 210.162 50.9266 209.208 49.8697L207.724 51.2099C208.247 51.7894 208.567 52.6549 208.557 53.9411L210.557 53.9567ZM209.208 49.8697C208.24 48.7968 206.904 48.3125 205.347 48.3125V50.3125C206.471 50.3125 207.215 50.6464 207.724 51.2099L209.208 49.8697ZM205.347 48.3125C204.32 48.3125 203.37 48.5408 202.529 49.0256L203.528 50.7585C204.027 50.4706 204.624 50.3125 205.347 50.3125V48.3125ZM202.534 49.0229C201.701 49.4966 201.054 50.179 200.595 51.0415L202.36 51.9812C202.651 51.4346 203.037 51.0375 203.523 50.7612L202.534 49.0229ZM200.589 51.0527C200.137 51.927 199.928 52.9407 199.915 54.0568L201.915 54.0795C201.925 53.1956 202.09 52.5048 202.366 51.97L200.589 51.0527Z" fill="black" mask="url(#path-1-outside-1_122_30)"/>
<path d="M2.64205 69H1.64205V70H2.64205V69ZM2.64205 34.0909V33.0909H1.64205V34.0909H2.64205ZM11.0795 34.0909H12.0795V33.0909H11.0795V34.0909ZM11.0795 48.1023H10.0795V49.1023H11.0795V48.1023ZM24.8352 48.1023V49.1023H25.8352V48.1023H24.8352ZM24.8352 34.0909V33.0909H23.8352V34.0909H24.8352ZM33.2557 34.0909H34.2557V33.0909H33.2557V34.0909ZM33.2557 69V70H34.2557V69H33.2557ZM24.8352 69H23.8352V70H24.8352V69ZM24.8352 54.9716H25.8352V53.9716H24.8352V54.9716ZM11.0795 54.9716V53.9716H10.0795V54.9716H11.0795ZM11.0795 69V70H12.0795V69H11.0795ZM3.64205 69V34.0909H1.64205V69H3.64205ZM2.64205 35.0909H11.0795V33.0909H2.64205V35.0909ZM10.0795 34.0909V48.1023H12.0795V34.0909H10.0795ZM11.0795 49.1023H24.8352V47.1023H11.0795V49.1023ZM25.8352 48.1023V34.0909H23.8352V48.1023H25.8352ZM24.8352 35.0909H33.2557V33.0909H24.8352V35.0909ZM32.2557 34.0909V69H34.2557V34.0909H32.2557ZM33.2557 68H24.8352V70H33.2557V68ZM25.8352 69V54.9716H23.8352V69H25.8352ZM24.8352 53.9716H11.0795V55.9716H24.8352V53.9716ZM10.0795 54.9716V69H12.0795V54.9716H10.0795ZM11.0795 68H2.64205V70H11.0795V68ZM41.4801 68.608L41.0755 69.5225L41.0852 69.5267L41.4801 68.608ZM38.429 66.0511L37.588 66.5924L37.5944 66.602L38.429 66.0511ZM38.0881 58.0568L37.1977 57.6015L37.1977 57.6015L38.0881 58.0568ZM40.2017 55.6193L40.7731 56.44L40.7731 56.44L40.2017 55.6193ZM43.304 54.2045L43.5663 55.1696L43.575 55.1671L43.304 54.2045ZM47.054 53.5398L47.1391 54.5362L47.1452 54.5356L47.054 53.5398ZM50.6506 53.1136L50.811 54.1008L50.8229 54.0987L50.6506 53.1136ZM52.6278 52.4489L53.1982 53.2702L53.2028 53.2671L52.6278 52.4489ZM52.3551 49.0909L52.9762 48.3072L52.9762 48.3072L52.3551 49.0909ZM47.2585 49.0909L46.6786 48.2762L46.6786 48.2762L47.2585 49.0909ZM45.9801 51.0682L45.9447 52.0676L46.7807 52.0972L46.9575 51.2795L45.9801 51.0682ZM38.2926 50.7955L37.3027 50.654L37.1453 51.7554L38.2572 51.7948L38.2926 50.7955ZM40.0483 46.5341L39.2509 45.9306L39.25 45.9318L40.0483 46.5341ZM43.9688 43.5682L44.3649 44.4864L44.3679 44.4851L43.9688 43.5682ZM54.6051 43.0739L54.3335 44.0363L54.3407 44.0383L54.6051 43.0739ZM58.2869 44.7784L57.704 45.591L57.7099 45.5951L58.2869 44.7784ZM60.7074 47.5057L59.8224 47.9714L59.8263 47.9787L60.7074 47.5057ZM61.5767 69V70H62.5767V69H61.5767ZM53.7358 69H52.7358V70H53.7358V69ZM53.7358 65.3523H54.7358V64.3523H53.7358V65.3523ZM53.5312 65.3523V64.3523H52.9272L52.6461 64.887L53.5312 65.3523ZM51.7415 67.6023L51.0966 66.838L51.0907 66.843L51.7415 67.6023ZM49.2017 68.983L48.9022 68.0289L48.899 68.0299L49.2017 68.983ZM50.9233 63.4432L50.4761 62.5487L50.4704 62.5516L50.9233 63.4432ZM52.6619 61.9432L53.4894 62.5047L53.494 62.4979L52.6619 61.9432ZM53.3097 57.2045H54.3097V55.5519L52.8457 56.3187L53.3097 57.2045ZM52.4403 57.5455L52.153 56.5876L52.1439 56.5904L52.4403 57.5455ZM50.1222 58.0739L50.2822 59.061L50.2822 59.061L50.1222 58.0739ZM48.9119 58.2614L48.7664 57.2719L48.7545 57.2738L48.9119 58.2614ZM46.9006 58.8409L46.4756 57.9356L46.4684 57.9391L46.9006 58.8409ZM45.6392 59.8636L44.821 59.2887L44.8178 59.2932L45.6392 59.8636ZM46.1335 63.3068L45.5383 64.1104L45.5454 64.1156L46.1335 63.3068ZM45.929 68.4432C44.3696 68.4432 43.0249 68.1835 41.875 67.6892L41.0852 69.5267C42.5263 70.1461 44.1474 70.4432 45.929 70.4432V68.4432ZM41.8848 67.6935C40.7701 67.2003 39.9046 66.4716 39.2636 65.5003L37.5944 66.602C38.4533 67.9034 39.622 68.8793 41.0755 69.5224L41.8848 67.6935ZM39.2699 65.51C38.6595 64.5615 38.321 63.3246 38.321 61.7386H36.321C36.321 63.6072 36.7212 65.2453 37.5881 66.5923L39.2699 65.51ZM38.321 61.7386C38.321 60.3972 38.5572 59.3358 38.9784 58.5121L37.1977 57.6015C36.5962 58.7778 36.321 60.171 36.321 61.7386H38.321ZM38.9784 58.5121C39.4171 57.6542 40.0137 56.9687 40.7731 56.44L39.6303 54.7986C38.5942 55.52 37.7817 56.4595 37.1977 57.6015L38.9784 58.5121ZM40.7731 56.44C41.5671 55.8872 42.4944 55.4609 43.5663 55.1695L43.0417 53.2396C41.7726 53.5845 40.6317 54.1015 39.6303 54.7986L40.7731 56.44ZM43.575 55.1671C44.6792 54.8562 45.8665 54.6449 47.1391 54.5361L46.9688 52.5434C45.5824 52.6619 44.2697 52.8938 43.033 53.242L43.575 55.1671ZM47.1452 54.5356C48.6447 54.3982 49.8693 54.2537 50.811 54.1007L50.4902 52.1266C49.6136 52.269 48.4406 52.4086 46.9628 52.5439L47.1452 54.5356ZM50.8229 54.0987C51.7734 53.9323 52.6072 53.6807 53.1982 53.2702L52.0574 51.6275C51.8303 51.7852 51.3459 51.9768 50.4782 52.1286L50.8229 54.0987ZM53.2028 53.2671C53.9019 52.7758 54.2585 52.0491 54.2585 51.2045H52.2585C52.2585 51.4282 52.1947 51.531 52.0529 51.6307L53.2028 53.2671ZM54.2585 51.2045V51.1193H52.2585V51.2045H54.2585ZM54.2585 51.1193C54.2585 49.9868 53.853 49.002 52.9762 48.3072L51.734 49.8747C52.0618 50.1344 52.2585 50.5018 52.2585 51.1193H54.2585ZM52.9762 48.3072C52.1464 47.6496 51.0912 47.375 49.9176 47.375V49.375C50.7895 49.375 51.3592 49.5776 51.734 49.8747L52.9762 48.3072ZM49.9176 47.375C48.677 47.375 47.5674 47.6435 46.6786 48.2762L47.8385 49.9056C48.2906 49.5837 48.9537 49.375 49.9176 49.375V47.375ZM46.6786 48.2762C45.7952 48.9051 45.2346 49.7845 45.0027 50.8568L46.9575 51.2795C47.0893 50.6701 47.381 50.2312 47.8385 49.9056L46.6786 48.2762ZM46.0156 50.0688L38.3281 49.7961L38.2572 51.7948L45.9447 52.0676L46.0156 50.0688ZM39.2826 50.9369C39.4866 49.5087 40.008 48.2478 40.8466 47.1364L39.25 45.9318C38.2023 47.3204 37.5532 48.9003 37.3027 50.654L39.2826 50.9369ZM40.8457 47.1375C41.6819 46.0326 42.8416 45.1437 44.3649 44.4863L43.5726 42.65C41.7777 43.4245 40.3238 44.5129 39.2509 45.9306L40.8457 47.1375ZM44.3679 44.4851C45.8821 43.8258 47.7447 43.4773 49.9858 43.4773V41.4773C47.5451 41.4773 45.3964 41.856 43.5696 42.6513L44.3679 44.4851ZM49.9858 43.4773C51.5771 43.4773 53.0242 43.6667 54.3335 44.0363L54.8768 42.1115C53.3679 41.6856 51.7354 41.4773 49.9858 41.4773V43.4773ZM54.3407 44.0383C55.6508 44.3975 56.767 44.9187 57.704 45.5909L58.8698 43.9659C57.7159 43.1381 56.3776 42.523 54.8695 42.1095L54.3407 44.0383ZM57.7099 45.5951C58.633 46.2473 59.3314 47.0385 59.8225 47.9714L61.5923 47.0399C60.947 45.8138 60.0318 44.7868 58.864 43.9617L57.7099 45.5951ZM59.8263 47.9787C60.318 48.8946 60.5767 49.9613 60.5767 51.2045H62.5767C62.5767 49.6751 62.2558 48.2759 61.5885 47.0327L59.8263 47.9787ZM60.5767 51.2045V69H62.5767V51.2045H60.5767ZM61.5767 68H53.7358V70H61.5767V68ZM54.7358 69V65.3523H52.7358V69H54.7358ZM53.7358 64.3523H53.5312V66.3523H53.7358V64.3523ZM52.6461 64.887C52.237 65.6652 51.7201 66.3119 51.0966 66.838L52.3863 68.3666C53.2174 67.6654 53.8936 66.8121 54.4164 65.8176L52.6461 64.887ZM51.0907 66.843C50.4861 67.3613 49.7616 67.759 48.9022 68.0289L49.5012 69.937C50.5963 69.5932 51.5651 69.0706 52.3923 68.3615L51.0907 66.843ZM48.899 68.0299C48.0482 68.3001 47.062 68.4432 45.929 68.4432V70.4432C47.2278 70.4432 48.4234 70.2794 49.5044 69.936L48.899 68.0299ZM48.5028 64.9886C49.5392 64.9886 50.5041 64.7777 51.3762 64.3348L50.4704 62.5516C49.9107 62.8359 49.262 62.9886 48.5028 62.9886V64.9886ZM51.3705 64.3376C52.2419 63.9019 52.9559 63.2909 53.4894 62.5047L51.8345 61.3817C51.5043 61.8682 51.0593 62.2572 50.4761 62.5488L51.3705 64.3376ZM53.494 62.4979C54.0457 61.6704 54.3097 60.7234 54.3097 59.6932H52.3097C52.3097 60.3675 52.1418 60.9205 51.8299 61.3885L53.494 62.4979ZM54.3097 59.6932V57.2045H52.3097V59.6932H54.3097ZM52.8457 56.3187C52.6781 56.4065 52.451 56.4982 52.153 56.5876L52.7277 58.5033C53.1115 58.3881 53.4639 58.2526 53.7737 58.0904L52.8457 56.3187ZM52.1439 56.5904C51.8426 56.6839 51.5039 56.7741 51.1266 56.8604L51.5723 58.8101C51.9904 58.7145 52.379 58.6115 52.7367 58.5005L52.1439 56.5904ZM51.1266 56.8604C50.7505 56.9463 50.3624 57.0218 49.9621 57.0868L50.2822 59.061C50.7228 58.9895 51.1529 58.9059 51.5723 58.8101L51.1266 56.8604ZM49.9621 57.0868C49.5461 57.1542 49.1475 57.216 48.7664 57.272L49.0574 59.2507C49.4491 59.1931 49.8574 59.1299 50.2822 59.061L49.9621 57.0868ZM48.7545 57.2738C47.9032 57.4095 47.1378 57.6249 46.4757 57.9357L47.3255 59.7461C47.777 59.5342 48.3525 59.3632 49.0694 59.2489L48.7545 57.2738ZM46.4684 57.9391C45.7959 58.2614 45.2312 58.705 44.821 59.2887L46.4574 60.4386C46.6381 60.1814 46.9143 59.9432 47.3327 59.7427L46.4684 57.9391ZM44.8178 59.2932C44.4016 59.8927 44.2131 60.5872 44.2131 61.3295H46.2131C46.2131 60.9355 46.3087 60.6528 46.4606 60.434L44.8178 59.2932ZM44.2131 61.3295C44.2131 62.4624 44.6341 63.4406 45.5383 64.1104L46.7288 62.5033C46.4057 62.264 46.2131 61.9239 46.2131 61.3295H44.2131ZM45.5454 64.1156C46.378 64.7211 47.3874 64.9886 48.5028 64.9886V62.9886C47.7092 62.9886 47.139 62.8016 46.7217 62.4981L45.5454 64.1156ZM75.0085 34.0909H76.0085V33.0909H75.0085V34.0909ZM75.0085 69V70H76.0085V69H75.0085ZM66.6733 69H65.6733V70H66.6733V69ZM66.6733 34.0909V33.0909H65.6733V34.0909H66.6733ZM74.0085 34.0909V69H76.0085V34.0909H74.0085ZM75.0085 68H66.6733V70H75.0085V68ZM67.6733 69V34.0909H65.6733V69H67.6733ZM66.6733 35.0909H75.0085V33.0909H66.6733V35.0909ZM95.1946 42.8182H96.1946V41.8182H95.1946V42.8182ZM95.1946 48.9545V49.9545H96.1946V48.9545H95.1946ZM78.3537 48.9545H77.3537V49.9545H78.3537V48.9545ZM78.3537 42.8182V41.8182H77.3537V42.8182H78.3537ZM81.8651 69H80.8651V70H81.8651V69ZM83.0071 36.4602L83.8749 36.9572L83.8767 36.954L83.0071 36.4602ZM86.1776 33.4602L86.6157 34.3592L86.6218 34.3562L86.1776 33.4602ZM94.1378 32.7273L93.9627 33.7119L93.9751 33.714L94.1378 32.7273ZM96.4389 33.1875L97.416 33.4004L97.6181 32.4726L96.702 32.2227L96.4389 33.1875ZM95.1094 39.2898L94.7931 40.2385L95.8494 40.5906L96.0865 39.5027L95.1094 39.2898ZM93.9844 39.0341L93.8284 40.0219L93.8323 40.0225L93.9844 39.0341ZM90.7457 39.5795L91.5106 40.2237L91.5107 40.2237L90.7457 39.5795ZM90.2003 69V70H91.2003V69H90.2003ZM94.1946 42.8182V48.9545H96.1946V42.8182H94.1946ZM95.1946 47.9545H78.3537V49.9545H95.1946V47.9545ZM79.3537 48.9545V42.8182H77.3537V48.9545H79.3537ZM78.3537 43.8182H95.1946V41.8182H78.3537V43.8182ZM82.8651 69V41.4886H80.8651V69H82.8651ZM82.8651 41.4886C82.8651 39.5861 83.2236 38.0945 83.8749 36.9572L82.1393 35.9633C81.2679 37.485 80.8651 39.3457 80.8651 41.4886H82.8651ZM83.8767 36.954C84.5411 35.7839 85.4496 34.9275 86.6157 34.3591L85.7394 32.5613C84.201 33.3111 82.9959 34.4547 82.1375 35.9665L83.8767 36.954ZM86.6218 34.3562C87.8138 33.7651 89.2197 33.4545 90.8651 33.4545V31.4545C88.965 31.4545 87.2458 31.8144 85.7334 32.5643L86.6218 34.3562ZM90.8651 33.4545C91.9721 33.4545 93.004 33.5414 93.9627 33.7118L94.3128 31.7427C93.2261 31.5495 92.0762 31.4545 90.8651 31.4545V33.4545ZM93.9751 33.714C95.0022 33.8833 95.7275 34.03 96.1758 34.1523L96.702 32.2227C96.1503 32.0723 95.3415 31.9122 94.3004 31.7406L93.9751 33.714ZM95.4618 32.9746L94.1323 39.0769L96.0865 39.5027L97.416 33.4004L95.4618 32.9746ZM95.4256 38.3411C95.0493 38.2156 94.6157 38.1195 94.1364 38.0457L93.8323 40.0225C94.2394 40.0851 94.5558 40.1594 94.7931 40.2385L95.4256 38.3411ZM94.1403 38.0463C93.6635 37.971 93.202 37.9318 92.7571 37.9318V39.9318C93.085 39.9318 93.4416 39.9608 93.8284 40.0219L94.1403 38.0463ZM92.7571 37.9318C91.6908 37.9318 90.6359 38.1575 89.9808 38.9354L91.5107 40.2237C91.5828 40.138 91.8688 39.9318 92.7571 39.9318V37.9318ZM89.9808 38.9354C89.4217 39.5994 89.2003 40.4447 89.2003 41.3523H91.2003C91.2003 40.7598 91.3425 40.4233 91.5106 40.2237L89.9808 38.9354ZM89.2003 41.3523V69H91.2003V41.3523H89.2003ZM90.2003 68H81.8651V70H90.2003V68ZM109.517 69H108.517V70H109.517V69ZM109.517 34.0909V33.0909H108.517V34.0909H109.517ZM117.955 34.0909H118.955V33.0909H117.955V34.0909ZM117.955 62.1477H116.955V63.1477H117.955V62.1477ZM132.477 62.1477H133.477V61.1477H132.477V62.1477ZM132.477 69V70H133.477V69H132.477ZM110.517 69V34.0909H108.517V69H110.517ZM109.517 35.0909H117.955V33.0909H109.517V35.0909ZM116.955 34.0909V62.1477H118.955V34.0909H116.955ZM117.955 63.1477H132.477V61.1477H117.955V63.1477ZM131.477 62.1477V69H133.477V62.1477H131.477ZM132.477 68H109.517V70H132.477V68ZM139.777 68.608L139.372 69.5225L139.382 69.5267L139.777 68.608ZM136.726 66.0511L135.885 66.5924L135.891 66.602L136.726 66.0511ZM136.385 58.0568L135.495 57.6015L135.495 57.6015L136.385 58.0568ZM138.499 55.6193L139.07 56.44L139.07 56.44L138.499 55.6193ZM141.601 54.2045L141.863 55.1696L141.872 55.1671L141.601 54.2045ZM145.351 53.5398L145.436 54.5362L145.442 54.5356L145.351 53.5398ZM148.947 53.1136L149.108 54.1008L149.12 54.0987L148.947 53.1136ZM150.925 52.4489L151.495 53.2702L151.5 53.2671L150.925 52.4489ZM150.652 49.0909L151.273 48.3072L151.273 48.3072L150.652 49.0909ZM145.555 49.0909L144.975 48.2762L144.975 48.2762L145.555 49.0909ZM144.277 51.0682L144.242 52.0676L145.078 52.0972L145.254 51.2795L144.277 51.0682ZM136.589 50.7955L135.6 50.654L135.442 51.7554L136.554 51.7948L136.589 50.7955ZM138.345 46.5341L137.548 45.9306L137.547 45.9318L138.345 46.5341ZM142.266 43.5682L142.662 44.4864L142.665 44.4851L142.266 43.5682ZM152.902 43.0739L152.63 44.0363L152.638 44.0383L152.902 43.0739ZM156.584 44.7784L156.001 45.591L156.007 45.5951L156.584 44.7784ZM159.004 47.5057L158.119 47.9714L158.123 47.9787L159.004 47.5057ZM159.874 69V70H160.874V69H159.874ZM152.033 69H151.033V70H152.033V69ZM152.033 65.3523H153.033V64.3523H152.033V65.3523ZM151.828 65.3523V64.3523H151.224L150.943 64.887L151.828 65.3523ZM150.038 67.6023L149.393 66.838L149.388 66.843L150.038 67.6023ZM147.499 68.983L147.199 68.0289L147.196 68.0299L147.499 68.983ZM149.22 63.4432L148.773 62.5487L148.767 62.5516L149.22 63.4432ZM150.959 61.9432L151.786 62.5047L151.791 62.4979L150.959 61.9432ZM151.607 57.2045H152.607V55.5519L151.143 56.3187L151.607 57.2045ZM150.737 57.5455L150.45 56.5876L150.441 56.5904L150.737 57.5455ZM148.419 58.0739L148.579 59.061L148.579 59.061L148.419 58.0739ZM147.209 58.2614L147.063 57.2719L147.051 57.2738L147.209 58.2614ZM145.197 58.8409L144.773 57.9356L144.765 57.9391L145.197 58.8409ZM143.936 59.8636L143.118 59.2887L143.115 59.2932L143.936 59.8636ZM144.43 63.3068L143.835 64.1104L143.842 64.1156L144.43 63.3068ZM144.226 68.4432C142.667 68.4432 141.322 68.1835 140.172 67.6892L139.382 69.5267C140.823 70.1461 142.444 70.4432 144.226 70.4432V68.4432ZM140.182 67.6935C139.067 67.2003 138.201 66.4716 137.56 65.5003L135.891 66.602C136.75 67.9034 137.919 68.8793 139.372 69.5224L140.182 67.6935ZM137.567 65.51C136.956 64.5615 136.618 63.3246 136.618 61.7386H134.618C134.618 63.6072 135.018 65.2453 135.885 66.5923L137.567 65.51ZM136.618 61.7386C136.618 60.3972 136.854 59.3358 137.275 58.5121L135.495 57.6015C134.893 58.7778 134.618 60.171 134.618 61.7386H136.618ZM137.275 58.5121C137.714 57.6542 138.311 56.9687 139.07 56.44L137.927 54.7986C136.891 55.52 136.079 56.4595 135.495 57.6015L137.275 58.5121ZM139.07 56.44C139.864 55.8872 140.791 55.4609 141.863 55.1695L141.339 53.2396C140.07 53.5845 138.929 54.1015 137.927 54.7986L139.07 56.44ZM141.872 55.1671C142.976 54.8562 144.163 54.6449 145.436 54.5361L145.266 52.5434C143.879 52.6619 142.567 52.8938 141.33 53.242L141.872 55.1671ZM145.442 54.5356C146.942 54.3982 148.166 54.2537 149.108 54.1007L148.787 52.1266C147.911 52.269 146.737 52.4086 145.26 52.5439L145.442 54.5356ZM149.12 54.0987C150.07 53.9323 150.904 53.6807 151.495 53.2702L150.354 51.6275C150.127 51.7852 149.643 51.9768 148.775 52.1286L149.12 54.0987ZM151.5 53.2671C152.199 52.7758 152.555 52.0491 152.555 51.2045H150.555C150.555 51.4282 150.492 51.531 150.35 51.6307L151.5 53.2671ZM152.555 51.2045V51.1193H150.555V51.2045H152.555ZM152.555 51.1193C152.555 49.9868 152.15 49.002 151.273 48.3072L150.031 49.8747C150.359 50.1344 150.555 50.5018 150.555 51.1193H152.555ZM151.273 48.3072C150.443 47.6496 149.388 47.375 148.214 47.375V49.375C149.086 49.375 149.656 49.5776 150.031 49.8747L151.273 48.3072ZM148.214 47.375C146.974 47.375 145.864 47.6435 144.975 48.2762L146.135 49.9056C146.587 49.5837 147.251 49.375 148.214 49.375V47.375ZM144.975 48.2762C144.092 48.9051 143.531 49.7845 143.3 50.8568L145.254 51.2795C145.386 50.6701 145.678 50.2312 146.135 49.9056L144.975 48.2762ZM144.312 50.0688L136.625 49.7961L136.554 51.7948L144.242 52.0676L144.312 50.0688ZM137.579 50.9369C137.783 49.5087 138.305 48.2478 139.143 47.1364L137.547 45.9318C136.499 47.3204 135.85 48.9003 135.6 50.654L137.579 50.9369ZM139.143 47.1375C139.979 46.0326 141.139 45.1437 142.662 44.4863L141.869 42.65C140.075 43.4245 138.621 44.5129 137.548 45.9306L139.143 47.1375ZM142.665 44.4851C144.179 43.8258 146.042 43.4773 148.283 43.4773V41.4773C145.842 41.4773 143.693 41.856 141.866 42.6513L142.665 44.4851ZM148.283 43.4773C149.874 43.4773 151.321 43.6667 152.63 44.0363L153.174 42.1115C151.665 41.6856 150.032 41.4773 148.283 41.4773V43.4773ZM152.638 44.0383C153.948 44.3975 155.064 44.9187 156.001 45.5909L157.167 43.9659C156.013 43.1381 154.674 42.523 153.166 42.1095L152.638 44.0383ZM156.007 45.5951C156.93 46.2473 157.628 47.0385 158.119 47.9714L159.889 47.0399C159.244 45.8138 158.329 44.7868 157.161 43.9617L156.007 45.5951ZM158.123 47.9787C158.615 48.8946 158.874 49.9613 158.874 51.2045H160.874C160.874 49.6751 160.553 48.2759 159.885 47.0327L158.123 47.9787ZM158.874 51.2045V69H160.874V51.2045H158.874ZM159.874 68H152.033V70H159.874V68ZM153.033 69V65.3523H151.033V69H153.033ZM152.033 64.3523H151.828V66.3523H152.033V64.3523ZM150.943 64.887C150.534 65.6652 150.017 66.3119 149.393 66.838L150.683 68.3666C151.514 67.6654 152.191 66.8121 152.713 65.8176L150.943 64.887ZM149.388 66.843C148.783 67.3613 148.059 67.759 147.199 68.0289L147.798 69.937C148.893 69.5932 149.862 69.0706 150.689 68.3615L149.388 66.843ZM147.196 68.0299C146.345 68.3001 145.359 68.4432 144.226 68.4432V70.4432C145.525 70.4432 146.72 70.2794 147.801 69.936L147.196 68.0299ZM146.8 64.9886C147.836 64.9886 148.801 64.7777 149.673 64.3348L148.767 62.5516C148.208 62.8359 147.559 62.9886 146.8 62.9886V64.9886ZM149.667 64.3376C150.539 63.9019 151.253 63.2909 151.786 62.5047L150.131 61.3817C149.801 61.8682 149.356 62.2572 148.773 62.5488L149.667 64.3376ZM151.791 62.4979C152.343 61.6704 152.607 60.7234 152.607 59.6932H150.607C150.607 60.3675 150.439 60.9205 150.127 61.3885L151.791 62.4979ZM152.607 59.6932V57.2045H150.607V59.6932H152.607ZM151.143 56.3187C150.975 56.4065 150.748 56.4982 150.45 56.5876L151.025 58.5033C151.408 58.3881 151.761 58.2526 152.071 58.0904L151.143 56.3187ZM150.441 56.5904C150.139 56.6839 149.801 56.7741 149.423 56.8604L149.869 58.8101C150.287 58.7145 150.676 58.6115 151.034 58.5005L150.441 56.5904ZM149.423 56.8604C149.047 56.9463 148.659 57.0218 148.259 57.0868L148.579 59.061C149.02 58.9895 149.45 58.9059 149.869 58.8101L149.423 56.8604ZM148.259 57.0868C147.843 57.1542 147.444 57.216 147.063 57.272L147.354 59.2507C147.746 59.1931 148.154 59.1299 148.579 59.061L148.259 57.0868ZM147.051 57.2738C146.2 57.4095 145.435 57.6249 144.773 57.9357L145.622 59.7461C146.074 59.5342 146.649 59.3632 147.366 59.2489L147.051 57.2738ZM144.765 57.9391C144.093 58.2614 143.528 58.705 143.118 59.2887L144.754 60.4386C144.935 60.1814 145.211 59.9432 145.63 59.7427L144.765 57.9391ZM143.115 59.2932C142.698 59.8927 142.51 60.5872 142.51 61.3295H144.51C144.51 60.9355 144.606 60.6528 144.757 60.434L143.115 59.2932ZM142.51 61.3295C142.51 62.4624 142.931 63.4406 143.835 64.1104L145.026 62.5033C144.703 62.264 144.51 61.9239 144.51 61.3295H142.51ZM143.842 64.1156C144.675 64.7211 145.684 64.9886 146.8 64.9886V62.9886C146.006 62.9886 145.436 62.8016 145.019 62.4981L143.842 64.1156ZM187.828 50.8125L187.855 51.8121L188.913 51.7839L188.825 50.7295L187.828 50.8125ZM180.175 51.017L179.185 51.1614L179.313 52.0404L180.201 52.0167L180.175 51.017ZM179.527 49.5682L178.752 50.2004L178.76 50.2104L179.527 49.5682ZM178.146 48.5625L177.737 49.4748L177.748 49.4798L177.759 49.4845L178.146 48.5625ZM173.732 48.767L173.239 47.897L173.232 47.9006L173.732 48.767ZM172.743 50.3352L173.743 50.3574L173.743 50.3377L173.743 50.318L172.743 50.3352ZM173.357 51.6648L172.691 52.4111L172.701 52.4198L173.357 51.6648ZM175.658 52.5682L175.456 53.5476L175.464 53.5492L175.472 53.5508L175.658 52.5682ZM180.703 53.5227L180.891 52.5405L180.889 52.5402L180.703 53.5227ZM186.533 56.0114L185.859 56.7507L185.863 56.7537L186.533 56.0114ZM188.476 60.6136L189.476 60.62L189.476 60.6077L188.476 60.6136ZM186.874 65.3011L186.091 64.6789L186.087 64.683L186.874 65.3011ZM182.578 68.4034L182.95 69.3319L182.955 69.3299L182.578 68.4034ZM167.493 67.1932L166.909 68.0049L166.914 68.0084L167.493 67.1932ZM163.811 60.9886L163.786 59.9889L162.689 60.0162L162.818 61.1062L163.811 60.9886ZM172.044 60.7841L173.026 60.597L172.868 59.7633L172.019 59.7844L172.044 60.7841ZM173.459 62.9659L174.008 62.13L174.008 62.13L173.459 62.9659ZM178.982 63.1193L178.471 62.2593L178.471 62.2593L178.982 63.1193ZM180.004 61.5341L181.004 61.5513L181.004 61.5331L181.004 61.5149L180.004 61.5341ZM179.22 60.1193L178.641 60.9343L178.647 60.9386L178.653 60.9428L179.22 60.1193ZM176.817 59.267L176.63 60.2494L176.632 60.2499L176.817 59.267ZM172.249 58.3977L172.436 57.4153L172.427 57.4139L172.249 58.3977ZM166.385 55.7557L165.675 56.4597L165.678 56.4628L166.385 55.7557ZM164.476 50.8125L165.476 50.8182L165.476 50.806L164.476 50.8125ZM165.874 46.3295L166.669 46.9354L166.672 46.9319L165.874 46.3295ZM169.896 43.4659L169.542 42.5308L169.542 42.5308L169.896 43.4659ZM184.436 44.7102L183.848 45.5188L183.851 45.5209L184.436 44.7102ZM187.801 49.8129L180.148 50.0174L180.201 52.0167L187.855 51.8121L187.801 49.8129ZM181.164 50.8727C181.058 50.1448 180.765 49.4892 180.294 48.926L178.76 50.2104C178.993 50.488 179.132 50.7984 179.185 51.1614L181.164 50.8727ZM180.302 48.9361C179.835 48.3643 179.236 47.9357 178.534 47.6405L177.759 49.4845C178.193 49.6665 178.514 49.9084 178.752 50.2003L180.302 48.9361ZM178.556 47.6502C177.846 47.3316 177.054 47.1875 176.203 47.1875V49.1875C176.83 49.1875 177.333 49.2934 177.737 49.4748L178.556 47.6502ZM176.203 47.1875C175.104 47.1875 174.102 47.4078 173.239 47.897L174.225 49.6371C174.725 49.3536 175.37 49.1875 176.203 49.1875V47.1875ZM173.232 47.9006C172.312 48.4307 171.724 49.2597 171.743 50.3525L173.743 50.318C173.739 50.0925 173.81 49.8761 174.231 49.6335L173.232 47.9006ZM171.743 50.313C171.725 51.149 172.077 51.8635 172.691 52.4111L174.022 50.9185C173.795 50.7161 173.739 50.5442 173.743 50.3574L171.743 50.313ZM172.701 52.4198C173.336 52.9716 174.319 53.3132 175.456 53.5476L175.86 51.5888C174.792 51.3686 174.24 51.108 174.012 50.9097L172.701 52.4198ZM175.472 53.5508L180.517 54.5053L180.889 52.5402L175.844 51.5856L175.472 53.5508ZM180.515 54.5049C183.039 54.9877 184.778 55.766 185.859 56.7507L187.206 55.272C185.742 53.9385 183.595 53.0578 180.891 52.5405L180.515 54.5049ZM185.863 56.7537C186.915 57.7039 187.466 58.959 187.476 60.6196L189.476 60.6077C189.463 58.4501 188.718 56.637 187.203 55.269L185.863 56.7537ZM187.476 60.6073C187.466 62.1927 187 63.535 186.091 64.6789L187.656 65.9234C188.861 64.4082 189.463 62.6255 189.476 60.62L187.476 60.6073ZM186.087 64.683C185.166 65.8554 183.885 66.7931 182.202 67.4769L182.955 69.3299C184.908 68.5364 186.491 67.406 187.66 65.9193L186.087 64.683ZM182.207 67.4749C180.527 68.1467 178.577 68.4943 176.339 68.4943V70.4943C178.783 70.4943 180.993 70.1147 182.95 69.3319L182.207 67.4749ZM176.339 68.4943C172.726 68.4943 170.005 67.7515 168.072 66.378L166.914 68.0084C169.299 69.703 172.476 70.4943 176.339 70.4943V68.4943ZM168.077 66.3815C166.153 64.9972 165.077 63.179 164.804 60.871L162.818 61.1062C163.158 63.9801 164.537 66.2983 166.909 68.0049L168.077 66.3815ZM163.836 61.9883L172.069 61.7838L172.019 59.7844L163.786 59.9889L163.836 61.9883ZM171.062 60.9712C171.29 62.172 171.906 63.1424 172.91 63.8018L174.008 62.13C173.489 61.7894 173.161 61.3053 173.026 60.597L171.062 60.9712ZM172.91 63.8018C173.876 64.4365 175.054 64.7159 176.374 64.7159V62.7159C175.33 62.7159 174.564 62.4953 174.008 62.13L172.91 63.8018ZM176.374 64.7159C177.558 64.7159 178.62 64.4965 179.492 63.9794L178.471 62.2593C178.002 62.5375 177.326 62.7159 176.374 62.7159V64.7159ZM179.492 63.9794C180.397 63.4425 180.986 62.6255 181.004 61.5513L179.004 61.5169C179 61.7609 178.907 62.0007 178.471 62.2593L179.492 63.9794ZM181.004 61.5149C180.986 60.5831 180.548 59.8199 179.787 59.2958L178.653 60.9428C178.915 61.1232 179 61.3033 179.004 61.5533L181.004 61.5149ZM179.8 59.3044C179.112 58.8153 178.141 58.498 177.001 58.2842L176.632 60.2499C177.674 60.4452 178.306 60.6961 178.641 60.9343L179.8 59.3044ZM177.004 58.2847L172.436 57.4154L172.062 59.3801L176.63 60.2494L177.004 58.2847ZM172.427 57.4139C169.913 56.9568 168.179 56.1359 167.092 55.0486L165.678 56.4628C167.159 57.9437 169.334 58.8841 172.07 59.3816L172.427 57.4139ZM167.095 55.0517C166.017 53.964 165.466 52.5807 165.476 50.8182L163.476 50.8068C163.463 53.0443 164.185 54.9564 165.675 56.4597L167.095 55.0517ZM165.476 50.806C165.466 49.2482 165.876 47.9764 166.669 46.9354L165.078 45.7237C163.984 47.1599 163.463 48.8768 163.476 50.819L165.476 50.806ZM166.672 46.9319C167.482 45.8586 168.655 45.0059 170.251 44.401L169.542 42.5308C167.66 43.2441 166.152 44.3005 165.075 45.7272L166.672 46.9319ZM170.251 44.401C171.85 43.7947 173.776 43.4773 176.05 43.4773V41.4773C173.596 41.4773 171.42 41.8189 169.542 42.5308L170.251 44.401ZM176.05 43.4773C179.466 43.4773 182.03 44.1956 183.848 45.5188L185.025 43.9017C182.752 42.2476 179.724 41.4773 176.05 41.4773V43.4773ZM183.851 45.5209C185.651 46.8214 186.639 48.5854 186.832 50.8955L188.825 50.7295C188.585 47.8578 187.312 45.5536 185.022 43.8995L183.851 45.5209ZM200.915 54.0682L199.915 54.0568V54.0682H200.915ZM200.915 69V70H201.915V69H200.915ZM192.58 69H191.58V70H192.58V69ZM192.58 34.0909V33.0909H191.58V34.0909H192.58ZM200.642 34.0909H201.642V33.0909H200.642V34.0909ZM200.642 47.625H199.642V48.625H200.642V47.625ZM200.932 47.625V48.625H201.631L201.871 47.9689L200.932 47.625ZM203.83 43.8409L203.272 43.011L203.268 43.0132L203.83 43.8409ZM213.597 43.7045L213.082 44.5621L213.087 44.5652L213.597 43.7045ZM216.767 47.1307L215.875 47.5834L215.878 47.5888L216.767 47.1307ZM217.892 52.3125L216.892 52.3068V52.3125H217.892ZM217.892 69V70H218.892V69H217.892ZM209.557 69H208.557V70H209.557V69ZM209.557 53.9489L208.557 53.9411V53.9489H209.557ZM208.466 50.5398L207.724 51.2099L207.724 51.2099L208.466 50.5398ZM203.028 49.892L203.523 50.7612L203.528 50.7585L203.028 49.892ZM201.477 51.5114L200.594 51.0415L200.589 51.0527L201.477 51.5114ZM199.915 54.0682V69H201.915V54.0682H199.915ZM200.915 68H192.58V70H200.915V68ZM193.58 69V34.0909H191.58V69H193.58ZM192.58 35.0909H200.642V33.0909H192.58V35.0909ZM199.642 34.0909V47.625H201.642V34.0909H199.642ZM200.642 48.625H200.932V46.625H200.642V48.625ZM201.871 47.9689C202.394 46.5394 203.234 45.4527 204.391 44.6686L203.268 43.0132C201.743 44.0473 200.651 45.4833 199.993 47.2811L201.871 47.9689ZM204.387 44.6708C205.544 43.8931 206.994 43.4773 208.79 43.4773V41.4773C206.677 41.4773 204.819 41.9705 203.272 43.011L204.387 44.6708ZM208.79 43.4773C210.478 43.4773 211.897 43.851 213.082 44.562L214.111 42.8471C212.569 41.9217 210.783 41.4773 208.79 41.4773V43.4773ZM213.087 44.5652C214.28 45.2706 215.207 46.2676 215.875 47.5834L217.659 46.678C216.827 45.0393 215.641 43.7521 214.106 42.8439L213.087 44.5652ZM215.878 47.5888C216.553 48.8978 216.903 50.4603 216.892 52.3068L218.892 52.3182C218.904 50.2101 218.504 48.3181 217.656 46.6726L215.878 47.5888ZM216.892 52.3125V69H218.892V52.3125H216.892ZM217.892 68H209.557V70H217.892V68ZM210.557 69V53.9489H208.557V69H210.557ZM210.557 53.9567C210.569 52.3337 210.162 50.9266 209.208 49.8697L207.724 51.2099C208.247 51.7894 208.567 52.6549 208.557 53.9411L210.557 53.9567ZM209.208 49.8697C208.24 48.7968 206.904 48.3125 205.347 48.3125V50.3125C206.471 50.3125 207.215 50.6464 207.724 51.2099L209.208 49.8697ZM205.347 48.3125C204.32 48.3125 203.37 48.5408 202.529 49.0256L203.528 50.7585C204.027 50.4706 204.624 50.3125 205.347 50.3125V48.3125ZM202.534 49.0229C201.701 49.4966 201.054 50.179 200.595 51.0415L202.36 51.9812C202.651 51.4346 203.037 51.0375 203.523 50.7612L202.534 49.0229ZM200.589 51.0527C200.137 51.927 199.928 52.9407 199.915 54.0568L201.915 54.0795C201.925 53.1956 202.09 52.5048 202.366 51.97L200.589 51.0527Z" fill="black" fill-opacity="0.2" mask="url(#path-1-outside-1_122_30)"/>
</g>
</g>
<defs>
<filter id="filter0_dd_122_30" x="-2.35791" y="31.4546" width="225.25" height="47.0398" filterUnits="userSpaceOnUse" color-interpolation-filters="sRGB">
<feFlood flood-opacity="0" result="BackgroundImageFix"/>
<feColorMatrix in="SourceAlpha" type="matrix" values="0 0 0 0 0 0 0 0 0 0 0 0 0 0 0 0 0 0 127 0" result="hardAlpha"/>
<feOffset dy="4"/>
<feGaussianBlur stdDeviation="2"/>
<feComposite in2="hardAlpha" operator="out"/>
<feColorMatrix type="matrix" values="0 0 0 0 0 0 0 0 0 0 0 0 0 0 0 0 0 0 0.25 0"/>
<feBlend mode="normal" in2="BackgroundImageFix" result="effect1_dropShadow_122_30"/>
<feColorMatrix in="SourceAlpha" type="matrix" values="0 0 0 0 0 0 0 0 0 0 0 0 0 0 0 0 0 0 127 0" result="hardAlpha"/>
<feOffset dy="4"/>
<feGaussianBlur stdDeviation="2"/>
<feComposite in2="hardAlpha" operator="out"/>
<feColorMatrix type="matrix" values="0 0 0 0 0 0 0 0 0 0 0 0 0 0 0 0 0 0 0.25 0"/>
<feBlend mode="normal" in2="effect1_dropShadow_122_30" result="effect2_dropShadow_122_30"/>
<feBlend mode="normal" in="SourceGraphic" in2="effect2_dropShadow_122_30" result="shape"/>
</filter>
<clipPath id="clip0_122_30">
<rect width="322" height="117" fill="white"/>
</clipPath>
</defs>
</svg>
