<svg width="322" height="117" viewBox="0 0 322 117" fill="none" xmlns="http://www.w3.org/2000/svg">
<g clip-path="url(#clip0_120_9)">
<rect width="322" height="117" fill="white"/>
<g filter="url(#filter0_dd_120_9)">
<mask id="path-1-outside-1_120_9" maskUnits="userSpaceOnUse" x="1" y="32" width="233" height="39" fill="black">
<rect fill="white" x="1" y="32" width="233" height="39"/>
<path d="M2.64205 69V34.0909H11.0795V62.1477H25.6023V69H2.64205ZM37.3509 69.4432C35.6804 69.4432 34.1974 69.1648 32.902 68.608C31.6179 68.0398 30.6009 67.1875 29.8509 66.0511C29.1122 64.9034 28.7429 63.4659 28.7429 61.7386C28.7429 60.2841 28.9986 59.0568 29.5099 58.0568C30.0213 57.0568 30.7259 56.2443 31.6236 55.6193C32.5213 54.9943 33.5554 54.5227 34.7259 54.2045C35.8963 53.875 37.1463 53.6534 38.4759 53.5398C39.9645 53.4034 41.1634 53.2614 42.0724 53.1136C42.9815 52.9545 43.6406 52.733 44.0497 52.4489C44.4702 52.1534 44.6804 51.7386 44.6804 51.2045V51.1193C44.6804 50.2443 44.3793 49.5682 43.777 49.0909C43.1747 48.6136 42.3622 48.375 41.3395 48.375C40.2372 48.375 39.3509 48.6136 38.6804 49.0909C38.0099 49.5682 37.5838 50.2273 37.402 51.0682L29.7145 50.7955C29.9418 49.2045 30.527 47.7841 31.4702 46.5341C32.4247 45.2727 33.7315 44.2841 35.3906 43.5682C37.0611 42.8409 39.0668 42.4773 41.4077 42.4773C43.0781 42.4773 44.6179 42.6761 46.027 43.0739C47.4361 43.4602 48.6634 44.0284 49.7088 44.7784C50.7543 45.517 51.5611 46.4261 52.1293 47.5057C52.7088 48.5852 52.9986 49.8182 52.9986 51.2045V69H45.1577V65.3523H44.9531C44.4872 66.2386 43.8906 66.9886 43.1634 67.6023C42.4474 68.2159 41.6009 68.6761 40.6236 68.983C39.6577 69.2898 38.5668 69.4432 37.3509 69.4432ZM39.9247 63.9886C40.8224 63.9886 41.6293 63.8068 42.3452 63.4432C43.0724 63.0795 43.652 62.5795 44.0838 61.9432C44.5156 61.2955 44.7315 60.5455 44.7315 59.6932V57.2045C44.4929 57.3295 44.2031 57.4432 43.8622 57.5455C43.5327 57.6477 43.169 57.7443 42.7713 57.8352C42.3736 57.9261 41.9645 58.0057 41.544 58.0739C41.1236 58.142 40.7202 58.2045 40.3338 58.2614C39.5497 58.3864 38.8793 58.5795 38.3224 58.8409C37.777 59.1023 37.3565 59.4432 37.0611 59.8636C36.777 60.2727 36.6349 60.7614 36.6349 61.3295C36.6349 62.1932 36.9418 62.8523 37.5554 63.3068C38.1804 63.7614 38.9702 63.9886 39.9247 63.9886ZM80.9531 50.8125L73.2997 51.017C73.2202 50.4716 73.0043 49.9886 72.652 49.5682C72.2997 49.1364 71.8395 48.8011 71.2713 48.5625C70.7145 48.3125 70.0668 48.1875 69.3281 48.1875C68.3622 48.1875 67.5384 48.3807 66.8565 48.767C66.1861 49.1534 65.8565 49.6761 65.8679 50.3352C65.8565 50.8466 66.0611 51.2898 66.4815 51.6648C66.9134 52.0398 67.6804 52.3409 68.7827 52.5682L73.8281 53.5227C76.4418 54.0227 78.3849 54.8523 79.6577 56.0114C80.9418 57.1705 81.5895 58.7045 81.6009 60.6136C81.5895 62.4091 81.0554 63.9716 79.9986 65.3011C78.9531 66.6307 77.5213 67.6648 75.7031 68.4034C73.8849 69.1307 71.8054 69.4943 69.4645 69.4943C65.7259 69.4943 62.777 68.7273 60.6179 67.1932C58.4702 65.6477 57.2429 63.5795 56.9361 60.9886L65.169 60.7841C65.3509 61.7386 65.8224 62.4659 66.5838 62.9659C67.3452 63.4659 68.3168 63.7159 69.4986 63.7159C70.5668 63.7159 71.4361 63.517 72.1065 63.1193C72.777 62.7216 73.1179 62.1932 73.1293 61.5341C73.1179 60.9432 72.8565 60.4716 72.3452 60.1193C71.8338 59.7557 71.0327 59.4716 69.9418 59.267L65.3736 58.3977C62.7486 57.9205 60.794 57.0398 59.5099 55.7557C58.2259 54.4602 57.5895 52.8125 57.6009 50.8125C57.5895 49.0625 58.0554 47.5682 58.9986 46.3295C59.9418 45.0795 61.2827 44.125 63.0213 43.4659C64.7599 42.8068 66.8111 42.4773 69.1747 42.4773C72.7202 42.4773 75.5156 43.2216 77.5611 44.7102C79.6065 46.1875 80.7372 48.2216 80.9531 50.8125ZM94.0398 54.0682V69H85.7045V34.0909H93.767V47.625H94.0568C94.6477 46.0114 95.6136 44.75 96.9545 43.8409C98.3068 42.9318 99.9602 42.4773 101.915 42.4773C103.756 42.4773 105.358 42.8864 106.722 43.7045C108.085 44.5114 109.142 45.6534 109.892 47.1307C110.653 48.608 111.028 50.3352 111.017 52.3125V69H102.682V53.9489C102.693 52.4943 102.33 51.358 101.591 50.5398C100.852 49.7216 99.8125 49.3125 98.4716 49.3125C97.5966 49.3125 96.8239 49.5057 96.1534 49.892C95.4943 50.267 94.9773 50.8068 94.6023 51.5114C94.2386 52.2159 94.0511 53.0682 94.0398 54.0682ZM149.442 45.4943C149.249 44.7784 148.964 44.1477 148.589 43.6023C148.214 43.0455 147.754 42.5739 147.209 42.1875C146.663 41.8011 146.038 41.5114 145.334 41.3182C144.629 41.1136 143.857 41.0114 143.016 41.0114C141.322 41.0114 139.857 41.4205 138.618 42.2386C137.391 43.0568 136.442 44.25 135.771 45.8182C135.101 47.375 134.766 49.267 134.766 51.4943C134.766 53.733 135.089 55.642 135.737 57.2216C136.385 58.8011 137.322 60.0057 138.55 60.8352C139.777 61.6648 141.266 62.0795 143.016 62.0795C144.561 62.0795 145.868 61.8295 146.936 61.3295C148.016 60.8182 148.834 60.0966 149.391 59.1648C149.947 58.233 150.226 57.1364 150.226 55.875L151.794 56.0625H143.305V49.9091H158.357V54.5284C158.357 57.6534 157.692 60.3295 156.362 62.5568C155.044 64.7841 153.226 66.4943 150.908 67.6875C148.601 68.8807 145.947 69.4773 142.947 69.4773C139.618 69.4773 136.692 68.7557 134.169 67.3125C131.646 65.8693 129.68 63.8125 128.271 61.142C126.862 58.4602 126.158 55.2784 126.158 51.5966C126.158 48.733 126.584 46.1932 127.436 43.9773C128.288 41.75 129.476 39.8636 130.999 38.3182C132.533 36.7727 134.305 35.6023 136.317 34.8068C138.339 34.0114 140.516 33.6136 142.845 33.6136C144.868 33.6136 146.749 33.9034 148.487 34.483C150.237 35.0625 151.783 35.8807 153.124 36.9375C154.476 37.9943 155.572 39.25 156.413 40.7045C157.254 42.1591 157.777 43.7557 157.982 45.4943H149.442ZM171.665 34.0909V69H163.33V34.0909H171.665ZM193.862 57.6989V42.8182H202.18V69H194.237V64.125H193.964C193.385 65.7273 192.396 67 190.999 67.9432C189.612 68.875 187.936 69.3409 185.97 69.3409C184.186 69.3409 182.618 68.9318 181.266 68.1136C179.913 67.2955 178.862 66.1534 178.112 64.6875C177.362 63.2102 176.982 61.483 176.97 59.5057V42.8182H185.305V57.8693C185.317 59.2898 185.692 60.4091 186.43 61.2273C187.169 62.0455 188.175 62.4545 189.447 62.4545C190.277 62.4545 191.021 62.2727 191.68 61.9091C192.351 61.5341 192.879 60.9943 193.266 60.2898C193.663 59.5739 193.862 58.7102 193.862 57.6989ZM219.724 69.4943C216.986 69.4943 214.622 68.9545 212.634 67.875C210.656 66.7841 209.134 65.233 208.065 63.2216C207.009 61.1989 206.48 58.7955 206.48 56.0114C206.48 53.3068 207.014 50.9432 208.082 48.9205C209.151 46.8864 210.656 45.3068 212.599 44.1818C214.543 43.0455 216.832 42.4773 219.469 42.4773C221.332 42.4773 223.037 42.767 224.582 43.3466C226.128 43.9261 227.463 44.7841 228.588 45.9205C229.713 47.0568 230.588 48.4602 231.213 50.1307C231.838 51.7898 232.151 53.6932 232.151 55.8409V57.9205H209.395V53.0795H224.395C224.384 52.1932 224.173 51.4034 223.764 50.7102C223.355 50.017 222.793 49.4773 222.077 49.0909C221.372 48.6932 220.56 48.4943 219.639 48.4943C218.707 48.4943 217.872 48.7045 217.134 49.125C216.395 49.5341 215.81 50.0966 215.378 50.8125C214.946 51.517 214.719 52.3182 214.696 53.2159V58.142C214.696 59.2102 214.906 60.1477 215.327 60.9545C215.747 61.75 216.344 62.3693 217.116 62.8125C217.889 63.2557 218.81 63.4773 219.878 63.4773C220.616 63.4773 221.287 63.375 221.889 63.1705C222.491 62.9659 223.009 62.6648 223.44 62.267C223.872 61.8693 224.196 61.3807 224.412 60.8011L232.065 61.0227C231.747 62.7386 231.048 64.233 229.969 65.5057C228.901 66.767 227.497 67.75 225.759 68.4545C224.02 69.1477 222.009 69.4943 219.724 69.4943Z"/>
</mask>
<path d="M2.64205 69V34.0909H11.0795V62.1477H25.6023V69H2.64205ZM37.3509 69.4432C35.6804 69.4432 34.1974 69.1648 32.902 68.608C31.6179 68.0398 30.6009 67.1875 29.8509 66.0511C29.1122 64.9034 28.7429 63.4659 28.7429 61.7386C28.7429 60.2841 28.9986 59.0568 29.5099 58.0568C30.0213 57.0568 30.7259 56.2443 31.6236 55.6193C32.5213 54.9943 33.5554 54.5227 34.7259 54.2045C35.8963 53.875 37.1463 53.6534 38.4759 53.5398C39.9645 53.4034 41.1634 53.2614 42.0724 53.1136C42.9815 52.9545 43.6406 52.733 44.0497 52.4489C44.4702 52.1534 44.6804 51.7386 44.6804 51.2045V51.1193C44.6804 50.2443 44.3793 49.5682 43.777 49.0909C43.1747 48.6136 42.3622 48.375 41.3395 48.375C40.2372 48.375 39.3509 48.6136 38.6804 49.0909C38.0099 49.5682 37.5838 50.2273 37.402 51.0682L29.7145 50.7955C29.9418 49.2045 30.527 47.7841 31.4702 46.5341C32.4247 45.2727 33.7315 44.2841 35.3906 43.5682C37.0611 42.8409 39.0668 42.4773 41.4077 42.4773C43.0781 42.4773 44.6179 42.6761 46.027 43.0739C47.4361 43.4602 48.6634 44.0284 49.7088 44.7784C50.7543 45.517 51.5611 46.4261 52.1293 47.5057C52.7088 48.5852 52.9986 49.8182 52.9986 51.2045V69H45.1577V65.3523H44.9531C44.4872 66.2386 43.8906 66.9886 43.1634 67.6023C42.4474 68.2159 41.6009 68.6761 40.6236 68.983C39.6577 69.2898 38.5668 69.4432 37.3509 69.4432ZM39.9247 63.9886C40.8224 63.9886 41.6293 63.8068 42.3452 63.4432C43.0724 63.0795 43.652 62.5795 44.0838 61.9432C44.5156 61.2955 44.7315 60.5455 44.7315 59.6932V57.2045C44.4929 57.3295 44.2031 57.4432 43.8622 57.5455C43.5327 57.6477 43.169 57.7443 42.7713 57.8352C42.3736 57.9261 41.9645 58.0057 41.544 58.0739C41.1236 58.142 40.7202 58.2045 40.3338 58.2614C39.5497 58.3864 38.8793 58.5795 38.3224 58.8409C37.777 59.1023 37.3565 59.4432 37.0611 59.8636C36.777 60.2727 36.6349 60.7614 36.6349 61.3295C36.6349 62.1932 36.9418 62.8523 37.5554 63.3068C38.1804 63.7614 38.9702 63.9886 39.9247 63.9886ZM80.9531 50.8125L73.2997 51.017C73.2202 50.4716 73.0043 49.9886 72.652 49.5682C72.2997 49.1364 71.8395 48.8011 71.2713 48.5625C70.7145 48.3125 70.0668 48.1875 69.3281 48.1875C68.3622 48.1875 67.5384 48.3807 66.8565 48.767C66.1861 49.1534 65.8565 49.6761 65.8679 50.3352C65.8565 50.8466 66.0611 51.2898 66.4815 51.6648C66.9134 52.0398 67.6804 52.3409 68.7827 52.5682L73.8281 53.5227C76.4418 54.0227 78.3849 54.8523 79.6577 56.0114C80.9418 57.1705 81.5895 58.7045 81.6009 60.6136C81.5895 62.4091 81.0554 63.9716 79.9986 65.3011C78.9531 66.6307 77.5213 67.6648 75.7031 68.4034C73.8849 69.1307 71.8054 69.4943 69.4645 69.4943C65.7259 69.4943 62.777 68.7273 60.6179 67.1932C58.4702 65.6477 57.2429 63.5795 56.9361 60.9886L65.169 60.7841C65.3509 61.7386 65.8224 62.4659 66.5838 62.9659C67.3452 63.4659 68.3168 63.7159 69.4986 63.7159C70.5668 63.7159 71.4361 63.517 72.1065 63.1193C72.777 62.7216 73.1179 62.1932 73.1293 61.5341C73.1179 60.9432 72.8565 60.4716 72.3452 60.1193C71.8338 59.7557 71.0327 59.4716 69.9418 59.267L65.3736 58.3977C62.7486 57.9205 60.794 57.0398 59.5099 55.7557C58.2259 54.4602 57.5895 52.8125 57.6009 50.8125C57.5895 49.0625 58.0554 47.5682 58.9986 46.3295C59.9418 45.0795 61.2827 44.125 63.0213 43.4659C64.7599 42.8068 66.8111 42.4773 69.1747 42.4773C72.7202 42.4773 75.5156 43.2216 77.5611 44.7102C79.6065 46.1875 80.7372 48.2216 80.9531 50.8125ZM94.0398 54.0682V69H85.7045V34.0909H93.767V47.625H94.0568C94.6477 46.0114 95.6136 44.75 96.9545 43.8409C98.3068 42.9318 99.9602 42.4773 101.915 42.4773C103.756 42.4773 105.358 42.8864 106.722 43.7045C108.085 44.5114 109.142 45.6534 109.892 47.1307C110.653 48.608 111.028 50.3352 111.017 52.3125V69H102.682V53.9489C102.693 52.4943 102.33 51.358 101.591 50.5398C100.852 49.7216 99.8125 49.3125 98.4716 49.3125C97.5966 49.3125 96.8239 49.5057 96.1534 49.892C95.4943 50.267 94.9773 50.8068 94.6023 51.5114C94.2386 52.2159 94.0511 53.0682 94.0398 54.0682ZM149.442 45.4943C149.249 44.7784 148.964 44.1477 148.589 43.6023C148.214 43.0455 147.754 42.5739 147.209 42.1875C146.663 41.8011 146.038 41.5114 145.334 41.3182C144.629 41.1136 143.857 41.0114 143.016 41.0114C141.322 41.0114 139.857 41.4205 138.618 42.2386C137.391 43.0568 136.442 44.25 135.771 45.8182C135.101 47.375 134.766 49.267 134.766 51.4943C134.766 53.733 135.089 55.642 135.737 57.2216C136.385 58.8011 137.322 60.0057 138.55 60.8352C139.777 61.6648 141.266 62.0795 143.016 62.0795C144.561 62.0795 145.868 61.8295 146.936 61.3295C148.016 60.8182 148.834 60.0966 149.391 59.1648C149.947 58.233 150.226 57.1364 150.226 55.875L151.794 56.0625H143.305V49.9091H158.357V54.5284C158.357 57.6534 157.692 60.3295 156.362 62.5568C155.044 64.7841 153.226 66.4943 150.908 67.6875C148.601 68.8807 145.947 69.4773 142.947 69.4773C139.618 69.4773 136.692 68.7557 134.169 67.3125C131.646 65.8693 129.68 63.8125 128.271 61.142C126.862 58.4602 126.158 55.2784 126.158 51.5966C126.158 48.733 126.584 46.1932 127.436 43.9773C128.288 41.75 129.476 39.8636 130.999 38.3182C132.533 36.7727 134.305 35.6023 136.317 34.8068C138.339 34.0114 140.516 33.6136 142.845 33.6136C144.868 33.6136 146.749 33.9034 148.487 34.483C150.237 35.0625 151.783 35.8807 153.124 36.9375C154.476 37.9943 155.572 39.25 156.413 40.7045C157.254 42.1591 157.777 43.7557 157.982 45.4943H149.442ZM171.665 34.0909V69H163.33V34.0909H171.665ZM193.862 57.6989V42.8182H202.18V69H194.237V64.125H193.964C193.385 65.7273 192.396 67 190.999 67.9432C189.612 68.875 187.936 69.3409 185.97 69.3409C184.186 69.3409 182.618 68.9318 181.266 68.1136C179.913 67.2955 178.862 66.1534 178.112 64.6875C177.362 63.2102 176.982 61.483 176.97 59.5057V42.8182H185.305V57.8693C185.317 59.2898 185.692 60.4091 186.43 61.2273C187.169 62.0455 188.175 62.4545 189.447 62.4545C190.277 62.4545 191.021 62.2727 191.68 61.9091C192.351 61.5341 192.879 60.9943 193.266 60.2898C193.663 59.5739 193.862 58.7102 193.862 57.6989ZM219.724 69.4943C216.986 69.4943 214.622 68.9545 212.634 67.875C210.656 66.7841 209.134 65.233 208.065 63.2216C207.009 61.1989 206.48 58.7955 206.48 56.0114C206.48 53.3068 207.014 50.9432 208.082 48.9205C209.151 46.8864 210.656 45.3068 212.599 44.1818C214.543 43.0455 216.832 42.4773 219.469 42.4773C221.332 42.4773 223.037 42.767 224.582 43.3466C226.128 43.9261 227.463 44.7841 228.588 45.9205C229.713 47.0568 230.588 48.4602 231.213 50.1307C231.838 51.7898 232.151 53.6932 232.151 55.8409V57.9205H209.395V53.0795H224.395C224.384 52.1932 224.173 51.4034 223.764 50.7102C223.355 50.017 222.793 49.4773 222.077 49.0909C221.372 48.6932 220.56 48.4943 219.639 48.4943C218.707 48.4943 217.872 48.7045 217.134 49.125C216.395 49.5341 215.81 50.0966 215.378 50.8125C214.946 51.517 214.719 52.3182 214.696 53.2159V58.142C214.696 59.2102 214.906 60.1477 215.327 60.9545C215.747 61.75 216.344 62.3693 217.116 62.8125C217.889 63.2557 218.81 63.4773 219.878 63.4773C220.616 63.4773 221.287 63.375 221.889 63.1705C222.491 62.9659 223.009 62.6648 223.44 62.267C223.872 61.8693 224.196 61.3807 224.412 60.8011L232.065 61.0227C231.747 62.7386 231.048 64.233 229.969 65.5057C228.901 66.767 227.497 67.75 225.759 68.4545C224.02 69.1477 222.009 69.4943 219.724 69.4943Z" fill="#002855"/>
<path d="M2.64205 69H1.64205V70H2.64205V69ZM2.64205 34.0909V33.0909H1.64205V34.0909H2.64205ZM11.0795 34.0909H12.0795V33.0909H11.0795V34.0909ZM11.0795 62.1477H10.0795V63.1477H11.0795V62.1477ZM25.6023 62.1477H26.6023V61.1477H25.6023V62.1477ZM25.6023 69V70H26.6023V69H25.6023ZM3.64205 69V34.0909H1.64205V69H3.64205ZM2.64205 35.0909H11.0795V33.0909H2.64205V35.0909ZM10.0795 34.0909V62.1477H12.0795V34.0909H10.0795ZM11.0795 63.1477H25.6023V61.1477H11.0795V63.1477ZM24.6023 62.1477V69H26.6023V62.1477H24.6023ZM25.6023 68H2.64205V70H25.6023V68ZM32.902 68.608L32.4973 69.5225L32.5071 69.5267L32.902 68.608ZM29.8509 66.0511L29.0099 66.5924L29.0162 66.602L29.8509 66.0511ZM29.5099 58.0568L28.6196 57.6015L28.6196 57.6015L29.5099 58.0568ZM31.6236 55.6193L32.1949 56.44L32.1949 56.44L31.6236 55.6193ZM34.7259 54.2045L34.9882 55.1696L34.9969 55.1671L34.7259 54.2045ZM38.4759 53.5398L38.561 54.5362L38.5671 54.5356L38.4759 53.5398ZM42.0724 53.1136L42.2329 54.1008L42.2448 54.0987L42.0724 53.1136ZM44.0497 52.4489L44.6201 53.2702L44.6247 53.2671L44.0497 52.4489ZM43.777 49.0909L44.3981 48.3072L44.3981 48.3072L43.777 49.0909ZM38.6804 49.0909L38.1005 48.2762L38.1005 48.2762L38.6804 49.0909ZM37.402 51.0682L37.3665 52.0676L38.2026 52.0972L38.3794 51.2795L37.402 51.0682ZM29.7145 50.7955L28.7245 50.654L28.5672 51.7554L29.679 51.7948L29.7145 50.7955ZM31.4702 46.5341L30.6728 45.9306L30.6719 45.9318L31.4702 46.5341ZM35.3906 43.5682L35.7868 44.4864L35.7898 44.4851L35.3906 43.5682ZM46.027 43.0739L45.7553 44.0363L45.7626 44.0383L46.027 43.0739ZM49.7088 44.7784L49.1259 45.591L49.1318 45.5951L49.7088 44.7784ZM52.1293 47.5057L51.2443 47.9714L51.2482 47.9787L52.1293 47.5057ZM52.9986 69V70H53.9986V69H52.9986ZM45.1577 69H44.1577V70H45.1577V69ZM45.1577 65.3523H46.1577V64.3523H45.1577V65.3523ZM44.9531 65.3523V64.3523H44.349L44.068 64.887L44.9531 65.3523ZM43.1634 67.6023L42.5185 66.838L42.5126 66.843L43.1634 67.6023ZM40.6236 68.983L40.324 68.0289L40.3208 68.0299L40.6236 68.983ZM42.3452 63.4432L41.8979 62.5487L41.8923 62.5516L42.3452 63.4432ZM44.0838 61.9432L44.9113 62.5047L44.9159 62.4979L44.0838 61.9432ZM44.7315 57.2045H45.7315V55.5519L44.2675 56.3187L44.7315 57.2045ZM43.8622 57.5455L43.5749 56.5876L43.5658 56.5904L43.8622 57.5455ZM41.544 58.0739L41.7041 59.061L41.7041 59.061L41.544 58.0739ZM40.3338 58.2614L40.1883 57.2719L40.1764 57.2738L40.3338 58.2614ZM38.3224 58.8409L37.8975 57.9356L37.8903 57.9391L38.3224 58.8409ZM37.0611 59.8636L36.2429 59.2887L36.2397 59.2932L37.0611 59.8636ZM37.5554 63.3068L36.9601 64.1104L36.9672 64.1156L37.5554 63.3068ZM37.3509 68.4432C35.7915 68.4432 34.4468 68.1835 33.2969 67.6892L32.5071 69.5267C33.9481 70.1461 35.5693 70.4432 37.3509 70.4432V68.4432ZM33.3066 67.6935C32.1919 67.2003 31.3265 66.4716 30.6855 65.5003L29.0162 66.602C29.8752 67.9034 31.0439 68.8793 32.4974 69.5224L33.3066 67.6935ZM30.6918 65.51C30.0814 64.5615 29.7429 63.3246 29.7429 61.7386H27.7429C27.7429 63.6072 28.1431 65.2453 29.0099 66.5923L30.6918 65.51ZM29.7429 61.7386C29.7429 60.3972 29.9791 59.3358 30.4003 58.5121L28.6196 57.6015C28.0181 58.7778 27.7429 60.171 27.7429 61.7386H29.7429ZM30.4003 58.5121C30.839 57.6542 31.4356 56.9687 32.1949 56.44L31.0522 54.7986C30.0161 55.52 29.2036 56.4595 28.6196 57.6015L30.4003 58.5121ZM32.1949 56.44C32.989 55.8872 33.9163 55.4609 34.9882 55.1695L34.4635 53.2396C33.1945 53.5845 32.0536 54.1015 31.0522 54.7986L32.1949 56.44ZM34.9969 55.1671C36.101 54.8562 37.2883 54.6449 38.561 54.5361L38.3907 52.5434C37.0043 52.6619 35.6916 52.8938 34.4548 53.242L34.9969 55.1671ZM38.5671 54.5356C40.0665 54.3982 41.2912 54.2537 42.2328 54.1007L41.912 52.1266C41.0355 52.269 39.8624 52.4086 38.3846 52.5439L38.5671 54.5356ZM42.2448 54.0987C43.1953 53.9323 44.0291 53.6807 44.6201 53.2702L43.4793 51.6275C43.2522 51.7852 42.7678 51.9768 41.9001 52.1286L42.2448 54.0987ZM44.6247 53.2671C45.3238 52.7758 45.6804 52.0491 45.6804 51.2045H43.6804C43.6804 51.4282 43.6166 51.531 43.4748 51.6307L44.6247 53.2671ZM45.6804 51.2045V51.1193H43.6804V51.2045H45.6804ZM45.6804 51.1193C45.6804 49.9868 45.2749 49.002 44.3981 48.3072L43.1559 49.8747C43.4836 50.1344 43.6804 50.5018 43.6804 51.1193H45.6804ZM44.3981 48.3072C43.5683 47.6496 42.5131 47.375 41.3395 47.375V49.375C42.2114 49.375 42.7811 49.5776 43.1559 49.8747L44.3981 48.3072ZM41.3395 47.375C40.0989 47.375 38.9893 47.6435 38.1005 48.2762L39.2603 49.9056C39.7125 49.5837 40.3756 49.375 41.3395 49.375V47.375ZM38.1005 48.2762C37.2171 48.9051 36.6564 49.7845 36.4246 50.8568L38.3794 51.2795C38.5112 50.6701 38.8028 50.2312 39.2603 49.9056L38.1005 48.2762ZM37.4374 50.0688L29.7499 49.7961L29.679 51.7948L37.3665 52.0676L37.4374 50.0688ZM30.7044 50.9369C30.9085 49.5087 31.4298 48.2478 32.2684 47.1364L30.6719 45.9318C29.6241 47.3204 28.9751 48.9003 28.7245 50.654L30.7044 50.9369ZM32.2676 47.1375C33.1037 46.0326 34.2635 45.1437 35.7868 44.4863L34.9944 42.65C33.1996 43.4245 31.7457 44.5129 30.6728 45.9306L32.2676 47.1375ZM35.7898 44.4851C37.3039 43.8258 39.1666 43.4773 41.4077 43.4773V41.4773C38.967 41.4773 36.8182 41.856 34.9914 42.6513L35.7898 44.4851ZM41.4077 43.4773C42.9989 43.4773 44.4461 43.6667 45.7553 44.0363L46.2986 42.1115C44.7897 41.6856 43.1573 41.4773 41.4077 41.4773V43.4773ZM45.7626 44.0383C47.0727 44.3975 48.1889 44.9187 49.1259 45.5909L50.2917 43.9659C49.1378 43.1381 47.7995 42.523 46.2914 42.1095L45.7626 44.0383ZM49.1318 45.5951C50.0549 46.2473 50.7533 47.0385 51.2443 47.9714L53.0142 47.0399C52.3689 45.8138 51.4536 44.7868 50.2858 43.9617L49.1318 45.5951ZM51.2482 47.9787C51.7399 48.8946 51.9986 49.9613 51.9986 51.2045H53.9986C53.9986 49.6751 53.6777 48.2759 53.0103 47.0327L51.2482 47.9787ZM51.9986 51.2045V69H53.9986V51.2045H51.9986ZM52.9986 68H45.1577V70H52.9986V68ZM46.1577 69V65.3523H44.1577V69H46.1577ZM45.1577 64.3523H44.9531V66.3523H45.1577V64.3523ZM44.068 64.887C43.6589 65.6652 43.142 66.3119 42.5185 66.838L43.8082 68.3666C44.6392 67.6654 45.3155 66.8121 45.8383 65.8176L44.068 64.887ZM42.5126 66.843C41.9079 67.3613 41.1835 67.759 40.324 68.0289L40.9231 69.937C42.0182 69.5932 42.9869 69.0706 43.8141 68.3615L42.5126 66.843ZM40.3208 68.0299C39.4701 68.3001 38.4839 68.4432 37.3509 68.4432V70.4432C38.6496 70.4432 39.8452 70.2794 40.9263 69.936L40.3208 68.0299ZM39.9247 64.9886C40.961 64.9886 41.926 64.7777 42.798 64.3348L41.8923 62.5516C41.3326 62.8359 40.6839 62.9886 39.9247 62.9886V64.9886ZM42.7924 64.3376C43.6637 63.9019 44.3778 63.2909 44.9113 62.5047L43.2563 61.3817C42.9262 61.8682 42.4812 62.2572 41.898 62.5488L42.7924 64.3376ZM44.9159 62.4979C45.4675 61.6704 45.7315 60.7234 45.7315 59.6932H43.7315C43.7315 60.3675 43.5637 60.9205 43.2518 61.3885L44.9159 62.4979ZM45.7315 59.6932V57.2045H43.7315V59.6932H45.7315ZM44.2675 56.3187C44.1 56.4065 43.8729 56.4982 43.5749 56.5876L44.1496 58.5033C44.5333 58.3881 44.8858 58.2526 45.1955 58.0904L44.2675 56.3187ZM43.5658 56.5904C43.2644 56.6839 42.9258 56.7741 42.5485 56.8604L42.9941 58.8101C43.4123 58.7145 43.8009 58.6115 44.1586 58.5005L43.5658 56.5904ZM42.5485 56.8604C42.1724 56.9463 41.7843 57.0218 41.384 57.0868L41.7041 59.061C42.1447 58.9895 42.5747 58.9059 42.9941 58.8101L42.5485 56.8604ZM41.384 57.0868C40.9679 57.1542 40.5694 57.216 40.1883 57.272L40.4793 59.2507C40.8709 59.1931 41.2792 59.1299 41.7041 59.061L41.384 57.0868ZM40.1764 57.2738C39.3251 57.4095 38.5597 57.6249 37.8975 57.9357L38.7474 59.7461C39.1988 59.5342 39.7744 59.3632 40.4912 59.2489L40.1764 57.2738ZM37.8903 57.9391C37.2178 58.2614 36.653 58.705 36.2429 59.2887L37.8793 60.4386C38.06 60.1814 38.3362 59.9432 38.7546 59.7427L37.8903 57.9391ZM36.2397 59.2932C35.8234 59.8927 35.6349 60.5872 35.6349 61.3295H37.6349C37.6349 60.9355 37.7305 60.6528 37.8824 60.434L36.2397 59.2932ZM35.6349 61.3295C35.6349 62.4624 36.056 63.4406 36.9602 64.1104L38.1506 62.5033C37.8276 62.264 37.6349 61.9239 37.6349 61.3295H35.6349ZM36.9672 64.1156C37.7999 64.7211 38.8093 64.9886 39.9247 64.9886V62.9886C39.1311 62.9886 38.5609 62.8016 38.1436 62.4981L36.9672 64.1156ZM80.9531 50.8125L80.9798 51.8121L82.0375 51.7839L81.9497 50.7295L80.9531 50.8125ZM73.2997 51.017L72.3102 51.1614L72.4384 52.0404L73.3264 52.0167L73.2997 51.017ZM72.652 49.5682L71.8771 50.2004L71.8855 50.2104L72.652 49.5682ZM71.2713 48.5625L70.8617 49.4748L70.8728 49.4798L70.8841 49.4845L71.2713 48.5625ZM66.8565 48.767L66.3635 47.897L66.3572 47.9006L66.8565 48.767ZM65.8679 50.3352L66.8677 50.3574L66.8681 50.3377L66.8677 50.318L65.8679 50.3352ZM66.4815 51.6648L65.8159 52.4111L65.8258 52.4198L66.4815 51.6648ZM68.7827 52.5682L68.5807 53.5476L68.5887 53.5492L68.5968 53.5508L68.7827 52.5682ZM73.8281 53.5227L74.016 52.5405L74.014 52.5402L73.8281 53.5227ZM79.6577 56.0114L78.9843 56.7507L78.9876 56.7537L79.6577 56.0114ZM81.6009 60.6136L82.6009 60.62L82.6008 60.6077L81.6009 60.6136ZM79.9986 65.3011L79.2157 64.6789L79.2125 64.683L79.9986 65.3011ZM75.7031 68.4034L76.0745 69.3319L76.0795 69.3299L75.7031 68.4034ZM60.6179 67.1932L60.0338 68.0049L60.0387 68.0084L60.6179 67.1932ZM56.9361 60.9886L56.9112 59.9889L55.8139 60.0162L55.943 61.1062L56.9361 60.9886ZM65.169 60.7841L66.1514 60.597L65.9926 59.7633L65.1442 59.7844L65.169 60.7841ZM66.5838 62.9659L67.1327 62.13L67.1327 62.13L66.5838 62.9659ZM72.1065 63.1193L71.5963 62.2593L71.5963 62.2593L72.1065 63.1193ZM73.1293 61.5341L74.1291 61.5513L74.1294 61.5331L74.1291 61.5149L73.1293 61.5341ZM72.3452 60.1193L71.7656 60.9343L71.7717 60.9386L71.7779 60.9428L72.3452 60.1193ZM69.9418 59.267L69.7548 60.2494L69.7575 60.2499L69.9418 59.267ZM65.3736 58.3977L65.5605 57.4153L65.5525 57.4139L65.3736 58.3977ZM59.5099 55.7557L58.7997 56.4597L58.8028 56.4628L59.5099 55.7557ZM57.6009 50.8125L58.6009 50.8182L58.6008 50.806L57.6009 50.8125ZM58.9986 46.3295L59.7942 46.9354L59.7968 46.9319L58.9986 46.3295ZM63.0213 43.4659L62.6668 42.5308L62.6668 42.5308L63.0213 43.4659ZM77.5611 44.7102L76.9726 45.5188L76.9756 45.5209L77.5611 44.7102ZM80.9264 49.8129L73.273 50.0174L73.3264 52.0167L80.9798 51.8121L80.9264 49.8129ZM74.2892 50.8727C74.1831 50.1448 73.8905 49.4892 73.4185 48.926L71.8855 50.2104C72.1181 50.488 72.2572 50.7984 72.3102 51.1614L74.2892 50.8727ZM73.4269 48.9361C72.9604 48.3643 72.3614 47.9357 71.6585 47.6405L70.8841 49.4845C71.3175 49.6665 71.639 49.9084 71.8771 50.2003L73.4269 48.9361ZM71.6809 47.6502C70.9711 47.3316 70.1789 47.1875 69.3281 47.1875V49.1875C69.9547 49.1875 70.4578 49.2934 70.8617 49.4748L71.6809 47.6502ZM69.3281 47.1875C68.2292 47.1875 67.2269 47.4078 66.3635 47.897L67.3495 49.6371C67.8498 49.3536 68.4952 49.1875 69.3281 49.1875V47.1875ZM66.3572 47.9006C65.4373 48.4307 64.8492 49.2597 64.868 50.3525L66.8677 50.318C66.8639 50.0925 66.9348 49.8761 67.3558 49.6335L66.3572 47.9006ZM64.8681 50.313C64.8496 51.149 65.2019 51.8635 65.8159 52.4111L67.1471 50.9185C66.9202 50.7161 66.8635 50.5442 66.8677 50.3574L64.8681 50.313ZM65.8258 52.4198C66.4612 52.9716 67.4439 53.3132 68.5807 53.5476L68.9846 51.5888C67.9169 51.3686 67.3655 51.108 67.1372 50.9097L65.8258 52.4198ZM68.5968 53.5508L73.6422 54.5053L74.014 52.5402L68.9686 51.5856L68.5968 53.5508ZM73.6402 54.5049C76.1637 54.9877 77.9031 55.766 78.9843 56.7507L80.331 55.272C78.8668 53.9385 76.7199 53.0578 74.016 52.5405L73.6402 54.5049ZM78.9876 56.7537C80.0403 57.7039 80.591 58.959 80.6009 60.6196L82.6008 60.6077C82.588 58.4501 81.8432 56.637 80.3277 55.269L78.9876 56.7537ZM80.6009 60.6073C80.5908 62.1927 80.125 63.535 79.2158 64.6789L80.7814 65.9234C81.9858 64.4082 82.5881 62.6255 82.6008 60.62L80.6009 60.6073ZM79.2125 64.683C78.2906 65.8554 77.01 66.7931 75.3267 67.4769L76.0795 69.3299C78.0326 68.5364 79.6156 67.406 80.7847 65.9193L79.2125 64.683ZM75.3317 67.4749C73.6523 68.1467 71.7025 68.4943 69.4645 68.4943V70.4943C71.9083 70.4943 74.1176 70.1147 76.0745 69.3319L75.3317 67.4749ZM69.4645 68.4943C65.8508 68.4943 63.1302 67.7515 61.1971 66.378L60.0387 68.0084C62.4237 69.703 65.6009 70.4943 69.4645 70.4943V68.4943ZM61.202 66.3815C59.2782 64.9972 58.2025 63.179 57.9291 60.871L55.943 61.1062C56.2833 63.9801 57.6621 66.2983 60.0338 68.0049L61.202 66.3815ZM56.9609 61.9883L65.1939 61.7838L65.1442 59.7844L56.9112 59.9889L56.9609 61.9883ZM64.1867 60.9712C64.4154 62.172 65.0309 63.1424 66.0349 63.8018L67.1327 62.13C66.614 61.7894 66.2863 61.3053 66.1514 60.597L64.1867 60.9712ZM66.0349 63.8018C67.0014 64.4365 68.179 64.7159 69.4986 64.7159V62.7159C68.4545 62.7159 67.689 62.4953 67.1327 62.13L66.0349 63.8018ZM69.4986 64.7159C70.6825 64.7159 71.7449 64.4965 72.6167 63.9794L71.5963 62.2593C71.1272 62.5375 70.451 62.7159 69.4986 62.7159V64.7159ZM72.6167 63.9794C73.5217 63.4425 74.1106 62.6255 74.1291 61.5513L72.1294 61.5169C72.1252 61.7609 72.0322 62.0007 71.5963 62.2593L72.6167 63.9794ZM74.1291 61.5149C74.1112 60.5831 73.6733 59.8199 72.9125 59.2958L71.7779 60.9428C72.0398 61.1232 72.1246 61.3033 72.1294 61.5533L74.1291 61.5149ZM72.9247 59.3044C72.2369 58.8153 71.2662 58.498 70.1261 58.2842L69.7575 60.2499C70.7991 60.4452 71.4307 60.6961 71.7656 60.9343L72.9247 59.3044ZM70.1287 58.2847L65.5605 57.4154L65.1866 59.3801L69.7548 60.2494L70.1287 58.2847ZM65.5525 57.4139C63.0384 56.9568 61.3043 56.1359 60.2171 55.0486L58.8028 56.4628C60.2837 57.9437 62.4587 58.8841 65.1947 59.3816L65.5525 57.4139ZM60.2202 55.0517C59.142 53.964 58.5908 52.5807 58.6008 50.8182L56.6009 50.8068C56.5882 53.0443 57.3097 54.9564 58.7997 56.4597L60.2202 55.0517ZM58.6008 50.806C58.5907 49.2482 59.0014 47.9764 59.7942 46.9354L58.203 45.7237C57.1094 47.1599 56.5883 48.8768 56.6009 50.819L58.6008 50.806ZM59.7968 46.9319C60.6066 45.8586 61.78 45.0059 63.3758 44.401L62.6668 42.5308C60.7853 43.2441 59.2769 44.3005 58.2003 45.7272L59.7968 46.9319ZM63.3758 44.401C64.9751 43.7947 66.9008 43.4773 69.1747 43.4773V41.4773C66.7214 41.4773 64.5448 41.8189 62.6668 42.5308L63.3758 44.401ZM69.1747 43.4773C72.5912 43.4773 75.1546 44.1956 76.9726 45.5188L78.1495 43.9017C75.8767 42.2476 72.8491 41.4773 69.1747 41.4773V43.4773ZM76.9756 45.5209C78.7763 46.8214 79.7641 48.5854 79.9566 50.8955L81.9497 50.7295C81.7104 47.8578 80.4368 45.5536 78.1466 43.8995L76.9756 45.5209ZM94.0398 54.0682L93.0398 54.0568V54.0682H94.0398ZM94.0398 69V70H95.0398V69H94.0398ZM85.7045 69H84.7045V70H85.7045V69ZM85.7045 34.0909V33.0909H84.7045V34.0909H85.7045ZM93.767 34.0909H94.767V33.0909H93.767V34.0909ZM93.767 47.625H92.767V48.625H93.767V47.625ZM94.0568 47.625V48.625H94.7556L94.9958 47.9689L94.0568 47.625ZM96.9545 43.8409L96.3966 43.011L96.3934 43.0132L96.9545 43.8409ZM106.722 43.7045L106.207 44.5621L106.212 44.5652L106.722 43.7045ZM109.892 47.1307L109 47.5834L109.003 47.5888L109.892 47.1307ZM111.017 52.3125L110.017 52.3068V52.3125H111.017ZM111.017 69V70H112.017V69H111.017ZM102.682 69H101.682V70H102.682V69ZM102.682 53.9489L101.682 53.9411V53.9489H102.682ZM101.591 50.5398L100.849 51.2099L100.849 51.2099L101.591 50.5398ZM96.1534 49.892L96.6479 50.7612L96.6527 50.7585L96.1534 49.892ZM94.6023 51.5114L93.7195 51.0415L93.7137 51.0527L94.6023 51.5114ZM93.0398 54.0682V69H95.0398V54.0682H93.0398ZM94.0398 68H85.7045V70H94.0398V68ZM86.7045 69V34.0909H84.7045V69H86.7045ZM85.7045 35.0909H93.767V33.0909H85.7045V35.0909ZM92.767 34.0909V47.625H94.767V34.0909H92.767ZM93.767 48.625H94.0568V46.625H93.767V48.625ZM94.9958 47.9689C95.5193 46.5394 96.3592 45.4527 97.5157 44.6686L96.3934 43.0132C94.868 44.0473 93.7762 45.4833 93.1178 47.2811L94.9958 47.9689ZM97.5125 44.6708C98.6693 43.8931 100.119 43.4773 101.915 43.4773V41.4773C99.8018 41.4773 97.9444 41.9705 96.3966 43.011L97.5125 44.6708ZM101.915 43.4773C103.603 43.4773 105.022 43.851 106.207 44.562L107.236 42.8471C105.694 41.9217 103.908 41.4773 101.915 41.4773V43.4773ZM106.212 44.5652C107.405 45.2706 108.332 46.2676 109 47.5834L110.784 46.678C109.952 45.0393 108.766 43.7521 107.231 42.8439L106.212 44.5652ZM109.003 47.5888C109.678 48.8978 110.028 50.4603 110.017 52.3068L112.017 52.3182C112.029 50.2101 111.629 48.3181 110.781 46.6726L109.003 47.5888ZM110.017 52.3125V69H112.017V52.3125H110.017ZM111.017 68H102.682V70H111.017V68ZM103.682 69V53.9489H101.682V69H103.682ZM103.682 53.9567C103.694 52.3337 103.287 50.9266 102.333 49.8697L100.849 51.2099C101.372 51.7894 101.692 52.6549 101.682 53.9411L103.682 53.9567ZM102.333 49.8697C101.365 48.7968 100.029 48.3125 98.4716 48.3125V50.3125C99.5959 50.3125 100.34 50.6464 100.849 51.2099L102.333 49.8697ZM98.4716 48.3125C97.4447 48.3125 96.4954 48.5408 95.6541 49.0256L96.6527 50.7585C97.1523 50.4706 97.7485 50.3125 98.4716 50.3125V48.3125ZM95.6589 49.0229C94.8263 49.4966 94.1786 50.179 93.7195 51.0415L95.485 51.9812C95.7759 51.4346 96.1623 51.0375 96.6479 50.7612L95.6589 49.0229ZM93.7137 51.0527C93.2624 51.927 93.0525 52.9407 93.0398 54.0568L95.0397 54.0795C95.0498 53.1956 95.2149 52.5048 95.4909 51.97L93.7137 51.0527ZM149.442 45.4943L148.476 45.7548L148.676 46.4943H149.442V45.4943ZM148.589 43.6023L147.76 44.1609L147.765 44.1688L148.589 43.6023ZM145.334 41.3182L145.055 42.2785L145.062 42.2806L145.069 42.2826L145.334 41.3182ZM138.618 42.2386L138.067 41.4042L138.063 41.4066L138.618 42.2386ZM135.771 45.8182L136.69 46.2137L136.691 46.2113L135.771 45.8182ZM135.737 57.2216L136.662 56.8422L136.662 56.8422L135.737 57.2216ZM138.55 60.8352L139.11 60.0067L139.11 60.0067L138.55 60.8352ZM146.936 61.3295L147.36 62.2352L147.364 62.2333L146.936 61.3295ZM149.391 59.1648L148.532 58.6518L148.532 58.6518L149.391 59.1648ZM150.226 55.875L150.345 54.8821L149.226 54.7483V55.875H150.226ZM151.794 56.0625V57.0625L151.913 55.0696L151.794 56.0625ZM143.305 56.0625H142.305V57.0625H143.305V56.0625ZM143.305 49.9091V48.9091H142.305V49.9091H143.305ZM158.357 49.9091H159.357V48.9091H158.357V49.9091ZM156.362 62.5568L155.504 62.0443L155.502 62.0475L156.362 62.5568ZM150.908 67.6875L150.45 66.7984L150.448 66.7993L150.908 67.6875ZM134.169 67.3125L134.666 66.4445L134.666 66.4445L134.169 67.3125ZM128.271 61.142L127.386 61.6072L127.387 61.6087L128.271 61.142ZM127.436 43.9773L128.369 44.3363L128.37 44.3347L127.436 43.9773ZM130.999 38.3182L130.289 37.6137L130.286 37.6163L130.999 38.3182ZM136.317 34.8068L135.951 33.8762L135.949 33.8769L136.317 34.8068ZM148.487 34.483L148.171 35.4316L148.173 35.4323L148.487 34.483ZM153.124 36.9375L152.505 37.7229L152.508 37.7254L153.124 36.9375ZM156.413 40.7045L155.548 41.205L155.548 41.205L156.413 40.7045ZM157.982 45.4943V46.4943H159.106L158.975 45.3775L157.982 45.4943ZM150.407 45.2338C150.188 44.4216 149.86 43.685 149.414 43.0357L147.765 44.1688C148.069 44.6105 148.309 45.1352 148.476 45.7548L150.407 45.2338ZM149.419 43.0437C148.977 42.387 148.431 41.828 147.787 41.3715L146.631 43.0035C147.077 43.3197 147.452 43.7039 147.76 44.1609L149.419 43.0437ZM147.787 41.3715C147.138 40.9118 146.405 40.5749 145.598 40.3538L145.069 42.2826C145.672 42.4478 146.189 42.6905 146.631 43.0035L147.787 41.3715ZM145.613 40.3578C144.805 40.1235 143.937 40.0114 143.016 40.0114V42.0114C143.776 42.0114 144.453 42.1038 145.055 42.2785L145.613 40.3578ZM143.016 40.0114C141.155 40.0114 139.491 40.4634 138.067 41.4042L139.169 43.073C140.222 42.3775 141.49 42.0114 143.016 42.0114V40.0114ZM138.063 41.4066C136.65 42.3486 135.586 43.7068 134.852 45.4251L136.691 46.2113C137.297 44.7932 138.131 43.7651 139.173 43.0707L138.063 41.4066ZM134.853 45.4226C134.115 47.137 133.766 49.1717 133.766 51.4943H135.766C135.766 49.3624 136.087 47.613 136.69 46.2137L134.853 45.4226ZM133.766 51.4943C133.766 53.8246 134.102 55.8699 134.812 57.601L136.662 56.8422C136.077 55.4142 135.766 53.6413 135.766 51.4943H133.766ZM134.812 57.601C135.523 59.3344 136.575 60.7076 137.99 61.6637L139.11 60.0067C138.07 59.3037 137.247 58.2679 136.662 56.8422L134.812 57.601ZM137.99 61.6637C139.411 62.6241 141.103 63.0795 143.016 63.0795V61.0795C141.428 61.0795 140.143 60.7055 139.11 60.0067L137.99 61.6637ZM143.016 63.0795C144.664 63.0795 146.125 62.8135 147.36 62.2352L146.512 60.4239C145.611 60.8456 144.458 61.0795 143.016 61.0795V63.0795ZM147.364 62.2333C148.604 61.646 149.581 60.7965 150.249 59.6777L148.532 58.6518C148.087 59.3967 147.427 59.9904 146.508 60.4258L147.364 62.2333ZM150.249 59.6777C150.913 58.5672 151.226 57.2873 151.226 55.875H149.226C149.226 56.9854 148.982 57.8987 148.532 58.6518L150.249 59.6777ZM150.107 56.8679L151.675 57.0554L151.913 55.0696L150.345 54.8821L150.107 56.8679ZM151.794 55.0625H143.305V57.0625H151.794V55.0625ZM144.305 56.0625V49.9091H142.305V56.0625H144.305ZM143.305 50.9091H158.357V48.9091H143.305V50.9091ZM157.357 49.9091V54.5284H159.357V49.9091H157.357ZM157.357 54.5284C157.357 57.51 156.723 60.0009 155.504 62.0443L157.221 63.0694C158.66 60.6581 159.357 57.7968 159.357 54.5284H157.357ZM155.502 62.0475C154.28 64.1115 152.602 65.6907 150.45 66.7984L151.365 68.5766C153.85 67.298 155.808 65.4567 157.223 63.0661L155.502 62.0475ZM150.448 66.7993C148.304 67.9084 145.812 68.4773 142.947 68.4773V70.4773C146.082 70.4773 148.898 69.853 151.367 68.5757L150.448 66.7993ZM142.947 68.4773C139.766 68.4773 137.016 67.7892 134.666 66.4445L133.672 68.1805C136.367 69.7221 139.469 70.4773 142.947 70.4773V68.4773ZM134.666 66.4445C132.314 65.0994 130.48 63.1848 129.156 60.6754L127.387 61.6087C128.881 64.4402 130.978 66.6393 133.672 68.1805L134.666 66.4445ZM129.157 60.6769C127.837 58.1663 127.158 55.1509 127.158 51.5966H125.158C125.158 55.4059 125.887 58.7542 127.386 61.6072L129.157 60.6769ZM127.158 51.5966C127.158 48.8311 127.569 46.4167 128.369 44.3363L126.503 43.6183C125.598 45.9697 125.158 48.6348 125.158 51.5966H127.158ZM128.37 44.3347C129.178 42.2234 130.294 40.4578 131.711 39.02L130.286 37.6163C128.657 39.2695 127.399 41.2766 126.502 43.6199L128.37 44.3347ZM131.708 39.0227C133.146 37.5745 134.802 36.4811 136.685 35.7367L135.949 33.8769C133.808 34.7235 131.919 35.971 130.289 37.6137L131.708 39.0227ZM136.683 35.7374C138.581 34.991 140.632 34.6136 142.845 34.6136V32.6136C140.399 32.6136 138.098 33.0317 135.951 33.8762L136.683 35.7374ZM142.845 34.6136C144.771 34.6136 146.544 34.8894 148.171 35.4316L148.803 33.5343C146.953 32.9174 144.964 32.6136 142.845 32.6136V34.6136ZM148.173 35.4323C149.821 35.9782 151.262 36.7435 152.505 37.7229L153.743 36.1521C152.303 35.0178 150.653 34.1468 148.802 33.5337L148.173 35.4323ZM152.508 37.7254C153.761 38.7051 154.772 39.8639 155.548 41.205L157.279 40.204C156.373 38.6361 155.19 37.2836 153.739 36.1496L152.508 37.7254ZM155.548 41.205C156.318 42.5368 156.799 44.002 156.988 45.6112L158.975 45.3775C158.755 43.5094 158.191 41.7814 157.279 40.204L155.548 41.205ZM157.982 44.4943H149.442V46.4943H157.982V44.4943ZM171.665 34.0909H172.665V33.0909H171.665V34.0909ZM171.665 69V70H172.665V69H171.665ZM163.33 69H162.33V70H163.33V69ZM163.33 34.0909V33.0909H162.33V34.0909H163.33ZM170.665 34.0909V69H172.665V34.0909H170.665ZM171.665 68H163.33V70H171.665V68ZM164.33 69V34.0909H162.33V69H164.33ZM163.33 35.0909H171.665V33.0909H163.33V35.0909ZM193.862 42.8182V41.8182H192.862V42.8182H193.862ZM202.18 42.8182H203.18V41.8182H202.18V42.8182ZM202.18 69V70H203.18V69H202.18ZM194.237 69H193.237V70H194.237V69ZM194.237 64.125H195.237V63.125H194.237V64.125ZM193.964 64.125V63.125H193.263L193.024 63.7849L193.964 64.125ZM190.999 67.9432L191.556 68.7731L191.558 68.7721L190.999 67.9432ZM181.266 68.1136L180.748 68.9692L180.748 68.9692L181.266 68.1136ZM178.112 64.6875L177.221 65.1402L177.222 65.143L178.112 64.6875ZM176.97 59.5057L175.97 59.5057L175.97 59.5114L176.97 59.5057ZM176.97 42.8182V41.8182H175.97V42.8182H176.97ZM185.305 42.8182H186.305V41.8182H185.305V42.8182ZM185.305 57.8693L184.305 57.8693L184.305 57.8773L185.305 57.8693ZM186.43 61.2273L187.173 60.5572L187.173 60.5572L186.43 61.2273ZM191.68 61.9091L192.163 62.7847L192.169 62.7818L191.68 61.9091ZM193.266 60.2898L192.391 59.8041L192.389 59.8089L193.266 60.2898ZM194.862 57.6989V42.8182H192.862V57.6989H194.862ZM193.862 43.8182H202.18V41.8182H193.862V43.8182ZM201.18 42.8182V69H203.18V42.8182H201.18ZM202.18 68H194.237V70H202.18V68ZM195.237 69V64.125H193.237V69H195.237ZM194.237 63.125H193.964V65.125H194.237V63.125ZM193.024 63.7849C192.516 65.1902 191.659 66.2909 190.439 67.1143L191.558 68.7721C193.133 67.7091 194.254 66.2643 194.905 64.4651L193.024 63.7849ZM190.441 67.1132C189.247 67.9157 187.773 68.3409 185.97 68.3409V70.3409C188.099 70.3409 189.978 69.8343 191.556 68.7731L190.441 67.1132ZM185.97 68.3409C184.345 68.3409 182.96 67.97 181.783 67.2581L180.748 68.9692C182.276 69.8936 184.028 70.3409 185.97 70.3409V68.3409ZM181.783 67.2581C180.597 66.5402 179.672 65.5398 179.002 64.232L177.222 65.143C178.053 66.767 179.23 68.0507 180.748 68.9692L181.783 67.2581ZM179.004 64.2348C178.337 62.9204 177.981 61.3516 177.97 59.4999L175.97 59.5114C175.982 61.6143 176.388 63.5 177.221 65.1402L179.004 64.2348ZM177.97 59.5057V42.8182H175.97V59.5057H177.97ZM176.97 43.8182H185.305V41.8182H176.97V43.8182ZM184.305 42.8182V57.8693H186.305V42.8182H184.305ZM184.305 57.8773C184.318 59.47 184.743 60.85 185.688 61.8974L187.173 60.5572C186.641 59.9682 186.315 59.1096 186.305 57.8613L184.305 57.8773ZM185.688 61.8974C186.646 62.9589 187.94 63.4545 189.447 63.4545V61.4545C188.409 61.4545 187.692 61.132 187.173 60.5572L185.688 61.8974ZM189.447 63.4545C190.428 63.4545 191.342 63.238 192.163 62.7847L191.197 61.0335C190.701 61.3074 190.126 61.4545 189.447 61.4545V63.4545ZM192.169 62.7818C193.01 62.3109 193.67 61.6317 194.142 60.7706L192.389 59.8089C192.088 60.3569 191.691 60.7572 191.192 61.0363L192.169 62.7818ZM194.14 60.7754C194.637 59.8799 194.862 58.8407 194.862 57.6989H192.862C192.862 58.5798 192.689 59.2678 192.391 59.8041L194.14 60.7754ZM212.634 67.875L212.15 68.7506L212.156 68.7539L212.634 67.875ZM208.065 63.2216L207.179 63.6847L207.182 63.6906L208.065 63.2216ZM208.082 48.9205L208.967 49.3874L208.968 49.3854L208.082 48.9205ZM212.599 44.1818L213.1 45.0473L213.104 45.045L212.599 44.1818ZM224.582 43.3466L224.934 42.4103L224.934 42.4103L224.582 43.3466ZM231.213 50.1307L230.276 50.4811L230.277 50.4832L231.213 50.1307ZM232.151 57.9205V58.9205H233.151V57.9205H232.151ZM209.395 57.9205H208.395V58.9205H209.395V57.9205ZM209.395 53.0795V52.0795H208.395V53.0795H209.395ZM224.395 53.0795V54.0795H225.408L225.395 53.0667L224.395 53.0795ZM222.077 49.0909L221.585 49.9617L221.593 49.9664L221.602 49.9709L222.077 49.0909ZM217.134 49.125L217.618 49.9999L217.628 49.9941L217.134 49.125ZM215.378 50.8125L216.23 51.3351L216.234 51.329L215.378 50.8125ZM214.696 53.2159L213.696 53.1906L213.696 53.2033V53.2159H214.696ZM215.327 60.9545L214.44 61.4167L214.443 61.4219L215.327 60.9545ZM217.116 62.8125L216.619 63.68L216.619 63.68L217.116 62.8125ZM221.889 63.1705L222.211 64.1173L222.211 64.1173L221.889 63.1705ZM223.44 62.267L224.118 63.0026L224.118 63.0026L223.44 62.267ZM224.412 60.8011L224.441 59.8016L223.725 59.7808L223.475 60.452L224.412 60.8011ZM232.065 61.0227L233.049 61.205L233.261 60.0569L232.094 60.0231L232.065 61.0227ZM229.969 65.5057L229.206 64.8588L229.206 64.8594L229.969 65.5057ZM225.759 68.4545L226.129 69.3835L226.134 69.3813L225.759 68.4545ZM219.724 68.4943C217.118 68.4943 214.925 67.9811 213.111 66.9961L212.156 68.7539C214.319 69.928 216.854 70.4943 219.724 70.4943V68.4943ZM213.117 66.9994C211.311 66.0032 209.926 64.594 208.949 62.7526L207.182 63.6906C208.341 65.8719 210.002 67.565 212.15 68.7506L213.117 66.9994ZM208.952 62.7585C207.984 60.9068 207.48 58.6692 207.48 56.0114H205.48C205.48 58.9217 206.033 61.4909 207.179 63.6847L208.952 62.7585ZM207.48 56.0114C207.48 53.4399 207.987 51.2421 208.967 49.3874L207.198 48.4535C206.041 50.6442 205.48 53.1737 205.48 56.0114H207.48ZM208.968 49.3854C209.95 47.5143 211.325 46.0754 213.1 45.0472L212.098 43.3164C209.988 44.5382 208.351 46.2584 207.197 48.4555L208.968 49.3854ZM213.104 45.045C214.87 44.0126 216.979 43.4773 219.469 43.4773V41.4773C216.686 41.4773 214.215 42.0784 212.095 43.3186L213.104 45.045ZM219.469 43.4773C221.228 43.4773 222.812 43.7506 224.231 44.2829L224.934 42.4103C223.262 41.7835 221.437 41.4773 219.469 41.4773V43.4773ZM224.231 44.2829C225.646 44.8134 226.857 45.5936 227.877 46.624L229.299 45.2169C228.069 43.9746 226.61 43.0388 224.934 42.4103L224.231 44.2829ZM227.877 46.624C228.892 47.6489 229.695 48.9277 230.276 50.4811L232.15 49.7803C231.481 47.9928 230.534 46.4647 229.299 45.2169L227.877 46.624ZM230.277 50.4832C230.852 52.0086 231.151 53.7889 231.151 55.8409H233.151C233.151 53.5975 232.824 51.571 232.149 49.7782L230.277 50.4832ZM231.151 55.8409V57.9205H233.151V55.8409H231.151ZM232.151 56.9205H209.395V58.9205H232.151V56.9205ZM210.395 57.9205V53.0795H208.395V57.9205H210.395ZM209.395 54.0795H224.395V52.0795H209.395V54.0795ZM225.395 53.0667C225.381 52.0241 225.132 51.0603 224.625 50.202L222.903 51.2185C223.215 51.7466 223.386 52.3623 223.395 53.0924L225.395 53.0667ZM224.625 50.202C224.123 49.3503 223.426 48.6827 222.552 48.2109L221.602 49.9709C222.159 50.2718 222.587 50.6838 222.903 51.2185L224.625 50.202ZM222.568 48.2201C221.694 47.7266 220.708 47.4943 219.639 47.4943V49.4943C220.411 49.4943 221.05 49.6598 221.585 49.9617L222.568 48.2201ZM219.639 47.4943C218.551 47.4943 217.542 47.7416 216.639 48.2559L217.628 49.9941C218.202 49.6675 218.864 49.4943 219.639 49.4943V47.4943ZM216.649 48.2502C215.759 48.7432 215.045 49.4286 214.522 50.296L216.234 51.329C216.575 50.7646 217.031 50.3249 217.618 49.9998L216.649 48.2502ZM214.525 50.2899C213.994 51.1573 213.723 52.1328 213.696 53.1906L215.696 53.2412C215.714 52.5036 215.898 51.8768 216.23 51.3351L214.525 50.2899ZM213.696 53.2159V58.142H215.696V53.2159H213.696ZM213.696 58.142C213.696 59.3431 213.933 60.4443 214.44 61.4167L216.214 60.4924C215.879 59.8512 215.696 59.0773 215.696 58.142H213.696ZM214.443 61.4219C214.951 62.3828 215.68 63.1417 216.619 63.68L217.614 61.945C217.007 61.597 216.544 61.1172 216.211 60.4872L214.443 61.4219ZM216.619 63.68C217.571 64.2258 218.67 64.4773 219.878 64.4773V62.4773C218.949 62.4773 218.208 62.2856 217.614 61.945L216.619 63.68ZM219.878 64.4773C220.709 64.4773 221.49 64.3622 222.211 64.1173L221.568 62.2236C221.084 62.3878 220.524 62.4773 219.878 62.4773V64.4773ZM222.211 64.1173C222.934 63.8717 223.575 63.5025 224.118 63.0026L222.763 61.5315C222.442 61.8271 222.049 62.0601 221.568 62.2236L222.211 64.1173ZM224.118 63.0026C224.672 62.4926 225.081 61.8691 225.349 61.1502L223.475 60.452C223.311 60.8922 223.073 61.2461 222.763 61.5315L224.118 63.0026ZM224.383 61.8007L232.036 62.0223L232.094 60.0231L224.441 59.8016L224.383 61.8007ZM231.082 60.8404C230.794 62.393 230.168 63.7252 229.206 64.8588L230.731 66.1525C231.929 64.7407 232.7 63.0842 233.049 61.205L231.082 60.8404ZM229.206 64.8594C228.255 65.9815 226.992 66.8757 225.383 67.5277L226.134 69.3813C228.002 68.6243 229.546 67.5526 230.732 66.1519L229.206 64.8594ZM225.388 67.5257C223.79 68.1628 221.909 68.4943 219.724 68.4943V70.4943C222.108 70.4943 224.25 70.1327 226.129 69.3834L225.388 67.5257Z" fill="black" mask="url(#path-1-outside-1_120_9)"/>
<path d="M2.64205 69H1.64205V70H2.64205V69ZM2.64205 34.0909V33.0909H1.64205V34.0909H2.64205ZM11.0795 34.0909H12.0795V33.0909H11.0795V34.0909ZM11.0795 62.1477H10.0795V63.1477H11.0795V62.1477ZM25.6023 62.1477H26.6023V61.1477H25.6023V62.1477ZM25.6023 69V70H26.6023V69H25.6023ZM3.64205 69V34.0909H1.64205V69H3.64205ZM2.64205 35.0909H11.0795V33.0909H2.64205V35.0909ZM10.0795 34.0909V62.1477H12.0795V34.0909H10.0795ZM11.0795 63.1477H25.6023V61.1477H11.0795V63.1477ZM24.6023 62.1477V69H26.6023V62.1477H24.6023ZM25.6023 68H2.64205V70H25.6023V68ZM32.902 68.608L32.4973 69.5225L32.5071 69.5267L32.902 68.608ZM29.8509 66.0511L29.0099 66.5924L29.0162 66.602L29.8509 66.0511ZM29.5099 58.0568L28.6196 57.6015L28.6196 57.6015L29.5099 58.0568ZM31.6236 55.6193L32.1949 56.44L32.1949 56.44L31.6236 55.6193ZM34.7259 54.2045L34.9882 55.1696L34.9969 55.1671L34.7259 54.2045ZM38.4759 53.5398L38.561 54.5362L38.5671 54.5356L38.4759 53.5398ZM42.0724 53.1136L42.2329 54.1008L42.2448 54.0987L42.0724 53.1136ZM44.0497 52.4489L44.6201 53.2702L44.6247 53.2671L44.0497 52.4489ZM43.777 49.0909L44.3981 48.3072L44.3981 48.3072L43.777 49.0909ZM38.6804 49.0909L38.1005 48.2762L38.1005 48.2762L38.6804 49.0909ZM37.402 51.0682L37.3665 52.0676L38.2026 52.0972L38.3794 51.2795L37.402 51.0682ZM29.7145 50.7955L28.7245 50.654L28.5672 51.7554L29.679 51.7948L29.7145 50.7955ZM31.4702 46.5341L30.6728 45.9306L30.6719 45.9318L31.4702 46.5341ZM35.3906 43.5682L35.7868 44.4864L35.7898 44.4851L35.3906 43.5682ZM46.027 43.0739L45.7553 44.0363L45.7626 44.0383L46.027 43.0739ZM49.7088 44.7784L49.1259 45.591L49.1318 45.5951L49.7088 44.7784ZM52.1293 47.5057L51.2443 47.9714L51.2482 47.9787L52.1293 47.5057ZM52.9986 69V70H53.9986V69H52.9986ZM45.1577 69H44.1577V70H45.1577V69ZM45.1577 65.3523H46.1577V64.3523H45.1577V65.3523ZM44.9531 65.3523V64.3523H44.349L44.068 64.887L44.9531 65.3523ZM43.1634 67.6023L42.5185 66.838L42.5126 66.843L43.1634 67.6023ZM40.6236 68.983L40.324 68.0289L40.3208 68.0299L40.6236 68.983ZM42.3452 63.4432L41.8979 62.5487L41.8923 62.5516L42.3452 63.4432ZM44.0838 61.9432L44.9113 62.5047L44.9159 62.4979L44.0838 61.9432ZM44.7315 57.2045H45.7315V55.5519L44.2675 56.3187L44.7315 57.2045ZM43.8622 57.5455L43.5749 56.5876L43.5658 56.5904L43.8622 57.5455ZM41.544 58.0739L41.7041 59.061L41.7041 59.061L41.544 58.0739ZM40.3338 58.2614L40.1883 57.2719L40.1764 57.2738L40.3338 58.2614ZM38.3224 58.8409L37.8975 57.9356L37.8903 57.9391L38.3224 58.8409ZM37.0611 59.8636L36.2429 59.2887L36.2397 59.2932L37.0611 59.8636ZM37.5554 63.3068L36.9601 64.1104L36.9672 64.1156L37.5554 63.3068ZM37.3509 68.4432C35.7915 68.4432 34.4468 68.1835 33.2969 67.6892L32.5071 69.5267C33.9481 70.1461 35.5693 70.4432 37.3509 70.4432V68.4432ZM33.3066 67.6935C32.1919 67.2003 31.3265 66.4716 30.6855 65.5003L29.0162 66.602C29.8752 67.9034 31.0439 68.8793 32.4974 69.5224L33.3066 67.6935ZM30.6918 65.51C30.0814 64.5615 29.7429 63.3246 29.7429 61.7386H27.7429C27.7429 63.6072 28.1431 65.2453 29.0099 66.5923L30.6918 65.51ZM29.7429 61.7386C29.7429 60.3972 29.9791 59.3358 30.4003 58.5121L28.6196 57.6015C28.0181 58.7778 27.7429 60.171 27.7429 61.7386H29.7429ZM30.4003 58.5121C30.839 57.6542 31.4356 56.9687 32.1949 56.44L31.0522 54.7986C30.0161 55.52 29.2036 56.4595 28.6196 57.6015L30.4003 58.5121ZM32.1949 56.44C32.989 55.8872 33.9163 55.4609 34.9882 55.1695L34.4635 53.2396C33.1945 53.5845 32.0536 54.1015 31.0522 54.7986L32.1949 56.44ZM34.9969 55.1671C36.101 54.8562 37.2883 54.6449 38.561 54.5361L38.3907 52.5434C37.0043 52.6619 35.6916 52.8938 34.4548 53.242L34.9969 55.1671ZM38.5671 54.5356C40.0665 54.3982 41.2912 54.2537 42.2328 54.1007L41.912 52.1266C41.0355 52.269 39.8624 52.4086 38.3846 52.5439L38.5671 54.5356ZM42.2448 54.0987C43.1953 53.9323 44.0291 53.6807 44.6201 53.2702L43.4793 51.6275C43.2522 51.7852 42.7678 51.9768 41.9001 52.1286L42.2448 54.0987ZM44.6247 53.2671C45.3238 52.7758 45.6804 52.0491 45.6804 51.2045H43.6804C43.6804 51.4282 43.6166 51.531 43.4748 51.6307L44.6247 53.2671ZM45.6804 51.2045V51.1193H43.6804V51.2045H45.6804ZM45.6804 51.1193C45.6804 49.9868 45.2749 49.002 44.3981 48.3072L43.1559 49.8747C43.4836 50.1344 43.6804 50.5018 43.6804 51.1193H45.6804ZM44.3981 48.3072C43.5683 47.6496 42.5131 47.375 41.3395 47.375V49.375C42.2114 49.375 42.7811 49.5776 43.1559 49.8747L44.3981 48.3072ZM41.3395 47.375C40.0989 47.375 38.9893 47.6435 38.1005 48.2762L39.2603 49.9056C39.7125 49.5837 40.3756 49.375 41.3395 49.375V47.375ZM38.1005 48.2762C37.2171 48.9051 36.6564 49.7845 36.4246 50.8568L38.3794 51.2795C38.5112 50.6701 38.8028 50.2312 39.2603 49.9056L38.1005 48.2762ZM37.4374 50.0688L29.7499 49.7961L29.679 51.7948L37.3665 52.0676L37.4374 50.0688ZM30.7044 50.9369C30.9085 49.5087 31.4298 48.2478 32.2684 47.1364L30.6719 45.9318C29.6241 47.3204 28.9751 48.9003 28.7245 50.654L30.7044 50.9369ZM32.2676 47.1375C33.1037 46.0326 34.2635 45.1437 35.7868 44.4863L34.9944 42.65C33.1996 43.4245 31.7457 44.5129 30.6728 45.9306L32.2676 47.1375ZM35.7898 44.4851C37.3039 43.8258 39.1666 43.4773 41.4077 43.4773V41.4773C38.967 41.4773 36.8182 41.856 34.9914 42.6513L35.7898 44.4851ZM41.4077 43.4773C42.9989 43.4773 44.4461 43.6667 45.7553 44.0363L46.2986 42.1115C44.7897 41.6856 43.1573 41.4773 41.4077 41.4773V43.4773ZM45.7626 44.0383C47.0727 44.3975 48.1889 44.9187 49.1259 45.5909L50.2917 43.9659C49.1378 43.1381 47.7995 42.523 46.2914 42.1095L45.7626 44.0383ZM49.1318 45.5951C50.0549 46.2473 50.7533 47.0385 51.2443 47.9714L53.0142 47.0399C52.3689 45.8138 51.4536 44.7868 50.2858 43.9617L49.1318 45.5951ZM51.2482 47.9787C51.7399 48.8946 51.9986 49.9613 51.9986 51.2045H53.9986C53.9986 49.6751 53.6777 48.2759 53.0103 47.0327L51.2482 47.9787ZM51.9986 51.2045V69H53.9986V51.2045H51.9986ZM52.9986 68H45.1577V70H52.9986V68ZM46.1577 69V65.3523H44.1577V69H46.1577ZM45.1577 64.3523H44.9531V66.3523H45.1577V64.3523ZM44.068 64.887C43.6589 65.6652 43.142 66.3119 42.5185 66.838L43.8082 68.3666C44.6392 67.6654 45.3155 66.8121 45.8383 65.8176L44.068 64.887ZM42.5126 66.843C41.9079 67.3613 41.1835 67.759 40.324 68.0289L40.9231 69.937C42.0182 69.5932 42.9869 69.0706 43.8141 68.3615L42.5126 66.843ZM40.3208 68.0299C39.4701 68.3001 38.4839 68.4432 37.3509 68.4432V70.4432C38.6496 70.4432 39.8452 70.2794 40.9263 69.936L40.3208 68.0299ZM39.9247 64.9886C40.961 64.9886 41.926 64.7777 42.798 64.3348L41.8923 62.5516C41.3326 62.8359 40.6839 62.9886 39.9247 62.9886V64.9886ZM42.7924 64.3376C43.6637 63.9019 44.3778 63.2909 44.9113 62.5047L43.2563 61.3817C42.9262 61.8682 42.4812 62.2572 41.898 62.5488L42.7924 64.3376ZM44.9159 62.4979C45.4675 61.6704 45.7315 60.7234 45.7315 59.6932H43.7315C43.7315 60.3675 43.5637 60.9205 43.2518 61.3885L44.9159 62.4979ZM45.7315 59.6932V57.2045H43.7315V59.6932H45.7315ZM44.2675 56.3187C44.1 56.4065 43.8729 56.4982 43.5749 56.5876L44.1496 58.5033C44.5333 58.3881 44.8858 58.2526 45.1955 58.0904L44.2675 56.3187ZM43.5658 56.5904C43.2644 56.6839 42.9258 56.7741 42.5485 56.8604L42.9941 58.8101C43.4123 58.7145 43.8009 58.6115 44.1586 58.5005L43.5658 56.5904ZM42.5485 56.8604C42.1724 56.9463 41.7843 57.0218 41.384 57.0868L41.7041 59.061C42.1447 58.9895 42.5747 58.9059 42.9941 58.8101L42.5485 56.8604ZM41.384 57.0868C40.9679 57.1542 40.5694 57.216 40.1883 57.272L40.4793 59.2507C40.8709 59.1931 41.2792 59.1299 41.7041 59.061L41.384 57.0868ZM40.1764 57.2738C39.3251 57.4095 38.5597 57.6249 37.8975 57.9357L38.7474 59.7461C39.1988 59.5342 39.7744 59.3632 40.4912 59.2489L40.1764 57.2738ZM37.8903 57.9391C37.2178 58.2614 36.653 58.705 36.2429 59.2887L37.8793 60.4386C38.06 60.1814 38.3362 59.9432 38.7546 59.7427L37.8903 57.9391ZM36.2397 59.2932C35.8234 59.8927 35.6349 60.5872 35.6349 61.3295H37.6349C37.6349 60.9355 37.7305 60.6528 37.8824 60.434L36.2397 59.2932ZM35.6349 61.3295C35.6349 62.4624 36.056 63.4406 36.9602 64.1104L38.1506 62.5033C37.8276 62.264 37.6349 61.9239 37.6349 61.3295H35.6349ZM36.9672 64.1156C37.7999 64.7211 38.8093 64.9886 39.9247 64.9886V62.9886C39.1311 62.9886 38.5609 62.8016 38.1436 62.4981L36.9672 64.1156ZM80.9531 50.8125L80.9798 51.8121L82.0375 51.7839L81.9497 50.7295L80.9531 50.8125ZM73.2997 51.017L72.3102 51.1614L72.4384 52.0404L73.3264 52.0167L73.2997 51.017ZM72.652 49.5682L71.8771 50.2004L71.8855 50.2104L72.652 49.5682ZM71.2713 48.5625L70.8617 49.4748L70.8728 49.4798L70.8841 49.4845L71.2713 48.5625ZM66.8565 48.767L66.3635 47.897L66.3572 47.9006L66.8565 48.767ZM65.8679 50.3352L66.8677 50.3574L66.8681 50.3377L66.8677 50.318L65.8679 50.3352ZM66.4815 51.6648L65.8159 52.4111L65.8258 52.4198L66.4815 51.6648ZM68.7827 52.5682L68.5807 53.5476L68.5887 53.5492L68.5968 53.5508L68.7827 52.5682ZM73.8281 53.5227L74.016 52.5405L74.014 52.5402L73.8281 53.5227ZM79.6577 56.0114L78.9843 56.7507L78.9876 56.7537L79.6577 56.0114ZM81.6009 60.6136L82.6009 60.62L82.6008 60.6077L81.6009 60.6136ZM79.9986 65.3011L79.2157 64.6789L79.2125 64.683L79.9986 65.3011ZM75.7031 68.4034L76.0745 69.3319L76.0795 69.3299L75.7031 68.4034ZM60.6179 67.1932L60.0338 68.0049L60.0387 68.0084L60.6179 67.1932ZM56.9361 60.9886L56.9112 59.9889L55.8139 60.0162L55.943 61.1062L56.9361 60.9886ZM65.169 60.7841L66.1514 60.597L65.9926 59.7633L65.1442 59.7844L65.169 60.7841ZM66.5838 62.9659L67.1327 62.13L67.1327 62.13L66.5838 62.9659ZM72.1065 63.1193L71.5963 62.2593L71.5963 62.2593L72.1065 63.1193ZM73.1293 61.5341L74.1291 61.5513L74.1294 61.5331L74.1291 61.5149L73.1293 61.5341ZM72.3452 60.1193L71.7656 60.9343L71.7717 60.9386L71.7779 60.9428L72.3452 60.1193ZM69.9418 59.267L69.7548 60.2494L69.7575 60.2499L69.9418 59.267ZM65.3736 58.3977L65.5605 57.4153L65.5525 57.4139L65.3736 58.3977ZM59.5099 55.7557L58.7997 56.4597L58.8028 56.4628L59.5099 55.7557ZM57.6009 50.8125L58.6009 50.8182L58.6008 50.806L57.6009 50.8125ZM58.9986 46.3295L59.7942 46.9354L59.7968 46.9319L58.9986 46.3295ZM63.0213 43.4659L62.6668 42.5308L62.6668 42.5308L63.0213 43.4659ZM77.5611 44.7102L76.9726 45.5188L76.9756 45.5209L77.5611 44.7102ZM80.9264 49.8129L73.273 50.0174L73.3264 52.0167L80.9798 51.8121L80.9264 49.8129ZM74.2892 50.8727C74.1831 50.1448 73.8905 49.4892 73.4185 48.926L71.8855 50.2104C72.1181 50.488 72.2572 50.7984 72.3102 51.1614L74.2892 50.8727ZM73.4269 48.9361C72.9604 48.3643 72.3614 47.9357 71.6585 47.6405L70.8841 49.4845C71.3175 49.6665 71.639 49.9084 71.8771 50.2003L73.4269 48.9361ZM71.6809 47.6502C70.9711 47.3316 70.1789 47.1875 69.3281 47.1875V49.1875C69.9547 49.1875 70.4578 49.2934 70.8617 49.4748L71.6809 47.6502ZM69.3281 47.1875C68.2292 47.1875 67.2269 47.4078 66.3635 47.897L67.3495 49.6371C67.8498 49.3536 68.4952 49.1875 69.3281 49.1875V47.1875ZM66.3572 47.9006C65.4373 48.4307 64.8492 49.2597 64.868 50.3525L66.8677 50.318C66.8639 50.0925 66.9348 49.8761 67.3558 49.6335L66.3572 47.9006ZM64.8681 50.313C64.8496 51.149 65.2019 51.8635 65.8159 52.4111L67.1471 50.9185C66.9202 50.7161 66.8635 50.5442 66.8677 50.3574L64.8681 50.313ZM65.8258 52.4198C66.4612 52.9716 67.4439 53.3132 68.5807 53.5476L68.9846 51.5888C67.9169 51.3686 67.3655 51.108 67.1372 50.9097L65.8258 52.4198ZM68.5968 53.5508L73.6422 54.5053L74.014 52.5402L68.9686 51.5856L68.5968 53.5508ZM73.6402 54.5049C76.1637 54.9877 77.9031 55.766 78.9843 56.7507L80.331 55.272C78.8668 53.9385 76.7199 53.0578 74.016 52.5405L73.6402 54.5049ZM78.9876 56.7537C80.0403 57.7039 80.591 58.959 80.6009 60.6196L82.6008 60.6077C82.588 58.4501 81.8432 56.637 80.3277 55.269L78.9876 56.7537ZM80.6009 60.6073C80.5908 62.1927 80.125 63.535 79.2158 64.6789L80.7814 65.9234C81.9858 64.4082 82.5881 62.6255 82.6008 60.62L80.6009 60.6073ZM79.2125 64.683C78.2906 65.8554 77.01 66.7931 75.3267 67.4769L76.0795 69.3299C78.0326 68.5364 79.6156 67.406 80.7847 65.9193L79.2125 64.683ZM75.3317 67.4749C73.6523 68.1467 71.7025 68.4943 69.4645 68.4943V70.4943C71.9083 70.4943 74.1176 70.1147 76.0745 69.3319L75.3317 67.4749ZM69.4645 68.4943C65.8508 68.4943 63.1302 67.7515 61.1971 66.378L60.0387 68.0084C62.4237 69.703 65.6009 70.4943 69.4645 70.4943V68.4943ZM61.202 66.3815C59.2782 64.9972 58.2025 63.179 57.9291 60.871L55.943 61.1062C56.2833 63.9801 57.6621 66.2983 60.0338 68.0049L61.202 66.3815ZM56.9609 61.9883L65.1939 61.7838L65.1442 59.7844L56.9112 59.9889L56.9609 61.9883ZM64.1867 60.9712C64.4154 62.172 65.0309 63.1424 66.0349 63.8018L67.1327 62.13C66.614 61.7894 66.2863 61.3053 66.1514 60.597L64.1867 60.9712ZM66.0349 63.8018C67.0014 64.4365 68.179 64.7159 69.4986 64.7159V62.7159C68.4545 62.7159 67.689 62.4953 67.1327 62.13L66.0349 63.8018ZM69.4986 64.7159C70.6825 64.7159 71.7449 64.4965 72.6167 63.9794L71.5963 62.2593C71.1272 62.5375 70.451 62.7159 69.4986 62.7159V64.7159ZM72.6167 63.9794C73.5217 63.4425 74.1106 62.6255 74.1291 61.5513L72.1294 61.5169C72.1252 61.7609 72.0322 62.0007 71.5963 62.2593L72.6167 63.9794ZM74.1291 61.5149C74.1112 60.5831 73.6733 59.8199 72.9125 59.2958L71.7779 60.9428C72.0398 61.1232 72.1246 61.3033 72.1294 61.5533L74.1291 61.5149ZM72.9247 59.3044C72.2369 58.8153 71.2662 58.498 70.1261 58.2842L69.7575 60.2499C70.7991 60.4452 71.4307 60.6961 71.7656 60.9343L72.9247 59.3044ZM70.1287 58.2847L65.5605 57.4154L65.1866 59.3801L69.7548 60.2494L70.1287 58.2847ZM65.5525 57.4139C63.0384 56.9568 61.3043 56.1359 60.2171 55.0486L58.8028 56.4628C60.2837 57.9437 62.4587 58.8841 65.1947 59.3816L65.5525 57.4139ZM60.2202 55.0517C59.142 53.964 58.5908 52.5807 58.6008 50.8182L56.6009 50.8068C56.5882 53.0443 57.3097 54.9564 58.7997 56.4597L60.2202 55.0517ZM58.6008 50.806C58.5907 49.2482 59.0014 47.9764 59.7942 46.9354L58.203 45.7237C57.1094 47.1599 56.5883 48.8768 56.6009 50.819L58.6008 50.806ZM59.7968 46.9319C60.6066 45.8586 61.78 45.0059 63.3758 44.401L62.6668 42.5308C60.7853 43.2441 59.2769 44.3005 58.2003 45.7272L59.7968 46.9319ZM63.3758 44.401C64.9751 43.7947 66.9008 43.4773 69.1747 43.4773V41.4773C66.7214 41.4773 64.5448 41.8189 62.6668 42.5308L63.3758 44.401ZM69.1747 43.4773C72.5912 43.4773 75.1546 44.1956 76.9726 45.5188L78.1495 43.9017C75.8767 42.2476 72.8491 41.4773 69.1747 41.4773V43.4773ZM76.9756 45.5209C78.7763 46.8214 79.7641 48.5854 79.9566 50.8955L81.9497 50.7295C81.7104 47.8578 80.4368 45.5536 78.1466 43.8995L76.9756 45.5209ZM94.0398 54.0682L93.0398 54.0568V54.0682H94.0398ZM94.0398 69V70H95.0398V69H94.0398ZM85.7045 69H84.7045V70H85.7045V69ZM85.7045 34.0909V33.0909H84.7045V34.0909H85.7045ZM93.767 34.0909H94.767V33.0909H93.767V34.0909ZM93.767 47.625H92.767V48.625H93.767V47.625ZM94.0568 47.625V48.625H94.7556L94.9958 47.9689L94.0568 47.625ZM96.9545 43.8409L96.3966 43.011L96.3934 43.0132L96.9545 43.8409ZM106.722 43.7045L106.207 44.5621L106.212 44.5652L106.722 43.7045ZM109.892 47.1307L109 47.5834L109.003 47.5888L109.892 47.1307ZM111.017 52.3125L110.017 52.3068V52.3125H111.017ZM111.017 69V70H112.017V69H111.017ZM102.682 69H101.682V70H102.682V69ZM102.682 53.9489L101.682 53.9411V53.9489H102.682ZM101.591 50.5398L100.849 51.2099L100.849 51.2099L101.591 50.5398ZM96.1534 49.892L96.6479 50.7612L96.6527 50.7585L96.1534 49.892ZM94.6023 51.5114L93.7195 51.0415L93.7137 51.0527L94.6023 51.5114ZM93.0398 54.0682V69H95.0398V54.0682H93.0398ZM94.0398 68H85.7045V70H94.0398V68ZM86.7045 69V34.0909H84.7045V69H86.7045ZM85.7045 35.0909H93.767V33.0909H85.7045V35.0909ZM92.767 34.0909V47.625H94.767V34.0909H92.767ZM93.767 48.625H94.0568V46.625H93.767V48.625ZM94.9958 47.9689C95.5193 46.5394 96.3592 45.4527 97.5157 44.6686L96.3934 43.0132C94.868 44.0473 93.7762 45.4833 93.1178 47.2811L94.9958 47.9689ZM97.5125 44.6708C98.6693 43.8931 100.119 43.4773 101.915 43.4773V41.4773C99.8018 41.4773 97.9444 41.9705 96.3966 43.011L97.5125 44.6708ZM101.915 43.4773C103.603 43.4773 105.022 43.851 106.207 44.562L107.236 42.8471C105.694 41.9217 103.908 41.4773 101.915 41.4773V43.4773ZM106.212 44.5652C107.405 45.2706 108.332 46.2676 109 47.5834L110.784 46.678C109.952 45.0393 108.766 43.7521 107.231 42.8439L106.212 44.5652ZM109.003 47.5888C109.678 48.8978 110.028 50.4603 110.017 52.3068L112.017 52.3182C112.029 50.2101 111.629 48.3181 110.781 46.6726L109.003 47.5888ZM110.017 52.3125V69H112.017V52.3125H110.017ZM111.017 68H102.682V70H111.017V68ZM103.682 69V53.9489H101.682V69H103.682ZM103.682 53.9567C103.694 52.3337 103.287 50.9266 102.333 49.8697L100.849 51.2099C101.372 51.7894 101.692 52.6549 101.682 53.9411L103.682 53.9567ZM102.333 49.8697C101.365 48.7968 100.029 48.3125 98.4716 48.3125V50.3125C99.5959 50.3125 100.34 50.6464 100.849 51.2099L102.333 49.8697ZM98.4716 48.3125C97.4447 48.3125 96.4954 48.5408 95.6541 49.0256L96.6527 50.7585C97.1523 50.4706 97.7485 50.3125 98.4716 50.3125V48.3125ZM95.6589 49.0229C94.8263 49.4966 94.1786 50.179 93.7195 51.0415L95.485 51.9812C95.7759 51.4346 96.1623 51.0375 96.6479 50.7612L95.6589 49.0229ZM93.7137 51.0527C93.2624 51.927 93.0525 52.9407 93.0398 54.0568L95.0397 54.0795C95.0498 53.1956 95.2149 52.5048 95.4909 51.97L93.7137 51.0527ZM149.442 45.4943L148.476 45.7548L148.676 46.4943H149.442V45.4943ZM148.589 43.6023L147.76 44.1609L147.765 44.1688L148.589 43.6023ZM145.334 41.3182L145.055 42.2785L145.062 42.2806L145.069 42.2826L145.334 41.3182ZM138.618 42.2386L138.067 41.4042L138.063 41.4066L138.618 42.2386ZM135.771 45.8182L136.69 46.2137L136.691 46.2113L135.771 45.8182ZM135.737 57.2216L136.662 56.8422L136.662 56.8422L135.737 57.2216ZM138.55 60.8352L139.11 60.0067L139.11 60.0067L138.55 60.8352ZM146.936 61.3295L147.36 62.2352L147.364 62.2333L146.936 61.3295ZM149.391 59.1648L148.532 58.6518L148.532 58.6518L149.391 59.1648ZM150.226 55.875L150.345 54.8821L149.226 54.7483V55.875H150.226ZM151.794 56.0625V57.0625L151.913 55.0696L151.794 56.0625ZM143.305 56.0625H142.305V57.0625H143.305V56.0625ZM143.305 49.9091V48.9091H142.305V49.9091H143.305ZM158.357 49.9091H159.357V48.9091H158.357V49.9091ZM156.362 62.5568L155.504 62.0443L155.502 62.0475L156.362 62.5568ZM150.908 67.6875L150.45 66.7984L150.448 66.7993L150.908 67.6875ZM134.169 67.3125L134.666 66.4445L134.666 66.4445L134.169 67.3125ZM128.271 61.142L127.386 61.6072L127.387 61.6087L128.271 61.142ZM127.436 43.9773L128.369 44.3363L128.37 44.3347L127.436 43.9773ZM130.999 38.3182L130.289 37.6137L130.286 37.6163L130.999 38.3182ZM136.317 34.8068L135.951 33.8762L135.949 33.8769L136.317 34.8068ZM148.487 34.483L148.171 35.4316L148.173 35.4323L148.487 34.483ZM153.124 36.9375L152.505 37.7229L152.508 37.7254L153.124 36.9375ZM156.413 40.7045L155.548 41.205L155.548 41.205L156.413 40.7045ZM157.982 45.4943V46.4943H159.106L158.975 45.3775L157.982 45.4943ZM150.407 45.2338C150.188 44.4216 149.86 43.685 149.414 43.0357L147.765 44.1688C148.069 44.6105 148.309 45.1352 148.476 45.7548L150.407 45.2338ZM149.419 43.0437C148.977 42.387 148.431 41.828 147.787 41.3715L146.631 43.0035C147.077 43.3197 147.452 43.7039 147.76 44.1609L149.419 43.0437ZM147.787 41.3715C147.138 40.9118 146.405 40.5749 145.598 40.3538L145.069 42.2826C145.672 42.4478 146.189 42.6905 146.631 43.0035L147.787 41.3715ZM145.613 40.3578C144.805 40.1235 143.937 40.0114 143.016 40.0114V42.0114C143.776 42.0114 144.453 42.1038 145.055 42.2785L145.613 40.3578ZM143.016 40.0114C141.155 40.0114 139.491 40.4634 138.067 41.4042L139.169 43.073C140.222 42.3775 141.49 42.0114 143.016 42.0114V40.0114ZM138.063 41.4066C136.65 42.3486 135.586 43.7068 134.852 45.4251L136.691 46.2113C137.297 44.7932 138.131 43.7651 139.173 43.0707L138.063 41.4066ZM134.853 45.4226C134.115 47.137 133.766 49.1717 133.766 51.4943H135.766C135.766 49.3624 136.087 47.613 136.69 46.2137L134.853 45.4226ZM133.766 51.4943C133.766 53.8246 134.102 55.8699 134.812 57.601L136.662 56.8422C136.077 55.4142 135.766 53.6413 135.766 51.4943H133.766ZM134.812 57.601C135.523 59.3344 136.575 60.7076 137.99 61.6637L139.11 60.0067C138.07 59.3037 137.247 58.2679 136.662 56.8422L134.812 57.601ZM137.99 61.6637C139.411 62.6241 141.103 63.0795 143.016 63.0795V61.0795C141.428 61.0795 140.143 60.7055 139.11 60.0067L137.99 61.6637ZM143.016 63.0795C144.664 63.0795 146.125 62.8135 147.36 62.2352L146.512 60.4239C145.611 60.8456 144.458 61.0795 143.016 61.0795V63.0795ZM147.364 62.2333C148.604 61.646 149.581 60.7965 150.249 59.6777L148.532 58.6518C148.087 59.3967 147.427 59.9904 146.508 60.4258L147.364 62.2333ZM150.249 59.6777C150.913 58.5672 151.226 57.2873 151.226 55.875H149.226C149.226 56.9854 148.982 57.8987 148.532 58.6518L150.249 59.6777ZM150.107 56.8679L151.675 57.0554L151.913 55.0696L150.345 54.8821L150.107 56.8679ZM151.794 55.0625H143.305V57.0625H151.794V55.0625ZM144.305 56.0625V49.9091H142.305V56.0625H144.305ZM143.305 50.9091H158.357V48.9091H143.305V50.9091ZM157.357 49.9091V54.5284H159.357V49.9091H157.357ZM157.357 54.5284C157.357 57.51 156.723 60.0009 155.504 62.0443L157.221 63.0694C158.66 60.6581 159.357 57.7968 159.357 54.5284H157.357ZM155.502 62.0475C154.28 64.1115 152.602 65.6907 150.45 66.7984L151.365 68.5766C153.85 67.298 155.808 65.4567 157.223 63.0661L155.502 62.0475ZM150.448 66.7993C148.304 67.9084 145.812 68.4773 142.947 68.4773V70.4773C146.082 70.4773 148.898 69.853 151.367 68.5757L150.448 66.7993ZM142.947 68.4773C139.766 68.4773 137.016 67.7892 134.666 66.4445L133.672 68.1805C136.367 69.7221 139.469 70.4773 142.947 70.4773V68.4773ZM134.666 66.4445C132.314 65.0994 130.48 63.1848 129.156 60.6754L127.387 61.6087C128.881 64.4402 130.978 66.6393 133.672 68.1805L134.666 66.4445ZM129.157 60.6769C127.837 58.1663 127.158 55.1509 127.158 51.5966H125.158C125.158 55.4059 125.887 58.7542 127.386 61.6072L129.157 60.6769ZM127.158 51.5966C127.158 48.8311 127.569 46.4167 128.369 44.3363L126.503 43.6183C125.598 45.9697 125.158 48.6348 125.158 51.5966H127.158ZM128.37 44.3347C129.178 42.2234 130.294 40.4578 131.711 39.02L130.286 37.6163C128.657 39.2695 127.399 41.2766 126.502 43.6199L128.37 44.3347ZM131.708 39.0227C133.146 37.5745 134.802 36.4811 136.685 35.7367L135.949 33.8769C133.808 34.7235 131.919 35.971 130.289 37.6137L131.708 39.0227ZM136.683 35.7374C138.581 34.991 140.632 34.6136 142.845 34.6136V32.6136C140.399 32.6136 138.098 33.0317 135.951 33.8762L136.683 35.7374ZM142.845 34.6136C144.771 34.6136 146.544 34.8894 148.171 35.4316L148.803 33.5343C146.953 32.9174 144.964 32.6136 142.845 32.6136V34.6136ZM148.173 35.4323C149.821 35.9782 151.262 36.7435 152.505 37.7229L153.743 36.1521C152.303 35.0178 150.653 34.1468 148.802 33.5337L148.173 35.4323ZM152.508 37.7254C153.761 38.7051 154.772 39.8639 155.548 41.205L157.279 40.204C156.373 38.6361 155.19 37.2836 153.739 36.1496L152.508 37.7254ZM155.548 41.205C156.318 42.5368 156.799 44.002 156.988 45.6112L158.975 45.3775C158.755 43.5094 158.191 41.7814 157.279 40.204L155.548 41.205ZM157.982 44.4943H149.442V46.4943H157.982V44.4943ZM171.665 34.0909H172.665V33.0909H171.665V34.0909ZM171.665 69V70H172.665V69H171.665ZM163.33 69H162.33V70H163.33V69ZM163.33 34.0909V33.0909H162.33V34.0909H163.33ZM170.665 34.0909V69H172.665V34.0909H170.665ZM171.665 68H163.33V70H171.665V68ZM164.33 69V34.0909H162.33V69H164.33ZM163.33 35.0909H171.665V33.0909H163.33V35.0909ZM193.862 42.8182V41.8182H192.862V42.8182H193.862ZM202.18 42.8182H203.18V41.8182H202.18V42.8182ZM202.18 69V70H203.18V69H202.18ZM194.237 69H193.237V70H194.237V69ZM194.237 64.125H195.237V63.125H194.237V64.125ZM193.964 64.125V63.125H193.263L193.024 63.7849L193.964 64.125ZM190.999 67.9432L191.556 68.7731L191.558 68.7721L190.999 67.9432ZM181.266 68.1136L180.748 68.9692L180.748 68.9692L181.266 68.1136ZM178.112 64.6875L177.221 65.1402L177.222 65.143L178.112 64.6875ZM176.97 59.5057L175.97 59.5057L175.97 59.5114L176.97 59.5057ZM176.97 42.8182V41.8182H175.97V42.8182H176.97ZM185.305 42.8182H186.305V41.8182H185.305V42.8182ZM185.305 57.8693L184.305 57.8693L184.305 57.8773L185.305 57.8693ZM186.43 61.2273L187.173 60.5572L187.173 60.5572L186.43 61.2273ZM191.68 61.9091L192.163 62.7847L192.169 62.7818L191.68 61.9091ZM193.266 60.2898L192.391 59.8041L192.389 59.8089L193.266 60.2898ZM194.862 57.6989V42.8182H192.862V57.6989H194.862ZM193.862 43.8182H202.18V41.8182H193.862V43.8182ZM201.18 42.8182V69H203.18V42.8182H201.18ZM202.18 68H194.237V70H202.18V68ZM195.237 69V64.125H193.237V69H195.237ZM194.237 63.125H193.964V65.125H194.237V63.125ZM193.024 63.7849C192.516 65.1902 191.659 66.2909 190.439 67.1143L191.558 68.7721C193.133 67.7091 194.254 66.2643 194.905 64.4651L193.024 63.7849ZM190.441 67.1132C189.247 67.9157 187.773 68.3409 185.97 68.3409V70.3409C188.099 70.3409 189.978 69.8343 191.556 68.7731L190.441 67.1132ZM185.97 68.3409C184.345 68.3409 182.96 67.97 181.783 67.2581L180.748 68.9692C182.276 69.8936 184.028 70.3409 185.97 70.3409V68.3409ZM181.783 67.2581C180.597 66.5402 179.672 65.5398 179.002 64.232L177.222 65.143C178.053 66.767 179.23 68.0507 180.748 68.9692L181.783 67.2581ZM179.004 64.2348C178.337 62.9204 177.981 61.3516 177.97 59.4999L175.97 59.5114C175.982 61.6143 176.388 63.5 177.221 65.1402L179.004 64.2348ZM177.97 59.5057V42.8182H175.97V59.5057H177.97ZM176.97 43.8182H185.305V41.8182H176.97V43.8182ZM184.305 42.8182V57.8693H186.305V42.8182H184.305ZM184.305 57.8773C184.318 59.47 184.743 60.85 185.688 61.8974L187.173 60.5572C186.641 59.9682 186.315 59.1096 186.305 57.8613L184.305 57.8773ZM185.688 61.8974C186.646 62.9589 187.94 63.4545 189.447 63.4545V61.4545C188.409 61.4545 187.692 61.132 187.173 60.5572L185.688 61.8974ZM189.447 63.4545C190.428 63.4545 191.342 63.238 192.163 62.7847L191.197 61.0335C190.701 61.3074 190.126 61.4545 189.447 61.4545V63.4545ZM192.169 62.7818C193.01 62.3109 193.67 61.6317 194.142 60.7706L192.389 59.8089C192.088 60.3569 191.691 60.7572 191.192 61.0363L192.169 62.7818ZM194.14 60.7754C194.637 59.8799 194.862 58.8407 194.862 57.6989H192.862C192.862 58.5798 192.689 59.2678 192.391 59.8041L194.14 60.7754ZM212.634 67.875L212.15 68.7506L212.156 68.7539L212.634 67.875ZM208.065 63.2216L207.179 63.6847L207.182 63.6906L208.065 63.2216ZM208.082 48.9205L208.967 49.3874L208.968 49.3854L208.082 48.9205ZM212.599 44.1818L213.1 45.0473L213.104 45.045L212.599 44.1818ZM224.582 43.3466L224.934 42.4103L224.934 42.4103L224.582 43.3466ZM231.213 50.1307L230.276 50.4811L230.277 50.4832L231.213 50.1307ZM232.151 57.9205V58.9205H233.151V57.9205H232.151ZM209.395 57.9205H208.395V58.9205H209.395V57.9205ZM209.395 53.0795V52.0795H208.395V53.0795H209.395ZM224.395 53.0795V54.0795H225.408L225.395 53.0667L224.395 53.0795ZM222.077 49.0909L221.585 49.9617L221.593 49.9664L221.602 49.9709L222.077 49.0909ZM217.134 49.125L217.618 49.9999L217.628 49.9941L217.134 49.125ZM215.378 50.8125L216.23 51.3351L216.234 51.329L215.378 50.8125ZM214.696 53.2159L213.696 53.1906L213.696 53.2033V53.2159H214.696ZM215.327 60.9545L214.44 61.4167L214.443 61.4219L215.327 60.9545ZM217.116 62.8125L216.619 63.68L216.619 63.68L217.116 62.8125ZM221.889 63.1705L222.211 64.1173L222.211 64.1173L221.889 63.1705ZM223.44 62.267L224.118 63.0026L224.118 63.0026L223.44 62.267ZM224.412 60.8011L224.441 59.8016L223.725 59.7808L223.475 60.452L224.412 60.8011ZM232.065 61.0227L233.049 61.205L233.261 60.0569L232.094 60.0231L232.065 61.0227ZM229.969 65.5057L229.206 64.8588L229.206 64.8594L229.969 65.5057ZM225.759 68.4545L226.129 69.3835L226.134 69.3813L225.759 68.4545ZM219.724 68.4943C217.118 68.4943 214.925 67.9811 213.111 66.9961L212.156 68.7539C214.319 69.928 216.854 70.4943 219.724 70.4943V68.4943ZM213.117 66.9994C211.311 66.0032 209.926 64.594 208.949 62.7526L207.182 63.6906C208.341 65.8719 210.002 67.565 212.15 68.7506L213.117 66.9994ZM208.952 62.7585C207.984 60.9068 207.48 58.6692 207.48 56.0114H205.48C205.48 58.9217 206.033 61.4909 207.179 63.6847L208.952 62.7585ZM207.48 56.0114C207.48 53.4399 207.987 51.2421 208.967 49.3874L207.198 48.4535C206.041 50.6442 205.48 53.1737 205.48 56.0114H207.48ZM208.968 49.3854C209.95 47.5143 211.325 46.0754 213.1 45.0472L212.098 43.3164C209.988 44.5382 208.351 46.2584 207.197 48.4555L208.968 49.3854ZM213.104 45.045C214.87 44.0126 216.979 43.4773 219.469 43.4773V41.4773C216.686 41.4773 214.215 42.0784 212.095 43.3186L213.104 45.045ZM219.469 43.4773C221.228 43.4773 222.812 43.7506 224.231 44.2829L224.934 42.4103C223.262 41.7835 221.437 41.4773 219.469 41.4773V43.4773ZM224.231 44.2829C225.646 44.8134 226.857 45.5936 227.877 46.624L229.299 45.2169C228.069 43.9746 226.61 43.0388 224.934 42.4103L224.231 44.2829ZM227.877 46.624C228.892 47.6489 229.695 48.9277 230.276 50.4811L232.15 49.7803C231.481 47.9928 230.534 46.4647 229.299 45.2169L227.877 46.624ZM230.277 50.4832C230.852 52.0086 231.151 53.7889 231.151 55.8409H233.151C233.151 53.5975 232.824 51.571 232.149 49.7782L230.277 50.4832ZM231.151 55.8409V57.9205H233.151V55.8409H231.151ZM232.151 56.9205H209.395V58.9205H232.151V56.9205ZM210.395 57.9205V53.0795H208.395V57.9205H210.395ZM209.395 54.0795H224.395V52.0795H209.395V54.0795ZM225.395 53.0667C225.381 52.0241 225.132 51.0603 224.625 50.202L222.903 51.2185C223.215 51.7466 223.386 52.3623 223.395 53.0924L225.395 53.0667ZM224.625 50.202C224.123 49.3503 223.426 48.6827 222.552 48.2109L221.602 49.9709C222.159 50.2718 222.587 50.6838 222.903 51.2185L224.625 50.202ZM222.568 48.2201C221.694 47.7266 220.708 47.4943 219.639 47.4943V49.4943C220.411 49.4943 221.05 49.6598 221.585 49.9617L222.568 48.2201ZM219.639 47.4943C218.551 47.4943 217.542 47.7416 216.639 48.2559L217.628 49.9941C218.202 49.6675 218.864 49.4943 219.639 49.4943V47.4943ZM216.649 48.2502C215.759 48.7432 215.045 49.4286 214.522 50.296L216.234 51.329C216.575 50.7646 217.031 50.3249 217.618 49.9998L216.649 48.2502ZM214.525 50.2899C213.994 51.1573 213.723 52.1328 213.696 53.1906L215.696 53.2412C215.714 52.5036 215.898 51.8768 216.23 51.3351L214.525 50.2899ZM213.696 53.2159V58.142H215.696V53.2159H213.696ZM213.696 58.142C213.696 59.3431 213.933 60.4443 214.44 61.4167L216.214 60.4924C215.879 59.8512 215.696 59.0773 215.696 58.142H213.696ZM214.443 61.4219C214.951 62.3828 215.68 63.1417 216.619 63.68L217.614 61.945C217.007 61.597 216.544 61.1172 216.211 60.4872L214.443 61.4219ZM216.619 63.68C217.571 64.2258 218.67 64.4773 219.878 64.4773V62.4773C218.949 62.4773 218.208 62.2856 217.614 61.945L216.619 63.68ZM219.878 64.4773C220.709 64.4773 221.49 64.3622 222.211 64.1173L221.568 62.2236C221.084 62.3878 220.524 62.4773 219.878 62.4773V64.4773ZM222.211 64.1173C222.934 63.8717 223.575 63.5025 224.118 63.0026L222.763 61.5315C222.442 61.8271 222.049 62.0601 221.568 62.2236L222.211 64.1173ZM224.118 63.0026C224.672 62.4926 225.081 61.8691 225.349 61.1502L223.475 60.452C223.311 60.8922 223.073 61.2461 222.763 61.5315L224.118 63.0026ZM224.383 61.8007L232.036 62.0223L232.094 60.0231L224.441 59.8016L224.383 61.8007ZM231.082 60.8404C230.794 62.393 230.168 63.7252 229.206 64.8588L230.731 66.1525C231.929 64.7407 232.7 63.0842 233.049 61.205L231.082 60.8404ZM229.206 64.8594C228.255 65.9815 226.992 66.8757 225.383 67.5277L226.134 69.3813C228.002 68.6243 229.546 67.5526 230.732 66.1519L229.206 64.8594ZM225.388 67.5257C223.79 68.1628 221.909 68.4943 219.724 68.4943V70.4943C222.108 70.4943 224.25 70.1327 226.129 69.3834L225.388 67.5257Z" fill="black" fill-opacity="0.2" mask="url(#path-1-outside-1_120_9)"/>
</g>
</g>
<defs>
<filter id="filter0_dd_120_9" x="-2.35791" y="32.6136" width="239.619" height="45.8806" filterUnits="userSpaceOnUse" color-interpolation-filters="sRGB">
<feFlood flood-opacity="0" result="BackgroundImageFix"/>
<feColorMatrix in="SourceAlpha" type="matrix" values="0 0 0 0 0 0 0 0 0 0 0 0 0 0 0 0 0 0 127 0" result="hardAlpha"/>
<feOffset dy="4"/>
<feGaussianBlur stdDeviation="2"/>
<feComposite in2="hardAlpha" operator="out"/>
<feColorMatrix type="matrix" values="0 0 0 0 0 0 0 0 0 0 0 0 0 0 0 0 0 0 0.25 0"/>
<feBlend mode="normal" in2="BackgroundImageFix" result="effect1_dropShadow_120_9"/>
<feColorMatrix in="SourceAlpha" type="matrix" values="0 0 0 0 0 0 0 0 0 0 0 0 0 0 0 0 0 0 127 0" result="hardAlpha"/>
<feOffset dy="4"/>
<feGaussianBlur stdDeviation="2"/>
<feComposite in2="hardAlpha" operator="out"/>
<feColorMatrix type="matrix" values="0 0 0 0 0 0 0 0 0 0 0 0 0 0 0 0 0 0 0.25 0"/>
<feBlend mode="normal" in2="effect1_dropShadow_120_9" result="effect2_dropShadow_120_9"/>
<feBlend mode="normal" in="SourceGraphic" in2="effect2_dropShadow_120_9" result="shape"/>
</filter>
<clipPath id="clip0_120_9">
<rect width="322" height="117" fill="white"/>
</clipPath>
</defs>
</svg>
