<svg width="322" height="117" viewBox="0 0 322 117" fill="none" xmlns="http://www.w3.org/2000/svg">
<g clip-path="url(#clip0_139_524)">
<rect width="322" height="117" fill="white"/>
<g filter="url(#filter0_dd_139_524)">
<mask id="path-1-outside-1_139_524" maskUnits="userSpaceOnUse" x="1" y="30" width="227" height="50" fill="black">
<rect fill="white" x="1" y="30" width="227" height="50"/>
<path d="M32.3523 34.0909V69H25.1932L11.3011 48.8523H11.0795V69H2.64205V34.0909H9.90341L23.642 54.2045H23.9318V34.0909H32.3523ZM45.0384 69.4432C43.3679 69.4432 41.8849 69.1648 40.5895 68.608C39.3054 68.0398 38.2884 67.1875 37.5384 66.0511C36.7997 64.9034 36.4304 63.4659 36.4304 61.7386C36.4304 60.2841 36.6861 59.0568 37.1974 58.0568C37.7088 57.0568 38.4134 56.2443 39.3111 55.6193C40.2088 54.9943 41.2429 54.5227 42.4134 54.2045C43.5838 53.875 44.8338 53.6534 46.1634 53.5398C47.652 53.4034 48.8509 53.2614 49.7599 53.1136C50.669 52.9545 51.3281 52.733 51.7372 52.4489C52.1577 52.1534 52.3679 51.7386 52.3679 51.2045V51.1193C52.3679 50.2443 52.0668 49.5682 51.4645 49.0909C50.8622 48.6136 50.0497 48.375 49.027 48.375C47.9247 48.375 47.0384 48.6136 46.3679 49.0909C45.6974 49.5682 45.2713 50.2273 45.0895 51.0682L37.402 50.7955C37.6293 49.2045 38.2145 47.7841 39.1577 46.5341C40.1122 45.2727 41.419 44.2841 43.0781 43.5682C44.7486 42.8409 46.7543 42.4773 49.0952 42.4773C50.7656 42.4773 52.3054 42.6761 53.7145 43.0739C55.1236 43.4602 56.3509 44.0284 57.3963 44.7784C58.4418 45.517 59.2486 46.4261 59.8168 47.5057C60.3963 48.5852 60.6861 49.8182 60.6861 51.2045V69H52.8452V65.3523H52.6406C52.1747 66.2386 51.5781 66.9886 50.8509 67.6023C50.1349 68.2159 49.2884 68.6761 48.3111 68.983C47.3452 69.2898 46.2543 69.4432 45.0384 69.4432ZM47.6122 63.9886C48.5099 63.9886 49.3168 63.8068 50.0327 63.4432C50.7599 63.0795 51.3395 62.5795 51.7713 61.9432C52.2031 61.2955 52.419 60.5455 52.419 59.6932V57.2045C52.1804 57.3295 51.8906 57.4432 51.5497 57.5455C51.2202 57.6477 50.8565 57.7443 50.4588 57.8352C50.0611 57.9261 49.652 58.0057 49.2315 58.0739C48.8111 58.142 48.4077 58.2045 48.0213 58.2614C47.2372 58.3864 46.5668 58.5795 46.0099 58.8409C45.4645 59.1023 45.044 59.4432 44.7486 59.8636C44.4645 60.2727 44.3224 60.7614 44.3224 61.3295C44.3224 62.1932 44.6293 62.8523 45.2429 63.3068C45.8679 63.7614 46.6577 63.9886 47.6122 63.9886ZM65.7827 69V42.8182H74.1179V69H65.7827ZM69.9588 39.767C68.7884 39.767 67.7827 39.3807 66.9418 38.608C66.1009 37.8239 65.6804 36.8807 65.6804 35.7784C65.6804 34.6875 66.1009 33.7557 66.9418 32.983C67.7827 32.1989 68.7884 31.8068 69.9588 31.8068C71.1406 31.8068 72.1463 32.1989 72.9759 32.983C73.8168 33.7557 74.2372 34.6875 74.2372 35.7784C74.2372 36.8807 73.8168 37.8239 72.9759 38.608C72.1463 39.3807 71.1406 39.767 69.9588 39.767ZM87.7585 34.0909V69H79.4233V34.0909H87.7585ZM111.746 69L101.587 34.0909H110.911L116.178 56.9659H116.467L122.484 34.0909H130.087L136.104 57.017H136.393L141.678 34.0909H150.984L140.842 69H132.712L126.422 47.8295H126.149L119.859 69H111.746ZM152.83 69V42.8182H160.926V47.5909H161.199C161.676 45.8636 162.455 44.5795 163.534 43.7386C164.614 42.8864 165.869 42.4602 167.301 42.4602C167.688 42.4602 168.085 42.4886 168.494 42.5455C168.903 42.5909 169.284 42.6648 169.636 42.767V50.0114C169.239 49.875 168.716 49.767 168.068 49.6875C167.432 49.608 166.864 49.5682 166.364 49.5682C165.375 49.5682 164.483 49.7898 163.688 50.233C162.903 50.6648 162.284 51.2727 161.83 52.0568C161.386 52.8295 161.165 53.7386 161.165 54.7841V69H152.83ZM179.429 69.4432C177.759 69.4432 176.276 69.1648 174.98 68.608C173.696 68.0398 172.679 67.1875 171.929 66.0511C171.19 64.9034 170.821 63.4659 170.821 61.7386C170.821 60.2841 171.077 59.0568 171.588 58.0568C172.099 57.0568 172.804 56.2443 173.702 55.6193C174.599 54.9943 175.634 54.5227 176.804 54.2045C177.974 53.875 179.224 53.6534 180.554 53.5398C182.043 53.4034 183.241 53.2614 184.151 53.1136C185.06 52.9545 185.719 52.733 186.128 52.4489C186.548 52.1534 186.759 51.7386 186.759 51.2045V51.1193C186.759 50.2443 186.457 49.5682 185.855 49.0909C185.253 48.6136 184.44 48.375 183.418 48.375C182.315 48.375 181.429 48.6136 180.759 49.0909C180.088 49.5682 179.662 50.2273 179.48 51.0682L171.793 50.7955C172.02 49.2045 172.605 47.7841 173.548 46.5341C174.503 45.2727 175.81 44.2841 177.469 43.5682C179.139 42.8409 181.145 42.4773 183.486 42.4773C185.156 42.4773 186.696 42.6761 188.105 43.0739C189.514 43.4602 190.741 44.0284 191.787 44.7784C192.832 45.517 193.639 46.4261 194.207 47.5057C194.787 48.5852 195.077 49.8182 195.077 51.2045V69H187.236V65.3523H187.031C186.565 66.2386 185.969 66.9886 185.241 67.6023C184.526 68.2159 183.679 68.6761 182.702 68.983C181.736 69.2898 180.645 69.4432 179.429 69.4432ZM182.003 63.9886C182.901 63.9886 183.707 63.8068 184.423 63.4432C185.151 63.0795 185.73 62.5795 186.162 61.9432C186.594 61.2955 186.81 60.5455 186.81 59.6932V57.2045C186.571 57.3295 186.281 57.4432 185.94 57.5455C185.611 57.6477 185.247 57.7443 184.849 57.8352C184.452 57.9261 184.043 58.0057 183.622 58.0739C183.202 58.142 182.798 58.2045 182.412 58.2614C181.628 58.3864 180.957 58.5795 180.401 58.8409C179.855 59.1023 179.435 59.4432 179.139 59.8636C178.855 60.2727 178.713 60.7614 178.713 61.3295C178.713 62.1932 179.02 62.8523 179.634 63.3068C180.259 63.7614 181.048 63.9886 182.003 63.9886ZM200.173 78.8182V42.8182H208.423V47.3011H208.679C209.02 46.5057 209.503 45.7386 210.128 45C210.764 44.2614 211.571 43.6591 212.548 43.1932C213.537 42.7159 214.719 42.4773 216.094 42.4773C217.912 42.4773 219.611 42.9545 221.19 43.9091C222.781 44.8636 224.065 46.3352 225.043 48.3239C226.02 50.3125 226.509 52.8466 226.509 55.9261C226.509 58.892 226.037 61.375 225.094 63.375C224.162 65.375 222.901 66.875 221.31 67.875C219.73 68.875 217.974 69.375 216.043 69.375C214.724 69.375 213.582 69.1591 212.616 68.7273C211.651 68.2955 210.838 67.7273 210.179 67.0227C209.531 66.3182 209.031 65.5625 208.679 64.7557H208.509V78.8182H200.173ZM208.338 55.9091C208.338 57.3182 208.526 58.5455 208.901 59.5909C209.287 60.6364 209.838 61.4489 210.554 62.0284C211.281 62.5966 212.151 62.8807 213.162 62.8807C214.185 62.8807 215.054 62.5966 215.77 62.0284C216.486 61.4489 217.026 60.6364 217.389 59.5909C217.764 58.5455 217.952 57.3182 217.952 55.9091C217.952 54.5 217.764 53.2784 217.389 52.2443C217.026 51.2102 216.486 50.4091 215.77 49.8409C215.065 49.2727 214.196 48.9886 213.162 48.9886C212.139 48.9886 211.27 49.267 210.554 49.8239C209.838 50.3807 209.287 51.1761 208.901 52.2102C208.526 53.2443 208.338 54.4773 208.338 55.9091Z"/>
</mask>
<path d="M32.3523 34.0909V69H25.1932L11.3011 48.8523H11.0795V69H2.64205V34.0909H9.90341L23.642 54.2045H23.9318V34.0909H32.3523ZM45.0384 69.4432C43.3679 69.4432 41.8849 69.1648 40.5895 68.608C39.3054 68.0398 38.2884 67.1875 37.5384 66.0511C36.7997 64.9034 36.4304 63.4659 36.4304 61.7386C36.4304 60.2841 36.6861 59.0568 37.1974 58.0568C37.7088 57.0568 38.4134 56.2443 39.3111 55.6193C40.2088 54.9943 41.2429 54.5227 42.4134 54.2045C43.5838 53.875 44.8338 53.6534 46.1634 53.5398C47.652 53.4034 48.8509 53.2614 49.7599 53.1136C50.669 52.9545 51.3281 52.733 51.7372 52.4489C52.1577 52.1534 52.3679 51.7386 52.3679 51.2045V51.1193C52.3679 50.2443 52.0668 49.5682 51.4645 49.0909C50.8622 48.6136 50.0497 48.375 49.027 48.375C47.9247 48.375 47.0384 48.6136 46.3679 49.0909C45.6974 49.5682 45.2713 50.2273 45.0895 51.0682L37.402 50.7955C37.6293 49.2045 38.2145 47.7841 39.1577 46.5341C40.1122 45.2727 41.419 44.2841 43.0781 43.5682C44.7486 42.8409 46.7543 42.4773 49.0952 42.4773C50.7656 42.4773 52.3054 42.6761 53.7145 43.0739C55.1236 43.4602 56.3509 44.0284 57.3963 44.7784C58.4418 45.517 59.2486 46.4261 59.8168 47.5057C60.3963 48.5852 60.6861 49.8182 60.6861 51.2045V69H52.8452V65.3523H52.6406C52.1747 66.2386 51.5781 66.9886 50.8509 67.6023C50.1349 68.2159 49.2884 68.6761 48.3111 68.983C47.3452 69.2898 46.2543 69.4432 45.0384 69.4432ZM47.6122 63.9886C48.5099 63.9886 49.3168 63.8068 50.0327 63.4432C50.7599 63.0795 51.3395 62.5795 51.7713 61.9432C52.2031 61.2955 52.419 60.5455 52.419 59.6932V57.2045C52.1804 57.3295 51.8906 57.4432 51.5497 57.5455C51.2202 57.6477 50.8565 57.7443 50.4588 57.8352C50.0611 57.9261 49.652 58.0057 49.2315 58.0739C48.8111 58.142 48.4077 58.2045 48.0213 58.2614C47.2372 58.3864 46.5668 58.5795 46.0099 58.8409C45.4645 59.1023 45.044 59.4432 44.7486 59.8636C44.4645 60.2727 44.3224 60.7614 44.3224 61.3295C44.3224 62.1932 44.6293 62.8523 45.2429 63.3068C45.8679 63.7614 46.6577 63.9886 47.6122 63.9886ZM65.7827 69V42.8182H74.1179V69H65.7827ZM69.9588 39.767C68.7884 39.767 67.7827 39.3807 66.9418 38.608C66.1009 37.8239 65.6804 36.8807 65.6804 35.7784C65.6804 34.6875 66.1009 33.7557 66.9418 32.983C67.7827 32.1989 68.7884 31.8068 69.9588 31.8068C71.1406 31.8068 72.1463 32.1989 72.9759 32.983C73.8168 33.7557 74.2372 34.6875 74.2372 35.7784C74.2372 36.8807 73.8168 37.8239 72.9759 38.608C72.1463 39.3807 71.1406 39.767 69.9588 39.767ZM87.7585 34.0909V69H79.4233V34.0909H87.7585ZM111.746 69L101.587 34.0909H110.911L116.178 56.9659H116.467L122.484 34.0909H130.087L136.104 57.017H136.393L141.678 34.0909H150.984L140.842 69H132.712L126.422 47.8295H126.149L119.859 69H111.746ZM152.83 69V42.8182H160.926V47.5909H161.199C161.676 45.8636 162.455 44.5795 163.534 43.7386C164.614 42.8864 165.869 42.4602 167.301 42.4602C167.688 42.4602 168.085 42.4886 168.494 42.5455C168.903 42.5909 169.284 42.6648 169.636 42.767V50.0114C169.239 49.875 168.716 49.767 168.068 49.6875C167.432 49.608 166.864 49.5682 166.364 49.5682C165.375 49.5682 164.483 49.7898 163.688 50.233C162.903 50.6648 162.284 51.2727 161.83 52.0568C161.386 52.8295 161.165 53.7386 161.165 54.7841V69H152.83ZM179.429 69.4432C177.759 69.4432 176.276 69.1648 174.98 68.608C173.696 68.0398 172.679 67.1875 171.929 66.0511C171.19 64.9034 170.821 63.4659 170.821 61.7386C170.821 60.2841 171.077 59.0568 171.588 58.0568C172.099 57.0568 172.804 56.2443 173.702 55.6193C174.599 54.9943 175.634 54.5227 176.804 54.2045C177.974 53.875 179.224 53.6534 180.554 53.5398C182.043 53.4034 183.241 53.2614 184.151 53.1136C185.06 52.9545 185.719 52.733 186.128 52.4489C186.548 52.1534 186.759 51.7386 186.759 51.2045V51.1193C186.759 50.2443 186.457 49.5682 185.855 49.0909C185.253 48.6136 184.44 48.375 183.418 48.375C182.315 48.375 181.429 48.6136 180.759 49.0909C180.088 49.5682 179.662 50.2273 179.48 51.0682L171.793 50.7955C172.02 49.2045 172.605 47.7841 173.548 46.5341C174.503 45.2727 175.81 44.2841 177.469 43.5682C179.139 42.8409 181.145 42.4773 183.486 42.4773C185.156 42.4773 186.696 42.6761 188.105 43.0739C189.514 43.4602 190.741 44.0284 191.787 44.7784C192.832 45.517 193.639 46.4261 194.207 47.5057C194.787 48.5852 195.077 49.8182 195.077 51.2045V69H187.236V65.3523H187.031C186.565 66.2386 185.969 66.9886 185.241 67.6023C184.526 68.2159 183.679 68.6761 182.702 68.983C181.736 69.2898 180.645 69.4432 179.429 69.4432ZM182.003 63.9886C182.901 63.9886 183.707 63.8068 184.423 63.4432C185.151 63.0795 185.73 62.5795 186.162 61.9432C186.594 61.2955 186.81 60.5455 186.81 59.6932V57.2045C186.571 57.3295 186.281 57.4432 185.94 57.5455C185.611 57.6477 185.247 57.7443 184.849 57.8352C184.452 57.9261 184.043 58.0057 183.622 58.0739C183.202 58.142 182.798 58.2045 182.412 58.2614C181.628 58.3864 180.957 58.5795 180.401 58.8409C179.855 59.1023 179.435 59.4432 179.139 59.8636C178.855 60.2727 178.713 60.7614 178.713 61.3295C178.713 62.1932 179.02 62.8523 179.634 63.3068C180.259 63.7614 181.048 63.9886 182.003 63.9886ZM200.173 78.8182V42.8182H208.423V47.3011H208.679C209.02 46.5057 209.503 45.7386 210.128 45C210.764 44.2614 211.571 43.6591 212.548 43.1932C213.537 42.7159 214.719 42.4773 216.094 42.4773C217.912 42.4773 219.611 42.9545 221.19 43.9091C222.781 44.8636 224.065 46.3352 225.043 48.3239C226.02 50.3125 226.509 52.8466 226.509 55.9261C226.509 58.892 226.037 61.375 225.094 63.375C224.162 65.375 222.901 66.875 221.31 67.875C219.73 68.875 217.974 69.375 216.043 69.375C214.724 69.375 213.582 69.1591 212.616 68.7273C211.651 68.2955 210.838 67.7273 210.179 67.0227C209.531 66.3182 209.031 65.5625 208.679 64.7557H208.509V78.8182H200.173ZM208.338 55.9091C208.338 57.3182 208.526 58.5455 208.901 59.5909C209.287 60.6364 209.838 61.4489 210.554 62.0284C211.281 62.5966 212.151 62.8807 213.162 62.8807C214.185 62.8807 215.054 62.5966 215.77 62.0284C216.486 61.4489 217.026 60.6364 217.389 59.5909C217.764 58.5455 217.952 57.3182 217.952 55.9091C217.952 54.5 217.764 53.2784 217.389 52.2443C217.026 51.2102 216.486 50.4091 215.77 49.8409C215.065 49.2727 214.196 48.9886 213.162 48.9886C212.139 48.9886 211.27 49.267 210.554 49.8239C209.838 50.3807 209.287 51.1761 208.901 52.2102C208.526 53.2443 208.338 54.4773 208.338 55.9091Z" fill="#002855"/>
<path d="M32.3523 34.0909H33.3523V33.0909H32.3523V34.0909ZM32.3523 69V70H33.3523V69H32.3523ZM25.1932 69L24.3699 69.5677L24.668 70H25.1932V69ZM11.3011 48.8523L12.1244 48.2846L11.8263 47.8523H11.3011V48.8523ZM11.0795 48.8523V47.8523H10.0795V48.8523H11.0795ZM11.0795 69V70H12.0795V69H11.0795ZM2.64205 69H1.64205V70H2.64205V69ZM2.64205 34.0909V33.0909H1.64205V34.0909H2.64205ZM9.90341 34.0909L10.7292 33.5269L10.4314 33.0909H9.90341V34.0909ZM23.642 54.2045L22.8163 54.7686L23.1141 55.2045H23.642V54.2045ZM23.9318 54.2045V55.2045H24.9318V54.2045H23.9318ZM23.9318 34.0909V33.0909H22.9318V34.0909H23.9318ZM31.3523 34.0909V69H33.3523V34.0909H31.3523ZM32.3523 68H25.1932V70H32.3523V68ZM26.0165 68.4323L12.1244 48.2846L10.4779 49.4199L24.3699 69.5677L26.0165 68.4323ZM11.3011 47.8523H11.0795V49.8523H11.3011V47.8523ZM10.0795 48.8523V69H12.0795V48.8523H10.0795ZM11.0795 68H2.64205V70H11.0795V68ZM3.64205 69V34.0909H1.64205V69H3.64205ZM2.64205 35.0909H9.90341V33.0909H2.64205V35.0909ZM9.07766 34.6549L22.8163 54.7686L24.4678 53.6405L10.7292 33.5269L9.07766 34.6549ZM23.642 55.2045H23.9318V53.2045H23.642V55.2045ZM24.9318 54.2045V34.0909H22.9318V54.2045H24.9318ZM23.9318 35.0909H32.3523V33.0909H23.9318V35.0909ZM40.5895 68.608L40.1848 69.5225L40.1946 69.5267L40.5895 68.608ZM37.5384 66.0511L36.6974 66.5924L36.7037 66.602L37.5384 66.0511ZM37.1974 58.0568L36.3071 57.6015L36.3071 57.6015L37.1974 58.0568ZM39.3111 55.6193L39.8824 56.44L39.8824 56.44L39.3111 55.6193ZM42.4134 54.2045L42.6757 55.1696L42.6844 55.1671L42.4134 54.2045ZM46.1634 53.5398L46.2485 54.5362L46.2546 54.5356L46.1634 53.5398ZM49.7599 53.1136L49.9204 54.1008L49.9323 54.0987L49.7599 53.1136ZM51.7372 52.4489L52.3076 53.2702L52.3122 53.2671L51.7372 52.4489ZM51.4645 49.0909L52.0856 48.3072L52.0856 48.3072L51.4645 49.0909ZM46.3679 49.0909L45.788 48.2762L45.788 48.2762L46.3679 49.0909ZM45.0895 51.0682L45.054 52.0676L45.8901 52.0972L46.0669 51.2795L45.0895 51.0682ZM37.402 50.7955L36.412 50.654L36.2547 51.7554L37.3665 51.7948L37.402 50.7955ZM39.1577 46.5341L38.3603 45.9306L38.3594 45.9318L39.1577 46.5341ZM43.0781 43.5682L43.4743 44.4864L43.4773 44.4851L43.0781 43.5682ZM53.7145 43.0739L53.4428 44.0363L53.4501 44.0383L53.7145 43.0739ZM57.3963 44.7784L56.8134 45.591L56.8193 45.5951L57.3963 44.7784ZM59.8168 47.5057L58.9318 47.9714L58.9357 47.9787L59.8168 47.5057ZM60.6861 69V70H61.6861V69H60.6861ZM52.8452 69H51.8452V70H52.8452V69ZM52.8452 65.3523H53.8452V64.3523H52.8452V65.3523ZM52.6406 65.3523V64.3523H52.0365L51.7555 64.887L52.6406 65.3523ZM50.8509 67.6023L50.206 66.838L50.2001 66.843L50.8509 67.6023ZM48.3111 68.983L48.0115 68.0289L48.0083 68.0299L48.3111 68.983ZM50.0327 63.4432L49.5854 62.5487L49.5798 62.5516L50.0327 63.4432ZM51.7713 61.9432L52.5988 62.5047L52.6034 62.4979L51.7713 61.9432ZM52.419 57.2045H53.419V55.5519L51.955 56.3187L52.419 57.2045ZM51.5497 57.5455L51.2624 56.5876L51.2533 56.5904L51.5497 57.5455ZM49.2315 58.0739L49.3916 59.061L49.3916 59.061L49.2315 58.0739ZM48.0213 58.2614L47.8758 57.2719L47.8639 57.2738L48.0213 58.2614ZM46.0099 58.8409L45.585 57.9356L45.5778 57.9391L46.0099 58.8409ZM44.7486 59.8636L43.9304 59.2887L43.9272 59.2932L44.7486 59.8636ZM45.2429 63.3068L44.6476 64.1104L44.6547 64.1156L45.2429 63.3068ZM45.0384 68.4432C43.479 68.4432 42.1343 68.1835 40.9844 67.6892L40.1946 69.5267C41.6356 70.1461 43.2568 70.4432 45.0384 70.4432V68.4432ZM40.9941 67.6935C39.8794 67.2003 39.014 66.4716 38.373 65.5003L36.7037 66.602C37.5627 67.9034 38.7314 68.8793 40.1849 69.5224L40.9941 67.6935ZM38.3793 65.51C37.7689 64.5615 37.4304 63.3246 37.4304 61.7386H35.4304C35.4304 63.6072 35.8306 65.2453 36.6974 66.5923L38.3793 65.51ZM37.4304 61.7386C37.4304 60.3972 37.6666 59.3358 38.0878 58.5121L36.3071 57.6015C35.7056 58.7778 35.4304 60.171 35.4304 61.7386H37.4304ZM38.0878 58.5121C38.5265 57.6542 39.1231 56.9687 39.8824 56.44L38.7397 54.7986C37.7036 55.52 36.8911 56.4595 36.3071 57.6015L38.0878 58.5121ZM39.8824 56.44C40.6765 55.8872 41.6038 55.4609 42.6757 55.1695L42.151 53.2396C40.882 53.5845 39.7411 54.1015 38.7397 54.7986L39.8824 56.44ZM42.6844 55.1671C43.7885 54.8562 44.9758 54.6449 46.2485 54.5361L46.0782 52.5434C44.6918 52.6619 43.3791 52.8938 42.1423 53.242L42.6844 55.1671ZM46.2546 54.5356C47.754 54.3982 48.9787 54.2537 49.9203 54.1007L49.5995 52.1266C48.723 52.269 47.5499 52.4086 46.0721 52.5439L46.2546 54.5356ZM49.9323 54.0987C50.8828 53.9323 51.7166 53.6807 52.3076 53.2702L51.1668 51.6275C50.9397 51.7852 50.4553 51.9768 49.5876 52.1286L49.9323 54.0987ZM52.3122 53.2671C53.0113 52.7758 53.3679 52.0491 53.3679 51.2045H51.3679C51.3679 51.4282 51.3041 51.531 51.1623 51.6307L52.3122 53.2671ZM53.3679 51.2045V51.1193H51.3679V51.2045H53.3679ZM53.3679 51.1193C53.3679 49.9868 52.9624 49.002 52.0856 48.3072L50.8434 49.8747C51.1711 50.1344 51.3679 50.5018 51.3679 51.1193H53.3679ZM52.0856 48.3072C51.2558 47.6496 50.2006 47.375 49.027 47.375V49.375C49.8989 49.375 50.4686 49.5776 50.8434 49.8747L52.0856 48.3072ZM49.027 47.375C47.7864 47.375 46.6768 47.6435 45.788 48.2762L46.9478 49.9056C47.4 49.5837 48.0631 49.375 49.027 49.375V47.375ZM45.788 48.2762C44.9046 48.9051 44.3439 49.7845 44.1121 50.8568L46.0669 51.2795C46.1987 50.6701 46.4903 50.2312 46.9478 49.9056L45.788 48.2762ZM45.1249 50.0688L37.4374 49.7961L37.3665 51.7948L45.054 52.0676L45.1249 50.0688ZM38.3919 50.9369C38.596 49.5087 39.1173 48.2478 39.9559 47.1364L38.3594 45.9318C37.3116 47.3204 36.6626 48.9003 36.412 50.654L38.3919 50.9369ZM39.9551 47.1375C40.7912 46.0326 41.951 45.1437 43.4743 44.4863L42.6819 42.65C40.8871 43.4245 39.4332 44.5129 38.3603 45.9306L39.9551 47.1375ZM43.4773 44.4851C44.9914 43.8258 46.8541 43.4773 49.0952 43.4773V41.4773C46.6545 41.4773 44.5057 41.856 42.6789 42.6513L43.4773 44.4851ZM49.0952 43.4773C50.6864 43.4773 52.1336 43.6667 53.4428 44.0363L53.9861 42.1115C52.4772 41.6856 50.8448 41.4773 49.0952 41.4773V43.4773ZM53.4501 44.0383C54.7602 44.3975 55.8764 44.9187 56.8134 45.5909L57.9792 43.9659C56.8253 43.1381 55.487 42.523 53.9789 42.1095L53.4501 44.0383ZM56.8193 45.5951C57.7424 46.2473 58.4408 47.0385 58.9318 47.9714L60.7017 47.0399C60.0564 45.8138 59.1411 44.7868 57.9733 43.9617L56.8193 45.5951ZM58.9357 47.9787C59.4274 48.8946 59.6861 49.9613 59.6861 51.2045H61.6861C61.6861 49.6751 61.3652 48.2759 60.6978 47.0327L58.9357 47.9787ZM59.6861 51.2045V69H61.6861V51.2045H59.6861ZM60.6861 68H52.8452V70H60.6861V68ZM53.8452 69V65.3523H51.8452V69H53.8452ZM52.8452 64.3523H52.6406V66.3523H52.8452V64.3523ZM51.7555 64.887C51.3464 65.6652 50.8295 66.3119 50.206 66.838L51.4957 68.3666C52.3267 67.6654 53.003 66.8121 53.5258 65.8176L51.7555 64.887ZM50.2001 66.843C49.5954 67.3613 48.871 67.759 48.0115 68.0289L48.6106 69.937C49.7057 69.5932 50.6744 69.0706 51.5016 68.3615L50.2001 66.843ZM48.0083 68.0299C47.1576 68.3001 46.1714 68.4432 45.0384 68.4432V70.4432C46.3371 70.4432 47.5327 70.2794 48.6138 69.936L48.0083 68.0299ZM47.6122 64.9886C48.6485 64.9886 49.6135 64.7777 50.4855 64.3348L49.5798 62.5516C49.0201 62.8359 48.3714 62.9886 47.6122 62.9886V64.9886ZM50.4799 64.3376C51.3512 63.9019 52.0653 63.2909 52.5988 62.5047L50.9438 61.3817C50.6137 61.8682 50.1687 62.2572 49.5855 62.5488L50.4799 64.3376ZM52.6034 62.4979C53.155 61.6704 53.419 60.7234 53.419 59.6932H51.419C51.419 60.3675 51.2512 60.9205 50.9393 61.3885L52.6034 62.4979ZM53.419 59.6932V57.2045H51.419V59.6932H53.419ZM51.955 56.3187C51.7875 56.4065 51.5604 56.4982 51.2624 56.5876L51.8371 58.5033C52.2208 58.3881 52.5733 58.2526 52.883 58.0904L51.955 56.3187ZM51.2533 56.5904C50.9519 56.6839 50.6133 56.7741 50.236 56.8604L50.6816 58.8101C51.0998 58.7145 51.4884 58.6115 51.8461 58.5005L51.2533 56.5904ZM50.236 56.8604C49.8599 56.9463 49.4718 57.0218 49.0715 57.0868L49.3916 59.061C49.8322 58.9895 50.2622 58.9059 50.6816 58.8101L50.236 56.8604ZM49.0715 57.0868C48.6554 57.1542 48.2569 57.216 47.8758 57.272L48.1668 59.2507C48.5584 59.1931 48.9667 59.1299 49.3916 59.061L49.0715 57.0868ZM47.8639 57.2738C47.0126 57.4095 46.2472 57.6249 45.585 57.9357L46.4349 59.7461C46.8863 59.5342 47.4619 59.3632 48.1787 59.2489L47.8639 57.2738ZM45.5778 57.9391C44.9053 58.2614 44.3405 58.705 43.9304 59.2887L45.5668 60.4386C45.7475 60.1814 46.0237 59.9432 46.4421 59.7427L45.5778 57.9391ZM43.9272 59.2932C43.5109 59.8927 43.3224 60.5872 43.3224 61.3295H45.3224C45.3224 60.9355 45.418 60.6528 45.5699 60.434L43.9272 59.2932ZM43.3224 61.3295C43.3224 62.4624 43.7435 63.4406 44.6477 64.1104L45.8381 62.5033C45.5151 62.264 45.3224 61.9239 45.3224 61.3295H43.3224ZM44.6547 64.1156C45.4874 64.7211 46.4968 64.9886 47.6122 64.9886V62.9886C46.8186 62.9886 46.2484 62.8016 45.8311 62.4981L44.6547 64.1156ZM65.7827 69H64.7827V70H65.7827V69ZM65.7827 42.8182V41.8182H64.7827V42.8182H65.7827ZM74.1179 42.8182H75.1179V41.8182H74.1179V42.8182ZM74.1179 69V70H75.1179V69H74.1179ZM66.9418 38.608L66.2598 39.3394L66.2651 39.3443L66.9418 38.608ZM66.9418 32.983L67.6184 33.7193L67.6237 33.7143L66.9418 32.983ZM72.9759 32.983L72.2889 33.7098L72.2992 33.7193L72.9759 32.983ZM72.9759 38.608L73.6575 39.3397L73.6578 39.3393L72.9759 38.608ZM66.7827 69V42.8182H64.7827V69H66.7827ZM65.7827 43.8182H74.1179V41.8182H65.7827V43.8182ZM73.1179 42.8182V69H75.1179V42.8182H73.1179ZM74.1179 68H65.7827V70H74.1179V68ZM69.9588 38.767C69.0321 38.767 68.2697 38.4702 67.6184 37.8716L66.2651 39.3443C67.2956 40.2912 68.5446 40.767 69.9588 40.767V38.767ZM67.6237 37.8766C66.9758 37.2724 66.6804 36.5901 66.6804 35.7784H64.6804C64.6804 37.1712 65.2259 38.3753 66.2598 39.3393L67.6237 37.8766ZM66.6804 35.7784C66.6804 34.9819 66.9727 34.3127 67.6184 33.7193L66.2651 32.2466C65.229 33.1987 64.6804 34.3931 64.6804 35.7784H66.6804ZM67.6237 33.7143C68.2758 33.1063 69.0364 32.8068 69.9588 32.8068V30.8068C68.5403 30.8068 67.2895 31.2914 66.2598 32.2516L67.6237 33.7143ZM69.9588 32.8068C70.8952 32.8068 71.6522 33.1078 72.2889 33.7097L73.6628 32.2562C72.6404 31.2899 71.3861 30.8068 69.9588 30.8068V32.8068ZM72.2992 33.7193C72.945 34.3127 73.2372 34.9819 73.2372 35.7784H75.2372C75.2372 34.3931 74.6886 33.1987 73.6525 32.2466L72.2992 33.7193ZM73.2372 35.7784C73.2372 36.5901 72.9418 37.2724 72.2939 37.8766L73.6578 39.3393C74.6917 38.3753 75.2372 37.1712 75.2372 35.7784H73.2372ZM72.2942 37.8762C71.6583 38.4686 70.8995 38.767 69.9588 38.767V40.767C71.3817 40.767 72.6343 40.2927 73.6575 39.3397L72.2942 37.8762ZM87.7585 34.0909H88.7585V33.0909H87.7585V34.0909ZM87.7585 69V70H88.7585V69H87.7585ZM79.4233 69H78.4233V70H79.4233V69ZM79.4233 34.0909V33.0909H78.4233V34.0909H79.4233ZM86.7585 34.0909V69H88.7585V34.0909H86.7585ZM87.7585 68H79.4233V70H87.7585V68ZM80.4233 69V34.0909H78.4233V69H80.4233ZM79.4233 35.0909H87.7585V33.0909H79.4233V35.0909ZM111.746 69L110.786 69.2794L110.995 70H111.746V69ZM101.587 34.0909V33.0909H100.254L100.626 34.3703L101.587 34.0909ZM110.911 34.0909L111.885 33.8665L111.706 33.0909H110.911V34.0909ZM116.178 56.9659L115.203 57.1903L115.382 57.9659H116.178V56.9659ZM116.467 56.9659V57.9659H117.238L117.434 57.2203L116.467 56.9659ZM122.484 34.0909V33.0909H121.713L121.517 33.8365L122.484 34.0909ZM130.087 34.0909L131.054 33.8371L130.858 33.0909H130.087V34.0909ZM136.104 57.017L135.136 57.2709L135.332 58.017H136.104V57.017ZM136.393 57.017V58.017H137.189L137.368 57.2416L136.393 57.017ZM141.678 34.0909V33.0909H140.882L140.703 33.8663L141.678 34.0909ZM150.984 34.0909L151.945 34.3699L152.316 33.0909H150.984V34.0909ZM140.842 69V70H141.593L141.803 69.279L140.842 69ZM132.712 69L131.753 69.2848L131.966 70H132.712V69ZM126.422 47.8295L127.38 47.5447L127.168 46.8295H126.422V47.8295ZM126.149 47.8295V46.8295H125.403L125.191 47.5447L126.149 47.8295ZM119.859 69V70H120.605L120.818 69.2848L119.859 69ZM112.706 68.7206L102.547 33.8115L100.626 34.3703L110.786 69.2794L112.706 68.7206ZM101.587 35.0909H110.911V33.0909H101.587V35.0909ZM109.936 34.3153L115.203 57.1903L117.152 56.7415L111.885 33.8665L109.936 34.3153ZM116.178 57.9659H116.467V55.9659H116.178V57.9659ZM117.434 57.2203L123.451 34.3453L121.517 33.8365L115.5 56.7115L117.434 57.2203ZM122.484 35.0909H130.087V33.0909H122.484V35.0909ZM129.119 34.3448L135.136 57.2709L137.071 56.7632L131.054 33.8371L129.119 34.3448ZM136.104 58.017H136.393V56.017H136.104V58.017ZM137.368 57.2416L142.652 34.3155L140.703 33.8663L135.419 56.7925L137.368 57.2416ZM141.678 35.0909H150.984V33.0909H141.678V35.0909ZM150.024 33.8119L139.882 68.721L141.803 69.279L151.945 34.3699L150.024 33.8119ZM140.842 68H132.712V70H140.842V68ZM133.67 68.7152L127.38 47.5447L125.463 48.1143L131.753 69.2848L133.67 68.7152ZM126.422 46.8295H126.149V48.8295H126.422V46.8295ZM125.191 47.5447L118.901 68.7152L120.818 69.2848L127.108 48.1143L125.191 47.5447ZM119.859 68H111.746V70H119.859V68ZM152.83 69H151.83V70H152.83V69ZM152.83 42.8182V41.8182H151.83V42.8182H152.83ZM160.926 42.8182H161.926V41.8182H160.926V42.8182ZM160.926 47.5909H159.926V48.5909H160.926V47.5909ZM161.199 47.5909V48.5909H161.96L162.163 47.8572L161.199 47.5909ZM163.534 43.7386L164.149 44.5276L164.154 44.5235L163.534 43.7386ZM168.494 42.5455L168.357 43.5359L168.37 43.5378L168.384 43.5393L168.494 42.5455ZM169.636 42.767H170.636V42.0161L169.915 41.8067L169.636 42.767ZM169.636 50.0114L169.312 50.9573L170.636 51.4114V50.0114H169.636ZM168.068 49.6875L167.944 50.6798L167.946 50.68L168.068 49.6875ZM163.688 50.233L164.17 51.1089L164.174 51.1065L163.688 50.233ZM161.83 52.0568L160.964 51.5553L160.962 51.5593L161.83 52.0568ZM161.165 69V70H162.165V69H161.165ZM153.83 69V42.8182H151.83V69H153.83ZM152.83 43.8182H160.926V41.8182H152.83V43.8182ZM159.926 42.8182V47.5909H161.926V42.8182H159.926ZM160.926 48.5909H161.199V46.5909H160.926V48.5909ZM162.163 47.8572C162.6 46.2732 163.284 45.2006 164.149 44.5275L162.92 42.9497C161.625 43.9584 160.752 45.4541 160.235 47.3246L162.163 47.8572ZM164.154 44.5235C165.049 43.8166 166.084 43.4602 167.301 43.4602V41.4602C165.654 41.4602 164.178 41.9561 162.914 42.9538L164.154 44.5235ZM167.301 43.4602C167.638 43.4602 167.99 43.485 168.357 43.5359L168.632 41.555C168.18 41.4922 167.737 41.4602 167.301 41.4602V43.4602ZM168.384 43.5393C168.743 43.5792 169.067 43.6429 169.358 43.7274L169.915 41.8067C169.502 41.6866 169.064 41.6026 168.605 41.5516L168.384 43.5393ZM168.636 42.767V50.0114H170.636V42.767H168.636ZM169.961 49.0654C169.472 48.8978 168.873 48.7789 168.19 48.695L167.946 50.68C168.558 50.7552 169.006 50.8522 169.312 50.9573L169.961 49.0654ZM168.192 48.6952C167.526 48.6119 166.915 48.5682 166.364 48.5682V50.5682C166.813 50.5682 167.338 50.604 167.944 50.6798L168.192 48.6952ZM166.364 48.5682C165.22 48.5682 164.158 48.8263 163.201 49.3594L164.174 51.1065C164.808 50.7533 165.53 50.5682 166.364 50.5682V48.5682ZM163.205 49.357C162.26 49.8777 161.509 50.616 160.964 51.5553L162.695 52.5583C163.059 51.9295 163.547 51.4519 164.17 51.1089L163.205 49.357ZM160.962 51.5593C160.418 52.5079 160.165 53.5946 160.165 54.7841H162.165C162.165 53.8827 162.355 53.1512 162.697 52.5543L160.962 51.5593ZM160.165 54.7841V69H162.165V54.7841H160.165ZM161.165 68H152.83V70H161.165V68ZM174.98 68.608L174.575 69.5225L174.585 69.5267L174.98 68.608ZM171.929 66.0511L171.088 66.5924L171.094 66.602L171.929 66.0511ZM171.588 58.0568L170.698 57.6015L170.698 57.6015L171.588 58.0568ZM173.702 55.6193L174.273 56.44L174.273 56.44L173.702 55.6193ZM176.804 54.2045L177.066 55.1696L177.075 55.1671L176.804 54.2045ZM180.554 53.5398L180.639 54.5362L180.645 54.5356L180.554 53.5398ZM184.151 53.1136L184.311 54.1008L184.323 54.0987L184.151 53.1136ZM186.128 52.4489L186.698 53.2702L186.703 53.2671L186.128 52.4489ZM185.855 49.0909L186.476 48.3072L186.476 48.3072L185.855 49.0909ZM180.759 49.0909L180.179 48.2762L180.179 48.2762L180.759 49.0909ZM179.48 51.0682L179.445 52.0676L180.281 52.0972L180.458 51.2795L179.48 51.0682ZM171.793 50.7955L170.803 50.654L170.645 51.7554L171.757 51.7948L171.793 50.7955ZM173.548 46.5341L172.751 45.9306L172.75 45.9318L173.548 46.5341ZM177.469 43.5682L177.865 44.4864L177.868 44.4851L177.469 43.5682ZM188.105 43.0739L187.833 44.0363L187.841 44.0383L188.105 43.0739ZM191.787 44.7784L191.204 45.591L191.21 45.5951L191.787 44.7784ZM194.207 47.5057L193.322 47.9714L193.326 47.9787L194.207 47.5057ZM195.077 69V70H196.077V69H195.077ZM187.236 69H186.236V70H187.236V69ZM187.236 65.3523H188.236V64.3523H187.236V65.3523ZM187.031 65.3523V64.3523H186.427L186.146 64.887L187.031 65.3523ZM185.241 67.6023L184.597 66.838L184.591 66.843L185.241 67.6023ZM182.702 68.983L182.402 68.0289L182.399 68.0299L182.702 68.983ZM184.423 63.4432L183.976 62.5487L183.97 62.5516L184.423 63.4432ZM186.162 61.9432L186.989 62.5047L186.994 62.4979L186.162 61.9432ZM186.81 57.2045H187.81V55.5519L186.346 56.3187L186.81 57.2045ZM185.94 57.5455L185.653 56.5876L185.644 56.5904L185.94 57.5455ZM183.622 58.0739L183.782 59.061L183.782 59.061L183.622 58.0739ZM182.412 58.2614L182.266 57.2719L182.255 57.2738L182.412 58.2614ZM180.401 58.8409L179.976 57.9356L179.968 57.9391L180.401 58.8409ZM179.139 59.8636L178.321 59.2887L178.318 59.2932L179.139 59.8636ZM179.634 63.3068L179.038 64.1104L179.045 64.1156L179.634 63.3068ZM179.429 68.4432C177.87 68.4432 176.525 68.1835 175.375 67.6892L174.585 69.5267C176.026 70.1461 177.647 70.4432 179.429 70.4432V68.4432ZM175.385 67.6935C174.27 67.2003 173.405 66.4716 172.764 65.5003L171.094 66.602C171.953 67.9034 173.122 68.8793 174.575 69.5224L175.385 67.6935ZM172.77 65.51C172.159 64.5615 171.821 63.3246 171.821 61.7386H169.821C169.821 63.6072 170.221 65.2453 171.088 66.5923L172.77 65.51ZM171.821 61.7386C171.821 60.3972 172.057 59.3358 172.478 58.5121L170.698 57.6015C170.096 58.7778 169.821 60.171 169.821 61.7386H171.821ZM172.478 58.5121C172.917 57.6542 173.514 56.9687 174.273 56.44L173.13 54.7986C172.094 55.52 171.282 56.4595 170.698 57.6015L172.478 58.5121ZM174.273 56.44C175.067 55.8872 175.994 55.4609 177.066 55.1695L176.542 53.2396C175.273 53.5845 174.132 54.1015 173.13 54.7986L174.273 56.44ZM177.075 55.1671C178.179 54.8562 179.366 54.6449 180.639 54.5361L180.469 52.5434C179.082 52.6619 177.77 52.8938 176.533 53.242L177.075 55.1671ZM180.645 54.5356C182.145 54.3982 183.369 54.2537 184.311 54.1007L183.99 52.1266C183.114 52.269 181.941 52.4086 180.463 52.5439L180.645 54.5356ZM184.323 54.0987C185.273 53.9323 186.107 53.6807 186.698 53.2702L185.557 51.6275C185.33 51.7852 184.846 51.9768 183.978 52.1286L184.323 54.0987ZM186.703 53.2671C187.402 52.7758 187.759 52.0491 187.759 51.2045H185.759C185.759 51.4282 185.695 51.531 185.553 51.6307L186.703 53.2671ZM187.759 51.2045V51.1193H185.759V51.2045H187.759ZM187.759 51.1193C187.759 49.9868 187.353 49.002 186.476 48.3072L185.234 49.8747C185.562 50.1344 185.759 50.5018 185.759 51.1193H187.759ZM186.476 48.3072C185.646 47.6496 184.591 47.375 183.418 47.375V49.375C184.289 49.375 184.859 49.5776 185.234 49.8747L186.476 48.3072ZM183.418 47.375C182.177 47.375 181.067 47.6435 180.179 48.2762L181.338 49.9056C181.791 49.5837 182.454 49.375 183.418 49.375V47.375ZM180.179 48.2762C179.295 48.9051 178.735 49.7845 178.503 50.8568L180.458 51.2795C180.589 50.6701 180.881 50.2312 181.338 49.9056L180.179 48.2762ZM179.516 50.0688L171.828 49.7961L171.757 51.7948L179.445 52.0676L179.516 50.0688ZM172.783 50.9369C172.987 49.5087 173.508 48.2478 174.347 47.1364L172.75 45.9318C171.702 47.3204 171.053 48.9003 170.803 50.654L172.783 50.9369ZM174.346 47.1375C175.182 46.0326 176.342 45.1437 177.865 44.4863L177.073 42.65C175.278 43.4245 173.824 44.5129 172.751 45.9306L174.346 47.1375ZM177.868 44.4851C179.382 43.8258 181.245 43.4773 183.486 43.4773V41.4773C181.045 41.4773 178.896 41.856 177.07 42.6513L177.868 44.4851ZM183.486 43.4773C185.077 43.4773 186.524 43.6667 187.833 44.0363L188.377 42.1115C186.868 41.6856 185.235 41.4773 183.486 41.4773V43.4773ZM187.841 44.0383C189.151 44.3975 190.267 44.9187 191.204 45.5909L192.37 43.9659C191.216 43.1381 189.878 42.523 188.37 42.1095L187.841 44.0383ZM191.21 45.5951C192.133 46.2473 192.831 47.0385 193.322 47.9714L195.092 47.0399C194.447 45.8138 193.532 44.7868 192.364 43.9617L191.21 45.5951ZM193.326 47.9787C193.818 48.8946 194.077 49.9613 194.077 51.2045H196.077C196.077 49.6751 195.756 48.2759 195.088 47.0327L193.326 47.9787ZM194.077 51.2045V69H196.077V51.2045H194.077ZM195.077 68H187.236V70H195.077V68ZM188.236 69V65.3523H186.236V69H188.236ZM187.236 64.3523H187.031V66.3523H187.236V64.3523ZM186.146 64.887C185.737 65.6652 185.22 66.3119 184.597 66.838L185.886 68.3666C186.717 67.6654 187.394 66.8121 187.916 65.8176L186.146 64.887ZM184.591 66.843C183.986 67.3613 183.262 67.759 182.402 68.0289L183.001 69.937C184.096 69.5932 185.065 69.0706 185.892 68.3615L184.591 66.843ZM182.399 68.0299C181.548 68.3001 180.562 68.4432 179.429 68.4432V70.4432C180.728 70.4432 181.923 70.2794 183.004 69.936L182.399 68.0299ZM182.003 64.9886C183.039 64.9886 184.004 64.7777 184.876 64.3348L183.97 62.5516C183.411 62.8359 182.762 62.9886 182.003 62.9886V64.9886ZM184.871 64.3376C185.742 63.9019 186.456 63.2909 186.989 62.5047L185.334 61.3817C185.004 61.8682 184.559 62.2572 183.976 62.5488L184.871 64.3376ZM186.994 62.4979C187.546 61.6704 187.81 60.7234 187.81 59.6932H185.81C185.81 60.3675 185.642 60.9205 185.33 61.3885L186.994 62.4979ZM187.81 59.6932V57.2045H185.81V59.6932H187.81ZM186.346 56.3187C186.178 56.4065 185.951 56.4982 185.653 56.5876L186.228 58.5033C186.611 58.3881 186.964 58.2526 187.274 58.0904L186.346 56.3187ZM185.644 56.5904C185.343 56.6839 185.004 56.7741 184.627 56.8604L185.072 58.8101C185.49 58.7145 185.879 58.6115 186.237 58.5005L185.644 56.5904ZM184.627 56.8604C184.251 56.9463 183.862 57.0218 183.462 57.0868L183.782 59.061C184.223 58.9895 184.653 58.9059 185.072 58.8101L184.627 56.8604ZM183.462 57.0868C183.046 57.1542 182.648 57.216 182.266 57.272L182.557 59.2507C182.949 59.1931 183.357 59.1299 183.782 59.061L183.462 57.0868ZM182.255 57.2738C181.403 57.4095 180.638 57.6249 179.976 57.9357L180.825 59.7461C181.277 59.5342 181.852 59.3632 182.569 59.2489L182.255 57.2738ZM179.968 57.9391C179.296 58.2614 178.731 58.705 178.321 59.2887L179.957 60.4386C180.138 60.1814 180.414 59.9432 180.833 59.7427L179.968 57.9391ZM178.318 59.2932C177.902 59.8927 177.713 60.5872 177.713 61.3295H179.713C179.713 60.9355 179.809 60.6528 179.961 60.434L178.318 59.2932ZM177.713 61.3295C177.713 62.4624 178.134 63.4406 179.038 64.1104L180.229 62.5033C179.906 62.264 179.713 61.9239 179.713 61.3295H177.713ZM179.045 64.1156C179.878 64.7211 180.887 64.9886 182.003 64.9886V62.9886C181.209 62.9886 180.639 62.8016 180.222 62.4981L179.045 64.1156ZM200.173 78.8182H199.173V79.8182H200.173V78.8182ZM200.173 42.8182V41.8182H199.173V42.8182H200.173ZM208.423 42.8182H209.423V41.8182H208.423V42.8182ZM208.423 47.3011H207.423V48.3011H208.423V47.3011ZM208.679 47.3011V48.3011H209.338L209.598 47.6951L208.679 47.3011ZM210.128 45L209.37 44.3473L209.364 44.3541L210.128 45ZM212.548 43.1932L212.979 44.0959L212.983 44.0937L212.548 43.1932ZM221.19 43.9091L220.673 44.765L220.676 44.7666L221.19 43.9091ZM225.043 48.3239L225.94 47.8828L225.94 47.8828L225.043 48.3239ZM225.094 63.375L224.189 62.9485L224.187 62.9527L225.094 63.375ZM221.31 67.875L220.777 67.0284L220.775 67.0301L221.31 67.875ZM212.616 68.7273L212.208 69.6402L212.208 69.6402L212.616 68.7273ZM210.179 67.0227L209.443 67.6996L209.449 67.7059L210.179 67.0227ZM208.679 64.7557L209.595 64.3555L209.334 63.7557H208.679V64.7557ZM208.509 64.7557V63.7557H207.509V64.7557H208.509ZM208.509 78.8182V79.8182H209.509V78.8182H208.509ZM208.901 59.5909L207.959 59.9286L207.963 59.9376L208.901 59.5909ZM210.554 62.0284L209.925 62.8057L209.932 62.8111L209.938 62.8164L210.554 62.0284ZM215.77 62.0284L216.392 62.8117L216.399 62.8057L215.77 62.0284ZM217.389 59.5909L216.448 59.2533L216.445 59.2624L217.389 59.5909ZM217.389 52.2443L216.446 52.5761L216.449 52.5852L217.389 52.2443ZM215.77 49.8409L215.142 50.6193L215.148 50.6242L215.77 49.8409ZM210.554 49.8239L209.94 49.0345L209.94 49.0345L210.554 49.8239ZM208.901 52.2102L207.964 51.8602L207.96 51.8693L208.901 52.2102ZM201.173 78.8182V42.8182H199.173V78.8182H201.173ZM200.173 43.8182H208.423V41.8182H200.173V43.8182ZM207.423 42.8182V47.3011H209.423V42.8182H207.423ZM208.423 48.3011H208.679V46.3011H208.423V48.3011ZM209.598 47.6951C209.896 47.0009 210.323 46.3176 210.891 45.6459L209.364 44.3541C208.683 45.1597 208.144 46.0104 207.76 46.9072L209.598 47.6951ZM210.885 45.6527C211.422 45.0303 212.113 44.5087 212.979 44.0958L212.118 42.2905C211.029 42.8095 210.107 43.4925 209.37 44.3473L210.885 45.6527ZM212.983 44.0937C213.806 43.6963 214.832 43.4773 216.094 43.4773V41.4773C214.605 41.4773 213.268 41.7355 212.114 42.2926L212.983 44.0937ZM216.094 43.4773C217.727 43.4773 219.247 43.9032 220.673 44.7649L221.708 43.0532C219.974 42.0059 218.097 41.4773 216.094 41.4773V43.4773ZM220.676 44.7666C222.072 45.6042 223.236 46.915 224.145 48.7649L225.94 47.8828C224.895 45.7554 223.491 44.123 221.705 43.0516L220.676 44.7666ZM224.145 48.7649C225.034 50.5736 225.509 52.9434 225.509 55.9261H227.509C227.509 52.7498 227.006 50.0514 225.94 47.8828L224.145 48.7649ZM225.509 55.9261C225.509 58.7924 225.052 61.1192 224.189 62.9485L225.998 63.8015C227.022 61.6308 227.509 58.9917 227.509 55.9261H225.509ZM224.187 62.9527C223.322 64.8091 222.179 66.1476 220.777 67.0284L221.842 68.7216C223.622 67.6024 225.001 65.9409 226 63.7973L224.187 62.9527ZM220.775 67.0301C219.361 67.9253 217.792 68.375 216.043 68.375V70.375C218.157 70.375 220.099 69.8247 221.845 68.7199L220.775 67.0301ZM216.043 68.375C214.832 68.375 213.835 68.1765 213.025 67.8143L212.208 69.6402C213.33 70.1417 214.617 70.375 216.043 70.375V68.375ZM213.025 67.8143C212.168 67.4316 211.469 66.9378 210.909 66.3396L209.449 67.7059C210.207 68.5167 211.133 69.1593 212.208 69.6402L213.025 67.8143ZM210.915 66.3459C210.336 65.7159 209.9 65.0523 209.595 64.3555L207.763 65.1558C208.163 66.0727 208.727 66.9205 209.443 67.6995L210.915 66.3459ZM208.679 63.7557H208.509V65.7557H208.679V63.7557ZM207.509 64.7557V78.8182H209.509V64.7557H207.509ZM208.509 77.8182H200.173V79.8182H208.509V77.8182ZM207.338 55.9091C207.338 57.4037 207.537 58.7501 207.959 59.9285L209.842 59.2533C209.515 58.3408 209.338 57.2326 209.338 55.9091H207.338ZM207.963 59.9376C208.398 61.1162 209.042 62.0913 209.925 62.8057L211.183 61.2512C210.634 60.8064 210.176 60.1565 209.839 59.2443L207.963 59.9376ZM209.938 62.8164C210.859 63.5353 211.95 63.8807 213.162 63.8807V61.8807C212.351 61.8807 211.704 61.6579 211.17 61.2404L209.938 62.8164ZM213.162 63.8807C214.382 63.8807 215.478 63.5369 216.392 62.8117L215.148 61.2451C214.63 61.6563 213.987 61.8807 213.162 61.8807V63.8807ZM216.399 62.8057C217.287 62.0871 217.921 61.1052 218.334 59.9194L216.445 59.2624C216.13 60.1676 215.685 60.8106 215.141 61.2512L216.399 62.8057ZM218.33 59.9285C218.753 58.7501 218.952 57.4037 218.952 55.9091H216.952C216.952 57.2326 216.775 58.3408 216.448 59.2533L218.33 59.9285ZM218.952 55.9091C218.952 54.4148 218.753 53.0726 218.329 51.9034L216.449 52.5852C216.775 53.4842 216.952 54.5852 216.952 55.9091H218.952ZM218.333 51.9126C217.919 50.7364 217.282 49.7645 216.392 49.0576L215.148 50.6242C215.689 51.0537 216.132 51.684 216.446 52.5761L218.333 51.9126ZM216.398 49.0625C215.49 48.3308 214.39 47.9886 213.162 47.9886V49.9886C214.002 49.9886 214.64 50.2147 215.142 50.6193L216.398 49.0625ZM213.162 47.9886C211.947 47.9886 210.854 48.3239 209.94 49.0345L211.168 50.6132C211.686 50.2102 212.332 49.9886 213.162 49.9886V47.9886ZM209.94 49.0345C209.049 49.7275 208.401 50.6904 207.964 51.8602L209.837 52.5602C210.173 51.6619 210.627 51.0339 211.168 50.6132L209.94 49.0345ZM207.96 51.8693C207.536 53.0401 207.338 54.3942 207.338 55.9091H209.338C209.338 54.5603 209.515 53.4486 209.841 52.5511L207.96 51.8693Z" fill="black" mask="url(#path-1-outside-1_139_524)"/>
<path d="M32.3523 34.0909H33.3523V33.0909H32.3523V34.0909ZM32.3523 69V70H33.3523V69H32.3523ZM25.1932 69L24.3699 69.5677L24.668 70H25.1932V69ZM11.3011 48.8523L12.1244 48.2846L11.8263 47.8523H11.3011V48.8523ZM11.0795 48.8523V47.8523H10.0795V48.8523H11.0795ZM11.0795 69V70H12.0795V69H11.0795ZM2.64205 69H1.64205V70H2.64205V69ZM2.64205 34.0909V33.0909H1.64205V34.0909H2.64205ZM9.90341 34.0909L10.7292 33.5269L10.4314 33.0909H9.90341V34.0909ZM23.642 54.2045L22.8163 54.7686L23.1141 55.2045H23.642V54.2045ZM23.9318 54.2045V55.2045H24.9318V54.2045H23.9318ZM23.9318 34.0909V33.0909H22.9318V34.0909H23.9318ZM31.3523 34.0909V69H33.3523V34.0909H31.3523ZM32.3523 68H25.1932V70H32.3523V68ZM26.0165 68.4323L12.1244 48.2846L10.4779 49.4199L24.3699 69.5677L26.0165 68.4323ZM11.3011 47.8523H11.0795V49.8523H11.3011V47.8523ZM10.0795 48.8523V69H12.0795V48.8523H10.0795ZM11.0795 68H2.64205V70H11.0795V68ZM3.64205 69V34.0909H1.64205V69H3.64205ZM2.64205 35.0909H9.90341V33.0909H2.64205V35.0909ZM9.07766 34.6549L22.8163 54.7686L24.4678 53.6405L10.7292 33.5269L9.07766 34.6549ZM23.642 55.2045H23.9318V53.2045H23.642V55.2045ZM24.9318 54.2045V34.0909H22.9318V54.2045H24.9318ZM23.9318 35.0909H32.3523V33.0909H23.9318V35.0909ZM40.5895 68.608L40.1848 69.5225L40.1946 69.5267L40.5895 68.608ZM37.5384 66.0511L36.6974 66.5924L36.7037 66.602L37.5384 66.0511ZM37.1974 58.0568L36.3071 57.6015L36.3071 57.6015L37.1974 58.0568ZM39.3111 55.6193L39.8824 56.44L39.8824 56.44L39.3111 55.6193ZM42.4134 54.2045L42.6757 55.1696L42.6844 55.1671L42.4134 54.2045ZM46.1634 53.5398L46.2485 54.5362L46.2546 54.5356L46.1634 53.5398ZM49.7599 53.1136L49.9204 54.1008L49.9323 54.0987L49.7599 53.1136ZM51.7372 52.4489L52.3076 53.2702L52.3122 53.2671L51.7372 52.4489ZM51.4645 49.0909L52.0856 48.3072L52.0856 48.3072L51.4645 49.0909ZM46.3679 49.0909L45.788 48.2762L45.788 48.2762L46.3679 49.0909ZM45.0895 51.0682L45.054 52.0676L45.8901 52.0972L46.0669 51.2795L45.0895 51.0682ZM37.402 50.7955L36.412 50.654L36.2547 51.7554L37.3665 51.7948L37.402 50.7955ZM39.1577 46.5341L38.3603 45.9306L38.3594 45.9318L39.1577 46.5341ZM43.0781 43.5682L43.4743 44.4864L43.4773 44.4851L43.0781 43.5682ZM53.7145 43.0739L53.4428 44.0363L53.4501 44.0383L53.7145 43.0739ZM57.3963 44.7784L56.8134 45.591L56.8193 45.5951L57.3963 44.7784ZM59.8168 47.5057L58.9318 47.9714L58.9357 47.9787L59.8168 47.5057ZM60.6861 69V70H61.6861V69H60.6861ZM52.8452 69H51.8452V70H52.8452V69ZM52.8452 65.3523H53.8452V64.3523H52.8452V65.3523ZM52.6406 65.3523V64.3523H52.0365L51.7555 64.887L52.6406 65.3523ZM50.8509 67.6023L50.206 66.838L50.2001 66.843L50.8509 67.6023ZM48.3111 68.983L48.0115 68.0289L48.0083 68.0299L48.3111 68.983ZM50.0327 63.4432L49.5854 62.5487L49.5798 62.5516L50.0327 63.4432ZM51.7713 61.9432L52.5988 62.5047L52.6034 62.4979L51.7713 61.9432ZM52.419 57.2045H53.419V55.5519L51.955 56.3187L52.419 57.2045ZM51.5497 57.5455L51.2624 56.5876L51.2533 56.5904L51.5497 57.5455ZM49.2315 58.0739L49.3916 59.061L49.3916 59.061L49.2315 58.0739ZM48.0213 58.2614L47.8758 57.2719L47.8639 57.2738L48.0213 58.2614ZM46.0099 58.8409L45.585 57.9356L45.5778 57.9391L46.0099 58.8409ZM44.7486 59.8636L43.9304 59.2887L43.9272 59.2932L44.7486 59.8636ZM45.2429 63.3068L44.6476 64.1104L44.6547 64.1156L45.2429 63.3068ZM45.0384 68.4432C43.479 68.4432 42.1343 68.1835 40.9844 67.6892L40.1946 69.5267C41.6356 70.1461 43.2568 70.4432 45.0384 70.4432V68.4432ZM40.9941 67.6935C39.8794 67.2003 39.014 66.4716 38.373 65.5003L36.7037 66.602C37.5627 67.9034 38.7314 68.8793 40.1849 69.5224L40.9941 67.6935ZM38.3793 65.51C37.7689 64.5615 37.4304 63.3246 37.4304 61.7386H35.4304C35.4304 63.6072 35.8306 65.2453 36.6974 66.5923L38.3793 65.51ZM37.4304 61.7386C37.4304 60.3972 37.6666 59.3358 38.0878 58.5121L36.3071 57.6015C35.7056 58.7778 35.4304 60.171 35.4304 61.7386H37.4304ZM38.0878 58.5121C38.5265 57.6542 39.1231 56.9687 39.8824 56.44L38.7397 54.7986C37.7036 55.52 36.8911 56.4595 36.3071 57.6015L38.0878 58.5121ZM39.8824 56.44C40.6765 55.8872 41.6038 55.4609 42.6757 55.1695L42.151 53.2396C40.882 53.5845 39.7411 54.1015 38.7397 54.7986L39.8824 56.44ZM42.6844 55.1671C43.7885 54.8562 44.9758 54.6449 46.2485 54.5361L46.0782 52.5434C44.6918 52.6619 43.3791 52.8938 42.1423 53.242L42.6844 55.1671ZM46.2546 54.5356C47.754 54.3982 48.9787 54.2537 49.9203 54.1007L49.5995 52.1266C48.723 52.269 47.5499 52.4086 46.0721 52.5439L46.2546 54.5356ZM49.9323 54.0987C50.8828 53.9323 51.7166 53.6807 52.3076 53.2702L51.1668 51.6275C50.9397 51.7852 50.4553 51.9768 49.5876 52.1286L49.9323 54.0987ZM52.3122 53.2671C53.0113 52.7758 53.3679 52.0491 53.3679 51.2045H51.3679C51.3679 51.4282 51.3041 51.531 51.1623 51.6307L52.3122 53.2671ZM53.3679 51.2045V51.1193H51.3679V51.2045H53.3679ZM53.3679 51.1193C53.3679 49.9868 52.9624 49.002 52.0856 48.3072L50.8434 49.8747C51.1711 50.1344 51.3679 50.5018 51.3679 51.1193H53.3679ZM52.0856 48.3072C51.2558 47.6496 50.2006 47.375 49.027 47.375V49.375C49.8989 49.375 50.4686 49.5776 50.8434 49.8747L52.0856 48.3072ZM49.027 47.375C47.7864 47.375 46.6768 47.6435 45.788 48.2762L46.9478 49.9056C47.4 49.5837 48.0631 49.375 49.027 49.375V47.375ZM45.788 48.2762C44.9046 48.9051 44.3439 49.7845 44.1121 50.8568L46.0669 51.2795C46.1987 50.6701 46.4903 50.2312 46.9478 49.9056L45.788 48.2762ZM45.1249 50.0688L37.4374 49.7961L37.3665 51.7948L45.054 52.0676L45.1249 50.0688ZM38.3919 50.9369C38.596 49.5087 39.1173 48.2478 39.9559 47.1364L38.3594 45.9318C37.3116 47.3204 36.6626 48.9003 36.412 50.654L38.3919 50.9369ZM39.9551 47.1375C40.7912 46.0326 41.951 45.1437 43.4743 44.4863L42.6819 42.65C40.8871 43.4245 39.4332 44.5129 38.3603 45.9306L39.9551 47.1375ZM43.4773 44.4851C44.9914 43.8258 46.8541 43.4773 49.0952 43.4773V41.4773C46.6545 41.4773 44.5057 41.856 42.6789 42.6513L43.4773 44.4851ZM49.0952 43.4773C50.6864 43.4773 52.1336 43.6667 53.4428 44.0363L53.9861 42.1115C52.4772 41.6856 50.8448 41.4773 49.0952 41.4773V43.4773ZM53.4501 44.0383C54.7602 44.3975 55.8764 44.9187 56.8134 45.5909L57.9792 43.9659C56.8253 43.1381 55.487 42.523 53.9789 42.1095L53.4501 44.0383ZM56.8193 45.5951C57.7424 46.2473 58.4408 47.0385 58.9318 47.9714L60.7017 47.0399C60.0564 45.8138 59.1411 44.7868 57.9733 43.9617L56.8193 45.5951ZM58.9357 47.9787C59.4274 48.8946 59.6861 49.9613 59.6861 51.2045H61.6861C61.6861 49.6751 61.3652 48.2759 60.6978 47.0327L58.9357 47.9787ZM59.6861 51.2045V69H61.6861V51.2045H59.6861ZM60.6861 68H52.8452V70H60.6861V68ZM53.8452 69V65.3523H51.8452V69H53.8452ZM52.8452 64.3523H52.6406V66.3523H52.8452V64.3523ZM51.7555 64.887C51.3464 65.6652 50.8295 66.3119 50.206 66.838L51.4957 68.3666C52.3267 67.6654 53.003 66.8121 53.5258 65.8176L51.7555 64.887ZM50.2001 66.843C49.5954 67.3613 48.871 67.759 48.0115 68.0289L48.6106 69.937C49.7057 69.5932 50.6744 69.0706 51.5016 68.3615L50.2001 66.843ZM48.0083 68.0299C47.1576 68.3001 46.1714 68.4432 45.0384 68.4432V70.4432C46.3371 70.4432 47.5327 70.2794 48.6138 69.936L48.0083 68.0299ZM47.6122 64.9886C48.6485 64.9886 49.6135 64.7777 50.4855 64.3348L49.5798 62.5516C49.0201 62.8359 48.3714 62.9886 47.6122 62.9886V64.9886ZM50.4799 64.3376C51.3512 63.9019 52.0653 63.2909 52.5988 62.5047L50.9438 61.3817C50.6137 61.8682 50.1687 62.2572 49.5855 62.5488L50.4799 64.3376ZM52.6034 62.4979C53.155 61.6704 53.419 60.7234 53.419 59.6932H51.419C51.419 60.3675 51.2512 60.9205 50.9393 61.3885L52.6034 62.4979ZM53.419 59.6932V57.2045H51.419V59.6932H53.419ZM51.955 56.3187C51.7875 56.4065 51.5604 56.4982 51.2624 56.5876L51.8371 58.5033C52.2208 58.3881 52.5733 58.2526 52.883 58.0904L51.955 56.3187ZM51.2533 56.5904C50.9519 56.6839 50.6133 56.7741 50.236 56.8604L50.6816 58.8101C51.0998 58.7145 51.4884 58.6115 51.8461 58.5005L51.2533 56.5904ZM50.236 56.8604C49.8599 56.9463 49.4718 57.0218 49.0715 57.0868L49.3916 59.061C49.8322 58.9895 50.2622 58.9059 50.6816 58.8101L50.236 56.8604ZM49.0715 57.0868C48.6554 57.1542 48.2569 57.216 47.8758 57.272L48.1668 59.2507C48.5584 59.1931 48.9667 59.1299 49.3916 59.061L49.0715 57.0868ZM47.8639 57.2738C47.0126 57.4095 46.2472 57.6249 45.585 57.9357L46.4349 59.7461C46.8863 59.5342 47.4619 59.3632 48.1787 59.2489L47.8639 57.2738ZM45.5778 57.9391C44.9053 58.2614 44.3405 58.705 43.9304 59.2887L45.5668 60.4386C45.7475 60.1814 46.0237 59.9432 46.4421 59.7427L45.5778 57.9391ZM43.9272 59.2932C43.5109 59.8927 43.3224 60.5872 43.3224 61.3295H45.3224C45.3224 60.9355 45.418 60.6528 45.5699 60.434L43.9272 59.2932ZM43.3224 61.3295C43.3224 62.4624 43.7435 63.4406 44.6477 64.1104L45.8381 62.5033C45.5151 62.264 45.3224 61.9239 45.3224 61.3295H43.3224ZM44.6547 64.1156C45.4874 64.7211 46.4968 64.9886 47.6122 64.9886V62.9886C46.8186 62.9886 46.2484 62.8016 45.8311 62.4981L44.6547 64.1156ZM65.7827 69H64.7827V70H65.7827V69ZM65.7827 42.8182V41.8182H64.7827V42.8182H65.7827ZM74.1179 42.8182H75.1179V41.8182H74.1179V42.8182ZM74.1179 69V70H75.1179V69H74.1179ZM66.9418 38.608L66.2598 39.3394L66.2651 39.3443L66.9418 38.608ZM66.9418 32.983L67.6184 33.7193L67.6237 33.7143L66.9418 32.983ZM72.9759 32.983L72.2889 33.7098L72.2992 33.7193L72.9759 32.983ZM72.9759 38.608L73.6575 39.3397L73.6578 39.3393L72.9759 38.608ZM66.7827 69V42.8182H64.7827V69H66.7827ZM65.7827 43.8182H74.1179V41.8182H65.7827V43.8182ZM73.1179 42.8182V69H75.1179V42.8182H73.1179ZM74.1179 68H65.7827V70H74.1179V68ZM69.9588 38.767C69.0321 38.767 68.2697 38.4702 67.6184 37.8716L66.2651 39.3443C67.2956 40.2912 68.5446 40.767 69.9588 40.767V38.767ZM67.6237 37.8766C66.9758 37.2724 66.6804 36.5901 66.6804 35.7784H64.6804C64.6804 37.1712 65.2259 38.3753 66.2598 39.3393L67.6237 37.8766ZM66.6804 35.7784C66.6804 34.9819 66.9727 34.3127 67.6184 33.7193L66.2651 32.2466C65.229 33.1987 64.6804 34.3931 64.6804 35.7784H66.6804ZM67.6237 33.7143C68.2758 33.1063 69.0364 32.8068 69.9588 32.8068V30.8068C68.5403 30.8068 67.2895 31.2914 66.2598 32.2516L67.6237 33.7143ZM69.9588 32.8068C70.8952 32.8068 71.6522 33.1078 72.2889 33.7097L73.6628 32.2562C72.6404 31.2899 71.3861 30.8068 69.9588 30.8068V32.8068ZM72.2992 33.7193C72.945 34.3127 73.2372 34.9819 73.2372 35.7784H75.2372C75.2372 34.3931 74.6886 33.1987 73.6525 32.2466L72.2992 33.7193ZM73.2372 35.7784C73.2372 36.5901 72.9418 37.2724 72.2939 37.8766L73.6578 39.3393C74.6917 38.3753 75.2372 37.1712 75.2372 35.7784H73.2372ZM72.2942 37.8762C71.6583 38.4686 70.8995 38.767 69.9588 38.767V40.767C71.3817 40.767 72.6343 40.2927 73.6575 39.3397L72.2942 37.8762ZM87.7585 34.0909H88.7585V33.0909H87.7585V34.0909ZM87.7585 69V70H88.7585V69H87.7585ZM79.4233 69H78.4233V70H79.4233V69ZM79.4233 34.0909V33.0909H78.4233V34.0909H79.4233ZM86.7585 34.0909V69H88.7585V34.0909H86.7585ZM87.7585 68H79.4233V70H87.7585V68ZM80.4233 69V34.0909H78.4233V69H80.4233ZM79.4233 35.0909H87.7585V33.0909H79.4233V35.0909ZM111.746 69L110.786 69.2794L110.995 70H111.746V69ZM101.587 34.0909V33.0909H100.254L100.626 34.3703L101.587 34.0909ZM110.911 34.0909L111.885 33.8665L111.706 33.0909H110.911V34.0909ZM116.178 56.9659L115.203 57.1903L115.382 57.9659H116.178V56.9659ZM116.467 56.9659V57.9659H117.238L117.434 57.2203L116.467 56.9659ZM122.484 34.0909V33.0909H121.713L121.517 33.8365L122.484 34.0909ZM130.087 34.0909L131.054 33.8371L130.858 33.0909H130.087V34.0909ZM136.104 57.017L135.136 57.2709L135.332 58.017H136.104V57.017ZM136.393 57.017V58.017H137.189L137.368 57.2416L136.393 57.017ZM141.678 34.0909V33.0909H140.882L140.703 33.8663L141.678 34.0909ZM150.984 34.0909L151.945 34.3699L152.316 33.0909H150.984V34.0909ZM140.842 69V70H141.593L141.803 69.279L140.842 69ZM132.712 69L131.753 69.2848L131.966 70H132.712V69ZM126.422 47.8295L127.38 47.5447L127.168 46.8295H126.422V47.8295ZM126.149 47.8295V46.8295H125.403L125.191 47.5447L126.149 47.8295ZM119.859 69V70H120.605L120.818 69.2848L119.859 69ZM112.706 68.7206L102.547 33.8115L100.626 34.3703L110.786 69.2794L112.706 68.7206ZM101.587 35.0909H110.911V33.0909H101.587V35.0909ZM109.936 34.3153L115.203 57.1903L117.152 56.7415L111.885 33.8665L109.936 34.3153ZM116.178 57.9659H116.467V55.9659H116.178V57.9659ZM117.434 57.2203L123.451 34.3453L121.517 33.8365L115.5 56.7115L117.434 57.2203ZM122.484 35.0909H130.087V33.0909H122.484V35.0909ZM129.119 34.3448L135.136 57.2709L137.071 56.7632L131.054 33.8371L129.119 34.3448ZM136.104 58.017H136.393V56.017H136.104V58.017ZM137.368 57.2416L142.652 34.3155L140.703 33.8663L135.419 56.7925L137.368 57.2416ZM141.678 35.0909H150.984V33.0909H141.678V35.0909ZM150.024 33.8119L139.882 68.721L141.803 69.279L151.945 34.3699L150.024 33.8119ZM140.842 68H132.712V70H140.842V68ZM133.67 68.7152L127.38 47.5447L125.463 48.1143L131.753 69.2848L133.67 68.7152ZM126.422 46.8295H126.149V48.8295H126.422V46.8295ZM125.191 47.5447L118.901 68.7152L120.818 69.2848L127.108 48.1143L125.191 47.5447ZM119.859 68H111.746V70H119.859V68ZM152.83 69H151.83V70H152.83V69ZM152.83 42.8182V41.8182H151.83V42.8182H152.83ZM160.926 42.8182H161.926V41.8182H160.926V42.8182ZM160.926 47.5909H159.926V48.5909H160.926V47.5909ZM161.199 47.5909V48.5909H161.96L162.163 47.8572L161.199 47.5909ZM163.534 43.7386L164.149 44.5276L164.154 44.5235L163.534 43.7386ZM168.494 42.5455L168.357 43.5359L168.37 43.5378L168.384 43.5393L168.494 42.5455ZM169.636 42.767H170.636V42.0161L169.915 41.8067L169.636 42.767ZM169.636 50.0114L169.312 50.9573L170.636 51.4114V50.0114H169.636ZM168.068 49.6875L167.944 50.6798L167.946 50.68L168.068 49.6875ZM163.688 50.233L164.17 51.1089L164.174 51.1065L163.688 50.233ZM161.83 52.0568L160.964 51.5553L160.962 51.5593L161.83 52.0568ZM161.165 69V70H162.165V69H161.165ZM153.83 69V42.8182H151.83V69H153.83ZM152.83 43.8182H160.926V41.8182H152.83V43.8182ZM159.926 42.8182V47.5909H161.926V42.8182H159.926ZM160.926 48.5909H161.199V46.5909H160.926V48.5909ZM162.163 47.8572C162.6 46.2732 163.284 45.2006 164.149 44.5275L162.92 42.9497C161.625 43.9584 160.752 45.4541 160.235 47.3246L162.163 47.8572ZM164.154 44.5235C165.049 43.8166 166.084 43.4602 167.301 43.4602V41.4602C165.654 41.4602 164.178 41.9561 162.914 42.9538L164.154 44.5235ZM167.301 43.4602C167.638 43.4602 167.99 43.485 168.357 43.5359L168.632 41.555C168.18 41.4922 167.737 41.4602 167.301 41.4602V43.4602ZM168.384 43.5393C168.743 43.5792 169.067 43.6429 169.358 43.7274L169.915 41.8067C169.502 41.6866 169.064 41.6026 168.605 41.5516L168.384 43.5393ZM168.636 42.767V50.0114H170.636V42.767H168.636ZM169.961 49.0654C169.472 48.8978 168.873 48.7789 168.19 48.695L167.946 50.68C168.558 50.7552 169.006 50.8522 169.312 50.9573L169.961 49.0654ZM168.192 48.6952C167.526 48.6119 166.915 48.5682 166.364 48.5682V50.5682C166.813 50.5682 167.338 50.604 167.944 50.6798L168.192 48.6952ZM166.364 48.5682C165.22 48.5682 164.158 48.8263 163.201 49.3594L164.174 51.1065C164.808 50.7533 165.53 50.5682 166.364 50.5682V48.5682ZM163.205 49.357C162.26 49.8777 161.509 50.616 160.964 51.5553L162.695 52.5583C163.059 51.9295 163.547 51.4519 164.17 51.1089L163.205 49.357ZM160.962 51.5593C160.418 52.5079 160.165 53.5946 160.165 54.7841H162.165C162.165 53.8827 162.355 53.1512 162.697 52.5543L160.962 51.5593ZM160.165 54.7841V69H162.165V54.7841H160.165ZM161.165 68H152.83V70H161.165V68ZM174.98 68.608L174.575 69.5225L174.585 69.5267L174.98 68.608ZM171.929 66.0511L171.088 66.5924L171.094 66.602L171.929 66.0511ZM171.588 58.0568L170.698 57.6015L170.698 57.6015L171.588 58.0568ZM173.702 55.6193L174.273 56.44L174.273 56.44L173.702 55.6193ZM176.804 54.2045L177.066 55.1696L177.075 55.1671L176.804 54.2045ZM180.554 53.5398L180.639 54.5362L180.645 54.5356L180.554 53.5398ZM184.151 53.1136L184.311 54.1008L184.323 54.0987L184.151 53.1136ZM186.128 52.4489L186.698 53.2702L186.703 53.2671L186.128 52.4489ZM185.855 49.0909L186.476 48.3072L186.476 48.3072L185.855 49.0909ZM180.759 49.0909L180.179 48.2762L180.179 48.2762L180.759 49.0909ZM179.48 51.0682L179.445 52.0676L180.281 52.0972L180.458 51.2795L179.48 51.0682ZM171.793 50.7955L170.803 50.654L170.645 51.7554L171.757 51.7948L171.793 50.7955ZM173.548 46.5341L172.751 45.9306L172.75 45.9318L173.548 46.5341ZM177.469 43.5682L177.865 44.4864L177.868 44.4851L177.469 43.5682ZM188.105 43.0739L187.833 44.0363L187.841 44.0383L188.105 43.0739ZM191.787 44.7784L191.204 45.591L191.21 45.5951L191.787 44.7784ZM194.207 47.5057L193.322 47.9714L193.326 47.9787L194.207 47.5057ZM195.077 69V70H196.077V69H195.077ZM187.236 69H186.236V70H187.236V69ZM187.236 65.3523H188.236V64.3523H187.236V65.3523ZM187.031 65.3523V64.3523H186.427L186.146 64.887L187.031 65.3523ZM185.241 67.6023L184.597 66.838L184.591 66.843L185.241 67.6023ZM182.702 68.983L182.402 68.0289L182.399 68.0299L182.702 68.983ZM184.423 63.4432L183.976 62.5487L183.97 62.5516L184.423 63.4432ZM186.162 61.9432L186.989 62.5047L186.994 62.4979L186.162 61.9432ZM186.81 57.2045H187.81V55.5519L186.346 56.3187L186.81 57.2045ZM185.94 57.5455L185.653 56.5876L185.644 56.5904L185.94 57.5455ZM183.622 58.0739L183.782 59.061L183.782 59.061L183.622 58.0739ZM182.412 58.2614L182.266 57.2719L182.255 57.2738L182.412 58.2614ZM180.401 58.8409L179.976 57.9356L179.968 57.9391L180.401 58.8409ZM179.139 59.8636L178.321 59.2887L178.318 59.2932L179.139 59.8636ZM179.634 63.3068L179.038 64.1104L179.045 64.1156L179.634 63.3068ZM179.429 68.4432C177.87 68.4432 176.525 68.1835 175.375 67.6892L174.585 69.5267C176.026 70.1461 177.647 70.4432 179.429 70.4432V68.4432ZM175.385 67.6935C174.27 67.2003 173.405 66.4716 172.764 65.5003L171.094 66.602C171.953 67.9034 173.122 68.8793 174.575 69.5224L175.385 67.6935ZM172.77 65.51C172.159 64.5615 171.821 63.3246 171.821 61.7386H169.821C169.821 63.6072 170.221 65.2453 171.088 66.5923L172.77 65.51ZM171.821 61.7386C171.821 60.3972 172.057 59.3358 172.478 58.5121L170.698 57.6015C170.096 58.7778 169.821 60.171 169.821 61.7386H171.821ZM172.478 58.5121C172.917 57.6542 173.514 56.9687 174.273 56.44L173.13 54.7986C172.094 55.52 171.282 56.4595 170.698 57.6015L172.478 58.5121ZM174.273 56.44C175.067 55.8872 175.994 55.4609 177.066 55.1695L176.542 53.2396C175.273 53.5845 174.132 54.1015 173.13 54.7986L174.273 56.44ZM177.075 55.1671C178.179 54.8562 179.366 54.6449 180.639 54.5361L180.469 52.5434C179.082 52.6619 177.77 52.8938 176.533 53.242L177.075 55.1671ZM180.645 54.5356C182.145 54.3982 183.369 54.2537 184.311 54.1007L183.99 52.1266C183.114 52.269 181.941 52.4086 180.463 52.5439L180.645 54.5356ZM184.323 54.0987C185.273 53.9323 186.107 53.6807 186.698 53.2702L185.557 51.6275C185.33 51.7852 184.846 51.9768 183.978 52.1286L184.323 54.0987ZM186.703 53.2671C187.402 52.7758 187.759 52.0491 187.759 51.2045H185.759C185.759 51.4282 185.695 51.531 185.553 51.6307L186.703 53.2671ZM187.759 51.2045V51.1193H185.759V51.2045H187.759ZM187.759 51.1193C187.759 49.9868 187.353 49.002 186.476 48.3072L185.234 49.8747C185.562 50.1344 185.759 50.5018 185.759 51.1193H187.759ZM186.476 48.3072C185.646 47.6496 184.591 47.375 183.418 47.375V49.375C184.289 49.375 184.859 49.5776 185.234 49.8747L186.476 48.3072ZM183.418 47.375C182.177 47.375 181.067 47.6435 180.179 48.2762L181.338 49.9056C181.791 49.5837 182.454 49.375 183.418 49.375V47.375ZM180.179 48.2762C179.295 48.9051 178.735 49.7845 178.503 50.8568L180.458 51.2795C180.589 50.6701 180.881 50.2312 181.338 49.9056L180.179 48.2762ZM179.516 50.0688L171.828 49.7961L171.757 51.7948L179.445 52.0676L179.516 50.0688ZM172.783 50.9369C172.987 49.5087 173.508 48.2478 174.347 47.1364L172.75 45.9318C171.702 47.3204 171.053 48.9003 170.803 50.654L172.783 50.9369ZM174.346 47.1375C175.182 46.0326 176.342 45.1437 177.865 44.4863L177.073 42.65C175.278 43.4245 173.824 44.5129 172.751 45.9306L174.346 47.1375ZM177.868 44.4851C179.382 43.8258 181.245 43.4773 183.486 43.4773V41.4773C181.045 41.4773 178.896 41.856 177.07 42.6513L177.868 44.4851ZM183.486 43.4773C185.077 43.4773 186.524 43.6667 187.833 44.0363L188.377 42.1115C186.868 41.6856 185.235 41.4773 183.486 41.4773V43.4773ZM187.841 44.0383C189.151 44.3975 190.267 44.9187 191.204 45.5909L192.37 43.9659C191.216 43.1381 189.878 42.523 188.37 42.1095L187.841 44.0383ZM191.21 45.5951C192.133 46.2473 192.831 47.0385 193.322 47.9714L195.092 47.0399C194.447 45.8138 193.532 44.7868 192.364 43.9617L191.21 45.5951ZM193.326 47.9787C193.818 48.8946 194.077 49.9613 194.077 51.2045H196.077C196.077 49.6751 195.756 48.2759 195.088 47.0327L193.326 47.9787ZM194.077 51.2045V69H196.077V51.2045H194.077ZM195.077 68H187.236V70H195.077V68ZM188.236 69V65.3523H186.236V69H188.236ZM187.236 64.3523H187.031V66.3523H187.236V64.3523ZM186.146 64.887C185.737 65.6652 185.22 66.3119 184.597 66.838L185.886 68.3666C186.717 67.6654 187.394 66.8121 187.916 65.8176L186.146 64.887ZM184.591 66.843C183.986 67.3613 183.262 67.759 182.402 68.0289L183.001 69.937C184.096 69.5932 185.065 69.0706 185.892 68.3615L184.591 66.843ZM182.399 68.0299C181.548 68.3001 180.562 68.4432 179.429 68.4432V70.4432C180.728 70.4432 181.923 70.2794 183.004 69.936L182.399 68.0299ZM182.003 64.9886C183.039 64.9886 184.004 64.7777 184.876 64.3348L183.97 62.5516C183.411 62.8359 182.762 62.9886 182.003 62.9886V64.9886ZM184.871 64.3376C185.742 63.9019 186.456 63.2909 186.989 62.5047L185.334 61.3817C185.004 61.8682 184.559 62.2572 183.976 62.5488L184.871 64.3376ZM186.994 62.4979C187.546 61.6704 187.81 60.7234 187.81 59.6932H185.81C185.81 60.3675 185.642 60.9205 185.33 61.3885L186.994 62.4979ZM187.81 59.6932V57.2045H185.81V59.6932H187.81ZM186.346 56.3187C186.178 56.4065 185.951 56.4982 185.653 56.5876L186.228 58.5033C186.611 58.3881 186.964 58.2526 187.274 58.0904L186.346 56.3187ZM185.644 56.5904C185.343 56.6839 185.004 56.7741 184.627 56.8604L185.072 58.8101C185.49 58.7145 185.879 58.6115 186.237 58.5005L185.644 56.5904ZM184.627 56.8604C184.251 56.9463 183.862 57.0218 183.462 57.0868L183.782 59.061C184.223 58.9895 184.653 58.9059 185.072 58.8101L184.627 56.8604ZM183.462 57.0868C183.046 57.1542 182.648 57.216 182.266 57.272L182.557 59.2507C182.949 59.1931 183.357 59.1299 183.782 59.061L183.462 57.0868ZM182.255 57.2738C181.403 57.4095 180.638 57.6249 179.976 57.9357L180.825 59.7461C181.277 59.5342 181.852 59.3632 182.569 59.2489L182.255 57.2738ZM179.968 57.9391C179.296 58.2614 178.731 58.705 178.321 59.2887L179.957 60.4386C180.138 60.1814 180.414 59.9432 180.833 59.7427L179.968 57.9391ZM178.318 59.2932C177.902 59.8927 177.713 60.5872 177.713 61.3295H179.713C179.713 60.9355 179.809 60.6528 179.961 60.434L178.318 59.2932ZM177.713 61.3295C177.713 62.4624 178.134 63.4406 179.038 64.1104L180.229 62.5033C179.906 62.264 179.713 61.9239 179.713 61.3295H177.713ZM179.045 64.1156C179.878 64.7211 180.887 64.9886 182.003 64.9886V62.9886C181.209 62.9886 180.639 62.8016 180.222 62.4981L179.045 64.1156ZM200.173 78.8182H199.173V79.8182H200.173V78.8182ZM200.173 42.8182V41.8182H199.173V42.8182H200.173ZM208.423 42.8182H209.423V41.8182H208.423V42.8182ZM208.423 47.3011H207.423V48.3011H208.423V47.3011ZM208.679 47.3011V48.3011H209.338L209.598 47.6951L208.679 47.3011ZM210.128 45L209.37 44.3473L209.364 44.3541L210.128 45ZM212.548 43.1932L212.979 44.0959L212.983 44.0937L212.548 43.1932ZM221.19 43.9091L220.673 44.765L220.676 44.7666L221.19 43.9091ZM225.043 48.3239L225.94 47.8828L225.94 47.8828L225.043 48.3239ZM225.094 63.375L224.189 62.9485L224.187 62.9527L225.094 63.375ZM221.31 67.875L220.777 67.0284L220.775 67.0301L221.31 67.875ZM212.616 68.7273L212.208 69.6402L212.208 69.6402L212.616 68.7273ZM210.179 67.0227L209.443 67.6996L209.449 67.7059L210.179 67.0227ZM208.679 64.7557L209.595 64.3555L209.334 63.7557H208.679V64.7557ZM208.509 64.7557V63.7557H207.509V64.7557H208.509ZM208.509 78.8182V79.8182H209.509V78.8182H208.509ZM208.901 59.5909L207.959 59.9286L207.963 59.9376L208.901 59.5909ZM210.554 62.0284L209.925 62.8057L209.932 62.8111L209.938 62.8164L210.554 62.0284ZM215.77 62.0284L216.392 62.8117L216.399 62.8057L215.77 62.0284ZM217.389 59.5909L216.448 59.2533L216.445 59.2624L217.389 59.5909ZM217.389 52.2443L216.446 52.5761L216.449 52.5852L217.389 52.2443ZM215.77 49.8409L215.142 50.6193L215.148 50.6242L215.77 49.8409ZM210.554 49.8239L209.94 49.0345L209.94 49.0345L210.554 49.8239ZM208.901 52.2102L207.964 51.8602L207.96 51.8693L208.901 52.2102ZM201.173 78.8182V42.8182H199.173V78.8182H201.173ZM200.173 43.8182H208.423V41.8182H200.173V43.8182ZM207.423 42.8182V47.3011H209.423V42.8182H207.423ZM208.423 48.3011H208.679V46.3011H208.423V48.3011ZM209.598 47.6951C209.896 47.0009 210.323 46.3176 210.891 45.6459L209.364 44.3541C208.683 45.1597 208.144 46.0104 207.76 46.9072L209.598 47.6951ZM210.885 45.6527C211.422 45.0303 212.113 44.5087 212.979 44.0958L212.118 42.2905C211.029 42.8095 210.107 43.4925 209.37 44.3473L210.885 45.6527ZM212.983 44.0937C213.806 43.6963 214.832 43.4773 216.094 43.4773V41.4773C214.605 41.4773 213.268 41.7355 212.114 42.2926L212.983 44.0937ZM216.094 43.4773C217.727 43.4773 219.247 43.9032 220.673 44.7649L221.708 43.0532C219.974 42.0059 218.097 41.4773 216.094 41.4773V43.4773ZM220.676 44.7666C222.072 45.6042 223.236 46.915 224.145 48.7649L225.94 47.8828C224.895 45.7554 223.491 44.123 221.705 43.0516L220.676 44.7666ZM224.145 48.7649C225.034 50.5736 225.509 52.9434 225.509 55.9261H227.509C227.509 52.7498 227.006 50.0514 225.94 47.8828L224.145 48.7649ZM225.509 55.9261C225.509 58.7924 225.052 61.1192 224.189 62.9485L225.998 63.8015C227.022 61.6308 227.509 58.9917 227.509 55.9261H225.509ZM224.187 62.9527C223.322 64.8091 222.179 66.1476 220.777 67.0284L221.842 68.7216C223.622 67.6024 225.001 65.9409 226 63.7973L224.187 62.9527ZM220.775 67.0301C219.361 67.9253 217.792 68.375 216.043 68.375V70.375C218.157 70.375 220.099 69.8247 221.845 68.7199L220.775 67.0301ZM216.043 68.375C214.832 68.375 213.835 68.1765 213.025 67.8143L212.208 69.6402C213.33 70.1417 214.617 70.375 216.043 70.375V68.375ZM213.025 67.8143C212.168 67.4316 211.469 66.9378 210.909 66.3396L209.449 67.7059C210.207 68.5167 211.133 69.1593 212.208 69.6402L213.025 67.8143ZM210.915 66.3459C210.336 65.7159 209.9 65.0523 209.595 64.3555L207.763 65.1558C208.163 66.0727 208.727 66.9205 209.443 67.6995L210.915 66.3459ZM208.679 63.7557H208.509V65.7557H208.679V63.7557ZM207.509 64.7557V78.8182H209.509V64.7557H207.509ZM208.509 77.8182H200.173V79.8182H208.509V77.8182ZM207.338 55.9091C207.338 57.4037 207.537 58.7501 207.959 59.9285L209.842 59.2533C209.515 58.3408 209.338 57.2326 209.338 55.9091H207.338ZM207.963 59.9376C208.398 61.1162 209.042 62.0913 209.925 62.8057L211.183 61.2512C210.634 60.8064 210.176 60.1565 209.839 59.2443L207.963 59.9376ZM209.938 62.8164C210.859 63.5353 211.95 63.8807 213.162 63.8807V61.8807C212.351 61.8807 211.704 61.6579 211.17 61.2404L209.938 62.8164ZM213.162 63.8807C214.382 63.8807 215.478 63.5369 216.392 62.8117L215.148 61.2451C214.63 61.6563 213.987 61.8807 213.162 61.8807V63.8807ZM216.399 62.8057C217.287 62.0871 217.921 61.1052 218.334 59.9194L216.445 59.2624C216.13 60.1676 215.685 60.8106 215.141 61.2512L216.399 62.8057ZM218.33 59.9285C218.753 58.7501 218.952 57.4037 218.952 55.9091H216.952C216.952 57.2326 216.775 58.3408 216.448 59.2533L218.33 59.9285ZM218.952 55.9091C218.952 54.4148 218.753 53.0726 218.329 51.9034L216.449 52.5852C216.775 53.4842 216.952 54.5852 216.952 55.9091H218.952ZM218.333 51.9126C217.919 50.7364 217.282 49.7645 216.392 49.0576L215.148 50.6242C215.689 51.0537 216.132 51.684 216.446 52.5761L218.333 51.9126ZM216.398 49.0625C215.49 48.3308 214.39 47.9886 213.162 47.9886V49.9886C214.002 49.9886 214.64 50.2147 215.142 50.6193L216.398 49.0625ZM213.162 47.9886C211.947 47.9886 210.854 48.3239 209.94 49.0345L211.168 50.6132C211.686 50.2102 212.332 49.9886 213.162 49.9886V47.9886ZM209.94 49.0345C209.049 49.7275 208.401 50.6904 207.964 51.8602L209.837 52.5602C210.173 51.6619 210.627 51.0339 211.168 50.6132L209.94 49.0345ZM207.96 51.8693C207.536 53.0401 207.338 54.3942 207.338 55.9091H209.338C209.338 54.5603 209.515 53.4486 209.841 52.5511L207.96 51.8693Z" fill="black" fill-opacity="0.2" mask="url(#path-1-outside-1_139_524)"/>
</g>
</g>
<defs>
<filter id="filter0_dd_139_524" x="-2.35796" y="30.8068" width="233.866" height="57.0114" filterUnits="userSpaceOnUse" color-interpolation-filters="sRGB">
<feFlood flood-opacity="0" result="BackgroundImageFix"/>
<feColorMatrix in="SourceAlpha" type="matrix" values="0 0 0 0 0 0 0 0 0 0 0 0 0 0 0 0 0 0 127 0" result="hardAlpha"/>
<feOffset dy="4"/>
<feGaussianBlur stdDeviation="2"/>
<feComposite in2="hardAlpha" operator="out"/>
<feColorMatrix type="matrix" values="0 0 0 0 0 0 0 0 0 0 0 0 0 0 0 0 0 0 0.25 0"/>
<feBlend mode="normal" in2="BackgroundImageFix" result="effect1_dropShadow_139_524"/>
<feColorMatrix in="SourceAlpha" type="matrix" values="0 0 0 0 0 0 0 0 0 0 0 0 0 0 0 0 0 0 127 0" result="hardAlpha"/>
<feOffset dy="4"/>
<feGaussianBlur stdDeviation="2"/>
<feComposite in2="hardAlpha" operator="out"/>
<feColorMatrix type="matrix" values="0 0 0 0 0 0 0 0 0 0 0 0 0 0 0 0 0 0 0.25 0"/>
<feBlend mode="normal" in2="effect1_dropShadow_139_524" result="effect2_dropShadow_139_524"/>
<feBlend mode="normal" in="SourceGraphic" in2="effect2_dropShadow_139_524" result="shape"/>
</filter>
<clipPath id="clip0_139_524">
<rect width="322" height="117" fill="white"/>
</clipPath>
</defs>
</svg>
