<svg width="322" height="117" viewBox="0 0 322 117" fill="none" xmlns="http://www.w3.org/2000/svg">
<g clip-path="url(#clip0_120_18)">
<rect width="322" height="117" fill="white"/>
<g filter="url(#filter0_dd_120_18)">
<mask id="path-1-outside-1_120_18" maskUnits="userSpaceOnUse" x="1" y="33" width="200" height="38" fill="black">
<rect fill="white" x="1" y="33" width="200" height="38"/>
<path d="M32.3523 34.0909V69H25.1932L11.3011 48.8523H11.0795V69H2.64205V34.0909H9.90341L23.642 54.2045H23.9318V34.0909H32.3523ZM45.0384 69.4432C43.3679 69.4432 41.8849 69.1648 40.5895 68.608C39.3054 68.0398 38.2884 67.1875 37.5384 66.0511C36.7997 64.9034 36.4304 63.4659 36.4304 61.7386C36.4304 60.2841 36.6861 59.0568 37.1974 58.0568C37.7088 57.0568 38.4134 56.2443 39.3111 55.6193C40.2088 54.9943 41.2429 54.5227 42.4134 54.2045C43.5838 53.875 44.8338 53.6534 46.1634 53.5398C47.652 53.4034 48.8509 53.2614 49.7599 53.1136C50.669 52.9545 51.3281 52.733 51.7372 52.4489C52.1577 52.1534 52.3679 51.7386 52.3679 51.2045V51.1193C52.3679 50.2443 52.0668 49.5682 51.4645 49.0909C50.8622 48.6136 50.0497 48.375 49.027 48.375C47.9247 48.375 47.0384 48.6136 46.3679 49.0909C45.6974 49.5682 45.2713 50.2273 45.0895 51.0682L37.402 50.7955C37.6293 49.2045 38.2145 47.7841 39.1577 46.5341C40.1122 45.2727 41.419 44.2841 43.0781 43.5682C44.7486 42.8409 46.7543 42.4773 49.0952 42.4773C50.7656 42.4773 52.3054 42.6761 53.7145 43.0739C55.1236 43.4602 56.3509 44.0284 57.3963 44.7784C58.4418 45.517 59.2486 46.4261 59.8168 47.5057C60.3963 48.5852 60.6861 49.8182 60.6861 51.2045V69H52.8452V65.3523H52.6406C52.1747 66.2386 51.5781 66.9886 50.8509 67.6023C50.1349 68.2159 49.2884 68.6761 48.3111 68.983C47.3452 69.2898 46.2543 69.4432 45.0384 69.4432ZM47.6122 63.9886C48.5099 63.9886 49.3168 63.8068 50.0327 63.4432C50.7599 63.0795 51.3395 62.5795 51.7713 61.9432C52.2031 61.2955 52.419 60.5455 52.419 59.6932V57.2045C52.1804 57.3295 51.8906 57.4432 51.5497 57.5455C51.2202 57.6477 50.8565 57.7443 50.4588 57.8352C50.0611 57.9261 49.652 58.0057 49.2315 58.0739C48.8111 58.142 48.4077 58.2045 48.0213 58.2614C47.2372 58.3864 46.5668 58.5795 46.0099 58.8409C45.4645 59.1023 45.044 59.4432 44.7486 59.8636C44.4645 60.2727 44.3224 60.7614 44.3224 61.3295C44.3224 62.1932 44.6293 62.8523 45.2429 63.3068C45.8679 63.7614 46.6577 63.9886 47.6122 63.9886ZM80.5611 42.8182V48.9545H64.044V42.8182H80.5611ZM67.5043 36.5455H75.8395V60.767C75.8395 61.2784 75.919 61.6932 76.0781 62.0114C76.2486 62.3182 76.4929 62.5398 76.8111 62.6761C77.1293 62.8011 77.5099 62.8636 77.9531 62.8636C78.2713 62.8636 78.6065 62.8352 78.9588 62.7784C79.3224 62.7102 79.5952 62.6534 79.777 62.608L81.0384 68.625C80.6406 68.7386 80.0781 68.8807 79.3509 69.0511C78.6349 69.2216 77.777 69.3295 76.777 69.375C74.8224 69.4659 73.1463 69.2386 71.7486 68.6932C70.3622 68.1364 69.2997 67.2727 68.5611 66.1023C67.8338 64.9318 67.4815 63.4602 67.5043 61.6875V36.5455ZM101.706 57.6989V42.8182H110.024V69H102.081V64.125H101.808C101.229 65.7273 100.24 67 98.8423 67.9432C97.456 68.875 95.7798 69.3409 93.8139 69.3409C92.0298 69.3409 90.4616 68.9318 89.1094 68.1136C87.7571 67.2955 86.706 66.1534 85.956 64.6875C85.206 63.2102 84.8253 61.483 84.8139 59.5057V42.8182H93.1491V57.8693C93.1605 59.2898 93.5355 60.4091 94.2741 61.2273C95.0128 62.0455 96.0185 62.4545 97.2912 62.4545C98.1207 62.4545 98.8651 62.2727 99.5241 61.9091C100.195 61.5341 100.723 60.9943 101.109 60.2898C101.507 59.5739 101.706 58.7102 101.706 57.6989ZM115.33 69V42.8182H123.426V47.5909H123.699C124.176 45.8636 124.955 44.5795 126.034 43.7386C127.114 42.8864 128.369 42.4602 129.801 42.4602C130.188 42.4602 130.585 42.4886 130.994 42.5455C131.403 42.5909 131.784 42.6648 132.136 42.767V50.0114C131.739 49.875 131.216 49.767 130.568 49.6875C129.932 49.608 129.364 49.5682 128.864 49.5682C127.875 49.5682 126.983 49.7898 126.188 50.233C125.403 50.6648 124.784 51.2727 124.33 52.0568C123.886 52.8295 123.665 53.7386 123.665 54.7841V69H115.33ZM141.929 69.4432C140.259 69.4432 138.776 69.1648 137.48 68.608C136.196 68.0398 135.179 67.1875 134.429 66.0511C133.69 64.9034 133.321 63.4659 133.321 61.7386C133.321 60.2841 133.577 59.0568 134.088 58.0568C134.599 57.0568 135.304 56.2443 136.202 55.6193C137.099 54.9943 138.134 54.5227 139.304 54.2045C140.474 53.875 141.724 53.6534 143.054 53.5398C144.543 53.4034 145.741 53.2614 146.651 53.1136C147.56 52.9545 148.219 52.733 148.628 52.4489C149.048 52.1534 149.259 51.7386 149.259 51.2045V51.1193C149.259 50.2443 148.957 49.5682 148.355 49.0909C147.753 48.6136 146.94 48.375 145.918 48.375C144.815 48.375 143.929 48.6136 143.259 49.0909C142.588 49.5682 142.162 50.2273 141.98 51.0682L134.293 50.7955C134.52 49.2045 135.105 47.7841 136.048 46.5341C137.003 45.2727 138.31 44.2841 139.969 43.5682C141.639 42.8409 143.645 42.4773 145.986 42.4773C147.656 42.4773 149.196 42.6761 150.605 43.0739C152.014 43.4602 153.241 44.0284 154.287 44.7784C155.332 45.517 156.139 46.4261 156.707 47.5057C157.287 48.5852 157.577 49.8182 157.577 51.2045V69H149.736V65.3523H149.531C149.065 66.2386 148.469 66.9886 147.741 67.6023C147.026 68.2159 146.179 68.6761 145.202 68.983C144.236 69.2898 143.145 69.4432 141.929 69.4432ZM144.503 63.9886C145.401 63.9886 146.207 63.8068 146.923 63.4432C147.651 63.0795 148.23 62.5795 148.662 61.9432C149.094 61.2955 149.31 60.5455 149.31 59.6932V57.2045C149.071 57.3295 148.781 57.4432 148.44 57.5455C148.111 57.6477 147.747 57.7443 147.349 57.8352C146.952 57.9261 146.543 58.0057 146.122 58.0739C145.702 58.142 145.298 58.2045 144.912 58.2614C144.128 58.3864 143.457 58.5795 142.901 58.8409C142.355 59.1023 141.935 59.4432 141.639 59.8636C141.355 60.2727 141.213 60.7614 141.213 61.3295C141.213 62.1932 141.52 62.8523 142.134 63.3068C142.759 63.7614 143.548 63.9886 144.503 63.9886ZM171.009 34.0909V69H162.673V34.0909H171.009ZM199.172 50.8125L191.518 51.017C191.439 50.4716 191.223 49.9886 190.871 49.5682C190.518 49.1364 190.058 48.8011 189.49 48.5625C188.933 48.3125 188.286 48.1875 187.547 48.1875C186.581 48.1875 185.757 48.3807 185.075 48.767C184.405 49.1534 184.075 49.6761 184.087 50.3352C184.075 50.8466 184.28 51.2898 184.7 51.6648C185.132 52.0398 185.899 52.3409 187.001 52.5682L192.047 53.5227C194.661 54.0227 196.604 54.8523 197.876 56.0114C199.161 57.1705 199.808 58.7045 199.82 60.6136C199.808 62.4091 199.274 63.9716 198.217 65.3011C197.172 66.6307 195.74 67.6648 193.922 68.4034C192.104 69.1307 190.024 69.4943 187.683 69.4943C183.945 69.4943 180.996 68.7273 178.837 67.1932C176.689 65.6477 175.462 63.5795 175.155 60.9886L183.388 60.7841C183.57 61.7386 184.041 62.4659 184.803 62.9659C185.564 63.4659 186.536 63.7159 187.717 63.7159C188.786 63.7159 189.655 63.517 190.325 63.1193C190.996 62.7216 191.337 62.1932 191.348 61.5341C191.337 60.9432 191.075 60.4716 190.564 60.1193C190.053 59.7557 189.251 59.4716 188.161 59.267L183.592 58.3977C180.967 57.9205 179.013 57.0398 177.729 55.7557C176.445 54.4602 175.808 52.8125 175.82 50.8125C175.808 49.0625 176.274 47.5682 177.217 46.3295C178.161 45.0795 179.501 44.125 181.24 43.4659C182.979 42.8068 185.03 42.4773 187.393 42.4773C190.939 42.4773 193.734 43.2216 195.78 44.7102C197.825 46.1875 198.956 48.2216 199.172 50.8125Z"/>
</mask>
<path d="M32.3523 34.0909V69H25.1932L11.3011 48.8523H11.0795V69H2.64205V34.0909H9.90341L23.642 54.2045H23.9318V34.0909H32.3523ZM45.0384 69.4432C43.3679 69.4432 41.8849 69.1648 40.5895 68.608C39.3054 68.0398 38.2884 67.1875 37.5384 66.0511C36.7997 64.9034 36.4304 63.4659 36.4304 61.7386C36.4304 60.2841 36.6861 59.0568 37.1974 58.0568C37.7088 57.0568 38.4134 56.2443 39.3111 55.6193C40.2088 54.9943 41.2429 54.5227 42.4134 54.2045C43.5838 53.875 44.8338 53.6534 46.1634 53.5398C47.652 53.4034 48.8509 53.2614 49.7599 53.1136C50.669 52.9545 51.3281 52.733 51.7372 52.4489C52.1577 52.1534 52.3679 51.7386 52.3679 51.2045V51.1193C52.3679 50.2443 52.0668 49.5682 51.4645 49.0909C50.8622 48.6136 50.0497 48.375 49.027 48.375C47.9247 48.375 47.0384 48.6136 46.3679 49.0909C45.6974 49.5682 45.2713 50.2273 45.0895 51.0682L37.402 50.7955C37.6293 49.2045 38.2145 47.7841 39.1577 46.5341C40.1122 45.2727 41.419 44.2841 43.0781 43.5682C44.7486 42.8409 46.7543 42.4773 49.0952 42.4773C50.7656 42.4773 52.3054 42.6761 53.7145 43.0739C55.1236 43.4602 56.3509 44.0284 57.3963 44.7784C58.4418 45.517 59.2486 46.4261 59.8168 47.5057C60.3963 48.5852 60.6861 49.8182 60.6861 51.2045V69H52.8452V65.3523H52.6406C52.1747 66.2386 51.5781 66.9886 50.8509 67.6023C50.1349 68.2159 49.2884 68.6761 48.3111 68.983C47.3452 69.2898 46.2543 69.4432 45.0384 69.4432ZM47.6122 63.9886C48.5099 63.9886 49.3168 63.8068 50.0327 63.4432C50.7599 63.0795 51.3395 62.5795 51.7713 61.9432C52.2031 61.2955 52.419 60.5455 52.419 59.6932V57.2045C52.1804 57.3295 51.8906 57.4432 51.5497 57.5455C51.2202 57.6477 50.8565 57.7443 50.4588 57.8352C50.0611 57.9261 49.652 58.0057 49.2315 58.0739C48.8111 58.142 48.4077 58.2045 48.0213 58.2614C47.2372 58.3864 46.5668 58.5795 46.0099 58.8409C45.4645 59.1023 45.044 59.4432 44.7486 59.8636C44.4645 60.2727 44.3224 60.7614 44.3224 61.3295C44.3224 62.1932 44.6293 62.8523 45.2429 63.3068C45.8679 63.7614 46.6577 63.9886 47.6122 63.9886ZM80.5611 42.8182V48.9545H64.044V42.8182H80.5611ZM67.5043 36.5455H75.8395V60.767C75.8395 61.2784 75.919 61.6932 76.0781 62.0114C76.2486 62.3182 76.4929 62.5398 76.8111 62.6761C77.1293 62.8011 77.5099 62.8636 77.9531 62.8636C78.2713 62.8636 78.6065 62.8352 78.9588 62.7784C79.3224 62.7102 79.5952 62.6534 79.777 62.608L81.0384 68.625C80.6406 68.7386 80.0781 68.8807 79.3509 69.0511C78.6349 69.2216 77.777 69.3295 76.777 69.375C74.8224 69.4659 73.1463 69.2386 71.7486 68.6932C70.3622 68.1364 69.2997 67.2727 68.5611 66.1023C67.8338 64.9318 67.4815 63.4602 67.5043 61.6875V36.5455ZM101.706 57.6989V42.8182H110.024V69H102.081V64.125H101.808C101.229 65.7273 100.24 67 98.8423 67.9432C97.456 68.875 95.7798 69.3409 93.8139 69.3409C92.0298 69.3409 90.4616 68.9318 89.1094 68.1136C87.7571 67.2955 86.706 66.1534 85.956 64.6875C85.206 63.2102 84.8253 61.483 84.8139 59.5057V42.8182H93.1491V57.8693C93.1605 59.2898 93.5355 60.4091 94.2741 61.2273C95.0128 62.0455 96.0185 62.4545 97.2912 62.4545C98.1207 62.4545 98.8651 62.2727 99.5241 61.9091C100.195 61.5341 100.723 60.9943 101.109 60.2898C101.507 59.5739 101.706 58.7102 101.706 57.6989ZM115.33 69V42.8182H123.426V47.5909H123.699C124.176 45.8636 124.955 44.5795 126.034 43.7386C127.114 42.8864 128.369 42.4602 129.801 42.4602C130.188 42.4602 130.585 42.4886 130.994 42.5455C131.403 42.5909 131.784 42.6648 132.136 42.767V50.0114C131.739 49.875 131.216 49.767 130.568 49.6875C129.932 49.608 129.364 49.5682 128.864 49.5682C127.875 49.5682 126.983 49.7898 126.188 50.233C125.403 50.6648 124.784 51.2727 124.33 52.0568C123.886 52.8295 123.665 53.7386 123.665 54.7841V69H115.33ZM141.929 69.4432C140.259 69.4432 138.776 69.1648 137.48 68.608C136.196 68.0398 135.179 67.1875 134.429 66.0511C133.69 64.9034 133.321 63.4659 133.321 61.7386C133.321 60.2841 133.577 59.0568 134.088 58.0568C134.599 57.0568 135.304 56.2443 136.202 55.6193C137.099 54.9943 138.134 54.5227 139.304 54.2045C140.474 53.875 141.724 53.6534 143.054 53.5398C144.543 53.4034 145.741 53.2614 146.651 53.1136C147.56 52.9545 148.219 52.733 148.628 52.4489C149.048 52.1534 149.259 51.7386 149.259 51.2045V51.1193C149.259 50.2443 148.957 49.5682 148.355 49.0909C147.753 48.6136 146.94 48.375 145.918 48.375C144.815 48.375 143.929 48.6136 143.259 49.0909C142.588 49.5682 142.162 50.2273 141.98 51.0682L134.293 50.7955C134.52 49.2045 135.105 47.7841 136.048 46.5341C137.003 45.2727 138.31 44.2841 139.969 43.5682C141.639 42.8409 143.645 42.4773 145.986 42.4773C147.656 42.4773 149.196 42.6761 150.605 43.0739C152.014 43.4602 153.241 44.0284 154.287 44.7784C155.332 45.517 156.139 46.4261 156.707 47.5057C157.287 48.5852 157.577 49.8182 157.577 51.2045V69H149.736V65.3523H149.531C149.065 66.2386 148.469 66.9886 147.741 67.6023C147.026 68.2159 146.179 68.6761 145.202 68.983C144.236 69.2898 143.145 69.4432 141.929 69.4432ZM144.503 63.9886C145.401 63.9886 146.207 63.8068 146.923 63.4432C147.651 63.0795 148.23 62.5795 148.662 61.9432C149.094 61.2955 149.31 60.5455 149.31 59.6932V57.2045C149.071 57.3295 148.781 57.4432 148.44 57.5455C148.111 57.6477 147.747 57.7443 147.349 57.8352C146.952 57.9261 146.543 58.0057 146.122 58.0739C145.702 58.142 145.298 58.2045 144.912 58.2614C144.128 58.3864 143.457 58.5795 142.901 58.8409C142.355 59.1023 141.935 59.4432 141.639 59.8636C141.355 60.2727 141.213 60.7614 141.213 61.3295C141.213 62.1932 141.52 62.8523 142.134 63.3068C142.759 63.7614 143.548 63.9886 144.503 63.9886ZM171.009 34.0909V69H162.673V34.0909H171.009ZM199.172 50.8125L191.518 51.017C191.439 50.4716 191.223 49.9886 190.871 49.5682C190.518 49.1364 190.058 48.8011 189.49 48.5625C188.933 48.3125 188.286 48.1875 187.547 48.1875C186.581 48.1875 185.757 48.3807 185.075 48.767C184.405 49.1534 184.075 49.6761 184.087 50.3352C184.075 50.8466 184.28 51.2898 184.7 51.6648C185.132 52.0398 185.899 52.3409 187.001 52.5682L192.047 53.5227C194.661 54.0227 196.604 54.8523 197.876 56.0114C199.161 57.1705 199.808 58.7045 199.82 60.6136C199.808 62.4091 199.274 63.9716 198.217 65.3011C197.172 66.6307 195.74 67.6648 193.922 68.4034C192.104 69.1307 190.024 69.4943 187.683 69.4943C183.945 69.4943 180.996 68.7273 178.837 67.1932C176.689 65.6477 175.462 63.5795 175.155 60.9886L183.388 60.7841C183.57 61.7386 184.041 62.4659 184.803 62.9659C185.564 63.4659 186.536 63.7159 187.717 63.7159C188.786 63.7159 189.655 63.517 190.325 63.1193C190.996 62.7216 191.337 62.1932 191.348 61.5341C191.337 60.9432 191.075 60.4716 190.564 60.1193C190.053 59.7557 189.251 59.4716 188.161 59.267L183.592 58.3977C180.967 57.9205 179.013 57.0398 177.729 55.7557C176.445 54.4602 175.808 52.8125 175.82 50.8125C175.808 49.0625 176.274 47.5682 177.217 46.3295C178.161 45.0795 179.501 44.125 181.24 43.4659C182.979 42.8068 185.03 42.4773 187.393 42.4773C190.939 42.4773 193.734 43.2216 195.78 44.7102C197.825 46.1875 198.956 48.2216 199.172 50.8125Z" fill="#002855"/>
<path d="M32.3523 34.0909H33.3523V33.0909H32.3523V34.0909ZM32.3523 69V70H33.3523V69H32.3523ZM25.1932 69L24.3699 69.5677L24.668 70H25.1932V69ZM11.3011 48.8523L12.1244 48.2846L11.8263 47.8523H11.3011V48.8523ZM11.0795 48.8523V47.8523H10.0795V48.8523H11.0795ZM11.0795 69V70H12.0795V69H11.0795ZM2.64205 69H1.64205V70H2.64205V69ZM2.64205 34.0909V33.0909H1.64205V34.0909H2.64205ZM9.90341 34.0909L10.7292 33.5269L10.4314 33.0909H9.90341V34.0909ZM23.642 54.2045L22.8163 54.7686L23.1141 55.2045H23.642V54.2045ZM23.9318 54.2045V55.2045H24.9318V54.2045H23.9318ZM23.9318 34.0909V33.0909H22.9318V34.0909H23.9318ZM31.3523 34.0909V69H33.3523V34.0909H31.3523ZM32.3523 68H25.1932V70H32.3523V68ZM26.0165 68.4323L12.1244 48.2846L10.4779 49.4199L24.3699 69.5677L26.0165 68.4323ZM11.3011 47.8523H11.0795V49.8523H11.3011V47.8523ZM10.0795 48.8523V69H12.0795V48.8523H10.0795ZM11.0795 68H2.64205V70H11.0795V68ZM3.64205 69V34.0909H1.64205V69H3.64205ZM2.64205 35.0909H9.90341V33.0909H2.64205V35.0909ZM9.07766 34.6549L22.8163 54.7686L24.4678 53.6405L10.7292 33.5269L9.07766 34.6549ZM23.642 55.2045H23.9318V53.2045H23.642V55.2045ZM24.9318 54.2045V34.0909H22.9318V54.2045H24.9318ZM23.9318 35.0909H32.3523V33.0909H23.9318V35.0909ZM40.5895 68.608L40.1848 69.5225L40.1946 69.5267L40.5895 68.608ZM37.5384 66.0511L36.6974 66.5924L36.7037 66.602L37.5384 66.0511ZM37.1974 58.0568L36.3071 57.6015L36.3071 57.6015L37.1974 58.0568ZM39.3111 55.6193L39.8824 56.44L39.8824 56.44L39.3111 55.6193ZM42.4134 54.2045L42.6757 55.1696L42.6844 55.1671L42.4134 54.2045ZM46.1634 53.5398L46.2485 54.5362L46.2546 54.5356L46.1634 53.5398ZM49.7599 53.1136L49.9204 54.1008L49.9323 54.0987L49.7599 53.1136ZM51.7372 52.4489L52.3076 53.2702L52.3122 53.2671L51.7372 52.4489ZM51.4645 49.0909L52.0856 48.3072L52.0856 48.3072L51.4645 49.0909ZM46.3679 49.0909L45.788 48.2762L45.788 48.2762L46.3679 49.0909ZM45.0895 51.0682L45.054 52.0676L45.8901 52.0972L46.0669 51.2795L45.0895 51.0682ZM37.402 50.7955L36.412 50.654L36.2547 51.7554L37.3665 51.7948L37.402 50.7955ZM39.1577 46.5341L38.3603 45.9306L38.3594 45.9318L39.1577 46.5341ZM43.0781 43.5682L43.4743 44.4864L43.4773 44.4851L43.0781 43.5682ZM53.7145 43.0739L53.4428 44.0363L53.4501 44.0383L53.7145 43.0739ZM57.3963 44.7784L56.8134 45.591L56.8193 45.5951L57.3963 44.7784ZM59.8168 47.5057L58.9318 47.9714L58.9357 47.9787L59.8168 47.5057ZM60.6861 69V70H61.6861V69H60.6861ZM52.8452 69H51.8452V70H52.8452V69ZM52.8452 65.3523H53.8452V64.3523H52.8452V65.3523ZM52.6406 65.3523V64.3523H52.0365L51.7555 64.887L52.6406 65.3523ZM50.8509 67.6023L50.206 66.838L50.2001 66.843L50.8509 67.6023ZM48.3111 68.983L48.0115 68.0289L48.0083 68.0299L48.3111 68.983ZM50.0327 63.4432L49.5854 62.5487L49.5798 62.5516L50.0327 63.4432ZM51.7713 61.9432L52.5988 62.5047L52.6034 62.4979L51.7713 61.9432ZM52.419 57.2045H53.419V55.5519L51.955 56.3187L52.419 57.2045ZM51.5497 57.5455L51.2624 56.5876L51.2533 56.5904L51.5497 57.5455ZM49.2315 58.0739L49.3916 59.061L49.3916 59.061L49.2315 58.0739ZM48.0213 58.2614L47.8758 57.2719L47.8639 57.2738L48.0213 58.2614ZM46.0099 58.8409L45.585 57.9356L45.5778 57.9391L46.0099 58.8409ZM44.7486 59.8636L43.9304 59.2887L43.9272 59.2932L44.7486 59.8636ZM45.2429 63.3068L44.6476 64.1104L44.6547 64.1156L45.2429 63.3068ZM45.0384 68.4432C43.479 68.4432 42.1343 68.1835 40.9844 67.6892L40.1946 69.5267C41.6356 70.1461 43.2568 70.4432 45.0384 70.4432V68.4432ZM40.9941 67.6935C39.8794 67.2003 39.014 66.4716 38.373 65.5003L36.7037 66.602C37.5627 67.9034 38.7314 68.8793 40.1849 69.5224L40.9941 67.6935ZM38.3793 65.51C37.7689 64.5615 37.4304 63.3246 37.4304 61.7386H35.4304C35.4304 63.6072 35.8306 65.2453 36.6974 66.5923L38.3793 65.51ZM37.4304 61.7386C37.4304 60.3972 37.6666 59.3358 38.0878 58.5121L36.3071 57.6015C35.7056 58.7778 35.4304 60.171 35.4304 61.7386H37.4304ZM38.0878 58.5121C38.5265 57.6542 39.1231 56.9687 39.8824 56.44L38.7397 54.7986C37.7036 55.52 36.8911 56.4595 36.3071 57.6015L38.0878 58.5121ZM39.8824 56.44C40.6765 55.8872 41.6038 55.4609 42.6757 55.1695L42.151 53.2396C40.882 53.5845 39.7411 54.1015 38.7397 54.7986L39.8824 56.44ZM42.6844 55.1671C43.7885 54.8562 44.9758 54.6449 46.2485 54.5361L46.0782 52.5434C44.6918 52.6619 43.3791 52.8938 42.1423 53.242L42.6844 55.1671ZM46.2546 54.5356C47.754 54.3982 48.9787 54.2537 49.9203 54.1007L49.5995 52.1266C48.723 52.269 47.5499 52.4086 46.0721 52.5439L46.2546 54.5356ZM49.9323 54.0987C50.8828 53.9323 51.7166 53.6807 52.3076 53.2702L51.1668 51.6275C50.9397 51.7852 50.4553 51.9768 49.5876 52.1286L49.9323 54.0987ZM52.3122 53.2671C53.0113 52.7758 53.3679 52.0491 53.3679 51.2045H51.3679C51.3679 51.4282 51.3041 51.531 51.1623 51.6307L52.3122 53.2671ZM53.3679 51.2045V51.1193H51.3679V51.2045H53.3679ZM53.3679 51.1193C53.3679 49.9868 52.9624 49.002 52.0856 48.3072L50.8434 49.8747C51.1711 50.1344 51.3679 50.5018 51.3679 51.1193H53.3679ZM52.0856 48.3072C51.2558 47.6496 50.2006 47.375 49.027 47.375V49.375C49.8989 49.375 50.4686 49.5776 50.8434 49.8747L52.0856 48.3072ZM49.027 47.375C47.7864 47.375 46.6768 47.6435 45.788 48.2762L46.9478 49.9056C47.4 49.5837 48.0631 49.375 49.027 49.375V47.375ZM45.788 48.2762C44.9046 48.9051 44.3439 49.7845 44.1121 50.8568L46.0669 51.2795C46.1987 50.6701 46.4903 50.2312 46.9478 49.9056L45.788 48.2762ZM45.1249 50.0688L37.4374 49.7961L37.3665 51.7948L45.054 52.0676L45.1249 50.0688ZM38.3919 50.9369C38.596 49.5087 39.1173 48.2478 39.9559 47.1364L38.3594 45.9318C37.3116 47.3204 36.6626 48.9003 36.412 50.654L38.3919 50.9369ZM39.9551 47.1375C40.7912 46.0326 41.951 45.1437 43.4743 44.4863L42.6819 42.65C40.8871 43.4245 39.4332 44.5129 38.3603 45.9306L39.9551 47.1375ZM43.4773 44.4851C44.9914 43.8258 46.8541 43.4773 49.0952 43.4773V41.4773C46.6545 41.4773 44.5057 41.856 42.6789 42.6513L43.4773 44.4851ZM49.0952 43.4773C50.6864 43.4773 52.1336 43.6667 53.4428 44.0363L53.9861 42.1115C52.4772 41.6856 50.8448 41.4773 49.0952 41.4773V43.4773ZM53.4501 44.0383C54.7602 44.3975 55.8764 44.9187 56.8134 45.5909L57.9792 43.9659C56.8253 43.1381 55.487 42.523 53.9789 42.1095L53.4501 44.0383ZM56.8193 45.5951C57.7424 46.2473 58.4408 47.0385 58.9318 47.9714L60.7017 47.0399C60.0564 45.8138 59.1411 44.7868 57.9733 43.9617L56.8193 45.5951ZM58.9357 47.9787C59.4274 48.8946 59.6861 49.9613 59.6861 51.2045H61.6861C61.6861 49.6751 61.3652 48.2759 60.6978 47.0327L58.9357 47.9787ZM59.6861 51.2045V69H61.6861V51.2045H59.6861ZM60.6861 68H52.8452V70H60.6861V68ZM53.8452 69V65.3523H51.8452V69H53.8452ZM52.8452 64.3523H52.6406V66.3523H52.8452V64.3523ZM51.7555 64.887C51.3464 65.6652 50.8295 66.3119 50.206 66.838L51.4957 68.3666C52.3267 67.6654 53.003 66.8121 53.5258 65.8176L51.7555 64.887ZM50.2001 66.843C49.5954 67.3613 48.871 67.759 48.0115 68.0289L48.6106 69.937C49.7057 69.5932 50.6744 69.0706 51.5016 68.3615L50.2001 66.843ZM48.0083 68.0299C47.1576 68.3001 46.1714 68.4432 45.0384 68.4432V70.4432C46.3371 70.4432 47.5327 70.2794 48.6138 69.936L48.0083 68.0299ZM47.6122 64.9886C48.6485 64.9886 49.6135 64.7777 50.4855 64.3348L49.5798 62.5516C49.0201 62.8359 48.3714 62.9886 47.6122 62.9886V64.9886ZM50.4799 64.3376C51.3512 63.9019 52.0653 63.2909 52.5988 62.5047L50.9438 61.3817C50.6137 61.8682 50.1687 62.2572 49.5855 62.5488L50.4799 64.3376ZM52.6034 62.4979C53.155 61.6704 53.419 60.7234 53.419 59.6932H51.419C51.419 60.3675 51.2512 60.9205 50.9393 61.3885L52.6034 62.4979ZM53.419 59.6932V57.2045H51.419V59.6932H53.419ZM51.955 56.3187C51.7875 56.4065 51.5604 56.4982 51.2624 56.5876L51.8371 58.5033C52.2208 58.3881 52.5733 58.2526 52.883 58.0904L51.955 56.3187ZM51.2533 56.5904C50.9519 56.6839 50.6133 56.7741 50.236 56.8604L50.6816 58.8101C51.0998 58.7145 51.4884 58.6115 51.8461 58.5005L51.2533 56.5904ZM50.236 56.8604C49.8599 56.9463 49.4718 57.0218 49.0715 57.0868L49.3916 59.061C49.8322 58.9895 50.2622 58.9059 50.6816 58.8101L50.236 56.8604ZM49.0715 57.0868C48.6554 57.1542 48.2569 57.216 47.8758 57.272L48.1668 59.2507C48.5584 59.1931 48.9667 59.1299 49.3916 59.061L49.0715 57.0868ZM47.8639 57.2738C47.0126 57.4095 46.2472 57.6249 45.585 57.9357L46.4349 59.7461C46.8863 59.5342 47.4619 59.3632 48.1787 59.2489L47.8639 57.2738ZM45.5778 57.9391C44.9053 58.2614 44.3405 58.705 43.9304 59.2887L45.5668 60.4386C45.7475 60.1814 46.0237 59.9432 46.4421 59.7427L45.5778 57.9391ZM43.9272 59.2932C43.5109 59.8927 43.3224 60.5872 43.3224 61.3295H45.3224C45.3224 60.9355 45.418 60.6528 45.5699 60.434L43.9272 59.2932ZM43.3224 61.3295C43.3224 62.4624 43.7435 63.4406 44.6477 64.1104L45.8381 62.5033C45.5151 62.264 45.3224 61.9239 45.3224 61.3295H43.3224ZM44.6547 64.1156C45.4874 64.7211 46.4968 64.9886 47.6122 64.9886V62.9886C46.8186 62.9886 46.2484 62.8016 45.8311 62.4981L44.6547 64.1156ZM80.5611 42.8182H81.5611V41.8182H80.5611V42.8182ZM80.5611 48.9545V49.9545H81.5611V48.9545H80.5611ZM64.044 48.9545H63.044V49.9545H64.044V48.9545ZM64.044 42.8182V41.8182H63.044V42.8182H64.044ZM67.5043 36.5455V35.5455H66.5043V36.5455H67.5043ZM75.8395 36.5455H76.8395V35.5455H75.8395V36.5455ZM76.0781 62.0114L75.1837 62.4586L75.1934 62.478L75.204 62.497L76.0781 62.0114ZM76.8111 62.6761L76.4172 63.5953L76.4312 63.6013L76.4454 63.6069L76.8111 62.6761ZM78.9588 62.7784L79.118 63.7656L79.1306 63.7636L79.1431 63.7613L78.9588 62.7784ZM79.777 62.608L80.7557 62.4028L80.5425 61.3858L79.5345 61.6378L79.777 62.608ZM81.0384 68.625L81.3131 69.5865L82.2081 69.3308L82.0171 68.4198L81.0384 68.625ZM79.3509 69.0511L79.1227 68.0775L79.1192 68.0783L79.3509 69.0511ZM76.777 69.375L76.7316 68.376L76.7305 68.3761L76.777 69.375ZM71.7486 68.6932L71.3759 69.6212L71.385 69.6248L71.7486 68.6932ZM68.5611 66.1023L67.7117 66.6301L67.7154 66.636L68.5611 66.1023ZM67.5043 61.6875L68.5043 61.7003V61.6875H67.5043ZM79.5611 42.8182V48.9545H81.5611V42.8182H79.5611ZM80.5611 47.9545H64.044V49.9545H80.5611V47.9545ZM65.044 48.9545V42.8182H63.044V48.9545H65.044ZM64.044 43.8182H80.5611V41.8182H64.044V43.8182ZM67.5043 37.5455H75.8395V35.5455H67.5043V37.5455ZM74.8395 36.5455V60.767H76.8395V36.5455H74.8395ZM74.8395 60.767C74.8395 61.3705 74.9316 61.9543 75.1837 62.4586L76.9726 61.5641C76.9065 61.432 76.8395 61.1864 76.8395 60.767H74.8395ZM75.204 62.497C75.4804 62.9946 75.8922 63.3703 76.4172 63.5953L77.205 61.757C77.0936 61.7092 77.0167 61.6417 76.9523 61.5257L75.204 62.497ZM76.4454 63.6069C76.909 63.789 77.4201 63.8636 77.9531 63.8636V61.8636C77.5998 61.8636 77.3496 61.8133 77.1767 61.7454L76.4454 63.6069ZM77.9531 63.8636C78.3306 63.8636 78.7193 63.83 79.118 63.7656L78.7996 61.7912C78.4937 61.8405 78.212 61.8636 77.9531 61.8636V63.8636ZM79.1431 63.7613C79.5114 63.6922 79.8079 63.631 80.0195 63.5781L79.5345 61.6378C79.3825 61.6758 79.1335 61.7282 78.7745 61.7955L79.1431 63.7613ZM78.7983 62.8131L80.0596 68.8302L82.0171 68.4198L80.7557 62.4028L78.7983 62.8131ZM80.7636 67.6635C80.3889 67.7705 79.8446 67.9083 79.1227 68.0775L79.579 70.0248C80.3117 69.853 80.8924 69.7067 81.3131 69.5865L80.7636 67.6635ZM79.1192 68.0783C78.4818 68.2301 77.6896 68.3325 76.7316 68.376L76.8224 70.374C77.8644 70.3266 78.7881 70.2131 79.5825 70.0239L79.1192 68.0783ZM76.7305 68.3761C74.8752 68.4624 73.3462 68.2432 72.1121 67.7616L71.385 69.6248C72.9464 70.2341 74.7697 70.4694 76.8234 70.3739L76.7305 68.3761ZM72.1213 67.7652C70.9137 67.2802 70.0241 66.5468 69.4068 65.5686L67.7154 66.636C68.5754 67.9987 69.8107 68.9925 71.3759 69.6211L72.1213 67.7652ZM69.4105 65.5745C68.8091 64.6067 68.4832 63.3362 68.5042 61.7003L66.5043 61.6747C66.4799 63.5842 66.8585 65.257 67.7117 66.63L69.4105 65.5745ZM68.5043 61.6875V36.5455H66.5043V61.6875H68.5043ZM101.706 42.8182V41.8182H100.706V42.8182H101.706ZM110.024 42.8182H111.024V41.8182H110.024V42.8182ZM110.024 69V70H111.024V69H110.024ZM102.081 69H101.081V70H102.081V69ZM102.081 64.125H103.081V63.125H102.081V64.125ZM101.808 64.125V63.125H101.107L100.868 63.7849L101.808 64.125ZM98.8423 67.9432L99.4002 68.7731L99.4017 68.7721L98.8423 67.9432ZM89.1094 68.1136L88.5917 68.9692L88.5917 68.9692L89.1094 68.1136ZM85.956 64.6875L85.0643 65.1402L85.0657 65.143L85.956 64.6875ZM84.8139 59.5057L83.8139 59.5057L83.8139 59.5114L84.8139 59.5057ZM84.8139 42.8182V41.8182H83.8139V42.8182H84.8139ZM93.1491 42.8182H94.1491V41.8182H93.1491V42.8182ZM93.1491 57.8693L92.1491 57.8693L92.1492 57.8773L93.1491 57.8693ZM94.2741 61.2273L95.0164 60.5572L95.0164 60.5572L94.2741 61.2273ZM99.5241 61.9091L100.007 62.7847L100.012 62.7818L99.5241 61.9091ZM101.109 60.2898L100.235 59.8041L100.233 59.8089L101.109 60.2898ZM102.706 57.6989V42.8182H100.706V57.6989H102.706ZM101.706 43.8182H110.024V41.8182H101.706V43.8182ZM109.024 42.8182V69H111.024V42.8182H109.024ZM110.024 68H102.081V70H110.024V68ZM103.081 69V64.125H101.081V69H103.081ZM102.081 63.125H101.808V65.125H102.081V63.125ZM100.868 63.7849C100.36 65.1902 99.5032 66.2909 98.283 67.1143L99.4017 68.7721C100.977 67.7091 102.098 66.2643 102.749 64.4651L100.868 63.7849ZM98.2845 67.1132C97.0905 67.9157 95.617 68.3409 93.8139 68.3409V70.3409C95.9426 70.3409 97.8214 69.8343 99.4002 68.7731L98.2845 67.1132ZM93.8139 68.3409C92.1883 68.3409 90.8038 67.97 89.627 67.2581L88.5917 68.9692C90.1195 69.8936 91.8714 70.3409 93.8139 70.3409V68.3409ZM89.627 67.2581C88.4405 66.5402 87.5153 65.5398 86.8462 64.232L85.0657 65.143C85.8966 66.767 87.0737 68.0507 88.5917 68.9692L89.627 67.2581ZM86.8476 64.2348C86.1803 62.9204 85.8245 61.3516 85.8139 59.4999L83.8139 59.5114C83.826 61.6143 84.2316 63.5 85.0643 65.1402L86.8476 64.2348ZM85.8139 59.5057V42.8182H83.8139V59.5057H85.8139ZM84.8139 43.8182H93.1491V41.8182H84.8139V43.8182ZM92.1491 42.8182V57.8693H94.1491V42.8182H92.1491ZM92.1492 57.8773C92.1619 59.47 92.5863 60.85 93.5319 61.8974L95.0164 60.5572C94.4847 59.9682 94.1591 59.1096 94.1491 57.8613L92.1492 57.8773ZM93.5319 61.8974C94.4902 62.9589 95.7837 63.4545 97.2912 63.4545V61.4545C96.2532 61.4545 95.5354 61.132 95.0164 60.5572L93.5319 61.8974ZM97.2912 63.4545C98.2721 63.4545 99.1855 63.238 100.007 62.7847L99.0411 61.0335C98.5446 61.3074 97.9694 61.4545 97.2912 61.4545V63.4545ZM100.012 62.7818C100.854 62.3109 101.514 61.6317 101.986 60.7706L100.233 59.8089C99.9321 60.3569 99.535 60.7572 99.036 61.0363L100.012 62.7818ZM101.984 60.7754C102.481 59.8799 102.706 58.8407 102.706 57.6989H100.706C100.706 58.5798 100.533 59.2678 100.235 59.8041L101.984 60.7754ZM115.33 69H114.33V70H115.33V69ZM115.33 42.8182V41.8182H114.33V42.8182H115.33ZM123.426 42.8182H124.426V41.8182H123.426V42.8182ZM123.426 47.5909H122.426V48.5909H123.426V47.5909ZM123.699 47.5909V48.5909H124.46L124.663 47.8572L123.699 47.5909ZM126.034 43.7386L126.649 44.5276L126.654 44.5235L126.034 43.7386ZM130.994 42.5455L130.857 43.5359L130.87 43.5378L130.884 43.5393L130.994 42.5455ZM132.136 42.767H133.136V42.0161L132.415 41.8067L132.136 42.767ZM132.136 50.0114L131.812 50.9573L133.136 51.4114V50.0114H132.136ZM130.568 49.6875L130.444 50.6798L130.446 50.68L130.568 49.6875ZM126.188 50.233L126.67 51.1089L126.674 51.1065L126.188 50.233ZM124.33 52.0568L123.464 51.5553L123.462 51.5593L124.33 52.0568ZM123.665 69V70H124.665V69H123.665ZM116.33 69V42.8182H114.33V69H116.33ZM115.33 43.8182H123.426V41.8182H115.33V43.8182ZM122.426 42.8182V47.5909H124.426V42.8182H122.426ZM123.426 48.5909H123.699V46.5909H123.426V48.5909ZM124.663 47.8572C125.1 46.2732 125.784 45.2006 126.649 44.5275L125.42 42.9497C124.125 43.9584 123.252 45.4541 122.735 47.3246L124.663 47.8572ZM126.654 44.5235C127.549 43.8166 128.584 43.4602 129.801 43.4602V41.4602C128.154 41.4602 126.678 41.9561 125.414 42.9538L126.654 44.5235ZM129.801 43.4602C130.138 43.4602 130.49 43.485 130.857 43.5359L131.132 41.555C130.68 41.4922 130.237 41.4602 129.801 41.4602V43.4602ZM130.884 43.5393C131.243 43.5792 131.567 43.6429 131.858 43.7274L132.415 41.8067C132.002 41.6866 131.564 41.6026 131.105 41.5516L130.884 43.5393ZM131.136 42.767V50.0114H133.136V42.767H131.136ZM132.461 49.0654C131.972 48.8978 131.373 48.7789 130.69 48.695L130.446 50.68C131.058 50.7552 131.506 50.8522 131.812 50.9573L132.461 49.0654ZM130.692 48.6952C130.026 48.6119 129.415 48.5682 128.864 48.5682V50.5682C129.313 50.5682 129.838 50.604 130.444 50.6798L130.692 48.6952ZM128.864 48.5682C127.72 48.5682 126.658 48.8263 125.701 49.3594L126.674 51.1065C127.308 50.7533 128.03 50.5682 128.864 50.5682V48.5682ZM125.705 49.357C124.76 49.8777 124.009 50.616 123.464 51.5553L125.195 52.5583C125.559 51.9295 126.047 51.4519 126.67 51.1089L125.705 49.357ZM123.462 51.5593C122.918 52.5079 122.665 53.5946 122.665 54.7841H124.665C124.665 53.8827 124.855 53.1512 125.197 52.5543L123.462 51.5593ZM122.665 54.7841V69H124.665V54.7841H122.665ZM123.665 68H115.33V70H123.665V68ZM137.48 68.608L137.075 69.5225L137.085 69.5267L137.48 68.608ZM134.429 66.0511L133.588 66.5924L133.594 66.602L134.429 66.0511ZM134.088 58.0568L133.198 57.6015L133.198 57.6015L134.088 58.0568ZM136.202 55.6193L136.773 56.44L136.773 56.44L136.202 55.6193ZM139.304 54.2045L139.566 55.1696L139.575 55.1671L139.304 54.2045ZM143.054 53.5398L143.139 54.5362L143.145 54.5356L143.054 53.5398ZM146.651 53.1136L146.811 54.1008L146.823 54.0987L146.651 53.1136ZM148.628 52.4489L149.198 53.2702L149.203 53.2671L148.628 52.4489ZM148.355 49.0909L148.976 48.3072L148.976 48.3072L148.355 49.0909ZM143.259 49.0909L142.679 48.2762L142.679 48.2762L143.259 49.0909ZM141.98 51.0682L141.945 52.0676L142.781 52.0972L142.958 51.2795L141.98 51.0682ZM134.293 50.7955L133.303 50.654L133.145 51.7554L134.257 51.7948L134.293 50.7955ZM136.048 46.5341L135.251 45.9306L135.25 45.9318L136.048 46.5341ZM139.969 43.5682L140.365 44.4864L140.368 44.4851L139.969 43.5682ZM150.605 43.0739L150.333 44.0363L150.341 44.0383L150.605 43.0739ZM154.287 44.7784L153.704 45.591L153.71 45.5951L154.287 44.7784ZM156.707 47.5057L155.822 47.9714L155.826 47.9787L156.707 47.5057ZM157.577 69V70H158.577V69H157.577ZM149.736 69H148.736V70H149.736V69ZM149.736 65.3523H150.736V64.3523H149.736V65.3523ZM149.531 65.3523V64.3523H148.927L148.646 64.887L149.531 65.3523ZM147.741 67.6023L147.097 66.838L147.091 66.843L147.741 67.6023ZM145.202 68.983L144.902 68.0289L144.899 68.0299L145.202 68.983ZM146.923 63.4432L146.476 62.5487L146.47 62.5516L146.923 63.4432ZM148.662 61.9432L149.489 62.5047L149.494 62.4979L148.662 61.9432ZM149.31 57.2045H150.31V55.5519L148.846 56.3187L149.31 57.2045ZM148.44 57.5455L148.153 56.5876L148.144 56.5904L148.44 57.5455ZM146.122 58.0739L146.282 59.061L146.282 59.061L146.122 58.0739ZM144.912 58.2614L144.766 57.2719L144.755 57.2738L144.912 58.2614ZM142.901 58.8409L142.476 57.9356L142.468 57.9391L142.901 58.8409ZM141.639 59.8636L140.821 59.2887L140.818 59.2932L141.639 59.8636ZM142.134 63.3068L141.538 64.1104L141.545 64.1156L142.134 63.3068ZM141.929 68.4432C140.37 68.4432 139.025 68.1835 137.875 67.6892L137.085 69.5267C138.526 70.1461 140.147 70.4432 141.929 70.4432V68.4432ZM137.885 67.6935C136.77 67.2003 135.905 66.4716 135.264 65.5003L133.594 66.602C134.453 67.9034 135.622 68.8793 137.075 69.5224L137.885 67.6935ZM135.27 65.51C134.659 64.5615 134.321 63.3246 134.321 61.7386H132.321C132.321 63.6072 132.721 65.2453 133.588 66.5923L135.27 65.51ZM134.321 61.7386C134.321 60.3972 134.557 59.3358 134.978 58.5121L133.198 57.6015C132.596 58.7778 132.321 60.171 132.321 61.7386H134.321ZM134.978 58.5121C135.417 57.6542 136.014 56.9687 136.773 56.44L135.63 54.7986C134.594 55.52 133.782 56.4595 133.198 57.6015L134.978 58.5121ZM136.773 56.44C137.567 55.8872 138.494 55.4609 139.566 55.1695L139.042 53.2396C137.773 53.5845 136.632 54.1015 135.63 54.7986L136.773 56.44ZM139.575 55.1671C140.679 54.8562 141.866 54.6449 143.139 54.5361L142.969 52.5434C141.582 52.6619 140.27 52.8938 139.033 53.242L139.575 55.1671ZM143.145 54.5356C144.645 54.3982 145.869 54.2537 146.811 54.1007L146.49 52.1266C145.614 52.269 144.441 52.4086 142.963 52.5439L143.145 54.5356ZM146.823 54.0987C147.773 53.9323 148.607 53.6807 149.198 53.2702L148.057 51.6275C147.83 51.7852 147.346 51.9768 146.478 52.1286L146.823 54.0987ZM149.203 53.2671C149.902 52.7758 150.259 52.0491 150.259 51.2045H148.259C148.259 51.4282 148.195 51.531 148.053 51.6307L149.203 53.2671ZM150.259 51.2045V51.1193H148.259V51.2045H150.259ZM150.259 51.1193C150.259 49.9868 149.853 49.002 148.976 48.3072L147.734 49.8747C148.062 50.1344 148.259 50.5018 148.259 51.1193H150.259ZM148.976 48.3072C148.146 47.6496 147.091 47.375 145.918 47.375V49.375C146.789 49.375 147.359 49.5776 147.734 49.8747L148.976 48.3072ZM145.918 47.375C144.677 47.375 143.567 47.6435 142.679 48.2762L143.838 49.9056C144.291 49.5837 144.954 49.375 145.918 49.375V47.375ZM142.679 48.2762C141.795 48.9051 141.235 49.7845 141.003 50.8568L142.958 51.2795C143.089 50.6701 143.381 50.2312 143.838 49.9056L142.679 48.2762ZM142.016 50.0688L134.328 49.7961L134.257 51.7948L141.945 52.0676L142.016 50.0688ZM135.283 50.9369C135.487 49.5087 136.008 48.2478 136.847 47.1364L135.25 45.9318C134.202 47.3204 133.553 48.9003 133.303 50.654L135.283 50.9369ZM136.846 47.1375C137.682 46.0326 138.842 45.1437 140.365 44.4863L139.573 42.65C137.778 43.4245 136.324 44.5129 135.251 45.9306L136.846 47.1375ZM140.368 44.4851C141.882 43.8258 143.745 43.4773 145.986 43.4773V41.4773C143.545 41.4773 141.396 41.856 139.57 42.6513L140.368 44.4851ZM145.986 43.4773C147.577 43.4773 149.024 43.6667 150.333 44.0363L150.877 42.1115C149.368 41.6856 147.735 41.4773 145.986 41.4773V43.4773ZM150.341 44.0383C151.651 44.3975 152.767 44.9187 153.704 45.5909L154.87 43.9659C153.716 43.1381 152.378 42.523 150.87 42.1095L150.341 44.0383ZM153.71 45.5951C154.633 46.2473 155.331 47.0385 155.822 47.9714L157.592 47.0399C156.947 45.8138 156.032 44.7868 154.864 43.9617L153.71 45.5951ZM155.826 47.9787C156.318 48.8946 156.577 49.9613 156.577 51.2045H158.577C158.577 49.6751 158.256 48.2759 157.588 47.0327L155.826 47.9787ZM156.577 51.2045V69H158.577V51.2045H156.577ZM157.577 68H149.736V70H157.577V68ZM150.736 69V65.3523H148.736V69H150.736ZM149.736 64.3523H149.531V66.3523H149.736V64.3523ZM148.646 64.887C148.237 65.6652 147.72 66.3119 147.097 66.838L148.386 68.3666C149.217 67.6654 149.894 66.8121 150.416 65.8176L148.646 64.887ZM147.091 66.843C146.486 67.3613 145.762 67.759 144.902 68.0289L145.501 69.937C146.596 69.5932 147.565 69.0706 148.392 68.3615L147.091 66.843ZM144.899 68.0299C144.048 68.3001 143.062 68.4432 141.929 68.4432V70.4432C143.228 70.4432 144.423 70.2794 145.504 69.936L144.899 68.0299ZM144.503 64.9886C145.539 64.9886 146.504 64.7777 147.376 64.3348L146.47 62.5516C145.911 62.8359 145.262 62.9886 144.503 62.9886V64.9886ZM147.371 64.3376C148.242 63.9019 148.956 63.2909 149.489 62.5047L147.834 61.3817C147.504 61.8682 147.059 62.2572 146.476 62.5488L147.371 64.3376ZM149.494 62.4979C150.046 61.6704 150.31 60.7234 150.31 59.6932H148.31C148.31 60.3675 148.142 60.9205 147.83 61.3885L149.494 62.4979ZM150.31 59.6932V57.2045H148.31V59.6932H150.31ZM148.846 56.3187C148.678 56.4065 148.451 56.4982 148.153 56.5876L148.728 58.5033C149.111 58.3881 149.464 58.2526 149.774 58.0904L148.846 56.3187ZM148.144 56.5904C147.843 56.6839 147.504 56.7741 147.127 56.8604L147.572 58.8101C147.99 58.7145 148.379 58.6115 148.737 58.5005L148.144 56.5904ZM147.127 56.8604C146.751 56.9463 146.362 57.0218 145.962 57.0868L146.282 59.061C146.723 58.9895 147.153 58.9059 147.572 58.8101L147.127 56.8604ZM145.962 57.0868C145.546 57.1542 145.148 57.216 144.766 57.272L145.057 59.2507C145.449 59.1931 145.857 59.1299 146.282 59.061L145.962 57.0868ZM144.755 57.2738C143.903 57.4095 143.138 57.6249 142.476 57.9357L143.325 59.7461C143.777 59.5342 144.352 59.3632 145.069 59.2489L144.755 57.2738ZM142.468 57.9391C141.796 58.2614 141.231 58.705 140.821 59.2887L142.457 60.4386C142.638 60.1814 142.914 59.9432 143.333 59.7427L142.468 57.9391ZM140.818 59.2932C140.402 59.8927 140.213 60.5872 140.213 61.3295H142.213C142.213 60.9355 142.309 60.6528 142.461 60.434L140.818 59.2932ZM140.213 61.3295C140.213 62.4624 140.634 63.4406 141.538 64.1104L142.729 62.5033C142.406 62.264 142.213 61.9239 142.213 61.3295H140.213ZM141.545 64.1156C142.378 64.7211 143.387 64.9886 144.503 64.9886V62.9886C143.709 62.9886 143.139 62.8016 142.722 62.4981L141.545 64.1156ZM171.009 34.0909H172.009V33.0909H171.009V34.0909ZM171.009 69V70H172.009V69H171.009ZM162.673 69H161.673V70H162.673V69ZM162.673 34.0909V33.0909H161.673V34.0909H162.673ZM170.009 34.0909V69H172.009V34.0909H170.009ZM171.009 68H162.673V70H171.009V68ZM163.673 69V34.0909H161.673V69H163.673ZM162.673 35.0909H171.009V33.0909H162.673V35.0909ZM199.172 50.8125L199.199 51.8121L200.256 51.7839L200.168 50.7295L199.172 50.8125ZM191.518 51.017L190.529 51.1614L190.657 52.0404L191.545 52.0167L191.518 51.017ZM190.871 49.5682L190.096 50.2004L190.104 50.2104L190.871 49.5682ZM189.49 48.5625L189.08 49.4748L189.092 49.4798L189.103 49.4845L189.49 48.5625ZM185.075 48.767L184.582 47.897L184.576 47.9006L185.075 48.767ZM184.087 50.3352L185.086 50.3574L185.087 50.3377L185.086 50.318L184.087 50.3352ZM184.7 51.6648L184.035 52.4111L184.045 52.4198L184.7 51.6648ZM187.001 52.5682L186.799 53.5476L186.807 53.5492L186.816 53.5508L187.001 52.5682ZM192.047 53.5227L192.235 52.5405L192.233 52.5402L192.047 53.5227ZM197.876 56.0114L197.203 56.7507L197.206 56.7537L197.876 56.0114ZM199.82 60.6136L200.82 60.62L200.82 60.6077L199.82 60.6136ZM198.217 65.3011L197.434 64.6789L197.431 64.683L198.217 65.3011ZM193.922 68.4034L194.293 69.3319L194.298 69.3299L193.922 68.4034ZM178.837 67.1932L178.253 68.0049L178.257 68.0084L178.837 67.1932ZM175.155 60.9886L175.13 59.9889L174.033 60.0162L174.162 61.1062L175.155 60.9886ZM183.388 60.7841L184.37 60.597L184.211 59.7633L183.363 59.7844L183.388 60.7841ZM184.803 62.9659L185.351 62.13L185.351 62.13L184.803 62.9659ZM190.325 63.1193L189.815 62.2593L189.815 62.2593L190.325 63.1193ZM191.348 61.5341L192.348 61.5513L192.348 61.5331L192.348 61.5149L191.348 61.5341ZM190.564 60.1193L189.984 60.9343L189.99 60.9386L189.997 60.9428L190.564 60.1193ZM188.161 59.267L187.974 60.2494L187.976 60.2499L188.161 59.267ZM183.592 58.3977L183.779 57.4153L183.771 57.4139L183.592 58.3977ZM177.729 55.7557L177.018 56.4597L177.022 56.4628L177.729 55.7557ZM175.82 50.8125L176.82 50.8182L176.82 50.806L175.82 50.8125ZM177.217 46.3295L178.013 46.9354L178.016 46.9319L177.217 46.3295ZM181.24 43.4659L180.886 42.5308L180.886 42.5308L181.24 43.4659ZM195.78 44.7102L195.191 45.5188L195.194 45.5209L195.78 44.7102ZM199.145 49.8129L191.492 50.0174L191.545 52.0167L199.199 51.8121L199.145 49.8129ZM192.508 50.8727C192.402 50.1448 192.109 49.4892 191.637 48.926L190.104 50.2104C190.337 50.488 190.476 50.7984 190.529 51.1614L192.508 50.8727ZM191.646 48.9361C191.179 48.3643 190.58 47.9357 189.877 47.6405L189.103 49.4845C189.536 49.6665 189.858 49.9084 190.096 50.2003L191.646 48.9361ZM189.9 47.6502C189.19 47.3316 188.398 47.1875 187.547 47.1875V49.1875C188.173 49.1875 188.677 49.2934 189.08 49.4748L189.9 47.6502ZM187.547 47.1875C186.448 47.1875 185.446 47.4078 184.582 47.897L185.568 49.6371C186.069 49.3536 186.714 49.1875 187.547 49.1875V47.1875ZM184.576 47.9006C183.656 48.4307 183.068 49.2597 183.087 50.3525L185.086 50.318C185.083 50.0925 185.154 49.8761 185.575 49.6335L184.576 47.9006ZM183.087 50.313C183.068 51.149 183.421 51.8635 184.035 52.4111L185.366 50.9185C185.139 50.7161 185.082 50.5442 185.086 50.3574L183.087 50.313ZM184.045 52.4198C184.68 52.9716 185.663 53.3132 186.799 53.5476L187.203 51.5888C186.136 51.3686 185.584 51.108 185.356 50.9097L184.045 52.4198ZM186.816 53.5508L191.861 54.5053L192.233 52.5402L187.187 51.5856L186.816 53.5508ZM191.859 54.5049C194.382 54.9877 196.122 55.766 197.203 56.7507L198.55 55.272C197.086 53.9385 194.939 53.0578 192.235 52.5405L191.859 54.5049ZM197.206 56.7537C198.259 57.7039 198.81 58.959 198.82 60.6196L200.82 60.6077C200.807 58.4501 200.062 56.637 198.546 55.269L197.206 56.7537ZM198.82 60.6073C198.81 62.1927 198.344 63.535 197.435 64.6789L199 65.9234C200.205 64.4082 200.807 62.6255 200.82 60.62L198.82 60.6073ZM197.431 64.683C196.509 65.8554 195.229 66.7931 193.545 67.4769L194.298 69.3299C196.251 68.5364 197.834 67.406 199.003 65.9193L197.431 64.683ZM193.55 67.4749C191.871 68.1467 189.921 68.4943 187.683 68.4943V70.4943C190.127 70.4943 192.336 70.1147 194.293 69.3319L193.55 67.4749ZM187.683 68.4943C184.07 68.4943 181.349 67.7515 179.416 66.378L178.257 68.0084C180.642 69.703 183.82 70.4943 187.683 70.4943V68.4943ZM179.421 66.3815C177.497 64.9972 176.421 63.179 176.148 60.871L174.162 61.1062C174.502 63.9801 175.881 66.2983 178.253 68.0049L179.421 66.3815ZM175.18 61.9883L183.413 61.7838L183.363 59.7844L175.13 59.9889L175.18 61.9883ZM182.405 60.9712C182.634 62.172 183.25 63.1424 184.254 63.8018L185.351 62.13C184.833 61.7894 184.505 61.3053 184.37 60.597L182.405 60.9712ZM184.254 63.8018C185.22 64.4365 186.398 64.7159 187.717 64.7159V62.7159C186.673 62.7159 185.908 62.4953 185.351 62.13L184.254 63.8018ZM187.717 64.7159C188.901 64.7159 189.964 64.4965 190.835 63.9794L189.815 62.2593C189.346 62.5375 188.67 62.7159 187.717 62.7159V64.7159ZM190.835 63.9794C191.74 63.4425 192.329 62.6255 192.348 61.5513L190.348 61.5169C190.344 61.7609 190.251 62.0007 189.815 62.2593L190.835 63.9794ZM192.348 61.5149C192.33 60.5831 191.892 59.8199 191.131 59.2958L189.997 60.9428C190.259 61.1232 190.343 61.3033 190.348 61.5533L192.348 61.5149ZM191.143 59.3044C190.456 58.8153 189.485 58.498 188.345 58.2842L187.976 60.2499C189.018 60.4452 189.649 60.6961 189.984 60.9343L191.143 59.3044ZM188.347 58.2847L183.779 57.4154L183.405 59.3801L187.974 60.2494L188.347 58.2847ZM183.771 57.4139C181.257 56.9568 179.523 56.1359 178.436 55.0486L177.022 56.4628C178.502 57.9437 180.677 58.8841 183.413 59.3816L183.771 57.4139ZM178.439 55.0517C177.361 53.964 176.81 52.5807 176.82 50.8182L174.82 50.8068C174.807 53.0443 175.528 54.9564 177.018 56.4597L178.439 55.0517ZM176.82 50.806C176.809 49.2482 177.22 47.9764 178.013 46.9354L176.422 45.7237C175.328 47.1599 174.807 48.8768 174.82 50.819L176.82 50.806ZM178.016 46.9319C178.825 45.8586 179.999 45.0059 181.595 44.401L180.886 42.5308C179.004 43.2441 177.496 44.3005 176.419 45.7272L178.016 46.9319ZM181.595 44.401C183.194 43.7947 185.12 43.4773 187.393 43.4773V41.4773C184.94 41.4773 182.764 41.8189 180.886 42.5308L181.595 44.401ZM187.393 43.4773C190.81 43.4773 193.373 44.1956 195.191 45.5188L196.368 43.9017C194.095 42.2476 191.068 41.4773 187.393 41.4773V43.4773ZM195.194 45.5209C196.995 46.8214 197.983 48.5854 198.175 50.8955L200.168 50.7295C199.929 47.8578 198.656 45.5536 196.365 43.8995L195.194 45.5209Z" fill="black" mask="url(#path-1-outside-1_120_18)"/>
<path d="M32.3523 34.0909H33.3523V33.0909H32.3523V34.0909ZM32.3523 69V70H33.3523V69H32.3523ZM25.1932 69L24.3699 69.5677L24.668 70H25.1932V69ZM11.3011 48.8523L12.1244 48.2846L11.8263 47.8523H11.3011V48.8523ZM11.0795 48.8523V47.8523H10.0795V48.8523H11.0795ZM11.0795 69V70H12.0795V69H11.0795ZM2.64205 69H1.64205V70H2.64205V69ZM2.64205 34.0909V33.0909H1.64205V34.0909H2.64205ZM9.90341 34.0909L10.7292 33.5269L10.4314 33.0909H9.90341V34.0909ZM23.642 54.2045L22.8163 54.7686L23.1141 55.2045H23.642V54.2045ZM23.9318 54.2045V55.2045H24.9318V54.2045H23.9318ZM23.9318 34.0909V33.0909H22.9318V34.0909H23.9318ZM31.3523 34.0909V69H33.3523V34.0909H31.3523ZM32.3523 68H25.1932V70H32.3523V68ZM26.0165 68.4323L12.1244 48.2846L10.4779 49.4199L24.3699 69.5677L26.0165 68.4323ZM11.3011 47.8523H11.0795V49.8523H11.3011V47.8523ZM10.0795 48.8523V69H12.0795V48.8523H10.0795ZM11.0795 68H2.64205V70H11.0795V68ZM3.64205 69V34.0909H1.64205V69H3.64205ZM2.64205 35.0909H9.90341V33.0909H2.64205V35.0909ZM9.07766 34.6549L22.8163 54.7686L24.4678 53.6405L10.7292 33.5269L9.07766 34.6549ZM23.642 55.2045H23.9318V53.2045H23.642V55.2045ZM24.9318 54.2045V34.0909H22.9318V54.2045H24.9318ZM23.9318 35.0909H32.3523V33.0909H23.9318V35.0909ZM40.5895 68.608L40.1848 69.5225L40.1946 69.5267L40.5895 68.608ZM37.5384 66.0511L36.6974 66.5924L36.7037 66.602L37.5384 66.0511ZM37.1974 58.0568L36.3071 57.6015L36.3071 57.6015L37.1974 58.0568ZM39.3111 55.6193L39.8824 56.44L39.8824 56.44L39.3111 55.6193ZM42.4134 54.2045L42.6757 55.1696L42.6844 55.1671L42.4134 54.2045ZM46.1634 53.5398L46.2485 54.5362L46.2546 54.5356L46.1634 53.5398ZM49.7599 53.1136L49.9204 54.1008L49.9323 54.0987L49.7599 53.1136ZM51.7372 52.4489L52.3076 53.2702L52.3122 53.2671L51.7372 52.4489ZM51.4645 49.0909L52.0856 48.3072L52.0856 48.3072L51.4645 49.0909ZM46.3679 49.0909L45.788 48.2762L45.788 48.2762L46.3679 49.0909ZM45.0895 51.0682L45.054 52.0676L45.8901 52.0972L46.0669 51.2795L45.0895 51.0682ZM37.402 50.7955L36.412 50.654L36.2547 51.7554L37.3665 51.7948L37.402 50.7955ZM39.1577 46.5341L38.3603 45.9306L38.3594 45.9318L39.1577 46.5341ZM43.0781 43.5682L43.4743 44.4864L43.4773 44.4851L43.0781 43.5682ZM53.7145 43.0739L53.4428 44.0363L53.4501 44.0383L53.7145 43.0739ZM57.3963 44.7784L56.8134 45.591L56.8193 45.5951L57.3963 44.7784ZM59.8168 47.5057L58.9318 47.9714L58.9357 47.9787L59.8168 47.5057ZM60.6861 69V70H61.6861V69H60.6861ZM52.8452 69H51.8452V70H52.8452V69ZM52.8452 65.3523H53.8452V64.3523H52.8452V65.3523ZM52.6406 65.3523V64.3523H52.0365L51.7555 64.887L52.6406 65.3523ZM50.8509 67.6023L50.206 66.838L50.2001 66.843L50.8509 67.6023ZM48.3111 68.983L48.0115 68.0289L48.0083 68.0299L48.3111 68.983ZM50.0327 63.4432L49.5854 62.5487L49.5798 62.5516L50.0327 63.4432ZM51.7713 61.9432L52.5988 62.5047L52.6034 62.4979L51.7713 61.9432ZM52.419 57.2045H53.419V55.5519L51.955 56.3187L52.419 57.2045ZM51.5497 57.5455L51.2624 56.5876L51.2533 56.5904L51.5497 57.5455ZM49.2315 58.0739L49.3916 59.061L49.3916 59.061L49.2315 58.0739ZM48.0213 58.2614L47.8758 57.2719L47.8639 57.2738L48.0213 58.2614ZM46.0099 58.8409L45.585 57.9356L45.5778 57.9391L46.0099 58.8409ZM44.7486 59.8636L43.9304 59.2887L43.9272 59.2932L44.7486 59.8636ZM45.2429 63.3068L44.6476 64.1104L44.6547 64.1156L45.2429 63.3068ZM45.0384 68.4432C43.479 68.4432 42.1343 68.1835 40.9844 67.6892L40.1946 69.5267C41.6356 70.1461 43.2568 70.4432 45.0384 70.4432V68.4432ZM40.9941 67.6935C39.8794 67.2003 39.014 66.4716 38.373 65.5003L36.7037 66.602C37.5627 67.9034 38.7314 68.8793 40.1849 69.5224L40.9941 67.6935ZM38.3793 65.51C37.7689 64.5615 37.4304 63.3246 37.4304 61.7386H35.4304C35.4304 63.6072 35.8306 65.2453 36.6974 66.5923L38.3793 65.51ZM37.4304 61.7386C37.4304 60.3972 37.6666 59.3358 38.0878 58.5121L36.3071 57.6015C35.7056 58.7778 35.4304 60.171 35.4304 61.7386H37.4304ZM38.0878 58.5121C38.5265 57.6542 39.1231 56.9687 39.8824 56.44L38.7397 54.7986C37.7036 55.52 36.8911 56.4595 36.3071 57.6015L38.0878 58.5121ZM39.8824 56.44C40.6765 55.8872 41.6038 55.4609 42.6757 55.1695L42.151 53.2396C40.882 53.5845 39.7411 54.1015 38.7397 54.7986L39.8824 56.44ZM42.6844 55.1671C43.7885 54.8562 44.9758 54.6449 46.2485 54.5361L46.0782 52.5434C44.6918 52.6619 43.3791 52.8938 42.1423 53.242L42.6844 55.1671ZM46.2546 54.5356C47.754 54.3982 48.9787 54.2537 49.9203 54.1007L49.5995 52.1266C48.723 52.269 47.5499 52.4086 46.0721 52.5439L46.2546 54.5356ZM49.9323 54.0987C50.8828 53.9323 51.7166 53.6807 52.3076 53.2702L51.1668 51.6275C50.9397 51.7852 50.4553 51.9768 49.5876 52.1286L49.9323 54.0987ZM52.3122 53.2671C53.0113 52.7758 53.3679 52.0491 53.3679 51.2045H51.3679C51.3679 51.4282 51.3041 51.531 51.1623 51.6307L52.3122 53.2671ZM53.3679 51.2045V51.1193H51.3679V51.2045H53.3679ZM53.3679 51.1193C53.3679 49.9868 52.9624 49.002 52.0856 48.3072L50.8434 49.8747C51.1711 50.1344 51.3679 50.5018 51.3679 51.1193H53.3679ZM52.0856 48.3072C51.2558 47.6496 50.2006 47.375 49.027 47.375V49.375C49.8989 49.375 50.4686 49.5776 50.8434 49.8747L52.0856 48.3072ZM49.027 47.375C47.7864 47.375 46.6768 47.6435 45.788 48.2762L46.9478 49.9056C47.4 49.5837 48.0631 49.375 49.027 49.375V47.375ZM45.788 48.2762C44.9046 48.9051 44.3439 49.7845 44.1121 50.8568L46.0669 51.2795C46.1987 50.6701 46.4903 50.2312 46.9478 49.9056L45.788 48.2762ZM45.1249 50.0688L37.4374 49.7961L37.3665 51.7948L45.054 52.0676L45.1249 50.0688ZM38.3919 50.9369C38.596 49.5087 39.1173 48.2478 39.9559 47.1364L38.3594 45.9318C37.3116 47.3204 36.6626 48.9003 36.412 50.654L38.3919 50.9369ZM39.9551 47.1375C40.7912 46.0326 41.951 45.1437 43.4743 44.4863L42.6819 42.65C40.8871 43.4245 39.4332 44.5129 38.3603 45.9306L39.9551 47.1375ZM43.4773 44.4851C44.9914 43.8258 46.8541 43.4773 49.0952 43.4773V41.4773C46.6545 41.4773 44.5057 41.856 42.6789 42.6513L43.4773 44.4851ZM49.0952 43.4773C50.6864 43.4773 52.1336 43.6667 53.4428 44.0363L53.9861 42.1115C52.4772 41.6856 50.8448 41.4773 49.0952 41.4773V43.4773ZM53.4501 44.0383C54.7602 44.3975 55.8764 44.9187 56.8134 45.5909L57.9792 43.9659C56.8253 43.1381 55.487 42.523 53.9789 42.1095L53.4501 44.0383ZM56.8193 45.5951C57.7424 46.2473 58.4408 47.0385 58.9318 47.9714L60.7017 47.0399C60.0564 45.8138 59.1411 44.7868 57.9733 43.9617L56.8193 45.5951ZM58.9357 47.9787C59.4274 48.8946 59.6861 49.9613 59.6861 51.2045H61.6861C61.6861 49.6751 61.3652 48.2759 60.6978 47.0327L58.9357 47.9787ZM59.6861 51.2045V69H61.6861V51.2045H59.6861ZM60.6861 68H52.8452V70H60.6861V68ZM53.8452 69V65.3523H51.8452V69H53.8452ZM52.8452 64.3523H52.6406V66.3523H52.8452V64.3523ZM51.7555 64.887C51.3464 65.6652 50.8295 66.3119 50.206 66.838L51.4957 68.3666C52.3267 67.6654 53.003 66.8121 53.5258 65.8176L51.7555 64.887ZM50.2001 66.843C49.5954 67.3613 48.871 67.759 48.0115 68.0289L48.6106 69.937C49.7057 69.5932 50.6744 69.0706 51.5016 68.3615L50.2001 66.843ZM48.0083 68.0299C47.1576 68.3001 46.1714 68.4432 45.0384 68.4432V70.4432C46.3371 70.4432 47.5327 70.2794 48.6138 69.936L48.0083 68.0299ZM47.6122 64.9886C48.6485 64.9886 49.6135 64.7777 50.4855 64.3348L49.5798 62.5516C49.0201 62.8359 48.3714 62.9886 47.6122 62.9886V64.9886ZM50.4799 64.3376C51.3512 63.9019 52.0653 63.2909 52.5988 62.5047L50.9438 61.3817C50.6137 61.8682 50.1687 62.2572 49.5855 62.5488L50.4799 64.3376ZM52.6034 62.4979C53.155 61.6704 53.419 60.7234 53.419 59.6932H51.419C51.419 60.3675 51.2512 60.9205 50.9393 61.3885L52.6034 62.4979ZM53.419 59.6932V57.2045H51.419V59.6932H53.419ZM51.955 56.3187C51.7875 56.4065 51.5604 56.4982 51.2624 56.5876L51.8371 58.5033C52.2208 58.3881 52.5733 58.2526 52.883 58.0904L51.955 56.3187ZM51.2533 56.5904C50.9519 56.6839 50.6133 56.7741 50.236 56.8604L50.6816 58.8101C51.0998 58.7145 51.4884 58.6115 51.8461 58.5005L51.2533 56.5904ZM50.236 56.8604C49.8599 56.9463 49.4718 57.0218 49.0715 57.0868L49.3916 59.061C49.8322 58.9895 50.2622 58.9059 50.6816 58.8101L50.236 56.8604ZM49.0715 57.0868C48.6554 57.1542 48.2569 57.216 47.8758 57.272L48.1668 59.2507C48.5584 59.1931 48.9667 59.1299 49.3916 59.061L49.0715 57.0868ZM47.8639 57.2738C47.0126 57.4095 46.2472 57.6249 45.585 57.9357L46.4349 59.7461C46.8863 59.5342 47.4619 59.3632 48.1787 59.2489L47.8639 57.2738ZM45.5778 57.9391C44.9053 58.2614 44.3405 58.705 43.9304 59.2887L45.5668 60.4386C45.7475 60.1814 46.0237 59.9432 46.4421 59.7427L45.5778 57.9391ZM43.9272 59.2932C43.5109 59.8927 43.3224 60.5872 43.3224 61.3295H45.3224C45.3224 60.9355 45.418 60.6528 45.5699 60.434L43.9272 59.2932ZM43.3224 61.3295C43.3224 62.4624 43.7435 63.4406 44.6477 64.1104L45.8381 62.5033C45.5151 62.264 45.3224 61.9239 45.3224 61.3295H43.3224ZM44.6547 64.1156C45.4874 64.7211 46.4968 64.9886 47.6122 64.9886V62.9886C46.8186 62.9886 46.2484 62.8016 45.8311 62.4981L44.6547 64.1156ZM80.5611 42.8182H81.5611V41.8182H80.5611V42.8182ZM80.5611 48.9545V49.9545H81.5611V48.9545H80.5611ZM64.044 48.9545H63.044V49.9545H64.044V48.9545ZM64.044 42.8182V41.8182H63.044V42.8182H64.044ZM67.5043 36.5455V35.5455H66.5043V36.5455H67.5043ZM75.8395 36.5455H76.8395V35.5455H75.8395V36.5455ZM76.0781 62.0114L75.1837 62.4586L75.1934 62.478L75.204 62.497L76.0781 62.0114ZM76.8111 62.6761L76.4172 63.5953L76.4312 63.6013L76.4454 63.6069L76.8111 62.6761ZM78.9588 62.7784L79.118 63.7656L79.1306 63.7636L79.1431 63.7613L78.9588 62.7784ZM79.777 62.608L80.7557 62.4028L80.5425 61.3858L79.5345 61.6378L79.777 62.608ZM81.0384 68.625L81.3131 69.5865L82.2081 69.3308L82.0171 68.4198L81.0384 68.625ZM79.3509 69.0511L79.1227 68.0775L79.1192 68.0783L79.3509 69.0511ZM76.777 69.375L76.7316 68.376L76.7305 68.3761L76.777 69.375ZM71.7486 68.6932L71.3759 69.6212L71.385 69.6248L71.7486 68.6932ZM68.5611 66.1023L67.7117 66.6301L67.7154 66.636L68.5611 66.1023ZM67.5043 61.6875L68.5043 61.7003V61.6875H67.5043ZM79.5611 42.8182V48.9545H81.5611V42.8182H79.5611ZM80.5611 47.9545H64.044V49.9545H80.5611V47.9545ZM65.044 48.9545V42.8182H63.044V48.9545H65.044ZM64.044 43.8182H80.5611V41.8182H64.044V43.8182ZM67.5043 37.5455H75.8395V35.5455H67.5043V37.5455ZM74.8395 36.5455V60.767H76.8395V36.5455H74.8395ZM74.8395 60.767C74.8395 61.3705 74.9316 61.9543 75.1837 62.4586L76.9726 61.5641C76.9065 61.432 76.8395 61.1864 76.8395 60.767H74.8395ZM75.204 62.497C75.4804 62.9946 75.8922 63.3703 76.4172 63.5953L77.205 61.757C77.0936 61.7092 77.0167 61.6417 76.9523 61.5257L75.204 62.497ZM76.4454 63.6069C76.909 63.789 77.4201 63.8636 77.9531 63.8636V61.8636C77.5998 61.8636 77.3496 61.8133 77.1767 61.7454L76.4454 63.6069ZM77.9531 63.8636C78.3306 63.8636 78.7193 63.83 79.118 63.7656L78.7996 61.7912C78.4937 61.8405 78.212 61.8636 77.9531 61.8636V63.8636ZM79.1431 63.7613C79.5114 63.6922 79.8079 63.631 80.0195 63.5781L79.5345 61.6378C79.3825 61.6758 79.1335 61.7282 78.7745 61.7955L79.1431 63.7613ZM78.7983 62.8131L80.0596 68.8302L82.0171 68.4198L80.7557 62.4028L78.7983 62.8131ZM80.7636 67.6635C80.3889 67.7705 79.8446 67.9083 79.1227 68.0775L79.579 70.0248C80.3117 69.853 80.8924 69.7067 81.3131 69.5865L80.7636 67.6635ZM79.1192 68.0783C78.4818 68.2301 77.6896 68.3325 76.7316 68.376L76.8224 70.374C77.8644 70.3266 78.7881 70.2131 79.5825 70.0239L79.1192 68.0783ZM76.7305 68.3761C74.8752 68.4624 73.3462 68.2432 72.1121 67.7616L71.385 69.6248C72.9464 70.2341 74.7697 70.4694 76.8234 70.3739L76.7305 68.3761ZM72.1213 67.7652C70.9137 67.2802 70.0241 66.5468 69.4068 65.5686L67.7154 66.636C68.5754 67.9987 69.8107 68.9925 71.3759 69.6211L72.1213 67.7652ZM69.4105 65.5745C68.8091 64.6067 68.4832 63.3362 68.5042 61.7003L66.5043 61.6747C66.4799 63.5842 66.8585 65.257 67.7117 66.63L69.4105 65.5745ZM68.5043 61.6875V36.5455H66.5043V61.6875H68.5043ZM101.706 42.8182V41.8182H100.706V42.8182H101.706ZM110.024 42.8182H111.024V41.8182H110.024V42.8182ZM110.024 69V70H111.024V69H110.024ZM102.081 69H101.081V70H102.081V69ZM102.081 64.125H103.081V63.125H102.081V64.125ZM101.808 64.125V63.125H101.107L100.868 63.7849L101.808 64.125ZM98.8423 67.9432L99.4002 68.7731L99.4017 68.7721L98.8423 67.9432ZM89.1094 68.1136L88.5917 68.9692L88.5917 68.9692L89.1094 68.1136ZM85.956 64.6875L85.0643 65.1402L85.0657 65.143L85.956 64.6875ZM84.8139 59.5057L83.8139 59.5057L83.8139 59.5114L84.8139 59.5057ZM84.8139 42.8182V41.8182H83.8139V42.8182H84.8139ZM93.1491 42.8182H94.1491V41.8182H93.1491V42.8182ZM93.1491 57.8693L92.1491 57.8693L92.1492 57.8773L93.1491 57.8693ZM94.2741 61.2273L95.0164 60.5572L95.0164 60.5572L94.2741 61.2273ZM99.5241 61.9091L100.007 62.7847L100.012 62.7818L99.5241 61.9091ZM101.109 60.2898L100.235 59.8041L100.233 59.8089L101.109 60.2898ZM102.706 57.6989V42.8182H100.706V57.6989H102.706ZM101.706 43.8182H110.024V41.8182H101.706V43.8182ZM109.024 42.8182V69H111.024V42.8182H109.024ZM110.024 68H102.081V70H110.024V68ZM103.081 69V64.125H101.081V69H103.081ZM102.081 63.125H101.808V65.125H102.081V63.125ZM100.868 63.7849C100.36 65.1902 99.5032 66.2909 98.283 67.1143L99.4017 68.7721C100.977 67.7091 102.098 66.2643 102.749 64.4651L100.868 63.7849ZM98.2845 67.1132C97.0905 67.9157 95.617 68.3409 93.8139 68.3409V70.3409C95.9426 70.3409 97.8214 69.8343 99.4002 68.7731L98.2845 67.1132ZM93.8139 68.3409C92.1883 68.3409 90.8038 67.97 89.627 67.2581L88.5917 68.9692C90.1195 69.8936 91.8714 70.3409 93.8139 70.3409V68.3409ZM89.627 67.2581C88.4405 66.5402 87.5153 65.5398 86.8462 64.232L85.0657 65.143C85.8966 66.767 87.0737 68.0507 88.5917 68.9692L89.627 67.2581ZM86.8476 64.2348C86.1803 62.9204 85.8245 61.3516 85.8139 59.4999L83.8139 59.5114C83.826 61.6143 84.2316 63.5 85.0643 65.1402L86.8476 64.2348ZM85.8139 59.5057V42.8182H83.8139V59.5057H85.8139ZM84.8139 43.8182H93.1491V41.8182H84.8139V43.8182ZM92.1491 42.8182V57.8693H94.1491V42.8182H92.1491ZM92.1492 57.8773C92.1619 59.47 92.5863 60.85 93.5319 61.8974L95.0164 60.5572C94.4847 59.9682 94.1591 59.1096 94.1491 57.8613L92.1492 57.8773ZM93.5319 61.8974C94.4902 62.9589 95.7837 63.4545 97.2912 63.4545V61.4545C96.2532 61.4545 95.5354 61.132 95.0164 60.5572L93.5319 61.8974ZM97.2912 63.4545C98.2721 63.4545 99.1855 63.238 100.007 62.7847L99.0411 61.0335C98.5446 61.3074 97.9694 61.4545 97.2912 61.4545V63.4545ZM100.012 62.7818C100.854 62.3109 101.514 61.6317 101.986 60.7706L100.233 59.8089C99.9321 60.3569 99.535 60.7572 99.036 61.0363L100.012 62.7818ZM101.984 60.7754C102.481 59.8799 102.706 58.8407 102.706 57.6989H100.706C100.706 58.5798 100.533 59.2678 100.235 59.8041L101.984 60.7754ZM115.33 69H114.33V70H115.33V69ZM115.33 42.8182V41.8182H114.33V42.8182H115.33ZM123.426 42.8182H124.426V41.8182H123.426V42.8182ZM123.426 47.5909H122.426V48.5909H123.426V47.5909ZM123.699 47.5909V48.5909H124.46L124.663 47.8572L123.699 47.5909ZM126.034 43.7386L126.649 44.5276L126.654 44.5235L126.034 43.7386ZM130.994 42.5455L130.857 43.5359L130.87 43.5378L130.884 43.5393L130.994 42.5455ZM132.136 42.767H133.136V42.0161L132.415 41.8067L132.136 42.767ZM132.136 50.0114L131.812 50.9573L133.136 51.4114V50.0114H132.136ZM130.568 49.6875L130.444 50.6798L130.446 50.68L130.568 49.6875ZM126.188 50.233L126.67 51.1089L126.674 51.1065L126.188 50.233ZM124.33 52.0568L123.464 51.5553L123.462 51.5593L124.33 52.0568ZM123.665 69V70H124.665V69H123.665ZM116.33 69V42.8182H114.33V69H116.33ZM115.33 43.8182H123.426V41.8182H115.33V43.8182ZM122.426 42.8182V47.5909H124.426V42.8182H122.426ZM123.426 48.5909H123.699V46.5909H123.426V48.5909ZM124.663 47.8572C125.1 46.2732 125.784 45.2006 126.649 44.5275L125.42 42.9497C124.125 43.9584 123.252 45.4541 122.735 47.3246L124.663 47.8572ZM126.654 44.5235C127.549 43.8166 128.584 43.4602 129.801 43.4602V41.4602C128.154 41.4602 126.678 41.9561 125.414 42.9538L126.654 44.5235ZM129.801 43.4602C130.138 43.4602 130.49 43.485 130.857 43.5359L131.132 41.555C130.68 41.4922 130.237 41.4602 129.801 41.4602V43.4602ZM130.884 43.5393C131.243 43.5792 131.567 43.6429 131.858 43.7274L132.415 41.8067C132.002 41.6866 131.564 41.6026 131.105 41.5516L130.884 43.5393ZM131.136 42.767V50.0114H133.136V42.767H131.136ZM132.461 49.0654C131.972 48.8978 131.373 48.7789 130.69 48.695L130.446 50.68C131.058 50.7552 131.506 50.8522 131.812 50.9573L132.461 49.0654ZM130.692 48.6952C130.026 48.6119 129.415 48.5682 128.864 48.5682V50.5682C129.313 50.5682 129.838 50.604 130.444 50.6798L130.692 48.6952ZM128.864 48.5682C127.72 48.5682 126.658 48.8263 125.701 49.3594L126.674 51.1065C127.308 50.7533 128.03 50.5682 128.864 50.5682V48.5682ZM125.705 49.357C124.76 49.8777 124.009 50.616 123.464 51.5553L125.195 52.5583C125.559 51.9295 126.047 51.4519 126.67 51.1089L125.705 49.357ZM123.462 51.5593C122.918 52.5079 122.665 53.5946 122.665 54.7841H124.665C124.665 53.8827 124.855 53.1512 125.197 52.5543L123.462 51.5593ZM122.665 54.7841V69H124.665V54.7841H122.665ZM123.665 68H115.33V70H123.665V68ZM137.48 68.608L137.075 69.5225L137.085 69.5267L137.48 68.608ZM134.429 66.0511L133.588 66.5924L133.594 66.602L134.429 66.0511ZM134.088 58.0568L133.198 57.6015L133.198 57.6015L134.088 58.0568ZM136.202 55.6193L136.773 56.44L136.773 56.44L136.202 55.6193ZM139.304 54.2045L139.566 55.1696L139.575 55.1671L139.304 54.2045ZM143.054 53.5398L143.139 54.5362L143.145 54.5356L143.054 53.5398ZM146.651 53.1136L146.811 54.1008L146.823 54.0987L146.651 53.1136ZM148.628 52.4489L149.198 53.2702L149.203 53.2671L148.628 52.4489ZM148.355 49.0909L148.976 48.3072L148.976 48.3072L148.355 49.0909ZM143.259 49.0909L142.679 48.2762L142.679 48.2762L143.259 49.0909ZM141.98 51.0682L141.945 52.0676L142.781 52.0972L142.958 51.2795L141.98 51.0682ZM134.293 50.7955L133.303 50.654L133.145 51.7554L134.257 51.7948L134.293 50.7955ZM136.048 46.5341L135.251 45.9306L135.25 45.9318L136.048 46.5341ZM139.969 43.5682L140.365 44.4864L140.368 44.4851L139.969 43.5682ZM150.605 43.0739L150.333 44.0363L150.341 44.0383L150.605 43.0739ZM154.287 44.7784L153.704 45.591L153.71 45.5951L154.287 44.7784ZM156.707 47.5057L155.822 47.9714L155.826 47.9787L156.707 47.5057ZM157.577 69V70H158.577V69H157.577ZM149.736 69H148.736V70H149.736V69ZM149.736 65.3523H150.736V64.3523H149.736V65.3523ZM149.531 65.3523V64.3523H148.927L148.646 64.887L149.531 65.3523ZM147.741 67.6023L147.097 66.838L147.091 66.843L147.741 67.6023ZM145.202 68.983L144.902 68.0289L144.899 68.0299L145.202 68.983ZM146.923 63.4432L146.476 62.5487L146.47 62.5516L146.923 63.4432ZM148.662 61.9432L149.489 62.5047L149.494 62.4979L148.662 61.9432ZM149.31 57.2045H150.31V55.5519L148.846 56.3187L149.31 57.2045ZM148.44 57.5455L148.153 56.5876L148.144 56.5904L148.44 57.5455ZM146.122 58.0739L146.282 59.061L146.282 59.061L146.122 58.0739ZM144.912 58.2614L144.766 57.2719L144.755 57.2738L144.912 58.2614ZM142.901 58.8409L142.476 57.9356L142.468 57.9391L142.901 58.8409ZM141.639 59.8636L140.821 59.2887L140.818 59.2932L141.639 59.8636ZM142.134 63.3068L141.538 64.1104L141.545 64.1156L142.134 63.3068ZM141.929 68.4432C140.37 68.4432 139.025 68.1835 137.875 67.6892L137.085 69.5267C138.526 70.1461 140.147 70.4432 141.929 70.4432V68.4432ZM137.885 67.6935C136.77 67.2003 135.905 66.4716 135.264 65.5003L133.594 66.602C134.453 67.9034 135.622 68.8793 137.075 69.5224L137.885 67.6935ZM135.27 65.51C134.659 64.5615 134.321 63.3246 134.321 61.7386H132.321C132.321 63.6072 132.721 65.2453 133.588 66.5923L135.27 65.51ZM134.321 61.7386C134.321 60.3972 134.557 59.3358 134.978 58.5121L133.198 57.6015C132.596 58.7778 132.321 60.171 132.321 61.7386H134.321ZM134.978 58.5121C135.417 57.6542 136.014 56.9687 136.773 56.44L135.63 54.7986C134.594 55.52 133.782 56.4595 133.198 57.6015L134.978 58.5121ZM136.773 56.44C137.567 55.8872 138.494 55.4609 139.566 55.1695L139.042 53.2396C137.773 53.5845 136.632 54.1015 135.63 54.7986L136.773 56.44ZM139.575 55.1671C140.679 54.8562 141.866 54.6449 143.139 54.5361L142.969 52.5434C141.582 52.6619 140.27 52.8938 139.033 53.242L139.575 55.1671ZM143.145 54.5356C144.645 54.3982 145.869 54.2537 146.811 54.1007L146.49 52.1266C145.614 52.269 144.441 52.4086 142.963 52.5439L143.145 54.5356ZM146.823 54.0987C147.773 53.9323 148.607 53.6807 149.198 53.2702L148.057 51.6275C147.83 51.7852 147.346 51.9768 146.478 52.1286L146.823 54.0987ZM149.203 53.2671C149.902 52.7758 150.259 52.0491 150.259 51.2045H148.259C148.259 51.4282 148.195 51.531 148.053 51.6307L149.203 53.2671ZM150.259 51.2045V51.1193H148.259V51.2045H150.259ZM150.259 51.1193C150.259 49.9868 149.853 49.002 148.976 48.3072L147.734 49.8747C148.062 50.1344 148.259 50.5018 148.259 51.1193H150.259ZM148.976 48.3072C148.146 47.6496 147.091 47.375 145.918 47.375V49.375C146.789 49.375 147.359 49.5776 147.734 49.8747L148.976 48.3072ZM145.918 47.375C144.677 47.375 143.567 47.6435 142.679 48.2762L143.838 49.9056C144.291 49.5837 144.954 49.375 145.918 49.375V47.375ZM142.679 48.2762C141.795 48.9051 141.235 49.7845 141.003 50.8568L142.958 51.2795C143.089 50.6701 143.381 50.2312 143.838 49.9056L142.679 48.2762ZM142.016 50.0688L134.328 49.7961L134.257 51.7948L141.945 52.0676L142.016 50.0688ZM135.283 50.9369C135.487 49.5087 136.008 48.2478 136.847 47.1364L135.25 45.9318C134.202 47.3204 133.553 48.9003 133.303 50.654L135.283 50.9369ZM136.846 47.1375C137.682 46.0326 138.842 45.1437 140.365 44.4863L139.573 42.65C137.778 43.4245 136.324 44.5129 135.251 45.9306L136.846 47.1375ZM140.368 44.4851C141.882 43.8258 143.745 43.4773 145.986 43.4773V41.4773C143.545 41.4773 141.396 41.856 139.57 42.6513L140.368 44.4851ZM145.986 43.4773C147.577 43.4773 149.024 43.6667 150.333 44.0363L150.877 42.1115C149.368 41.6856 147.735 41.4773 145.986 41.4773V43.4773ZM150.341 44.0383C151.651 44.3975 152.767 44.9187 153.704 45.5909L154.87 43.9659C153.716 43.1381 152.378 42.523 150.87 42.1095L150.341 44.0383ZM153.71 45.5951C154.633 46.2473 155.331 47.0385 155.822 47.9714L157.592 47.0399C156.947 45.8138 156.032 44.7868 154.864 43.9617L153.71 45.5951ZM155.826 47.9787C156.318 48.8946 156.577 49.9613 156.577 51.2045H158.577C158.577 49.6751 158.256 48.2759 157.588 47.0327L155.826 47.9787ZM156.577 51.2045V69H158.577V51.2045H156.577ZM157.577 68H149.736V70H157.577V68ZM150.736 69V65.3523H148.736V69H150.736ZM149.736 64.3523H149.531V66.3523H149.736V64.3523ZM148.646 64.887C148.237 65.6652 147.72 66.3119 147.097 66.838L148.386 68.3666C149.217 67.6654 149.894 66.8121 150.416 65.8176L148.646 64.887ZM147.091 66.843C146.486 67.3613 145.762 67.759 144.902 68.0289L145.501 69.937C146.596 69.5932 147.565 69.0706 148.392 68.3615L147.091 66.843ZM144.899 68.0299C144.048 68.3001 143.062 68.4432 141.929 68.4432V70.4432C143.228 70.4432 144.423 70.2794 145.504 69.936L144.899 68.0299ZM144.503 64.9886C145.539 64.9886 146.504 64.7777 147.376 64.3348L146.47 62.5516C145.911 62.8359 145.262 62.9886 144.503 62.9886V64.9886ZM147.371 64.3376C148.242 63.9019 148.956 63.2909 149.489 62.5047L147.834 61.3817C147.504 61.8682 147.059 62.2572 146.476 62.5488L147.371 64.3376ZM149.494 62.4979C150.046 61.6704 150.31 60.7234 150.31 59.6932H148.31C148.31 60.3675 148.142 60.9205 147.83 61.3885L149.494 62.4979ZM150.31 59.6932V57.2045H148.31V59.6932H150.31ZM148.846 56.3187C148.678 56.4065 148.451 56.4982 148.153 56.5876L148.728 58.5033C149.111 58.3881 149.464 58.2526 149.774 58.0904L148.846 56.3187ZM148.144 56.5904C147.843 56.6839 147.504 56.7741 147.127 56.8604L147.572 58.8101C147.99 58.7145 148.379 58.6115 148.737 58.5005L148.144 56.5904ZM147.127 56.8604C146.751 56.9463 146.362 57.0218 145.962 57.0868L146.282 59.061C146.723 58.9895 147.153 58.9059 147.572 58.8101L147.127 56.8604ZM145.962 57.0868C145.546 57.1542 145.148 57.216 144.766 57.272L145.057 59.2507C145.449 59.1931 145.857 59.1299 146.282 59.061L145.962 57.0868ZM144.755 57.2738C143.903 57.4095 143.138 57.6249 142.476 57.9357L143.325 59.7461C143.777 59.5342 144.352 59.3632 145.069 59.2489L144.755 57.2738ZM142.468 57.9391C141.796 58.2614 141.231 58.705 140.821 59.2887L142.457 60.4386C142.638 60.1814 142.914 59.9432 143.333 59.7427L142.468 57.9391ZM140.818 59.2932C140.402 59.8927 140.213 60.5872 140.213 61.3295H142.213C142.213 60.9355 142.309 60.6528 142.461 60.434L140.818 59.2932ZM140.213 61.3295C140.213 62.4624 140.634 63.4406 141.538 64.1104L142.729 62.5033C142.406 62.264 142.213 61.9239 142.213 61.3295H140.213ZM141.545 64.1156C142.378 64.7211 143.387 64.9886 144.503 64.9886V62.9886C143.709 62.9886 143.139 62.8016 142.722 62.4981L141.545 64.1156ZM171.009 34.0909H172.009V33.0909H171.009V34.0909ZM171.009 69V70H172.009V69H171.009ZM162.673 69H161.673V70H162.673V69ZM162.673 34.0909V33.0909H161.673V34.0909H162.673ZM170.009 34.0909V69H172.009V34.0909H170.009ZM171.009 68H162.673V70H171.009V68ZM163.673 69V34.0909H161.673V69H163.673ZM162.673 35.0909H171.009V33.0909H162.673V35.0909ZM199.172 50.8125L199.199 51.8121L200.256 51.7839L200.168 50.7295L199.172 50.8125ZM191.518 51.017L190.529 51.1614L190.657 52.0404L191.545 52.0167L191.518 51.017ZM190.871 49.5682L190.096 50.2004L190.104 50.2104L190.871 49.5682ZM189.49 48.5625L189.08 49.4748L189.092 49.4798L189.103 49.4845L189.49 48.5625ZM185.075 48.767L184.582 47.897L184.576 47.9006L185.075 48.767ZM184.087 50.3352L185.086 50.3574L185.087 50.3377L185.086 50.318L184.087 50.3352ZM184.7 51.6648L184.035 52.4111L184.045 52.4198L184.7 51.6648ZM187.001 52.5682L186.799 53.5476L186.807 53.5492L186.816 53.5508L187.001 52.5682ZM192.047 53.5227L192.235 52.5405L192.233 52.5402L192.047 53.5227ZM197.876 56.0114L197.203 56.7507L197.206 56.7537L197.876 56.0114ZM199.82 60.6136L200.82 60.62L200.82 60.6077L199.82 60.6136ZM198.217 65.3011L197.434 64.6789L197.431 64.683L198.217 65.3011ZM193.922 68.4034L194.293 69.3319L194.298 69.3299L193.922 68.4034ZM178.837 67.1932L178.253 68.0049L178.257 68.0084L178.837 67.1932ZM175.155 60.9886L175.13 59.9889L174.033 60.0162L174.162 61.1062L175.155 60.9886ZM183.388 60.7841L184.37 60.597L184.211 59.7633L183.363 59.7844L183.388 60.7841ZM184.803 62.9659L185.351 62.13L185.351 62.13L184.803 62.9659ZM190.325 63.1193L189.815 62.2593L189.815 62.2593L190.325 63.1193ZM191.348 61.5341L192.348 61.5513L192.348 61.5331L192.348 61.5149L191.348 61.5341ZM190.564 60.1193L189.984 60.9343L189.99 60.9386L189.997 60.9428L190.564 60.1193ZM188.161 59.267L187.974 60.2494L187.976 60.2499L188.161 59.267ZM183.592 58.3977L183.779 57.4153L183.771 57.4139L183.592 58.3977ZM177.729 55.7557L177.018 56.4597L177.022 56.4628L177.729 55.7557ZM175.82 50.8125L176.82 50.8182L176.82 50.806L175.82 50.8125ZM177.217 46.3295L178.013 46.9354L178.016 46.9319L177.217 46.3295ZM181.24 43.4659L180.886 42.5308L180.886 42.5308L181.24 43.4659ZM195.78 44.7102L195.191 45.5188L195.194 45.5209L195.78 44.7102ZM199.145 49.8129L191.492 50.0174L191.545 52.0167L199.199 51.8121L199.145 49.8129ZM192.508 50.8727C192.402 50.1448 192.109 49.4892 191.637 48.926L190.104 50.2104C190.337 50.488 190.476 50.7984 190.529 51.1614L192.508 50.8727ZM191.646 48.9361C191.179 48.3643 190.58 47.9357 189.877 47.6405L189.103 49.4845C189.536 49.6665 189.858 49.9084 190.096 50.2003L191.646 48.9361ZM189.9 47.6502C189.19 47.3316 188.398 47.1875 187.547 47.1875V49.1875C188.173 49.1875 188.677 49.2934 189.08 49.4748L189.9 47.6502ZM187.547 47.1875C186.448 47.1875 185.446 47.4078 184.582 47.897L185.568 49.6371C186.069 49.3536 186.714 49.1875 187.547 49.1875V47.1875ZM184.576 47.9006C183.656 48.4307 183.068 49.2597 183.087 50.3525L185.086 50.318C185.083 50.0925 185.154 49.8761 185.575 49.6335L184.576 47.9006ZM183.087 50.313C183.068 51.149 183.421 51.8635 184.035 52.4111L185.366 50.9185C185.139 50.7161 185.082 50.5442 185.086 50.3574L183.087 50.313ZM184.045 52.4198C184.68 52.9716 185.663 53.3132 186.799 53.5476L187.203 51.5888C186.136 51.3686 185.584 51.108 185.356 50.9097L184.045 52.4198ZM186.816 53.5508L191.861 54.5053L192.233 52.5402L187.187 51.5856L186.816 53.5508ZM191.859 54.5049C194.382 54.9877 196.122 55.766 197.203 56.7507L198.55 55.272C197.086 53.9385 194.939 53.0578 192.235 52.5405L191.859 54.5049ZM197.206 56.7537C198.259 57.7039 198.81 58.959 198.82 60.6196L200.82 60.6077C200.807 58.4501 200.062 56.637 198.546 55.269L197.206 56.7537ZM198.82 60.6073C198.81 62.1927 198.344 63.535 197.435 64.6789L199 65.9234C200.205 64.4082 200.807 62.6255 200.82 60.62L198.82 60.6073ZM197.431 64.683C196.509 65.8554 195.229 66.7931 193.545 67.4769L194.298 69.3299C196.251 68.5364 197.834 67.406 199.003 65.9193L197.431 64.683ZM193.55 67.4749C191.871 68.1467 189.921 68.4943 187.683 68.4943V70.4943C190.127 70.4943 192.336 70.1147 194.293 69.3319L193.55 67.4749ZM187.683 68.4943C184.07 68.4943 181.349 67.7515 179.416 66.378L178.257 68.0084C180.642 69.703 183.82 70.4943 187.683 70.4943V68.4943ZM179.421 66.3815C177.497 64.9972 176.421 63.179 176.148 60.871L174.162 61.1062C174.502 63.9801 175.881 66.2983 178.253 68.0049L179.421 66.3815ZM175.18 61.9883L183.413 61.7838L183.363 59.7844L175.13 59.9889L175.18 61.9883ZM182.405 60.9712C182.634 62.172 183.25 63.1424 184.254 63.8018L185.351 62.13C184.833 61.7894 184.505 61.3053 184.37 60.597L182.405 60.9712ZM184.254 63.8018C185.22 64.4365 186.398 64.7159 187.717 64.7159V62.7159C186.673 62.7159 185.908 62.4953 185.351 62.13L184.254 63.8018ZM187.717 64.7159C188.901 64.7159 189.964 64.4965 190.835 63.9794L189.815 62.2593C189.346 62.5375 188.67 62.7159 187.717 62.7159V64.7159ZM190.835 63.9794C191.74 63.4425 192.329 62.6255 192.348 61.5513L190.348 61.5169C190.344 61.7609 190.251 62.0007 189.815 62.2593L190.835 63.9794ZM192.348 61.5149C192.33 60.5831 191.892 59.8199 191.131 59.2958L189.997 60.9428C190.259 61.1232 190.343 61.3033 190.348 61.5533L192.348 61.5149ZM191.143 59.3044C190.456 58.8153 189.485 58.498 188.345 58.2842L187.976 60.2499C189.018 60.4452 189.649 60.6961 189.984 60.9343L191.143 59.3044ZM188.347 58.2847L183.779 57.4154L183.405 59.3801L187.974 60.2494L188.347 58.2847ZM183.771 57.4139C181.257 56.9568 179.523 56.1359 178.436 55.0486L177.022 56.4628C178.502 57.9437 180.677 58.8841 183.413 59.3816L183.771 57.4139ZM178.439 55.0517C177.361 53.964 176.81 52.5807 176.82 50.8182L174.82 50.8068C174.807 53.0443 175.528 54.9564 177.018 56.4597L178.439 55.0517ZM176.82 50.806C176.809 49.2482 177.22 47.9764 178.013 46.9354L176.422 45.7237C175.328 47.1599 174.807 48.8768 174.82 50.819L176.82 50.806ZM178.016 46.9319C178.825 45.8586 179.999 45.0059 181.595 44.401L180.886 42.5308C179.004 43.2441 177.496 44.3005 176.419 45.7272L178.016 46.9319ZM181.595 44.401C183.194 43.7947 185.12 43.4773 187.393 43.4773V41.4773C184.94 41.4773 182.764 41.8189 180.886 42.5308L181.595 44.401ZM187.393 43.4773C190.81 43.4773 193.373 44.1956 195.191 45.5188L196.368 43.9017C194.095 42.2476 191.068 41.4773 187.393 41.4773V43.4773ZM195.194 45.5209C196.995 46.8214 197.983 48.5854 198.175 50.8955L200.168 50.7295C199.929 47.8578 198.656 45.5536 196.365 43.8995L195.194 45.5209Z" fill="black" fill-opacity="0.2" mask="url(#path-1-outside-1_120_18)"/>
</g>
</g>
<defs>
<filter id="filter0_dd_120_18" x="-2.35791" y="33.0909" width="207.177" height="45.4033" filterUnits="userSpaceOnUse" color-interpolation-filters="sRGB">
<feFlood flood-opacity="0" result="BackgroundImageFix"/>
<feColorMatrix in="SourceAlpha" type="matrix" values="0 0 0 0 0 0 0 0 0 0 0 0 0 0 0 0 0 0 127 0" result="hardAlpha"/>
<feOffset dy="4"/>
<feGaussianBlur stdDeviation="2"/>
<feComposite in2="hardAlpha" operator="out"/>
<feColorMatrix type="matrix" values="0 0 0 0 0 0 0 0 0 0 0 0 0 0 0 0 0 0 0.25 0"/>
<feBlend mode="normal" in2="BackgroundImageFix" result="effect1_dropShadow_120_18"/>
<feColorMatrix in="SourceAlpha" type="matrix" values="0 0 0 0 0 0 0 0 0 0 0 0 0 0 0 0 0 0 127 0" result="hardAlpha"/>
<feOffset dy="4"/>
<feGaussianBlur stdDeviation="2"/>
<feComposite in2="hardAlpha" operator="out"/>
<feColorMatrix type="matrix" values="0 0 0 0 0 0 0 0 0 0 0 0 0 0 0 0 0 0 0.25 0"/>
<feBlend mode="normal" in2="effect1_dropShadow_120_18" result="effect2_dropShadow_120_18"/>
<feBlend mode="normal" in="SourceGraphic" in2="effect2_dropShadow_120_18" result="shape"/>
</filter>
<clipPath id="clip0_120_18">
<rect width="322" height="117" fill="white"/>
</clipPath>
</defs>
</svg>
