<svg width="322" height="117" viewBox="0 0 322 117" fill="none" xmlns="http://www.w3.org/2000/svg">
<g clip-path="url(#clip0_138_502)">
<rect width="322" height="117" fill="white"/>
<g filter="url(#filter0_dd_138_502)">
<mask id="path-1-outside-1_138_502" maskUnits="userSpaceOnUse" x="1" y="32" width="160" height="39" fill="black">
<rect fill="white" x="1" y="32" width="160" height="39"/>
<path d="M34.3295 46.7386H25.8068C25.6932 45.8636 25.4602 45.0739 25.108 44.3693C24.7557 43.6648 24.2898 43.0625 23.7102 42.5625C23.1307 42.0625 22.4432 41.6818 21.6477 41.4205C20.8636 41.1477 19.9943 41.0114 19.0398 41.0114C17.3466 41.0114 15.8864 41.4261 14.6591 42.2557C13.4432 43.0852 12.5057 44.2841 11.8466 45.8523C11.1989 47.4205 10.875 49.3182 10.875 51.5455C10.875 53.8636 11.2045 55.8068 11.8636 57.375C12.5341 58.9318 13.4716 60.108 14.6761 60.9034C15.892 61.6875 17.3295 62.0795 18.9886 62.0795C19.9205 62.0795 20.767 61.9602 21.5284 61.7216C22.3011 61.483 22.9773 61.1364 23.5568 60.6818C24.1477 60.2159 24.6307 59.6534 25.0057 58.9943C25.392 58.3239 25.6591 57.5682 25.8068 56.7273L34.3295 56.7784C34.1818 58.3239 33.733 59.8466 32.983 61.3466C32.2443 62.8466 31.2273 64.2159 29.9318 65.4545C28.6364 66.6818 27.0568 67.6591 25.1932 68.3864C23.3409 69.1136 21.2159 69.4773 18.8182 69.4773C15.6591 69.4773 12.8295 68.7841 10.3295 67.3977C7.84091 66 5.875 63.9659 4.43182 61.2955C2.98864 58.625 2.26705 55.375 2.26705 51.5455C2.26705 47.7045 3 44.4489 4.46591 41.7784C5.93182 39.108 7.91477 37.0795 10.4148 35.6932C12.9148 34.3068 15.7159 33.6136 18.8182 33.6136C20.9318 33.6136 22.8864 33.9091 24.6818 34.5C26.4773 35.0795 28.0568 35.9318 29.4205 37.0568C30.7841 38.1705 31.892 39.5398 32.7443 41.1648C33.5966 42.7898 34.125 44.6477 34.3295 46.7386ZM51.3793 69.4943C48.6293 69.4943 46.2656 68.9318 44.2884 67.8068C42.3224 66.6705 40.8054 65.0909 39.7372 63.0682C38.6804 61.0341 38.152 58.6761 38.152 55.9943C38.152 53.3011 38.6804 50.9432 39.7372 48.9205C40.8054 46.8864 42.3224 45.3068 44.2884 44.1818C46.2656 43.0455 48.6293 42.4773 51.3793 42.4773C54.1293 42.4773 56.4872 43.0455 58.4531 44.1818C60.4304 45.3068 61.9474 46.8864 63.0043 48.9205C64.0724 50.9432 64.6065 53.3011 64.6065 55.9943C64.6065 58.6761 64.0724 61.0341 63.0043 63.0682C61.9474 65.0909 60.4304 66.6705 58.4531 67.8068C56.4872 68.9318 54.1293 69.4943 51.3793 69.4943ZM51.4304 63.2045C52.4304 63.2045 53.277 62.8977 53.9702 62.2841C54.6634 61.6705 55.1918 60.8182 55.5554 59.7273C55.9304 58.6364 56.1179 57.375 56.1179 55.9432C56.1179 54.4886 55.9304 53.2159 55.5554 52.125C55.1918 51.0341 54.6634 50.1818 53.9702 49.5682C53.277 48.9545 52.4304 48.6477 51.4304 48.6477C50.3963 48.6477 49.5213 48.9545 48.8054 49.5682C48.1009 50.1818 47.5611 51.0341 47.1861 52.125C46.8224 53.2159 46.6406 54.4886 46.6406 55.9432C46.6406 57.375 46.8224 58.6364 47.1861 59.7273C47.5611 60.8182 48.1009 61.6705 48.8054 62.2841C49.5213 62.8977 50.3963 63.2045 51.4304 63.2045ZM77.2116 34.0909V69H68.8764V34.0909H77.2116ZM94.7386 69.4943C91.9886 69.4943 89.625 68.9318 87.6477 67.8068C85.6818 66.6705 84.1648 65.0909 83.0966 63.0682C82.0398 61.0341 81.5114 58.6761 81.5114 55.9943C81.5114 53.3011 82.0398 50.9432 83.0966 48.9205C84.1648 46.8864 85.6818 45.3068 87.6477 44.1818C89.625 43.0455 91.9886 42.4773 94.7386 42.4773C97.4886 42.4773 99.8466 43.0455 101.812 44.1818C103.79 45.3068 105.307 46.8864 106.364 48.9205C107.432 50.9432 107.966 53.3011 107.966 55.9943C107.966 58.6761 107.432 61.0341 106.364 63.0682C105.307 65.0909 103.79 66.6705 101.812 67.8068C99.8466 68.9318 97.4886 69.4943 94.7386 69.4943ZM94.7898 63.2045C95.7898 63.2045 96.6364 62.8977 97.3295 62.2841C98.0227 61.6705 98.5511 60.8182 98.9148 59.7273C99.2898 58.6364 99.4773 57.375 99.4773 55.9432C99.4773 54.4886 99.2898 53.2159 98.9148 52.125C98.5511 51.0341 98.0227 50.1818 97.3295 49.5682C96.6364 48.9545 95.7898 48.6477 94.7898 48.6477C93.7557 48.6477 92.8807 48.9545 92.1648 49.5682C91.4602 50.1818 90.9205 51.0341 90.5455 52.125C90.1818 53.2159 90 54.4886 90 55.9432C90 57.375 90.1818 58.6364 90.5455 59.7273C90.9205 60.8182 91.4602 61.6705 92.1648 62.2841C92.8807 62.8977 93.7557 63.2045 94.7898 63.2045ZM129.128 57.6989V42.8182H137.446V69H129.503V64.125H129.23C128.651 65.7273 127.662 67 126.264 67.9432C124.878 68.875 123.202 69.3409 121.236 69.3409C119.452 69.3409 117.884 68.9318 116.531 68.1136C115.179 67.2955 114.128 66.1534 113.378 64.6875C112.628 63.2102 112.247 61.483 112.236 59.5057V42.8182H120.571V57.8693C120.582 59.2898 120.957 60.4091 121.696 61.2273C122.435 62.0455 123.44 62.4545 124.713 62.4545C125.543 62.4545 126.287 62.2727 126.946 61.9091C127.616 61.5341 128.145 60.9943 128.531 60.2898C128.929 59.5739 129.128 58.7102 129.128 57.6989ZM142.751 69V42.8182H150.848V47.5909H151.121C151.598 45.8636 152.376 44.5795 153.456 43.7386C154.536 42.8864 155.791 42.4602 157.223 42.4602C157.609 42.4602 158.007 42.4886 158.416 42.5455C158.825 42.5909 159.206 42.6648 159.558 42.767V50.0114C159.161 49.875 158.638 49.767 157.99 49.6875C157.354 49.608 156.786 49.5682 156.286 49.5682C155.297 49.5682 154.405 49.7898 153.609 50.233C152.825 50.6648 152.206 51.2727 151.751 52.0568C151.308 52.8295 151.087 53.7386 151.087 54.7841V69H142.751Z"/>
</mask>
<path d="M34.3295 46.7386H25.8068C25.6932 45.8636 25.4602 45.0739 25.108 44.3693C24.7557 43.6648 24.2898 43.0625 23.7102 42.5625C23.1307 42.0625 22.4432 41.6818 21.6477 41.4205C20.8636 41.1477 19.9943 41.0114 19.0398 41.0114C17.3466 41.0114 15.8864 41.4261 14.6591 42.2557C13.4432 43.0852 12.5057 44.2841 11.8466 45.8523C11.1989 47.4205 10.875 49.3182 10.875 51.5455C10.875 53.8636 11.2045 55.8068 11.8636 57.375C12.5341 58.9318 13.4716 60.108 14.6761 60.9034C15.892 61.6875 17.3295 62.0795 18.9886 62.0795C19.9205 62.0795 20.767 61.9602 21.5284 61.7216C22.3011 61.483 22.9773 61.1364 23.5568 60.6818C24.1477 60.2159 24.6307 59.6534 25.0057 58.9943C25.392 58.3239 25.6591 57.5682 25.8068 56.7273L34.3295 56.7784C34.1818 58.3239 33.733 59.8466 32.983 61.3466C32.2443 62.8466 31.2273 64.2159 29.9318 65.4545C28.6364 66.6818 27.0568 67.6591 25.1932 68.3864C23.3409 69.1136 21.2159 69.4773 18.8182 69.4773C15.6591 69.4773 12.8295 68.7841 10.3295 67.3977C7.84091 66 5.875 63.9659 4.43182 61.2955C2.98864 58.625 2.26705 55.375 2.26705 51.5455C2.26705 47.7045 3 44.4489 4.46591 41.7784C5.93182 39.108 7.91477 37.0795 10.4148 35.6932C12.9148 34.3068 15.7159 33.6136 18.8182 33.6136C20.9318 33.6136 22.8864 33.9091 24.6818 34.5C26.4773 35.0795 28.0568 35.9318 29.4205 37.0568C30.7841 38.1705 31.892 39.5398 32.7443 41.1648C33.5966 42.7898 34.125 44.6477 34.3295 46.7386ZM51.3793 69.4943C48.6293 69.4943 46.2656 68.9318 44.2884 67.8068C42.3224 66.6705 40.8054 65.0909 39.7372 63.0682C38.6804 61.0341 38.152 58.6761 38.152 55.9943C38.152 53.3011 38.6804 50.9432 39.7372 48.9205C40.8054 46.8864 42.3224 45.3068 44.2884 44.1818C46.2656 43.0455 48.6293 42.4773 51.3793 42.4773C54.1293 42.4773 56.4872 43.0455 58.4531 44.1818C60.4304 45.3068 61.9474 46.8864 63.0043 48.9205C64.0724 50.9432 64.6065 53.3011 64.6065 55.9943C64.6065 58.6761 64.0724 61.0341 63.0043 63.0682C61.9474 65.0909 60.4304 66.6705 58.4531 67.8068C56.4872 68.9318 54.1293 69.4943 51.3793 69.4943ZM51.4304 63.2045C52.4304 63.2045 53.277 62.8977 53.9702 62.2841C54.6634 61.6705 55.1918 60.8182 55.5554 59.7273C55.9304 58.6364 56.1179 57.375 56.1179 55.9432C56.1179 54.4886 55.9304 53.2159 55.5554 52.125C55.1918 51.0341 54.6634 50.1818 53.9702 49.5682C53.277 48.9545 52.4304 48.6477 51.4304 48.6477C50.3963 48.6477 49.5213 48.9545 48.8054 49.5682C48.1009 50.1818 47.5611 51.0341 47.1861 52.125C46.8224 53.2159 46.6406 54.4886 46.6406 55.9432C46.6406 57.375 46.8224 58.6364 47.1861 59.7273C47.5611 60.8182 48.1009 61.6705 48.8054 62.2841C49.5213 62.8977 50.3963 63.2045 51.4304 63.2045ZM77.2116 34.0909V69H68.8764V34.0909H77.2116ZM94.7386 69.4943C91.9886 69.4943 89.625 68.9318 87.6477 67.8068C85.6818 66.6705 84.1648 65.0909 83.0966 63.0682C82.0398 61.0341 81.5114 58.6761 81.5114 55.9943C81.5114 53.3011 82.0398 50.9432 83.0966 48.9205C84.1648 46.8864 85.6818 45.3068 87.6477 44.1818C89.625 43.0455 91.9886 42.4773 94.7386 42.4773C97.4886 42.4773 99.8466 43.0455 101.812 44.1818C103.79 45.3068 105.307 46.8864 106.364 48.9205C107.432 50.9432 107.966 53.3011 107.966 55.9943C107.966 58.6761 107.432 61.0341 106.364 63.0682C105.307 65.0909 103.79 66.6705 101.812 67.8068C99.8466 68.9318 97.4886 69.4943 94.7386 69.4943ZM94.7898 63.2045C95.7898 63.2045 96.6364 62.8977 97.3295 62.2841C98.0227 61.6705 98.5511 60.8182 98.9148 59.7273C99.2898 58.6364 99.4773 57.375 99.4773 55.9432C99.4773 54.4886 99.2898 53.2159 98.9148 52.125C98.5511 51.0341 98.0227 50.1818 97.3295 49.5682C96.6364 48.9545 95.7898 48.6477 94.7898 48.6477C93.7557 48.6477 92.8807 48.9545 92.1648 49.5682C91.4602 50.1818 90.9205 51.0341 90.5455 52.125C90.1818 53.2159 90 54.4886 90 55.9432C90 57.375 90.1818 58.6364 90.5455 59.7273C90.9205 60.8182 91.4602 61.6705 92.1648 62.2841C92.8807 62.8977 93.7557 63.2045 94.7898 63.2045ZM129.128 57.6989V42.8182H137.446V69H129.503V64.125H129.23C128.651 65.7273 127.662 67 126.264 67.9432C124.878 68.875 123.202 69.3409 121.236 69.3409C119.452 69.3409 117.884 68.9318 116.531 68.1136C115.179 67.2955 114.128 66.1534 113.378 64.6875C112.628 63.2102 112.247 61.483 112.236 59.5057V42.8182H120.571V57.8693C120.582 59.2898 120.957 60.4091 121.696 61.2273C122.435 62.0455 123.44 62.4545 124.713 62.4545C125.543 62.4545 126.287 62.2727 126.946 61.9091C127.616 61.5341 128.145 60.9943 128.531 60.2898C128.929 59.5739 129.128 58.7102 129.128 57.6989ZM142.751 69V42.8182H150.848V47.5909H151.121C151.598 45.8636 152.376 44.5795 153.456 43.7386C154.536 42.8864 155.791 42.4602 157.223 42.4602C157.609 42.4602 158.007 42.4886 158.416 42.5455C158.825 42.5909 159.206 42.6648 159.558 42.767V50.0114C159.161 49.875 158.638 49.767 157.99 49.6875C157.354 49.608 156.786 49.5682 156.286 49.5682C155.297 49.5682 154.405 49.7898 153.609 50.233C152.825 50.6648 152.206 51.2727 151.751 52.0568C151.308 52.8295 151.087 53.7386 151.087 54.7841V69H142.751Z" fill="#002855"/>
<path d="M34.3295 46.7386V47.7386H35.4321L35.3248 46.6413L34.3295 46.7386ZM25.8068 46.7386L24.8151 46.8674L24.9283 47.7386H25.8068V46.7386ZM25.108 44.3693L24.2135 44.8165L24.2135 44.8165L25.108 44.3693ZM23.7102 42.5625L24.3635 41.8053L24.3635 41.8053L23.7102 42.5625ZM21.6477 41.4205L21.3192 42.365L21.3274 42.3678L21.3356 42.3705L21.6477 41.4205ZM14.6591 42.2557L14.0991 41.4272L14.0955 41.4296L14.6591 42.2557ZM11.8466 45.8523L10.9247 45.4648L10.9223 45.4705L11.8466 45.8523ZM11.8636 57.375L10.9417 57.7625L10.9452 57.7705L11.8636 57.375ZM14.6761 60.9034L14.125 61.7379L14.1342 61.7438L14.6761 60.9034ZM21.5284 61.7216L21.2333 60.7661L21.2293 60.7674L21.5284 61.7216ZM23.5568 60.6818L24.174 61.4687L24.176 61.4671L23.5568 60.6818ZM25.0057 58.9943L24.1392 58.495L24.1365 58.4998L25.0057 58.9943ZM25.8068 56.7273L25.8128 55.7273L24.9681 55.7222L24.8219 56.5542L25.8068 56.7273ZM34.3295 56.7784L35.325 56.8736L35.4291 55.785L34.3355 55.7784L34.3295 56.7784ZM32.983 61.3466L32.0885 60.8994L32.0858 60.9048L32.983 61.3466ZM29.9318 65.4545L30.6196 66.1805L30.6229 66.1773L29.9318 65.4545ZM25.1932 68.3864L24.8296 67.4548L24.8277 67.4555L25.1932 68.3864ZM10.3295 67.3977L9.83984 68.2696L9.84458 68.2723L10.3295 67.3977ZM4.43182 61.2955L5.31157 60.82L4.43182 61.2955ZM4.46591 41.7784L3.5893 41.2972L3.5893 41.2972L4.46591 41.7784ZM24.6818 34.5L24.3692 35.4499L24.3746 35.4517L24.6818 34.5ZM29.4205 37.0568L28.7841 37.8282L28.7879 37.8313L29.4205 37.0568ZM34.3295 45.7386H25.8068V47.7386H34.3295V45.7386ZM26.7985 46.6098C26.6722 45.6372 26.4103 44.7379 26.0024 43.9221L24.2135 44.8165C24.5102 45.4099 24.7142 46.0901 24.8151 46.8674L26.7985 46.6098ZM26.0024 43.9221C25.5927 43.1028 25.046 42.3942 24.3635 41.8053L23.057 43.3197C23.5335 43.7308 23.9186 44.2267 24.2135 44.8165L26.0024 43.9221ZM24.3635 41.8053C23.675 41.2114 22.8688 40.7691 21.9599 40.4704L21.3356 42.3705C22.0176 42.5946 22.5863 42.9136 23.057 43.3197L24.3635 41.8053ZM21.9762 40.476C21.072 40.1614 20.0897 40.0114 19.0398 40.0114V42.0114C19.899 42.0114 20.6553 42.134 21.3192 42.365L21.9762 40.476ZM19.0398 40.0114C17.1764 40.0114 15.5146 40.4704 14.0991 41.4272L15.2191 43.0842C16.2582 42.3818 17.5167 42.0114 19.0398 42.0114V40.0114ZM14.0955 41.4296C12.6968 42.3839 11.6466 43.7473 10.9247 45.4648L12.7685 46.2397C13.3648 44.8209 14.1896 43.7866 15.2227 43.0817L14.0955 41.4296ZM10.9223 45.4705C10.2116 47.1912 9.875 49.2261 9.875 51.5455H11.875C11.875 49.4103 12.1861 47.6497 12.7709 46.234L10.9223 45.4705ZM9.875 51.5455C9.875 53.9514 10.216 56.0358 10.9417 57.7625L12.7855 56.9875C12.193 55.5778 11.875 53.7759 11.875 51.5455H9.875ZM10.9452 57.7705C11.679 59.4745 12.7312 60.8174 14.1251 61.7379L15.2272 60.0689C14.2119 59.3985 13.3892 58.3891 12.7821 56.9795L10.9452 57.7705ZM14.1342 61.7438C15.5344 62.6467 17.1662 63.0795 18.9886 63.0795V61.0795C17.4929 61.0795 16.2497 60.7283 15.2181 60.063L14.1342 61.7438ZM18.9886 63.0795C20.0053 63.0795 20.9547 62.9494 21.8275 62.6758L21.2293 60.7674C20.5794 60.9711 19.8356 61.0795 18.9886 61.0795V63.0795ZM21.8235 62.6771C22.7015 62.4059 23.4893 62.0057 24.174 61.4687L22.9397 59.895C22.4653 60.267 21.9008 60.56 21.2333 60.7661L21.8235 62.6771ZM24.176 61.4671C24.869 60.9207 25.4366 60.2592 25.8748 59.4888L24.1365 58.4998C23.8248 59.0476 23.4265 59.5112 22.9377 59.8965L24.176 61.4671ZM25.8721 59.4936C26.3224 58.7122 26.6259 57.8442 26.7917 56.9003L24.8219 56.5542C24.6923 57.2922 24.4617 57.9355 24.1393 58.495L25.8721 59.4936ZM25.8008 57.7273L34.3235 57.7784L34.3355 55.7784L25.8128 55.7273L25.8008 57.7273ZM33.3341 56.6833C33.199 58.0966 32.7879 59.5006 32.0885 60.8994L33.8774 61.7938C34.678 60.1926 35.1647 58.5511 35.325 56.8736L33.3341 56.6833ZM32.0858 60.9048C31.4025 62.2925 30.4577 63.5682 29.2407 64.7318L30.6229 66.1773C31.9968 64.8636 33.0861 63.4007 33.8801 61.7884L32.0858 60.9048ZM29.2441 64.7286C28.0531 65.8569 26.5875 66.7688 24.8296 67.4548L25.5567 69.3179C27.5262 68.5494 29.2196 67.5067 30.6196 66.1805L29.2441 64.7286ZM24.8277 67.4555C23.113 68.1288 21.1158 68.4773 18.8182 68.4773V70.4773C21.316 70.4773 23.5688 70.0985 25.5587 69.3172L24.8277 67.4555ZM18.8182 68.4773C15.8105 68.4773 13.151 67.8189 10.8145 66.5232L9.84458 68.2723C12.5081 69.7493 15.5076 70.4773 18.8182 70.4773V68.4773ZM10.8192 66.5258C8.50611 65.2267 6.6708 63.3351 5.31157 60.82L3.55207 61.7709C5.0792 64.5967 7.17571 66.7733 9.83985 68.2696L10.8192 66.5258ZM5.31157 60.82C3.96533 58.3289 3.26705 55.2515 3.26705 51.5455H1.26705C1.26705 55.4985 2.01195 58.9211 3.55207 61.7709L5.31157 60.82ZM3.26705 51.5455C3.26705 47.8297 3.97602 44.749 5.34252 42.2596L3.5893 41.2972C2.02398 44.1488 1.26705 47.5794 1.26705 51.5455H3.26705ZM5.34252 42.2596C6.72384 39.7432 8.57575 37.8565 10.8997 36.5677L9.92981 34.8186C7.25379 36.3026 5.1398 38.4727 3.5893 41.2972L5.34252 42.2596ZM10.8997 36.5677C13.2389 35.2706 15.8707 34.6136 18.8182 34.6136V32.6136C15.5611 32.6136 12.5907 33.3431 9.92981 34.8186L10.8997 36.5677ZM18.8182 34.6136C20.838 34.6136 22.6858 34.8958 24.3692 35.4499L24.9944 33.5501C23.0869 32.9223 21.0256 32.6136 18.8182 32.6136V34.6136ZM24.3746 35.4517C26.0581 35.9951 27.5242 36.7888 28.7841 37.8282L30.0568 36.2854C28.5894 35.0748 26.8964 34.164 24.989 33.5483L24.3746 35.4517ZM28.7879 37.8313C30.0428 38.8561 31.0664 40.1185 31.8587 41.6292L33.6299 40.7003C32.7177 38.9611 31.5254 37.4848 30.053 36.2823L28.7879 37.8313ZM31.8587 41.6292C32.6431 43.1248 33.1405 44.8549 33.3343 46.836L35.3248 46.6413C35.1095 44.4405 34.5501 42.4548 33.6299 40.7003L31.8587 41.6292ZM44.2884 67.8068L43.7879 68.6726L43.7938 68.676L44.2884 67.8068ZM39.7372 63.0682L38.8498 63.5292L38.8529 63.5352L39.7372 63.0682ZM39.7372 48.9205L38.8519 48.4555L38.8509 48.4574L39.7372 48.9205ZM44.2884 44.1818L44.785 45.0498L44.7866 45.0488L44.2884 44.1818ZM58.4531 44.1818L57.9527 45.0476L57.9586 45.051L58.4531 44.1818ZM63.0043 48.9205L62.1169 49.3815L62.12 49.3874L63.0043 48.9205ZM63.0043 63.0682L62.1189 62.6032L62.1179 62.6051L63.0043 63.0682ZM58.4531 67.8068L58.9498 68.6748L58.9514 68.6738L58.4531 67.8068ZM53.9702 62.2841L53.3073 61.5353L53.3073 61.5353L53.9702 62.2841ZM55.5554 59.7273L54.6097 59.4022L54.6067 59.411L55.5554 59.7273ZM55.5554 52.125L54.6067 52.4412L54.6097 52.4501L55.5554 52.125ZM53.9702 49.5682L54.633 48.8194L54.633 48.8194L53.9702 49.5682ZM48.8054 49.5682L48.1546 48.8089L48.1486 48.8141L48.8054 49.5682ZM47.1861 52.125L46.2404 51.7999L46.2374 51.8088L47.1861 52.125ZM47.1861 59.7273L46.2374 60.0435L46.2404 60.0524L47.1861 59.7273ZM48.8054 62.2841L48.1486 63.0382L48.1546 63.0433L48.8054 62.2841ZM51.3793 68.4943C48.7665 68.4943 46.5809 67.9607 44.7829 66.9377L43.7938 68.676C45.9504 69.903 48.492 70.4943 51.3793 70.4943V68.4943ZM44.7888 66.941C42.9871 65.8996 41.6025 64.4588 40.6215 62.6012L38.8529 63.5352C40.0083 65.723 41.6578 67.4413 43.7879 68.6726L44.7888 66.941ZM40.6246 62.6071C39.6534 60.7379 39.152 58.5429 39.152 55.9943H37.152C37.152 58.8093 37.7074 61.3303 38.8498 63.5292L40.6246 62.6071ZM39.152 55.9943C39.152 53.4334 39.6538 51.2397 40.6235 49.3835L38.8509 48.4574C37.707 50.6467 37.152 53.1689 37.152 55.9943H39.152ZM40.6226 49.3854C41.6035 47.5173 42.9869 46.0787 44.785 45.0498L43.7917 43.3139C41.658 44.5349 40.0072 46.2554 38.8519 48.4555L40.6226 49.3854ZM44.7866 45.0488C46.5839 44.0159 48.7682 43.4773 51.3793 43.4773V41.4773C48.4904 41.4773 45.9474 42.075 43.7901 43.3148L44.7866 45.0488ZM51.3793 43.4773C53.9906 43.4773 56.168 44.016 57.9527 45.0476L58.9536 43.316C56.8064 42.0749 54.2679 41.4773 51.3793 41.4773V43.4773ZM57.9586 45.051C59.767 46.0799 61.1482 47.5171 62.1169 49.3815L63.8916 48.4594C62.7467 46.2556 61.0938 44.5338 58.9476 43.3127L57.9586 45.051ZM62.12 49.3874C63.0998 51.2427 63.6065 53.435 63.6065 55.9943H65.6065C65.6065 53.1672 65.0451 50.6436 63.8885 48.4535L62.12 49.3874ZM63.6065 55.9943C63.6065 58.5413 63.1001 60.7348 62.1189 62.6033L63.8896 63.5331C65.0448 61.3334 65.6065 58.811 65.6065 55.9943H63.6065ZM62.1179 62.6051C61.1493 64.4591 59.7668 65.8984 57.9548 66.9398L58.9514 68.6738C61.094 67.4425 62.7456 65.7227 63.8906 63.5313L62.1179 62.6051ZM57.9564 66.9389C56.1711 67.9606 53.9922 68.4943 51.3793 68.4943V70.4943C54.2663 70.4943 56.8034 69.9031 58.9498 68.6748L57.9564 66.9389ZM51.4304 64.2045C52.6534 64.2045 53.7417 63.8219 54.633 63.0329L53.3073 61.5353C52.8123 61.9736 52.2074 62.2045 51.4304 62.2045V64.2045ZM54.633 63.0329C55.4862 62.2776 56.0982 61.2612 56.5041 60.0435L54.6067 59.411C54.2853 60.3751 53.8405 61.0633 53.3073 61.5353L54.633 63.0329ZM56.5011 60.0524C56.9195 58.8351 57.1179 57.46 57.1179 55.9432H55.1179C55.1179 57.29 54.9413 58.4376 54.6097 59.4022L56.5011 60.0524ZM57.1179 55.9432C57.1179 54.4056 56.92 53.0187 56.5011 51.7999L54.6097 52.4501C54.9408 53.4132 55.1179 54.5717 55.1179 55.9432H57.1179ZM56.5041 51.8088C56.0982 50.5911 55.4862 49.5747 54.633 48.8194L53.3073 50.3169C53.8405 50.789 54.2853 51.4771 54.6067 52.4412L56.5041 51.8088ZM54.633 48.8194C53.7417 48.0304 52.6534 47.6477 51.4304 47.6477V49.6477C52.2074 49.6477 52.8123 49.8787 53.3073 50.3169L54.633 48.8194ZM51.4304 47.6477C50.1824 47.6477 49.0697 48.0245 48.1546 48.8089L49.4562 50.3274C49.9729 49.8846 50.6102 49.6477 51.4304 49.6477V47.6477ZM48.1486 48.8141C47.2841 49.5671 46.6591 50.5818 46.2404 51.7999L48.1318 52.4501C48.463 51.4864 48.9176 50.7966 49.4622 50.3223L48.1486 48.8141ZM46.2374 51.8088C45.8321 53.0245 45.6406 54.4083 45.6406 55.9432H47.6406C47.6406 54.569 47.8127 53.4073 48.1348 52.4412L46.2374 51.8088ZM45.6406 55.9432C45.6406 57.4572 45.8326 58.8292 46.2374 60.0435L48.1348 59.411C47.8123 58.4436 47.6406 57.2928 47.6406 55.9432H45.6406ZM46.2404 60.0524C46.6591 61.2705 47.2841 62.2852 48.1486 63.0382L49.4622 61.53C48.9176 61.0557 48.463 60.3658 48.1318 59.4022L46.2404 60.0524ZM48.1546 63.0433C49.0697 63.8278 50.1824 64.2045 51.4304 64.2045V62.2045C50.6102 62.2045 49.9729 61.9677 49.4562 61.5248L48.1546 63.0433ZM77.2116 34.0909H78.2116V33.0909H77.2116V34.0909ZM77.2116 69V70H78.2116V69H77.2116ZM68.8764 69H67.8764V70H68.8764V69ZM68.8764 34.0909V33.0909H67.8764V34.0909H68.8764ZM76.2116 34.0909V69H78.2116V34.0909H76.2116ZM77.2116 68H68.8764V70H77.2116V68ZM69.8764 69V34.0909H67.8764V69H69.8764ZM68.8764 35.0909H77.2116V33.0909H68.8764V35.0909ZM87.6477 67.8068L87.1473 68.6726L87.1532 68.676L87.6477 67.8068ZM83.0966 63.0682L82.2092 63.5292L82.2123 63.5352L83.0966 63.0682ZM83.0966 48.9205L82.2112 48.4555L82.2103 48.4574L83.0966 48.9205ZM87.6477 44.1818L88.1444 45.0498L88.146 45.0488L87.6477 44.1818ZM101.812 44.1818L101.312 45.0476L101.318 45.051L101.812 44.1818ZM106.364 48.9205L105.476 49.3815L105.479 49.3874L106.364 48.9205ZM106.364 63.0682L105.478 62.6032L105.477 62.6051L106.364 63.0682ZM101.812 67.8068L102.309 68.6748L102.311 68.6738L101.812 67.8068ZM97.3295 62.2841L96.6667 61.5353L96.6667 61.5353L97.3295 62.2841ZM98.9148 59.7273L97.969 59.4022L97.9661 59.411L98.9148 59.7273ZM98.9148 52.125L97.966 52.4412L97.9691 52.4501L98.9148 52.125ZM97.3295 49.5682L97.9924 48.8194L97.9924 48.8194L97.3295 49.5682ZM92.1648 49.5682L91.514 48.8089L91.508 48.8141L92.1648 49.5682ZM90.5455 52.125L89.5997 51.7999L89.5968 51.8088L90.5455 52.125ZM90.5455 59.7273L89.5967 60.0435L89.5998 60.0524L90.5455 59.7273ZM92.1648 62.2841L91.508 63.0382L91.514 63.0433L92.1648 62.2841ZM94.7386 68.4943C92.1259 68.4943 89.9403 67.9607 88.1423 66.9377L87.1532 68.676C89.3097 69.903 91.8514 70.4943 94.7386 70.4943V68.4943ZM88.1482 66.941C86.3464 65.8996 84.9619 64.4588 83.9809 62.6012L82.2123 63.5352C83.3677 65.723 85.0172 67.4413 87.1473 68.6726L88.1482 66.941ZM83.984 62.6071C83.0128 60.7379 82.5114 58.5429 82.5114 55.9943H80.5114C80.5114 58.8093 81.0668 61.3303 82.2092 63.5292L83.984 62.6071ZM82.5114 55.9943C82.5114 53.4334 83.0131 51.2397 83.9829 49.3835L82.2103 48.4574C81.0664 50.6467 80.5114 53.1689 80.5114 55.9943H82.5114ZM83.9819 49.3854C84.9629 47.5173 86.3463 46.0787 88.1444 45.0498L87.151 43.3139C85.0174 44.5349 83.3666 46.2554 82.2112 48.4555L83.9819 49.3854ZM88.146 45.0488C89.9433 44.0159 92.1275 43.4773 94.7386 43.4773V41.4773C91.8497 41.4773 89.3067 42.075 87.1494 43.3148L88.146 45.0488ZM94.7386 43.4773C97.3499 43.4773 99.5274 44.016 101.312 45.0476L102.313 43.316C100.166 42.0749 97.6273 41.4773 94.7386 41.4773V43.4773ZM101.318 45.051C103.126 46.0799 104.508 47.5171 105.476 49.3815L107.251 48.4594C106.106 46.2556 104.453 44.5338 102.307 43.3127L101.318 45.051ZM105.479 49.3874C106.459 51.2427 106.966 53.435 106.966 55.9943H108.966C108.966 53.1672 108.405 50.6436 107.248 48.4535L105.479 49.3874ZM106.966 55.9943C106.966 58.5413 106.459 60.7348 105.478 62.6033L107.249 63.5331C108.404 61.3334 108.966 58.811 108.966 55.9943H106.966ZM105.477 62.6051C104.509 64.4591 103.126 65.8984 101.314 66.9398L102.311 68.6738C104.453 67.4425 106.105 65.7227 107.25 63.5313L105.477 62.6051ZM101.316 66.9389C99.5304 67.9606 97.3516 68.4943 94.7386 68.4943V70.4943C97.6257 70.4943 100.163 69.9031 102.309 68.6748L101.316 66.9389ZM94.7898 64.2045C96.0128 64.2045 97.101 63.8219 97.9924 63.0329L96.6667 61.5353C96.1717 61.9736 95.5668 62.2045 94.7898 62.2045V64.2045ZM97.9924 63.0329C98.8455 62.2776 99.4576 61.2612 99.8635 60.0435L97.9661 59.411C97.6447 60.3751 97.1999 61.0633 96.6667 61.5353L97.9924 63.0329ZM99.8605 60.0524C100.279 58.8351 100.477 57.46 100.477 55.9432H98.4773C98.4773 57.29 98.3007 58.4376 97.9691 59.4022L99.8605 60.0524ZM100.477 55.9432C100.477 54.4056 100.279 53.0187 99.8605 51.7999L97.9691 52.4501C98.3001 53.4132 98.4773 54.5717 98.4773 55.9432H100.477ZM99.8635 51.8088C99.4576 50.5911 98.8455 49.5747 97.9924 48.8194L96.6667 50.3169C97.1999 50.789 97.6447 51.4771 97.9661 52.4412L99.8635 51.8088ZM97.9924 48.8194C97.101 48.0304 96.0128 47.6477 94.7898 47.6477V49.6477C95.5668 49.6477 96.1717 49.8787 96.6667 50.3169L97.9924 48.8194ZM94.7898 47.6477C93.5418 47.6477 92.4291 48.0245 91.514 48.8089L92.8156 50.3274C93.3322 49.8846 93.9696 49.6477 94.7898 49.6477V47.6477ZM91.508 48.8141C90.6435 49.5671 90.0185 50.5818 89.5998 51.7999L91.4911 52.4501C91.8224 51.4864 92.277 50.7966 92.8216 50.3223L91.508 48.8141ZM89.5968 51.8088C89.1915 53.0245 89 54.4083 89 55.9432H91C91 54.569 91.1721 53.4073 91.4941 52.4412L89.5968 51.8088ZM89 55.9432C89 57.4572 89.192 58.8292 89.5968 60.0435L91.4941 59.411C91.1716 58.4436 91 57.2928 91 55.9432H89ZM89.5998 60.0524C90.0185 61.2705 90.6435 62.2852 91.508 63.0382L92.8216 61.53C92.277 61.0557 91.8224 60.3658 91.4911 59.4022L89.5998 60.0524ZM91.514 63.0433C92.4291 63.8278 93.5418 64.2045 94.7898 64.2045V62.2045C93.9696 62.2045 93.3322 61.9677 92.8156 61.5248L91.514 63.0433ZM129.128 42.8182V41.8182H128.128V42.8182H129.128ZM137.446 42.8182H138.446V41.8182H137.446V42.8182ZM137.446 69V70H138.446V69H137.446ZM129.503 69H128.503V70H129.503V69ZM129.503 64.125H130.503V63.125H129.503V64.125ZM129.23 64.125V63.125H128.528L128.29 63.7849L129.23 64.125ZM126.264 67.9432L126.822 68.7731L126.824 68.7721L126.264 67.9432ZM116.531 68.1136L116.014 68.9692L116.014 68.9692L116.531 68.1136ZM113.378 64.6875L112.486 65.1402L112.488 65.143L113.378 64.6875ZM112.236 59.5057L111.236 59.5057L111.236 59.5114L112.236 59.5057ZM112.236 42.8182V41.8182H111.236V42.8182H112.236ZM120.571 42.8182H121.571V41.8182H120.571V42.8182ZM120.571 57.8693L119.571 57.8693L119.571 57.8773L120.571 57.8693ZM121.696 61.2273L122.438 60.5572L122.438 60.5572L121.696 61.2273ZM126.946 61.9091L127.429 62.7847L127.434 62.7818L126.946 61.9091ZM128.531 60.2898L127.657 59.8041L127.654 59.8089L128.531 60.2898ZM130.128 57.6989V42.8182H128.128V57.6989H130.128ZM129.128 43.8182H137.446V41.8182H129.128V43.8182ZM136.446 42.8182V69H138.446V42.8182H136.446ZM137.446 68H129.503V70H137.446V68ZM130.503 69V64.125H128.503V69H130.503ZM129.503 63.125H129.23V65.125H129.503V63.125ZM128.29 63.7849C127.781 65.1902 126.925 66.2909 125.705 67.1143L126.824 68.7721C128.399 67.7091 129.52 66.2643 130.17 64.4651L128.29 63.7849ZM125.706 67.1132C124.512 67.9157 123.039 68.3409 121.236 68.3409V70.3409C123.364 70.3409 125.243 69.8343 126.822 68.7731L125.706 67.1132ZM121.236 68.3409C119.61 68.3409 118.226 67.97 117.049 67.2581L116.014 68.9692C117.541 69.8936 119.293 70.3409 121.236 70.3409V68.3409ZM117.049 67.2581C115.862 66.5402 114.937 65.5398 114.268 64.232L112.488 65.143C113.318 66.767 114.496 68.0507 116.014 68.9692L117.049 67.2581ZM114.27 64.2348C113.602 62.9204 113.246 61.3516 113.236 59.4999L111.236 59.5114C111.248 61.6143 111.653 63.5 112.486 65.1402L114.27 64.2348ZM113.236 59.5057V42.8182H111.236V59.5057H113.236ZM112.236 43.8182H120.571V41.8182H112.236V43.8182ZM119.571 42.8182V57.8693H121.571V42.8182H119.571ZM119.571 57.8773C119.584 59.47 120.008 60.85 120.954 61.8974L122.438 60.5572C121.907 59.9682 121.581 59.1096 121.571 57.8613L119.571 57.8773ZM120.954 61.8974C121.912 62.9589 123.206 63.4545 124.713 63.4545V61.4545C123.675 61.4545 122.957 61.132 122.438 60.5572L120.954 61.8974ZM124.713 63.4545C125.694 63.4545 126.607 63.238 127.429 62.7847L126.463 61.0335C125.966 61.3074 125.391 61.4545 124.713 61.4545V63.4545ZM127.434 62.7818C128.276 62.3109 128.936 61.6317 129.408 60.7706L127.654 59.8089C127.354 60.3569 126.957 60.7572 126.458 61.0363L127.434 62.7818ZM129.405 60.7754C129.903 59.8799 130.128 58.8407 130.128 57.6989H128.128C128.128 58.5798 127.955 59.2678 127.657 59.8041L129.405 60.7754ZM142.751 69H141.751V70H142.751V69ZM142.751 42.8182V41.8182H141.751V42.8182H142.751ZM150.848 42.8182H151.848V41.8182H150.848V42.8182ZM150.848 47.5909H149.848V48.5909H150.848V47.5909ZM151.121 47.5909V48.5909H151.882L152.085 47.8572L151.121 47.5909ZM153.456 43.7386L154.07 44.5276L154.076 44.5235L153.456 43.7386ZM158.416 42.5455L158.279 43.5359L158.292 43.5378L158.306 43.5393L158.416 42.5455ZM159.558 42.767H160.558V42.0161L159.837 41.8067L159.558 42.767ZM159.558 50.0114L159.234 50.9573L160.558 51.4114V50.0114H159.558ZM157.99 49.6875L157.866 50.6798L157.868 50.68L157.99 49.6875ZM153.609 50.233L154.092 51.1089L154.096 51.1065L153.609 50.233ZM151.751 52.0568L150.886 51.5553L150.884 51.5593L151.751 52.0568ZM151.087 69V70H152.087V69H151.087ZM143.751 69V42.8182H141.751V69H143.751ZM142.751 43.8182H150.848V41.8182H142.751V43.8182ZM149.848 42.8182V47.5909H151.848V42.8182H149.848ZM150.848 48.5909H151.121V46.5909H150.848V48.5909ZM152.085 47.8572C152.522 46.2732 153.206 45.2006 154.07 44.5275L152.841 42.9497C151.546 43.9584 150.674 45.4541 150.157 47.3246L152.085 47.8572ZM154.076 44.5235C154.971 43.8166 156.006 43.4602 157.223 43.4602V41.4602C155.576 41.4602 154.1 41.9561 152.836 42.9538L154.076 44.5235ZM157.223 43.4602C157.56 43.4602 157.912 43.485 158.279 43.5359L158.554 41.555C158.102 41.4922 157.658 41.4602 157.223 41.4602V43.4602ZM158.306 43.5393C158.665 43.5792 158.988 43.6429 159.279 43.7274L159.837 41.8067C159.424 41.6866 158.986 41.6026 158.527 41.5516L158.306 43.5393ZM158.558 42.767V50.0114H160.558V42.767H158.558ZM159.883 49.0654C159.394 48.8978 158.795 48.7789 158.112 48.695L157.868 50.68C158.48 50.7552 158.927 50.8522 159.234 50.9573L159.883 49.0654ZM158.114 48.6952C157.447 48.6119 156.837 48.5682 156.286 48.5682V50.5682C156.734 50.5682 157.26 50.604 157.866 50.6798L158.114 48.6952ZM156.286 48.5682C155.142 48.5682 154.08 48.8263 153.123 49.3594L154.096 51.1065C154.73 50.7533 155.452 50.5682 156.286 50.5682V48.5682ZM153.127 49.357C152.182 49.8777 151.431 50.616 150.886 51.5553L152.617 52.5583C152.981 51.9295 153.469 51.4519 154.092 51.1089L153.127 49.357ZM150.884 51.5593C150.34 52.5079 150.087 53.5946 150.087 54.7841H152.087C152.087 53.8827 152.277 53.1512 152.619 52.5543L150.884 51.5593ZM150.087 54.7841V69H152.087V54.7841H150.087ZM151.087 68H142.751V70H151.087V68Z" fill="black" mask="url(#path-1-outside-1_138_502)"/>
<path d="M34.3295 46.7386V47.7386H35.4321L35.3248 46.6413L34.3295 46.7386ZM25.8068 46.7386L24.8151 46.8674L24.9283 47.7386H25.8068V46.7386ZM25.108 44.3693L24.2135 44.8165L24.2135 44.8165L25.108 44.3693ZM23.7102 42.5625L24.3635 41.8053L24.3635 41.8053L23.7102 42.5625ZM21.6477 41.4205L21.3192 42.365L21.3274 42.3678L21.3356 42.3705L21.6477 41.4205ZM14.6591 42.2557L14.0991 41.4272L14.0955 41.4296L14.6591 42.2557ZM11.8466 45.8523L10.9247 45.4648L10.9223 45.4705L11.8466 45.8523ZM11.8636 57.375L10.9417 57.7625L10.9452 57.7705L11.8636 57.375ZM14.6761 60.9034L14.125 61.7379L14.1342 61.7438L14.6761 60.9034ZM21.5284 61.7216L21.2333 60.7661L21.2293 60.7674L21.5284 61.7216ZM23.5568 60.6818L24.174 61.4687L24.176 61.4671L23.5568 60.6818ZM25.0057 58.9943L24.1392 58.495L24.1365 58.4998L25.0057 58.9943ZM25.8068 56.7273L25.8128 55.7273L24.9681 55.7222L24.8219 56.5542L25.8068 56.7273ZM34.3295 56.7784L35.325 56.8736L35.4291 55.785L34.3355 55.7784L34.3295 56.7784ZM32.983 61.3466L32.0885 60.8994L32.0858 60.9048L32.983 61.3466ZM29.9318 65.4545L30.6196 66.1805L30.6229 66.1773L29.9318 65.4545ZM25.1932 68.3864L24.8296 67.4548L24.8277 67.4555L25.1932 68.3864ZM10.3295 67.3977L9.83984 68.2696L9.84458 68.2723L10.3295 67.3977ZM4.43182 61.2955L5.31157 60.82L4.43182 61.2955ZM4.46591 41.7784L3.5893 41.2972L3.5893 41.2972L4.46591 41.7784ZM24.6818 34.5L24.3692 35.4499L24.3746 35.4517L24.6818 34.5ZM29.4205 37.0568L28.7841 37.8282L28.7879 37.8313L29.4205 37.0568ZM34.3295 45.7386H25.8068V47.7386H34.3295V45.7386ZM26.7985 46.6098C26.6722 45.6372 26.4103 44.7379 26.0024 43.9221L24.2135 44.8165C24.5102 45.4099 24.7142 46.0901 24.8151 46.8674L26.7985 46.6098ZM26.0024 43.9221C25.5927 43.1028 25.046 42.3942 24.3635 41.8053L23.057 43.3197C23.5335 43.7308 23.9186 44.2267 24.2135 44.8165L26.0024 43.9221ZM24.3635 41.8053C23.675 41.2114 22.8688 40.7691 21.9599 40.4704L21.3356 42.3705C22.0176 42.5946 22.5863 42.9136 23.057 43.3197L24.3635 41.8053ZM21.9762 40.476C21.072 40.1614 20.0897 40.0114 19.0398 40.0114V42.0114C19.899 42.0114 20.6553 42.134 21.3192 42.365L21.9762 40.476ZM19.0398 40.0114C17.1764 40.0114 15.5146 40.4704 14.0991 41.4272L15.2191 43.0842C16.2582 42.3818 17.5167 42.0114 19.0398 42.0114V40.0114ZM14.0955 41.4296C12.6968 42.3839 11.6466 43.7473 10.9247 45.4648L12.7685 46.2397C13.3648 44.8209 14.1896 43.7866 15.2227 43.0817L14.0955 41.4296ZM10.9223 45.4705C10.2116 47.1912 9.875 49.2261 9.875 51.5455H11.875C11.875 49.4103 12.1861 47.6497 12.7709 46.234L10.9223 45.4705ZM9.875 51.5455C9.875 53.9514 10.216 56.0358 10.9417 57.7625L12.7855 56.9875C12.193 55.5778 11.875 53.7759 11.875 51.5455H9.875ZM10.9452 57.7705C11.679 59.4745 12.7312 60.8174 14.1251 61.7379L15.2272 60.0689C14.2119 59.3985 13.3892 58.3891 12.7821 56.9795L10.9452 57.7705ZM14.1342 61.7438C15.5344 62.6467 17.1662 63.0795 18.9886 63.0795V61.0795C17.4929 61.0795 16.2497 60.7283 15.2181 60.063L14.1342 61.7438ZM18.9886 63.0795C20.0053 63.0795 20.9547 62.9494 21.8275 62.6758L21.2293 60.7674C20.5794 60.9711 19.8356 61.0795 18.9886 61.0795V63.0795ZM21.8235 62.6771C22.7015 62.4059 23.4893 62.0057 24.174 61.4687L22.9397 59.895C22.4653 60.267 21.9008 60.56 21.2333 60.7661L21.8235 62.6771ZM24.176 61.4671C24.869 60.9207 25.4366 60.2592 25.8748 59.4888L24.1365 58.4998C23.8248 59.0476 23.4265 59.5112 22.9377 59.8965L24.176 61.4671ZM25.8721 59.4936C26.3224 58.7122 26.6259 57.8442 26.7917 56.9003L24.8219 56.5542C24.6923 57.2922 24.4617 57.9355 24.1393 58.495L25.8721 59.4936ZM25.8008 57.7273L34.3235 57.7784L34.3355 55.7784L25.8128 55.7273L25.8008 57.7273ZM33.3341 56.6833C33.199 58.0966 32.7879 59.5006 32.0885 60.8994L33.8774 61.7938C34.678 60.1926 35.1647 58.5511 35.325 56.8736L33.3341 56.6833ZM32.0858 60.9048C31.4025 62.2925 30.4577 63.5682 29.2407 64.7318L30.6229 66.1773C31.9968 64.8636 33.0861 63.4007 33.8801 61.7884L32.0858 60.9048ZM29.2441 64.7286C28.0531 65.8569 26.5875 66.7688 24.8296 67.4548L25.5567 69.3179C27.5262 68.5494 29.2196 67.5067 30.6196 66.1805L29.2441 64.7286ZM24.8277 67.4555C23.113 68.1288 21.1158 68.4773 18.8182 68.4773V70.4773C21.316 70.4773 23.5688 70.0985 25.5587 69.3172L24.8277 67.4555ZM18.8182 68.4773C15.8105 68.4773 13.151 67.8189 10.8145 66.5232L9.84458 68.2723C12.5081 69.7493 15.5076 70.4773 18.8182 70.4773V68.4773ZM10.8192 66.5258C8.50611 65.2267 6.6708 63.3351 5.31157 60.82L3.55207 61.7709C5.0792 64.5967 7.17571 66.7733 9.83985 68.2696L10.8192 66.5258ZM5.31157 60.82C3.96533 58.3289 3.26705 55.2515 3.26705 51.5455H1.26705C1.26705 55.4985 2.01195 58.9211 3.55207 61.7709L5.31157 60.82ZM3.26705 51.5455C3.26705 47.8297 3.97602 44.749 5.34252 42.2596L3.5893 41.2972C2.02398 44.1488 1.26705 47.5794 1.26705 51.5455H3.26705ZM5.34252 42.2596C6.72384 39.7432 8.57575 37.8565 10.8997 36.5677L9.92981 34.8186C7.25379 36.3026 5.1398 38.4727 3.5893 41.2972L5.34252 42.2596ZM10.8997 36.5677C13.2389 35.2706 15.8707 34.6136 18.8182 34.6136V32.6136C15.5611 32.6136 12.5907 33.3431 9.92981 34.8186L10.8997 36.5677ZM18.8182 34.6136C20.838 34.6136 22.6858 34.8958 24.3692 35.4499L24.9944 33.5501C23.0869 32.9223 21.0256 32.6136 18.8182 32.6136V34.6136ZM24.3746 35.4517C26.0581 35.9951 27.5242 36.7888 28.7841 37.8282L30.0568 36.2854C28.5894 35.0748 26.8964 34.164 24.989 33.5483L24.3746 35.4517ZM28.7879 37.8313C30.0428 38.8561 31.0664 40.1185 31.8587 41.6292L33.6299 40.7003C32.7177 38.9611 31.5254 37.4848 30.053 36.2823L28.7879 37.8313ZM31.8587 41.6292C32.6431 43.1248 33.1405 44.8549 33.3343 46.836L35.3248 46.6413C35.1095 44.4405 34.5501 42.4548 33.6299 40.7003L31.8587 41.6292ZM44.2884 67.8068L43.7879 68.6726L43.7938 68.676L44.2884 67.8068ZM39.7372 63.0682L38.8498 63.5292L38.8529 63.5352L39.7372 63.0682ZM39.7372 48.9205L38.8519 48.4555L38.8509 48.4574L39.7372 48.9205ZM44.2884 44.1818L44.785 45.0498L44.7866 45.0488L44.2884 44.1818ZM58.4531 44.1818L57.9527 45.0476L57.9586 45.051L58.4531 44.1818ZM63.0043 48.9205L62.1169 49.3815L62.12 49.3874L63.0043 48.9205ZM63.0043 63.0682L62.1189 62.6032L62.1179 62.6051L63.0043 63.0682ZM58.4531 67.8068L58.9498 68.6748L58.9514 68.6738L58.4531 67.8068ZM53.9702 62.2841L53.3073 61.5353L53.3073 61.5353L53.9702 62.2841ZM55.5554 59.7273L54.6097 59.4022L54.6067 59.411L55.5554 59.7273ZM55.5554 52.125L54.6067 52.4412L54.6097 52.4501L55.5554 52.125ZM53.9702 49.5682L54.633 48.8194L54.633 48.8194L53.9702 49.5682ZM48.8054 49.5682L48.1546 48.8089L48.1486 48.8141L48.8054 49.5682ZM47.1861 52.125L46.2404 51.7999L46.2374 51.8088L47.1861 52.125ZM47.1861 59.7273L46.2374 60.0435L46.2404 60.0524L47.1861 59.7273ZM48.8054 62.2841L48.1486 63.0382L48.1546 63.0433L48.8054 62.2841ZM51.3793 68.4943C48.7665 68.4943 46.5809 67.9607 44.7829 66.9377L43.7938 68.676C45.9504 69.903 48.492 70.4943 51.3793 70.4943V68.4943ZM44.7888 66.941C42.9871 65.8996 41.6025 64.4588 40.6215 62.6012L38.8529 63.5352C40.0083 65.723 41.6578 67.4413 43.7879 68.6726L44.7888 66.941ZM40.6246 62.6071C39.6534 60.7379 39.152 58.5429 39.152 55.9943H37.152C37.152 58.8093 37.7074 61.3303 38.8498 63.5292L40.6246 62.6071ZM39.152 55.9943C39.152 53.4334 39.6538 51.2397 40.6235 49.3835L38.8509 48.4574C37.707 50.6467 37.152 53.1689 37.152 55.9943H39.152ZM40.6226 49.3854C41.6035 47.5173 42.9869 46.0787 44.785 45.0498L43.7917 43.3139C41.658 44.5349 40.0072 46.2554 38.8519 48.4555L40.6226 49.3854ZM44.7866 45.0488C46.5839 44.0159 48.7682 43.4773 51.3793 43.4773V41.4773C48.4904 41.4773 45.9474 42.075 43.7901 43.3148L44.7866 45.0488ZM51.3793 43.4773C53.9906 43.4773 56.168 44.016 57.9527 45.0476L58.9536 43.316C56.8064 42.0749 54.2679 41.4773 51.3793 41.4773V43.4773ZM57.9586 45.051C59.767 46.0799 61.1482 47.5171 62.1169 49.3815L63.8916 48.4594C62.7467 46.2556 61.0938 44.5338 58.9476 43.3127L57.9586 45.051ZM62.12 49.3874C63.0998 51.2427 63.6065 53.435 63.6065 55.9943H65.6065C65.6065 53.1672 65.0451 50.6436 63.8885 48.4535L62.12 49.3874ZM63.6065 55.9943C63.6065 58.5413 63.1001 60.7348 62.1189 62.6033L63.8896 63.5331C65.0448 61.3334 65.6065 58.811 65.6065 55.9943H63.6065ZM62.1179 62.6051C61.1493 64.4591 59.7668 65.8984 57.9548 66.9398L58.9514 68.6738C61.094 67.4425 62.7456 65.7227 63.8906 63.5313L62.1179 62.6051ZM57.9564 66.9389C56.1711 67.9606 53.9922 68.4943 51.3793 68.4943V70.4943C54.2663 70.4943 56.8034 69.9031 58.9498 68.6748L57.9564 66.9389ZM51.4304 64.2045C52.6534 64.2045 53.7417 63.8219 54.633 63.0329L53.3073 61.5353C52.8123 61.9736 52.2074 62.2045 51.4304 62.2045V64.2045ZM54.633 63.0329C55.4862 62.2776 56.0982 61.2612 56.5041 60.0435L54.6067 59.411C54.2853 60.3751 53.8405 61.0633 53.3073 61.5353L54.633 63.0329ZM56.5011 60.0524C56.9195 58.8351 57.1179 57.46 57.1179 55.9432H55.1179C55.1179 57.29 54.9413 58.4376 54.6097 59.4022L56.5011 60.0524ZM57.1179 55.9432C57.1179 54.4056 56.92 53.0187 56.5011 51.7999L54.6097 52.4501C54.9408 53.4132 55.1179 54.5717 55.1179 55.9432H57.1179ZM56.5041 51.8088C56.0982 50.5911 55.4862 49.5747 54.633 48.8194L53.3073 50.3169C53.8405 50.789 54.2853 51.4771 54.6067 52.4412L56.5041 51.8088ZM54.633 48.8194C53.7417 48.0304 52.6534 47.6477 51.4304 47.6477V49.6477C52.2074 49.6477 52.8123 49.8787 53.3073 50.3169L54.633 48.8194ZM51.4304 47.6477C50.1824 47.6477 49.0697 48.0245 48.1546 48.8089L49.4562 50.3274C49.9729 49.8846 50.6102 49.6477 51.4304 49.6477V47.6477ZM48.1486 48.8141C47.2841 49.5671 46.6591 50.5818 46.2404 51.7999L48.1318 52.4501C48.463 51.4864 48.9176 50.7966 49.4622 50.3223L48.1486 48.8141ZM46.2374 51.8088C45.8321 53.0245 45.6406 54.4083 45.6406 55.9432H47.6406C47.6406 54.569 47.8127 53.4073 48.1348 52.4412L46.2374 51.8088ZM45.6406 55.9432C45.6406 57.4572 45.8326 58.8292 46.2374 60.0435L48.1348 59.411C47.8123 58.4436 47.6406 57.2928 47.6406 55.9432H45.6406ZM46.2404 60.0524C46.6591 61.2705 47.2841 62.2852 48.1486 63.0382L49.4622 61.53C48.9176 61.0557 48.463 60.3658 48.1318 59.4022L46.2404 60.0524ZM48.1546 63.0433C49.0697 63.8278 50.1824 64.2045 51.4304 64.2045V62.2045C50.6102 62.2045 49.9729 61.9677 49.4562 61.5248L48.1546 63.0433ZM77.2116 34.0909H78.2116V33.0909H77.2116V34.0909ZM77.2116 69V70H78.2116V69H77.2116ZM68.8764 69H67.8764V70H68.8764V69ZM68.8764 34.0909V33.0909H67.8764V34.0909H68.8764ZM76.2116 34.0909V69H78.2116V34.0909H76.2116ZM77.2116 68H68.8764V70H77.2116V68ZM69.8764 69V34.0909H67.8764V69H69.8764ZM68.8764 35.0909H77.2116V33.0909H68.8764V35.0909ZM87.6477 67.8068L87.1473 68.6726L87.1532 68.676L87.6477 67.8068ZM83.0966 63.0682L82.2092 63.5292L82.2123 63.5352L83.0966 63.0682ZM83.0966 48.9205L82.2112 48.4555L82.2103 48.4574L83.0966 48.9205ZM87.6477 44.1818L88.1444 45.0498L88.146 45.0488L87.6477 44.1818ZM101.812 44.1818L101.312 45.0476L101.318 45.051L101.812 44.1818ZM106.364 48.9205L105.476 49.3815L105.479 49.3874L106.364 48.9205ZM106.364 63.0682L105.478 62.6032L105.477 62.6051L106.364 63.0682ZM101.812 67.8068L102.309 68.6748L102.311 68.6738L101.812 67.8068ZM97.3295 62.2841L96.6667 61.5353L96.6667 61.5353L97.3295 62.2841ZM98.9148 59.7273L97.969 59.4022L97.9661 59.411L98.9148 59.7273ZM98.9148 52.125L97.966 52.4412L97.9691 52.4501L98.9148 52.125ZM97.3295 49.5682L97.9924 48.8194L97.9924 48.8194L97.3295 49.5682ZM92.1648 49.5682L91.514 48.8089L91.508 48.8141L92.1648 49.5682ZM90.5455 52.125L89.5997 51.7999L89.5968 51.8088L90.5455 52.125ZM90.5455 59.7273L89.5967 60.0435L89.5998 60.0524L90.5455 59.7273ZM92.1648 62.2841L91.508 63.0382L91.514 63.0433L92.1648 62.2841ZM94.7386 68.4943C92.1259 68.4943 89.9403 67.9607 88.1423 66.9377L87.1532 68.676C89.3097 69.903 91.8514 70.4943 94.7386 70.4943V68.4943ZM88.1482 66.941C86.3464 65.8996 84.9619 64.4588 83.9809 62.6012L82.2123 63.5352C83.3677 65.723 85.0172 67.4413 87.1473 68.6726L88.1482 66.941ZM83.984 62.6071C83.0128 60.7379 82.5114 58.5429 82.5114 55.9943H80.5114C80.5114 58.8093 81.0668 61.3303 82.2092 63.5292L83.984 62.6071ZM82.5114 55.9943C82.5114 53.4334 83.0131 51.2397 83.9829 49.3835L82.2103 48.4574C81.0664 50.6467 80.5114 53.1689 80.5114 55.9943H82.5114ZM83.9819 49.3854C84.9629 47.5173 86.3463 46.0787 88.1444 45.0498L87.151 43.3139C85.0174 44.5349 83.3666 46.2554 82.2112 48.4555L83.9819 49.3854ZM88.146 45.0488C89.9433 44.0159 92.1275 43.4773 94.7386 43.4773V41.4773C91.8497 41.4773 89.3067 42.075 87.1494 43.3148L88.146 45.0488ZM94.7386 43.4773C97.3499 43.4773 99.5274 44.016 101.312 45.0476L102.313 43.316C100.166 42.0749 97.6273 41.4773 94.7386 41.4773V43.4773ZM101.318 45.051C103.126 46.0799 104.508 47.5171 105.476 49.3815L107.251 48.4594C106.106 46.2556 104.453 44.5338 102.307 43.3127L101.318 45.051ZM105.479 49.3874C106.459 51.2427 106.966 53.435 106.966 55.9943H108.966C108.966 53.1672 108.405 50.6436 107.248 48.4535L105.479 49.3874ZM106.966 55.9943C106.966 58.5413 106.459 60.7348 105.478 62.6033L107.249 63.5331C108.404 61.3334 108.966 58.811 108.966 55.9943H106.966ZM105.477 62.6051C104.509 64.4591 103.126 65.8984 101.314 66.9398L102.311 68.6738C104.453 67.4425 106.105 65.7227 107.25 63.5313L105.477 62.6051ZM101.316 66.9389C99.5304 67.9606 97.3516 68.4943 94.7386 68.4943V70.4943C97.6257 70.4943 100.163 69.9031 102.309 68.6748L101.316 66.9389ZM94.7898 64.2045C96.0128 64.2045 97.101 63.8219 97.9924 63.0329L96.6667 61.5353C96.1717 61.9736 95.5668 62.2045 94.7898 62.2045V64.2045ZM97.9924 63.0329C98.8455 62.2776 99.4576 61.2612 99.8635 60.0435L97.9661 59.411C97.6447 60.3751 97.1999 61.0633 96.6667 61.5353L97.9924 63.0329ZM99.8605 60.0524C100.279 58.8351 100.477 57.46 100.477 55.9432H98.4773C98.4773 57.29 98.3007 58.4376 97.9691 59.4022L99.8605 60.0524ZM100.477 55.9432C100.477 54.4056 100.279 53.0187 99.8605 51.7999L97.9691 52.4501C98.3001 53.4132 98.4773 54.5717 98.4773 55.9432H100.477ZM99.8635 51.8088C99.4576 50.5911 98.8455 49.5747 97.9924 48.8194L96.6667 50.3169C97.1999 50.789 97.6447 51.4771 97.9661 52.4412L99.8635 51.8088ZM97.9924 48.8194C97.101 48.0304 96.0128 47.6477 94.7898 47.6477V49.6477C95.5668 49.6477 96.1717 49.8787 96.6667 50.3169L97.9924 48.8194ZM94.7898 47.6477C93.5418 47.6477 92.4291 48.0245 91.514 48.8089L92.8156 50.3274C93.3322 49.8846 93.9696 49.6477 94.7898 49.6477V47.6477ZM91.508 48.8141C90.6435 49.5671 90.0185 50.5818 89.5998 51.7999L91.4911 52.4501C91.8224 51.4864 92.277 50.7966 92.8216 50.3223L91.508 48.8141ZM89.5968 51.8088C89.1915 53.0245 89 54.4083 89 55.9432H91C91 54.569 91.1721 53.4073 91.4941 52.4412L89.5968 51.8088ZM89 55.9432C89 57.4572 89.192 58.8292 89.5968 60.0435L91.4941 59.411C91.1716 58.4436 91 57.2928 91 55.9432H89ZM89.5998 60.0524C90.0185 61.2705 90.6435 62.2852 91.508 63.0382L92.8216 61.53C92.277 61.0557 91.8224 60.3658 91.4911 59.4022L89.5998 60.0524ZM91.514 63.0433C92.4291 63.8278 93.5418 64.2045 94.7898 64.2045V62.2045C93.9696 62.2045 93.3322 61.9677 92.8156 61.5248L91.514 63.0433ZM129.128 42.8182V41.8182H128.128V42.8182H129.128ZM137.446 42.8182H138.446V41.8182H137.446V42.8182ZM137.446 69V70H138.446V69H137.446ZM129.503 69H128.503V70H129.503V69ZM129.503 64.125H130.503V63.125H129.503V64.125ZM129.23 64.125V63.125H128.528L128.29 63.7849L129.23 64.125ZM126.264 67.9432L126.822 68.7731L126.824 68.7721L126.264 67.9432ZM116.531 68.1136L116.014 68.9692L116.014 68.9692L116.531 68.1136ZM113.378 64.6875L112.486 65.1402L112.488 65.143L113.378 64.6875ZM112.236 59.5057L111.236 59.5057L111.236 59.5114L112.236 59.5057ZM112.236 42.8182V41.8182H111.236V42.8182H112.236ZM120.571 42.8182H121.571V41.8182H120.571V42.8182ZM120.571 57.8693L119.571 57.8693L119.571 57.8773L120.571 57.8693ZM121.696 61.2273L122.438 60.5572L122.438 60.5572L121.696 61.2273ZM126.946 61.9091L127.429 62.7847L127.434 62.7818L126.946 61.9091ZM128.531 60.2898L127.657 59.8041L127.654 59.8089L128.531 60.2898ZM130.128 57.6989V42.8182H128.128V57.6989H130.128ZM129.128 43.8182H137.446V41.8182H129.128V43.8182ZM136.446 42.8182V69H138.446V42.8182H136.446ZM137.446 68H129.503V70H137.446V68ZM130.503 69V64.125H128.503V69H130.503ZM129.503 63.125H129.23V65.125H129.503V63.125ZM128.29 63.7849C127.781 65.1902 126.925 66.2909 125.705 67.1143L126.824 68.7721C128.399 67.7091 129.52 66.2643 130.17 64.4651L128.29 63.7849ZM125.706 67.1132C124.512 67.9157 123.039 68.3409 121.236 68.3409V70.3409C123.364 70.3409 125.243 69.8343 126.822 68.7731L125.706 67.1132ZM121.236 68.3409C119.61 68.3409 118.226 67.97 117.049 67.2581L116.014 68.9692C117.541 69.8936 119.293 70.3409 121.236 70.3409V68.3409ZM117.049 67.2581C115.862 66.5402 114.937 65.5398 114.268 64.232L112.488 65.143C113.318 66.767 114.496 68.0507 116.014 68.9692L117.049 67.2581ZM114.27 64.2348C113.602 62.9204 113.246 61.3516 113.236 59.4999L111.236 59.5114C111.248 61.6143 111.653 63.5 112.486 65.1402L114.27 64.2348ZM113.236 59.5057V42.8182H111.236V59.5057H113.236ZM112.236 43.8182H120.571V41.8182H112.236V43.8182ZM119.571 42.8182V57.8693H121.571V42.8182H119.571ZM119.571 57.8773C119.584 59.47 120.008 60.85 120.954 61.8974L122.438 60.5572C121.907 59.9682 121.581 59.1096 121.571 57.8613L119.571 57.8773ZM120.954 61.8974C121.912 62.9589 123.206 63.4545 124.713 63.4545V61.4545C123.675 61.4545 122.957 61.132 122.438 60.5572L120.954 61.8974ZM124.713 63.4545C125.694 63.4545 126.607 63.238 127.429 62.7847L126.463 61.0335C125.966 61.3074 125.391 61.4545 124.713 61.4545V63.4545ZM127.434 62.7818C128.276 62.3109 128.936 61.6317 129.408 60.7706L127.654 59.8089C127.354 60.3569 126.957 60.7572 126.458 61.0363L127.434 62.7818ZM129.405 60.7754C129.903 59.8799 130.128 58.8407 130.128 57.6989H128.128C128.128 58.5798 127.955 59.2678 127.657 59.8041L129.405 60.7754ZM142.751 69H141.751V70H142.751V69ZM142.751 42.8182V41.8182H141.751V42.8182H142.751ZM150.848 42.8182H151.848V41.8182H150.848V42.8182ZM150.848 47.5909H149.848V48.5909H150.848V47.5909ZM151.121 47.5909V48.5909H151.882L152.085 47.8572L151.121 47.5909ZM153.456 43.7386L154.07 44.5276L154.076 44.5235L153.456 43.7386ZM158.416 42.5455L158.279 43.5359L158.292 43.5378L158.306 43.5393L158.416 42.5455ZM159.558 42.767H160.558V42.0161L159.837 41.8067L159.558 42.767ZM159.558 50.0114L159.234 50.9573L160.558 51.4114V50.0114H159.558ZM157.99 49.6875L157.866 50.6798L157.868 50.68L157.99 49.6875ZM153.609 50.233L154.092 51.1089L154.096 51.1065L153.609 50.233ZM151.751 52.0568L150.886 51.5553L150.884 51.5593L151.751 52.0568ZM151.087 69V70H152.087V69H151.087ZM143.751 69V42.8182H141.751V69H143.751ZM142.751 43.8182H150.848V41.8182H142.751V43.8182ZM149.848 42.8182V47.5909H151.848V42.8182H149.848ZM150.848 48.5909H151.121V46.5909H150.848V48.5909ZM152.085 47.8572C152.522 46.2732 153.206 45.2006 154.07 44.5275L152.841 42.9497C151.546 43.9584 150.674 45.4541 150.157 47.3246L152.085 47.8572ZM154.076 44.5235C154.971 43.8166 156.006 43.4602 157.223 43.4602V41.4602C155.576 41.4602 154.1 41.9561 152.836 42.9538L154.076 44.5235ZM157.223 43.4602C157.56 43.4602 157.912 43.485 158.279 43.5359L158.554 41.555C158.102 41.4922 157.658 41.4602 157.223 41.4602V43.4602ZM158.306 43.5393C158.665 43.5792 158.988 43.6429 159.279 43.7274L159.837 41.8067C159.424 41.6866 158.986 41.6026 158.527 41.5516L158.306 43.5393ZM158.558 42.767V50.0114H160.558V42.767H158.558ZM159.883 49.0654C159.394 48.8978 158.795 48.7789 158.112 48.695L157.868 50.68C158.48 50.7552 158.927 50.8522 159.234 50.9573L159.883 49.0654ZM158.114 48.6952C157.447 48.6119 156.837 48.5682 156.286 48.5682V50.5682C156.734 50.5682 157.26 50.604 157.866 50.6798L158.114 48.6952ZM156.286 48.5682C155.142 48.5682 154.08 48.8263 153.123 49.3594L154.096 51.1065C154.73 50.7533 155.452 50.5682 156.286 50.5682V48.5682ZM153.127 49.357C152.182 49.8777 151.431 50.616 150.886 51.5553L152.617 52.5583C152.981 51.9295 153.469 51.4519 154.092 51.1089L153.127 49.357ZM150.884 51.5593C150.34 52.5079 150.087 53.5946 150.087 54.7841H152.087C152.087 53.8827 152.277 53.1512 152.619 52.5543L150.884 51.5593ZM150.087 54.7841V69H152.087V54.7841H150.087ZM151.087 68H142.751V70H151.087V68Z" fill="black" fill-opacity="0.2" mask="url(#path-1-outside-1_138_502)"/>
</g>
</g>
<defs>
<filter id="filter0_dd_138_502" x="-2.73291" y="32.6136" width="167.291" height="45.8807" filterUnits="userSpaceOnUse" color-interpolation-filters="sRGB">
<feFlood flood-opacity="0" result="BackgroundImageFix"/>
<feColorMatrix in="SourceAlpha" type="matrix" values="0 0 0 0 0 0 0 0 0 0 0 0 0 0 0 0 0 0 127 0" result="hardAlpha"/>
<feOffset dy="4"/>
<feGaussianBlur stdDeviation="2"/>
<feComposite in2="hardAlpha" operator="out"/>
<feColorMatrix type="matrix" values="0 0 0 0 0 0 0 0 0 0 0 0 0 0 0 0 0 0 0.25 0"/>
<feBlend mode="normal" in2="BackgroundImageFix" result="effect1_dropShadow_138_502"/>
<feColorMatrix in="SourceAlpha" type="matrix" values="0 0 0 0 0 0 0 0 0 0 0 0 0 0 0 0 0 0 127 0" result="hardAlpha"/>
<feOffset dy="4"/>
<feGaussianBlur stdDeviation="2"/>
<feComposite in2="hardAlpha" operator="out"/>
<feColorMatrix type="matrix" values="0 0 0 0 0 0 0 0 0 0 0 0 0 0 0 0 0 0 0.25 0"/>
<feBlend mode="normal" in2="effect1_dropShadow_138_502" result="effect2_dropShadow_138_502"/>
<feBlend mode="normal" in="SourceGraphic" in2="effect2_dropShadow_138_502" result="shape"/>
</filter>
<clipPath id="clip0_138_502">
<rect width="322" height="117" fill="white"/>
</clipPath>
</defs>
</svg>
