<svg width="322" height="117" viewBox="0 0 322 117" fill="none" xmlns="http://www.w3.org/2000/svg">
<g clip-path="url(#clip0_138_502)">
<rect width="322" height="117" fill="white"/>
<g filter="url(#filter0_dd_138_502)">
<mask id="path-1-outside-1_138_502" maskUnits="userSpaceOnUse" x="1" y="32" width="240" height="39" fill="black">
<rect fill="white" x="1" y="32" width="240" height="39"/>
<path d="M2.64205 69V34.0909H17.0625C19.6761 34.0909 21.9318 34.6023 23.8295 35.625C25.7386 36.6364 27.2102 38.0511 28.2443 39.8693C29.2784 41.6761 29.7955 43.7784 29.7955 46.1761C29.7955 48.5852 29.267 50.6932 28.2102 52.5C27.1648 54.2955 25.6705 55.6875 23.7273 56.6761C21.7841 57.6648 19.4773 58.1591 16.8068 58.1591H7.90909V51.5114H15.2386C16.5114 51.5114 17.5739 51.2898 18.4261 50.8466C19.2898 50.4034 19.9432 49.7841 20.3864 48.9886C20.8295 48.1818 21.0511 47.2443 21.0511 46.1761C21.0511 45.0966 20.8295 44.1648 20.3864 43.3807C19.9432 42.5852 19.2898 41.9716 18.4261 41.5398C17.5625 41.108 16.5 40.892 15.2386 40.892H11.0795V69H2.64205ZM33.9545 69V42.8182H42.0511V47.5909H42.3239C42.8011 45.8636 43.5795 44.5795 44.6591 43.7386C45.7386 42.8864 46.9943 42.4602 48.4261 42.4602C48.8125 42.4602 49.2102 42.4886 49.6193 42.5455C50.0284 42.5909 50.4091 42.6648 50.7614 42.767V50.0114C50.3636 49.875 49.8409 49.767 49.1932 49.6875C48.5568 49.608 47.9886 49.5682 47.4886 49.5682C46.5 49.5682 45.608 49.7898 44.8125 50.233C44.0284 50.6648 43.4091 51.2727 42.9545 52.0568C42.5114 52.8295 42.2898 53.7386 42.2898 54.7841V69H33.9545ZM65.0369 69.4943C62.2983 69.4943 59.9347 68.9545 57.946 67.875C55.9688 66.7841 54.446 65.233 53.3778 63.2216C52.321 61.1989 51.7926 58.7955 51.7926 56.0114C51.7926 53.3068 52.3267 50.9432 53.3949 48.9205C54.4631 46.8864 55.9688 45.3068 57.9119 44.1818C59.8551 43.0455 62.1449 42.4773 64.7812 42.4773C66.6449 42.4773 68.3494 42.767 69.8949 43.3466C71.4403 43.9261 72.7756 44.7841 73.9006 45.9205C75.0256 47.0568 75.9006 48.4602 76.5256 50.1307C77.1506 51.7898 77.4631 53.6932 77.4631 55.8409V57.9205H54.7074V53.0795H69.7074C69.696 52.1932 69.4858 51.4034 69.0767 50.7102C68.6676 50.017 68.1051 49.4773 67.3892 49.0909C66.6847 48.6932 65.8722 48.4943 64.9517 48.4943C64.0199 48.4943 63.1847 48.7045 62.446 49.125C61.7074 49.5341 61.1222 50.0966 60.6903 50.8125C60.2585 51.517 60.0313 52.3182 60.0085 53.2159V58.142C60.0085 59.2102 60.2188 60.1477 60.6392 60.9545C61.0597 61.75 61.6562 62.3693 62.429 62.8125C63.2017 63.2557 64.1222 63.4773 65.1903 63.4773C65.929 63.4773 66.5994 63.375 67.2017 63.1705C67.804 62.9659 68.321 62.6648 68.7528 62.267C69.1847 61.8693 69.5085 61.3807 69.7244 60.8011L77.3778 61.0227C77.0597 62.7386 76.3608 64.233 75.2812 65.5057C74.2131 66.767 72.8097 67.75 71.071 68.4545C69.3324 69.1477 67.321 69.4943 65.0369 69.4943ZM98.4759 51.6648V58.0909H82.3168V51.6648H98.4759ZM127.27 45.4943C127.077 44.7784 126.793 44.1477 126.418 43.6023C126.043 43.0455 125.582 42.5739 125.037 42.1875C124.491 41.8011 123.866 41.5114 123.162 41.3182C122.457 41.1136 121.685 41.0114 120.844 41.0114C119.151 41.0114 117.685 41.4205 116.446 42.2386C115.219 43.0568 114.27 44.25 113.599 45.8182C112.929 47.375 112.594 49.267 112.594 51.4943C112.594 53.733 112.918 55.642 113.565 57.2216C114.213 58.8011 115.151 60.0057 116.378 60.8352C117.605 61.6648 119.094 62.0795 120.844 62.0795C122.389 62.0795 123.696 61.8295 124.764 61.3295C125.844 60.8182 126.662 60.0966 127.219 59.1648C127.776 58.233 128.054 57.1364 128.054 55.875L129.622 56.0625H121.134V49.9091H136.185V54.5284C136.185 57.6534 135.52 60.3295 134.19 62.5568C132.872 64.7841 131.054 66.4943 128.736 67.6875C126.429 68.8807 123.776 69.4773 120.776 69.4773C117.446 69.4773 114.52 68.7557 111.997 67.3125C109.474 65.8693 107.509 63.8125 106.099 61.142C104.69 58.4602 103.986 55.2784 103.986 51.5966C103.986 48.733 104.412 46.1932 105.264 43.9773C106.116 41.75 107.304 39.8636 108.827 38.3182C110.361 36.7727 112.134 35.6023 114.145 34.8068C116.168 34.0114 118.344 33.6136 120.673 33.6136C122.696 33.6136 124.577 33.9034 126.315 34.483C128.065 35.0625 129.611 35.8807 130.952 36.9375C132.304 37.9943 133.401 39.25 134.241 40.7045C135.082 42.1591 135.605 43.7557 135.81 45.4943H127.27ZM149.493 34.0909V69H141.158V34.0909H149.493ZM171.69 57.6989V42.8182H180.009V69H172.065V64.125H171.793C171.213 65.7273 170.224 67 168.827 67.9432C167.44 68.875 165.764 69.3409 163.798 69.3409C162.014 69.3409 160.446 68.9318 159.094 68.1136C157.741 67.2955 156.69 66.1534 155.94 64.6875C155.19 63.2102 154.81 61.483 154.798 59.5057V42.8182H163.134V57.8693C163.145 59.2898 163.52 60.4091 164.259 61.2273C164.997 62.0455 166.003 62.4545 167.276 62.4545C168.105 62.4545 168.849 62.2727 169.509 61.9091C170.179 61.5341 170.707 60.9943 171.094 60.2898C171.491 59.5739 171.69 58.7102 171.69 57.6989ZM197.553 69.4943C194.814 69.4943 192.45 68.9545 190.462 67.875C188.484 66.7841 186.962 65.233 185.893 63.2216C184.837 61.1989 184.308 58.7955 184.308 56.0114C184.308 53.3068 184.842 50.9432 185.911 48.9205C186.979 46.8864 188.484 45.3068 190.428 44.1818C192.371 43.0455 194.661 42.4773 197.297 42.4773C199.161 42.4773 200.865 42.767 202.411 43.3466C203.956 43.9261 205.291 44.7841 206.416 45.9205C207.541 47.0568 208.416 48.4602 209.041 50.1307C209.666 51.7898 209.979 53.6932 209.979 55.8409V57.9205H187.223V53.0795H202.223C202.212 52.1932 202.001 51.4034 201.592 50.7102C201.183 50.017 200.621 49.4773 199.905 49.0909C199.2 48.6932 198.388 48.4943 197.467 48.4943C196.536 48.4943 195.7 48.7045 194.962 49.125C194.223 49.5341 193.638 50.0966 193.206 50.8125C192.774 51.517 192.547 52.3182 192.524 53.2159V58.142C192.524 59.2102 192.734 60.1477 193.155 60.9545C193.575 61.75 194.172 62.3693 194.945 62.8125C195.717 63.2557 196.638 63.4773 197.706 63.4773C198.445 63.4773 199.115 63.375 199.717 63.1705C200.32 62.9659 200.837 62.6648 201.268 62.267C201.7 61.8693 202.024 61.3807 202.24 60.8011L209.893 61.0227C209.575 62.7386 208.876 64.233 207.797 65.5057C206.729 66.767 205.325 67.75 203.587 68.4545C201.848 69.1477 199.837 69.4943 197.553 69.4943ZM223.798 69.375C221.866 69.375 220.111 68.875 218.531 67.875C216.952 66.875 215.69 65.375 214.747 63.375C213.804 61.375 213.332 58.892 213.332 55.9261C213.332 52.8466 213.821 50.3125 214.798 48.3239C215.776 46.3352 217.054 44.8636 218.634 43.9091C220.224 42.9545 221.935 42.4773 223.764 42.4773C225.139 42.4773 226.315 42.7159 227.293 43.1932C228.27 43.6591 229.077 44.2614 229.713 45C230.349 45.7386 230.832 46.5057 231.162 47.3011H231.332V34.0909H239.668V69H231.418V64.7557H231.162C230.81 65.5625 230.31 66.3182 229.662 67.0227C229.014 67.7273 228.202 68.2955 227.224 68.7273C226.259 69.1591 225.116 69.375 223.798 69.375ZM226.696 62.8807C227.707 62.8807 228.571 62.5966 229.287 62.0284C230.003 61.4489 230.554 60.6364 230.94 59.5909C231.327 58.5455 231.52 57.3182 231.52 55.9091C231.52 54.4773 231.327 53.2443 230.94 52.2102C230.565 51.1761 230.014 50.3807 229.287 49.8239C228.571 49.267 227.707 48.9886 226.696 48.9886C225.662 48.9886 224.787 49.2727 224.071 49.8409C223.355 50.4091 222.81 51.2102 222.435 52.2443C222.071 53.2784 221.889 54.5 221.889 55.9091C221.889 57.3182 222.077 58.5455 222.452 59.5909C222.827 60.6364 223.366 61.4489 224.071 62.0284C224.787 62.5966 225.662 62.8807 226.696 62.8807Z"/>
</mask>
<path d="M2.64205 69V34.0909H17.0625C19.6761 34.0909 21.9318 34.6023 23.8295 35.625C25.7386 36.6364 27.2102 38.0511 28.2443 39.8693C29.2784 41.6761 29.7955 43.7784 29.7955 46.1761C29.7955 48.5852 29.267 50.6932 28.2102 52.5C27.1648 54.2955 25.6705 55.6875 23.7273 56.6761C21.7841 57.6648 19.4773 58.1591 16.8068 58.1591H7.90909V51.5114H15.2386C16.5114 51.5114 17.5739 51.2898 18.4261 50.8466C19.2898 50.4034 19.9432 49.7841 20.3864 48.9886C20.8295 48.1818 21.0511 47.2443 21.0511 46.1761C21.0511 45.0966 20.8295 44.1648 20.3864 43.3807C19.9432 42.5852 19.2898 41.9716 18.4261 41.5398C17.5625 41.108 16.5 40.892 15.2386 40.892H11.0795V69H2.64205ZM33.9545 69V42.8182H42.0511V47.5909H42.3239C42.8011 45.8636 43.5795 44.5795 44.6591 43.7386C45.7386 42.8864 46.9943 42.4602 48.4261 42.4602C48.8125 42.4602 49.2102 42.4886 49.6193 42.5455C50.0284 42.5909 50.4091 42.6648 50.7614 42.767V50.0114C50.3636 49.875 49.8409 49.767 49.1932 49.6875C48.5568 49.608 47.9886 49.5682 47.4886 49.5682C46.5 49.5682 45.608 49.7898 44.8125 50.233C44.0284 50.6648 43.4091 51.2727 42.9545 52.0568C42.5114 52.8295 42.2898 53.7386 42.2898 54.7841V69H33.9545ZM65.0369 69.4943C62.2983 69.4943 59.9347 68.9545 57.946 67.875C55.9688 66.7841 54.446 65.233 53.3778 63.2216C52.321 61.1989 51.7926 58.7955 51.7926 56.0114C51.7926 53.3068 52.3267 50.9432 53.3949 48.9205C54.4631 46.8864 55.9688 45.3068 57.9119 44.1818C59.8551 43.0455 62.1449 42.4773 64.7812 42.4773C66.6449 42.4773 68.3494 42.767 69.8949 43.3466C71.4403 43.9261 72.7756 44.7841 73.9006 45.9205C75.0256 47.0568 75.9006 48.4602 76.5256 50.1307C77.1506 51.7898 77.4631 53.6932 77.4631 55.8409V57.9205H54.7074V53.0795H69.7074C69.696 52.1932 69.4858 51.4034 69.0767 50.7102C68.6676 50.017 68.1051 49.4773 67.3892 49.0909C66.6847 48.6932 65.8722 48.4943 64.9517 48.4943C64.0199 48.4943 63.1847 48.7045 62.446 49.125C61.7074 49.5341 61.1222 50.0966 60.6903 50.8125C60.2585 51.517 60.0313 52.3182 60.0085 53.2159V58.142C60.0085 59.2102 60.2188 60.1477 60.6392 60.9545C61.0597 61.75 61.6562 62.3693 62.429 62.8125C63.2017 63.2557 64.1222 63.4773 65.1903 63.4773C65.929 63.4773 66.5994 63.375 67.2017 63.1705C67.804 62.9659 68.321 62.6648 68.7528 62.267C69.1847 61.8693 69.5085 61.3807 69.7244 60.8011L77.3778 61.0227C77.0597 62.7386 76.3608 64.233 75.2812 65.5057C74.2131 66.767 72.8097 67.75 71.071 68.4545C69.3324 69.1477 67.321 69.4943 65.0369 69.4943ZM98.4759 51.6648V58.0909H82.3168V51.6648H98.4759ZM127.27 45.4943C127.077 44.7784 126.793 44.1477 126.418 43.6023C126.043 43.0455 125.582 42.5739 125.037 42.1875C124.491 41.8011 123.866 41.5114 123.162 41.3182C122.457 41.1136 121.685 41.0114 120.844 41.0114C119.151 41.0114 117.685 41.4205 116.446 42.2386C115.219 43.0568 114.27 44.25 113.599 45.8182C112.929 47.375 112.594 49.267 112.594 51.4943C112.594 53.733 112.918 55.642 113.565 57.2216C114.213 58.8011 115.151 60.0057 116.378 60.8352C117.605 61.6648 119.094 62.0795 120.844 62.0795C122.389 62.0795 123.696 61.8295 124.764 61.3295C125.844 60.8182 126.662 60.0966 127.219 59.1648C127.776 58.233 128.054 57.1364 128.054 55.875L129.622 56.0625H121.134V49.9091H136.185V54.5284C136.185 57.6534 135.52 60.3295 134.19 62.5568C132.872 64.7841 131.054 66.4943 128.736 67.6875C126.429 68.8807 123.776 69.4773 120.776 69.4773C117.446 69.4773 114.52 68.7557 111.997 67.3125C109.474 65.8693 107.509 63.8125 106.099 61.142C104.69 58.4602 103.986 55.2784 103.986 51.5966C103.986 48.733 104.412 46.1932 105.264 43.9773C106.116 41.75 107.304 39.8636 108.827 38.3182C110.361 36.7727 112.134 35.6023 114.145 34.8068C116.168 34.0114 118.344 33.6136 120.673 33.6136C122.696 33.6136 124.577 33.9034 126.315 34.483C128.065 35.0625 129.611 35.8807 130.952 36.9375C132.304 37.9943 133.401 39.25 134.241 40.7045C135.082 42.1591 135.605 43.7557 135.81 45.4943H127.27ZM149.493 34.0909V69H141.158V34.0909H149.493ZM171.69 57.6989V42.8182H180.009V69H172.065V64.125H171.793C171.213 65.7273 170.224 67 168.827 67.9432C167.44 68.875 165.764 69.3409 163.798 69.3409C162.014 69.3409 160.446 68.9318 159.094 68.1136C157.741 67.2955 156.69 66.1534 155.94 64.6875C155.19 63.2102 154.81 61.483 154.798 59.5057V42.8182H163.134V57.8693C163.145 59.2898 163.52 60.4091 164.259 61.2273C164.997 62.0455 166.003 62.4545 167.276 62.4545C168.105 62.4545 168.849 62.2727 169.509 61.9091C170.179 61.5341 170.707 60.9943 171.094 60.2898C171.491 59.5739 171.69 58.7102 171.69 57.6989ZM197.553 69.4943C194.814 69.4943 192.45 68.9545 190.462 67.875C188.484 66.7841 186.962 65.233 185.893 63.2216C184.837 61.1989 184.308 58.7955 184.308 56.0114C184.308 53.3068 184.842 50.9432 185.911 48.9205C186.979 46.8864 188.484 45.3068 190.428 44.1818C192.371 43.0455 194.661 42.4773 197.297 42.4773C199.161 42.4773 200.865 42.767 202.411 43.3466C203.956 43.9261 205.291 44.7841 206.416 45.9205C207.541 47.0568 208.416 48.4602 209.041 50.1307C209.666 51.7898 209.979 53.6932 209.979 55.8409V57.9205H187.223V53.0795H202.223C202.212 52.1932 202.001 51.4034 201.592 50.7102C201.183 50.017 200.621 49.4773 199.905 49.0909C199.2 48.6932 198.388 48.4943 197.467 48.4943C196.536 48.4943 195.7 48.7045 194.962 49.125C194.223 49.5341 193.638 50.0966 193.206 50.8125C192.774 51.517 192.547 52.3182 192.524 53.2159V58.142C192.524 59.2102 192.734 60.1477 193.155 60.9545C193.575 61.75 194.172 62.3693 194.945 62.8125C195.717 63.2557 196.638 63.4773 197.706 63.4773C198.445 63.4773 199.115 63.375 199.717 63.1705C200.32 62.9659 200.837 62.6648 201.268 62.267C201.7 61.8693 202.024 61.3807 202.24 60.8011L209.893 61.0227C209.575 62.7386 208.876 64.233 207.797 65.5057C206.729 66.767 205.325 67.75 203.587 68.4545C201.848 69.1477 199.837 69.4943 197.553 69.4943ZM223.798 69.375C221.866 69.375 220.111 68.875 218.531 67.875C216.952 66.875 215.69 65.375 214.747 63.375C213.804 61.375 213.332 58.892 213.332 55.9261C213.332 52.8466 213.821 50.3125 214.798 48.3239C215.776 46.3352 217.054 44.8636 218.634 43.9091C220.224 42.9545 221.935 42.4773 223.764 42.4773C225.139 42.4773 226.315 42.7159 227.293 43.1932C228.27 43.6591 229.077 44.2614 229.713 45C230.349 45.7386 230.832 46.5057 231.162 47.3011H231.332V34.0909H239.668V69H231.418V64.7557H231.162C230.81 65.5625 230.31 66.3182 229.662 67.0227C229.014 67.7273 228.202 68.2955 227.224 68.7273C226.259 69.1591 225.116 69.375 223.798 69.375ZM226.696 62.8807C227.707 62.8807 228.571 62.5966 229.287 62.0284C230.003 61.4489 230.554 60.6364 230.94 59.5909C231.327 58.5455 231.52 57.3182 231.52 55.9091C231.52 54.4773 231.327 53.2443 230.94 52.2102C230.565 51.1761 230.014 50.3807 229.287 49.8239C228.571 49.267 227.707 48.9886 226.696 48.9886C225.662 48.9886 224.787 49.2727 224.071 49.8409C223.355 50.4091 222.81 51.2102 222.435 52.2443C222.071 53.2784 221.889 54.5 221.889 55.9091C221.889 57.3182 222.077 58.5455 222.452 59.5909C222.827 60.6364 223.366 61.4489 224.071 62.0284C224.787 62.5966 225.662 62.8807 226.696 62.8807Z" fill="#002855"/>
<path d="M2.64205 69H1.64205V70H2.64205V69ZM2.64205 34.0909V33.0909H1.64205V34.0909H2.64205ZM23.8295 35.625L23.3551 36.5053L23.3614 36.5087L23.8295 35.625ZM28.2443 39.8693L27.3751 40.3637L27.3764 40.366L28.2443 39.8693ZM28.2102 52.5L27.347 51.9951L27.3461 51.9968L28.2102 52.5ZM23.7273 56.6761L24.1807 57.5674L24.1807 57.5674L23.7273 56.6761ZM7.90909 58.1591H6.90909V59.1591H7.90909V58.1591ZM7.90909 51.5114V50.5114H6.90909V51.5114H7.90909ZM18.4261 50.8466L17.9696 49.9569L17.9648 49.9594L18.4261 50.8466ZM20.3864 48.9886L21.2599 49.4753L21.2628 49.4701L20.3864 48.9886ZM20.3864 43.3807L19.5128 43.8674L19.5158 43.8727L20.3864 43.3807ZM18.4261 41.5398L17.9789 42.4342L17.9789 42.4342L18.4261 41.5398ZM11.0795 40.892V39.892H10.0795V40.892H11.0795ZM11.0795 69V70H12.0795V69H11.0795ZM3.64205 69V34.0909H1.64205V69H3.64205ZM2.64205 35.0909H17.0625V33.0909H2.64205V35.0909ZM17.0625 35.0909C19.5454 35.0909 21.6311 35.5762 23.3551 36.5053L24.304 34.7447C22.2325 33.6284 19.8069 33.0909 17.0625 33.0909V35.0909ZM23.3614 36.5087C25.1083 37.4341 26.4382 38.7164 27.3751 40.3637L29.1136 39.3749C27.9823 37.3859 26.3689 35.8386 24.2977 34.7413L23.3614 36.5087ZM27.3764 40.366C28.3115 42 28.7955 43.9259 28.7955 46.1761H30.7955C30.7955 43.6309 30.2453 41.3523 29.1122 39.3726L27.3764 40.366ZM28.7955 46.1761C28.7955 48.435 28.3015 50.3633 27.347 51.9951L29.0734 53.0049C30.2326 51.023 30.7955 48.7355 30.7955 46.1761H28.7955ZM27.3461 51.9968C26.4022 53.6177 25.0545 54.8789 23.2738 55.7849L24.1807 57.5674C26.2864 56.4961 27.9273 54.9732 29.0744 53.0032L27.3461 51.9968ZM23.2738 55.7849C21.4992 56.6877 19.3546 57.1591 16.8068 57.1591V59.1591C19.6 59.1591 22.069 58.6418 24.1807 57.5674L23.2738 55.7849ZM16.8068 57.1591H7.90909V59.1591H16.8068V57.1591ZM8.90909 58.1591V51.5114H6.90909V58.1591H8.90909ZM7.90909 52.5114H15.2386V50.5114H7.90909V52.5114ZM15.2386 52.5114C16.6218 52.5114 17.854 52.2712 18.8875 51.7338L17.9648 49.9594C17.2937 50.3083 16.4009 50.5114 15.2386 50.5114V52.5114ZM18.8827 51.7363C19.9099 51.2092 20.7141 50.455 21.2599 49.4753L19.5128 48.5019C19.1722 49.1132 18.6697 49.5976 17.9696 49.9569L18.8827 51.7363ZM21.2628 49.4701C21.7992 48.4936 22.0511 47.3854 22.0511 46.1761H20.0511C20.0511 47.1032 19.8599 47.87 19.5099 48.5072L21.2628 49.4701ZM22.0511 46.1761C22.0511 44.9584 21.8003 43.8501 21.2569 42.8886L19.5158 43.8727C19.8587 44.4795 20.0511 45.2348 20.0511 46.1761H22.0511ZM21.2599 42.894C20.7128 41.912 19.9054 41.1614 18.8733 40.6453L17.9789 42.4342C18.6741 42.7818 19.1736 43.2585 19.5128 43.8674L21.2599 42.894ZM18.8734 40.6453C17.835 40.1262 16.6095 39.892 15.2386 39.892V41.892C16.3905 41.892 17.29 42.0897 17.9789 42.4342L18.8734 40.6453ZM15.2386 39.892H11.0795V41.892H15.2386V39.892ZM10.0795 40.892V69H12.0795V40.892H10.0795ZM11.0795 68H2.64205V70H11.0795V68ZM33.9545 69H32.9545V70H33.9545V69ZM33.9545 42.8182V41.8182H32.9545V42.8182H33.9545ZM42.0511 42.8182H43.0511V41.8182H42.0511V42.8182ZM42.0511 47.5909H41.0511V48.5909H42.0511V47.5909ZM42.3239 47.5909V48.5909H43.085L43.2877 47.8572L42.3239 47.5909ZM44.6591 43.7386L45.2736 44.5276L45.2787 44.5235L44.6591 43.7386ZM49.6193 42.5455L49.4818 43.5359L49.4953 43.5378L49.5089 43.5393L49.6193 42.5455ZM50.7614 42.767H51.7614V42.0161L51.0402 41.8067L50.7614 42.767ZM50.7614 50.0114L50.437 50.9573L51.7614 51.4114V50.0114H50.7614ZM49.1932 49.6875L49.0691 50.6798L49.0713 50.68L49.1932 49.6875ZM44.8125 50.233L45.2949 51.1089L45.2992 51.1065L44.8125 50.233ZM42.9545 52.0568L42.0894 51.5553L42.0871 51.5593L42.9545 52.0568ZM42.2898 69V70H43.2898V69H42.2898ZM34.9545 69V42.8182H32.9545V69H34.9545ZM33.9545 43.8182H42.0511V41.8182H33.9545V43.8182ZM41.0511 42.8182V47.5909H43.0511V42.8182H41.0511ZM42.0511 48.5909H42.3239V46.5909H42.0511V48.5909ZM43.2877 47.8572C43.7255 46.2732 44.4095 45.2006 45.2736 44.5275L44.0446 42.9497C42.7496 43.9584 41.8768 45.4541 41.36 47.3246L43.2877 47.8572ZM45.2787 44.5235C46.1741 43.8166 47.2092 43.4602 48.4261 43.4602V41.4602C46.7794 41.4602 45.3031 41.9561 44.0394 42.9538L45.2787 44.5235ZM48.4261 43.4602C48.7635 43.4602 49.1151 43.485 49.4818 43.5359L49.7569 41.555C49.3053 41.4922 48.8615 41.4602 48.4261 41.4602V43.4602ZM49.5089 43.5393C49.8678 43.5792 50.1915 43.6429 50.4825 43.7274L51.0402 41.8067C50.6267 41.6866 50.189 41.6026 49.7297 41.5516L49.5089 43.5393ZM49.7614 42.767V50.0114H51.7614V42.767H49.7614ZM51.0857 49.0654C50.5967 48.8978 49.9984 48.7789 49.3151 48.695L49.0713 50.68C49.6834 50.7552 50.1305 50.8522 50.437 50.9573L51.0857 49.0654ZM49.3172 48.6952C48.6506 48.6119 48.0398 48.5682 47.4886 48.5682V50.5682C47.9375 50.5682 48.4631 50.604 49.0691 50.6798L49.3172 48.6952ZM47.4886 48.5682C46.3447 48.5682 45.2827 48.8263 44.3258 49.3594L45.2992 51.1065C45.9333 50.7533 46.6553 50.5682 47.4886 50.5682V48.5682ZM44.3301 49.357C43.3847 49.8777 42.6339 50.616 42.0894 51.5553L43.8197 52.5583C44.1843 51.9295 44.6721 51.4519 45.2949 51.1089L44.3301 49.357ZM42.0871 51.5593C41.543 52.5079 41.2898 53.5946 41.2898 54.7841H43.2898C43.2898 53.8827 43.4797 53.1512 43.822 52.5543L42.0871 51.5593ZM41.2898 54.7841V69H43.2898V54.7841H41.2898ZM42.2898 68H33.9545V70H42.2898V68ZM57.946 67.875L57.4629 68.7506L57.4689 68.7539L57.946 67.875ZM53.3778 63.2216L52.4915 63.6847L52.4947 63.6906L53.3778 63.2216ZM53.3949 48.9205L54.2792 49.3874L54.2802 49.3854L53.3949 48.9205ZM57.9119 44.1818L58.413 45.0473L58.4167 45.045L57.9119 44.1818ZM69.8949 43.3466L70.246 42.4103L70.246 42.4103L69.8949 43.3466ZM76.5256 50.1307L75.589 50.4811L75.5898 50.4832L76.5256 50.1307ZM77.4631 57.9205V58.9205H78.4631V57.9205H77.4631ZM54.7074 57.9205H53.7074V58.9205H54.7074V57.9205ZM54.7074 53.0795V52.0795H53.7074V53.0795H54.7074ZM69.7074 53.0795V54.0795H70.7203L70.7073 53.0667L69.7074 53.0795ZM67.3892 49.0909L66.8976 49.9617L66.9059 49.9664L66.9143 49.9709L67.3892 49.0909ZM62.446 49.125L62.9306 49.9999L62.9407 49.9941L62.446 49.125ZM60.6903 50.8125L61.543 51.3351L61.5466 51.329L60.6903 50.8125ZM60.0085 53.2159L59.0088 53.1906L59.0085 53.2033V53.2159H60.0085ZM60.6392 60.9545L59.7524 61.4167L59.7551 61.4219L60.6392 60.9545ZM62.429 62.8125L61.9315 63.68L61.9315 63.68L62.429 62.8125ZM67.2017 63.1705L67.5233 64.1173L67.5233 64.1173L67.2017 63.1705ZM68.7528 62.267L69.4303 63.0026L69.4303 63.0026L68.7528 62.267ZM69.7244 60.8011L69.7534 59.8016L69.0374 59.7808L68.7874 60.452L69.7244 60.8011ZM77.3778 61.0227L78.3611 61.205L78.574 60.0569L77.4068 60.0231L77.3778 61.0227ZM75.2812 65.5057L74.5186 64.8588L74.5181 64.8594L75.2812 65.5057ZM71.071 68.4545L71.4414 69.3835L71.4466 69.3813L71.071 68.4545ZM65.0369 68.4943C62.4301 68.4943 60.2375 67.9811 58.4231 66.9961L57.4689 68.7539C59.6318 69.928 62.1665 70.4943 65.0369 70.4943V68.4943ZM58.4291 66.9994C56.6234 66.0032 55.239 64.594 54.261 62.7526L52.4947 63.6906C53.6531 65.8719 55.3141 67.565 57.4629 68.7506L58.4291 66.9994ZM54.2642 62.7585C53.2967 60.9068 52.7926 58.6692 52.7926 56.0114H50.7926C50.7926 58.9217 51.3453 61.4909 52.4915 63.6847L54.2642 62.7585ZM52.7926 56.0114C52.7926 53.4399 53.2997 51.2421 54.2792 49.3874L52.5106 48.4535C51.3537 50.6442 50.7926 53.1737 50.7926 56.0114H52.7926ZM54.2802 49.3854C55.2628 47.5143 56.6371 46.0754 58.413 45.0472L57.4109 43.3164C55.3004 44.5382 53.6633 46.2584 52.5095 48.4555L54.2802 49.3854ZM58.4167 45.045C60.1823 44.0126 62.2916 43.4773 64.7812 43.4773V41.4773C61.9981 41.4773 59.5279 42.0784 57.4071 43.3186L58.4167 45.045ZM64.7812 43.4773C66.5403 43.4773 68.1241 43.7506 69.5438 44.2829L70.246 42.4103C68.5748 41.7835 66.7494 41.4773 64.7812 41.4773V43.4773ZM69.5438 44.2829C70.9584 44.8134 72.1699 45.5936 73.1899 46.624L74.6112 45.2169C73.3813 43.9746 71.9222 43.0388 70.246 42.4103L69.5438 44.2829ZM73.1899 46.624C74.2046 47.6489 75.0078 48.9277 75.589 50.4811L77.4622 49.7803C76.7934 47.9928 75.8465 46.4647 74.6112 45.2169L73.1899 46.624ZM75.5898 50.4832C76.1644 52.0086 76.4631 53.7889 76.4631 55.8409H78.4631C78.4631 53.5975 78.1367 51.571 77.4614 49.7782L75.5898 50.4832ZM76.4631 55.8409V57.9205H78.4631V55.8409H76.4631ZM77.4631 56.9205H54.7074V58.9205H77.4631V56.9205ZM55.7074 57.9205V53.0795H53.7074V57.9205H55.7074ZM54.7074 54.0795H69.7074V52.0795H54.7074V54.0795ZM70.7073 53.0667C70.6939 52.0241 70.4444 51.0603 69.9379 50.202L68.2155 51.2185C68.5272 51.7466 68.6981 52.3623 68.7075 53.0924L70.7073 53.0667ZM69.9379 50.202C69.4353 49.3503 68.7384 48.6827 67.8641 48.2109L66.9143 49.9709C67.4718 50.2718 67.9 50.6838 68.2155 51.2185L69.9379 50.202ZM67.8808 48.2201C67.0066 47.7266 66.0203 47.4943 64.9517 47.4943V49.4943C65.724 49.4943 66.3627 49.6598 66.8976 49.9617L67.8808 48.2201ZM64.9517 47.4943C63.8636 47.4943 62.855 47.7416 61.9513 48.2559L62.9407 49.9941C63.5144 49.6675 64.1762 49.4943 64.9517 49.4943V47.4943ZM61.9615 48.2502C61.0713 48.7432 60.3572 49.4286 59.834 50.296L61.5466 51.329C61.8871 50.7646 62.3434 50.3249 62.9305 49.9998L61.9615 48.2502ZM59.8377 50.2899C59.3061 51.1573 59.0356 52.1328 59.0088 53.1906L61.0082 53.2412C61.0269 52.5036 61.2109 51.8768 61.5429 51.3351L59.8377 50.2899ZM59.0085 53.2159V58.142H61.0085V53.2159H59.0085ZM59.0085 58.142C59.0085 59.3431 59.2456 60.4443 59.7524 61.4167L61.526 60.4924C61.1919 59.8512 61.0085 59.0773 61.0085 58.142H59.0085ZM59.7551 61.4219C60.263 62.3828 60.9929 63.1417 61.9315 63.68L62.9265 61.945C62.3196 61.597 61.8563 61.1172 61.5233 60.4872L59.7551 61.4219ZM61.9315 63.68C62.8832 64.2258 63.9824 64.4773 65.1903 64.4773V62.4773C64.2619 62.4773 63.5202 62.2856 62.9265 61.945L61.9315 63.68ZM65.1903 64.4773C66.0211 64.4773 66.8023 64.3622 67.5233 64.1173L66.8801 62.2236C66.3966 62.3878 65.8369 62.4773 65.1903 62.4773V64.4773ZM67.5233 64.1173C68.2465 63.8717 68.8876 63.5025 69.4303 63.0026L68.0754 61.5315C67.7545 61.8271 67.3615 62.0601 66.8801 62.2236L67.5233 64.1173ZM69.4303 63.0026C69.9841 62.4926 70.3937 61.8691 70.6615 61.1502L68.7874 60.452C68.6233 60.8922 68.3853 61.2461 68.0754 61.5315L69.4303 63.0026ZM69.6955 61.8007L77.3489 62.0223L77.4068 60.0231L69.7534 59.8016L69.6955 61.8007ZM76.3946 60.8404C76.1067 62.393 75.4802 63.7252 74.5186 64.8588L76.0439 66.1525C77.2414 64.7407 78.0126 63.0842 78.3611 61.205L76.3946 60.8404ZM74.5181 64.8594C73.5679 65.9815 72.3046 66.8757 70.6955 67.5277L71.4466 69.3813C73.3148 68.6243 74.8582 67.5526 76.0444 66.1519L74.5181 64.8594ZM70.7007 67.5257C69.1027 68.1628 67.2213 68.4943 65.0369 68.4943V70.4943C67.4207 70.4943 69.5621 70.1327 71.4414 69.3834L70.7007 67.5257ZM98.4759 51.6648H99.4759V50.6648H98.4759V51.6648ZM98.4759 58.0909V59.0909H99.4759V58.0909H98.4759ZM82.3168 58.0909H81.3168V59.0909H82.3168V58.0909ZM82.3168 51.6648V50.6648H81.3168V51.6648H82.3168ZM97.4759 51.6648V58.0909H99.4759V51.6648H97.4759ZM98.4759 57.0909H82.3168V59.0909H98.4759V57.0909ZM83.3168 58.0909V51.6648H81.3168V58.0909H83.3168ZM82.3168 52.6648H98.4759V50.6648H82.3168V52.6648ZM127.27 45.4943L126.304 45.7548L126.504 46.4943H127.27V45.4943ZM126.418 43.6023L125.588 44.1609L125.594 44.1688L126.418 43.6023ZM123.162 41.3182L122.883 42.2785L122.89 42.2806L122.897 42.2826L123.162 41.3182ZM116.446 42.2386L115.895 41.4042L115.891 41.4066L116.446 42.2386ZM113.599 45.8182L114.518 46.2137L114.519 46.2113L113.599 45.8182ZM113.565 57.2216L114.491 56.8422L114.491 56.8422L113.565 57.2216ZM116.378 60.8352L116.938 60.0067L116.938 60.0067L116.378 60.8352ZM124.764 61.3295L125.188 62.2352L125.192 62.2333L124.764 61.3295ZM127.219 59.1648L126.36 58.6518L126.36 58.6518L127.219 59.1648ZM128.054 55.875L128.173 54.8821L127.054 54.7483V55.875H128.054ZM129.622 56.0625V57.0625L129.741 55.0696L129.622 56.0625ZM121.134 56.0625H120.134V57.0625H121.134V56.0625ZM121.134 49.9091V48.9091H120.134V49.9091H121.134ZM136.185 49.9091H137.185V48.9091H136.185V49.9091ZM134.19 62.5568L133.332 62.0443L133.33 62.0475L134.19 62.5568ZM128.736 67.6875L128.278 66.7984L128.276 66.7993L128.736 67.6875ZM111.997 67.3125L112.494 66.4445L112.494 66.4445L111.997 67.3125ZM106.099 61.142L105.214 61.6072L105.215 61.6087L106.099 61.142ZM105.264 43.9773L106.198 44.3363L106.198 44.3347L105.264 43.9773ZM108.827 38.3182L108.117 37.6137L108.114 37.6163L108.827 38.3182ZM114.145 34.8068L113.779 33.8762L113.777 33.8769L114.145 34.8068ZM126.315 34.483L125.999 35.4316L126.001 35.4323L126.315 34.483ZM130.952 36.9375L130.333 37.7229L130.336 37.7254L130.952 36.9375ZM134.241 40.7045L133.376 41.205L133.376 41.205L134.241 40.7045ZM135.81 45.4943V46.4943H136.934L136.803 45.3775L135.81 45.4943ZM128.235 45.2338C128.016 44.4216 127.688 43.685 127.242 43.0357L125.594 44.1688C125.897 44.6105 126.137 45.1352 126.304 45.7548L128.235 45.2338ZM127.247 43.0437C126.805 42.387 126.26 41.828 125.615 41.3715L124.459 43.0035C124.905 43.3197 125.28 43.7039 125.588 44.1609L127.247 43.0437ZM125.615 41.3715C124.966 40.9118 124.233 40.5749 123.426 40.3538L122.897 42.2826C123.5 42.4478 124.017 42.6905 124.459 43.0035L125.615 41.3715ZM123.441 40.3578C122.633 40.1235 121.766 40.0114 120.844 40.0114V42.0114C121.604 42.0114 122.281 42.1038 122.883 42.2785L123.441 40.3578ZM120.844 40.0114C118.983 40.0114 117.319 40.4634 115.895 41.4042L116.997 43.073C118.05 42.3775 119.318 42.0114 120.844 42.0114V40.0114ZM115.891 41.4066C114.478 42.3486 113.415 43.7068 112.68 45.4251L114.519 46.2113C115.125 44.7932 115.959 43.7651 117.001 43.0707L115.891 41.4066ZM112.681 45.4226C111.943 47.137 111.594 49.1717 111.594 51.4943H113.594C113.594 49.3624 113.915 47.613 114.518 46.2137L112.681 45.4226ZM111.594 51.4943C111.594 53.8246 111.93 55.8699 112.64 57.601L114.491 56.8422C113.905 55.4142 113.594 53.6413 113.594 51.4943H111.594ZM112.64 57.601C113.351 59.3344 114.403 60.7076 115.818 61.6637L116.938 60.0067C115.898 59.3037 115.075 58.2679 114.491 56.8422L112.64 57.601ZM115.818 61.6637C117.239 62.6241 118.931 63.0795 120.844 63.0795V61.0795C119.256 61.0795 117.972 60.7055 116.938 60.0067L115.818 61.6637ZM120.844 63.0795C122.492 63.0795 123.953 62.8135 125.188 62.2352L124.34 60.4239C123.439 60.8456 122.286 61.0795 120.844 61.0795V63.0795ZM125.192 62.2333C126.432 61.646 127.409 60.7965 128.077 59.6777L126.36 58.6518C125.915 59.3967 125.255 59.9904 124.336 60.4258L125.192 62.2333ZM128.077 59.6777C128.741 58.5672 129.054 57.2873 129.054 55.875H127.054C127.054 56.9854 126.81 57.8987 126.36 58.6518L128.077 59.6777ZM127.935 56.8679L129.503 57.0554L129.741 55.0696L128.173 54.8821L127.935 56.8679ZM129.622 55.0625H121.134V57.0625H129.622V55.0625ZM122.134 56.0625V49.9091H120.134V56.0625H122.134ZM121.134 50.9091H136.185V48.9091H121.134V50.9091ZM135.185 49.9091V54.5284H137.185V49.9091H135.185ZM135.185 54.5284C135.185 57.51 134.551 60.0009 133.332 62.0443L135.049 63.0694C136.488 60.6581 137.185 57.7968 137.185 54.5284H135.185ZM133.33 62.0475C132.108 64.1115 130.43 65.6907 128.278 66.7984L129.193 68.5766C131.678 67.298 133.636 65.4567 135.051 63.0661L133.33 62.0475ZM128.276 66.7993C126.132 67.9084 123.641 68.4773 120.776 68.4773V70.4773C123.911 70.4773 126.726 69.853 129.195 68.5757L128.276 66.7993ZM120.776 68.4773C117.594 68.4773 114.844 67.7892 112.494 66.4445L111.501 68.1805C114.195 69.7221 117.298 70.4773 120.776 70.4773V68.4773ZM112.494 66.4445C110.142 65.0994 108.308 63.1848 106.984 60.6754L105.215 61.6087C106.709 64.4402 108.806 66.6393 111.501 68.1805L112.494 66.4445ZM106.985 60.6769C105.666 58.1663 104.986 55.1509 104.986 51.5966H102.986C102.986 55.4059 103.715 58.7542 105.214 61.6072L106.985 60.6769ZM104.986 51.5966C104.986 48.8311 105.397 46.4167 106.198 44.3363L104.331 43.6183C103.426 45.9697 102.986 48.6348 102.986 51.5966H104.986ZM106.198 44.3347C107.006 42.2234 108.122 40.4578 109.539 39.02L108.114 37.6163C106.486 39.2695 105.227 41.2766 104.33 43.6199L106.198 44.3347ZM109.536 39.0227C110.974 37.5745 112.63 36.4811 114.513 35.7367L113.777 33.8769C111.637 34.7235 109.748 35.971 108.117 37.6137L109.536 39.0227ZM114.511 35.7374C116.409 34.991 118.46 34.6136 120.673 34.6136V32.6136C118.228 32.6136 115.926 33.0317 113.779 33.8762L114.511 35.7374ZM120.673 34.6136C122.6 34.6136 124.372 34.8894 125.999 35.4316L126.632 33.5343C124.781 32.9174 122.792 32.6136 120.673 32.6136V34.6136ZM126.001 35.4323C127.649 35.9782 129.09 36.7435 130.333 37.7229L131.571 36.1521C130.132 35.0178 128.481 34.1468 126.63 33.5337L126.001 35.4323ZM130.336 37.7254C131.589 38.7051 132.6 39.8639 133.376 41.205L135.107 40.204C134.201 38.6361 133.018 37.2836 131.567 36.1496L130.336 37.7254ZM133.376 41.205C134.146 42.5368 134.627 44.002 134.817 45.6112L136.803 45.3775C136.583 43.5094 136.019 41.7814 135.107 40.204L133.376 41.205ZM135.81 44.4943H127.27V46.4943H135.81V44.4943ZM149.493 34.0909H150.493V33.0909H149.493V34.0909ZM149.493 69V70H150.493V69H149.493ZM141.158 69H140.158V70H141.158V69ZM141.158 34.0909V33.0909H140.158V34.0909H141.158ZM148.493 34.0909V69H150.493V34.0909H148.493ZM149.493 68H141.158V70H149.493V68ZM142.158 69V34.0909H140.158V69H142.158ZM141.158 35.0909H149.493V33.0909H141.158V35.0909ZM171.69 42.8182V41.8182H170.69V42.8182H171.69ZM180.009 42.8182H181.009V41.8182H180.009V42.8182ZM180.009 69V70H181.009V69H180.009ZM172.065 69H171.065V70H172.065V69ZM172.065 64.125H173.065V63.125H172.065V64.125ZM171.793 64.125V63.125H171.091L170.852 63.7849L171.793 64.125ZM168.827 67.9432L169.385 68.7731L169.386 68.7721L168.827 67.9432ZM159.094 68.1136L158.576 68.9692L158.576 68.9692L159.094 68.1136ZM155.94 64.6875L155.049 65.1402L155.05 65.143L155.94 64.6875ZM154.798 59.5057L153.798 59.5057L153.798 59.5114L154.798 59.5057ZM154.798 42.8182V41.8182H153.798V42.8182H154.798ZM163.134 42.8182H164.134V41.8182H163.134V42.8182ZM163.134 57.8693L162.133 57.8693L162.134 57.8773L163.134 57.8693ZM164.259 61.2273L165.001 60.5572L165.001 60.5572L164.259 61.2273ZM169.509 61.9091L169.992 62.7847L169.997 62.7818L169.509 61.9091ZM171.094 60.2898L170.22 59.8041L170.217 59.8089L171.094 60.2898ZM172.69 57.6989V42.8182H170.69V57.6989H172.69ZM171.69 43.8182H180.009V41.8182H171.69V43.8182ZM179.009 42.8182V69H181.009V42.8182H179.009ZM180.009 68H172.065V70H180.009V68ZM173.065 69V64.125H171.065V69H173.065ZM172.065 63.125H171.793V65.125H172.065V63.125ZM170.852 63.7849C170.344 65.1902 169.488 66.2909 168.267 67.1143L169.386 68.7721C170.961 67.7091 172.082 66.2643 172.733 64.4651L170.852 63.7849ZM168.269 67.1132C167.075 67.9157 165.601 68.3409 163.798 68.3409V70.3409C165.927 70.3409 167.806 69.8343 169.385 68.7731L168.269 67.1132ZM163.798 68.3409C162.173 68.3409 160.788 67.97 159.611 67.2581L158.576 68.9692C160.104 69.8936 161.856 70.3409 163.798 70.3409V68.3409ZM159.611 67.2581C158.425 66.5402 157.5 65.5398 156.831 64.232L155.05 65.143C155.881 66.767 157.058 68.0507 158.576 68.9692L159.611 67.2581ZM156.832 64.2348C156.165 62.9204 155.809 61.3516 155.798 59.4999L153.798 59.5114C153.81 61.6143 154.216 63.5 155.049 65.1402L156.832 64.2348ZM155.798 59.5057V42.8182H153.798V59.5057H155.798ZM154.798 43.8182H163.134V41.8182H154.798V43.8182ZM162.134 42.8182V57.8693H164.134V42.8182H162.134ZM162.134 57.8773C162.146 59.47 162.571 60.85 163.516 61.8974L165.001 60.5572C164.469 59.9682 164.143 59.1096 164.133 57.8613L162.134 57.8773ZM163.516 61.8974C164.475 62.9589 165.768 63.4545 167.276 63.4545V61.4545C166.238 61.4545 165.52 61.132 165.001 60.5572L163.516 61.8974ZM167.276 63.4545C168.256 63.4545 169.17 63.238 169.992 62.7847L169.025 61.0335C168.529 61.3074 167.954 61.4545 167.276 61.4545V63.4545ZM169.997 62.7818C170.839 62.3109 171.498 61.6317 171.971 60.7706L170.217 59.8089C169.916 60.3569 169.519 60.7572 169.02 61.0363L169.997 62.7818ZM171.968 60.7754C172.465 59.8799 172.69 58.8407 172.69 57.6989H170.69C170.69 58.5798 170.518 59.2678 170.22 59.8041L171.968 60.7754ZM190.462 67.875L189.979 68.7506L189.985 68.7539L190.462 67.875ZM185.893 63.2216L185.007 63.6847L185.01 63.6906L185.893 63.2216ZM185.911 48.9205L186.795 49.3874L186.796 49.3854L185.911 48.9205ZM190.428 44.1818L190.929 45.0473L190.932 45.045L190.428 44.1818ZM202.411 43.3466L202.762 42.4103L202.762 42.4103L202.411 43.3466ZM209.041 50.1307L208.105 50.4811L208.105 50.4832L209.041 50.1307ZM209.979 57.9205V58.9205H210.979V57.9205H209.979ZM187.223 57.9205H186.223V58.9205H187.223V57.9205ZM187.223 53.0795V52.0795H186.223V53.0795H187.223ZM202.223 53.0795V54.0795H203.236L203.223 53.0667L202.223 53.0795ZM199.905 49.0909L199.413 49.9617L199.422 49.9664L199.43 49.9709L199.905 49.0909ZM194.962 49.125L195.446 49.9999L195.456 49.9941L194.962 49.125ZM193.206 50.8125L194.059 51.3351L194.062 51.329L193.206 50.8125ZM192.524 53.2159L191.524 53.1906L191.524 53.2033V53.2159H192.524ZM193.155 60.9545L192.268 61.4167L192.271 61.4219L193.155 60.9545ZM194.945 62.8125L194.447 63.68L194.447 63.68L194.945 62.8125ZM199.717 63.1705L200.039 64.1173L200.039 64.1173L199.717 63.1705ZM201.268 62.267L201.946 63.0026L201.946 63.0026L201.268 62.267ZM202.24 60.8011L202.269 59.8016L201.553 59.7808L201.303 60.452L202.24 60.8011ZM209.893 61.0227L210.877 61.205L211.09 60.0569L209.922 60.0231L209.893 61.0227ZM207.797 65.5057L207.034 64.8588L207.034 64.8594L207.797 65.5057ZM203.587 68.4545L203.957 69.3835L203.962 69.3813L203.587 68.4545ZM197.553 68.4943C194.946 68.4943 192.753 67.9811 190.939 66.9961L189.985 68.7539C192.147 69.928 194.682 70.4943 197.553 70.4943V68.4943ZM190.945 66.9994C189.139 66.0032 187.755 64.594 186.777 62.7526L185.01 63.6906C186.169 65.8719 187.83 67.565 189.979 68.7506L190.945 66.9994ZM186.78 62.7585C185.812 60.9068 185.308 58.6692 185.308 56.0114H183.308C183.308 58.9217 183.861 61.4909 185.007 63.6847L186.78 62.7585ZM185.308 56.0114C185.308 53.4399 185.815 51.2421 186.795 49.3874L185.026 48.4535C183.869 50.6442 183.308 53.1737 183.308 56.0114H185.308ZM186.796 49.3854C187.778 47.5143 189.153 46.0754 190.929 45.0472L189.927 43.3164C187.816 44.5382 186.179 46.2584 185.025 48.4555L186.796 49.3854ZM190.932 45.045C192.698 44.0126 194.807 43.4773 197.297 43.4773V41.4773C194.514 41.4773 192.044 42.0784 189.923 43.3186L190.932 45.045ZM197.297 43.4773C199.056 43.4773 200.64 43.7506 202.059 44.2829L202.762 42.4103C201.09 41.7835 199.265 41.4773 197.297 41.4773V43.4773ZM202.059 44.2829C203.474 44.8134 204.685 45.5936 205.706 46.624L207.127 45.2169C205.897 43.9746 204.438 43.0388 202.762 42.4103L202.059 44.2829ZM205.706 46.624C206.72 47.6489 207.523 48.9277 208.105 50.4811L209.978 49.7803C209.309 47.9928 208.362 46.4647 207.127 45.2169L205.706 46.624ZM208.105 50.4832C208.68 52.0086 208.979 53.7889 208.979 55.8409H210.979C210.979 53.5975 210.652 51.571 209.977 49.7782L208.105 50.4832ZM208.979 55.8409V57.9205H210.979V55.8409H208.979ZM209.979 56.9205H187.223V58.9205H209.979V56.9205ZM188.223 57.9205V53.0795H186.223V57.9205H188.223ZM187.223 54.0795H202.223V52.0795H187.223V54.0795ZM203.223 53.0667C203.21 52.0241 202.96 51.0603 202.454 50.202L200.731 51.2185C201.043 51.7466 201.214 52.3623 201.223 53.0924L203.223 53.0667ZM202.454 50.202C201.951 49.3503 201.254 48.6827 200.38 48.2109L199.43 49.9709C199.987 50.2718 200.416 50.6838 200.731 51.2185L202.454 50.202ZM200.396 48.2201C199.522 47.7266 198.536 47.4943 197.467 47.4943V49.4943C198.24 49.4943 198.878 49.6598 199.413 49.9617L200.396 48.2201ZM197.467 47.4943C196.379 47.4943 195.371 47.7416 194.467 48.2559L195.456 49.9941C196.03 49.6675 196.692 49.4943 197.467 49.4943V47.4943ZM194.477 48.2502C193.587 48.7432 192.873 49.4286 192.35 50.296L194.062 51.329C194.403 50.7646 194.859 50.3249 195.446 49.9998L194.477 48.2502ZM192.353 50.2899C191.822 51.1573 191.551 52.1328 191.524 53.1906L193.524 53.2412C193.543 52.5036 193.727 51.8768 194.059 51.3351L192.353 50.2899ZM191.524 53.2159V58.142H193.524V53.2159H191.524ZM191.524 58.142C191.524 59.3431 191.761 60.4443 192.268 61.4167L194.042 60.4924C193.707 59.8512 193.524 59.0773 193.524 58.142H191.524ZM192.271 61.4219C192.779 62.3828 193.509 63.1417 194.447 63.68L195.442 61.945C194.835 61.597 194.372 61.1172 194.039 60.4872L192.271 61.4219ZM194.447 63.68C195.399 64.2258 196.498 64.4773 197.706 64.4773V62.4773C196.778 62.4773 196.036 62.2856 195.442 61.945L194.447 63.68ZM197.706 64.4773C198.537 64.4773 199.318 64.3622 200.039 64.1173L199.396 62.2236C198.912 62.3878 198.353 62.4773 197.706 62.4773V64.4773ZM200.039 64.1173C200.762 63.8717 201.403 63.5025 201.946 63.0026L200.591 61.5315C200.27 61.8271 199.877 62.0601 199.396 62.2236L200.039 64.1173ZM201.946 63.0026C202.5 62.4926 202.909 61.8691 203.177 61.1502L201.303 60.452C201.139 60.8922 200.901 61.2461 200.591 61.5315L201.946 63.0026ZM202.211 61.8007L209.865 62.0223L209.922 60.0231L202.269 59.8016L202.211 61.8007ZM208.91 60.8404C208.622 62.393 207.996 63.7252 207.034 64.8588L208.559 66.1525C209.757 64.7407 210.528 63.0842 210.877 61.205L208.91 60.8404ZM207.034 64.8594C206.084 65.9815 204.82 66.8757 203.211 67.5277L203.962 69.3813C205.83 68.6243 207.374 67.5526 208.56 66.1519L207.034 64.8594ZM203.216 67.5257C201.618 68.1628 199.737 68.4943 197.553 68.4943V70.4943C199.936 70.4943 202.078 70.1327 203.957 69.3834L203.216 67.5257ZM218.531 67.875L217.996 68.7199L217.996 68.7199L218.531 67.875ZM214.747 63.375L213.843 63.8015L213.843 63.8015L214.747 63.375ZM214.798 48.3239L215.696 48.7649L215.696 48.7649L214.798 48.3239ZM218.634 43.9091L218.119 43.0516L218.116 43.0532L218.634 43.9091ZM227.293 43.1932L226.854 44.0918L226.862 44.0958L227.293 43.1932ZM229.713 45L230.471 44.3473L230.471 44.3473L229.713 45ZM231.162 47.3011L230.238 47.6839L230.494 48.3011H231.162V47.3011ZM231.332 47.3011V48.3011H232.332V47.3011H231.332ZM231.332 34.0909V33.0909H230.332V34.0909H231.332ZM239.668 34.0909H240.668V33.0909H239.668V34.0909ZM239.668 69V70H240.668V69H239.668ZM231.418 69H230.418V70H231.418V69ZM231.418 64.7557H232.418V63.7557H231.418V64.7557ZM231.162 64.7557V63.7557H230.507L230.245 64.3555L231.162 64.7557ZM229.662 67.0227L228.926 66.3459L228.926 66.3459L229.662 67.0227ZM227.224 68.7273L226.82 67.8126L226.816 67.8143L227.224 68.7273ZM229.287 62.0284L229.909 62.8117L229.916 62.8057L229.287 62.0284ZM230.94 59.5909L231.878 59.9376L231.878 59.9376L230.94 59.5909ZM230.94 52.2102L230 52.5512L230.004 52.5602L230.94 52.2102ZM229.287 49.8239L228.673 50.6132L228.679 50.6179L229.287 49.8239ZM222.435 52.2443L221.495 51.9034L221.491 51.9126L222.435 52.2443ZM224.071 62.0284L223.436 62.8007L223.443 62.8063L223.449 62.8117L224.071 62.0284ZM223.798 68.375C222.049 68.375 220.48 67.9253 219.066 67.0301L217.996 68.7199C219.741 69.8247 221.684 70.375 223.798 70.375V68.375ZM219.066 67.0301C217.674 66.149 216.529 64.8086 215.652 62.9485L213.843 63.8015C214.852 65.9414 216.229 67.601 217.996 68.7199L219.066 67.0301ZM215.652 62.9485C214.789 61.1192 214.332 58.7924 214.332 55.9261H212.332C212.332 58.9917 212.819 61.6308 213.843 63.8015L215.652 62.9485ZM214.332 55.9261C214.332 52.9434 214.807 50.5736 215.696 48.7649L213.901 47.8828C212.835 50.0514 212.332 52.7498 212.332 55.9261H214.332ZM215.696 48.7649C216.606 46.9133 217.765 45.6021 219.151 44.7649L218.116 43.0532C216.343 44.1251 214.945 45.7572 213.901 47.8828L215.696 48.7649ZM219.148 44.7666C220.586 43.9039 222.119 43.4773 223.764 43.4773V41.4773C221.751 41.4773 219.863 42.0052 218.119 43.0516L219.148 44.7666ZM223.764 43.4773C225.026 43.4773 226.044 43.6965 226.854 44.0917L227.731 42.2946C226.586 41.7353 225.252 41.4773 223.764 41.4773V43.4773ZM226.862 44.0958C227.728 44.5087 228.419 45.0303 228.955 45.6527L230.471 44.3473C229.734 43.4925 228.812 42.8095 227.723 42.2905L226.862 44.0958ZM228.955 45.6527C229.531 46.3213 229.954 46.9987 230.238 47.6839L232.086 46.9184C231.711 46.0126 231.167 45.156 230.471 44.3473L228.955 45.6527ZM231.162 48.3011H231.332V46.3011H231.162V48.3011ZM232.332 47.3011V34.0909H230.332V47.3011H232.332ZM231.332 35.0909H239.668V33.0909H231.332V35.0909ZM238.668 34.0909V69H240.668V34.0909H238.668ZM239.668 68H231.418V70H239.668V68ZM232.418 69V64.7557H230.418V69H232.418ZM231.418 63.7557H231.162V65.7557H231.418V63.7557ZM230.245 64.3555C229.941 65.0523 229.505 65.7159 228.926 66.3459L230.398 67.6995C231.114 66.9205 231.678 66.0727 232.078 65.1558L230.245 64.3555ZM228.926 66.3459C228.381 66.938 227.686 67.4299 226.82 67.8126L227.629 69.642C228.717 69.161 229.647 68.5165 230.398 67.6995L228.926 66.3459ZM226.816 67.8143C226.006 68.1765 225.009 68.375 223.798 68.375V70.375C225.224 70.375 226.511 70.1417 227.633 69.6402L226.816 67.8143ZM226.696 63.8807C227.908 63.8807 228.997 63.5353 229.909 62.8117L228.665 61.2451C228.145 61.6579 227.507 61.8807 226.696 61.8807V63.8807ZM229.916 62.8057C230.799 62.0913 231.443 61.1162 231.878 59.9376L230.002 59.2443C229.665 60.1565 229.207 60.8064 228.658 61.2512L229.916 62.8057ZM231.878 59.9376C232.315 58.7562 232.52 57.4066 232.52 55.9091H230.52C230.52 57.2298 230.338 58.3347 230.002 59.2443L231.878 59.9376ZM232.52 55.9091C232.52 54.3915 232.316 53.034 231.877 51.8602L230.004 52.5602C230.338 53.4546 230.52 54.5631 230.52 55.9091H232.52ZM231.88 51.8693C231.454 50.692 230.802 49.7244 229.895 49.0299L228.679 50.6179C229.226 51.037 229.677 51.6602 230 52.5511L231.88 51.8693ZM229.901 49.0345C228.989 48.3254 227.903 47.9886 226.696 47.9886V49.9886C227.512 49.9886 228.153 50.2086 228.673 50.6132L229.901 49.0345ZM226.696 47.9886C225.467 47.9886 224.365 48.3308 223.449 49.0576L224.693 50.6242C225.209 50.2146 225.856 49.9886 226.696 49.9886V47.9886ZM223.449 49.0576C222.561 49.7624 221.92 50.7309 221.495 51.9034L223.375 52.5852C223.7 51.6896 224.149 51.0558 224.693 50.6242L223.449 49.0576ZM221.491 51.9126C221.081 53.0788 220.889 54.4177 220.889 55.9091H222.889C222.889 54.5823 223.061 53.4781 223.378 52.5761L221.491 51.9126ZM220.889 55.9091C220.889 57.4037 221.088 58.7501 221.51 59.9285L223.393 59.2533C223.066 58.3408 222.889 57.2326 222.889 55.9091H220.889ZM221.51 59.9285C221.933 61.1069 222.564 62.0839 223.436 62.8007L224.706 61.2561C224.169 60.8138 223.72 60.1658 223.393 59.2533L221.51 59.9285ZM223.449 62.8117C224.365 63.5385 225.467 63.8807 226.696 63.8807V61.8807C225.856 61.8807 225.209 61.6547 224.693 61.2451L223.449 62.8117Z" fill="black" mask="url(#path-1-outside-1_138_502)"/>
<path d="M2.64205 69H1.64205V70H2.64205V69ZM2.64205 34.0909V33.0909H1.64205V34.0909H2.64205ZM23.8295 35.625L23.3551 36.5053L23.3614 36.5087L23.8295 35.625ZM28.2443 39.8693L27.3751 40.3637L27.3764 40.366L28.2443 39.8693ZM28.2102 52.5L27.347 51.9951L27.3461 51.9968L28.2102 52.5ZM23.7273 56.6761L24.1807 57.5674L24.1807 57.5674L23.7273 56.6761ZM7.90909 58.1591H6.90909V59.1591H7.90909V58.1591ZM7.90909 51.5114V50.5114H6.90909V51.5114H7.90909ZM18.4261 50.8466L17.9696 49.9569L17.9648 49.9594L18.4261 50.8466ZM20.3864 48.9886L21.2599 49.4753L21.2628 49.4701L20.3864 48.9886ZM20.3864 43.3807L19.5128 43.8674L19.5158 43.8727L20.3864 43.3807ZM18.4261 41.5398L17.9789 42.4342L17.9789 42.4342L18.4261 41.5398ZM11.0795 40.892V39.892H10.0795V40.892H11.0795ZM11.0795 69V70H12.0795V69H11.0795ZM3.64205 69V34.0909H1.64205V69H3.64205ZM2.64205 35.0909H17.0625V33.0909H2.64205V35.0909ZM17.0625 35.0909C19.5454 35.0909 21.6311 35.5762 23.3551 36.5053L24.304 34.7447C22.2325 33.6284 19.8069 33.0909 17.0625 33.0909V35.0909ZM23.3614 36.5087C25.1083 37.4341 26.4382 38.7164 27.3751 40.3637L29.1136 39.3749C27.9823 37.3859 26.3689 35.8386 24.2977 34.7413L23.3614 36.5087ZM27.3764 40.366C28.3115 42 28.7955 43.9259 28.7955 46.1761H30.7955C30.7955 43.6309 30.2453 41.3523 29.1122 39.3726L27.3764 40.366ZM28.7955 46.1761C28.7955 48.435 28.3015 50.3633 27.347 51.9951L29.0734 53.0049C30.2326 51.023 30.7955 48.7355 30.7955 46.1761H28.7955ZM27.3461 51.9968C26.4022 53.6177 25.0545 54.8789 23.2738 55.7849L24.1807 57.5674C26.2864 56.4961 27.9273 54.9732 29.0744 53.0032L27.3461 51.9968ZM23.2738 55.7849C21.4992 56.6877 19.3546 57.1591 16.8068 57.1591V59.1591C19.6 59.1591 22.069 58.6418 24.1807 57.5674L23.2738 55.7849ZM16.8068 57.1591H7.90909V59.1591H16.8068V57.1591ZM8.90909 58.1591V51.5114H6.90909V58.1591H8.90909ZM7.90909 52.5114H15.2386V50.5114H7.90909V52.5114ZM15.2386 52.5114C16.6218 52.5114 17.854 52.2712 18.8875 51.7338L17.9648 49.9594C17.2937 50.3083 16.4009 50.5114 15.2386 50.5114V52.5114ZM18.8827 51.7363C19.9099 51.2092 20.7141 50.455 21.2599 49.4753L19.5128 48.5019C19.1722 49.1132 18.6697 49.5976 17.9696 49.9569L18.8827 51.7363ZM21.2628 49.4701C21.7992 48.4936 22.0511 47.3854 22.0511 46.1761H20.0511C20.0511 47.1032 19.8599 47.87 19.5099 48.5072L21.2628 49.4701ZM22.0511 46.1761C22.0511 44.9584 21.8003 43.8501 21.2569 42.8886L19.5158 43.8727C19.8587 44.4795 20.0511 45.2348 20.0511 46.1761H22.0511ZM21.2599 42.894C20.7128 41.912 19.9054 41.1614 18.8733 40.6453L17.9789 42.4342C18.6741 42.7818 19.1736 43.2585 19.5128 43.8674L21.2599 42.894ZM18.8734 40.6453C17.835 40.1262 16.6095 39.892 15.2386 39.892V41.892C16.3905 41.892 17.29 42.0897 17.9789 42.4342L18.8734 40.6453ZM15.2386 39.892H11.0795V41.892H15.2386V39.892ZM10.0795 40.892V69H12.0795V40.892H10.0795ZM11.0795 68H2.64205V70H11.0795V68ZM33.9545 69H32.9545V70H33.9545V69ZM33.9545 42.8182V41.8182H32.9545V42.8182H33.9545ZM42.0511 42.8182H43.0511V41.8182H42.0511V42.8182ZM42.0511 47.5909H41.0511V48.5909H42.0511V47.5909ZM42.3239 47.5909V48.5909H43.085L43.2877 47.8572L42.3239 47.5909ZM44.6591 43.7386L45.2736 44.5276L45.2787 44.5235L44.6591 43.7386ZM49.6193 42.5455L49.4818 43.5359L49.4953 43.5378L49.5089 43.5393L49.6193 42.5455ZM50.7614 42.767H51.7614V42.0161L51.0402 41.8067L50.7614 42.767ZM50.7614 50.0114L50.437 50.9573L51.7614 51.4114V50.0114H50.7614ZM49.1932 49.6875L49.0691 50.6798L49.0713 50.68L49.1932 49.6875ZM44.8125 50.233L45.2949 51.1089L45.2992 51.1065L44.8125 50.233ZM42.9545 52.0568L42.0894 51.5553L42.0871 51.5593L42.9545 52.0568ZM42.2898 69V70H43.2898V69H42.2898ZM34.9545 69V42.8182H32.9545V69H34.9545ZM33.9545 43.8182H42.0511V41.8182H33.9545V43.8182ZM41.0511 42.8182V47.5909H43.0511V42.8182H41.0511ZM42.0511 48.5909H42.3239V46.5909H42.0511V48.5909ZM43.2877 47.8572C43.7255 46.2732 44.4095 45.2006 45.2736 44.5275L44.0446 42.9497C42.7496 43.9584 41.8768 45.4541 41.36 47.3246L43.2877 47.8572ZM45.2787 44.5235C46.1741 43.8166 47.2092 43.4602 48.4261 43.4602V41.4602C46.7794 41.4602 45.3031 41.9561 44.0394 42.9538L45.2787 44.5235ZM48.4261 43.4602C48.7635 43.4602 49.1151 43.485 49.4818 43.5359L49.7569 41.555C49.3053 41.4922 48.8615 41.4602 48.4261 41.4602V43.4602ZM49.5089 43.5393C49.8678 43.5792 50.1915 43.6429 50.4825 43.7274L51.0402 41.8067C50.6267 41.6866 50.189 41.6026 49.7297 41.5516L49.5089 43.5393ZM49.7614 42.767V50.0114H51.7614V42.767H49.7614ZM51.0857 49.0654C50.5967 48.8978 49.9984 48.7789 49.3151 48.695L49.0713 50.68C49.6834 50.7552 50.1305 50.8522 50.437 50.9573L51.0857 49.0654ZM49.3172 48.6952C48.6506 48.6119 48.0398 48.5682 47.4886 48.5682V50.5682C47.9375 50.5682 48.4631 50.604 49.0691 50.6798L49.3172 48.6952ZM47.4886 48.5682C46.3447 48.5682 45.2827 48.8263 44.3258 49.3594L45.2992 51.1065C45.9333 50.7533 46.6553 50.5682 47.4886 50.5682V48.5682ZM44.3301 49.357C43.3847 49.8777 42.6339 50.616 42.0894 51.5553L43.8197 52.5583C44.1843 51.9295 44.6721 51.4519 45.2949 51.1089L44.3301 49.357ZM42.0871 51.5593C41.543 52.5079 41.2898 53.5946 41.2898 54.7841H43.2898C43.2898 53.8827 43.4797 53.1512 43.822 52.5543L42.0871 51.5593ZM41.2898 54.7841V69H43.2898V54.7841H41.2898ZM42.2898 68H33.9545V70H42.2898V68ZM57.946 67.875L57.4629 68.7506L57.4689 68.7539L57.946 67.875ZM53.3778 63.2216L52.4915 63.6847L52.4947 63.6906L53.3778 63.2216ZM53.3949 48.9205L54.2792 49.3874L54.2802 49.3854L53.3949 48.9205ZM57.9119 44.1818L58.413 45.0473L58.4167 45.045L57.9119 44.1818ZM69.8949 43.3466L70.246 42.4103L70.246 42.4103L69.8949 43.3466ZM76.5256 50.1307L75.589 50.4811L75.5898 50.4832L76.5256 50.1307ZM77.4631 57.9205V58.9205H78.4631V57.9205H77.4631ZM54.7074 57.9205H53.7074V58.9205H54.7074V57.9205ZM54.7074 53.0795V52.0795H53.7074V53.0795H54.7074ZM69.7074 53.0795V54.0795H70.7203L70.7073 53.0667L69.7074 53.0795ZM67.3892 49.0909L66.8976 49.9617L66.9059 49.9664L66.9143 49.9709L67.3892 49.0909ZM62.446 49.125L62.9306 49.9999L62.9407 49.9941L62.446 49.125ZM60.6903 50.8125L61.543 51.3351L61.5466 51.329L60.6903 50.8125ZM60.0085 53.2159L59.0088 53.1906L59.0085 53.2033V53.2159H60.0085ZM60.6392 60.9545L59.7524 61.4167L59.7551 61.4219L60.6392 60.9545ZM62.429 62.8125L61.9315 63.68L61.9315 63.68L62.429 62.8125ZM67.2017 63.1705L67.5233 64.1173L67.5233 64.1173L67.2017 63.1705ZM68.7528 62.267L69.4303 63.0026L69.4303 63.0026L68.7528 62.267ZM69.7244 60.8011L69.7534 59.8016L69.0374 59.7808L68.7874 60.452L69.7244 60.8011ZM77.3778 61.0227L78.3611 61.205L78.574 60.0569L77.4068 60.0231L77.3778 61.0227ZM75.2812 65.5057L74.5186 64.8588L74.5181 64.8594L75.2812 65.5057ZM71.071 68.4545L71.4414 69.3835L71.4466 69.3813L71.071 68.4545ZM65.0369 68.4943C62.4301 68.4943 60.2375 67.9811 58.4231 66.9961L57.4689 68.7539C59.6318 69.928 62.1665 70.4943 65.0369 70.4943V68.4943ZM58.4291 66.9994C56.6234 66.0032 55.239 64.594 54.261 62.7526L52.4947 63.6906C53.6531 65.8719 55.3141 67.565 57.4629 68.7506L58.4291 66.9994ZM54.2642 62.7585C53.2967 60.9068 52.7926 58.6692 52.7926 56.0114H50.7926C50.7926 58.9217 51.3453 61.4909 52.4915 63.6847L54.2642 62.7585ZM52.7926 56.0114C52.7926 53.4399 53.2997 51.2421 54.2792 49.3874L52.5106 48.4535C51.3537 50.6442 50.7926 53.1737 50.7926 56.0114H52.7926ZM54.2802 49.3854C55.2628 47.5143 56.6371 46.0754 58.413 45.0472L57.4109 43.3164C55.3004 44.5382 53.6633 46.2584 52.5095 48.4555L54.2802 49.3854ZM58.4167 45.045C60.1823 44.0126 62.2916 43.4773 64.7812 43.4773V41.4773C61.9981 41.4773 59.5279 42.0784 57.4071 43.3186L58.4167 45.045ZM64.7812 43.4773C66.5403 43.4773 68.1241 43.7506 69.5438 44.2829L70.246 42.4103C68.5748 41.7835 66.7494 41.4773 64.7812 41.4773V43.4773ZM69.5438 44.2829C70.9584 44.8134 72.1699 45.5936 73.1899 46.624L74.6112 45.2169C73.3813 43.9746 71.9222 43.0388 70.246 42.4103L69.5438 44.2829ZM73.1899 46.624C74.2046 47.6489 75.0078 48.9277 75.589 50.4811L77.4622 49.7803C76.7934 47.9928 75.8465 46.4647 74.6112 45.2169L73.1899 46.624ZM75.5898 50.4832C76.1644 52.0086 76.4631 53.7889 76.4631 55.8409H78.4631C78.4631 53.5975 78.1367 51.571 77.4614 49.7782L75.5898 50.4832ZM76.4631 55.8409V57.9205H78.4631V55.8409H76.4631ZM77.4631 56.9205H54.7074V58.9205H77.4631V56.9205ZM55.7074 57.9205V53.0795H53.7074V57.9205H55.7074ZM54.7074 54.0795H69.7074V52.0795H54.7074V54.0795ZM70.7073 53.0667C70.6939 52.0241 70.4444 51.0603 69.9379 50.202L68.2155 51.2185C68.5272 51.7466 68.6981 52.3623 68.7075 53.0924L70.7073 53.0667ZM69.9379 50.202C69.4353 49.3503 68.7384 48.6827 67.8641 48.2109L66.9143 49.9709C67.4718 50.2718 67.9 50.6838 68.2155 51.2185L69.9379 50.202ZM67.8808 48.2201C67.0066 47.7266 66.0203 47.4943 64.9517 47.4943V49.4943C65.724 49.4943 66.3627 49.6598 66.8976 49.9617L67.8808 48.2201ZM64.9517 47.4943C63.8636 47.4943 62.855 47.7416 61.9513 48.2559L62.9407 49.9941C63.5144 49.6675 64.1762 49.4943 64.9517 49.4943V47.4943ZM61.9615 48.2502C61.0713 48.7432 60.3572 49.4286 59.834 50.296L61.5466 51.329C61.8871 50.7646 62.3434 50.3249 62.9305 49.9998L61.9615 48.2502ZM59.8377 50.2899C59.3061 51.1573 59.0356 52.1328 59.0088 53.1906L61.0082 53.2412C61.0269 52.5036 61.2109 51.8768 61.5429 51.3351L59.8377 50.2899ZM59.0085 53.2159V58.142H61.0085V53.2159H59.0085ZM59.0085 58.142C59.0085 59.3431 59.2456 60.4443 59.7524 61.4167L61.526 60.4924C61.1919 59.8512 61.0085 59.0773 61.0085 58.142H59.0085ZM59.7551 61.4219C60.263 62.3828 60.9929 63.1417 61.9315 63.68L62.9265 61.945C62.3196 61.597 61.8563 61.1172 61.5233 60.4872L59.7551 61.4219ZM61.9315 63.68C62.8832 64.2258 63.9824 64.4773 65.1903 64.4773V62.4773C64.2619 62.4773 63.5202 62.2856 62.9265 61.945L61.9315 63.68ZM65.1903 64.4773C66.0211 64.4773 66.8023 64.3622 67.5233 64.1173L66.8801 62.2236C66.3966 62.3878 65.8369 62.4773 65.1903 62.4773V64.4773ZM67.5233 64.1173C68.2465 63.8717 68.8876 63.5025 69.4303 63.0026L68.0754 61.5315C67.7545 61.8271 67.3615 62.0601 66.8801 62.2236L67.5233 64.1173ZM69.4303 63.0026C69.9841 62.4926 70.3937 61.8691 70.6615 61.1502L68.7874 60.452C68.6233 60.8922 68.3853 61.2461 68.0754 61.5315L69.4303 63.0026ZM69.6955 61.8007L77.3489 62.0223L77.4068 60.0231L69.7534 59.8016L69.6955 61.8007ZM76.3946 60.8404C76.1067 62.393 75.4802 63.7252 74.5186 64.8588L76.0439 66.1525C77.2414 64.7407 78.0126 63.0842 78.3611 61.205L76.3946 60.8404ZM74.5181 64.8594C73.5679 65.9815 72.3046 66.8757 70.6955 67.5277L71.4466 69.3813C73.3148 68.6243 74.8582 67.5526 76.0444 66.1519L74.5181 64.8594ZM70.7007 67.5257C69.1027 68.1628 67.2213 68.4943 65.0369 68.4943V70.4943C67.4207 70.4943 69.5621 70.1327 71.4414 69.3834L70.7007 67.5257ZM98.4759 51.6648H99.4759V50.6648H98.4759V51.6648ZM98.4759 58.0909V59.0909H99.4759V58.0909H98.4759ZM82.3168 58.0909H81.3168V59.0909H82.3168V58.0909ZM82.3168 51.6648V50.6648H81.3168V51.6648H82.3168ZM97.4759 51.6648V58.0909H99.4759V51.6648H97.4759ZM98.4759 57.0909H82.3168V59.0909H98.4759V57.0909ZM83.3168 58.0909V51.6648H81.3168V58.0909H83.3168ZM82.3168 52.6648H98.4759V50.6648H82.3168V52.6648ZM127.27 45.4943L126.304 45.7548L126.504 46.4943H127.27V45.4943ZM126.418 43.6023L125.588 44.1609L125.594 44.1688L126.418 43.6023ZM123.162 41.3182L122.883 42.2785L122.89 42.2806L122.897 42.2826L123.162 41.3182ZM116.446 42.2386L115.895 41.4042L115.891 41.4066L116.446 42.2386ZM113.599 45.8182L114.518 46.2137L114.519 46.2113L113.599 45.8182ZM113.565 57.2216L114.491 56.8422L114.491 56.8422L113.565 57.2216ZM116.378 60.8352L116.938 60.0067L116.938 60.0067L116.378 60.8352ZM124.764 61.3295L125.188 62.2352L125.192 62.2333L124.764 61.3295ZM127.219 59.1648L126.36 58.6518L126.36 58.6518L127.219 59.1648ZM128.054 55.875L128.173 54.8821L127.054 54.7483V55.875H128.054ZM129.622 56.0625V57.0625L129.741 55.0696L129.622 56.0625ZM121.134 56.0625H120.134V57.0625H121.134V56.0625ZM121.134 49.9091V48.9091H120.134V49.9091H121.134ZM136.185 49.9091H137.185V48.9091H136.185V49.9091ZM134.19 62.5568L133.332 62.0443L133.33 62.0475L134.19 62.5568ZM128.736 67.6875L128.278 66.7984L128.276 66.7993L128.736 67.6875ZM111.997 67.3125L112.494 66.4445L112.494 66.4445L111.997 67.3125ZM106.099 61.142L105.214 61.6072L105.215 61.6087L106.099 61.142ZM105.264 43.9773L106.198 44.3363L106.198 44.3347L105.264 43.9773ZM108.827 38.3182L108.117 37.6137L108.114 37.6163L108.827 38.3182ZM114.145 34.8068L113.779 33.8762L113.777 33.8769L114.145 34.8068ZM126.315 34.483L125.999 35.4316L126.001 35.4323L126.315 34.483ZM130.952 36.9375L130.333 37.7229L130.336 37.7254L130.952 36.9375ZM134.241 40.7045L133.376 41.205L133.376 41.205L134.241 40.7045ZM135.81 45.4943V46.4943H136.934L136.803 45.3775L135.81 45.4943ZM128.235 45.2338C128.016 44.4216 127.688 43.685 127.242 43.0357L125.594 44.1688C125.897 44.6105 126.137 45.1352 126.304 45.7548L128.235 45.2338ZM127.247 43.0437C126.805 42.387 126.26 41.828 125.615 41.3715L124.459 43.0035C124.905 43.3197 125.28 43.7039 125.588 44.1609L127.247 43.0437ZM125.615 41.3715C124.966 40.9118 124.233 40.5749 123.426 40.3538L122.897 42.2826C123.5 42.4478 124.017 42.6905 124.459 43.0035L125.615 41.3715ZM123.441 40.3578C122.633 40.1235 121.766 40.0114 120.844 40.0114V42.0114C121.604 42.0114 122.281 42.1038 122.883 42.2785L123.441 40.3578ZM120.844 40.0114C118.983 40.0114 117.319 40.4634 115.895 41.4042L116.997 43.073C118.05 42.3775 119.318 42.0114 120.844 42.0114V40.0114ZM115.891 41.4066C114.478 42.3486 113.415 43.7068 112.68 45.4251L114.519 46.2113C115.125 44.7932 115.959 43.7651 117.001 43.0707L115.891 41.4066ZM112.681 45.4226C111.943 47.137 111.594 49.1717 111.594 51.4943H113.594C113.594 49.3624 113.915 47.613 114.518 46.2137L112.681 45.4226ZM111.594 51.4943C111.594 53.8246 111.93 55.8699 112.64 57.601L114.491 56.8422C113.905 55.4142 113.594 53.6413 113.594 51.4943H111.594ZM112.64 57.601C113.351 59.3344 114.403 60.7076 115.818 61.6637L116.938 60.0067C115.898 59.3037 115.075 58.2679 114.491 56.8422L112.64 57.601ZM115.818 61.6637C117.239 62.6241 118.931 63.0795 120.844 63.0795V61.0795C119.256 61.0795 117.972 60.7055 116.938 60.0067L115.818 61.6637ZM120.844 63.0795C122.492 63.0795 123.953 62.8135 125.188 62.2352L124.34 60.4239C123.439 60.8456 122.286 61.0795 120.844 61.0795V63.0795ZM125.192 62.2333C126.432 61.646 127.409 60.7965 128.077 59.6777L126.36 58.6518C125.915 59.3967 125.255 59.9904 124.336 60.4258L125.192 62.2333ZM128.077 59.6777C128.741 58.5672 129.054 57.2873 129.054 55.875H127.054C127.054 56.9854 126.81 57.8987 126.36 58.6518L128.077 59.6777ZM127.935 56.8679L129.503 57.0554L129.741 55.0696L128.173 54.8821L127.935 56.8679ZM129.622 55.0625H121.134V57.0625H129.622V55.0625ZM122.134 56.0625V49.9091H120.134V56.0625H122.134ZM121.134 50.9091H136.185V48.9091H121.134V50.9091ZM135.185 49.9091V54.5284H137.185V49.9091H135.185ZM135.185 54.5284C135.185 57.51 134.551 60.0009 133.332 62.0443L135.049 63.0694C136.488 60.6581 137.185 57.7968 137.185 54.5284H135.185ZM133.33 62.0475C132.108 64.1115 130.43 65.6907 128.278 66.7984L129.193 68.5766C131.678 67.298 133.636 65.4567 135.051 63.0661L133.33 62.0475ZM128.276 66.7993C126.132 67.9084 123.641 68.4773 120.776 68.4773V70.4773C123.911 70.4773 126.726 69.853 129.195 68.5757L128.276 66.7993ZM120.776 68.4773C117.594 68.4773 114.844 67.7892 112.494 66.4445L111.501 68.1805C114.195 69.7221 117.298 70.4773 120.776 70.4773V68.4773ZM112.494 66.4445C110.142 65.0994 108.308 63.1848 106.984 60.6754L105.215 61.6087C106.709 64.4402 108.806 66.6393 111.501 68.1805L112.494 66.4445ZM106.985 60.6769C105.666 58.1663 104.986 55.1509 104.986 51.5966H102.986C102.986 55.4059 103.715 58.7542 105.214 61.6072L106.985 60.6769ZM104.986 51.5966C104.986 48.8311 105.397 46.4167 106.198 44.3363L104.331 43.6183C103.426 45.9697 102.986 48.6348 102.986 51.5966H104.986ZM106.198 44.3347C107.006 42.2234 108.122 40.4578 109.539 39.02L108.114 37.6163C106.486 39.2695 105.227 41.2766 104.33 43.6199L106.198 44.3347ZM109.536 39.0227C110.974 37.5745 112.63 36.4811 114.513 35.7367L113.777 33.8769C111.637 34.7235 109.748 35.971 108.117 37.6137L109.536 39.0227ZM114.511 35.7374C116.409 34.991 118.46 34.6136 120.673 34.6136V32.6136C118.228 32.6136 115.926 33.0317 113.779 33.8762L114.511 35.7374ZM120.673 34.6136C122.6 34.6136 124.372 34.8894 125.999 35.4316L126.632 33.5343C124.781 32.9174 122.792 32.6136 120.673 32.6136V34.6136ZM126.001 35.4323C127.649 35.9782 129.09 36.7435 130.333 37.7229L131.571 36.1521C130.132 35.0178 128.481 34.1468 126.63 33.5337L126.001 35.4323ZM130.336 37.7254C131.589 38.7051 132.6 39.8639 133.376 41.205L135.107 40.204C134.201 38.6361 133.018 37.2836 131.567 36.1496L130.336 37.7254ZM133.376 41.205C134.146 42.5368 134.627 44.002 134.817 45.6112L136.803 45.3775C136.583 43.5094 136.019 41.7814 135.107 40.204L133.376 41.205ZM135.81 44.4943H127.27V46.4943H135.81V44.4943ZM149.493 34.0909H150.493V33.0909H149.493V34.0909ZM149.493 69V70H150.493V69H149.493ZM141.158 69H140.158V70H141.158V69ZM141.158 34.0909V33.0909H140.158V34.0909H141.158ZM148.493 34.0909V69H150.493V34.0909H148.493ZM149.493 68H141.158V70H149.493V68ZM142.158 69V34.0909H140.158V69H142.158ZM141.158 35.0909H149.493V33.0909H141.158V35.0909ZM171.69 42.8182V41.8182H170.69V42.8182H171.69ZM180.009 42.8182H181.009V41.8182H180.009V42.8182ZM180.009 69V70H181.009V69H180.009ZM172.065 69H171.065V70H172.065V69ZM172.065 64.125H173.065V63.125H172.065V64.125ZM171.793 64.125V63.125H171.091L170.852 63.7849L171.793 64.125ZM168.827 67.9432L169.385 68.7731L169.386 68.7721L168.827 67.9432ZM159.094 68.1136L158.576 68.9692L158.576 68.9692L159.094 68.1136ZM155.94 64.6875L155.049 65.1402L155.05 65.143L155.94 64.6875ZM154.798 59.5057L153.798 59.5057L153.798 59.5114L154.798 59.5057ZM154.798 42.8182V41.8182H153.798V42.8182H154.798ZM163.134 42.8182H164.134V41.8182H163.134V42.8182ZM163.134 57.8693L162.133 57.8693L162.134 57.8773L163.134 57.8693ZM164.259 61.2273L165.001 60.5572L165.001 60.5572L164.259 61.2273ZM169.509 61.9091L169.992 62.7847L169.997 62.7818L169.509 61.9091ZM171.094 60.2898L170.22 59.8041L170.217 59.8089L171.094 60.2898ZM172.69 57.6989V42.8182H170.69V57.6989H172.69ZM171.69 43.8182H180.009V41.8182H171.69V43.8182ZM179.009 42.8182V69H181.009V42.8182H179.009ZM180.009 68H172.065V70H180.009V68ZM173.065 69V64.125H171.065V69H173.065ZM172.065 63.125H171.793V65.125H172.065V63.125ZM170.852 63.7849C170.344 65.1902 169.488 66.2909 168.267 67.1143L169.386 68.7721C170.961 67.7091 172.082 66.2643 172.733 64.4651L170.852 63.7849ZM168.269 67.1132C167.075 67.9157 165.601 68.3409 163.798 68.3409V70.3409C165.927 70.3409 167.806 69.8343 169.385 68.7731L168.269 67.1132ZM163.798 68.3409C162.173 68.3409 160.788 67.97 159.611 67.2581L158.576 68.9692C160.104 69.8936 161.856 70.3409 163.798 70.3409V68.3409ZM159.611 67.2581C158.425 66.5402 157.5 65.5398 156.831 64.232L155.05 65.143C155.881 66.767 157.058 68.0507 158.576 68.9692L159.611 67.2581ZM156.832 64.2348C156.165 62.9204 155.809 61.3516 155.798 59.4999L153.798 59.5114C153.81 61.6143 154.216 63.5 155.049 65.1402L156.832 64.2348ZM155.798 59.5057V42.8182H153.798V59.5057H155.798ZM154.798 43.8182H163.134V41.8182H154.798V43.8182ZM162.134 42.8182V57.8693H164.134V42.8182H162.134ZM162.134 57.8773C162.146 59.47 162.571 60.85 163.516 61.8974L165.001 60.5572C164.469 59.9682 164.143 59.1096 164.133 57.8613L162.134 57.8773ZM163.516 61.8974C164.475 62.9589 165.768 63.4545 167.276 63.4545V61.4545C166.238 61.4545 165.52 61.132 165.001 60.5572L163.516 61.8974ZM167.276 63.4545C168.256 63.4545 169.17 63.238 169.992 62.7847L169.025 61.0335C168.529 61.3074 167.954 61.4545 167.276 61.4545V63.4545ZM169.997 62.7818C170.839 62.3109 171.498 61.6317 171.971 60.7706L170.217 59.8089C169.916 60.3569 169.519 60.7572 169.02 61.0363L169.997 62.7818ZM171.968 60.7754C172.465 59.8799 172.69 58.8407 172.69 57.6989H170.69C170.69 58.5798 170.518 59.2678 170.22 59.8041L171.968 60.7754ZM190.462 67.875L189.979 68.7506L189.985 68.7539L190.462 67.875ZM185.893 63.2216L185.007 63.6847L185.01 63.6906L185.893 63.2216ZM185.911 48.9205L186.795 49.3874L186.796 49.3854L185.911 48.9205ZM190.428 44.1818L190.929 45.0473L190.932 45.045L190.428 44.1818ZM202.411 43.3466L202.762 42.4103L202.762 42.4103L202.411 43.3466ZM209.041 50.1307L208.105 50.4811L208.105 50.4832L209.041 50.1307ZM209.979 57.9205V58.9205H210.979V57.9205H209.979ZM187.223 57.9205H186.223V58.9205H187.223V57.9205ZM187.223 53.0795V52.0795H186.223V53.0795H187.223ZM202.223 53.0795V54.0795H203.236L203.223 53.0667L202.223 53.0795ZM199.905 49.0909L199.413 49.9617L199.422 49.9664L199.43 49.9709L199.905 49.0909ZM194.962 49.125L195.446 49.9999L195.456 49.9941L194.962 49.125ZM193.206 50.8125L194.059 51.3351L194.062 51.329L193.206 50.8125ZM192.524 53.2159L191.524 53.1906L191.524 53.2033V53.2159H192.524ZM193.155 60.9545L192.268 61.4167L192.271 61.4219L193.155 60.9545ZM194.945 62.8125L194.447 63.68L194.447 63.68L194.945 62.8125ZM199.717 63.1705L200.039 64.1173L200.039 64.1173L199.717 63.1705ZM201.268 62.267L201.946 63.0026L201.946 63.0026L201.268 62.267ZM202.24 60.8011L202.269 59.8016L201.553 59.7808L201.303 60.452L202.24 60.8011ZM209.893 61.0227L210.877 61.205L211.09 60.0569L209.922 60.0231L209.893 61.0227ZM207.797 65.5057L207.034 64.8588L207.034 64.8594L207.797 65.5057ZM203.587 68.4545L203.957 69.3835L203.962 69.3813L203.587 68.4545ZM197.553 68.4943C194.946 68.4943 192.753 67.9811 190.939 66.9961L189.985 68.7539C192.147 69.928 194.682 70.4943 197.553 70.4943V68.4943ZM190.945 66.9994C189.139 66.0032 187.755 64.594 186.777 62.7526L185.01 63.6906C186.169 65.8719 187.83 67.565 189.979 68.7506L190.945 66.9994ZM186.78 62.7585C185.812 60.9068 185.308 58.6692 185.308 56.0114H183.308C183.308 58.9217 183.861 61.4909 185.007 63.6847L186.78 62.7585ZM185.308 56.0114C185.308 53.4399 185.815 51.2421 186.795 49.3874L185.026 48.4535C183.869 50.6442 183.308 53.1737 183.308 56.0114H185.308ZM186.796 49.3854C187.778 47.5143 189.153 46.0754 190.929 45.0472L189.927 43.3164C187.816 44.5382 186.179 46.2584 185.025 48.4555L186.796 49.3854ZM190.932 45.045C192.698 44.0126 194.807 43.4773 197.297 43.4773V41.4773C194.514 41.4773 192.044 42.0784 189.923 43.3186L190.932 45.045ZM197.297 43.4773C199.056 43.4773 200.64 43.7506 202.059 44.2829L202.762 42.4103C201.09 41.7835 199.265 41.4773 197.297 41.4773V43.4773ZM202.059 44.2829C203.474 44.8134 204.685 45.5936 205.706 46.624L207.127 45.2169C205.897 43.9746 204.438 43.0388 202.762 42.4103L202.059 44.2829ZM205.706 46.624C206.72 47.6489 207.523 48.9277 208.105 50.4811L209.978 49.7803C209.309 47.9928 208.362 46.4647 207.127 45.2169L205.706 46.624ZM208.105 50.4832C208.68 52.0086 208.979 53.7889 208.979 55.8409H210.979C210.979 53.5975 210.652 51.571 209.977 49.7782L208.105 50.4832ZM208.979 55.8409V57.9205H210.979V55.8409H208.979ZM209.979 56.9205H187.223V58.9205H209.979V56.9205ZM188.223 57.9205V53.0795H186.223V57.9205H188.223ZM187.223 54.0795H202.223V52.0795H187.223V54.0795ZM203.223 53.0667C203.21 52.0241 202.96 51.0603 202.454 50.202L200.731 51.2185C201.043 51.7466 201.214 52.3623 201.223 53.0924L203.223 53.0667ZM202.454 50.202C201.951 49.3503 201.254 48.6827 200.38 48.2109L199.43 49.9709C199.987 50.2718 200.416 50.6838 200.731 51.2185L202.454 50.202ZM200.396 48.2201C199.522 47.7266 198.536 47.4943 197.467 47.4943V49.4943C198.24 49.4943 198.878 49.6598 199.413 49.9617L200.396 48.2201ZM197.467 47.4943C196.379 47.4943 195.371 47.7416 194.467 48.2559L195.456 49.9941C196.03 49.6675 196.692 49.4943 197.467 49.4943V47.4943ZM194.477 48.2502C193.587 48.7432 192.873 49.4286 192.35 50.296L194.062 51.329C194.403 50.7646 194.859 50.3249 195.446 49.9998L194.477 48.2502ZM192.353 50.2899C191.822 51.1573 191.551 52.1328 191.524 53.1906L193.524 53.2412C193.543 52.5036 193.727 51.8768 194.059 51.3351L192.353 50.2899ZM191.524 53.2159V58.142H193.524V53.2159H191.524ZM191.524 58.142C191.524 59.3431 191.761 60.4443 192.268 61.4167L194.042 60.4924C193.707 59.8512 193.524 59.0773 193.524 58.142H191.524ZM192.271 61.4219C192.779 62.3828 193.509 63.1417 194.447 63.68L195.442 61.945C194.835 61.597 194.372 61.1172 194.039 60.4872L192.271 61.4219ZM194.447 63.68C195.399 64.2258 196.498 64.4773 197.706 64.4773V62.4773C196.778 62.4773 196.036 62.2856 195.442 61.945L194.447 63.68ZM197.706 64.4773C198.537 64.4773 199.318 64.3622 200.039 64.1173L199.396 62.2236C198.912 62.3878 198.353 62.4773 197.706 62.4773V64.4773ZM200.039 64.1173C200.762 63.8717 201.403 63.5025 201.946 63.0026L200.591 61.5315C200.27 61.8271 199.877 62.0601 199.396 62.2236L200.039 64.1173ZM201.946 63.0026C202.5 62.4926 202.909 61.8691 203.177 61.1502L201.303 60.452C201.139 60.8922 200.901 61.2461 200.591 61.5315L201.946 63.0026ZM202.211 61.8007L209.865 62.0223L209.922 60.0231L202.269 59.8016L202.211 61.8007ZM208.91 60.8404C208.622 62.393 207.996 63.7252 207.034 64.8588L208.559 66.1525C209.757 64.7407 210.528 63.0842 210.877 61.205L208.91 60.8404ZM207.034 64.8594C206.084 65.9815 204.82 66.8757 203.211 67.5277L203.962 69.3813C205.83 68.6243 207.374 67.5526 208.56 66.1519L207.034 64.8594ZM203.216 67.5257C201.618 68.1628 199.737 68.4943 197.553 68.4943V70.4943C199.936 70.4943 202.078 70.1327 203.957 69.3834L203.216 67.5257ZM218.531 67.875L217.996 68.7199L217.996 68.7199L218.531 67.875ZM214.747 63.375L213.843 63.8015L213.843 63.8015L214.747 63.375ZM214.798 48.3239L215.696 48.7649L215.696 48.7649L214.798 48.3239ZM218.634 43.9091L218.119 43.0516L218.116 43.0532L218.634 43.9091ZM227.293 43.1932L226.854 44.0918L226.862 44.0958L227.293 43.1932ZM229.713 45L230.471 44.3473L230.471 44.3473L229.713 45ZM231.162 47.3011L230.238 47.6839L230.494 48.3011H231.162V47.3011ZM231.332 47.3011V48.3011H232.332V47.3011H231.332ZM231.332 34.0909V33.0909H230.332V34.0909H231.332ZM239.668 34.0909H240.668V33.0909H239.668V34.0909ZM239.668 69V70H240.668V69H239.668ZM231.418 69H230.418V70H231.418V69ZM231.418 64.7557H232.418V63.7557H231.418V64.7557ZM231.162 64.7557V63.7557H230.507L230.245 64.3555L231.162 64.7557ZM229.662 67.0227L228.926 66.3459L228.926 66.3459L229.662 67.0227ZM227.224 68.7273L226.82 67.8126L226.816 67.8143L227.224 68.7273ZM229.287 62.0284L229.909 62.8117L229.916 62.8057L229.287 62.0284ZM230.94 59.5909L231.878 59.9376L231.878 59.9376L230.94 59.5909ZM230.94 52.2102L230 52.5512L230.004 52.5602L230.94 52.2102ZM229.287 49.8239L228.673 50.6132L228.679 50.6179L229.287 49.8239ZM222.435 52.2443L221.495 51.9034L221.491 51.9126L222.435 52.2443ZM224.071 62.0284L223.436 62.8007L223.443 62.8063L223.449 62.8117L224.071 62.0284ZM223.798 68.375C222.049 68.375 220.48 67.9253 219.066 67.0301L217.996 68.7199C219.741 69.8247 221.684 70.375 223.798 70.375V68.375ZM219.066 67.0301C217.674 66.149 216.529 64.8086 215.652 62.9485L213.843 63.8015C214.852 65.9414 216.229 67.601 217.996 68.7199L219.066 67.0301ZM215.652 62.9485C214.789 61.1192 214.332 58.7924 214.332 55.9261H212.332C212.332 58.9917 212.819 61.6308 213.843 63.8015L215.652 62.9485ZM214.332 55.9261C214.332 52.9434 214.807 50.5736 215.696 48.7649L213.901 47.8828C212.835 50.0514 212.332 52.7498 212.332 55.9261H214.332ZM215.696 48.7649C216.606 46.9133 217.765 45.6021 219.151 44.7649L218.116 43.0532C216.343 44.1251 214.945 45.7572 213.901 47.8828L215.696 48.7649ZM219.148 44.7666C220.586 43.9039 222.119 43.4773 223.764 43.4773V41.4773C221.751 41.4773 219.863 42.0052 218.119 43.0516L219.148 44.7666ZM223.764 43.4773C225.026 43.4773 226.044 43.6965 226.854 44.0917L227.731 42.2946C226.586 41.7353 225.252 41.4773 223.764 41.4773V43.4773ZM226.862 44.0958C227.728 44.5087 228.419 45.0303 228.955 45.6527L230.471 44.3473C229.734 43.4925 228.812 42.8095 227.723 42.2905L226.862 44.0958ZM228.955 45.6527C229.531 46.3213 229.954 46.9987 230.238 47.6839L232.086 46.9184C231.711 46.0126 231.167 45.156 230.471 44.3473L228.955 45.6527ZM231.162 48.3011H231.332V46.3011H231.162V48.3011ZM232.332 47.3011V34.0909H230.332V47.3011H232.332ZM231.332 35.0909H239.668V33.0909H231.332V35.0909ZM238.668 34.0909V69H240.668V34.0909H238.668ZM239.668 68H231.418V70H239.668V68ZM232.418 69V64.7557H230.418V69H232.418ZM231.418 63.7557H231.162V65.7557H231.418V63.7557ZM230.245 64.3555C229.941 65.0523 229.505 65.7159 228.926 66.3459L230.398 67.6995C231.114 66.9205 231.678 66.0727 232.078 65.1558L230.245 64.3555ZM228.926 66.3459C228.381 66.938 227.686 67.4299 226.82 67.8126L227.629 69.642C228.717 69.161 229.647 68.5165 230.398 67.6995L228.926 66.3459ZM226.816 67.8143C226.006 68.1765 225.009 68.375 223.798 68.375V70.375C225.224 70.375 226.511 70.1417 227.633 69.6402L226.816 67.8143ZM226.696 63.8807C227.908 63.8807 228.997 63.5353 229.909 62.8117L228.665 61.2451C228.145 61.6579 227.507 61.8807 226.696 61.8807V63.8807ZM229.916 62.8057C230.799 62.0913 231.443 61.1162 231.878 59.9376L230.002 59.2443C229.665 60.1565 229.207 60.8064 228.658 61.2512L229.916 62.8057ZM231.878 59.9376C232.315 58.7562 232.52 57.4066 232.52 55.9091H230.52C230.52 57.2298 230.338 58.3347 230.002 59.2443L231.878 59.9376ZM232.52 55.9091C232.52 54.3915 232.316 53.034 231.877 51.8602L230.004 52.5602C230.338 53.4546 230.52 54.5631 230.52 55.9091H232.52ZM231.88 51.8693C231.454 50.692 230.802 49.7244 229.895 49.0299L228.679 50.6179C229.226 51.037 229.677 51.6602 230 52.5511L231.88 51.8693ZM229.901 49.0345C228.989 48.3254 227.903 47.9886 226.696 47.9886V49.9886C227.512 49.9886 228.153 50.2086 228.673 50.6132L229.901 49.0345ZM226.696 47.9886C225.467 47.9886 224.365 48.3308 223.449 49.0576L224.693 50.6242C225.209 50.2146 225.856 49.9886 226.696 49.9886V47.9886ZM223.449 49.0576C222.561 49.7624 221.92 50.7309 221.495 51.9034L223.375 52.5852C223.7 51.6896 224.149 51.0558 224.693 50.6242L223.449 49.0576ZM221.491 51.9126C221.081 53.0788 220.889 54.4177 220.889 55.9091H222.889C222.889 54.5823 223.061 53.4781 223.378 52.5761L221.491 51.9126ZM220.889 55.9091C220.889 57.4037 221.088 58.7501 221.51 59.9285L223.393 59.2533C223.066 58.3408 222.889 57.2326 222.889 55.9091H220.889ZM221.51 59.9285C221.933 61.1069 222.564 62.0839 223.436 62.8007L224.706 61.2561C224.169 60.8138 223.72 60.1658 223.393 59.2533L221.51 59.9285ZM223.449 62.8117C224.365 63.5385 225.467 63.8807 226.696 63.8807V61.8807C225.856 61.8807 225.209 61.6547 224.693 61.2451L223.449 62.8117Z" fill="black" fill-opacity="0.2" mask="url(#path-1-outside-1_138_502)"/>
</g>
</g>
<defs>
<filter id="filter0_dd_138_502" x="-2.35791" y="32.6136" width="247.026" height="45.8807" filterUnits="userSpaceOnUse" color-interpolation-filters="sRGB">
<feFlood flood-opacity="0" result="BackgroundImageFix"/>
<feColorMatrix in="SourceAlpha" type="matrix" values="0 0 0 0 0 0 0 0 0 0 0 0 0 0 0 0 0 0 127 0" result="hardAlpha"/>
<feOffset dy="4"/>
<feGaussianBlur stdDeviation="2"/>
<feComposite in2="hardAlpha" operator="out"/>
<feColorMatrix type="matrix" values="0 0 0 0 0 0 0 0 0 0 0 0 0 0 0 0 0 0 0.25 0"/>
<feBlend mode="normal" in2="BackgroundImageFix" result="effect1_dropShadow_138_502"/>
<feColorMatrix in="SourceAlpha" type="matrix" values="0 0 0 0 0 0 0 0 0 0 0 0 0 0 0 0 0 0 127 0" result="hardAlpha"/>
<feOffset dy="4"/>
<feGaussianBlur stdDeviation="2"/>
<feComposite in2="hardAlpha" operator="out"/>
<feColorMatrix type="matrix" values="0 0 0 0 0 0 0 0 0 0 0 0 0 0 0 0 0 0 0.25 0"/>
<feBlend mode="normal" in2="effect1_dropShadow_138_502" result="effect2_dropShadow_138_502"/>
<feBlend mode="normal" in="SourceGraphic" in2="effect2_dropShadow_138_502" result="shape"/>
</filter>
<clipPath id="clip0_138_502">
<rect width="322" height="117" fill="white"/>
</clipPath>
</defs>
</svg>
