<svg width="322" height="117" viewBox="0 0 322 117" fill="none" xmlns="http://www.w3.org/2000/svg">
<g clip-path="url(#clip0_139_533)">
<rect width="322" height="117" fill="white"/>
<g filter="url(#filter0_dd_139_533)">
<mask id="path-1-outside-1_139_533" maskUnits="userSpaceOnUse" x="1" y="32" width="231" height="39" fill="black">
<rect fill="white" x="1" y="32" width="231" height="39"/>
<path d="M2.64205 69V34.0909H17.0625C19.6761 34.0909 21.9318 34.6023 23.8295 35.625C25.7386 36.6364 27.2102 38.0511 28.2443 39.8693C29.2784 41.6761 29.7955 43.7784 29.7955 46.1761C29.7955 48.5852 29.267 50.6932 28.2102 52.5C27.1648 54.2955 25.6705 55.6875 23.7273 56.6761C21.7841 57.6648 19.4773 58.1591 16.8068 58.1591H7.90909V51.5114H15.2386C16.5114 51.5114 17.5739 51.2898 18.4261 50.8466C19.2898 50.4034 19.9432 49.7841 20.3864 48.9886C20.8295 48.1818 21.0511 47.2443 21.0511 46.1761C21.0511 45.0966 20.8295 44.1648 20.3864 43.3807C19.9432 42.5852 19.2898 41.9716 18.4261 41.5398C17.5625 41.108 16.5 40.892 15.2386 40.892H11.0795V69H2.64205ZM48.733 42.8182V48.9545H32.2159V42.8182H48.733ZM35.6761 36.5455H44.0114V60.767C44.0114 61.2784 44.0909 61.6932 44.25 62.0114C44.4205 62.3182 44.6648 62.5398 44.983 62.6761C45.3011 62.8011 45.6818 62.8636 46.125 62.8636C46.4432 62.8636 46.7784 62.8352 47.1307 62.7784C47.4943 62.7102 47.767 62.6534 47.9489 62.608L49.2102 68.625C48.8125 68.7386 48.25 68.8807 47.5227 69.0511C46.8068 69.2216 45.9489 69.3295 44.9489 69.375C42.9943 69.4659 41.3182 69.2386 39.9205 68.6932C38.5341 68.1364 37.4716 67.2727 36.733 66.1023C36.0057 64.9318 35.6534 63.4602 35.6761 61.6875V36.5455ZM105.298 46.7386H96.7756C96.6619 45.8636 96.429 45.0739 96.0767 44.3693C95.7244 43.6648 95.2585 43.0625 94.679 42.5625C94.0994 42.0625 93.4119 41.6818 92.6165 41.4205C91.8324 41.1477 90.9631 41.0114 90.0085 41.0114C88.3153 41.0114 86.8551 41.4261 85.6278 42.2557C84.4119 43.0852 83.4744 44.2841 82.8153 45.8523C82.1676 47.4205 81.8438 49.3182 81.8438 51.5455C81.8438 53.8636 82.1733 55.8068 82.8324 57.375C83.5028 58.9318 84.4403 60.108 85.6449 60.9034C86.8608 61.6875 88.2983 62.0795 89.9574 62.0795C90.8892 62.0795 91.7358 61.9602 92.4972 61.7216C93.2699 61.483 93.946 61.1364 94.5256 60.6818C95.1165 60.2159 95.5994 59.6534 95.9744 58.9943C96.3608 58.3239 96.6278 57.5682 96.7756 56.7273L105.298 56.7784C105.151 58.3239 104.702 59.8466 103.952 61.3466C103.213 62.8466 102.196 64.2159 100.901 65.4545C99.6051 66.6818 98.0256 67.6591 96.1619 68.3864C94.3097 69.1136 92.1847 69.4773 89.7869 69.4773C86.6278 69.4773 83.7983 68.7841 81.2983 67.3977C78.8097 66 76.8438 63.9659 75.4006 61.2955C73.9574 58.625 73.2358 55.375 73.2358 51.5455C73.2358 47.7045 73.9688 44.4489 75.4347 41.7784C76.9006 39.108 78.8835 37.0795 81.3835 35.6932C83.8835 34.3068 86.6847 33.6136 89.7869 33.6136C91.9006 33.6136 93.8551 33.9091 95.6506 34.5C97.446 35.0795 99.0256 35.9318 100.389 37.0568C101.753 38.1705 102.861 39.5398 103.713 41.1648C104.565 42.7898 105.094 44.6477 105.298 46.7386ZM122.348 69.4943C119.598 69.4943 117.234 68.9318 115.257 67.8068C113.291 66.6705 111.774 65.0909 110.706 63.0682C109.649 61.0341 109.121 58.6761 109.121 55.9943C109.121 53.3011 109.649 50.9432 110.706 48.9205C111.774 46.8864 113.291 45.3068 115.257 44.1818C117.234 43.0455 119.598 42.4773 122.348 42.4773C125.098 42.4773 127.456 43.0455 129.422 44.1818C131.399 45.3068 132.916 46.8864 133.973 48.9205C135.041 50.9432 135.575 53.3011 135.575 55.9943C135.575 58.6761 135.041 61.0341 133.973 63.0682C132.916 65.0909 131.399 66.6705 129.422 67.8068C127.456 68.9318 125.098 69.4943 122.348 69.4943ZM122.399 63.2045C123.399 63.2045 124.246 62.8977 124.939 62.2841C125.632 61.6705 126.161 60.8182 126.524 59.7273C126.899 58.6364 127.087 57.375 127.087 55.9432C127.087 54.4886 126.899 53.2159 126.524 52.125C126.161 51.0341 125.632 50.1818 124.939 49.5682C124.246 48.9545 123.399 48.6477 122.399 48.6477C121.365 48.6477 120.49 48.9545 119.774 49.5682C119.07 50.1818 118.53 51.0341 118.155 52.125C117.791 53.2159 117.609 54.4886 117.609 55.9432C117.609 57.375 117.791 58.6364 118.155 59.7273C118.53 60.8182 119.07 61.6705 119.774 62.2841C120.49 62.8977 121.365 63.2045 122.399 63.2045ZM148.18 34.0909V69H139.845V34.0909H148.18ZM165.707 69.4943C162.957 69.4943 160.594 68.9318 158.616 67.8068C156.651 66.6705 155.134 65.0909 154.065 63.0682C153.009 61.0341 152.48 58.6761 152.48 55.9943C152.48 53.3011 153.009 50.9432 154.065 48.9205C155.134 46.8864 156.651 45.3068 158.616 44.1818C160.594 43.0455 162.957 42.4773 165.707 42.4773C168.457 42.4773 170.815 43.0455 172.781 44.1818C174.759 45.3068 176.276 46.8864 177.332 48.9205C178.401 50.9432 178.935 53.3011 178.935 55.9943C178.935 58.6761 178.401 61.0341 177.332 63.0682C176.276 65.0909 174.759 66.6705 172.781 67.8068C170.815 68.9318 168.457 69.4943 165.707 69.4943ZM165.759 63.2045C166.759 63.2045 167.605 62.8977 168.298 62.2841C168.991 61.6705 169.52 60.8182 169.884 59.7273C170.259 58.6364 170.446 57.375 170.446 55.9432C170.446 54.4886 170.259 53.2159 169.884 52.125C169.52 51.0341 168.991 50.1818 168.298 49.5682C167.605 48.9545 166.759 48.6477 165.759 48.6477C164.724 48.6477 163.849 48.9545 163.134 49.5682C162.429 50.1818 161.889 51.0341 161.514 52.125C161.151 53.2159 160.969 54.4886 160.969 55.9432C160.969 57.375 161.151 58.6364 161.514 59.7273C161.889 60.8182 162.429 61.6705 163.134 62.2841C163.849 62.8977 164.724 63.2045 165.759 63.2045ZM200.097 57.6989V42.8182H208.415V69H200.472V64.125H200.199C199.619 65.7273 198.631 67 197.233 67.9432C195.847 68.875 194.17 69.3409 192.205 69.3409C190.42 69.3409 188.852 68.9318 187.5 68.1136C186.148 67.2955 185.097 66.1534 184.347 64.6875C183.597 63.2102 183.216 61.483 183.205 59.5057V42.8182H191.54V57.8693C191.551 59.2898 191.926 60.4091 192.665 61.2273C193.403 62.0455 194.409 62.4545 195.682 62.4545C196.511 62.4545 197.256 62.2727 197.915 61.9091C198.585 61.5341 199.114 60.9943 199.5 60.2898C199.898 59.5739 200.097 58.7102 200.097 57.6989ZM213.72 69V42.8182H221.817V47.5909H222.089C222.567 45.8636 223.345 44.5795 224.425 43.7386C225.504 42.8864 226.76 42.4602 228.192 42.4602C228.578 42.4602 228.976 42.4886 229.385 42.5455C229.794 42.5909 230.175 42.6648 230.527 42.767V50.0114C230.129 49.875 229.607 49.767 228.959 49.6875C228.322 49.608 227.754 49.5682 227.254 49.5682C226.266 49.5682 225.374 49.7898 224.578 50.233C223.794 50.6648 223.175 51.2727 222.72 52.0568C222.277 52.8295 222.055 53.7386 222.055 54.7841V69H213.72Z"/>
</mask>
<path d="M2.64205 69V34.0909H17.0625C19.6761 34.0909 21.9318 34.6023 23.8295 35.625C25.7386 36.6364 27.2102 38.0511 28.2443 39.8693C29.2784 41.6761 29.7955 43.7784 29.7955 46.1761C29.7955 48.5852 29.267 50.6932 28.2102 52.5C27.1648 54.2955 25.6705 55.6875 23.7273 56.6761C21.7841 57.6648 19.4773 58.1591 16.8068 58.1591H7.90909V51.5114H15.2386C16.5114 51.5114 17.5739 51.2898 18.4261 50.8466C19.2898 50.4034 19.9432 49.7841 20.3864 48.9886C20.8295 48.1818 21.0511 47.2443 21.0511 46.1761C21.0511 45.0966 20.8295 44.1648 20.3864 43.3807C19.9432 42.5852 19.2898 41.9716 18.4261 41.5398C17.5625 41.108 16.5 40.892 15.2386 40.892H11.0795V69H2.64205ZM48.733 42.8182V48.9545H32.2159V42.8182H48.733ZM35.6761 36.5455H44.0114V60.767C44.0114 61.2784 44.0909 61.6932 44.25 62.0114C44.4205 62.3182 44.6648 62.5398 44.983 62.6761C45.3011 62.8011 45.6818 62.8636 46.125 62.8636C46.4432 62.8636 46.7784 62.8352 47.1307 62.7784C47.4943 62.7102 47.767 62.6534 47.9489 62.608L49.2102 68.625C48.8125 68.7386 48.25 68.8807 47.5227 69.0511C46.8068 69.2216 45.9489 69.3295 44.9489 69.375C42.9943 69.4659 41.3182 69.2386 39.9205 68.6932C38.5341 68.1364 37.4716 67.2727 36.733 66.1023C36.0057 64.9318 35.6534 63.4602 35.6761 61.6875V36.5455ZM105.298 46.7386H96.7756C96.6619 45.8636 96.429 45.0739 96.0767 44.3693C95.7244 43.6648 95.2585 43.0625 94.679 42.5625C94.0994 42.0625 93.4119 41.6818 92.6165 41.4205C91.8324 41.1477 90.9631 41.0114 90.0085 41.0114C88.3153 41.0114 86.8551 41.4261 85.6278 42.2557C84.4119 43.0852 83.4744 44.2841 82.8153 45.8523C82.1676 47.4205 81.8438 49.3182 81.8438 51.5455C81.8438 53.8636 82.1733 55.8068 82.8324 57.375C83.5028 58.9318 84.4403 60.108 85.6449 60.9034C86.8608 61.6875 88.2983 62.0795 89.9574 62.0795C90.8892 62.0795 91.7358 61.9602 92.4972 61.7216C93.2699 61.483 93.946 61.1364 94.5256 60.6818C95.1165 60.2159 95.5994 59.6534 95.9744 58.9943C96.3608 58.3239 96.6278 57.5682 96.7756 56.7273L105.298 56.7784C105.151 58.3239 104.702 59.8466 103.952 61.3466C103.213 62.8466 102.196 64.2159 100.901 65.4545C99.6051 66.6818 98.0256 67.6591 96.1619 68.3864C94.3097 69.1136 92.1847 69.4773 89.7869 69.4773C86.6278 69.4773 83.7983 68.7841 81.2983 67.3977C78.8097 66 76.8438 63.9659 75.4006 61.2955C73.9574 58.625 73.2358 55.375 73.2358 51.5455C73.2358 47.7045 73.9688 44.4489 75.4347 41.7784C76.9006 39.108 78.8835 37.0795 81.3835 35.6932C83.8835 34.3068 86.6847 33.6136 89.7869 33.6136C91.9006 33.6136 93.8551 33.9091 95.6506 34.5C97.446 35.0795 99.0256 35.9318 100.389 37.0568C101.753 38.1705 102.861 39.5398 103.713 41.1648C104.565 42.7898 105.094 44.6477 105.298 46.7386ZM122.348 69.4943C119.598 69.4943 117.234 68.9318 115.257 67.8068C113.291 66.6705 111.774 65.0909 110.706 63.0682C109.649 61.0341 109.121 58.6761 109.121 55.9943C109.121 53.3011 109.649 50.9432 110.706 48.9205C111.774 46.8864 113.291 45.3068 115.257 44.1818C117.234 43.0455 119.598 42.4773 122.348 42.4773C125.098 42.4773 127.456 43.0455 129.422 44.1818C131.399 45.3068 132.916 46.8864 133.973 48.9205C135.041 50.9432 135.575 53.3011 135.575 55.9943C135.575 58.6761 135.041 61.0341 133.973 63.0682C132.916 65.0909 131.399 66.6705 129.422 67.8068C127.456 68.9318 125.098 69.4943 122.348 69.4943ZM122.399 63.2045C123.399 63.2045 124.246 62.8977 124.939 62.2841C125.632 61.6705 126.161 60.8182 126.524 59.7273C126.899 58.6364 127.087 57.375 127.087 55.9432C127.087 54.4886 126.899 53.2159 126.524 52.125C126.161 51.0341 125.632 50.1818 124.939 49.5682C124.246 48.9545 123.399 48.6477 122.399 48.6477C121.365 48.6477 120.49 48.9545 119.774 49.5682C119.07 50.1818 118.53 51.0341 118.155 52.125C117.791 53.2159 117.609 54.4886 117.609 55.9432C117.609 57.375 117.791 58.6364 118.155 59.7273C118.53 60.8182 119.07 61.6705 119.774 62.2841C120.49 62.8977 121.365 63.2045 122.399 63.2045ZM148.18 34.0909V69H139.845V34.0909H148.18ZM165.707 69.4943C162.957 69.4943 160.594 68.9318 158.616 67.8068C156.651 66.6705 155.134 65.0909 154.065 63.0682C153.009 61.0341 152.48 58.6761 152.48 55.9943C152.48 53.3011 153.009 50.9432 154.065 48.9205C155.134 46.8864 156.651 45.3068 158.616 44.1818C160.594 43.0455 162.957 42.4773 165.707 42.4773C168.457 42.4773 170.815 43.0455 172.781 44.1818C174.759 45.3068 176.276 46.8864 177.332 48.9205C178.401 50.9432 178.935 53.3011 178.935 55.9943C178.935 58.6761 178.401 61.0341 177.332 63.0682C176.276 65.0909 174.759 66.6705 172.781 67.8068C170.815 68.9318 168.457 69.4943 165.707 69.4943ZM165.759 63.2045C166.759 63.2045 167.605 62.8977 168.298 62.2841C168.991 61.6705 169.52 60.8182 169.884 59.7273C170.259 58.6364 170.446 57.375 170.446 55.9432C170.446 54.4886 170.259 53.2159 169.884 52.125C169.52 51.0341 168.991 50.1818 168.298 49.5682C167.605 48.9545 166.759 48.6477 165.759 48.6477C164.724 48.6477 163.849 48.9545 163.134 49.5682C162.429 50.1818 161.889 51.0341 161.514 52.125C161.151 53.2159 160.969 54.4886 160.969 55.9432C160.969 57.375 161.151 58.6364 161.514 59.7273C161.889 60.8182 162.429 61.6705 163.134 62.2841C163.849 62.8977 164.724 63.2045 165.759 63.2045ZM200.097 57.6989V42.8182H208.415V69H200.472V64.125H200.199C199.619 65.7273 198.631 67 197.233 67.9432C195.847 68.875 194.17 69.3409 192.205 69.3409C190.42 69.3409 188.852 68.9318 187.5 68.1136C186.148 67.2955 185.097 66.1534 184.347 64.6875C183.597 63.2102 183.216 61.483 183.205 59.5057V42.8182H191.54V57.8693C191.551 59.2898 191.926 60.4091 192.665 61.2273C193.403 62.0455 194.409 62.4545 195.682 62.4545C196.511 62.4545 197.256 62.2727 197.915 61.9091C198.585 61.5341 199.114 60.9943 199.5 60.2898C199.898 59.5739 200.097 58.7102 200.097 57.6989ZM213.72 69V42.8182H221.817V47.5909H222.089C222.567 45.8636 223.345 44.5795 224.425 43.7386C225.504 42.8864 226.76 42.4602 228.192 42.4602C228.578 42.4602 228.976 42.4886 229.385 42.5455C229.794 42.5909 230.175 42.6648 230.527 42.767V50.0114C230.129 49.875 229.607 49.767 228.959 49.6875C228.322 49.608 227.754 49.5682 227.254 49.5682C226.266 49.5682 225.374 49.7898 224.578 50.233C223.794 50.6648 223.175 51.2727 222.72 52.0568C222.277 52.8295 222.055 53.7386 222.055 54.7841V69H213.72Z" fill="#002855"/>
<path d="M2.64205 69H1.64205V70H2.64205V69ZM2.64205 34.0909V33.0909H1.64205V34.0909H2.64205ZM23.8295 35.625L23.3551 36.5053L23.3614 36.5087L23.8295 35.625ZM28.2443 39.8693L27.3751 40.3637L27.3764 40.366L28.2443 39.8693ZM28.2102 52.5L27.347 51.9951L27.3461 51.9968L28.2102 52.5ZM23.7273 56.6761L24.1807 57.5674L24.1807 57.5674L23.7273 56.6761ZM7.90909 58.1591H6.90909V59.1591H7.90909V58.1591ZM7.90909 51.5114V50.5114H6.90909V51.5114H7.90909ZM18.4261 50.8466L17.9696 49.9569L17.9648 49.9594L18.4261 50.8466ZM20.3864 48.9886L21.2599 49.4753L21.2628 49.4701L20.3864 48.9886ZM20.3864 43.3807L19.5128 43.8674L19.5158 43.8727L20.3864 43.3807ZM18.4261 41.5398L17.9789 42.4342L17.9789 42.4342L18.4261 41.5398ZM11.0795 40.892V39.892H10.0795V40.892H11.0795ZM11.0795 69V70H12.0795V69H11.0795ZM3.64205 69V34.0909H1.64205V69H3.64205ZM2.64205 35.0909H17.0625V33.0909H2.64205V35.0909ZM17.0625 35.0909C19.5454 35.0909 21.6311 35.5762 23.3551 36.5053L24.304 34.7447C22.2325 33.6284 19.8069 33.0909 17.0625 33.0909V35.0909ZM23.3614 36.5087C25.1083 37.4341 26.4382 38.7164 27.3751 40.3637L29.1136 39.3749C27.9823 37.3859 26.3689 35.8386 24.2977 34.7413L23.3614 36.5087ZM27.3764 40.366C28.3115 42 28.7955 43.9259 28.7955 46.1761H30.7955C30.7955 43.6309 30.2453 41.3523 29.1122 39.3726L27.3764 40.366ZM28.7955 46.1761C28.7955 48.435 28.3015 50.3633 27.347 51.9951L29.0734 53.0049C30.2326 51.023 30.7955 48.7355 30.7955 46.1761H28.7955ZM27.3461 51.9968C26.4022 53.6177 25.0545 54.8789 23.2738 55.7849L24.1807 57.5674C26.2864 56.4961 27.9273 54.9732 29.0744 53.0032L27.3461 51.9968ZM23.2738 55.7849C21.4992 56.6877 19.3546 57.1591 16.8068 57.1591V59.1591C19.6 59.1591 22.069 58.6418 24.1807 57.5674L23.2738 55.7849ZM16.8068 57.1591H7.90909V59.1591H16.8068V57.1591ZM8.90909 58.1591V51.5114H6.90909V58.1591H8.90909ZM7.90909 52.5114H15.2386V50.5114H7.90909V52.5114ZM15.2386 52.5114C16.6218 52.5114 17.854 52.2712 18.8875 51.7338L17.9648 49.9594C17.2937 50.3083 16.4009 50.5114 15.2386 50.5114V52.5114ZM18.8827 51.7363C19.9099 51.2092 20.7141 50.455 21.2599 49.4753L19.5128 48.5019C19.1722 49.1132 18.6697 49.5976 17.9696 49.9569L18.8827 51.7363ZM21.2628 49.4701C21.7992 48.4936 22.0511 47.3854 22.0511 46.1761H20.0511C20.0511 47.1032 19.8599 47.87 19.5099 48.5072L21.2628 49.4701ZM22.0511 46.1761C22.0511 44.9584 21.8003 43.8501 21.2569 42.8886L19.5158 43.8727C19.8587 44.4795 20.0511 45.2348 20.0511 46.1761H22.0511ZM21.2599 42.894C20.7128 41.912 19.9054 41.1614 18.8733 40.6453L17.9789 42.4342C18.6741 42.7818 19.1736 43.2585 19.5128 43.8674L21.2599 42.894ZM18.8734 40.6453C17.835 40.1262 16.6095 39.892 15.2386 39.892V41.892C16.3905 41.892 17.29 42.0897 17.9789 42.4342L18.8734 40.6453ZM15.2386 39.892H11.0795V41.892H15.2386V39.892ZM10.0795 40.892V69H12.0795V40.892H10.0795ZM11.0795 68H2.64205V70H11.0795V68ZM48.733 42.8182H49.733V41.8182H48.733V42.8182ZM48.733 48.9545V49.9545H49.733V48.9545H48.733ZM32.2159 48.9545H31.2159V49.9545H32.2159V48.9545ZM32.2159 42.8182V41.8182H31.2159V42.8182H32.2159ZM35.6761 36.5455V35.5455H34.6761V36.5455H35.6761ZM44.0114 36.5455H45.0114V35.5455H44.0114V36.5455ZM44.25 62.0114L43.3556 62.4586L43.3653 62.478L43.3758 62.497L44.25 62.0114ZM44.983 62.6761L44.589 63.5953L44.6031 63.6013L44.6173 63.6069L44.983 62.6761ZM47.1307 62.7784L47.2899 63.7656L47.3025 63.7636L47.315 63.7613L47.1307 62.7784ZM47.9489 62.608L48.9276 62.4028L48.7144 61.3858L47.7063 61.6378L47.9489 62.608ZM49.2102 68.625L49.4849 69.5865L50.3799 69.3308L50.189 68.4198L49.2102 68.625ZM47.5227 69.0511L47.2945 68.0775L47.2911 68.0783L47.5227 69.0511ZM44.9489 69.375L44.9035 68.376L44.9024 68.3761L44.9489 69.375ZM39.9205 68.6932L39.5477 69.6212L39.5569 69.6248L39.9205 68.6932ZM36.733 66.1023L35.8835 66.6301L35.8873 66.636L36.733 66.1023ZM35.6761 61.6875L36.6761 61.7003V61.6875H35.6761ZM47.733 42.8182V48.9545H49.733V42.8182H47.733ZM48.733 47.9545H32.2159V49.9545H48.733V47.9545ZM33.2159 48.9545V42.8182H31.2159V48.9545H33.2159ZM32.2159 43.8182H48.733V41.8182H32.2159V43.8182ZM35.6761 37.5455H44.0114V35.5455H35.6761V37.5455ZM43.0114 36.5455V60.767H45.0114V36.5455H43.0114ZM43.0114 60.767C43.0114 61.3705 43.1034 61.9543 43.3556 62.4586L45.1444 61.5641C45.0784 61.432 45.0114 61.1864 45.0114 60.767H43.0114ZM43.3758 62.497C43.6523 62.9946 44.0641 63.3703 44.589 63.5953L45.3769 61.757C45.2654 61.7092 45.1886 61.6417 45.1242 61.5257L43.3758 62.497ZM44.6173 63.6069C45.0808 63.789 45.592 63.8636 46.125 63.8636V61.8636C45.7717 61.8636 45.5214 61.8133 45.3486 61.7454L44.6173 63.6069ZM46.125 63.8636C46.5025 63.8636 46.8912 63.83 47.2899 63.7656L46.9714 61.7912C46.6656 61.8405 46.3839 61.8636 46.125 61.8636V63.8636ZM47.315 63.7613C47.6832 63.6922 47.9797 63.631 48.1914 63.5781L47.7063 61.6378C47.5544 61.6758 47.3054 61.7282 46.9464 61.7955L47.315 63.7613ZM46.9701 62.8131L48.2315 68.8302L50.189 68.4198L48.9276 62.4028L46.9701 62.8131ZM48.9355 67.6635C48.5608 67.7705 48.0165 67.9083 47.2945 68.0775L47.7509 70.0248C48.4835 69.853 49.0642 69.7067 49.4849 69.5865L48.9355 67.6635ZM47.2911 68.0783C46.6537 68.2301 45.8615 68.3325 44.9035 68.376L44.9943 70.374C46.0363 70.3266 46.96 70.2131 47.7543 70.0239L47.2911 68.0783ZM44.9024 68.3761C43.0471 68.4624 41.518 68.2432 40.284 67.7616L39.5569 69.6248C41.1183 70.2341 42.9416 70.4694 44.9953 70.3739L44.9024 68.3761ZM40.2932 67.7652C39.0856 67.2802 38.1959 66.5468 37.5786 65.5686L35.8873 66.636C36.7472 67.9987 37.9826 68.9925 39.5478 69.6211L40.2932 67.7652ZM37.5823 65.5745C36.981 64.6067 36.6551 63.3362 36.6761 61.7003L34.6762 61.6747C34.6517 63.5842 35.0304 65.257 35.8836 66.63L37.5823 65.5745ZM36.6761 61.6875V36.5455H34.6761V61.6875H36.6761ZM105.298 46.7386V47.7386H106.401L106.294 46.6413L105.298 46.7386ZM96.7756 46.7386L95.7839 46.8674L95.897 47.7386H96.7756V46.7386ZM96.0767 44.3693L95.1823 44.8165L95.1823 44.8165L96.0767 44.3693ZM94.679 42.5625L95.3322 41.8053L95.3322 41.8053L94.679 42.5625ZM92.6165 41.4205L92.288 42.365L92.2961 42.3678L92.3043 42.3705L92.6165 41.4205ZM85.6278 42.2557L85.0678 41.4272L85.0643 41.4296L85.6278 42.2557ZM82.8153 45.8523L81.8934 45.4648L81.8911 45.4705L82.8153 45.8523ZM82.8324 57.375L81.9105 57.7625L81.9139 57.7705L82.8324 57.375ZM85.6449 60.9034L85.0938 61.7379L85.1029 61.7438L85.6449 60.9034ZM92.4972 61.7216L92.2021 60.7661L92.1981 60.7674L92.4972 61.7216ZM94.5256 60.6818L95.1427 61.4687L95.1447 61.4671L94.5256 60.6818ZM95.9744 58.9943L95.108 58.495L95.1053 58.4998L95.9744 58.9943ZM96.7756 56.7273L96.7816 55.7273L95.9368 55.7222L95.7907 56.5542L96.7756 56.7273ZM105.298 56.7784L106.294 56.8736L106.398 55.785L105.304 55.7784L105.298 56.7784ZM103.952 61.3466L103.057 60.8994L103.055 60.9048L103.952 61.3466ZM100.901 65.4545L101.588 66.1805L101.592 66.1773L100.901 65.4545ZM96.1619 68.3864L95.7984 67.4548L95.7965 67.4555L96.1619 68.3864ZM81.2983 67.3977L80.8086 68.2696L80.8133 68.2723L81.2983 67.3977ZM75.4006 61.2955L76.2803 60.82L75.4006 61.2955ZM75.4347 41.7784L74.558 41.2972L74.558 41.2972L75.4347 41.7784ZM95.6506 34.5L95.3379 35.4499L95.3434 35.4517L95.6506 34.5ZM100.389 37.0568L99.7528 37.8282L99.7567 37.8313L100.389 37.0568ZM105.298 45.7386H96.7756V47.7386H105.298V45.7386ZM97.7672 46.6098C97.6409 45.6372 97.379 44.7379 96.9711 43.9221L95.1823 44.8165C95.4789 45.4099 95.6829 46.0901 95.7839 46.8674L97.7672 46.6098ZM96.9711 43.9221C96.5615 43.1028 96.0148 42.3942 95.3322 41.8053L94.0257 43.3197C94.5023 43.7308 94.8874 44.2267 95.1823 44.8165L96.9711 43.9221ZM95.3322 41.8053C94.6438 41.2114 93.8376 40.7691 92.9286 40.4704L92.3043 42.3705C92.9863 42.5946 93.5551 42.9136 94.0257 43.3197L95.3322 41.8053ZM92.945 40.476C92.0408 40.1614 91.0584 40.0114 90.0085 40.0114V42.0114C90.8677 42.0114 91.624 42.134 92.288 42.365L92.945 40.476ZM90.0085 40.0114C88.1452 40.0114 86.4833 40.4704 85.0678 41.4272L86.1878 43.0842C87.2269 42.3818 88.4855 42.0114 90.0085 42.0114V40.0114ZM85.0643 41.4296C83.6656 42.3839 82.6153 43.7473 81.8935 45.4648L83.7372 46.2397C84.3335 44.8209 85.1583 43.7866 86.1914 43.0817L85.0643 41.4296ZM81.8911 45.4705C81.1804 47.1912 80.8438 49.2261 80.8438 51.5455H82.8438C82.8438 49.4103 83.1549 47.6497 83.7396 46.234L81.8911 45.4705ZM80.8438 51.5455C80.8438 53.9514 81.1848 56.0358 81.9105 57.7625L83.7543 56.9875C83.1618 55.5778 82.8438 53.7759 82.8438 51.5455H80.8438ZM81.9139 57.7705C82.6478 59.4745 83.7 60.8174 85.0938 61.7379L86.1959 60.0689C85.1807 59.3985 84.3579 58.3891 83.7508 56.9795L81.9139 57.7705ZM85.1029 61.7438C86.5031 62.6467 88.135 63.0795 89.9574 63.0795V61.0795C88.4616 61.0795 87.2185 60.7283 86.1868 60.063L85.1029 61.7438ZM89.9574 63.0795C90.974 63.0795 91.9234 62.9494 92.7962 62.6758L92.1981 60.7674C91.5482 60.9711 90.8044 61.0795 89.9574 61.0795V63.0795ZM92.7922 62.6771C93.6703 62.4059 94.458 62.0057 95.1427 61.4687L93.9084 59.895C93.434 60.267 92.8695 60.56 92.2021 60.7661L92.7922 62.6771ZM95.1447 61.4671C95.8377 60.9207 96.4053 60.2592 96.8436 59.4888L95.1053 58.4998C94.7936 59.0476 94.3952 59.5112 93.9064 59.8965L95.1447 61.4671ZM96.8409 59.4936C97.2911 58.7122 97.5947 57.8442 97.7605 56.9003L95.7907 56.5542C95.661 57.2922 95.4304 57.9355 95.108 58.495L96.8409 59.4936ZM96.7696 57.7273L105.292 57.7784L105.304 55.7784L96.7816 55.7273L96.7696 57.7273ZM104.303 56.6833C104.168 58.0966 103.757 59.5006 103.057 60.8994L104.846 61.7938C105.647 60.1926 106.133 58.5511 106.294 56.8736L104.303 56.6833ZM103.055 60.9048C102.371 62.2925 101.426 63.5682 100.209 64.7318L101.592 66.1773C102.966 64.8636 104.055 63.4007 104.849 61.7884L103.055 60.9048ZM100.213 64.7286C99.0218 65.8569 97.5562 66.7688 95.7984 67.4548L96.5255 69.3179C98.4949 68.5494 100.188 67.5067 101.588 66.1805L100.213 64.7286ZM95.7965 67.4555C94.0818 68.1288 92.0846 68.4773 89.7869 68.4773V70.4773C92.2848 70.4773 94.5375 70.0985 96.5274 69.3172L95.7965 67.4555ZM89.7869 68.4773C86.7793 68.4773 84.1197 67.8189 81.7833 66.5232L80.8133 68.2723C83.4769 69.7493 86.4764 70.4773 89.7869 70.4773V68.4773ZM81.788 66.5258C79.4749 65.2267 77.6396 63.3351 76.2803 60.82L74.5208 61.7709C76.0479 64.5967 78.1445 66.7733 80.8086 68.2696L81.788 66.5258ZM76.2803 60.82C74.9341 58.3289 74.2358 55.2515 74.2358 51.5455H72.2358C72.2358 55.4985 72.9807 58.9211 74.5208 61.7709L76.2803 60.82ZM74.2358 51.5455C74.2358 47.8297 74.9448 44.749 76.3113 42.2596L74.558 41.2972C72.9927 44.1488 72.2358 47.5794 72.2358 51.5455H74.2358ZM76.3113 42.2596C77.6926 39.7432 79.5445 37.8565 81.8685 36.5677L80.8986 34.8186C78.2225 36.3026 76.1085 38.4727 74.558 41.2972L76.3113 42.2596ZM81.8685 36.5677C84.2076 35.2706 86.8395 34.6136 89.7869 34.6136V32.6136C86.5298 32.6136 83.5594 33.3431 80.8986 34.8186L81.8685 36.5677ZM89.7869 34.6136C91.8068 34.6136 93.6545 34.8958 95.338 35.4499L95.9632 33.5501C94.0557 32.9223 91.9944 32.6136 89.7869 32.6136V34.6136ZM95.3434 35.4517C97.0269 35.9951 98.493 36.7888 99.7528 37.8282L101.026 36.2854C99.5582 35.0748 97.8652 34.164 95.9577 33.5483L95.3434 35.4517ZM99.7567 37.8313C101.012 38.8561 102.035 40.1185 102.827 41.6292L104.599 40.7003C103.686 38.9611 102.494 37.4848 101.022 36.2823L99.7567 37.8313ZM102.827 41.6292C103.612 43.1248 104.109 44.8549 104.303 46.836L106.294 46.6413C106.078 44.4405 105.519 42.4548 104.599 40.7003L102.827 41.6292ZM115.257 67.8068L114.757 68.6726L114.763 68.676L115.257 67.8068ZM110.706 63.0682L109.819 63.5292L109.822 63.5352L110.706 63.0682ZM110.706 48.9205L109.821 48.4555L109.82 48.4574L110.706 48.9205ZM115.257 44.1818L115.754 45.0498L115.755 45.0488L115.257 44.1818ZM129.422 44.1818L128.921 45.0476L128.927 45.051L129.422 44.1818ZM133.973 48.9205L133.086 49.3815L133.089 49.3874L133.973 48.9205ZM133.973 63.0682L133.088 62.6032L133.087 62.6051L133.973 63.0682ZM129.422 67.8068L129.919 68.6748L129.92 68.6738L129.422 67.8068ZM124.939 62.2841L124.276 61.5353L124.276 61.5353L124.939 62.2841ZM126.524 59.7273L125.578 59.4022L125.575 59.411L126.524 59.7273ZM126.524 52.125L125.575 52.4412L125.578 52.4501L126.524 52.125ZM124.939 49.5682L125.602 48.8194L125.602 48.8194L124.939 49.5682ZM119.774 49.5682L119.123 48.8089L119.117 48.8141L119.774 49.5682ZM118.155 52.125L117.209 51.7999L117.206 51.8088L118.155 52.125ZM118.155 59.7273L117.206 60.0435L117.209 60.0524L118.155 59.7273ZM119.774 62.2841L119.117 63.0382L119.123 63.0433L119.774 62.2841ZM122.348 68.4943C119.735 68.4943 117.55 67.9607 115.752 66.9377L114.763 68.676C116.919 69.903 119.461 70.4943 122.348 70.4943V68.4943ZM115.758 66.941C113.956 65.8996 112.571 64.4588 111.59 62.6012L109.822 63.5352C110.977 65.723 112.627 67.4413 114.757 68.6726L115.758 66.941ZM111.593 62.6071C110.622 60.7379 110.121 58.5429 110.121 55.9943H108.121C108.121 58.8093 108.676 61.3303 109.819 63.5292L111.593 62.6071ZM110.121 55.9943C110.121 53.4334 110.623 51.2397 111.592 49.3835L109.82 48.4574C108.676 50.6467 108.121 53.1689 108.121 55.9943H110.121ZM111.591 49.3854C112.572 47.5173 113.956 46.0787 115.754 45.0498L114.76 43.3139C112.627 44.5349 110.976 46.2554 109.821 48.4555L111.591 49.3854ZM115.755 45.0488C117.553 44.0159 119.737 43.4773 122.348 43.4773V41.4773C119.459 41.4773 116.916 42.075 114.759 43.3148L115.755 45.0488ZM122.348 43.4773C124.959 43.4773 127.137 44.016 128.921 45.0476L129.922 43.316C127.775 42.0749 125.237 41.4773 122.348 41.4773V43.4773ZM128.927 45.051C130.736 46.0799 132.117 47.5171 133.086 49.3815L134.86 48.4594C133.715 46.2556 132.063 44.5338 129.916 43.3127L128.927 45.051ZM133.089 49.3874C134.069 51.2427 134.575 53.435 134.575 55.9943H136.575C136.575 53.1672 136.014 50.6436 134.857 48.4535L133.089 49.3874ZM134.575 55.9943C134.575 58.5413 134.069 60.7348 133.088 62.6033L134.858 63.5331C136.014 61.3334 136.575 58.811 136.575 55.9943H134.575ZM133.087 62.6051C132.118 64.4591 130.736 65.8984 128.924 66.9398L129.92 68.6738C132.063 67.4425 133.714 65.7227 134.859 63.5313L133.087 62.6051ZM128.925 66.9389C127.14 67.9606 124.961 68.4943 122.348 68.4943V70.4943C125.235 70.4943 127.772 69.9031 129.919 68.6748L128.925 66.9389ZM122.399 64.2045C123.622 64.2045 124.71 63.8219 125.602 63.0329L124.276 61.5353C123.781 61.9736 123.176 62.2045 122.399 62.2045V64.2045ZM125.602 63.0329C126.455 62.2776 127.067 61.2612 127.473 60.0435L125.575 59.411C125.254 60.3751 124.809 61.0633 124.276 61.5353L125.602 63.0329ZM127.47 60.0524C127.888 58.8351 128.087 57.46 128.087 55.9432H126.087C126.087 57.29 125.91 58.4376 125.578 59.4022L127.47 60.0524ZM128.087 55.9432C128.087 54.4056 127.889 53.0187 127.47 51.7999L125.578 52.4501C125.91 53.4132 126.087 54.5717 126.087 55.9432H128.087ZM127.473 51.8088C127.067 50.5911 126.455 49.5747 125.602 48.8194L124.276 50.3169C124.809 50.789 125.254 51.4771 125.575 52.4412L127.473 51.8088ZM125.602 48.8194C124.71 48.0304 123.622 47.6477 122.399 47.6477V49.6477C123.176 49.6477 123.781 49.8787 124.276 50.3169L125.602 48.8194ZM122.399 47.6477C121.151 47.6477 120.038 48.0245 119.123 48.8089L120.425 50.3274C120.942 49.8846 121.579 49.6477 122.399 49.6477V47.6477ZM119.117 48.8141C118.253 49.5671 117.628 50.5818 117.209 51.7999L119.101 52.4501C119.432 51.4864 119.886 50.7966 120.431 50.3223L119.117 48.8141ZM117.206 51.8088C116.801 53.0245 116.609 54.4083 116.609 55.9432H118.609C118.609 54.569 118.781 53.4073 119.104 52.4412L117.206 51.8088ZM116.609 55.9432C116.609 57.4572 116.801 58.8292 117.206 60.0435L119.104 59.411C118.781 58.4436 118.609 57.2928 118.609 55.9432H116.609ZM117.209 60.0524C117.628 61.2705 118.253 62.2852 119.117 63.0382L120.431 61.53C119.886 61.0557 119.432 60.3658 119.101 59.4022L117.209 60.0524ZM119.123 63.0433C120.038 63.8278 121.151 64.2045 122.399 64.2045V62.2045C121.579 62.2045 120.942 61.9677 120.425 61.5248L119.123 63.0433ZM148.18 34.0909H149.18V33.0909H148.18V34.0909ZM148.18 69V70H149.18V69H148.18ZM139.845 69H138.845V70H139.845V69ZM139.845 34.0909V33.0909H138.845V34.0909H139.845ZM147.18 34.0909V69H149.18V34.0909H147.18ZM148.18 68H139.845V70H148.18V68ZM140.845 69V34.0909H138.845V69H140.845ZM139.845 35.0909H148.18V33.0909H139.845V35.0909ZM158.616 67.8068L158.116 68.6726L158.122 68.676L158.616 67.8068ZM154.065 63.0682L153.178 63.5292L153.181 63.5352L154.065 63.0682ZM154.065 48.9205L153.18 48.4555L153.179 48.4574L154.065 48.9205ZM158.616 44.1818L159.113 45.0498L159.115 45.0488L158.616 44.1818ZM172.781 44.1818L172.281 45.0476L172.287 45.051L172.781 44.1818ZM177.332 48.9205L176.445 49.3815L176.448 49.3874L177.332 48.9205ZM177.332 63.0682L176.447 62.6032L176.446 62.6051L177.332 63.0682ZM172.781 67.8068L173.278 68.6748L173.28 68.6738L172.781 67.8068ZM168.298 62.2841L167.635 61.5353L167.635 61.5353L168.298 62.2841ZM169.884 59.7273L168.938 59.4022L168.935 59.411L169.884 59.7273ZM169.884 52.125L168.935 52.4412L168.938 52.4501L169.884 52.125ZM168.298 49.5682L168.961 48.8194L168.961 48.8194L168.298 49.5682ZM163.134 49.5682L162.483 48.8089L162.477 48.8141L163.134 49.5682ZM161.514 52.125L160.568 51.7999L160.566 51.8088L161.514 52.125ZM161.514 59.7273L160.565 60.0435L160.569 60.0524L161.514 59.7273ZM163.134 62.2841L162.477 63.0382L162.483 63.0433L163.134 62.2841ZM165.707 68.4943C163.095 68.4943 160.909 67.9607 159.111 66.9377L158.122 68.676C160.278 69.903 162.82 70.4943 165.707 70.4943V68.4943ZM159.117 66.941C157.315 65.8996 155.931 64.4588 154.95 62.6012L153.181 63.5352C154.336 65.723 155.986 67.4413 158.116 68.6726L159.117 66.941ZM154.953 62.6071C153.982 60.7379 153.48 58.5429 153.48 55.9943H151.48C151.48 58.8093 152.036 61.3303 153.178 63.5292L154.953 62.6071ZM153.48 55.9943C153.48 53.4334 153.982 51.2397 154.952 49.3835L153.179 48.4574C152.035 50.6467 151.48 53.1689 151.48 55.9943H153.48ZM154.951 49.3854C155.932 47.5173 157.315 46.0787 159.113 45.0498L158.12 43.3139C155.986 44.5349 154.335 46.2554 153.18 48.4555L154.951 49.3854ZM159.115 45.0488C160.912 44.0159 163.096 43.4773 165.707 43.4773V41.4773C162.818 41.4773 160.275 42.075 158.118 43.3148L159.115 45.0488ZM165.707 43.4773C168.319 43.4773 170.496 44.016 172.281 45.0476L173.282 43.316C171.135 42.0749 168.596 41.4773 165.707 41.4773V43.4773ZM172.287 45.051C174.095 46.0799 175.476 47.5171 176.445 49.3815L178.22 48.4594C177.075 46.2556 175.422 44.5338 173.276 43.3127L172.287 45.051ZM176.448 49.3874C177.428 51.2427 177.935 53.435 177.935 55.9943H179.935C179.935 53.1672 179.373 50.6436 178.217 48.4535L176.448 49.3874ZM177.935 55.9943C177.935 58.5413 177.428 60.7348 176.447 62.6033L178.218 63.5331C179.373 61.3334 179.935 58.811 179.935 55.9943H177.935ZM176.446 62.6051C175.477 64.4591 174.095 65.8984 172.283 66.9398L173.28 68.6738C175.422 67.4425 177.074 65.7227 178.219 63.5313L176.446 62.6051ZM172.285 66.9389C170.499 67.9606 168.32 68.4943 165.707 68.4943V70.4943C168.594 70.4943 171.132 69.9031 173.278 68.6748L172.285 66.9389ZM165.759 64.2045C166.982 64.2045 168.07 63.8219 168.961 63.0329L167.635 61.5353C167.14 61.9736 166.536 62.2045 165.759 62.2045V64.2045ZM168.961 63.0329C169.814 62.2776 170.426 61.2612 170.832 60.0435L168.935 59.411C168.613 60.3751 168.169 61.0633 167.635 61.5353L168.961 63.0329ZM170.829 60.0524C171.248 58.8351 171.446 57.46 171.446 55.9432H169.446C169.446 57.29 169.269 58.4376 168.938 59.4022L170.829 60.0524ZM171.446 55.9432C171.446 54.4056 171.248 53.0187 170.829 51.7999L168.938 52.4501C169.269 53.4132 169.446 54.5717 169.446 55.9432H171.446ZM170.832 51.8088C170.426 50.5911 169.814 49.5747 168.961 48.8194L167.635 50.3169C168.169 50.789 168.613 51.4771 168.935 52.4412L170.832 51.8088ZM168.961 48.8194C168.07 48.0304 166.982 47.6477 165.759 47.6477V49.6477C166.536 49.6477 167.14 49.8787 167.635 50.3169L168.961 48.8194ZM165.759 47.6477C164.511 47.6477 163.398 48.0245 162.483 48.8089L163.784 50.3274C164.301 49.8846 164.938 49.6477 165.759 49.6477V47.6477ZM162.477 48.8141C161.612 49.5671 160.987 50.5818 160.569 51.7999L162.46 52.4501C162.791 51.4864 163.246 50.7966 163.79 50.3223L162.477 48.8141ZM160.566 51.8088C160.16 53.0245 159.969 54.4083 159.969 55.9432H161.969C161.969 54.569 162.141 53.4073 162.463 52.4412L160.566 51.8088ZM159.969 55.9432C159.969 57.4572 160.161 58.8292 160.566 60.0435L162.463 59.411C162.14 58.4436 161.969 57.2928 161.969 55.9432H159.969ZM160.569 60.0524C160.987 61.2705 161.612 62.2852 162.477 63.0382L163.79 61.53C163.246 61.0557 162.791 60.3658 162.46 59.4022L160.569 60.0524ZM162.483 63.0433C163.398 63.8278 164.511 64.2045 165.759 64.2045V62.2045C164.938 62.2045 164.301 61.9677 163.784 61.5248L162.483 63.0433ZM200.097 42.8182V41.8182H199.097V42.8182H200.097ZM208.415 42.8182H209.415V41.8182H208.415V42.8182ZM208.415 69V70H209.415V69H208.415ZM200.472 69H199.472V70H200.472V69ZM200.472 64.125H201.472V63.125H200.472V64.125ZM200.199 64.125V63.125H199.497L199.258 63.7849L200.199 64.125ZM197.233 67.9432L197.791 68.7731L197.792 68.7721L197.233 67.9432ZM187.5 68.1136L186.982 68.9692L186.982 68.9692L187.5 68.1136ZM184.347 64.6875L183.455 65.1402L183.456 65.143L184.347 64.6875ZM183.205 59.5057L182.205 59.5057L182.205 59.5114L183.205 59.5057ZM183.205 42.8182V41.8182H182.205V42.8182H183.205ZM191.54 42.8182H192.54V41.8182H191.54V42.8182ZM191.54 57.8693L190.54 57.8693L190.54 57.8773L191.54 57.8693ZM192.665 61.2273L193.407 60.5572L193.407 60.5572L192.665 61.2273ZM197.915 61.9091L198.398 62.7847L198.403 62.7818L197.915 61.9091ZM199.5 60.2898L198.626 59.8041L198.623 59.8089L199.5 60.2898ZM201.097 57.6989V42.8182H199.097V57.6989H201.097ZM200.097 43.8182H208.415V41.8182H200.097V43.8182ZM207.415 42.8182V69H209.415V42.8182H207.415ZM208.415 68H200.472V70H208.415V68ZM201.472 69V64.125H199.472V69H201.472ZM200.472 63.125H200.199V65.125H200.472V63.125ZM199.258 63.7849C198.75 65.1902 197.894 66.2909 196.674 67.1143L197.792 68.7721C199.368 67.7091 200.488 66.2643 201.139 64.4651L199.258 63.7849ZM196.675 67.1132C195.481 67.9157 194.008 68.3409 192.205 68.3409V70.3409C194.333 70.3409 196.212 69.8343 197.791 68.7731L196.675 67.1132ZM192.205 68.3409C190.579 68.3409 189.194 67.97 188.018 67.2581L186.982 68.9692C188.51 69.8936 190.262 70.3409 192.205 70.3409V68.3409ZM188.018 67.2581C186.831 66.5402 185.906 65.5398 185.237 64.232L183.456 65.143C184.287 66.767 185.464 68.0507 186.982 68.9692L188.018 67.2581ZM185.238 64.2348C184.571 62.9204 184.215 61.3516 184.205 59.4999L182.205 59.5114C182.217 61.6143 182.622 63.5 183.455 65.1402L185.238 64.2348ZM184.205 59.5057V42.8182H182.205V59.5057H184.205ZM183.205 43.8182H191.54V41.8182H183.205V43.8182ZM190.54 42.8182V57.8693H192.54V42.8182H190.54ZM190.54 57.8773C190.553 59.47 190.977 60.85 191.923 61.8974L193.407 60.5572C192.875 59.9682 192.55 59.1096 192.54 57.8613L190.54 57.8773ZM191.923 61.8974C192.881 62.9589 194.174 63.4545 195.682 63.4545V61.4545C194.644 61.4545 193.926 61.132 193.407 60.5572L191.923 61.8974ZM195.682 63.4545C196.663 63.4545 197.576 63.238 198.398 62.7847L197.432 61.0335C196.935 61.3074 196.36 61.4545 195.682 61.4545V63.4545ZM198.403 62.7818C199.245 62.3109 199.905 61.6317 200.377 60.7706L198.623 59.8089C198.323 60.3569 197.926 60.7572 197.427 61.0363L198.403 62.7818ZM200.374 60.7754C200.872 59.8799 201.097 58.8407 201.097 57.6989H199.097C199.097 58.5798 198.924 59.2678 198.626 59.8041L200.374 60.7754ZM213.72 69H212.72V70H213.72V69ZM213.72 42.8182V41.8182H212.72V42.8182H213.72ZM221.817 42.8182H222.817V41.8182H221.817V42.8182ZM221.817 47.5909H220.817V48.5909H221.817V47.5909ZM222.089 47.5909V48.5909H222.851L223.053 47.8572L222.089 47.5909ZM224.425 43.7386L225.039 44.5276L225.044 44.5235L224.425 43.7386ZM229.385 42.5455L229.247 43.5359L229.261 43.5378L229.275 43.5393L229.385 42.5455ZM230.527 42.767H231.527V42.0161L230.806 41.8067L230.527 42.767ZM230.527 50.0114L230.203 50.9573L231.527 51.4114V50.0114H230.527ZM228.959 49.6875L228.835 50.6798L228.837 50.68L228.959 49.6875ZM224.578 50.233L225.061 51.1089L225.065 51.1065L224.578 50.233ZM222.72 52.0568L221.855 51.5553L221.853 51.5593L222.72 52.0568ZM222.055 69V70H223.055V69H222.055ZM214.72 69V42.8182H212.72V69H214.72ZM213.72 43.8182H221.817V41.8182H213.72V43.8182ZM220.817 42.8182V47.5909H222.817V42.8182H220.817ZM221.817 48.5909H222.089V46.5909H221.817V48.5909ZM223.053 47.8572C223.491 46.2732 224.175 45.2006 225.039 44.5275L223.81 42.9497C222.515 43.9584 221.642 45.4541 221.126 47.3246L223.053 47.8572ZM225.044 44.5235C225.94 43.8166 226.975 43.4602 228.192 43.4602V41.4602C226.545 41.4602 225.069 41.9561 223.805 42.9538L225.044 44.5235ZM228.192 43.4602C228.529 43.4602 228.881 43.485 229.247 43.5359L229.523 41.555C229.071 41.4922 228.627 41.4602 228.192 41.4602V43.4602ZM229.275 43.5393C229.633 43.5792 229.957 43.6429 230.248 43.7274L230.806 41.8067C230.392 41.6866 229.955 41.6026 229.495 41.5516L229.275 43.5393ZM229.527 42.767V50.0114H231.527V42.767H229.527ZM230.851 49.0654C230.362 48.8978 229.764 48.7789 229.081 48.695L228.837 50.68C229.449 50.7552 229.896 50.8522 230.203 50.9573L230.851 49.0654ZM229.083 48.6952C228.416 48.6119 227.805 48.5682 227.254 48.5682V50.5682C227.703 50.5682 228.229 50.604 228.835 50.6798L229.083 48.6952ZM227.254 48.5682C226.11 48.5682 225.048 48.8263 224.091 49.3594L225.065 51.1065C225.699 50.7533 226.421 50.5682 227.254 50.5682V48.5682ZM224.096 49.357C223.15 49.8777 222.4 50.616 221.855 51.5553L223.585 52.5583C223.95 51.9295 224.438 51.4519 225.061 51.1089L224.096 49.357ZM221.853 51.5593C221.309 52.5079 221.055 53.5946 221.055 54.7841H223.055C223.055 53.8827 223.245 53.1512 223.588 52.5543L221.853 51.5593ZM221.055 54.7841V69H223.055V54.7841H221.055ZM222.055 68H213.72V70H222.055V68Z" fill="black" mask="url(#path-1-outside-1_139_533)"/>
<path d="M2.64205 69H1.64205V70H2.64205V69ZM2.64205 34.0909V33.0909H1.64205V34.0909H2.64205ZM23.8295 35.625L23.3551 36.5053L23.3614 36.5087L23.8295 35.625ZM28.2443 39.8693L27.3751 40.3637L27.3764 40.366L28.2443 39.8693ZM28.2102 52.5L27.347 51.9951L27.3461 51.9968L28.2102 52.5ZM23.7273 56.6761L24.1807 57.5674L24.1807 57.5674L23.7273 56.6761ZM7.90909 58.1591H6.90909V59.1591H7.90909V58.1591ZM7.90909 51.5114V50.5114H6.90909V51.5114H7.90909ZM18.4261 50.8466L17.9696 49.9569L17.9648 49.9594L18.4261 50.8466ZM20.3864 48.9886L21.2599 49.4753L21.2628 49.4701L20.3864 48.9886ZM20.3864 43.3807L19.5128 43.8674L19.5158 43.8727L20.3864 43.3807ZM18.4261 41.5398L17.9789 42.4342L17.9789 42.4342L18.4261 41.5398ZM11.0795 40.892V39.892H10.0795V40.892H11.0795ZM11.0795 69V70H12.0795V69H11.0795ZM3.64205 69V34.0909H1.64205V69H3.64205ZM2.64205 35.0909H17.0625V33.0909H2.64205V35.0909ZM17.0625 35.0909C19.5454 35.0909 21.6311 35.5762 23.3551 36.5053L24.304 34.7447C22.2325 33.6284 19.8069 33.0909 17.0625 33.0909V35.0909ZM23.3614 36.5087C25.1083 37.4341 26.4382 38.7164 27.3751 40.3637L29.1136 39.3749C27.9823 37.3859 26.3689 35.8386 24.2977 34.7413L23.3614 36.5087ZM27.3764 40.366C28.3115 42 28.7955 43.9259 28.7955 46.1761H30.7955C30.7955 43.6309 30.2453 41.3523 29.1122 39.3726L27.3764 40.366ZM28.7955 46.1761C28.7955 48.435 28.3015 50.3633 27.347 51.9951L29.0734 53.0049C30.2326 51.023 30.7955 48.7355 30.7955 46.1761H28.7955ZM27.3461 51.9968C26.4022 53.6177 25.0545 54.8789 23.2738 55.7849L24.1807 57.5674C26.2864 56.4961 27.9273 54.9732 29.0744 53.0032L27.3461 51.9968ZM23.2738 55.7849C21.4992 56.6877 19.3546 57.1591 16.8068 57.1591V59.1591C19.6 59.1591 22.069 58.6418 24.1807 57.5674L23.2738 55.7849ZM16.8068 57.1591H7.90909V59.1591H16.8068V57.1591ZM8.90909 58.1591V51.5114H6.90909V58.1591H8.90909ZM7.90909 52.5114H15.2386V50.5114H7.90909V52.5114ZM15.2386 52.5114C16.6218 52.5114 17.854 52.2712 18.8875 51.7338L17.9648 49.9594C17.2937 50.3083 16.4009 50.5114 15.2386 50.5114V52.5114ZM18.8827 51.7363C19.9099 51.2092 20.7141 50.455 21.2599 49.4753L19.5128 48.5019C19.1722 49.1132 18.6697 49.5976 17.9696 49.9569L18.8827 51.7363ZM21.2628 49.4701C21.7992 48.4936 22.0511 47.3854 22.0511 46.1761H20.0511C20.0511 47.1032 19.8599 47.87 19.5099 48.5072L21.2628 49.4701ZM22.0511 46.1761C22.0511 44.9584 21.8003 43.8501 21.2569 42.8886L19.5158 43.8727C19.8587 44.4795 20.0511 45.2348 20.0511 46.1761H22.0511ZM21.2599 42.894C20.7128 41.912 19.9054 41.1614 18.8733 40.6453L17.9789 42.4342C18.6741 42.7818 19.1736 43.2585 19.5128 43.8674L21.2599 42.894ZM18.8734 40.6453C17.835 40.1262 16.6095 39.892 15.2386 39.892V41.892C16.3905 41.892 17.29 42.0897 17.9789 42.4342L18.8734 40.6453ZM15.2386 39.892H11.0795V41.892H15.2386V39.892ZM10.0795 40.892V69H12.0795V40.892H10.0795ZM11.0795 68H2.64205V70H11.0795V68ZM48.733 42.8182H49.733V41.8182H48.733V42.8182ZM48.733 48.9545V49.9545H49.733V48.9545H48.733ZM32.2159 48.9545H31.2159V49.9545H32.2159V48.9545ZM32.2159 42.8182V41.8182H31.2159V42.8182H32.2159ZM35.6761 36.5455V35.5455H34.6761V36.5455H35.6761ZM44.0114 36.5455H45.0114V35.5455H44.0114V36.5455ZM44.25 62.0114L43.3556 62.4586L43.3653 62.478L43.3758 62.497L44.25 62.0114ZM44.983 62.6761L44.589 63.5953L44.6031 63.6013L44.6173 63.6069L44.983 62.6761ZM47.1307 62.7784L47.2899 63.7656L47.3025 63.7636L47.315 63.7613L47.1307 62.7784ZM47.9489 62.608L48.9276 62.4028L48.7144 61.3858L47.7063 61.6378L47.9489 62.608ZM49.2102 68.625L49.4849 69.5865L50.3799 69.3308L50.189 68.4198L49.2102 68.625ZM47.5227 69.0511L47.2945 68.0775L47.2911 68.0783L47.5227 69.0511ZM44.9489 69.375L44.9035 68.376L44.9024 68.3761L44.9489 69.375ZM39.9205 68.6932L39.5477 69.6212L39.5569 69.6248L39.9205 68.6932ZM36.733 66.1023L35.8835 66.6301L35.8873 66.636L36.733 66.1023ZM35.6761 61.6875L36.6761 61.7003V61.6875H35.6761ZM47.733 42.8182V48.9545H49.733V42.8182H47.733ZM48.733 47.9545H32.2159V49.9545H48.733V47.9545ZM33.2159 48.9545V42.8182H31.2159V48.9545H33.2159ZM32.2159 43.8182H48.733V41.8182H32.2159V43.8182ZM35.6761 37.5455H44.0114V35.5455H35.6761V37.5455ZM43.0114 36.5455V60.767H45.0114V36.5455H43.0114ZM43.0114 60.767C43.0114 61.3705 43.1034 61.9543 43.3556 62.4586L45.1444 61.5641C45.0784 61.432 45.0114 61.1864 45.0114 60.767H43.0114ZM43.3758 62.497C43.6523 62.9946 44.0641 63.3703 44.589 63.5953L45.3769 61.757C45.2654 61.7092 45.1886 61.6417 45.1242 61.5257L43.3758 62.497ZM44.6173 63.6069C45.0808 63.789 45.592 63.8636 46.125 63.8636V61.8636C45.7717 61.8636 45.5214 61.8133 45.3486 61.7454L44.6173 63.6069ZM46.125 63.8636C46.5025 63.8636 46.8912 63.83 47.2899 63.7656L46.9714 61.7912C46.6656 61.8405 46.3839 61.8636 46.125 61.8636V63.8636ZM47.315 63.7613C47.6832 63.6922 47.9797 63.631 48.1914 63.5781L47.7063 61.6378C47.5544 61.6758 47.3054 61.7282 46.9464 61.7955L47.315 63.7613ZM46.9701 62.8131L48.2315 68.8302L50.189 68.4198L48.9276 62.4028L46.9701 62.8131ZM48.9355 67.6635C48.5608 67.7705 48.0165 67.9083 47.2945 68.0775L47.7509 70.0248C48.4835 69.853 49.0642 69.7067 49.4849 69.5865L48.9355 67.6635ZM47.2911 68.0783C46.6537 68.2301 45.8615 68.3325 44.9035 68.376L44.9943 70.374C46.0363 70.3266 46.96 70.2131 47.7543 70.0239L47.2911 68.0783ZM44.9024 68.3761C43.0471 68.4624 41.518 68.2432 40.284 67.7616L39.5569 69.6248C41.1183 70.2341 42.9416 70.4694 44.9953 70.3739L44.9024 68.3761ZM40.2932 67.7652C39.0856 67.2802 38.1959 66.5468 37.5786 65.5686L35.8873 66.636C36.7472 67.9987 37.9826 68.9925 39.5478 69.6211L40.2932 67.7652ZM37.5823 65.5745C36.981 64.6067 36.6551 63.3362 36.6761 61.7003L34.6762 61.6747C34.6517 63.5842 35.0304 65.257 35.8836 66.63L37.5823 65.5745ZM36.6761 61.6875V36.5455H34.6761V61.6875H36.6761ZM105.298 46.7386V47.7386H106.401L106.294 46.6413L105.298 46.7386ZM96.7756 46.7386L95.7839 46.8674L95.897 47.7386H96.7756V46.7386ZM96.0767 44.3693L95.1823 44.8165L95.1823 44.8165L96.0767 44.3693ZM94.679 42.5625L95.3322 41.8053L95.3322 41.8053L94.679 42.5625ZM92.6165 41.4205L92.288 42.365L92.2961 42.3678L92.3043 42.3705L92.6165 41.4205ZM85.6278 42.2557L85.0678 41.4272L85.0643 41.4296L85.6278 42.2557ZM82.8153 45.8523L81.8934 45.4648L81.8911 45.4705L82.8153 45.8523ZM82.8324 57.375L81.9105 57.7625L81.9139 57.7705L82.8324 57.375ZM85.6449 60.9034L85.0938 61.7379L85.1029 61.7438L85.6449 60.9034ZM92.4972 61.7216L92.2021 60.7661L92.1981 60.7674L92.4972 61.7216ZM94.5256 60.6818L95.1427 61.4687L95.1447 61.4671L94.5256 60.6818ZM95.9744 58.9943L95.108 58.495L95.1053 58.4998L95.9744 58.9943ZM96.7756 56.7273L96.7816 55.7273L95.9368 55.7222L95.7907 56.5542L96.7756 56.7273ZM105.298 56.7784L106.294 56.8736L106.398 55.785L105.304 55.7784L105.298 56.7784ZM103.952 61.3466L103.057 60.8994L103.055 60.9048L103.952 61.3466ZM100.901 65.4545L101.588 66.1805L101.592 66.1773L100.901 65.4545ZM96.1619 68.3864L95.7984 67.4548L95.7965 67.4555L96.1619 68.3864ZM81.2983 67.3977L80.8086 68.2696L80.8133 68.2723L81.2983 67.3977ZM75.4006 61.2955L76.2803 60.82L75.4006 61.2955ZM75.4347 41.7784L74.558 41.2972L74.558 41.2972L75.4347 41.7784ZM95.6506 34.5L95.3379 35.4499L95.3434 35.4517L95.6506 34.5ZM100.389 37.0568L99.7528 37.8282L99.7567 37.8313L100.389 37.0568ZM105.298 45.7386H96.7756V47.7386H105.298V45.7386ZM97.7672 46.6098C97.6409 45.6372 97.379 44.7379 96.9711 43.9221L95.1823 44.8165C95.4789 45.4099 95.6829 46.0901 95.7839 46.8674L97.7672 46.6098ZM96.9711 43.9221C96.5615 43.1028 96.0148 42.3942 95.3322 41.8053L94.0257 43.3197C94.5023 43.7308 94.8874 44.2267 95.1823 44.8165L96.9711 43.9221ZM95.3322 41.8053C94.6438 41.2114 93.8376 40.7691 92.9286 40.4704L92.3043 42.3705C92.9863 42.5946 93.5551 42.9136 94.0257 43.3197L95.3322 41.8053ZM92.945 40.476C92.0408 40.1614 91.0584 40.0114 90.0085 40.0114V42.0114C90.8677 42.0114 91.624 42.134 92.288 42.365L92.945 40.476ZM90.0085 40.0114C88.1452 40.0114 86.4833 40.4704 85.0678 41.4272L86.1878 43.0842C87.2269 42.3818 88.4855 42.0114 90.0085 42.0114V40.0114ZM85.0643 41.4296C83.6656 42.3839 82.6153 43.7473 81.8935 45.4648L83.7372 46.2397C84.3335 44.8209 85.1583 43.7866 86.1914 43.0817L85.0643 41.4296ZM81.8911 45.4705C81.1804 47.1912 80.8438 49.2261 80.8438 51.5455H82.8438C82.8438 49.4103 83.1549 47.6497 83.7396 46.234L81.8911 45.4705ZM80.8438 51.5455C80.8438 53.9514 81.1848 56.0358 81.9105 57.7625L83.7543 56.9875C83.1618 55.5778 82.8438 53.7759 82.8438 51.5455H80.8438ZM81.9139 57.7705C82.6478 59.4745 83.7 60.8174 85.0938 61.7379L86.1959 60.0689C85.1807 59.3985 84.3579 58.3891 83.7508 56.9795L81.9139 57.7705ZM85.1029 61.7438C86.5031 62.6467 88.135 63.0795 89.9574 63.0795V61.0795C88.4616 61.0795 87.2185 60.7283 86.1868 60.063L85.1029 61.7438ZM89.9574 63.0795C90.974 63.0795 91.9234 62.9494 92.7962 62.6758L92.1981 60.7674C91.5482 60.9711 90.8044 61.0795 89.9574 61.0795V63.0795ZM92.7922 62.6771C93.6703 62.4059 94.458 62.0057 95.1427 61.4687L93.9084 59.895C93.434 60.267 92.8695 60.56 92.2021 60.7661L92.7922 62.6771ZM95.1447 61.4671C95.8377 60.9207 96.4053 60.2592 96.8436 59.4888L95.1053 58.4998C94.7936 59.0476 94.3952 59.5112 93.9064 59.8965L95.1447 61.4671ZM96.8409 59.4936C97.2911 58.7122 97.5947 57.8442 97.7605 56.9003L95.7907 56.5542C95.661 57.2922 95.4304 57.9355 95.108 58.495L96.8409 59.4936ZM96.7696 57.7273L105.292 57.7784L105.304 55.7784L96.7816 55.7273L96.7696 57.7273ZM104.303 56.6833C104.168 58.0966 103.757 59.5006 103.057 60.8994L104.846 61.7938C105.647 60.1926 106.133 58.5511 106.294 56.8736L104.303 56.6833ZM103.055 60.9048C102.371 62.2925 101.426 63.5682 100.209 64.7318L101.592 66.1773C102.966 64.8636 104.055 63.4007 104.849 61.7884L103.055 60.9048ZM100.213 64.7286C99.0218 65.8569 97.5562 66.7688 95.7984 67.4548L96.5255 69.3179C98.4949 68.5494 100.188 67.5067 101.588 66.1805L100.213 64.7286ZM95.7965 67.4555C94.0818 68.1288 92.0846 68.4773 89.7869 68.4773V70.4773C92.2848 70.4773 94.5375 70.0985 96.5274 69.3172L95.7965 67.4555ZM89.7869 68.4773C86.7793 68.4773 84.1197 67.8189 81.7833 66.5232L80.8133 68.2723C83.4769 69.7493 86.4764 70.4773 89.7869 70.4773V68.4773ZM81.788 66.5258C79.4749 65.2267 77.6396 63.3351 76.2803 60.82L74.5208 61.7709C76.0479 64.5967 78.1445 66.7733 80.8086 68.2696L81.788 66.5258ZM76.2803 60.82C74.9341 58.3289 74.2358 55.2515 74.2358 51.5455H72.2358C72.2358 55.4985 72.9807 58.9211 74.5208 61.7709L76.2803 60.82ZM74.2358 51.5455C74.2358 47.8297 74.9448 44.749 76.3113 42.2596L74.558 41.2972C72.9927 44.1488 72.2358 47.5794 72.2358 51.5455H74.2358ZM76.3113 42.2596C77.6926 39.7432 79.5445 37.8565 81.8685 36.5677L80.8986 34.8186C78.2225 36.3026 76.1085 38.4727 74.558 41.2972L76.3113 42.2596ZM81.8685 36.5677C84.2076 35.2706 86.8395 34.6136 89.7869 34.6136V32.6136C86.5298 32.6136 83.5594 33.3431 80.8986 34.8186L81.8685 36.5677ZM89.7869 34.6136C91.8068 34.6136 93.6545 34.8958 95.338 35.4499L95.9632 33.5501C94.0557 32.9223 91.9944 32.6136 89.7869 32.6136V34.6136ZM95.3434 35.4517C97.0269 35.9951 98.493 36.7888 99.7528 37.8282L101.026 36.2854C99.5582 35.0748 97.8652 34.164 95.9577 33.5483L95.3434 35.4517ZM99.7567 37.8313C101.012 38.8561 102.035 40.1185 102.827 41.6292L104.599 40.7003C103.686 38.9611 102.494 37.4848 101.022 36.2823L99.7567 37.8313ZM102.827 41.6292C103.612 43.1248 104.109 44.8549 104.303 46.836L106.294 46.6413C106.078 44.4405 105.519 42.4548 104.599 40.7003L102.827 41.6292ZM115.257 67.8068L114.757 68.6726L114.763 68.676L115.257 67.8068ZM110.706 63.0682L109.819 63.5292L109.822 63.5352L110.706 63.0682ZM110.706 48.9205L109.821 48.4555L109.82 48.4574L110.706 48.9205ZM115.257 44.1818L115.754 45.0498L115.755 45.0488L115.257 44.1818ZM129.422 44.1818L128.921 45.0476L128.927 45.051L129.422 44.1818ZM133.973 48.9205L133.086 49.3815L133.089 49.3874L133.973 48.9205ZM133.973 63.0682L133.088 62.6032L133.087 62.6051L133.973 63.0682ZM129.422 67.8068L129.919 68.6748L129.92 68.6738L129.422 67.8068ZM124.939 62.2841L124.276 61.5353L124.276 61.5353L124.939 62.2841ZM126.524 59.7273L125.578 59.4022L125.575 59.411L126.524 59.7273ZM126.524 52.125L125.575 52.4412L125.578 52.4501L126.524 52.125ZM124.939 49.5682L125.602 48.8194L125.602 48.8194L124.939 49.5682ZM119.774 49.5682L119.123 48.8089L119.117 48.8141L119.774 49.5682ZM118.155 52.125L117.209 51.7999L117.206 51.8088L118.155 52.125ZM118.155 59.7273L117.206 60.0435L117.209 60.0524L118.155 59.7273ZM119.774 62.2841L119.117 63.0382L119.123 63.0433L119.774 62.2841ZM122.348 68.4943C119.735 68.4943 117.55 67.9607 115.752 66.9377L114.763 68.676C116.919 69.903 119.461 70.4943 122.348 70.4943V68.4943ZM115.758 66.941C113.956 65.8996 112.571 64.4588 111.59 62.6012L109.822 63.5352C110.977 65.723 112.627 67.4413 114.757 68.6726L115.758 66.941ZM111.593 62.6071C110.622 60.7379 110.121 58.5429 110.121 55.9943H108.121C108.121 58.8093 108.676 61.3303 109.819 63.5292L111.593 62.6071ZM110.121 55.9943C110.121 53.4334 110.623 51.2397 111.592 49.3835L109.82 48.4574C108.676 50.6467 108.121 53.1689 108.121 55.9943H110.121ZM111.591 49.3854C112.572 47.5173 113.956 46.0787 115.754 45.0498L114.76 43.3139C112.627 44.5349 110.976 46.2554 109.821 48.4555L111.591 49.3854ZM115.755 45.0488C117.553 44.0159 119.737 43.4773 122.348 43.4773V41.4773C119.459 41.4773 116.916 42.075 114.759 43.3148L115.755 45.0488ZM122.348 43.4773C124.959 43.4773 127.137 44.016 128.921 45.0476L129.922 43.316C127.775 42.0749 125.237 41.4773 122.348 41.4773V43.4773ZM128.927 45.051C130.736 46.0799 132.117 47.5171 133.086 49.3815L134.86 48.4594C133.715 46.2556 132.063 44.5338 129.916 43.3127L128.927 45.051ZM133.089 49.3874C134.069 51.2427 134.575 53.435 134.575 55.9943H136.575C136.575 53.1672 136.014 50.6436 134.857 48.4535L133.089 49.3874ZM134.575 55.9943C134.575 58.5413 134.069 60.7348 133.088 62.6033L134.858 63.5331C136.014 61.3334 136.575 58.811 136.575 55.9943H134.575ZM133.087 62.6051C132.118 64.4591 130.736 65.8984 128.924 66.9398L129.92 68.6738C132.063 67.4425 133.714 65.7227 134.859 63.5313L133.087 62.6051ZM128.925 66.9389C127.14 67.9606 124.961 68.4943 122.348 68.4943V70.4943C125.235 70.4943 127.772 69.9031 129.919 68.6748L128.925 66.9389ZM122.399 64.2045C123.622 64.2045 124.71 63.8219 125.602 63.0329L124.276 61.5353C123.781 61.9736 123.176 62.2045 122.399 62.2045V64.2045ZM125.602 63.0329C126.455 62.2776 127.067 61.2612 127.473 60.0435L125.575 59.411C125.254 60.3751 124.809 61.0633 124.276 61.5353L125.602 63.0329ZM127.47 60.0524C127.888 58.8351 128.087 57.46 128.087 55.9432H126.087C126.087 57.29 125.91 58.4376 125.578 59.4022L127.47 60.0524ZM128.087 55.9432C128.087 54.4056 127.889 53.0187 127.47 51.7999L125.578 52.4501C125.91 53.4132 126.087 54.5717 126.087 55.9432H128.087ZM127.473 51.8088C127.067 50.5911 126.455 49.5747 125.602 48.8194L124.276 50.3169C124.809 50.789 125.254 51.4771 125.575 52.4412L127.473 51.8088ZM125.602 48.8194C124.71 48.0304 123.622 47.6477 122.399 47.6477V49.6477C123.176 49.6477 123.781 49.8787 124.276 50.3169L125.602 48.8194ZM122.399 47.6477C121.151 47.6477 120.038 48.0245 119.123 48.8089L120.425 50.3274C120.942 49.8846 121.579 49.6477 122.399 49.6477V47.6477ZM119.117 48.8141C118.253 49.5671 117.628 50.5818 117.209 51.7999L119.101 52.4501C119.432 51.4864 119.886 50.7966 120.431 50.3223L119.117 48.8141ZM117.206 51.8088C116.801 53.0245 116.609 54.4083 116.609 55.9432H118.609C118.609 54.569 118.781 53.4073 119.104 52.4412L117.206 51.8088ZM116.609 55.9432C116.609 57.4572 116.801 58.8292 117.206 60.0435L119.104 59.411C118.781 58.4436 118.609 57.2928 118.609 55.9432H116.609ZM117.209 60.0524C117.628 61.2705 118.253 62.2852 119.117 63.0382L120.431 61.53C119.886 61.0557 119.432 60.3658 119.101 59.4022L117.209 60.0524ZM119.123 63.0433C120.038 63.8278 121.151 64.2045 122.399 64.2045V62.2045C121.579 62.2045 120.942 61.9677 120.425 61.5248L119.123 63.0433ZM148.18 34.0909H149.18V33.0909H148.18V34.0909ZM148.18 69V70H149.18V69H148.18ZM139.845 69H138.845V70H139.845V69ZM139.845 34.0909V33.0909H138.845V34.0909H139.845ZM147.18 34.0909V69H149.18V34.0909H147.18ZM148.18 68H139.845V70H148.18V68ZM140.845 69V34.0909H138.845V69H140.845ZM139.845 35.0909H148.18V33.0909H139.845V35.0909ZM158.616 67.8068L158.116 68.6726L158.122 68.676L158.616 67.8068ZM154.065 63.0682L153.178 63.5292L153.181 63.5352L154.065 63.0682ZM154.065 48.9205L153.18 48.4555L153.179 48.4574L154.065 48.9205ZM158.616 44.1818L159.113 45.0498L159.115 45.0488L158.616 44.1818ZM172.781 44.1818L172.281 45.0476L172.287 45.051L172.781 44.1818ZM177.332 48.9205L176.445 49.3815L176.448 49.3874L177.332 48.9205ZM177.332 63.0682L176.447 62.6032L176.446 62.6051L177.332 63.0682ZM172.781 67.8068L173.278 68.6748L173.28 68.6738L172.781 67.8068ZM168.298 62.2841L167.635 61.5353L167.635 61.5353L168.298 62.2841ZM169.884 59.7273L168.938 59.4022L168.935 59.411L169.884 59.7273ZM169.884 52.125L168.935 52.4412L168.938 52.4501L169.884 52.125ZM168.298 49.5682L168.961 48.8194L168.961 48.8194L168.298 49.5682ZM163.134 49.5682L162.483 48.8089L162.477 48.8141L163.134 49.5682ZM161.514 52.125L160.568 51.7999L160.566 51.8088L161.514 52.125ZM161.514 59.7273L160.565 60.0435L160.569 60.0524L161.514 59.7273ZM163.134 62.2841L162.477 63.0382L162.483 63.0433L163.134 62.2841ZM165.707 68.4943C163.095 68.4943 160.909 67.9607 159.111 66.9377L158.122 68.676C160.278 69.903 162.82 70.4943 165.707 70.4943V68.4943ZM159.117 66.941C157.315 65.8996 155.931 64.4588 154.95 62.6012L153.181 63.5352C154.336 65.723 155.986 67.4413 158.116 68.6726L159.117 66.941ZM154.953 62.6071C153.982 60.7379 153.48 58.5429 153.48 55.9943H151.48C151.48 58.8093 152.036 61.3303 153.178 63.5292L154.953 62.6071ZM153.48 55.9943C153.48 53.4334 153.982 51.2397 154.952 49.3835L153.179 48.4574C152.035 50.6467 151.48 53.1689 151.48 55.9943H153.48ZM154.951 49.3854C155.932 47.5173 157.315 46.0787 159.113 45.0498L158.12 43.3139C155.986 44.5349 154.335 46.2554 153.18 48.4555L154.951 49.3854ZM159.115 45.0488C160.912 44.0159 163.096 43.4773 165.707 43.4773V41.4773C162.818 41.4773 160.275 42.075 158.118 43.3148L159.115 45.0488ZM165.707 43.4773C168.319 43.4773 170.496 44.016 172.281 45.0476L173.282 43.316C171.135 42.0749 168.596 41.4773 165.707 41.4773V43.4773ZM172.287 45.051C174.095 46.0799 175.476 47.5171 176.445 49.3815L178.22 48.4594C177.075 46.2556 175.422 44.5338 173.276 43.3127L172.287 45.051ZM176.448 49.3874C177.428 51.2427 177.935 53.435 177.935 55.9943H179.935C179.935 53.1672 179.373 50.6436 178.217 48.4535L176.448 49.3874ZM177.935 55.9943C177.935 58.5413 177.428 60.7348 176.447 62.6033L178.218 63.5331C179.373 61.3334 179.935 58.811 179.935 55.9943H177.935ZM176.446 62.6051C175.477 64.4591 174.095 65.8984 172.283 66.9398L173.28 68.6738C175.422 67.4425 177.074 65.7227 178.219 63.5313L176.446 62.6051ZM172.285 66.9389C170.499 67.9606 168.32 68.4943 165.707 68.4943V70.4943C168.594 70.4943 171.132 69.9031 173.278 68.6748L172.285 66.9389ZM165.759 64.2045C166.982 64.2045 168.07 63.8219 168.961 63.0329L167.635 61.5353C167.14 61.9736 166.536 62.2045 165.759 62.2045V64.2045ZM168.961 63.0329C169.814 62.2776 170.426 61.2612 170.832 60.0435L168.935 59.411C168.613 60.3751 168.169 61.0633 167.635 61.5353L168.961 63.0329ZM170.829 60.0524C171.248 58.8351 171.446 57.46 171.446 55.9432H169.446C169.446 57.29 169.269 58.4376 168.938 59.4022L170.829 60.0524ZM171.446 55.9432C171.446 54.4056 171.248 53.0187 170.829 51.7999L168.938 52.4501C169.269 53.4132 169.446 54.5717 169.446 55.9432H171.446ZM170.832 51.8088C170.426 50.5911 169.814 49.5747 168.961 48.8194L167.635 50.3169C168.169 50.789 168.613 51.4771 168.935 52.4412L170.832 51.8088ZM168.961 48.8194C168.07 48.0304 166.982 47.6477 165.759 47.6477V49.6477C166.536 49.6477 167.14 49.8787 167.635 50.3169L168.961 48.8194ZM165.759 47.6477C164.511 47.6477 163.398 48.0245 162.483 48.8089L163.784 50.3274C164.301 49.8846 164.938 49.6477 165.759 49.6477V47.6477ZM162.477 48.8141C161.612 49.5671 160.987 50.5818 160.569 51.7999L162.46 52.4501C162.791 51.4864 163.246 50.7966 163.79 50.3223L162.477 48.8141ZM160.566 51.8088C160.16 53.0245 159.969 54.4083 159.969 55.9432H161.969C161.969 54.569 162.141 53.4073 162.463 52.4412L160.566 51.8088ZM159.969 55.9432C159.969 57.4572 160.161 58.8292 160.566 60.0435L162.463 59.411C162.14 58.4436 161.969 57.2928 161.969 55.9432H159.969ZM160.569 60.0524C160.987 61.2705 161.612 62.2852 162.477 63.0382L163.79 61.53C163.246 61.0557 162.791 60.3658 162.46 59.4022L160.569 60.0524ZM162.483 63.0433C163.398 63.8278 164.511 64.2045 165.759 64.2045V62.2045C164.938 62.2045 164.301 61.9677 163.784 61.5248L162.483 63.0433ZM200.097 42.8182V41.8182H199.097V42.8182H200.097ZM208.415 42.8182H209.415V41.8182H208.415V42.8182ZM208.415 69V70H209.415V69H208.415ZM200.472 69H199.472V70H200.472V69ZM200.472 64.125H201.472V63.125H200.472V64.125ZM200.199 64.125V63.125H199.497L199.258 63.7849L200.199 64.125ZM197.233 67.9432L197.791 68.7731L197.792 68.7721L197.233 67.9432ZM187.5 68.1136L186.982 68.9692L186.982 68.9692L187.5 68.1136ZM184.347 64.6875L183.455 65.1402L183.456 65.143L184.347 64.6875ZM183.205 59.5057L182.205 59.5057L182.205 59.5114L183.205 59.5057ZM183.205 42.8182V41.8182H182.205V42.8182H183.205ZM191.54 42.8182H192.54V41.8182H191.54V42.8182ZM191.54 57.8693L190.54 57.8693L190.54 57.8773L191.54 57.8693ZM192.665 61.2273L193.407 60.5572L193.407 60.5572L192.665 61.2273ZM197.915 61.9091L198.398 62.7847L198.403 62.7818L197.915 61.9091ZM199.5 60.2898L198.626 59.8041L198.623 59.8089L199.5 60.2898ZM201.097 57.6989V42.8182H199.097V57.6989H201.097ZM200.097 43.8182H208.415V41.8182H200.097V43.8182ZM207.415 42.8182V69H209.415V42.8182H207.415ZM208.415 68H200.472V70H208.415V68ZM201.472 69V64.125H199.472V69H201.472ZM200.472 63.125H200.199V65.125H200.472V63.125ZM199.258 63.7849C198.75 65.1902 197.894 66.2909 196.674 67.1143L197.792 68.7721C199.368 67.7091 200.488 66.2643 201.139 64.4651L199.258 63.7849ZM196.675 67.1132C195.481 67.9157 194.008 68.3409 192.205 68.3409V70.3409C194.333 70.3409 196.212 69.8343 197.791 68.7731L196.675 67.1132ZM192.205 68.3409C190.579 68.3409 189.194 67.97 188.018 67.2581L186.982 68.9692C188.51 69.8936 190.262 70.3409 192.205 70.3409V68.3409ZM188.018 67.2581C186.831 66.5402 185.906 65.5398 185.237 64.232L183.456 65.143C184.287 66.767 185.464 68.0507 186.982 68.9692L188.018 67.2581ZM185.238 64.2348C184.571 62.9204 184.215 61.3516 184.205 59.4999L182.205 59.5114C182.217 61.6143 182.622 63.5 183.455 65.1402L185.238 64.2348ZM184.205 59.5057V42.8182H182.205V59.5057H184.205ZM183.205 43.8182H191.54V41.8182H183.205V43.8182ZM190.54 42.8182V57.8693H192.54V42.8182H190.54ZM190.54 57.8773C190.553 59.47 190.977 60.85 191.923 61.8974L193.407 60.5572C192.875 59.9682 192.55 59.1096 192.54 57.8613L190.54 57.8773ZM191.923 61.8974C192.881 62.9589 194.174 63.4545 195.682 63.4545V61.4545C194.644 61.4545 193.926 61.132 193.407 60.5572L191.923 61.8974ZM195.682 63.4545C196.663 63.4545 197.576 63.238 198.398 62.7847L197.432 61.0335C196.935 61.3074 196.36 61.4545 195.682 61.4545V63.4545ZM198.403 62.7818C199.245 62.3109 199.905 61.6317 200.377 60.7706L198.623 59.8089C198.323 60.3569 197.926 60.7572 197.427 61.0363L198.403 62.7818ZM200.374 60.7754C200.872 59.8799 201.097 58.8407 201.097 57.6989H199.097C199.097 58.5798 198.924 59.2678 198.626 59.8041L200.374 60.7754ZM213.72 69H212.72V70H213.72V69ZM213.72 42.8182V41.8182H212.72V42.8182H213.72ZM221.817 42.8182H222.817V41.8182H221.817V42.8182ZM221.817 47.5909H220.817V48.5909H221.817V47.5909ZM222.089 47.5909V48.5909H222.851L223.053 47.8572L222.089 47.5909ZM224.425 43.7386L225.039 44.5276L225.044 44.5235L224.425 43.7386ZM229.385 42.5455L229.247 43.5359L229.261 43.5378L229.275 43.5393L229.385 42.5455ZM230.527 42.767H231.527V42.0161L230.806 41.8067L230.527 42.767ZM230.527 50.0114L230.203 50.9573L231.527 51.4114V50.0114H230.527ZM228.959 49.6875L228.835 50.6798L228.837 50.68L228.959 49.6875ZM224.578 50.233L225.061 51.1089L225.065 51.1065L224.578 50.233ZM222.72 52.0568L221.855 51.5553L221.853 51.5593L222.72 52.0568ZM222.055 69V70H223.055V69H222.055ZM214.72 69V42.8182H212.72V69H214.72ZM213.72 43.8182H221.817V41.8182H213.72V43.8182ZM220.817 42.8182V47.5909H222.817V42.8182H220.817ZM221.817 48.5909H222.089V46.5909H221.817V48.5909ZM223.053 47.8572C223.491 46.2732 224.175 45.2006 225.039 44.5275L223.81 42.9497C222.515 43.9584 221.642 45.4541 221.126 47.3246L223.053 47.8572ZM225.044 44.5235C225.94 43.8166 226.975 43.4602 228.192 43.4602V41.4602C226.545 41.4602 225.069 41.9561 223.805 42.9538L225.044 44.5235ZM228.192 43.4602C228.529 43.4602 228.881 43.485 229.247 43.5359L229.523 41.555C229.071 41.4922 228.627 41.4602 228.192 41.4602V43.4602ZM229.275 43.5393C229.633 43.5792 229.957 43.6429 230.248 43.7274L230.806 41.8067C230.392 41.6866 229.955 41.6026 229.495 41.5516L229.275 43.5393ZM229.527 42.767V50.0114H231.527V42.767H229.527ZM230.851 49.0654C230.362 48.8978 229.764 48.7789 229.081 48.695L228.837 50.68C229.449 50.7552 229.896 50.8522 230.203 50.9573L230.851 49.0654ZM229.083 48.6952C228.416 48.6119 227.805 48.5682 227.254 48.5682V50.5682C227.703 50.5682 228.229 50.604 228.835 50.6798L229.083 48.6952ZM227.254 48.5682C226.11 48.5682 225.048 48.8263 224.091 49.3594L225.065 51.1065C225.699 50.7533 226.421 50.5682 227.254 50.5682V48.5682ZM224.096 49.357C223.15 49.8777 222.4 50.616 221.855 51.5553L223.585 52.5583C223.95 51.9295 224.438 51.4519 225.061 51.1089L224.096 49.357ZM221.853 51.5593C221.309 52.5079 221.055 53.5946 221.055 54.7841H223.055C223.055 53.8827 223.245 53.1512 223.588 52.5543L221.853 51.5593ZM221.055 54.7841V69H223.055V54.7841H221.055ZM222.055 68H213.72V70H222.055V68Z" fill="black" fill-opacity="0.2" mask="url(#path-1-outside-1_139_533)"/>
</g>
</g>
<defs>
<filter id="filter0_dd_139_533" x="-2.35797" y="32.6136" width="237.885" height="45.8807" filterUnits="userSpaceOnUse" color-interpolation-filters="sRGB">
<feFlood flood-opacity="0" result="BackgroundImageFix"/>
<feColorMatrix in="SourceAlpha" type="matrix" values="0 0 0 0 0 0 0 0 0 0 0 0 0 0 0 0 0 0 127 0" result="hardAlpha"/>
<feOffset dy="4"/>
<feGaussianBlur stdDeviation="2"/>
<feComposite in2="hardAlpha" operator="out"/>
<feColorMatrix type="matrix" values="0 0 0 0 0 0 0 0 0 0 0 0 0 0 0 0 0 0 0.25 0"/>
<feBlend mode="normal" in2="BackgroundImageFix" result="effect1_dropShadow_139_533"/>
<feColorMatrix in="SourceAlpha" type="matrix" values="0 0 0 0 0 0 0 0 0 0 0 0 0 0 0 0 0 0 127 0" result="hardAlpha"/>
<feOffset dy="4"/>
<feGaussianBlur stdDeviation="2"/>
<feComposite in2="hardAlpha" operator="out"/>
<feColorMatrix type="matrix" values="0 0 0 0 0 0 0 0 0 0 0 0 0 0 0 0 0 0 0.25 0"/>
<feBlend mode="normal" in2="effect1_dropShadow_139_533" result="effect2_dropShadow_139_533"/>
<feBlend mode="normal" in="SourceGraphic" in2="effect2_dropShadow_139_533" result="shape"/>
</filter>
<clipPath id="clip0_139_533">
<rect width="322" height="117" fill="white"/>
</clipPath>
</defs>
</svg>
