<svg width="322" height="117" viewBox="0 0 322 117" fill="none" xmlns="http://www.w3.org/2000/svg">
<g clip-path="url(#clip0_139_530)">
<rect width="322" height="117" fill="white"/>
<g filter="url(#filter0_dd_139_530)">
<mask id="path-1-outside-1_139_530" maskUnits="userSpaceOnUse" x="1" y="31" width="204" height="33" fill="black">
<rect fill="white" x="1" y="31" width="204" height="33"/>
<path d="M2.2017 62V32.9091H14.2188C16.3968 32.9091 18.2765 33.3352 19.858 34.1875C21.4489 35.0303 22.6752 36.2093 23.5369 37.7244C24.3987 39.2301 24.8295 40.982 24.8295 42.9801C24.8295 44.9877 24.3892 46.7443 23.5085 48.25C22.6373 49.7462 21.392 50.9062 19.7727 51.7301C18.1534 52.554 16.2311 52.9659 14.0057 52.9659H6.59091V47.4261H12.6989C13.7595 47.4261 14.6449 47.2415 15.3551 46.8722C16.0748 46.5028 16.6193 45.9867 16.9886 45.3239C17.358 44.6515 17.5426 43.8703 17.5426 42.9801C17.5426 42.0805 17.358 41.304 16.9886 40.6506C16.6193 39.9877 16.0748 39.4763 15.3551 39.1165C14.6354 38.7566 13.75 38.5767 12.6989 38.5767H9.23295V62H2.2017ZM27.3438 38.6193V32.9091H51.9318V38.6193H43.1108V62H36.179V38.6193H27.3438ZM98.9595 43.4489H91.8572C91.7625 42.7197 91.5684 42.0616 91.2749 41.4744C90.9813 40.8873 90.593 40.3854 90.1101 39.9688C89.6271 39.5521 89.0542 39.2348 88.3913 39.017C87.7379 38.7898 87.0135 38.6761 86.218 38.6761C84.8071 38.6761 83.5902 39.0218 82.5675 39.7131C81.5542 40.4044 80.773 41.4034 80.2237 42.7102C79.6839 44.017 79.4141 45.5985 79.4141 47.4545C79.4141 49.3864 79.6887 51.0057 80.2379 52.3125C80.7966 53.6098 81.5779 54.59 82.5817 55.2528C83.5949 55.9062 84.7929 56.233 86.1754 56.233C86.9519 56.233 87.6574 56.1335 88.2919 55.9347C88.9358 55.7358 89.4993 55.447 89.9822 55.0682C90.4747 54.6799 90.8771 54.2112 91.1896 53.6619C91.5116 53.1032 91.7341 52.4735 91.8572 51.7727L98.9595 51.8153C98.8364 53.1032 98.4624 54.3722 97.8374 55.6222C97.2218 56.8722 96.3743 58.0133 95.2947 59.0455C94.2152 60.0682 92.8989 60.8826 91.3459 61.4886C89.8023 62.0947 88.0315 62.3977 86.0334 62.3977C83.4008 62.3977 81.0429 61.8201 78.9595 60.6648C76.8857 59.5 75.2474 57.8049 74.0447 55.5795C72.8421 53.3542 72.2408 50.6458 72.2408 47.4545C72.2408 44.2538 72.8516 41.5407 74.0732 39.3153C75.2947 37.09 76.9472 35.3996 79.0305 34.2443C81.1139 33.089 83.4482 32.5114 86.0334 32.5114C87.7947 32.5114 89.4235 32.7576 90.9197 33.25C92.416 33.733 93.7322 34.4432 94.8686 35.3807C96.005 36.3087 96.9283 37.4498 97.6385 38.804C98.3487 40.1581 98.7891 41.7064 98.9595 43.4489ZM113.168 62.4119C110.876 62.4119 108.906 61.9432 107.259 61.0057C105.62 60.0587 104.356 58.7424 103.466 57.0568C102.585 55.3617 102.145 53.3968 102.145 51.1619C102.145 48.9176 102.585 46.9527 103.466 45.267C104.356 43.572 105.62 42.2557 107.259 41.3182C108.906 40.3712 110.876 39.8977 113.168 39.8977C115.459 39.8977 117.424 40.3712 119.062 41.3182C120.71 42.2557 121.974 43.572 122.855 45.267C123.745 46.9527 124.19 48.9176 124.19 51.1619C124.19 53.3968 123.745 55.3617 122.855 57.0568C121.974 58.7424 120.71 60.0587 119.062 61.0057C117.424 61.9432 115.459 62.4119 113.168 62.4119ZM113.21 57.1705C114.044 57.1705 114.749 56.9148 115.327 56.4034C115.904 55.892 116.345 55.1818 116.648 54.2727C116.96 53.3636 117.116 52.3125 117.116 51.1193C117.116 49.9072 116.96 48.8466 116.648 47.9375C116.345 47.0284 115.904 46.3182 115.327 45.8068C114.749 45.2955 114.044 45.0398 113.21 45.0398C112.348 45.0398 111.619 45.2955 111.023 45.8068C110.436 46.3182 109.986 47.0284 109.673 47.9375C109.37 48.8466 109.219 49.9072 109.219 51.1193C109.219 52.3125 109.37 53.3636 109.673 54.2727C109.986 55.1818 110.436 55.892 111.023 56.4034C111.619 56.9148 112.348 57.1705 113.21 57.1705ZM134.695 32.9091V62H127.749V32.9091H134.695ZM149.3 62.4119C147.009 62.4119 145.039 61.9432 143.391 61.0057C141.753 60.0587 140.489 58.7424 139.599 57.0568C138.718 55.3617 138.278 53.3968 138.278 51.1619C138.278 48.9176 138.718 46.9527 139.599 45.267C140.489 43.572 141.753 42.2557 143.391 41.3182C145.039 40.3712 147.009 39.8977 149.3 39.8977C151.592 39.8977 153.557 40.3712 155.195 41.3182C156.843 42.2557 158.107 43.572 158.988 45.267C159.878 46.9527 160.323 48.9176 160.323 51.1619C160.323 53.3968 159.878 55.3617 158.988 57.0568C158.107 58.7424 156.843 60.0587 155.195 61.0057C153.557 61.9432 151.592 62.4119 149.3 62.4119ZM149.343 57.1705C150.176 57.1705 150.882 56.9148 151.46 56.4034C152.037 55.892 152.478 55.1818 152.781 54.2727C153.093 53.3636 153.249 52.3125 153.249 51.1193C153.249 49.9072 153.093 48.8466 152.781 47.9375C152.478 47.0284 152.037 46.3182 151.46 45.8068C150.882 45.2955 150.176 45.0398 149.343 45.0398C148.481 45.0398 147.752 45.2955 147.156 45.8068C146.568 46.3182 146.119 47.0284 145.806 47.9375C145.503 48.8466 145.352 49.9072 145.352 51.1193C145.352 52.3125 145.503 53.3636 145.806 54.2727C146.119 55.1818 146.568 55.892 147.156 56.4034C147.752 56.9148 148.481 57.1705 149.343 57.1705ZM177.958 52.5824V40.1818H184.89V62H178.271V57.9375H178.043C177.56 59.2727 176.737 60.3333 175.572 61.1193C174.416 61.8958 173.02 62.2841 171.381 62.2841C169.895 62.2841 168.588 61.9432 167.461 61.2614C166.334 60.5795 165.458 59.6278 164.833 58.4062C164.208 57.1752 163.891 55.7358 163.881 54.0881V40.1818H170.827V52.7244C170.837 53.9081 171.149 54.8409 171.765 55.5227C172.38 56.2045 173.219 56.5455 174.279 56.5455C174.97 56.5455 175.591 56.3939 176.14 56.0909C176.699 55.7784 177.139 55.3286 177.461 54.7415C177.792 54.1449 177.958 53.4252 177.958 52.5824ZM189.311 62V40.1818H196.058V44.1591H196.286C196.683 42.7197 197.332 41.6496 198.232 40.9489C199.131 40.2386 200.178 39.8835 201.371 39.8835C201.693 39.8835 202.024 39.9072 202.365 39.9545C202.706 39.9924 203.023 40.054 203.317 40.1392V46.1761C202.985 46.0625 202.55 45.9725 202.01 45.9062C201.48 45.84 201.006 45.8068 200.589 45.8068C199.766 45.8068 199.022 45.9915 198.359 46.3608C197.706 46.7206 197.19 47.2273 196.811 47.8807C196.442 48.5246 196.257 49.2822 196.257 50.1534V62H189.311Z"/>
</mask>
<path d="M2.2017 62V32.9091H14.2188C16.3968 32.9091 18.2765 33.3352 19.858 34.1875C21.4489 35.0303 22.6752 36.2093 23.5369 37.7244C24.3987 39.2301 24.8295 40.982 24.8295 42.9801C24.8295 44.9877 24.3892 46.7443 23.5085 48.25C22.6373 49.7462 21.392 50.9062 19.7727 51.7301C18.1534 52.554 16.2311 52.9659 14.0057 52.9659H6.59091V47.4261H12.6989C13.7595 47.4261 14.6449 47.2415 15.3551 46.8722C16.0748 46.5028 16.6193 45.9867 16.9886 45.3239C17.358 44.6515 17.5426 43.8703 17.5426 42.9801C17.5426 42.0805 17.358 41.304 16.9886 40.6506C16.6193 39.9877 16.0748 39.4763 15.3551 39.1165C14.6354 38.7566 13.75 38.5767 12.6989 38.5767H9.23295V62H2.2017ZM27.3438 38.6193V32.9091H51.9318V38.6193H43.1108V62H36.179V38.6193H27.3438ZM98.9595 43.4489H91.8572C91.7625 42.7197 91.5684 42.0616 91.2749 41.4744C90.9813 40.8873 90.593 40.3854 90.1101 39.9688C89.6271 39.5521 89.0542 39.2348 88.3913 39.017C87.7379 38.7898 87.0135 38.6761 86.218 38.6761C84.8071 38.6761 83.5902 39.0218 82.5675 39.7131C81.5542 40.4044 80.773 41.4034 80.2237 42.7102C79.6839 44.017 79.4141 45.5985 79.4141 47.4545C79.4141 49.3864 79.6887 51.0057 80.2379 52.3125C80.7966 53.6098 81.5779 54.59 82.5817 55.2528C83.5949 55.9062 84.7929 56.233 86.1754 56.233C86.9519 56.233 87.6574 56.1335 88.2919 55.9347C88.9358 55.7358 89.4993 55.447 89.9822 55.0682C90.4747 54.6799 90.8771 54.2112 91.1896 53.6619C91.5116 53.1032 91.7341 52.4735 91.8572 51.7727L98.9595 51.8153C98.8364 53.1032 98.4624 54.3722 97.8374 55.6222C97.2218 56.8722 96.3743 58.0133 95.2947 59.0455C94.2152 60.0682 92.8989 60.8826 91.3459 61.4886C89.8023 62.0947 88.0315 62.3977 86.0334 62.3977C83.4008 62.3977 81.0429 61.8201 78.9595 60.6648C76.8857 59.5 75.2474 57.8049 74.0447 55.5795C72.8421 53.3542 72.2408 50.6458 72.2408 47.4545C72.2408 44.2538 72.8516 41.5407 74.0732 39.3153C75.2947 37.09 76.9472 35.3996 79.0305 34.2443C81.1139 33.089 83.4482 32.5114 86.0334 32.5114C87.7947 32.5114 89.4235 32.7576 90.9197 33.25C92.416 33.733 93.7322 34.4432 94.8686 35.3807C96.005 36.3087 96.9283 37.4498 97.6385 38.804C98.3487 40.1581 98.7891 41.7064 98.9595 43.4489ZM113.168 62.4119C110.876 62.4119 108.906 61.9432 107.259 61.0057C105.62 60.0587 104.356 58.7424 103.466 57.0568C102.585 55.3617 102.145 53.3968 102.145 51.1619C102.145 48.9176 102.585 46.9527 103.466 45.267C104.356 43.572 105.62 42.2557 107.259 41.3182C108.906 40.3712 110.876 39.8977 113.168 39.8977C115.459 39.8977 117.424 40.3712 119.062 41.3182C120.71 42.2557 121.974 43.572 122.855 45.267C123.745 46.9527 124.19 48.9176 124.19 51.1619C124.19 53.3968 123.745 55.3617 122.855 57.0568C121.974 58.7424 120.71 60.0587 119.062 61.0057C117.424 61.9432 115.459 62.4119 113.168 62.4119ZM113.21 57.1705C114.044 57.1705 114.749 56.9148 115.327 56.4034C115.904 55.892 116.345 55.1818 116.648 54.2727C116.96 53.3636 117.116 52.3125 117.116 51.1193C117.116 49.9072 116.96 48.8466 116.648 47.9375C116.345 47.0284 115.904 46.3182 115.327 45.8068C114.749 45.2955 114.044 45.0398 113.21 45.0398C112.348 45.0398 111.619 45.2955 111.023 45.8068C110.436 46.3182 109.986 47.0284 109.673 47.9375C109.37 48.8466 109.219 49.9072 109.219 51.1193C109.219 52.3125 109.37 53.3636 109.673 54.2727C109.986 55.1818 110.436 55.892 111.023 56.4034C111.619 56.9148 112.348 57.1705 113.21 57.1705ZM134.695 32.9091V62H127.749V32.9091H134.695ZM149.3 62.4119C147.009 62.4119 145.039 61.9432 143.391 61.0057C141.753 60.0587 140.489 58.7424 139.599 57.0568C138.718 55.3617 138.278 53.3968 138.278 51.1619C138.278 48.9176 138.718 46.9527 139.599 45.267C140.489 43.572 141.753 42.2557 143.391 41.3182C145.039 40.3712 147.009 39.8977 149.3 39.8977C151.592 39.8977 153.557 40.3712 155.195 41.3182C156.843 42.2557 158.107 43.572 158.988 45.267C159.878 46.9527 160.323 48.9176 160.323 51.1619C160.323 53.3968 159.878 55.3617 158.988 57.0568C158.107 58.7424 156.843 60.0587 155.195 61.0057C153.557 61.9432 151.592 62.4119 149.3 62.4119ZM149.343 57.1705C150.176 57.1705 150.882 56.9148 151.46 56.4034C152.037 55.892 152.478 55.1818 152.781 54.2727C153.093 53.3636 153.249 52.3125 153.249 51.1193C153.249 49.9072 153.093 48.8466 152.781 47.9375C152.478 47.0284 152.037 46.3182 151.46 45.8068C150.882 45.2955 150.176 45.0398 149.343 45.0398C148.481 45.0398 147.752 45.2955 147.156 45.8068C146.568 46.3182 146.119 47.0284 145.806 47.9375C145.503 48.8466 145.352 49.9072 145.352 51.1193C145.352 52.3125 145.503 53.3636 145.806 54.2727C146.119 55.1818 146.568 55.892 147.156 56.4034C147.752 56.9148 148.481 57.1705 149.343 57.1705ZM177.958 52.5824V40.1818H184.89V62H178.271V57.9375H178.043C177.56 59.2727 176.737 60.3333 175.572 61.1193C174.416 61.8958 173.02 62.2841 171.381 62.2841C169.895 62.2841 168.588 61.9432 167.461 61.2614C166.334 60.5795 165.458 59.6278 164.833 58.4062C164.208 57.1752 163.891 55.7358 163.881 54.0881V40.1818H170.827V52.7244C170.837 53.9081 171.149 54.8409 171.765 55.5227C172.38 56.2045 173.219 56.5455 174.279 56.5455C174.97 56.5455 175.591 56.3939 176.14 56.0909C176.699 55.7784 177.139 55.3286 177.461 54.7415C177.792 54.1449 177.958 53.4252 177.958 52.5824ZM189.311 62V40.1818H196.058V44.1591H196.286C196.683 42.7197 197.332 41.6496 198.232 40.9489C199.131 40.2386 200.178 39.8835 201.371 39.8835C201.693 39.8835 202.024 39.9072 202.365 39.9545C202.706 39.9924 203.023 40.054 203.317 40.1392V46.1761C202.985 46.0625 202.55 45.9725 202.01 45.9062C201.48 45.84 201.006 45.8068 200.589 45.8068C199.766 45.8068 199.022 45.9915 198.359 46.3608C197.706 46.7206 197.19 47.2273 196.811 47.8807C196.442 48.5246 196.257 49.2822 196.257 50.1534V62H189.311Z" fill="#002855"/>
<path d="M2.2017 62H1.2017V63H2.2017V62ZM2.2017 32.9091V31.9091H1.2017V32.9091H2.2017ZM19.858 34.1875L19.3835 35.0678L19.3898 35.0712L19.858 34.1875ZM23.5369 37.7244L22.6677 38.2188L22.669 38.2212L23.5369 37.7244ZM23.5085 48.25L22.6453 47.7451L22.6443 47.7468L23.5085 48.25ZM19.7727 51.7301L20.2262 52.6214L20.2262 52.6214L19.7727 51.7301ZM6.59091 52.9659H5.59091V53.9659H6.59091V52.9659ZM6.59091 47.4261V46.4261H5.59091V47.4261H6.59091ZM15.3551 46.8722L14.8986 45.9825L14.8938 45.9849L15.3551 46.8722ZM16.9886 45.3239L17.8622 45.8106L17.8651 45.8053L16.9886 45.3239ZM16.9886 40.6506L16.1151 41.1373L16.1181 41.1426L16.9886 40.6506ZM15.3551 39.1165L14.9079 40.0109L14.9079 40.0109L15.3551 39.1165ZM9.23295 38.5767V37.5767H8.23295V38.5767H9.23295ZM9.23295 62V63H10.233V62H9.23295ZM3.2017 62V32.9091H1.2017V62H3.2017ZM2.2017 33.9091H14.2188V31.9091H2.2017V33.9091ZM14.2188 33.9091C16.2661 33.9091 17.9758 34.3091 19.3835 35.0678L20.3324 33.3072C18.5772 32.3613 16.5275 31.9091 14.2188 31.9091V33.9091ZM19.3898 35.0712C20.8186 35.8281 21.9031 36.8745 22.6677 38.2188L24.4062 37.23C23.4472 35.544 22.0792 34.2326 20.3261 33.3038L19.3898 35.0712ZM22.669 38.2212C23.4318 39.5539 23.8295 41.1295 23.8295 42.9801H25.8295C25.8295 40.8345 25.3655 38.9063 24.4048 37.2277L22.669 38.2212ZM23.8295 42.9801C23.8295 44.8374 23.4236 46.4145 22.6453 47.7451L24.3717 48.7549C25.3548 47.0742 25.8295 45.138 25.8295 42.9801H23.8295ZM22.6443 47.7468C21.8748 49.0684 20.7761 50.0976 19.3193 50.8388L20.2262 52.6214C22.008 51.7149 23.3998 50.424 24.3727 48.7532L22.6443 47.7468ZM19.3193 50.8388C17.8685 51.5769 16.1083 51.9659 14.0057 51.9659V53.9659C16.3538 53.9659 18.4383 53.531 20.2262 52.6214L19.3193 50.8388ZM14.0057 51.9659H6.59091V53.9659H14.0057V51.9659ZM7.59091 52.9659V47.4261H5.59091V52.9659H7.59091ZM6.59091 48.4261H12.6989V46.4261H6.59091V48.4261ZM12.6989 48.4261C13.8699 48.4261 14.9251 48.2229 15.8165 47.7594L14.8938 45.9849C14.3647 46.2601 13.649 46.4261 12.6989 46.4261V48.4261ZM15.8117 47.7619C16.6949 47.3086 17.3903 46.6576 17.8622 45.8106L16.1151 44.8372C15.8484 45.3159 15.4547 45.6971 14.8986 45.9825L15.8117 47.7619ZM17.8651 45.8053C18.3276 44.9633 18.5426 44.0114 18.5426 42.9801H16.5426C16.5426 43.7291 16.3883 44.3397 16.1122 44.8424L17.8651 45.8053ZM18.5426 42.9801C18.5426 41.9423 18.3288 40.9893 17.8592 40.1585L16.1181 41.1426C16.3872 41.6187 16.5426 42.2187 16.5426 42.9801H18.5426ZM17.8622 40.1639C17.3889 39.3144 16.6905 38.6661 15.8023 38.2221L14.9079 40.0109C15.4592 40.2865 15.8497 40.6609 16.1151 41.1373L17.8622 40.1639ZM15.8023 38.2221C14.9079 37.7748 13.8595 37.5767 12.6989 37.5767V39.5767C13.6405 39.5767 14.3629 39.7384 14.9079 40.0109L15.8023 38.2221ZM12.6989 37.5767H9.23295V39.5767H12.6989V37.5767ZM8.23295 38.5767V62H10.233V38.5767H8.23295ZM9.23295 61H2.2017V63H9.23295V61ZM27.3438 38.6193H26.3438V39.6193H27.3438V38.6193ZM27.3438 32.9091V31.9091H26.3438V32.9091H27.3438ZM51.9318 32.9091H52.9318V31.9091H51.9318V32.9091ZM51.9318 38.6193V39.6193H52.9318V38.6193H51.9318ZM43.1108 38.6193V37.6193H42.1108V38.6193H43.1108ZM43.1108 62V63H44.1108V62H43.1108ZM36.179 62H35.179V63H36.179V62ZM36.179 38.6193H37.179V37.6193H36.179V38.6193ZM28.3438 38.6193V32.9091H26.3438V38.6193H28.3438ZM27.3438 33.9091H51.9318V31.9091H27.3438V33.9091ZM50.9318 32.9091V38.6193H52.9318V32.9091H50.9318ZM51.9318 37.6193H43.1108V39.6193H51.9318V37.6193ZM42.1108 38.6193V62H44.1108V38.6193H42.1108ZM43.1108 61H36.179V63H43.1108V61ZM37.179 62V38.6193H35.179V62H37.179ZM36.179 37.6193H27.3438V39.6193H36.179V37.6193ZM98.9595 43.4489V44.4489H100.062L99.9548 43.3515L98.9595 43.4489ZM91.8572 43.4489L90.8656 43.5777L90.9787 44.4489H91.8572V43.4489ZM91.2749 41.4744L90.3804 41.9216L90.3804 41.9216L91.2749 41.4744ZM90.1101 39.9688L90.7633 39.2116L90.7633 39.2116L90.1101 39.9688ZM88.3913 39.017L88.0628 39.9615L88.071 39.9644L88.0792 39.9671L88.3913 39.017ZM82.5675 39.7131L82.0075 38.8846L82.0039 38.887L82.5675 39.7131ZM80.2237 42.7102L79.3018 42.3228L79.2995 42.3285L80.2237 42.7102ZM80.2379 52.3125L79.316 52.7L79.3195 52.708L80.2379 52.3125ZM82.5817 55.2528L82.0306 56.0874L82.0397 56.0933L82.5817 55.2528ZM88.2919 55.9347L87.9968 54.9792L87.9928 54.9804L88.2919 55.9347ZM89.9822 55.0682L90.5994 55.855L90.6014 55.8535L89.9822 55.0682ZM91.1896 53.6619L90.3232 53.1626L90.3205 53.1674L91.1896 53.6619ZM91.8572 51.7727L91.8632 50.7727L91.0185 50.7677L90.8723 51.5997L91.8572 51.7727ZM98.9595 51.8153L99.955 51.9105L100.059 50.8219L98.9655 50.8154L98.9595 51.8153ZM97.8374 55.6222L96.9429 55.1749L96.9402 55.1804L97.8374 55.6222ZM95.2947 59.0455L95.9825 59.7714L95.9858 59.7682L95.2947 59.0455ZM91.3459 61.4886L90.9823 60.5571L90.9804 60.5578L91.3459 61.4886ZM78.9595 60.6648L78.4698 61.5367L78.4745 61.5393L78.9595 60.6648ZM74.0447 55.5795L74.9245 55.1041L74.0447 55.5795ZM74.0732 39.3153L73.1965 38.8341L73.1965 38.8341L74.0732 39.3153ZM90.9197 33.25L90.6071 34.1999L90.6126 34.2017L90.9197 33.25ZM94.8686 35.3807L94.2322 36.1521L94.2361 36.1552L94.8686 35.3807ZM98.9595 42.4489H91.8572V44.4489H98.9595V42.4489ZM92.8489 43.3201C92.7415 42.4933 92.5184 41.7255 92.1693 41.0272L90.3804 41.9216C90.6184 42.3976 90.7836 42.9461 90.8656 43.5777L92.8489 43.3201ZM92.1693 41.0272C91.8184 40.3254 91.3493 39.7171 90.7633 39.2116L89.4569 40.7259C89.8368 41.0537 90.1442 41.4492 90.3804 41.9216L92.1693 41.0272ZM90.7633 39.2116C90.1715 38.701 89.4798 38.3221 88.7035 38.067L88.0792 39.9671C88.6286 40.1476 89.0828 40.4032 89.4569 40.7259L90.7633 39.2116ZM88.7199 38.0725C87.9463 37.8035 87.1089 37.6761 86.218 37.6761V39.6761C86.9181 39.6761 87.5296 39.7761 88.0628 39.9615L88.7199 38.0725ZM86.218 37.6761C84.6369 37.6761 83.2184 38.0661 82.0075 38.8846L83.1275 40.5416C83.962 39.9775 84.9772 39.6761 86.218 39.6761V37.6761ZM82.0039 38.887C80.8078 39.703 79.9139 40.8666 79.3018 42.3228L81.1456 43.0977C81.6321 41.9402 82.3006 41.1057 83.131 40.5391L82.0039 38.887ZM79.2995 42.3285C78.6967 43.7878 78.4141 45.5064 78.4141 47.4545H80.4141C80.4141 45.6906 80.6712 44.2463 81.148 43.092L79.2995 42.3285ZM78.4141 47.4545C78.4141 49.4741 78.7002 51.2347 79.316 52.7L81.1598 51.925C80.6772 50.7767 80.4141 49.2986 80.4141 47.4545H78.4141ZM79.3195 52.708C79.9416 54.1526 80.8375 55.2994 82.0306 56.0873L83.1327 54.4184C82.3182 53.8805 81.6517 53.0671 81.1564 51.917L79.3195 52.708ZM82.0397 56.0933C83.2372 56.8655 84.6295 57.233 86.1754 57.233V55.233C84.9562 55.233 83.9526 54.947 83.1236 54.4124L82.0397 56.0933ZM86.1754 57.233C87.0368 57.233 87.8451 57.1227 88.591 56.8889L87.9928 54.9804C87.4698 55.1444 86.8671 55.233 86.1754 55.233V57.233ZM88.587 56.8901C89.3362 56.6587 90.0113 56.3163 90.5994 55.855L89.3651 54.2813C88.9873 54.5776 88.5355 54.8128 87.9968 54.9792L88.587 56.8901ZM90.6014 55.8535C91.1959 55.3847 91.683 54.8169 92.0588 54.1565L90.3205 53.1674C90.0713 53.6054 89.7534 53.9752 89.3631 54.2829L90.6014 55.8535ZM92.0561 54.1612C92.442 53.4916 92.701 52.7495 92.8422 51.9458L90.8723 51.5997C90.7673 52.1975 90.5812 52.7148 90.3232 53.1626L92.0561 54.1612ZM91.8512 52.7727L98.9535 52.8153L98.9655 50.8154L91.8632 50.7727L91.8512 52.7727ZM97.9641 51.7202C97.8536 52.876 97.5173 54.0262 96.9429 55.1749L98.7318 56.0694C99.4074 54.7181 99.8192 53.3305 99.955 51.9105L97.9641 51.7202ZM96.9402 55.1804C96.38 56.318 95.6047 57.3655 94.6037 58.3227L95.9858 59.7682C97.1439 58.661 98.0636 57.4263 98.7345 56.0639L96.9402 55.1804ZM94.607 58.3195C93.6319 59.2433 92.4296 59.9923 90.9823 60.5571L91.7094 62.4202C93.3683 61.7729 94.7985 60.8931 95.9825 59.7714L94.607 58.3195ZM90.9804 60.5578C89.5745 61.1098 87.9314 61.3977 86.0334 61.3977V63.3977C88.1316 63.3977 90.0302 63.0795 91.7114 62.4195L90.9804 60.5578ZM86.0334 61.3977C83.5523 61.3977 81.3643 60.8548 79.4445 59.7902L78.4745 61.5393C80.7214 62.7853 83.2494 63.3977 86.0334 63.3977V61.3977ZM79.4492 59.7929C77.5509 58.7267 76.0432 57.1742 74.9245 55.1041L73.165 56.055C74.4516 58.4357 76.2205 60.2733 78.4698 61.5367L79.4492 59.7929ZM74.9245 55.1041C73.8188 53.0581 73.2408 50.5224 73.2408 47.4545H71.2408C71.2408 50.7693 71.8654 53.6502 73.165 56.055L74.9245 55.1041ZM73.2408 47.4545C73.2408 44.379 73.8276 41.8408 74.9498 39.7965L73.1965 38.8341C71.8755 41.2406 71.2408 44.1286 71.2408 47.4545H73.2408ZM74.9498 39.7965C76.0868 37.7253 77.6082 36.1765 79.5155 35.1188L78.5456 33.3698C76.2862 34.6227 74.5027 36.4547 73.1965 38.8341L74.9498 39.7965ZM79.5155 35.1188C81.438 34.0528 83.603 33.5114 86.0334 33.5114V31.5114C83.2933 31.5114 80.7898 32.1253 78.5456 33.3698L79.5155 35.1188ZM86.0334 33.5114C87.701 33.5114 89.223 33.7443 90.6071 34.1999L91.2324 32.3001C89.6241 31.7708 87.8885 31.5114 86.0334 31.5114V33.5114ZM90.6126 34.2017C91.9968 34.6485 93.1996 35.3002 94.2322 36.1521L95.505 34.6093C94.2649 33.5862 92.8351 32.8174 91.2269 32.2983L90.6126 34.2017ZM94.2361 36.1552C95.2636 36.9944 96.1026 38.0285 96.7529 39.2684L98.5241 38.3395C97.754 36.8711 96.7463 35.623 95.5011 34.6061L94.2361 36.1552ZM96.7529 39.2684C97.3952 40.4931 97.8046 41.9137 97.9643 43.5462L99.9548 43.3515C99.7736 41.4992 99.3022 39.8232 98.5241 38.3395L96.7529 39.2684ZM107.259 61.0057L106.758 61.8715L106.764 61.8748L107.259 61.0057ZM103.466 57.0568L102.579 57.5179L102.582 57.5238L103.466 57.0568ZM103.466 45.267L102.581 44.8021L102.58 44.804L103.466 45.267ZM107.259 41.3182L107.755 42.1861L107.757 42.1852L107.259 41.3182ZM119.062 41.3182L118.562 42.184L118.568 42.1873L119.062 41.3182ZM122.855 45.267L121.968 45.7281L121.971 45.734L122.855 45.267ZM122.855 57.0568L121.97 56.5919L121.969 56.5937L122.855 57.0568ZM119.062 61.0057L119.559 61.8736L119.561 61.8727L119.062 61.0057ZM115.327 56.4034L114.664 55.6546L114.664 55.6546L115.327 56.4034ZM116.648 54.2727L115.702 53.9476L115.699 53.9565L116.648 54.2727ZM116.648 47.9375L115.699 48.2537L115.702 48.2626L116.648 47.9375ZM115.327 45.8068L115.99 45.0581L115.99 45.0581L115.327 45.8068ZM111.023 45.8068L110.372 45.0475L110.366 45.0527L111.023 45.8068ZM109.673 47.9375L108.728 47.6124L108.725 47.6213L109.673 47.9375ZM109.673 54.2727L108.725 54.589L108.728 54.5978L109.673 54.2727ZM111.023 56.4034L110.366 57.1575L110.372 57.1627L111.023 56.4034ZM113.168 61.4119C111.013 61.4119 109.222 60.972 107.753 60.1365L106.764 61.8748C108.591 62.9143 110.739 63.4119 113.168 63.4119V61.4119ZM107.759 60.1399C106.285 59.2878 105.153 58.1104 104.35 56.5898L102.582 57.5238C103.559 59.3745 104.956 60.8296 106.758 61.8715L107.759 60.1399ZM104.353 56.5958C103.558 55.0655 103.145 53.2636 103.145 51.1619H101.145C101.145 53.53 101.612 55.658 102.579 57.5179L104.353 56.5958ZM103.145 51.1619C103.145 49.0499 103.559 47.2491 104.352 45.7301L102.58 44.804C101.612 46.6562 101.145 48.7853 101.145 51.1619H103.145ZM104.351 45.732C105.154 44.2029 106.285 43.0276 107.755 42.1861L106.762 40.4502C104.956 41.4838 103.558 42.941 102.581 44.8021L104.351 45.732ZM107.757 42.1852C109.225 41.3417 111.015 40.8977 113.168 40.8977V38.8977C110.737 38.8977 108.588 39.4007 106.76 40.4512L107.757 42.1852ZM113.168 40.8977C115.321 40.8977 117.105 41.3418 118.562 42.1839L119.563 40.4524C117.743 39.4007 115.598 38.8977 113.168 38.8977V40.8977ZM118.568 42.1873C120.047 43.0287 121.175 44.2027 121.968 45.7281L123.742 44.806C122.774 42.9413 121.374 41.4826 119.557 40.449L118.568 42.1873ZM121.971 45.734C122.773 47.2522 123.19 49.0515 123.19 51.1619H125.19C125.19 48.7837 124.718 46.6531 123.739 44.8001L121.971 45.734ZM123.19 51.1619C123.19 53.2619 122.773 55.0625 121.97 56.5919L123.74 57.5217C124.718 55.661 125.19 53.5316 125.19 51.1619H123.19ZM121.969 56.5937C121.176 58.1106 120.047 59.2867 118.564 60.1387L119.561 61.8727C121.374 60.8307 122.773 59.3742 123.741 57.5199L121.969 56.5937ZM118.566 60.1377C117.108 60.9719 115.322 61.4119 113.168 61.4119V63.4119C115.596 63.4119 117.74 62.9144 119.559 61.8736L118.566 60.1377ZM113.21 58.1705C114.267 58.1705 115.214 57.8389 115.99 57.1522L114.664 55.6546C114.284 55.9906 113.821 56.1705 113.21 56.1705V58.1705ZM115.99 57.1522C116.727 56.4992 117.251 55.6249 117.596 54.589L115.699 53.9565C115.438 54.7388 115.082 55.2849 114.664 55.6546L115.99 57.1522ZM117.593 54.5978C117.949 53.5624 118.116 52.3975 118.116 51.1193H116.116C116.116 52.2275 115.971 53.1649 115.702 53.9476L117.593 54.5978ZM118.116 51.1193C118.116 49.8241 117.95 48.6493 117.593 47.6124L115.702 48.2626C115.971 49.0438 116.116 49.9903 116.116 51.1193H118.116ZM117.596 47.6213C117.251 46.5854 116.727 45.711 115.99 45.0581L114.664 46.5556C115.082 46.9253 115.438 47.4714 115.699 48.2537L117.596 47.6213ZM115.99 45.0581C115.214 44.3713 114.267 44.0398 113.21 44.0398V46.0398C113.821 46.0398 114.284 46.2196 114.664 46.5556L115.99 45.0581ZM113.21 44.0398C112.135 44.0398 111.168 44.3654 110.372 45.0476L111.674 46.5661C112.071 46.2255 112.562 46.0398 113.21 46.0398V44.0398ZM110.366 45.0527C109.619 45.7034 109.084 46.5761 108.728 47.6124L110.619 48.2626C110.888 47.4807 111.252 46.9329 111.68 46.5609L110.366 45.0527ZM108.725 47.6213C108.38 48.6552 108.219 49.8268 108.219 51.1193H110.219C110.219 49.9875 110.361 49.038 110.622 48.2537L108.725 47.6213ZM108.219 51.1193C108.219 52.3947 108.38 53.5564 108.725 54.589L110.622 53.9565C110.36 53.1708 110.219 52.2303 110.219 51.1193H108.219ZM108.728 54.5978C109.084 55.6342 109.619 56.5068 110.366 57.1575L111.68 55.6493C111.252 55.2773 110.888 54.7295 110.619 53.9476L108.728 54.5978ZM110.372 57.1627C111.168 57.8448 112.135 58.1705 113.21 58.1705V56.1705C112.562 56.1705 112.071 55.9847 111.674 55.6442L110.372 57.1627ZM134.695 32.9091H135.695V31.9091H134.695V32.9091ZM134.695 62V63H135.695V62H134.695ZM127.749 62H126.749V63H127.749V62ZM127.749 32.9091V31.9091H126.749V32.9091H127.749ZM133.695 32.9091V62H135.695V32.9091H133.695ZM134.695 61H127.749V63H134.695V61ZM128.749 62V32.9091H126.749V62H128.749ZM127.749 33.9091H134.695V31.9091H127.749V33.9091ZM143.391 61.0057L142.891 61.8715L142.897 61.8748L143.391 61.0057ZM139.599 57.0568L138.711 57.5179L138.714 57.5238L139.599 57.0568ZM139.599 45.267L138.713 44.8021L138.712 44.804L139.599 45.267ZM143.391 41.3182L143.888 42.1861L143.89 42.1852L143.391 41.3182ZM155.195 41.3182L154.695 42.184L154.701 42.1873L155.195 41.3182ZM158.988 45.267L158.101 45.7281L158.104 45.734L158.988 45.267ZM158.988 57.0568L158.103 56.5919L158.102 56.5937L158.988 57.0568ZM155.195 61.0057L155.692 61.8736L155.694 61.8727L155.195 61.0057ZM151.46 56.4034L150.797 55.6546L150.797 55.6546L151.46 56.4034ZM152.781 54.2727L151.835 53.9476L151.832 53.9565L152.781 54.2727ZM152.781 47.9375L151.832 48.2537L151.835 48.2626L152.781 47.9375ZM151.46 45.8068L152.122 45.0581L152.122 45.0581L151.46 45.8068ZM147.156 45.8068L146.505 45.0475L146.499 45.0527L147.156 45.8068ZM145.806 47.9375L144.86 47.6124L144.857 47.6213L145.806 47.9375ZM145.806 54.2727L144.857 54.589L144.86 54.5978L145.806 54.2727ZM147.156 56.4034L146.499 57.1575L146.505 57.1627L147.156 56.4034ZM149.3 61.4119C147.146 61.4119 145.354 60.972 143.886 60.1365L142.897 61.8748C144.724 62.9143 146.871 63.4119 149.3 63.4119V61.4119ZM143.892 60.1399C142.418 59.2878 141.286 58.1104 140.483 56.5898L138.714 57.5238C139.692 59.3745 141.088 60.8296 142.891 61.8715L143.892 60.1399ZM140.486 56.5958C139.691 55.0655 139.278 53.2636 139.278 51.1619H137.278C137.278 53.53 137.745 55.658 138.711 57.5179L140.486 56.5958ZM139.278 51.1619C139.278 49.0499 139.691 47.2491 140.485 45.7301L138.712 44.804C137.745 46.6562 137.278 48.7853 137.278 51.1619H139.278ZM140.484 45.732C141.287 44.2029 142.418 43.0276 143.888 42.1861L142.895 40.4502C141.089 41.4838 139.691 42.941 138.713 44.8021L140.484 45.732ZM143.89 42.1852C145.357 41.3417 147.148 40.8977 149.3 40.8977V38.8977C146.87 38.8977 144.721 39.4007 142.893 40.4512L143.89 42.1852ZM149.3 40.8977C151.453 40.8977 153.238 41.3418 154.695 42.1839L155.696 40.4524C153.876 39.4007 151.731 38.8977 149.3 38.8977V40.8977ZM154.701 42.1873C156.18 43.0287 157.308 44.2027 158.101 45.7281L159.875 44.806C158.906 42.9413 157.506 41.4826 155.69 40.449L154.701 42.1873ZM158.104 45.734C158.905 47.2522 159.323 49.0515 159.323 51.1619H161.323C161.323 48.7837 160.851 46.6531 159.872 44.8001L158.104 45.734ZM159.323 51.1619C159.323 53.2619 158.906 55.0625 158.103 56.5919L159.873 57.5217C160.85 55.661 161.323 53.5316 161.323 51.1619H159.323ZM158.102 56.5937C157.309 58.1106 156.179 59.2867 154.697 60.1387L155.694 61.8727C157.507 60.8307 158.905 59.3742 159.874 57.5199L158.102 56.5937ZM154.699 60.1377C153.241 60.9719 151.455 61.4119 149.3 61.4119V63.4119C151.729 63.4119 153.873 62.9144 155.692 61.8736L154.699 60.1377ZM149.343 58.1705C150.399 58.1705 151.347 57.8389 152.122 57.1522L150.797 55.6546C150.417 55.9906 149.953 56.1705 149.343 56.1705V58.1705ZM152.122 57.1522C152.86 56.4992 153.384 55.6249 153.729 54.589L151.832 53.9565C151.571 54.7388 151.214 55.2849 150.797 55.6546L152.122 57.1522ZM153.726 54.5978C154.082 53.5624 154.249 52.3975 154.249 51.1193H152.249C152.249 52.2275 152.104 53.1649 151.835 53.9476L153.726 54.5978ZM154.249 51.1193C154.249 49.8241 154.083 48.6493 153.726 47.6124L151.835 48.2626C152.103 49.0438 152.249 49.9903 152.249 51.1193H154.249ZM153.729 47.6213C153.384 46.5854 152.86 45.711 152.122 45.0581L150.797 46.5556C151.214 46.9253 151.571 47.4714 151.832 48.2537L153.729 47.6213ZM152.122 45.0581C151.347 44.3713 150.399 44.0398 149.343 44.0398V46.0398C149.953 46.0398 150.417 46.2196 150.797 46.5556L152.122 45.0581ZM149.343 44.0398C148.267 44.0398 147.301 44.3654 146.505 45.0476L147.806 46.5661C148.204 46.2255 148.695 46.0398 149.343 46.0398V44.0398ZM146.499 45.0527C145.752 45.7034 145.217 46.5761 144.86 47.6124L146.752 48.2626C147.021 47.4807 147.385 46.9329 147.812 46.5609L146.499 45.0527ZM144.857 47.6213C144.513 48.6552 144.352 49.8268 144.352 51.1193H146.352C146.352 49.9875 146.493 49.038 146.755 48.2537L144.857 47.6213ZM144.352 51.1193C144.352 52.3947 144.513 53.5564 144.857 54.589L146.755 53.9565C146.493 53.1708 146.352 52.2303 146.352 51.1193H144.352ZM144.86 54.5978C145.217 55.6342 145.752 56.5068 146.499 57.1575L147.812 55.6493C147.385 55.2773 147.021 54.7295 146.752 53.9476L144.86 54.5978ZM146.505 57.1627C147.301 57.8448 148.267 58.1705 149.343 58.1705V56.1705C148.695 56.1705 148.204 55.9847 147.806 55.6442L146.505 57.1627ZM177.958 40.1818V39.1818H176.958V40.1818H177.958ZM184.89 40.1818H185.89V39.1818H184.89V40.1818ZM184.89 62V63H185.89V62H184.89ZM178.271 62H177.271V63H178.271V62ZM178.271 57.9375H179.271V56.9375H178.271V57.9375ZM178.043 57.9375V56.9375H177.342L177.103 57.5974L178.043 57.9375ZM175.572 61.1193L176.13 61.9493L176.131 61.9482L175.572 61.1193ZM167.461 61.2614L166.943 62.1169L166.943 62.1169L167.461 61.2614ZM164.833 58.4062L163.941 58.8589L163.943 58.8617L164.833 58.4062ZM163.881 54.0881H162.881L162.881 54.0938L163.881 54.0881ZM163.881 40.1818V39.1818H162.881V40.1818H163.881ZM170.827 40.1818H171.827V39.1818H170.827V40.1818ZM170.827 52.7244L169.827 52.7244L169.827 52.7324L170.827 52.7244ZM171.765 55.5227L172.507 54.8526L172.507 54.8526L171.765 55.5227ZM176.14 56.0909L176.623 56.9665L176.628 56.9637L176.14 56.0909ZM177.461 54.7415L176.587 54.2558L176.584 54.2606L177.461 54.7415ZM178.958 52.5824V40.1818H176.958V52.5824H178.958ZM177.958 41.1818H184.89V39.1818H177.958V41.1818ZM183.89 40.1818V62H185.89V40.1818H183.89ZM184.89 61H178.271V63H184.89V61ZM179.271 62V57.9375H177.271V62H179.271ZM178.271 56.9375H178.043V58.9375H178.271V56.9375ZM177.103 57.5974C176.691 58.7357 176 59.6242 175.012 60.2904L176.131 61.9482C177.473 61.0425 178.43 59.8098 178.984 58.2776L177.103 57.5974ZM175.014 60.2894C174.051 60.9366 172.857 61.2841 171.381 61.2841V63.2841C173.182 63.2841 174.782 62.8551 176.13 61.9493L175.014 60.2894ZM171.381 61.2841C170.053 61.2841 168.93 60.9814 167.979 60.4058L166.943 62.1169C168.246 62.905 169.736 63.2841 171.381 63.2841V61.2841ZM167.979 60.4058C167.017 59.8243 166.267 59.0142 165.723 57.9508L163.943 58.8617C164.649 60.2414 165.651 61.3348 166.943 62.1169L167.979 60.4058ZM165.725 57.9536C165.182 56.8854 164.89 55.6045 164.881 54.0823L162.881 54.0938C162.892 55.8671 163.234 57.465 163.941 58.8589L165.725 57.9536ZM164.881 54.0881V40.1818H162.881V54.0881H164.881ZM163.881 41.1818H170.827V39.1818H163.881V41.1818ZM169.827 40.1818V52.7244H171.827V40.1818H169.827ZM169.827 52.7324C169.838 54.0883 170.2 55.2818 171.023 56.1928L172.507 54.8526C172.099 54.4 171.835 53.7279 171.827 52.7164L169.827 52.7324ZM171.023 56.1928C171.858 57.118 172.984 57.5455 174.279 57.5455V55.5455C173.453 55.5455 172.903 55.2911 172.507 54.8526L171.023 56.1928ZM174.279 57.5455C175.122 57.5455 175.911 57.3592 176.623 56.9665L175.657 55.2153C175.27 55.4286 174.819 55.5455 174.279 55.5455V57.5455ZM176.628 56.9637C177.358 56.5553 177.93 55.966 178.338 55.2223L176.584 54.2606C176.348 54.6912 176.039 55.0016 175.652 55.2182L176.628 56.9637ZM178.335 55.2271C178.766 54.4509 178.958 53.5557 178.958 52.5824H176.958C176.958 53.2947 176.818 53.8389 176.587 54.2558L178.335 55.2271ZM189.311 62H188.311V63H189.311V62ZM189.311 40.1818V39.1818H188.311V40.1818H189.311ZM196.058 40.1818H197.058V39.1818H196.058V40.1818ZM196.058 44.1591H195.058V45.1591H196.058V44.1591ZM196.286 44.1591V45.1591H197.047L197.249 44.4254L196.286 44.1591ZM198.232 40.9489L198.846 41.7378L198.851 41.7337L198.232 40.9489ZM202.365 39.9545L202.227 40.945L202.241 40.9469L202.255 40.9484L202.365 39.9545ZM203.317 40.1392H204.317V39.3882L203.596 39.1789L203.317 40.1392ZM203.317 46.1761L202.992 47.1221L204.317 47.5761V46.1761H203.317ZM202.01 45.9062L201.886 46.8985L201.888 46.8988L202.01 45.9062ZM198.359 46.3608L198.842 47.2368L198.846 47.2344L198.359 46.3608ZM196.811 47.8807L195.946 47.3791L195.944 47.3832L196.811 47.8807ZM196.257 62V63H197.257V62H196.257ZM190.311 62V40.1818H188.311V62H190.311ZM189.311 41.1818H196.058V39.1818H189.311V41.1818ZM195.058 40.1818V44.1591H197.058V40.1818H195.058ZM196.058 45.1591H196.286V43.1591H196.058V45.1591ZM197.249 44.4254C197.608 43.1292 198.162 42.2707 198.846 41.7378L197.617 40.16C196.502 41.0285 195.759 42.3102 195.322 43.8928L197.249 44.4254ZM198.851 41.7337C199.567 41.1689 200.392 40.8835 201.371 40.8835V38.8835C199.963 38.8835 198.696 39.3084 197.612 40.164L198.851 41.7337ZM201.371 40.8835C201.644 40.8835 201.929 40.9036 202.227 40.945L202.503 38.9641C202.119 38.9108 201.742 38.8835 201.371 38.8835V40.8835ZM202.255 40.9484C202.545 40.9807 202.806 41.0321 203.038 41.0996L203.596 39.1789C203.241 39.0758 202.867 39.0041 202.475 38.9607L202.255 40.9484ZM202.317 40.1392V46.1761H204.317V40.1392H202.317ZM203.641 45.2302C203.218 45.0853 202.707 44.9844 202.132 44.9137L201.888 46.8988C202.392 46.9607 202.752 47.0397 202.992 47.1221L203.641 45.2302ZM202.134 44.914C201.573 44.8439 201.057 44.8068 200.589 44.8068V46.8068C200.955 46.8068 201.386 46.836 201.886 46.8985L202.134 44.914ZM200.589 44.8068C199.61 44.8068 198.697 45.028 197.873 45.4872L198.846 47.2344C199.348 46.955 199.921 46.8068 200.589 46.8068V44.8068ZM197.877 45.4848C197.062 45.9335 196.415 46.5705 195.946 47.3792L197.676 48.3822C197.965 47.884 198.35 47.5077 198.842 47.2367L197.877 45.4848ZM195.944 47.3832C195.473 48.203 195.257 49.1382 195.257 50.1534H197.257C197.257 49.4262 197.41 48.8463 197.679 48.3782L195.944 47.3832ZM195.257 50.1534V62H197.257V50.1534H195.257ZM196.257 61H189.311V63H196.257V61Z" fill="black" mask="url(#path-1-outside-1_139_530)"/>
<path d="M2.2017 62H1.2017V63H2.2017V62ZM2.2017 32.9091V31.9091H1.2017V32.9091H2.2017ZM19.858 34.1875L19.3835 35.0678L19.3898 35.0712L19.858 34.1875ZM23.5369 37.7244L22.6677 38.2188L22.669 38.2212L23.5369 37.7244ZM23.5085 48.25L22.6453 47.7451L22.6443 47.7468L23.5085 48.25ZM19.7727 51.7301L20.2262 52.6214L20.2262 52.6214L19.7727 51.7301ZM6.59091 52.9659H5.59091V53.9659H6.59091V52.9659ZM6.59091 47.4261V46.4261H5.59091V47.4261H6.59091ZM15.3551 46.8722L14.8986 45.9825L14.8938 45.9849L15.3551 46.8722ZM16.9886 45.3239L17.8622 45.8106L17.8651 45.8053L16.9886 45.3239ZM16.9886 40.6506L16.1151 41.1373L16.1181 41.1426L16.9886 40.6506ZM15.3551 39.1165L14.9079 40.0109L14.9079 40.0109L15.3551 39.1165ZM9.23295 38.5767V37.5767H8.23295V38.5767H9.23295ZM9.23295 62V63H10.233V62H9.23295ZM3.2017 62V32.9091H1.2017V62H3.2017ZM2.2017 33.9091H14.2188V31.9091H2.2017V33.9091ZM14.2188 33.9091C16.2661 33.9091 17.9758 34.3091 19.3835 35.0678L20.3324 33.3072C18.5772 32.3613 16.5275 31.9091 14.2188 31.9091V33.9091ZM19.3898 35.0712C20.8186 35.8281 21.9031 36.8745 22.6677 38.2188L24.4062 37.23C23.4472 35.544 22.0792 34.2326 20.3261 33.3038L19.3898 35.0712ZM22.669 38.2212C23.4318 39.5539 23.8295 41.1295 23.8295 42.9801H25.8295C25.8295 40.8345 25.3655 38.9063 24.4048 37.2277L22.669 38.2212ZM23.8295 42.9801C23.8295 44.8374 23.4236 46.4145 22.6453 47.7451L24.3717 48.7549C25.3548 47.0742 25.8295 45.138 25.8295 42.9801H23.8295ZM22.6443 47.7468C21.8748 49.0684 20.7761 50.0976 19.3193 50.8388L20.2262 52.6214C22.008 51.7149 23.3998 50.424 24.3727 48.7532L22.6443 47.7468ZM19.3193 50.8388C17.8685 51.5769 16.1083 51.9659 14.0057 51.9659V53.9659C16.3538 53.9659 18.4383 53.531 20.2262 52.6214L19.3193 50.8388ZM14.0057 51.9659H6.59091V53.9659H14.0057V51.9659ZM7.59091 52.9659V47.4261H5.59091V52.9659H7.59091ZM6.59091 48.4261H12.6989V46.4261H6.59091V48.4261ZM12.6989 48.4261C13.8699 48.4261 14.9251 48.2229 15.8165 47.7594L14.8938 45.9849C14.3647 46.2601 13.649 46.4261 12.6989 46.4261V48.4261ZM15.8117 47.7619C16.6949 47.3086 17.3903 46.6576 17.8622 45.8106L16.1151 44.8372C15.8484 45.3159 15.4547 45.6971 14.8986 45.9825L15.8117 47.7619ZM17.8651 45.8053C18.3276 44.9633 18.5426 44.0114 18.5426 42.9801H16.5426C16.5426 43.7291 16.3883 44.3397 16.1122 44.8424L17.8651 45.8053ZM18.5426 42.9801C18.5426 41.9423 18.3288 40.9893 17.8592 40.1585L16.1181 41.1426C16.3872 41.6187 16.5426 42.2187 16.5426 42.9801H18.5426ZM17.8622 40.1639C17.3889 39.3144 16.6905 38.6661 15.8023 38.2221L14.9079 40.0109C15.4592 40.2865 15.8497 40.6609 16.1151 41.1373L17.8622 40.1639ZM15.8023 38.2221C14.9079 37.7748 13.8595 37.5767 12.6989 37.5767V39.5767C13.6405 39.5767 14.3629 39.7384 14.9079 40.0109L15.8023 38.2221ZM12.6989 37.5767H9.23295V39.5767H12.6989V37.5767ZM8.23295 38.5767V62H10.233V38.5767H8.23295ZM9.23295 61H2.2017V63H9.23295V61ZM27.3438 38.6193H26.3438V39.6193H27.3438V38.6193ZM27.3438 32.9091V31.9091H26.3438V32.9091H27.3438ZM51.9318 32.9091H52.9318V31.9091H51.9318V32.9091ZM51.9318 38.6193V39.6193H52.9318V38.6193H51.9318ZM43.1108 38.6193V37.6193H42.1108V38.6193H43.1108ZM43.1108 62V63H44.1108V62H43.1108ZM36.179 62H35.179V63H36.179V62ZM36.179 38.6193H37.179V37.6193H36.179V38.6193ZM28.3438 38.6193V32.9091H26.3438V38.6193H28.3438ZM27.3438 33.9091H51.9318V31.9091H27.3438V33.9091ZM50.9318 32.9091V38.6193H52.9318V32.9091H50.9318ZM51.9318 37.6193H43.1108V39.6193H51.9318V37.6193ZM42.1108 38.6193V62H44.1108V38.6193H42.1108ZM43.1108 61H36.179V63H43.1108V61ZM37.179 62V38.6193H35.179V62H37.179ZM36.179 37.6193H27.3438V39.6193H36.179V37.6193ZM98.9595 43.4489V44.4489H100.062L99.9548 43.3515L98.9595 43.4489ZM91.8572 43.4489L90.8656 43.5777L90.9787 44.4489H91.8572V43.4489ZM91.2749 41.4744L90.3804 41.9216L90.3804 41.9216L91.2749 41.4744ZM90.1101 39.9688L90.7633 39.2116L90.7633 39.2116L90.1101 39.9688ZM88.3913 39.017L88.0628 39.9615L88.071 39.9644L88.0792 39.9671L88.3913 39.017ZM82.5675 39.7131L82.0075 38.8846L82.0039 38.887L82.5675 39.7131ZM80.2237 42.7102L79.3018 42.3228L79.2995 42.3285L80.2237 42.7102ZM80.2379 52.3125L79.316 52.7L79.3195 52.708L80.2379 52.3125ZM82.5817 55.2528L82.0306 56.0874L82.0397 56.0933L82.5817 55.2528ZM88.2919 55.9347L87.9968 54.9792L87.9928 54.9804L88.2919 55.9347ZM89.9822 55.0682L90.5994 55.855L90.6014 55.8535L89.9822 55.0682ZM91.1896 53.6619L90.3232 53.1626L90.3205 53.1674L91.1896 53.6619ZM91.8572 51.7727L91.8632 50.7727L91.0185 50.7677L90.8723 51.5997L91.8572 51.7727ZM98.9595 51.8153L99.955 51.9105L100.059 50.8219L98.9655 50.8154L98.9595 51.8153ZM97.8374 55.6222L96.9429 55.1749L96.9402 55.1804L97.8374 55.6222ZM95.2947 59.0455L95.9825 59.7714L95.9858 59.7682L95.2947 59.0455ZM91.3459 61.4886L90.9823 60.5571L90.9804 60.5578L91.3459 61.4886ZM78.9595 60.6648L78.4698 61.5367L78.4745 61.5393L78.9595 60.6648ZM74.0447 55.5795L74.9245 55.1041L74.0447 55.5795ZM74.0732 39.3153L73.1965 38.8341L73.1965 38.8341L74.0732 39.3153ZM90.9197 33.25L90.6071 34.1999L90.6126 34.2017L90.9197 33.25ZM94.8686 35.3807L94.2322 36.1521L94.2361 36.1552L94.8686 35.3807ZM98.9595 42.4489H91.8572V44.4489H98.9595V42.4489ZM92.8489 43.3201C92.7415 42.4933 92.5184 41.7255 92.1693 41.0272L90.3804 41.9216C90.6184 42.3976 90.7836 42.9461 90.8656 43.5777L92.8489 43.3201ZM92.1693 41.0272C91.8184 40.3254 91.3493 39.7171 90.7633 39.2116L89.4569 40.7259C89.8368 41.0537 90.1442 41.4492 90.3804 41.9216L92.1693 41.0272ZM90.7633 39.2116C90.1715 38.701 89.4798 38.3221 88.7035 38.067L88.0792 39.9671C88.6286 40.1476 89.0828 40.4032 89.4569 40.7259L90.7633 39.2116ZM88.7199 38.0725C87.9463 37.8035 87.1089 37.6761 86.218 37.6761V39.6761C86.9181 39.6761 87.5296 39.7761 88.0628 39.9615L88.7199 38.0725ZM86.218 37.6761C84.6369 37.6761 83.2184 38.0661 82.0075 38.8846L83.1275 40.5416C83.962 39.9775 84.9772 39.6761 86.218 39.6761V37.6761ZM82.0039 38.887C80.8078 39.703 79.9139 40.8666 79.3018 42.3228L81.1456 43.0977C81.6321 41.9402 82.3006 41.1057 83.131 40.5391L82.0039 38.887ZM79.2995 42.3285C78.6967 43.7878 78.4141 45.5064 78.4141 47.4545H80.4141C80.4141 45.6906 80.6712 44.2463 81.148 43.092L79.2995 42.3285ZM78.4141 47.4545C78.4141 49.4741 78.7002 51.2347 79.316 52.7L81.1598 51.925C80.6772 50.7767 80.4141 49.2986 80.4141 47.4545H78.4141ZM79.3195 52.708C79.9416 54.1526 80.8375 55.2994 82.0306 56.0873L83.1327 54.4184C82.3182 53.8805 81.6517 53.0671 81.1564 51.917L79.3195 52.708ZM82.0397 56.0933C83.2372 56.8655 84.6295 57.233 86.1754 57.233V55.233C84.9562 55.233 83.9526 54.947 83.1236 54.4124L82.0397 56.0933ZM86.1754 57.233C87.0368 57.233 87.8451 57.1227 88.591 56.8889L87.9928 54.9804C87.4698 55.1444 86.8671 55.233 86.1754 55.233V57.233ZM88.587 56.8901C89.3362 56.6587 90.0113 56.3163 90.5994 55.855L89.3651 54.2813C88.9873 54.5776 88.5355 54.8128 87.9968 54.9792L88.587 56.8901ZM90.6014 55.8535C91.1959 55.3847 91.683 54.8169 92.0588 54.1565L90.3205 53.1674C90.0713 53.6054 89.7534 53.9752 89.3631 54.2829L90.6014 55.8535ZM92.0561 54.1612C92.442 53.4916 92.701 52.7495 92.8422 51.9458L90.8723 51.5997C90.7673 52.1975 90.5812 52.7148 90.3232 53.1626L92.0561 54.1612ZM91.8512 52.7727L98.9535 52.8153L98.9655 50.8154L91.8632 50.7727L91.8512 52.7727ZM97.9641 51.7202C97.8536 52.876 97.5173 54.0262 96.9429 55.1749L98.7318 56.0694C99.4074 54.7181 99.8192 53.3305 99.955 51.9105L97.9641 51.7202ZM96.9402 55.1804C96.38 56.318 95.6047 57.3655 94.6037 58.3227L95.9858 59.7682C97.1439 58.661 98.0636 57.4263 98.7345 56.0639L96.9402 55.1804ZM94.607 58.3195C93.6319 59.2433 92.4296 59.9923 90.9823 60.5571L91.7094 62.4202C93.3683 61.7729 94.7985 60.8931 95.9825 59.7714L94.607 58.3195ZM90.9804 60.5578C89.5745 61.1098 87.9314 61.3977 86.0334 61.3977V63.3977C88.1316 63.3977 90.0302 63.0795 91.7114 62.4195L90.9804 60.5578ZM86.0334 61.3977C83.5523 61.3977 81.3643 60.8548 79.4445 59.7902L78.4745 61.5393C80.7214 62.7853 83.2494 63.3977 86.0334 63.3977V61.3977ZM79.4492 59.7929C77.5509 58.7267 76.0432 57.1742 74.9245 55.1041L73.165 56.055C74.4516 58.4357 76.2205 60.2733 78.4698 61.5367L79.4492 59.7929ZM74.9245 55.1041C73.8188 53.0581 73.2408 50.5224 73.2408 47.4545H71.2408C71.2408 50.7693 71.8654 53.6502 73.165 56.055L74.9245 55.1041ZM73.2408 47.4545C73.2408 44.379 73.8276 41.8408 74.9498 39.7965L73.1965 38.8341C71.8755 41.2406 71.2408 44.1286 71.2408 47.4545H73.2408ZM74.9498 39.7965C76.0868 37.7253 77.6082 36.1765 79.5155 35.1188L78.5456 33.3698C76.2862 34.6227 74.5027 36.4547 73.1965 38.8341L74.9498 39.7965ZM79.5155 35.1188C81.438 34.0528 83.603 33.5114 86.0334 33.5114V31.5114C83.2933 31.5114 80.7898 32.1253 78.5456 33.3698L79.5155 35.1188ZM86.0334 33.5114C87.701 33.5114 89.223 33.7443 90.6071 34.1999L91.2324 32.3001C89.6241 31.7708 87.8885 31.5114 86.0334 31.5114V33.5114ZM90.6126 34.2017C91.9968 34.6485 93.1996 35.3002 94.2322 36.1521L95.505 34.6093C94.2649 33.5862 92.8351 32.8174 91.2269 32.2983L90.6126 34.2017ZM94.2361 36.1552C95.2636 36.9944 96.1026 38.0285 96.7529 39.2684L98.5241 38.3395C97.754 36.8711 96.7463 35.623 95.5011 34.6061L94.2361 36.1552ZM96.7529 39.2684C97.3952 40.4931 97.8046 41.9137 97.9643 43.5462L99.9548 43.3515C99.7736 41.4992 99.3022 39.8232 98.5241 38.3395L96.7529 39.2684ZM107.259 61.0057L106.758 61.8715L106.764 61.8748L107.259 61.0057ZM103.466 57.0568L102.579 57.5179L102.582 57.5238L103.466 57.0568ZM103.466 45.267L102.581 44.8021L102.58 44.804L103.466 45.267ZM107.259 41.3182L107.755 42.1861L107.757 42.1852L107.259 41.3182ZM119.062 41.3182L118.562 42.184L118.568 42.1873L119.062 41.3182ZM122.855 45.267L121.968 45.7281L121.971 45.734L122.855 45.267ZM122.855 57.0568L121.97 56.5919L121.969 56.5937L122.855 57.0568ZM119.062 61.0057L119.559 61.8736L119.561 61.8727L119.062 61.0057ZM115.327 56.4034L114.664 55.6546L114.664 55.6546L115.327 56.4034ZM116.648 54.2727L115.702 53.9476L115.699 53.9565L116.648 54.2727ZM116.648 47.9375L115.699 48.2537L115.702 48.2626L116.648 47.9375ZM115.327 45.8068L115.99 45.0581L115.99 45.0581L115.327 45.8068ZM111.023 45.8068L110.372 45.0475L110.366 45.0527L111.023 45.8068ZM109.673 47.9375L108.728 47.6124L108.725 47.6213L109.673 47.9375ZM109.673 54.2727L108.725 54.589L108.728 54.5978L109.673 54.2727ZM111.023 56.4034L110.366 57.1575L110.372 57.1627L111.023 56.4034ZM113.168 61.4119C111.013 61.4119 109.222 60.972 107.753 60.1365L106.764 61.8748C108.591 62.9143 110.739 63.4119 113.168 63.4119V61.4119ZM107.759 60.1399C106.285 59.2878 105.153 58.1104 104.35 56.5898L102.582 57.5238C103.559 59.3745 104.956 60.8296 106.758 61.8715L107.759 60.1399ZM104.353 56.5958C103.558 55.0655 103.145 53.2636 103.145 51.1619H101.145C101.145 53.53 101.612 55.658 102.579 57.5179L104.353 56.5958ZM103.145 51.1619C103.145 49.0499 103.559 47.2491 104.352 45.7301L102.58 44.804C101.612 46.6562 101.145 48.7853 101.145 51.1619H103.145ZM104.351 45.732C105.154 44.2029 106.285 43.0276 107.755 42.1861L106.762 40.4502C104.956 41.4838 103.558 42.941 102.581 44.8021L104.351 45.732ZM107.757 42.1852C109.225 41.3417 111.015 40.8977 113.168 40.8977V38.8977C110.737 38.8977 108.588 39.4007 106.76 40.4512L107.757 42.1852ZM113.168 40.8977C115.321 40.8977 117.105 41.3418 118.562 42.1839L119.563 40.4524C117.743 39.4007 115.598 38.8977 113.168 38.8977V40.8977ZM118.568 42.1873C120.047 43.0287 121.175 44.2027 121.968 45.7281L123.742 44.806C122.774 42.9413 121.374 41.4826 119.557 40.449L118.568 42.1873ZM121.971 45.734C122.773 47.2522 123.19 49.0515 123.19 51.1619H125.19C125.19 48.7837 124.718 46.6531 123.739 44.8001L121.971 45.734ZM123.19 51.1619C123.19 53.2619 122.773 55.0625 121.97 56.5919L123.74 57.5217C124.718 55.661 125.19 53.5316 125.19 51.1619H123.19ZM121.969 56.5937C121.176 58.1106 120.047 59.2867 118.564 60.1387L119.561 61.8727C121.374 60.8307 122.773 59.3742 123.741 57.5199L121.969 56.5937ZM118.566 60.1377C117.108 60.9719 115.322 61.4119 113.168 61.4119V63.4119C115.596 63.4119 117.74 62.9144 119.559 61.8736L118.566 60.1377ZM113.21 58.1705C114.267 58.1705 115.214 57.8389 115.99 57.1522L114.664 55.6546C114.284 55.9906 113.821 56.1705 113.21 56.1705V58.1705ZM115.99 57.1522C116.727 56.4992 117.251 55.6249 117.596 54.589L115.699 53.9565C115.438 54.7388 115.082 55.2849 114.664 55.6546L115.99 57.1522ZM117.593 54.5978C117.949 53.5624 118.116 52.3975 118.116 51.1193H116.116C116.116 52.2275 115.971 53.1649 115.702 53.9476L117.593 54.5978ZM118.116 51.1193C118.116 49.8241 117.95 48.6493 117.593 47.6124L115.702 48.2626C115.971 49.0438 116.116 49.9903 116.116 51.1193H118.116ZM117.596 47.6213C117.251 46.5854 116.727 45.711 115.99 45.0581L114.664 46.5556C115.082 46.9253 115.438 47.4714 115.699 48.2537L117.596 47.6213ZM115.99 45.0581C115.214 44.3713 114.267 44.0398 113.21 44.0398V46.0398C113.821 46.0398 114.284 46.2196 114.664 46.5556L115.99 45.0581ZM113.21 44.0398C112.135 44.0398 111.168 44.3654 110.372 45.0476L111.674 46.5661C112.071 46.2255 112.562 46.0398 113.21 46.0398V44.0398ZM110.366 45.0527C109.619 45.7034 109.084 46.5761 108.728 47.6124L110.619 48.2626C110.888 47.4807 111.252 46.9329 111.68 46.5609L110.366 45.0527ZM108.725 47.6213C108.38 48.6552 108.219 49.8268 108.219 51.1193H110.219C110.219 49.9875 110.361 49.038 110.622 48.2537L108.725 47.6213ZM108.219 51.1193C108.219 52.3947 108.38 53.5564 108.725 54.589L110.622 53.9565C110.36 53.1708 110.219 52.2303 110.219 51.1193H108.219ZM108.728 54.5978C109.084 55.6342 109.619 56.5068 110.366 57.1575L111.68 55.6493C111.252 55.2773 110.888 54.7295 110.619 53.9476L108.728 54.5978ZM110.372 57.1627C111.168 57.8448 112.135 58.1705 113.21 58.1705V56.1705C112.562 56.1705 112.071 55.9847 111.674 55.6442L110.372 57.1627ZM134.695 32.9091H135.695V31.9091H134.695V32.9091ZM134.695 62V63H135.695V62H134.695ZM127.749 62H126.749V63H127.749V62ZM127.749 32.9091V31.9091H126.749V32.9091H127.749ZM133.695 32.9091V62H135.695V32.9091H133.695ZM134.695 61H127.749V63H134.695V61ZM128.749 62V32.9091H126.749V62H128.749ZM127.749 33.9091H134.695V31.9091H127.749V33.9091ZM143.391 61.0057L142.891 61.8715L142.897 61.8748L143.391 61.0057ZM139.599 57.0568L138.711 57.5179L138.714 57.5238L139.599 57.0568ZM139.599 45.267L138.713 44.8021L138.712 44.804L139.599 45.267ZM143.391 41.3182L143.888 42.1861L143.89 42.1852L143.391 41.3182ZM155.195 41.3182L154.695 42.184L154.701 42.1873L155.195 41.3182ZM158.988 45.267L158.101 45.7281L158.104 45.734L158.988 45.267ZM158.988 57.0568L158.103 56.5919L158.102 56.5937L158.988 57.0568ZM155.195 61.0057L155.692 61.8736L155.694 61.8727L155.195 61.0057ZM151.46 56.4034L150.797 55.6546L150.797 55.6546L151.46 56.4034ZM152.781 54.2727L151.835 53.9476L151.832 53.9565L152.781 54.2727ZM152.781 47.9375L151.832 48.2537L151.835 48.2626L152.781 47.9375ZM151.46 45.8068L152.122 45.0581L152.122 45.0581L151.46 45.8068ZM147.156 45.8068L146.505 45.0475L146.499 45.0527L147.156 45.8068ZM145.806 47.9375L144.86 47.6124L144.857 47.6213L145.806 47.9375ZM145.806 54.2727L144.857 54.589L144.86 54.5978L145.806 54.2727ZM147.156 56.4034L146.499 57.1575L146.505 57.1627L147.156 56.4034ZM149.3 61.4119C147.146 61.4119 145.354 60.972 143.886 60.1365L142.897 61.8748C144.724 62.9143 146.871 63.4119 149.3 63.4119V61.4119ZM143.892 60.1399C142.418 59.2878 141.286 58.1104 140.483 56.5898L138.714 57.5238C139.692 59.3745 141.088 60.8296 142.891 61.8715L143.892 60.1399ZM140.486 56.5958C139.691 55.0655 139.278 53.2636 139.278 51.1619H137.278C137.278 53.53 137.745 55.658 138.711 57.5179L140.486 56.5958ZM139.278 51.1619C139.278 49.0499 139.691 47.2491 140.485 45.7301L138.712 44.804C137.745 46.6562 137.278 48.7853 137.278 51.1619H139.278ZM140.484 45.732C141.287 44.2029 142.418 43.0276 143.888 42.1861L142.895 40.4502C141.089 41.4838 139.691 42.941 138.713 44.8021L140.484 45.732ZM143.89 42.1852C145.357 41.3417 147.148 40.8977 149.3 40.8977V38.8977C146.87 38.8977 144.721 39.4007 142.893 40.4512L143.89 42.1852ZM149.3 40.8977C151.453 40.8977 153.238 41.3418 154.695 42.1839L155.696 40.4524C153.876 39.4007 151.731 38.8977 149.3 38.8977V40.8977ZM154.701 42.1873C156.18 43.0287 157.308 44.2027 158.101 45.7281L159.875 44.806C158.906 42.9413 157.506 41.4826 155.69 40.449L154.701 42.1873ZM158.104 45.734C158.905 47.2522 159.323 49.0515 159.323 51.1619H161.323C161.323 48.7837 160.851 46.6531 159.872 44.8001L158.104 45.734ZM159.323 51.1619C159.323 53.2619 158.906 55.0625 158.103 56.5919L159.873 57.5217C160.85 55.661 161.323 53.5316 161.323 51.1619H159.323ZM158.102 56.5937C157.309 58.1106 156.179 59.2867 154.697 60.1387L155.694 61.8727C157.507 60.8307 158.905 59.3742 159.874 57.5199L158.102 56.5937ZM154.699 60.1377C153.241 60.9719 151.455 61.4119 149.3 61.4119V63.4119C151.729 63.4119 153.873 62.9144 155.692 61.8736L154.699 60.1377ZM149.343 58.1705C150.399 58.1705 151.347 57.8389 152.122 57.1522L150.797 55.6546C150.417 55.9906 149.953 56.1705 149.343 56.1705V58.1705ZM152.122 57.1522C152.86 56.4992 153.384 55.6249 153.729 54.589L151.832 53.9565C151.571 54.7388 151.214 55.2849 150.797 55.6546L152.122 57.1522ZM153.726 54.5978C154.082 53.5624 154.249 52.3975 154.249 51.1193H152.249C152.249 52.2275 152.104 53.1649 151.835 53.9476L153.726 54.5978ZM154.249 51.1193C154.249 49.8241 154.083 48.6493 153.726 47.6124L151.835 48.2626C152.103 49.0438 152.249 49.9903 152.249 51.1193H154.249ZM153.729 47.6213C153.384 46.5854 152.86 45.711 152.122 45.0581L150.797 46.5556C151.214 46.9253 151.571 47.4714 151.832 48.2537L153.729 47.6213ZM152.122 45.0581C151.347 44.3713 150.399 44.0398 149.343 44.0398V46.0398C149.953 46.0398 150.417 46.2196 150.797 46.5556L152.122 45.0581ZM149.343 44.0398C148.267 44.0398 147.301 44.3654 146.505 45.0476L147.806 46.5661C148.204 46.2255 148.695 46.0398 149.343 46.0398V44.0398ZM146.499 45.0527C145.752 45.7034 145.217 46.5761 144.86 47.6124L146.752 48.2626C147.021 47.4807 147.385 46.9329 147.812 46.5609L146.499 45.0527ZM144.857 47.6213C144.513 48.6552 144.352 49.8268 144.352 51.1193H146.352C146.352 49.9875 146.493 49.038 146.755 48.2537L144.857 47.6213ZM144.352 51.1193C144.352 52.3947 144.513 53.5564 144.857 54.589L146.755 53.9565C146.493 53.1708 146.352 52.2303 146.352 51.1193H144.352ZM144.86 54.5978C145.217 55.6342 145.752 56.5068 146.499 57.1575L147.812 55.6493C147.385 55.2773 147.021 54.7295 146.752 53.9476L144.86 54.5978ZM146.505 57.1627C147.301 57.8448 148.267 58.1705 149.343 58.1705V56.1705C148.695 56.1705 148.204 55.9847 147.806 55.6442L146.505 57.1627ZM177.958 40.1818V39.1818H176.958V40.1818H177.958ZM184.89 40.1818H185.89V39.1818H184.89V40.1818ZM184.89 62V63H185.89V62H184.89ZM178.271 62H177.271V63H178.271V62ZM178.271 57.9375H179.271V56.9375H178.271V57.9375ZM178.043 57.9375V56.9375H177.342L177.103 57.5974L178.043 57.9375ZM175.572 61.1193L176.13 61.9493L176.131 61.9482L175.572 61.1193ZM167.461 61.2614L166.943 62.1169L166.943 62.1169L167.461 61.2614ZM164.833 58.4062L163.941 58.8589L163.943 58.8617L164.833 58.4062ZM163.881 54.0881H162.881L162.881 54.0938L163.881 54.0881ZM163.881 40.1818V39.1818H162.881V40.1818H163.881ZM170.827 40.1818H171.827V39.1818H170.827V40.1818ZM170.827 52.7244L169.827 52.7244L169.827 52.7324L170.827 52.7244ZM171.765 55.5227L172.507 54.8526L172.507 54.8526L171.765 55.5227ZM176.14 56.0909L176.623 56.9665L176.628 56.9637L176.14 56.0909ZM177.461 54.7415L176.587 54.2558L176.584 54.2606L177.461 54.7415ZM178.958 52.5824V40.1818H176.958V52.5824H178.958ZM177.958 41.1818H184.89V39.1818H177.958V41.1818ZM183.89 40.1818V62H185.89V40.1818H183.89ZM184.89 61H178.271V63H184.89V61ZM179.271 62V57.9375H177.271V62H179.271ZM178.271 56.9375H178.043V58.9375H178.271V56.9375ZM177.103 57.5974C176.691 58.7357 176 59.6242 175.012 60.2904L176.131 61.9482C177.473 61.0425 178.43 59.8098 178.984 58.2776L177.103 57.5974ZM175.014 60.2894C174.051 60.9366 172.857 61.2841 171.381 61.2841V63.2841C173.182 63.2841 174.782 62.8551 176.13 61.9493L175.014 60.2894ZM171.381 61.2841C170.053 61.2841 168.93 60.9814 167.979 60.4058L166.943 62.1169C168.246 62.905 169.736 63.2841 171.381 63.2841V61.2841ZM167.979 60.4058C167.017 59.8243 166.267 59.0142 165.723 57.9508L163.943 58.8617C164.649 60.2414 165.651 61.3348 166.943 62.1169L167.979 60.4058ZM165.725 57.9536C165.182 56.8854 164.89 55.6045 164.881 54.0823L162.881 54.0938C162.892 55.8671 163.234 57.465 163.941 58.8589L165.725 57.9536ZM164.881 54.0881V40.1818H162.881V54.0881H164.881ZM163.881 41.1818H170.827V39.1818H163.881V41.1818ZM169.827 40.1818V52.7244H171.827V40.1818H169.827ZM169.827 52.7324C169.838 54.0883 170.2 55.2818 171.023 56.1928L172.507 54.8526C172.099 54.4 171.835 53.7279 171.827 52.7164L169.827 52.7324ZM171.023 56.1928C171.858 57.118 172.984 57.5455 174.279 57.5455V55.5455C173.453 55.5455 172.903 55.2911 172.507 54.8526L171.023 56.1928ZM174.279 57.5455C175.122 57.5455 175.911 57.3592 176.623 56.9665L175.657 55.2153C175.27 55.4286 174.819 55.5455 174.279 55.5455V57.5455ZM176.628 56.9637C177.358 56.5553 177.93 55.966 178.338 55.2223L176.584 54.2606C176.348 54.6912 176.039 55.0016 175.652 55.2182L176.628 56.9637ZM178.335 55.2271C178.766 54.4509 178.958 53.5557 178.958 52.5824H176.958C176.958 53.2947 176.818 53.8389 176.587 54.2558L178.335 55.2271ZM189.311 62H188.311V63H189.311V62ZM189.311 40.1818V39.1818H188.311V40.1818H189.311ZM196.058 40.1818H197.058V39.1818H196.058V40.1818ZM196.058 44.1591H195.058V45.1591H196.058V44.1591ZM196.286 44.1591V45.1591H197.047L197.249 44.4254L196.286 44.1591ZM198.232 40.9489L198.846 41.7378L198.851 41.7337L198.232 40.9489ZM202.365 39.9545L202.227 40.945L202.241 40.9469L202.255 40.9484L202.365 39.9545ZM203.317 40.1392H204.317V39.3882L203.596 39.1789L203.317 40.1392ZM203.317 46.1761L202.992 47.1221L204.317 47.5761V46.1761H203.317ZM202.01 45.9062L201.886 46.8985L201.888 46.8988L202.01 45.9062ZM198.359 46.3608L198.842 47.2368L198.846 47.2344L198.359 46.3608ZM196.811 47.8807L195.946 47.3791L195.944 47.3832L196.811 47.8807ZM196.257 62V63H197.257V62H196.257ZM190.311 62V40.1818H188.311V62H190.311ZM189.311 41.1818H196.058V39.1818H189.311V41.1818ZM195.058 40.1818V44.1591H197.058V40.1818H195.058ZM196.058 45.1591H196.286V43.1591H196.058V45.1591ZM197.249 44.4254C197.608 43.1292 198.162 42.2707 198.846 41.7378L197.617 40.16C196.502 41.0285 195.759 42.3102 195.322 43.8928L197.249 44.4254ZM198.851 41.7337C199.567 41.1689 200.392 40.8835 201.371 40.8835V38.8835C199.963 38.8835 198.696 39.3084 197.612 40.164L198.851 41.7337ZM201.371 40.8835C201.644 40.8835 201.929 40.9036 202.227 40.945L202.503 38.9641C202.119 38.9108 201.742 38.8835 201.371 38.8835V40.8835ZM202.255 40.9484C202.545 40.9807 202.806 41.0321 203.038 41.0996L203.596 39.1789C203.241 39.0758 202.867 39.0041 202.475 38.9607L202.255 40.9484ZM202.317 40.1392V46.1761H204.317V40.1392H202.317ZM203.641 45.2302C203.218 45.0853 202.707 44.9844 202.132 44.9137L201.888 46.8988C202.392 46.9607 202.752 47.0397 202.992 47.1221L203.641 45.2302ZM202.134 44.914C201.573 44.8439 201.057 44.8068 200.589 44.8068V46.8068C200.955 46.8068 201.386 46.836 201.886 46.8985L202.134 44.914ZM200.589 44.8068C199.61 44.8068 198.697 45.028 197.873 45.4872L198.846 47.2344C199.348 46.955 199.921 46.8068 200.589 46.8068V44.8068ZM197.877 45.4848C197.062 45.9335 196.415 46.5705 195.946 47.3792L197.676 48.3822C197.965 47.884 198.35 47.5077 198.842 47.2367L197.877 45.4848ZM195.944 47.3832C195.473 48.203 195.257 49.1382 195.257 50.1534H197.257C197.257 49.4262 197.41 48.8463 197.679 48.3782L195.944 47.3832ZM195.257 50.1534V62H197.257V50.1534H195.257ZM196.257 61H189.311V63H196.257V61Z" fill="black" fill-opacity="0.2" mask="url(#path-1-outside-1_139_530)"/>
</g>
</g>
<defs>
<filter id="filter0_dd_139_530" x="-2.79831" y="31.5114" width="211.115" height="39.9006" filterUnits="userSpaceOnUse" color-interpolation-filters="sRGB">
<feFlood flood-opacity="0" result="BackgroundImageFix"/>
<feColorMatrix in="SourceAlpha" type="matrix" values="0 0 0 0 0 0 0 0 0 0 0 0 0 0 0 0 0 0 127 0" result="hardAlpha"/>
<feOffset dy="4"/>
<feGaussianBlur stdDeviation="2"/>
<feComposite in2="hardAlpha" operator="out"/>
<feColorMatrix type="matrix" values="0 0 0 0 0 0 0 0 0 0 0 0 0 0 0 0 0 0 0.25 0"/>
<feBlend mode="normal" in2="BackgroundImageFix" result="effect1_dropShadow_139_530"/>
<feColorMatrix in="SourceAlpha" type="matrix" values="0 0 0 0 0 0 0 0 0 0 0 0 0 0 0 0 0 0 127 0" result="hardAlpha"/>
<feOffset dy="4"/>
<feGaussianBlur stdDeviation="2"/>
<feComposite in2="hardAlpha" operator="out"/>
<feColorMatrix type="matrix" values="0 0 0 0 0 0 0 0 0 0 0 0 0 0 0 0 0 0 0.25 0"/>
<feBlend mode="normal" in2="effect1_dropShadow_139_530" result="effect2_dropShadow_139_530"/>
<feBlend mode="normal" in="SourceGraphic" in2="effect2_dropShadow_139_530" result="shape"/>
</filter>
<clipPath id="clip0_139_530">
<rect width="322" height="117" fill="white"/>
</clipPath>
</defs>
</svg>
