<svg width="322" height="117" viewBox="0 0 322 117" fill="none" xmlns="http://www.w3.org/2000/svg">
<g clip-path="url(#clip0_139_530)">
<rect width="322" height="117" fill="white"/>
<g filter="url(#filter0_dd_139_530)">
<mask id="path-1-outside-1_139_530" maskUnits="userSpaceOnUse" x="1" y="30" width="203" height="41" fill="black">
<rect fill="white" x="1" y="30" width="203" height="41"/>
<path d="M2.64205 69V34.0909H17.0625C19.6761 34.0909 21.9318 34.6023 23.8295 35.625C25.7386 36.6364 27.2102 38.0511 28.2443 39.8693C29.2784 41.6761 29.7955 43.7784 29.7955 46.1761C29.7955 48.5852 29.267 50.6932 28.2102 52.5C27.1648 54.2955 25.6705 55.6875 23.7273 56.6761C21.7841 57.6648 19.4773 58.1591 16.8068 58.1591H7.90909V51.5114H15.2386C16.5114 51.5114 17.5739 51.2898 18.4261 50.8466C19.2898 50.4034 19.9432 49.7841 20.3864 48.9886C20.8295 48.1818 21.0511 47.2443 21.0511 46.1761C21.0511 45.0966 20.8295 44.1648 20.3864 43.3807C19.9432 42.5852 19.2898 41.9716 18.4261 41.5398C17.5625 41.108 16.5 40.892 15.2386 40.892H11.0795V69H2.64205ZM48.733 42.8182V48.9545H32.2159V42.8182H48.733ZM35.6761 36.5455H44.0114V60.767C44.0114 61.2784 44.0909 61.6932 44.25 62.0114C44.4205 62.3182 44.6648 62.5398 44.983 62.6761C45.3011 62.8011 45.6818 62.8636 46.125 62.8636C46.4432 62.8636 46.7784 62.8352 47.1307 62.7784C47.4943 62.7102 47.767 62.6534 47.9489 62.608L49.2102 68.625C48.8125 68.7386 48.25 68.8807 47.5227 69.0511C46.8068 69.2216 45.9489 69.3295 44.9489 69.375C42.9943 69.4659 41.3182 69.2386 39.9205 68.6932C38.5341 68.1364 37.4716 67.2727 36.733 66.1023C36.0057 64.9318 35.6534 63.4602 35.6761 61.6875V36.5455ZM63.2983 69V34.0909H87.1278V40.9432H71.7358V48.1023H85.6108V54.9716H71.7358V69H63.2983ZM91.3764 69V42.8182H99.7116V69H91.3764ZM95.5526 39.767C94.3821 39.767 93.3764 39.3807 92.5355 38.608C91.6946 37.8239 91.2741 36.8807 91.2741 35.7784C91.2741 34.6875 91.6946 33.7557 92.5355 32.983C93.3764 32.1989 94.3821 31.8068 95.5526 31.8068C96.7344 31.8068 97.7401 32.1989 98.5696 32.983C99.4105 33.7557 99.831 34.6875 99.831 35.7784C99.831 36.8807 99.4105 37.8239 98.5696 38.608C97.7401 39.3807 96.7344 39.767 95.5526 39.767ZM113.352 54.0682V69H105.017V42.8182H112.943V47.625H113.233C113.813 46.0227 114.801 44.767 116.199 43.858C117.597 42.9375 119.261 42.4773 121.193 42.4773C123.034 42.4773 124.631 42.892 125.983 43.7216C127.347 44.5398 128.403 45.6875 129.153 47.1648C129.915 48.6307 130.29 50.3466 130.278 52.3125V69H121.943V53.9489C121.955 52.4943 121.585 51.358 120.835 50.5398C120.097 49.7216 119.068 49.3125 117.75 49.3125C116.875 49.3125 116.102 49.5057 115.432 49.892C114.773 50.267 114.261 50.8068 113.898 51.5114C113.545 52.2159 113.364 53.0682 113.352 54.0682ZM135.439 69V42.8182H143.774V69H135.439ZM139.615 39.767C138.445 39.767 137.439 39.3807 136.598 38.608C135.757 37.8239 135.337 36.8807 135.337 35.7784C135.337 34.6875 135.757 33.7557 136.598 32.983C137.439 32.1989 138.445 31.8068 139.615 31.8068C140.797 31.8068 141.803 32.1989 142.632 32.983C143.473 33.7557 143.893 34.6875 143.893 35.7784C143.893 36.8807 143.473 37.8239 142.632 38.608C141.803 39.3807 140.797 39.767 139.615 39.767ZM171.938 50.8125L164.284 51.017C164.205 50.4716 163.989 49.9886 163.636 49.5682C163.284 49.1364 162.824 48.8011 162.256 48.5625C161.699 48.3125 161.051 48.1875 160.312 48.1875C159.347 48.1875 158.523 48.3807 157.841 48.767C157.17 49.1534 156.841 49.6761 156.852 50.3352C156.841 50.8466 157.045 51.2898 157.466 51.6648C157.898 52.0398 158.665 52.3409 159.767 52.5682L164.812 53.5227C167.426 54.0227 169.369 54.8523 170.642 56.0114C171.926 57.1705 172.574 58.7045 172.585 60.6136C172.574 62.4091 172.04 63.9716 170.983 65.3011C169.938 66.6307 168.506 67.6648 166.688 68.4034C164.869 69.1307 162.79 69.4943 160.449 69.4943C156.71 69.4943 153.761 68.7273 151.602 67.1932C149.455 65.6477 148.227 63.5795 147.92 60.9886L156.153 60.7841C156.335 61.7386 156.807 62.4659 157.568 62.9659C158.33 63.4659 159.301 63.7159 160.483 63.7159C161.551 63.7159 162.42 63.517 163.091 63.1193C163.761 62.7216 164.102 62.1932 164.114 61.5341C164.102 60.9432 163.841 60.4716 163.33 60.1193C162.818 59.7557 162.017 59.4716 160.926 59.267L156.358 58.3977C153.733 57.9205 151.778 57.0398 150.494 55.7557C149.21 54.4602 148.574 52.8125 148.585 50.8125C148.574 49.0625 149.04 47.5682 149.983 46.3295C150.926 45.0795 152.267 44.125 154.006 43.4659C155.744 42.8068 157.795 42.4773 160.159 42.4773C163.705 42.4773 166.5 43.2216 168.545 44.7102C170.591 46.1875 171.722 48.2216 171.938 50.8125ZM185.024 54.0682V69H176.689V34.0909H184.751V47.625H185.041C185.632 46.0114 186.598 44.75 187.939 43.8409C189.291 42.9318 190.945 42.4773 192.899 42.4773C194.74 42.4773 196.342 42.8864 197.706 43.7045C199.07 44.5114 200.126 45.6534 200.876 47.1307C201.638 48.608 202.013 50.3352 202.001 52.3125V69H193.666V53.9489C193.678 52.4943 193.314 51.358 192.575 50.5398C191.837 49.7216 190.797 49.3125 189.456 49.3125C188.581 49.3125 187.808 49.5057 187.138 49.892C186.479 50.267 185.962 50.8068 185.587 51.5114C185.223 52.2159 185.036 53.0682 185.024 54.0682Z"/>
</mask>
<path d="M2.64205 69V34.0909H17.0625C19.6761 34.0909 21.9318 34.6023 23.8295 35.625C25.7386 36.6364 27.2102 38.0511 28.2443 39.8693C29.2784 41.6761 29.7955 43.7784 29.7955 46.1761C29.7955 48.5852 29.267 50.6932 28.2102 52.5C27.1648 54.2955 25.6705 55.6875 23.7273 56.6761C21.7841 57.6648 19.4773 58.1591 16.8068 58.1591H7.90909V51.5114H15.2386C16.5114 51.5114 17.5739 51.2898 18.4261 50.8466C19.2898 50.4034 19.9432 49.7841 20.3864 48.9886C20.8295 48.1818 21.0511 47.2443 21.0511 46.1761C21.0511 45.0966 20.8295 44.1648 20.3864 43.3807C19.9432 42.5852 19.2898 41.9716 18.4261 41.5398C17.5625 41.108 16.5 40.892 15.2386 40.892H11.0795V69H2.64205ZM48.733 42.8182V48.9545H32.2159V42.8182H48.733ZM35.6761 36.5455H44.0114V60.767C44.0114 61.2784 44.0909 61.6932 44.25 62.0114C44.4205 62.3182 44.6648 62.5398 44.983 62.6761C45.3011 62.8011 45.6818 62.8636 46.125 62.8636C46.4432 62.8636 46.7784 62.8352 47.1307 62.7784C47.4943 62.7102 47.767 62.6534 47.9489 62.608L49.2102 68.625C48.8125 68.7386 48.25 68.8807 47.5227 69.0511C46.8068 69.2216 45.9489 69.3295 44.9489 69.375C42.9943 69.4659 41.3182 69.2386 39.9205 68.6932C38.5341 68.1364 37.4716 67.2727 36.733 66.1023C36.0057 64.9318 35.6534 63.4602 35.6761 61.6875V36.5455ZM63.2983 69V34.0909H87.1278V40.9432H71.7358V48.1023H85.6108V54.9716H71.7358V69H63.2983ZM91.3764 69V42.8182H99.7116V69H91.3764ZM95.5526 39.767C94.3821 39.767 93.3764 39.3807 92.5355 38.608C91.6946 37.8239 91.2741 36.8807 91.2741 35.7784C91.2741 34.6875 91.6946 33.7557 92.5355 32.983C93.3764 32.1989 94.3821 31.8068 95.5526 31.8068C96.7344 31.8068 97.7401 32.1989 98.5696 32.983C99.4105 33.7557 99.831 34.6875 99.831 35.7784C99.831 36.8807 99.4105 37.8239 98.5696 38.608C97.7401 39.3807 96.7344 39.767 95.5526 39.767ZM113.352 54.0682V69H105.017V42.8182H112.943V47.625H113.233C113.813 46.0227 114.801 44.767 116.199 43.858C117.597 42.9375 119.261 42.4773 121.193 42.4773C123.034 42.4773 124.631 42.892 125.983 43.7216C127.347 44.5398 128.403 45.6875 129.153 47.1648C129.915 48.6307 130.29 50.3466 130.278 52.3125V69H121.943V53.9489C121.955 52.4943 121.585 51.358 120.835 50.5398C120.097 49.7216 119.068 49.3125 117.75 49.3125C116.875 49.3125 116.102 49.5057 115.432 49.892C114.773 50.267 114.261 50.8068 113.898 51.5114C113.545 52.2159 113.364 53.0682 113.352 54.0682ZM135.439 69V42.8182H143.774V69H135.439ZM139.615 39.767C138.445 39.767 137.439 39.3807 136.598 38.608C135.757 37.8239 135.337 36.8807 135.337 35.7784C135.337 34.6875 135.757 33.7557 136.598 32.983C137.439 32.1989 138.445 31.8068 139.615 31.8068C140.797 31.8068 141.803 32.1989 142.632 32.983C143.473 33.7557 143.893 34.6875 143.893 35.7784C143.893 36.8807 143.473 37.8239 142.632 38.608C141.803 39.3807 140.797 39.767 139.615 39.767ZM171.938 50.8125L164.284 51.017C164.205 50.4716 163.989 49.9886 163.636 49.5682C163.284 49.1364 162.824 48.8011 162.256 48.5625C161.699 48.3125 161.051 48.1875 160.312 48.1875C159.347 48.1875 158.523 48.3807 157.841 48.767C157.17 49.1534 156.841 49.6761 156.852 50.3352C156.841 50.8466 157.045 51.2898 157.466 51.6648C157.898 52.0398 158.665 52.3409 159.767 52.5682L164.812 53.5227C167.426 54.0227 169.369 54.8523 170.642 56.0114C171.926 57.1705 172.574 58.7045 172.585 60.6136C172.574 62.4091 172.04 63.9716 170.983 65.3011C169.938 66.6307 168.506 67.6648 166.688 68.4034C164.869 69.1307 162.79 69.4943 160.449 69.4943C156.71 69.4943 153.761 68.7273 151.602 67.1932C149.455 65.6477 148.227 63.5795 147.92 60.9886L156.153 60.7841C156.335 61.7386 156.807 62.4659 157.568 62.9659C158.33 63.4659 159.301 63.7159 160.483 63.7159C161.551 63.7159 162.42 63.517 163.091 63.1193C163.761 62.7216 164.102 62.1932 164.114 61.5341C164.102 60.9432 163.841 60.4716 163.33 60.1193C162.818 59.7557 162.017 59.4716 160.926 59.267L156.358 58.3977C153.733 57.9205 151.778 57.0398 150.494 55.7557C149.21 54.4602 148.574 52.8125 148.585 50.8125C148.574 49.0625 149.04 47.5682 149.983 46.3295C150.926 45.0795 152.267 44.125 154.006 43.4659C155.744 42.8068 157.795 42.4773 160.159 42.4773C163.705 42.4773 166.5 43.2216 168.545 44.7102C170.591 46.1875 171.722 48.2216 171.938 50.8125ZM185.024 54.0682V69H176.689V34.0909H184.751V47.625H185.041C185.632 46.0114 186.598 44.75 187.939 43.8409C189.291 42.9318 190.945 42.4773 192.899 42.4773C194.74 42.4773 196.342 42.8864 197.706 43.7045C199.07 44.5114 200.126 45.6534 200.876 47.1307C201.638 48.608 202.013 50.3352 202.001 52.3125V69H193.666V53.9489C193.678 52.4943 193.314 51.358 192.575 50.5398C191.837 49.7216 190.797 49.3125 189.456 49.3125C188.581 49.3125 187.808 49.5057 187.138 49.892C186.479 50.267 185.962 50.8068 185.587 51.5114C185.223 52.2159 185.036 53.0682 185.024 54.0682Z" fill="#002855"/>
<path d="M2.64205 69H1.64205V70H2.64205V69ZM2.64205 34.0909V33.0909H1.64205V34.0909H2.64205ZM23.8295 35.625L23.3551 36.5053L23.3614 36.5087L23.8295 35.625ZM28.2443 39.8693L27.3751 40.3637L27.3764 40.366L28.2443 39.8693ZM28.2102 52.5L27.347 51.9951L27.3461 51.9968L28.2102 52.5ZM23.7273 56.6761L24.1807 57.5674L24.1807 57.5674L23.7273 56.6761ZM7.90909 58.1591H6.90909V59.1591H7.90909V58.1591ZM7.90909 51.5114V50.5114H6.90909V51.5114H7.90909ZM18.4261 50.8466L17.9696 49.9569L17.9648 49.9594L18.4261 50.8466ZM20.3864 48.9886L21.2599 49.4753L21.2628 49.4701L20.3864 48.9886ZM20.3864 43.3807L19.5128 43.8674L19.5158 43.8727L20.3864 43.3807ZM18.4261 41.5398L17.9789 42.4342L17.9789 42.4342L18.4261 41.5398ZM11.0795 40.892V39.892H10.0795V40.892H11.0795ZM11.0795 69V70H12.0795V69H11.0795ZM3.64205 69V34.0909H1.64205V69H3.64205ZM2.64205 35.0909H17.0625V33.0909H2.64205V35.0909ZM17.0625 35.0909C19.5454 35.0909 21.6311 35.5762 23.3551 36.5053L24.304 34.7447C22.2325 33.6284 19.8069 33.0909 17.0625 33.0909V35.0909ZM23.3614 36.5087C25.1083 37.4341 26.4382 38.7164 27.3751 40.3637L29.1136 39.3749C27.9823 37.3859 26.3689 35.8386 24.2977 34.7413L23.3614 36.5087ZM27.3764 40.366C28.3115 42 28.7955 43.9259 28.7955 46.1761H30.7955C30.7955 43.6309 30.2453 41.3523 29.1122 39.3726L27.3764 40.366ZM28.7955 46.1761C28.7955 48.435 28.3015 50.3633 27.347 51.9951L29.0734 53.0049C30.2326 51.023 30.7955 48.7355 30.7955 46.1761H28.7955ZM27.3461 51.9968C26.4022 53.6177 25.0545 54.8789 23.2738 55.7849L24.1807 57.5674C26.2864 56.4961 27.9273 54.9732 29.0744 53.0032L27.3461 51.9968ZM23.2738 55.7849C21.4992 56.6877 19.3546 57.1591 16.8068 57.1591V59.1591C19.6 59.1591 22.069 58.6418 24.1807 57.5674L23.2738 55.7849ZM16.8068 57.1591H7.90909V59.1591H16.8068V57.1591ZM8.90909 58.1591V51.5114H6.90909V58.1591H8.90909ZM7.90909 52.5114H15.2386V50.5114H7.90909V52.5114ZM15.2386 52.5114C16.6218 52.5114 17.854 52.2712 18.8875 51.7338L17.9648 49.9594C17.2937 50.3083 16.4009 50.5114 15.2386 50.5114V52.5114ZM18.8827 51.7363C19.9099 51.2092 20.7141 50.455 21.2599 49.4753L19.5128 48.5019C19.1722 49.1132 18.6697 49.5976 17.9696 49.9569L18.8827 51.7363ZM21.2628 49.4701C21.7992 48.4936 22.0511 47.3854 22.0511 46.1761H20.0511C20.0511 47.1032 19.8599 47.87 19.5099 48.5072L21.2628 49.4701ZM22.0511 46.1761C22.0511 44.9584 21.8003 43.8501 21.2569 42.8886L19.5158 43.8727C19.8587 44.4795 20.0511 45.2348 20.0511 46.1761H22.0511ZM21.2599 42.894C20.7128 41.912 19.9054 41.1614 18.8733 40.6453L17.9789 42.4342C18.6741 42.7818 19.1736 43.2585 19.5128 43.8674L21.2599 42.894ZM18.8734 40.6453C17.835 40.1262 16.6095 39.892 15.2386 39.892V41.892C16.3905 41.892 17.29 42.0897 17.9789 42.4342L18.8734 40.6453ZM15.2386 39.892H11.0795V41.892H15.2386V39.892ZM10.0795 40.892V69H12.0795V40.892H10.0795ZM11.0795 68H2.64205V70H11.0795V68ZM48.733 42.8182H49.733V41.8182H48.733V42.8182ZM48.733 48.9545V49.9545H49.733V48.9545H48.733ZM32.2159 48.9545H31.2159V49.9545H32.2159V48.9545ZM32.2159 42.8182V41.8182H31.2159V42.8182H32.2159ZM35.6761 36.5455V35.5455H34.6761V36.5455H35.6761ZM44.0114 36.5455H45.0114V35.5455H44.0114V36.5455ZM44.25 62.0114L43.3556 62.4586L43.3653 62.478L43.3758 62.497L44.25 62.0114ZM44.983 62.6761L44.589 63.5953L44.6031 63.6013L44.6173 63.6069L44.983 62.6761ZM47.1307 62.7784L47.2899 63.7656L47.3025 63.7636L47.315 63.7613L47.1307 62.7784ZM47.9489 62.608L48.9276 62.4028L48.7144 61.3858L47.7063 61.6378L47.9489 62.608ZM49.2102 68.625L49.4849 69.5865L50.3799 69.3308L50.189 68.4198L49.2102 68.625ZM47.5227 69.0511L47.2945 68.0775L47.2911 68.0783L47.5227 69.0511ZM44.9489 69.375L44.9035 68.376L44.9024 68.3761L44.9489 69.375ZM39.9205 68.6932L39.5477 69.6212L39.5569 69.6248L39.9205 68.6932ZM36.733 66.1023L35.8835 66.6301L35.8873 66.636L36.733 66.1023ZM35.6761 61.6875L36.6761 61.7003V61.6875H35.6761ZM47.733 42.8182V48.9545H49.733V42.8182H47.733ZM48.733 47.9545H32.2159V49.9545H48.733V47.9545ZM33.2159 48.9545V42.8182H31.2159V48.9545H33.2159ZM32.2159 43.8182H48.733V41.8182H32.2159V43.8182ZM35.6761 37.5455H44.0114V35.5455H35.6761V37.5455ZM43.0114 36.5455V60.767H45.0114V36.5455H43.0114ZM43.0114 60.767C43.0114 61.3705 43.1034 61.9543 43.3556 62.4586L45.1444 61.5641C45.0784 61.432 45.0114 61.1864 45.0114 60.767H43.0114ZM43.3758 62.497C43.6523 62.9946 44.0641 63.3703 44.589 63.5953L45.3769 61.757C45.2654 61.7092 45.1886 61.6417 45.1242 61.5257L43.3758 62.497ZM44.6173 63.6069C45.0808 63.789 45.592 63.8636 46.125 63.8636V61.8636C45.7717 61.8636 45.5214 61.8133 45.3486 61.7454L44.6173 63.6069ZM46.125 63.8636C46.5025 63.8636 46.8912 63.83 47.2899 63.7656L46.9714 61.7912C46.6656 61.8405 46.3839 61.8636 46.125 61.8636V63.8636ZM47.315 63.7613C47.6832 63.6922 47.9797 63.631 48.1914 63.5781L47.7063 61.6378C47.5544 61.6758 47.3054 61.7282 46.9464 61.7955L47.315 63.7613ZM46.9701 62.8131L48.2315 68.8302L50.189 68.4198L48.9276 62.4028L46.9701 62.8131ZM48.9355 67.6635C48.5608 67.7705 48.0165 67.9083 47.2945 68.0775L47.7509 70.0248C48.4835 69.853 49.0642 69.7067 49.4849 69.5865L48.9355 67.6635ZM47.2911 68.0783C46.6537 68.2301 45.8615 68.3325 44.9035 68.376L44.9943 70.374C46.0363 70.3266 46.96 70.2131 47.7543 70.0239L47.2911 68.0783ZM44.9024 68.3761C43.0471 68.4624 41.518 68.2432 40.284 67.7616L39.5569 69.6248C41.1183 70.2341 42.9416 70.4694 44.9953 70.3739L44.9024 68.3761ZM40.2932 67.7652C39.0856 67.2802 38.1959 66.5468 37.5786 65.5686L35.8873 66.636C36.7472 67.9987 37.9826 68.9925 39.5478 69.6211L40.2932 67.7652ZM37.5823 65.5745C36.981 64.6067 36.6551 63.3362 36.6761 61.7003L34.6762 61.6747C34.6517 63.5842 35.0304 65.257 35.8836 66.63L37.5823 65.5745ZM36.6761 61.6875V36.5455H34.6761V61.6875H36.6761ZM63.2983 69H62.2983V70H63.2983V69ZM63.2983 34.0909V33.0909H62.2983V34.0909H63.2983ZM87.1278 34.0909H88.1278V33.0909H87.1278V34.0909ZM87.1278 40.9432V41.9432H88.1278V40.9432H87.1278ZM71.7358 40.9432V39.9432H70.7358V40.9432H71.7358ZM71.7358 48.1023H70.7358V49.1023H71.7358V48.1023ZM85.6108 48.1023H86.6108V47.1023H85.6108V48.1023ZM85.6108 54.9716V55.9716H86.6108V54.9716H85.6108ZM71.7358 54.9716V53.9716H70.7358V54.9716H71.7358ZM71.7358 69V70H72.7358V69H71.7358ZM64.2983 69V34.0909H62.2983V69H64.2983ZM63.2983 35.0909H87.1278V33.0909H63.2983V35.0909ZM86.1278 34.0909V40.9432H88.1278V34.0909H86.1278ZM87.1278 39.9432H71.7358V41.9432H87.1278V39.9432ZM70.7358 40.9432V48.1023H72.7358V40.9432H70.7358ZM71.7358 49.1023H85.6108V47.1023H71.7358V49.1023ZM84.6108 48.1023V54.9716H86.6108V48.1023H84.6108ZM85.6108 53.9716H71.7358V55.9716H85.6108V53.9716ZM70.7358 54.9716V69H72.7358V54.9716H70.7358ZM71.7358 68H63.2983V70H71.7358V68ZM91.3764 69H90.3764V70H91.3764V69ZM91.3764 42.8182V41.8182H90.3764V42.8182H91.3764ZM99.7116 42.8182H100.712V41.8182H99.7116V42.8182ZM99.7116 69V70H100.712V69H99.7116ZM92.5355 38.608L91.8535 39.3394L91.8589 39.3443L92.5355 38.608ZM92.5355 32.983L93.2122 33.7193L93.2175 33.7143L92.5355 32.983ZM98.5696 32.983L97.8826 33.7098L97.893 33.7193L98.5696 32.983ZM98.5696 38.608L99.2512 39.3397L99.2516 39.3393L98.5696 38.608ZM92.3764 69V42.8182H90.3764V69H92.3764ZM91.3764 43.8182H99.7116V41.8182H91.3764V43.8182ZM98.7116 42.8182V69H100.712V42.8182H98.7116ZM99.7116 68H91.3764V70H99.7116V68ZM95.5526 38.767C94.6258 38.767 93.8635 38.4702 93.2121 37.8716L91.8589 39.3443C92.8893 40.2912 94.1384 40.767 95.5526 40.767V38.767ZM93.2175 37.8766C92.5696 37.2724 92.2741 36.5901 92.2741 35.7784H90.2741C90.2741 37.1712 90.8196 38.3753 91.8535 39.3393L93.2175 37.8766ZM92.2741 35.7784C92.2741 34.9819 92.5664 34.3127 93.2121 33.7193L91.8589 32.2466C90.8228 33.1987 90.2741 34.3931 90.2741 35.7784H92.2741ZM93.2175 33.7143C93.8696 33.1063 94.6302 32.8068 95.5526 32.8068V30.8068C94.134 30.8068 92.8833 31.2914 91.8535 32.2516L93.2175 33.7143ZM95.5526 32.8068C96.4889 32.8068 97.2459 33.1078 97.8827 33.7097L99.2565 32.2562C98.2342 31.2899 96.9798 30.8068 95.5526 30.8068V32.8068ZM97.893 33.7193C98.5387 34.3127 98.831 34.9819 98.831 35.7784H100.831C100.831 34.3931 100.282 33.1987 99.2462 32.2466L97.893 33.7193ZM98.831 35.7784C98.831 36.5901 98.5355 37.2724 97.8876 37.8766L99.2516 39.3393C100.285 38.3753 100.831 37.1712 100.831 35.7784H98.831ZM97.888 37.8762C97.252 38.4686 96.4933 38.767 95.5526 38.767V40.767C96.9755 40.767 98.2281 40.2927 99.2512 39.3397L97.888 37.8762ZM113.352 54.0682L112.352 54.0568V54.0682H113.352ZM113.352 69V70H114.352V69H113.352ZM105.017 69H104.017V70H105.017V69ZM105.017 42.8182V41.8182H104.017V42.8182H105.017ZM112.943 42.8182H113.943V41.8182H112.943V42.8182ZM112.943 47.625H111.943V48.625H112.943V47.625ZM113.233 47.625V48.625H113.935L114.173 47.9651L113.233 47.625ZM116.199 43.858L116.744 44.6963L116.749 44.6931L116.199 43.858ZM125.983 43.7216L125.46 44.574L125.468 44.5791L125.983 43.7216ZM129.153 47.1648L128.262 47.6175L128.266 47.6257L129.153 47.1648ZM130.278 52.3125L129.278 52.3067V52.3125H130.278ZM130.278 69V70H131.278V69H130.278ZM121.943 69H120.943V70H121.943V69ZM121.943 53.9489L120.943 53.9411V53.9489H121.943ZM120.835 50.5398L120.093 51.2099L120.098 51.2155L120.835 50.5398ZM115.432 49.892L115.926 50.7612L115.931 50.7585L115.432 49.892ZM113.898 51.5114L113.009 51.0527L113.003 51.0641L113.898 51.5114ZM112.352 54.0682V69H114.352V54.0682H112.352ZM113.352 68H105.017V70H113.352V68ZM106.017 69V42.8182H104.017V69H106.017ZM105.017 43.8182H112.943V41.8182H105.017V43.8182ZM111.943 42.8182V47.625H113.943V42.8182H111.943ZM112.943 48.625H113.233V46.625H112.943V48.625ZM114.173 47.9651C114.681 46.5627 115.533 45.4839 116.744 44.6962L115.654 43.0197C114.069 44.0502 112.944 45.4828 112.293 47.2849L114.173 47.9651ZM116.749 44.6931C117.959 43.896 119.426 43.4773 121.193 43.4773V41.4773C119.097 41.4773 117.234 41.979 115.649 43.0228L116.749 44.6931ZM121.193 43.4773C122.88 43.4773 124.289 43.8556 125.46 44.574L126.506 42.8692C124.972 41.9285 123.189 41.4773 121.193 41.4773V43.4773ZM125.468 44.5791C126.664 45.2963 127.593 46.3005 128.262 47.6175L130.045 46.7121C129.214 45.0745 128.029 43.7832 126.497 42.8641L125.468 44.5791ZM128.266 47.6257C128.939 48.9225 129.289 50.4724 129.278 52.3067L131.278 52.3183C131.291 50.2207 130.89 48.3389 130.041 46.7039L128.266 47.6257ZM129.278 52.3125V69H131.278V52.3125H129.278ZM130.278 68H121.943V70H130.278V68ZM122.943 69V53.9489H120.943V69H122.943ZM122.943 53.9567C122.956 52.33 122.541 50.9207 121.572 49.864L120.098 51.2155C120.629 51.7952 120.953 52.6586 120.943 53.9411L122.943 53.9567ZM121.577 49.8697C120.612 48.8005 119.291 48.3125 117.75 48.3125V50.3125C118.846 50.3125 119.581 50.6427 120.093 51.2099L121.577 49.8697ZM117.75 48.3125C116.723 48.3125 115.774 48.5408 114.933 49.0256L115.931 50.7585C116.431 50.4706 117.027 50.3125 117.75 50.3125V48.3125ZM114.937 49.0229C114.102 49.4982 113.457 50.1843 113.009 51.0527L114.786 51.97C115.065 51.4293 115.444 51.0359 115.926 50.7612L114.937 49.0229ZM113.003 51.0641C112.568 51.9356 112.365 52.945 112.352 54.0568L114.352 54.0795C114.362 53.1913 114.523 52.4963 114.792 51.9586L113.003 51.0641ZM135.439 69H134.439V70H135.439V69ZM135.439 42.8182V41.8182H134.439V42.8182H135.439ZM143.774 42.8182H144.774V41.8182H143.774V42.8182ZM143.774 69V70H144.774V69H143.774ZM136.598 38.608L135.916 39.3394L135.921 39.3443L136.598 38.608ZM136.598 32.983L137.275 33.7193L137.28 33.7143L136.598 32.983ZM142.632 32.983L141.945 33.7098L141.955 33.7193L142.632 32.983ZM142.632 38.608L143.314 39.3397L143.314 39.3393L142.632 38.608ZM136.439 69V42.8182H134.439V69H136.439ZM135.439 43.8182H143.774V41.8182H135.439V43.8182ZM142.774 42.8182V69H144.774V42.8182H142.774ZM143.774 68H135.439V70H143.774V68ZM139.615 38.767C138.688 38.767 137.926 38.4702 137.275 37.8716L135.921 39.3443C136.952 40.2912 138.201 40.767 139.615 40.767V38.767ZM137.28 37.8766C136.632 37.2724 136.337 36.5901 136.337 35.7784H134.337C134.337 37.1712 134.882 38.3753 135.916 39.3393L137.28 37.8766ZM136.337 35.7784C136.337 34.9819 136.629 34.3127 137.275 33.7193L135.921 32.2466C134.885 33.1987 134.337 34.3931 134.337 35.7784H136.337ZM137.28 33.7143C137.932 33.1063 138.693 32.8068 139.615 32.8068V30.8068C138.197 30.8068 136.946 31.2914 135.916 32.2516L137.28 33.7143ZM139.615 32.8068C140.551 32.8068 141.308 33.1078 141.945 33.7097L143.319 32.2562C142.297 31.2899 141.042 30.8068 139.615 30.8068V32.8068ZM141.955 33.7193C142.601 34.3127 142.893 34.9819 142.893 35.7784H144.893C144.893 34.3931 144.345 33.1987 143.309 32.2466L141.955 33.7193ZM142.893 35.7784C142.893 36.5901 142.598 37.2724 141.95 37.8766L143.314 39.3393C144.348 38.3753 144.893 37.1712 144.893 35.7784H142.893ZM141.95 37.8762C141.315 38.4686 140.556 38.767 139.615 38.767V40.767C141.038 40.767 142.291 40.2927 143.314 39.3397L141.95 37.8762ZM171.938 50.8125L171.964 51.8121L173.022 51.7839L172.934 50.7295L171.938 50.8125ZM164.284 51.017L163.295 51.1614L163.423 52.0404L164.311 52.0167L164.284 51.017ZM163.636 49.5682L162.861 50.2004L162.87 50.2104L163.636 49.5682ZM162.256 48.5625L161.846 49.4748L161.857 49.4798L161.868 49.4845L162.256 48.5625ZM157.841 48.767L157.348 47.897L157.342 47.9006L157.841 48.767ZM156.852 50.3352L157.852 50.3574L157.852 50.3377L157.852 50.318L156.852 50.3352ZM157.466 51.6648L156.8 52.4111L156.81 52.4198L157.466 51.6648ZM159.767 52.5682L159.565 53.5476L159.573 53.5492L159.581 53.5508L159.767 52.5682ZM164.812 53.5227L165 52.5405L164.998 52.5402L164.812 53.5227ZM170.642 56.0114L169.969 56.7507L169.972 56.7537L170.642 56.0114ZM172.585 60.6136L173.585 60.62L173.585 60.6077L172.585 60.6136ZM170.983 65.3011L170.2 64.6789L170.197 64.683L170.983 65.3011ZM166.688 68.4034L167.059 69.3319L167.064 69.3299L166.688 68.4034ZM151.602 67.1932L151.018 68.0049L151.023 68.0084L151.602 67.1932ZM147.92 60.9886L147.896 59.9889L146.798 60.0162L146.927 61.1062L147.92 60.9886ZM156.153 60.7841L157.136 60.597L156.977 59.7633L156.129 59.7844L156.153 60.7841ZM157.568 62.9659L158.117 62.13L158.117 62.13L157.568 62.9659ZM163.091 63.1193L162.581 62.2593L162.581 62.2593L163.091 63.1193ZM164.114 61.5341L165.113 61.5513L165.114 61.5331L165.113 61.5149L164.114 61.5341ZM163.33 60.1193L162.75 60.9343L162.756 60.9386L162.762 60.9428L163.33 60.1193ZM160.926 59.267L160.739 60.2494L160.742 60.2499L160.926 59.267ZM156.358 58.3977L156.545 57.4153L156.537 57.4139L156.358 58.3977ZM150.494 55.7557L149.784 56.4597L149.787 56.4628L150.494 55.7557ZM148.585 50.8125L149.585 50.8182L149.585 50.806L148.585 50.8125ZM149.983 46.3295L150.779 46.9354L150.781 46.9319L149.983 46.3295ZM154.006 43.4659L153.651 42.5308L153.651 42.5308L154.006 43.4659ZM168.545 44.7102L167.957 45.5188L167.96 45.5209L168.545 44.7102ZM171.911 49.8129L164.257 50.0174L164.311 52.0167L171.964 51.8121L171.911 49.8129ZM165.274 50.8727C165.167 50.1448 164.875 49.4892 164.403 48.926L162.87 50.2104C163.102 50.488 163.242 50.7984 163.295 51.1614L165.274 50.8727ZM164.411 48.9361C163.945 48.3643 163.346 47.9357 162.643 47.6405L161.868 49.4845C162.302 49.6665 162.623 49.9084 162.861 50.2003L164.411 48.9361ZM162.665 47.6502C161.956 47.3316 161.163 47.1875 160.312 47.1875V49.1875C160.939 49.1875 161.442 49.2934 161.846 49.4748L162.665 47.6502ZM160.312 47.1875C159.214 47.1875 158.211 47.4078 157.348 47.897L158.334 49.6371C158.834 49.3536 159.48 49.1875 160.312 49.1875V47.1875ZM157.342 47.9006C156.422 48.4307 155.834 49.2597 155.852 50.3525L157.852 50.318C157.848 50.0925 157.919 49.8761 158.34 49.6335L157.342 47.9006ZM155.853 50.313C155.834 51.149 156.186 51.8635 156.8 52.4111L158.132 50.9185C157.905 50.7161 157.848 50.5442 157.852 50.3574L155.853 50.313ZM156.81 52.4198C157.446 52.9716 158.428 53.3132 159.565 53.5476L159.969 51.5888C158.901 51.3686 158.35 51.108 158.122 50.9097L156.81 52.4198ZM159.581 53.5508L164.627 54.5053L164.998 52.5402L159.953 51.5856L159.581 53.5508ZM164.625 54.5049C167.148 54.9877 168.888 55.766 169.969 56.7507L171.315 55.272C169.851 53.9385 167.704 53.0578 165 52.5405L164.625 54.5049ZM169.972 56.7537C171.025 57.7039 171.575 58.959 171.585 60.6196L173.585 60.6077C173.572 58.4501 172.828 56.637 171.312 55.269L169.972 56.7537ZM171.585 60.6073C171.575 62.1927 171.109 63.535 170.2 64.6789L171.766 65.9234C172.97 64.4082 173.573 62.6255 173.585 60.62L171.585 60.6073ZM170.197 64.683C169.275 65.8554 167.994 66.7931 166.311 67.4769L167.064 69.3299C169.017 68.5364 170.6 67.406 171.769 65.9193L170.197 64.683ZM166.316 67.4749C164.637 68.1467 162.687 68.4943 160.449 68.4943V70.4943C162.893 70.4943 165.102 70.1147 167.059 69.3319L166.316 67.4749ZM160.449 68.4943C156.835 68.4943 154.115 67.7515 152.181 66.378L151.023 68.0084C153.408 69.703 156.585 70.4943 160.449 70.4943V68.4943ZM152.186 66.3815C150.263 64.9972 149.187 63.179 148.914 60.871L146.927 61.1062C147.268 63.9801 148.647 66.2983 151.018 68.0049L152.186 66.3815ZM147.945 61.9883L156.178 61.7838L156.129 59.7844L147.896 59.9889L147.945 61.9883ZM155.171 60.9712C155.4 62.172 156.015 63.1424 157.019 63.8018L158.117 62.13C157.598 61.7894 157.271 61.3053 157.136 60.597L155.171 60.9712ZM157.019 63.8018C157.986 64.4365 159.163 64.7159 160.483 64.7159V62.7159C159.439 62.7159 158.673 62.4953 158.117 62.13L157.019 63.8018ZM160.483 64.7159C161.667 64.7159 162.729 64.4965 163.601 63.9794L162.581 62.2593C162.112 62.5375 161.435 62.7159 160.483 62.7159V64.7159ZM163.601 63.9794C164.506 63.4425 165.095 62.6255 165.113 61.5513L163.114 61.5169C163.11 61.7609 163.017 62.0007 162.581 62.2593L163.601 63.9794ZM165.113 61.5149C165.096 60.5831 164.658 59.8199 163.897 59.2958L162.762 60.9428C163.024 61.1232 163.109 61.3033 163.114 61.5533L165.113 61.5149ZM163.909 59.3044C163.221 58.8153 162.251 58.498 161.11 58.2842L160.742 60.2499C161.784 60.4452 162.415 60.6961 162.75 60.9343L163.909 59.3044ZM161.113 58.2847L156.545 57.4154L156.171 59.3801L160.739 60.2494L161.113 58.2847ZM156.537 57.4139C154.023 56.9568 152.289 56.1359 151.201 55.0486L149.787 56.4628C151.268 57.9437 153.443 58.8841 156.179 59.3816L156.537 57.4139ZM151.205 55.0517C150.126 53.964 149.575 52.5807 149.585 50.8182L147.585 50.8068C147.573 53.0443 148.294 54.9564 149.784 56.4597L151.205 55.0517ZM149.585 50.806C149.575 49.2482 149.986 47.9764 150.779 46.9354L149.187 45.7237C148.094 47.1599 147.573 48.8768 147.585 50.819L149.585 50.806ZM150.781 46.9319C151.591 45.8586 152.764 45.0059 154.36 44.401L153.651 42.5308C151.77 43.2441 150.261 44.3005 149.185 45.7272L150.781 46.9319ZM154.36 44.401C155.959 43.7947 157.885 43.4773 160.159 43.4773V41.4773C157.706 41.4773 155.529 41.8189 153.651 42.5308L154.36 44.401ZM160.159 43.4773C163.576 43.4773 166.139 44.1956 167.957 45.5188L169.134 43.9017C166.861 42.2476 163.833 41.4773 160.159 41.4773V43.4773ZM167.96 45.5209C169.761 46.8214 170.748 48.5854 170.941 50.8955L172.934 50.7295C172.695 47.8578 171.421 45.5536 169.131 43.8995L167.96 45.5209ZM185.024 54.0682L184.024 54.0568V54.0682H185.024ZM185.024 69V70H186.024V69H185.024ZM176.689 69H175.689V70H176.689V69ZM176.689 34.0909V33.0909H175.689V34.0909H176.689ZM184.751 34.0909H185.751V33.0909H184.751V34.0909ZM184.751 47.625H183.751V48.625H184.751V47.625ZM185.041 47.625V48.625H185.74L185.98 47.9689L185.041 47.625ZM187.939 43.8409L187.381 43.011L187.378 43.0132L187.939 43.8409ZM197.706 43.7045L197.191 44.5621L197.197 44.5652L197.706 43.7045ZM200.876 47.1307L199.985 47.5834L199.988 47.5888L200.876 47.1307ZM202.001 52.3125L201.001 52.3068V52.3125H202.001ZM202.001 69V70H203.001V69H202.001ZM193.666 69H192.666V70H193.666V69ZM193.666 53.9489L192.666 53.9411V53.9489H193.666ZM192.575 50.5398L191.833 51.2099L191.833 51.2099L192.575 50.5398ZM187.138 49.892L187.632 50.7612L187.637 50.7585L187.138 49.892ZM185.587 51.5114L184.704 51.0415L184.698 51.0527L185.587 51.5114ZM184.024 54.0682V69H186.024V54.0682H184.024ZM185.024 68H176.689V70H185.024V68ZM177.689 69V34.0909H175.689V69H177.689ZM176.689 35.0909H184.751V33.0909H176.689V35.0909ZM183.751 34.0909V47.625H185.751V34.0909H183.751ZM184.751 48.625H185.041V46.625H184.751V48.625ZM185.98 47.9689C186.504 46.5394 187.344 45.4527 188.5 44.6686L187.378 43.0132C185.852 44.0473 184.761 45.4833 184.102 47.2811L185.98 47.9689ZM188.497 44.6708C189.654 43.8931 191.103 43.4773 192.899 43.4773V41.4773C190.786 41.4773 188.929 41.9705 187.381 43.011L188.497 44.6708ZM192.899 43.4773C194.588 43.4773 196.006 43.851 197.191 44.562L198.22 42.8471C196.678 41.9217 194.892 41.4773 192.899 41.4773V43.4773ZM197.197 44.5652C198.389 45.2706 199.317 46.2676 199.985 47.5834L201.768 46.678C200.936 45.0393 199.75 43.7521 198.215 42.8439L197.197 44.5652ZM199.988 47.5888C200.662 48.8978 201.012 50.4603 201.001 52.3068L203.001 52.3182C203.014 50.2101 202.613 48.3181 201.765 46.6726L199.988 47.5888ZM201.001 52.3125V69H203.001V52.3125H201.001ZM202.001 68H193.666V70H202.001V68ZM194.666 69V53.9489H192.666V69H194.666ZM194.666 53.9567C194.679 52.3337 194.272 50.9266 193.318 49.8697L191.833 51.2099C192.356 51.7894 192.676 52.6549 192.666 53.9411L194.666 53.9567ZM193.318 49.8697C192.349 48.7968 191.013 48.3125 189.456 48.3125V50.3125C190.58 50.3125 191.324 50.6464 191.833 51.2099L193.318 49.8697ZM189.456 48.3125C188.429 48.3125 187.48 48.5408 186.638 49.0256L187.637 50.7585C188.137 50.4706 188.733 50.3125 189.456 50.3125V48.3125ZM186.643 49.0229C185.811 49.4966 185.163 50.179 184.704 51.0415L186.469 51.9812C186.76 51.4346 187.147 51.0375 187.632 50.7612L186.643 49.0229ZM184.698 51.0527C184.247 51.927 184.037 52.9407 184.024 54.0568L186.024 54.0795C186.034 53.1956 186.199 52.5048 186.475 51.97L184.698 51.0527Z" fill="black" mask="url(#path-1-outside-1_139_530)"/>
<path d="M2.64205 69H1.64205V70H2.64205V69ZM2.64205 34.0909V33.0909H1.64205V34.0909H2.64205ZM23.8295 35.625L23.3551 36.5053L23.3614 36.5087L23.8295 35.625ZM28.2443 39.8693L27.3751 40.3637L27.3764 40.366L28.2443 39.8693ZM28.2102 52.5L27.347 51.9951L27.3461 51.9968L28.2102 52.5ZM23.7273 56.6761L24.1807 57.5674L24.1807 57.5674L23.7273 56.6761ZM7.90909 58.1591H6.90909V59.1591H7.90909V58.1591ZM7.90909 51.5114V50.5114H6.90909V51.5114H7.90909ZM18.4261 50.8466L17.9696 49.9569L17.9648 49.9594L18.4261 50.8466ZM20.3864 48.9886L21.2599 49.4753L21.2628 49.4701L20.3864 48.9886ZM20.3864 43.3807L19.5128 43.8674L19.5158 43.8727L20.3864 43.3807ZM18.4261 41.5398L17.9789 42.4342L17.9789 42.4342L18.4261 41.5398ZM11.0795 40.892V39.892H10.0795V40.892H11.0795ZM11.0795 69V70H12.0795V69H11.0795ZM3.64205 69V34.0909H1.64205V69H3.64205ZM2.64205 35.0909H17.0625V33.0909H2.64205V35.0909ZM17.0625 35.0909C19.5454 35.0909 21.6311 35.5762 23.3551 36.5053L24.304 34.7447C22.2325 33.6284 19.8069 33.0909 17.0625 33.0909V35.0909ZM23.3614 36.5087C25.1083 37.4341 26.4382 38.7164 27.3751 40.3637L29.1136 39.3749C27.9823 37.3859 26.3689 35.8386 24.2977 34.7413L23.3614 36.5087ZM27.3764 40.366C28.3115 42 28.7955 43.9259 28.7955 46.1761H30.7955C30.7955 43.6309 30.2453 41.3523 29.1122 39.3726L27.3764 40.366ZM28.7955 46.1761C28.7955 48.435 28.3015 50.3633 27.347 51.9951L29.0734 53.0049C30.2326 51.023 30.7955 48.7355 30.7955 46.1761H28.7955ZM27.3461 51.9968C26.4022 53.6177 25.0545 54.8789 23.2738 55.7849L24.1807 57.5674C26.2864 56.4961 27.9273 54.9732 29.0744 53.0032L27.3461 51.9968ZM23.2738 55.7849C21.4992 56.6877 19.3546 57.1591 16.8068 57.1591V59.1591C19.6 59.1591 22.069 58.6418 24.1807 57.5674L23.2738 55.7849ZM16.8068 57.1591H7.90909V59.1591H16.8068V57.1591ZM8.90909 58.1591V51.5114H6.90909V58.1591H8.90909ZM7.90909 52.5114H15.2386V50.5114H7.90909V52.5114ZM15.2386 52.5114C16.6218 52.5114 17.854 52.2712 18.8875 51.7338L17.9648 49.9594C17.2937 50.3083 16.4009 50.5114 15.2386 50.5114V52.5114ZM18.8827 51.7363C19.9099 51.2092 20.7141 50.455 21.2599 49.4753L19.5128 48.5019C19.1722 49.1132 18.6697 49.5976 17.9696 49.9569L18.8827 51.7363ZM21.2628 49.4701C21.7992 48.4936 22.0511 47.3854 22.0511 46.1761H20.0511C20.0511 47.1032 19.8599 47.87 19.5099 48.5072L21.2628 49.4701ZM22.0511 46.1761C22.0511 44.9584 21.8003 43.8501 21.2569 42.8886L19.5158 43.8727C19.8587 44.4795 20.0511 45.2348 20.0511 46.1761H22.0511ZM21.2599 42.894C20.7128 41.912 19.9054 41.1614 18.8733 40.6453L17.9789 42.4342C18.6741 42.7818 19.1736 43.2585 19.5128 43.8674L21.2599 42.894ZM18.8734 40.6453C17.835 40.1262 16.6095 39.892 15.2386 39.892V41.892C16.3905 41.892 17.29 42.0897 17.9789 42.4342L18.8734 40.6453ZM15.2386 39.892H11.0795V41.892H15.2386V39.892ZM10.0795 40.892V69H12.0795V40.892H10.0795ZM11.0795 68H2.64205V70H11.0795V68ZM48.733 42.8182H49.733V41.8182H48.733V42.8182ZM48.733 48.9545V49.9545H49.733V48.9545H48.733ZM32.2159 48.9545H31.2159V49.9545H32.2159V48.9545ZM32.2159 42.8182V41.8182H31.2159V42.8182H32.2159ZM35.6761 36.5455V35.5455H34.6761V36.5455H35.6761ZM44.0114 36.5455H45.0114V35.5455H44.0114V36.5455ZM44.25 62.0114L43.3556 62.4586L43.3653 62.478L43.3758 62.497L44.25 62.0114ZM44.983 62.6761L44.589 63.5953L44.6031 63.6013L44.6173 63.6069L44.983 62.6761ZM47.1307 62.7784L47.2899 63.7656L47.3025 63.7636L47.315 63.7613L47.1307 62.7784ZM47.9489 62.608L48.9276 62.4028L48.7144 61.3858L47.7063 61.6378L47.9489 62.608ZM49.2102 68.625L49.4849 69.5865L50.3799 69.3308L50.189 68.4198L49.2102 68.625ZM47.5227 69.0511L47.2945 68.0775L47.2911 68.0783L47.5227 69.0511ZM44.9489 69.375L44.9035 68.376L44.9024 68.3761L44.9489 69.375ZM39.9205 68.6932L39.5477 69.6212L39.5569 69.6248L39.9205 68.6932ZM36.733 66.1023L35.8835 66.6301L35.8873 66.636L36.733 66.1023ZM35.6761 61.6875L36.6761 61.7003V61.6875H35.6761ZM47.733 42.8182V48.9545H49.733V42.8182H47.733ZM48.733 47.9545H32.2159V49.9545H48.733V47.9545ZM33.2159 48.9545V42.8182H31.2159V48.9545H33.2159ZM32.2159 43.8182H48.733V41.8182H32.2159V43.8182ZM35.6761 37.5455H44.0114V35.5455H35.6761V37.5455ZM43.0114 36.5455V60.767H45.0114V36.5455H43.0114ZM43.0114 60.767C43.0114 61.3705 43.1034 61.9543 43.3556 62.4586L45.1444 61.5641C45.0784 61.432 45.0114 61.1864 45.0114 60.767H43.0114ZM43.3758 62.497C43.6523 62.9946 44.0641 63.3703 44.589 63.5953L45.3769 61.757C45.2654 61.7092 45.1886 61.6417 45.1242 61.5257L43.3758 62.497ZM44.6173 63.6069C45.0808 63.789 45.592 63.8636 46.125 63.8636V61.8636C45.7717 61.8636 45.5214 61.8133 45.3486 61.7454L44.6173 63.6069ZM46.125 63.8636C46.5025 63.8636 46.8912 63.83 47.2899 63.7656L46.9714 61.7912C46.6656 61.8405 46.3839 61.8636 46.125 61.8636V63.8636ZM47.315 63.7613C47.6832 63.6922 47.9797 63.631 48.1914 63.5781L47.7063 61.6378C47.5544 61.6758 47.3054 61.7282 46.9464 61.7955L47.315 63.7613ZM46.9701 62.8131L48.2315 68.8302L50.189 68.4198L48.9276 62.4028L46.9701 62.8131ZM48.9355 67.6635C48.5608 67.7705 48.0165 67.9083 47.2945 68.0775L47.7509 70.0248C48.4835 69.853 49.0642 69.7067 49.4849 69.5865L48.9355 67.6635ZM47.2911 68.0783C46.6537 68.2301 45.8615 68.3325 44.9035 68.376L44.9943 70.374C46.0363 70.3266 46.96 70.2131 47.7543 70.0239L47.2911 68.0783ZM44.9024 68.3761C43.0471 68.4624 41.518 68.2432 40.284 67.7616L39.5569 69.6248C41.1183 70.2341 42.9416 70.4694 44.9953 70.3739L44.9024 68.3761ZM40.2932 67.7652C39.0856 67.2802 38.1959 66.5468 37.5786 65.5686L35.8873 66.636C36.7472 67.9987 37.9826 68.9925 39.5478 69.6211L40.2932 67.7652ZM37.5823 65.5745C36.981 64.6067 36.6551 63.3362 36.6761 61.7003L34.6762 61.6747C34.6517 63.5842 35.0304 65.257 35.8836 66.63L37.5823 65.5745ZM36.6761 61.6875V36.5455H34.6761V61.6875H36.6761ZM63.2983 69H62.2983V70H63.2983V69ZM63.2983 34.0909V33.0909H62.2983V34.0909H63.2983ZM87.1278 34.0909H88.1278V33.0909H87.1278V34.0909ZM87.1278 40.9432V41.9432H88.1278V40.9432H87.1278ZM71.7358 40.9432V39.9432H70.7358V40.9432H71.7358ZM71.7358 48.1023H70.7358V49.1023H71.7358V48.1023ZM85.6108 48.1023H86.6108V47.1023H85.6108V48.1023ZM85.6108 54.9716V55.9716H86.6108V54.9716H85.6108ZM71.7358 54.9716V53.9716H70.7358V54.9716H71.7358ZM71.7358 69V70H72.7358V69H71.7358ZM64.2983 69V34.0909H62.2983V69H64.2983ZM63.2983 35.0909H87.1278V33.0909H63.2983V35.0909ZM86.1278 34.0909V40.9432H88.1278V34.0909H86.1278ZM87.1278 39.9432H71.7358V41.9432H87.1278V39.9432ZM70.7358 40.9432V48.1023H72.7358V40.9432H70.7358ZM71.7358 49.1023H85.6108V47.1023H71.7358V49.1023ZM84.6108 48.1023V54.9716H86.6108V48.1023H84.6108ZM85.6108 53.9716H71.7358V55.9716H85.6108V53.9716ZM70.7358 54.9716V69H72.7358V54.9716H70.7358ZM71.7358 68H63.2983V70H71.7358V68ZM91.3764 69H90.3764V70H91.3764V69ZM91.3764 42.8182V41.8182H90.3764V42.8182H91.3764ZM99.7116 42.8182H100.712V41.8182H99.7116V42.8182ZM99.7116 69V70H100.712V69H99.7116ZM92.5355 38.608L91.8535 39.3394L91.8589 39.3443L92.5355 38.608ZM92.5355 32.983L93.2122 33.7193L93.2175 33.7143L92.5355 32.983ZM98.5696 32.983L97.8826 33.7098L97.893 33.7193L98.5696 32.983ZM98.5696 38.608L99.2512 39.3397L99.2516 39.3393L98.5696 38.608ZM92.3764 69V42.8182H90.3764V69H92.3764ZM91.3764 43.8182H99.7116V41.8182H91.3764V43.8182ZM98.7116 42.8182V69H100.712V42.8182H98.7116ZM99.7116 68H91.3764V70H99.7116V68ZM95.5526 38.767C94.6258 38.767 93.8635 38.4702 93.2121 37.8716L91.8589 39.3443C92.8893 40.2912 94.1384 40.767 95.5526 40.767V38.767ZM93.2175 37.8766C92.5696 37.2724 92.2741 36.5901 92.2741 35.7784H90.2741C90.2741 37.1712 90.8196 38.3753 91.8535 39.3393L93.2175 37.8766ZM92.2741 35.7784C92.2741 34.9819 92.5664 34.3127 93.2121 33.7193L91.8589 32.2466C90.8228 33.1987 90.2741 34.3931 90.2741 35.7784H92.2741ZM93.2175 33.7143C93.8696 33.1063 94.6302 32.8068 95.5526 32.8068V30.8068C94.134 30.8068 92.8833 31.2914 91.8535 32.2516L93.2175 33.7143ZM95.5526 32.8068C96.4889 32.8068 97.2459 33.1078 97.8827 33.7097L99.2565 32.2562C98.2342 31.2899 96.9798 30.8068 95.5526 30.8068V32.8068ZM97.893 33.7193C98.5387 34.3127 98.831 34.9819 98.831 35.7784H100.831C100.831 34.3931 100.282 33.1987 99.2462 32.2466L97.893 33.7193ZM98.831 35.7784C98.831 36.5901 98.5355 37.2724 97.8876 37.8766L99.2516 39.3393C100.285 38.3753 100.831 37.1712 100.831 35.7784H98.831ZM97.888 37.8762C97.252 38.4686 96.4933 38.767 95.5526 38.767V40.767C96.9755 40.767 98.2281 40.2927 99.2512 39.3397L97.888 37.8762ZM113.352 54.0682L112.352 54.0568V54.0682H113.352ZM113.352 69V70H114.352V69H113.352ZM105.017 69H104.017V70H105.017V69ZM105.017 42.8182V41.8182H104.017V42.8182H105.017ZM112.943 42.8182H113.943V41.8182H112.943V42.8182ZM112.943 47.625H111.943V48.625H112.943V47.625ZM113.233 47.625V48.625H113.935L114.173 47.9651L113.233 47.625ZM116.199 43.858L116.744 44.6963L116.749 44.6931L116.199 43.858ZM125.983 43.7216L125.46 44.574L125.468 44.5791L125.983 43.7216ZM129.153 47.1648L128.262 47.6175L128.266 47.6257L129.153 47.1648ZM130.278 52.3125L129.278 52.3067V52.3125H130.278ZM130.278 69V70H131.278V69H130.278ZM121.943 69H120.943V70H121.943V69ZM121.943 53.9489L120.943 53.9411V53.9489H121.943ZM120.835 50.5398L120.093 51.2099L120.098 51.2155L120.835 50.5398ZM115.432 49.892L115.926 50.7612L115.931 50.7585L115.432 49.892ZM113.898 51.5114L113.009 51.0527L113.003 51.0641L113.898 51.5114ZM112.352 54.0682V69H114.352V54.0682H112.352ZM113.352 68H105.017V70H113.352V68ZM106.017 69V42.8182H104.017V69H106.017ZM105.017 43.8182H112.943V41.8182H105.017V43.8182ZM111.943 42.8182V47.625H113.943V42.8182H111.943ZM112.943 48.625H113.233V46.625H112.943V48.625ZM114.173 47.9651C114.681 46.5627 115.533 45.4839 116.744 44.6962L115.654 43.0197C114.069 44.0502 112.944 45.4828 112.293 47.2849L114.173 47.9651ZM116.749 44.6931C117.959 43.896 119.426 43.4773 121.193 43.4773V41.4773C119.097 41.4773 117.234 41.979 115.649 43.0228L116.749 44.6931ZM121.193 43.4773C122.88 43.4773 124.289 43.8556 125.46 44.574L126.506 42.8692C124.972 41.9285 123.189 41.4773 121.193 41.4773V43.4773ZM125.468 44.5791C126.664 45.2963 127.593 46.3005 128.262 47.6175L130.045 46.7121C129.214 45.0745 128.029 43.7832 126.497 42.8641L125.468 44.5791ZM128.266 47.6257C128.939 48.9225 129.289 50.4724 129.278 52.3067L131.278 52.3183C131.291 50.2207 130.89 48.3389 130.041 46.7039L128.266 47.6257ZM129.278 52.3125V69H131.278V52.3125H129.278ZM130.278 68H121.943V70H130.278V68ZM122.943 69V53.9489H120.943V69H122.943ZM122.943 53.9567C122.956 52.33 122.541 50.9207 121.572 49.864L120.098 51.2155C120.629 51.7952 120.953 52.6586 120.943 53.9411L122.943 53.9567ZM121.577 49.8697C120.612 48.8005 119.291 48.3125 117.75 48.3125V50.3125C118.846 50.3125 119.581 50.6427 120.093 51.2099L121.577 49.8697ZM117.75 48.3125C116.723 48.3125 115.774 48.5408 114.933 49.0256L115.931 50.7585C116.431 50.4706 117.027 50.3125 117.75 50.3125V48.3125ZM114.937 49.0229C114.102 49.4982 113.457 50.1843 113.009 51.0527L114.786 51.97C115.065 51.4293 115.444 51.0359 115.926 50.7612L114.937 49.0229ZM113.003 51.0641C112.568 51.9356 112.365 52.945 112.352 54.0568L114.352 54.0795C114.362 53.1913 114.523 52.4963 114.792 51.9586L113.003 51.0641ZM135.439 69H134.439V70H135.439V69ZM135.439 42.8182V41.8182H134.439V42.8182H135.439ZM143.774 42.8182H144.774V41.8182H143.774V42.8182ZM143.774 69V70H144.774V69H143.774ZM136.598 38.608L135.916 39.3394L135.921 39.3443L136.598 38.608ZM136.598 32.983L137.275 33.7193L137.28 33.7143L136.598 32.983ZM142.632 32.983L141.945 33.7098L141.955 33.7193L142.632 32.983ZM142.632 38.608L143.314 39.3397L143.314 39.3393L142.632 38.608ZM136.439 69V42.8182H134.439V69H136.439ZM135.439 43.8182H143.774V41.8182H135.439V43.8182ZM142.774 42.8182V69H144.774V42.8182H142.774ZM143.774 68H135.439V70H143.774V68ZM139.615 38.767C138.688 38.767 137.926 38.4702 137.275 37.8716L135.921 39.3443C136.952 40.2912 138.201 40.767 139.615 40.767V38.767ZM137.28 37.8766C136.632 37.2724 136.337 36.5901 136.337 35.7784H134.337C134.337 37.1712 134.882 38.3753 135.916 39.3393L137.28 37.8766ZM136.337 35.7784C136.337 34.9819 136.629 34.3127 137.275 33.7193L135.921 32.2466C134.885 33.1987 134.337 34.3931 134.337 35.7784H136.337ZM137.28 33.7143C137.932 33.1063 138.693 32.8068 139.615 32.8068V30.8068C138.197 30.8068 136.946 31.2914 135.916 32.2516L137.28 33.7143ZM139.615 32.8068C140.551 32.8068 141.308 33.1078 141.945 33.7097L143.319 32.2562C142.297 31.2899 141.042 30.8068 139.615 30.8068V32.8068ZM141.955 33.7193C142.601 34.3127 142.893 34.9819 142.893 35.7784H144.893C144.893 34.3931 144.345 33.1987 143.309 32.2466L141.955 33.7193ZM142.893 35.7784C142.893 36.5901 142.598 37.2724 141.95 37.8766L143.314 39.3393C144.348 38.3753 144.893 37.1712 144.893 35.7784H142.893ZM141.95 37.8762C141.315 38.4686 140.556 38.767 139.615 38.767V40.767C141.038 40.767 142.291 40.2927 143.314 39.3397L141.95 37.8762ZM171.938 50.8125L171.964 51.8121L173.022 51.7839L172.934 50.7295L171.938 50.8125ZM164.284 51.017L163.295 51.1614L163.423 52.0404L164.311 52.0167L164.284 51.017ZM163.636 49.5682L162.861 50.2004L162.87 50.2104L163.636 49.5682ZM162.256 48.5625L161.846 49.4748L161.857 49.4798L161.868 49.4845L162.256 48.5625ZM157.841 48.767L157.348 47.897L157.342 47.9006L157.841 48.767ZM156.852 50.3352L157.852 50.3574L157.852 50.3377L157.852 50.318L156.852 50.3352ZM157.466 51.6648L156.8 52.4111L156.81 52.4198L157.466 51.6648ZM159.767 52.5682L159.565 53.5476L159.573 53.5492L159.581 53.5508L159.767 52.5682ZM164.812 53.5227L165 52.5405L164.998 52.5402L164.812 53.5227ZM170.642 56.0114L169.969 56.7507L169.972 56.7537L170.642 56.0114ZM172.585 60.6136L173.585 60.62L173.585 60.6077L172.585 60.6136ZM170.983 65.3011L170.2 64.6789L170.197 64.683L170.983 65.3011ZM166.688 68.4034L167.059 69.3319L167.064 69.3299L166.688 68.4034ZM151.602 67.1932L151.018 68.0049L151.023 68.0084L151.602 67.1932ZM147.92 60.9886L147.896 59.9889L146.798 60.0162L146.927 61.1062L147.92 60.9886ZM156.153 60.7841L157.136 60.597L156.977 59.7633L156.129 59.7844L156.153 60.7841ZM157.568 62.9659L158.117 62.13L158.117 62.13L157.568 62.9659ZM163.091 63.1193L162.581 62.2593L162.581 62.2593L163.091 63.1193ZM164.114 61.5341L165.113 61.5513L165.114 61.5331L165.113 61.5149L164.114 61.5341ZM163.33 60.1193L162.75 60.9343L162.756 60.9386L162.762 60.9428L163.33 60.1193ZM160.926 59.267L160.739 60.2494L160.742 60.2499L160.926 59.267ZM156.358 58.3977L156.545 57.4153L156.537 57.4139L156.358 58.3977ZM150.494 55.7557L149.784 56.4597L149.787 56.4628L150.494 55.7557ZM148.585 50.8125L149.585 50.8182L149.585 50.806L148.585 50.8125ZM149.983 46.3295L150.779 46.9354L150.781 46.9319L149.983 46.3295ZM154.006 43.4659L153.651 42.5308L153.651 42.5308L154.006 43.4659ZM168.545 44.7102L167.957 45.5188L167.96 45.5209L168.545 44.7102ZM171.911 49.8129L164.257 50.0174L164.311 52.0167L171.964 51.8121L171.911 49.8129ZM165.274 50.8727C165.167 50.1448 164.875 49.4892 164.403 48.926L162.87 50.2104C163.102 50.488 163.242 50.7984 163.295 51.1614L165.274 50.8727ZM164.411 48.9361C163.945 48.3643 163.346 47.9357 162.643 47.6405L161.868 49.4845C162.302 49.6665 162.623 49.9084 162.861 50.2003L164.411 48.9361ZM162.665 47.6502C161.956 47.3316 161.163 47.1875 160.312 47.1875V49.1875C160.939 49.1875 161.442 49.2934 161.846 49.4748L162.665 47.6502ZM160.312 47.1875C159.214 47.1875 158.211 47.4078 157.348 47.897L158.334 49.6371C158.834 49.3536 159.48 49.1875 160.312 49.1875V47.1875ZM157.342 47.9006C156.422 48.4307 155.834 49.2597 155.852 50.3525L157.852 50.318C157.848 50.0925 157.919 49.8761 158.34 49.6335L157.342 47.9006ZM155.853 50.313C155.834 51.149 156.186 51.8635 156.8 52.4111L158.132 50.9185C157.905 50.7161 157.848 50.5442 157.852 50.3574L155.853 50.313ZM156.81 52.4198C157.446 52.9716 158.428 53.3132 159.565 53.5476L159.969 51.5888C158.901 51.3686 158.35 51.108 158.122 50.9097L156.81 52.4198ZM159.581 53.5508L164.627 54.5053L164.998 52.5402L159.953 51.5856L159.581 53.5508ZM164.625 54.5049C167.148 54.9877 168.888 55.766 169.969 56.7507L171.315 55.272C169.851 53.9385 167.704 53.0578 165 52.5405L164.625 54.5049ZM169.972 56.7537C171.025 57.7039 171.575 58.959 171.585 60.6196L173.585 60.6077C173.572 58.4501 172.828 56.637 171.312 55.269L169.972 56.7537ZM171.585 60.6073C171.575 62.1927 171.109 63.535 170.2 64.6789L171.766 65.9234C172.97 64.4082 173.573 62.6255 173.585 60.62L171.585 60.6073ZM170.197 64.683C169.275 65.8554 167.994 66.7931 166.311 67.4769L167.064 69.3299C169.017 68.5364 170.6 67.406 171.769 65.9193L170.197 64.683ZM166.316 67.4749C164.637 68.1467 162.687 68.4943 160.449 68.4943V70.4943C162.893 70.4943 165.102 70.1147 167.059 69.3319L166.316 67.4749ZM160.449 68.4943C156.835 68.4943 154.115 67.7515 152.181 66.378L151.023 68.0084C153.408 69.703 156.585 70.4943 160.449 70.4943V68.4943ZM152.186 66.3815C150.263 64.9972 149.187 63.179 148.914 60.871L146.927 61.1062C147.268 63.9801 148.647 66.2983 151.018 68.0049L152.186 66.3815ZM147.945 61.9883L156.178 61.7838L156.129 59.7844L147.896 59.9889L147.945 61.9883ZM155.171 60.9712C155.4 62.172 156.015 63.1424 157.019 63.8018L158.117 62.13C157.598 61.7894 157.271 61.3053 157.136 60.597L155.171 60.9712ZM157.019 63.8018C157.986 64.4365 159.163 64.7159 160.483 64.7159V62.7159C159.439 62.7159 158.673 62.4953 158.117 62.13L157.019 63.8018ZM160.483 64.7159C161.667 64.7159 162.729 64.4965 163.601 63.9794L162.581 62.2593C162.112 62.5375 161.435 62.7159 160.483 62.7159V64.7159ZM163.601 63.9794C164.506 63.4425 165.095 62.6255 165.113 61.5513L163.114 61.5169C163.11 61.7609 163.017 62.0007 162.581 62.2593L163.601 63.9794ZM165.113 61.5149C165.096 60.5831 164.658 59.8199 163.897 59.2958L162.762 60.9428C163.024 61.1232 163.109 61.3033 163.114 61.5533L165.113 61.5149ZM163.909 59.3044C163.221 58.8153 162.251 58.498 161.11 58.2842L160.742 60.2499C161.784 60.4452 162.415 60.6961 162.75 60.9343L163.909 59.3044ZM161.113 58.2847L156.545 57.4154L156.171 59.3801L160.739 60.2494L161.113 58.2847ZM156.537 57.4139C154.023 56.9568 152.289 56.1359 151.201 55.0486L149.787 56.4628C151.268 57.9437 153.443 58.8841 156.179 59.3816L156.537 57.4139ZM151.205 55.0517C150.126 53.964 149.575 52.5807 149.585 50.8182L147.585 50.8068C147.573 53.0443 148.294 54.9564 149.784 56.4597L151.205 55.0517ZM149.585 50.806C149.575 49.2482 149.986 47.9764 150.779 46.9354L149.187 45.7237C148.094 47.1599 147.573 48.8768 147.585 50.819L149.585 50.806ZM150.781 46.9319C151.591 45.8586 152.764 45.0059 154.36 44.401L153.651 42.5308C151.77 43.2441 150.261 44.3005 149.185 45.7272L150.781 46.9319ZM154.36 44.401C155.959 43.7947 157.885 43.4773 160.159 43.4773V41.4773C157.706 41.4773 155.529 41.8189 153.651 42.5308L154.36 44.401ZM160.159 43.4773C163.576 43.4773 166.139 44.1956 167.957 45.5188L169.134 43.9017C166.861 42.2476 163.833 41.4773 160.159 41.4773V43.4773ZM167.96 45.5209C169.761 46.8214 170.748 48.5854 170.941 50.8955L172.934 50.7295C172.695 47.8578 171.421 45.5536 169.131 43.8995L167.96 45.5209ZM185.024 54.0682L184.024 54.0568V54.0682H185.024ZM185.024 69V70H186.024V69H185.024ZM176.689 69H175.689V70H176.689V69ZM176.689 34.0909V33.0909H175.689V34.0909H176.689ZM184.751 34.0909H185.751V33.0909H184.751V34.0909ZM184.751 47.625H183.751V48.625H184.751V47.625ZM185.041 47.625V48.625H185.74L185.98 47.9689L185.041 47.625ZM187.939 43.8409L187.381 43.011L187.378 43.0132L187.939 43.8409ZM197.706 43.7045L197.191 44.5621L197.197 44.5652L197.706 43.7045ZM200.876 47.1307L199.985 47.5834L199.988 47.5888L200.876 47.1307ZM202.001 52.3125L201.001 52.3068V52.3125H202.001ZM202.001 69V70H203.001V69H202.001ZM193.666 69H192.666V70H193.666V69ZM193.666 53.9489L192.666 53.9411V53.9489H193.666ZM192.575 50.5398L191.833 51.2099L191.833 51.2099L192.575 50.5398ZM187.138 49.892L187.632 50.7612L187.637 50.7585L187.138 49.892ZM185.587 51.5114L184.704 51.0415L184.698 51.0527L185.587 51.5114ZM184.024 54.0682V69H186.024V54.0682H184.024ZM185.024 68H176.689V70H185.024V68ZM177.689 69V34.0909H175.689V69H177.689ZM176.689 35.0909H184.751V33.0909H176.689V35.0909ZM183.751 34.0909V47.625H185.751V34.0909H183.751ZM184.751 48.625H185.041V46.625H184.751V48.625ZM185.98 47.9689C186.504 46.5394 187.344 45.4527 188.5 44.6686L187.378 43.0132C185.852 44.0473 184.761 45.4833 184.102 47.2811L185.98 47.9689ZM188.497 44.6708C189.654 43.8931 191.103 43.4773 192.899 43.4773V41.4773C190.786 41.4773 188.929 41.9705 187.381 43.011L188.497 44.6708ZM192.899 43.4773C194.588 43.4773 196.006 43.851 197.191 44.562L198.22 42.8471C196.678 41.9217 194.892 41.4773 192.899 41.4773V43.4773ZM197.197 44.5652C198.389 45.2706 199.317 46.2676 199.985 47.5834L201.768 46.678C200.936 45.0393 199.75 43.7521 198.215 42.8439L197.197 44.5652ZM199.988 47.5888C200.662 48.8978 201.012 50.4603 201.001 52.3068L203.001 52.3182C203.014 50.2101 202.613 48.3181 201.765 46.6726L199.988 47.5888ZM201.001 52.3125V69H203.001V52.3125H201.001ZM202.001 68H193.666V70H202.001V68ZM194.666 69V53.9489H192.666V69H194.666ZM194.666 53.9567C194.679 52.3337 194.272 50.9266 193.318 49.8697L191.833 51.2099C192.356 51.7894 192.676 52.6549 192.666 53.9411L194.666 53.9567ZM193.318 49.8697C192.349 48.7968 191.013 48.3125 189.456 48.3125V50.3125C190.58 50.3125 191.324 50.6464 191.833 51.2099L193.318 49.8697ZM189.456 48.3125C188.429 48.3125 187.48 48.5408 186.638 49.0256L187.637 50.7585C188.137 50.4706 188.733 50.3125 189.456 50.3125V48.3125ZM186.643 49.0229C185.811 49.4966 185.163 50.179 184.704 51.0415L186.469 51.9812C186.76 51.4346 187.147 51.0375 187.632 50.7612L186.643 49.0229ZM184.698 51.0527C184.247 51.927 184.037 52.9407 184.024 54.0568L186.024 54.0795C186.034 53.1956 186.199 52.5048 186.475 51.97L184.698 51.0527Z" fill="black" fill-opacity="0.2" mask="url(#path-1-outside-1_139_530)"/>
</g>
</g>
<defs>
<filter id="filter0_dd_139_530" x="-2.35794" y="30.8068" width="209.36" height="47.6875" filterUnits="userSpaceOnUse" color-interpolation-filters="sRGB">
<feFlood flood-opacity="0" result="BackgroundImageFix"/>
<feColorMatrix in="SourceAlpha" type="matrix" values="0 0 0 0 0 0 0 0 0 0 0 0 0 0 0 0 0 0 127 0" result="hardAlpha"/>
<feOffset dy="4"/>
<feGaussianBlur stdDeviation="2"/>
<feComposite in2="hardAlpha" operator="out"/>
<feColorMatrix type="matrix" values="0 0 0 0 0 0 0 0 0 0 0 0 0 0 0 0 0 0 0.25 0"/>
<feBlend mode="normal" in2="BackgroundImageFix" result="effect1_dropShadow_139_530"/>
<feColorMatrix in="SourceAlpha" type="matrix" values="0 0 0 0 0 0 0 0 0 0 0 0 0 0 0 0 0 0 127 0" result="hardAlpha"/>
<feOffset dy="4"/>
<feGaussianBlur stdDeviation="2"/>
<feComposite in2="hardAlpha" operator="out"/>
<feColorMatrix type="matrix" values="0 0 0 0 0 0 0 0 0 0 0 0 0 0 0 0 0 0 0.25 0"/>
<feBlend mode="normal" in2="effect1_dropShadow_139_530" result="effect2_dropShadow_139_530"/>
<feBlend mode="normal" in="SourceGraphic" in2="effect2_dropShadow_139_530" result="shape"/>
</filter>
<clipPath id="clip0_139_530">
<rect width="322" height="117" fill="white"/>
</clipPath>
</defs>
</svg>
