<svg width="322" height="117" viewBox="0 0 322 117" fill="none" xmlns="http://www.w3.org/2000/svg">
<g clip-path="url(#clip0_120_12)">
<rect width="322" height="117" fill="white"/>
<g filter="url(#filter0_dd_120_12)">
<mask id="path-1-outside-1_120_12" maskUnits="userSpaceOnUse" x="1" y="30" width="188" height="41" fill="black">
<rect fill="white" x="1" y="30" width="188" height="41"/>
<path d="M2.64205 69V34.0909H17.0625C19.6761 34.0909 21.9318 34.5625 23.8295 35.5057C25.7386 36.4375 27.2102 37.7784 28.2443 39.5284C29.2784 41.267 29.7955 43.3295 29.7955 45.7159C29.7955 48.1364 29.267 50.1932 28.2102 51.8864C27.1534 53.5682 25.6534 54.8523 23.7102 55.7386C21.767 56.6136 19.4659 57.0511 16.8068 57.0511H7.6875V50.4034H15.2386C16.5114 50.4034 17.5739 50.2386 18.4261 49.9091C19.2898 49.5682 19.9432 49.0568 20.3864 48.375C20.8295 47.6818 21.0511 46.7955 21.0511 45.7159C21.0511 44.6364 20.8295 43.7443 20.3864 43.0398C19.9432 42.3239 19.2898 41.7898 18.4261 41.4375C17.5625 41.0739 16.5 40.892 15.2386 40.892H11.0795V69H2.64205ZM22.2955 53.0455L30.9886 69H21.7841L13.2614 53.0455H22.2955ZM51.3153 57.6989V42.8182H59.6335V69H51.6903V64.125H51.4176C50.8381 65.7273 49.8494 67 48.4517 67.9432C47.0653 68.875 45.3892 69.3409 43.4233 69.3409C41.6392 69.3409 40.071 68.9318 38.7188 68.1136C37.3665 67.2955 36.3153 66.1534 35.5653 64.6875C34.8153 63.2102 34.4347 61.483 34.4233 59.5057V42.8182H42.7585V57.8693C42.7699 59.2898 43.1449 60.4091 43.8835 61.2273C44.6222 62.0455 45.6278 62.4545 46.9006 62.4545C47.7301 62.4545 48.4744 62.2727 49.1335 61.9091C49.804 61.5341 50.3324 60.9943 50.7188 60.2898C51.1165 59.5739 51.3153 58.7102 51.3153 57.6989ZM87.7969 50.8125L80.1435 51.017C80.0639 50.4716 79.848 49.9886 79.4957 49.5682C79.1435 49.1364 78.6832 48.8011 78.1151 48.5625C77.5582 48.3125 76.9105 48.1875 76.1719 48.1875C75.206 48.1875 74.3821 48.3807 73.7003 48.767C73.0298 49.1534 72.7003 49.6761 72.7116 50.3352C72.7003 50.8466 72.9048 51.2898 73.3253 51.6648C73.7571 52.0398 74.5241 52.3409 75.6264 52.5682L80.6719 53.5227C83.2855 54.0227 85.2287 54.8523 86.5014 56.0114C87.7855 57.1705 88.4332 58.7045 88.4446 60.6136C88.4332 62.4091 87.8991 63.9716 86.8423 65.3011C85.7969 66.6307 84.3651 67.6648 82.5469 68.4034C80.7287 69.1307 78.6491 69.4943 76.3082 69.4943C72.5696 69.4943 69.6207 68.7273 67.4616 67.1932C65.3139 65.6477 64.0866 63.5795 63.7798 60.9886L72.0128 60.7841C72.1946 61.7386 72.6662 62.4659 73.4276 62.9659C74.1889 63.4659 75.1605 63.7159 76.3423 63.7159C77.4105 63.7159 78.2798 63.517 78.9503 63.1193C79.6207 62.7216 79.9616 62.1932 79.973 61.5341C79.9616 60.9432 79.7003 60.4716 79.1889 60.1193C78.6776 59.7557 77.8764 59.4716 76.7855 59.267L72.2173 58.3977C69.5923 57.9205 67.6378 57.0398 66.3537 55.7557C65.0696 54.4602 64.4332 52.8125 64.4446 50.8125C64.4332 49.0625 64.8991 47.5682 65.8423 46.3295C66.7855 45.0795 68.1264 44.125 69.8651 43.4659C71.6037 42.8068 73.6548 42.4773 76.0185 42.4773C79.5639 42.4773 82.3594 43.2216 84.4048 44.7102C86.4503 46.1875 87.581 48.2216 87.7969 50.8125ZM115.406 50.8125L107.753 51.017C107.673 50.4716 107.457 49.9886 107.105 49.5682C106.753 49.1364 106.293 48.8011 105.724 48.5625C105.168 48.3125 104.52 48.1875 103.781 48.1875C102.815 48.1875 101.991 48.3807 101.31 48.767C100.639 49.1534 100.31 49.6761 100.321 50.3352C100.31 50.8466 100.514 51.2898 100.935 51.6648C101.366 52.0398 102.134 52.3409 103.236 52.5682L108.281 53.5227C110.895 54.0227 112.838 54.8523 114.111 56.0114C115.395 57.1705 116.043 58.7045 116.054 60.6136C116.043 62.4091 115.509 63.9716 114.452 65.3011C113.406 66.6307 111.974 67.6648 110.156 68.4034C108.338 69.1307 106.259 69.4943 103.918 69.4943C100.179 69.4943 97.2301 68.7273 95.071 67.1932C92.9233 65.6477 91.696 63.5795 91.3892 60.9886L99.6222 60.7841C99.804 61.7386 100.276 62.4659 101.037 62.9659C101.798 63.4659 102.77 63.7159 103.952 63.7159C105.02 63.7159 105.889 63.517 106.56 63.1193C107.23 62.7216 107.571 62.1932 107.582 61.5341C107.571 60.9432 107.31 60.4716 106.798 60.1193C106.287 59.7557 105.486 59.4716 104.395 59.267L99.8267 58.3977C97.2017 57.9205 95.2472 57.0398 93.9631 55.7557C92.679 54.4602 92.0426 52.8125 92.054 50.8125C92.0426 49.0625 92.5085 47.5682 93.4517 46.3295C94.3949 45.0795 95.7358 44.125 97.4744 43.4659C99.2131 42.8068 101.264 42.4773 103.628 42.4773C107.173 42.4773 109.969 43.2216 112.014 44.7102C114.06 46.1875 115.19 48.2216 115.406 50.8125ZM120.158 69V42.8182H128.493V69H120.158ZM124.334 39.767C123.163 39.767 122.158 39.3807 121.317 38.608C120.476 37.8239 120.055 36.8807 120.055 35.7784C120.055 34.6875 120.476 33.7557 121.317 32.983C122.158 32.1989 123.163 31.8068 124.334 31.8068C125.516 31.8068 126.521 32.1989 127.351 32.983C128.192 33.7557 128.612 34.6875 128.612 35.7784C128.612 36.8807 128.192 37.8239 127.351 38.608C126.521 39.3807 125.516 39.767 124.334 39.767ZM141.179 69.4432C139.509 69.4432 138.026 69.1648 136.73 68.608C135.446 68.0398 134.429 67.1875 133.679 66.0511C132.94 64.9034 132.571 63.4659 132.571 61.7386C132.571 60.2841 132.827 59.0568 133.338 58.0568C133.849 57.0568 134.554 56.2443 135.452 55.6193C136.349 54.9943 137.384 54.5227 138.554 54.2045C139.724 53.875 140.974 53.6534 142.304 53.5398C143.793 53.4034 144.991 53.2614 145.901 53.1136C146.81 52.9545 147.469 52.733 147.878 52.4489C148.298 52.1534 148.509 51.7386 148.509 51.2045V51.1193C148.509 50.2443 148.207 49.5682 147.605 49.0909C147.003 48.6136 146.19 48.375 145.168 48.375C144.065 48.375 143.179 48.6136 142.509 49.0909C141.838 49.5682 141.412 50.2273 141.23 51.0682L133.543 50.7955C133.77 49.2045 134.355 47.7841 135.298 46.5341C136.253 45.2727 137.56 44.2841 139.219 43.5682C140.889 42.8409 142.895 42.4773 145.236 42.4773C146.906 42.4773 148.446 42.6761 149.855 43.0739C151.264 43.4602 152.491 44.0284 153.537 44.7784C154.582 45.517 155.389 46.4261 155.957 47.5057C156.537 48.5852 156.827 49.8182 156.827 51.2045V69H148.986V65.3523H148.781C148.315 66.2386 147.719 66.9886 146.991 67.6023C146.276 68.2159 145.429 68.6761 144.452 68.983C143.486 69.2898 142.395 69.4432 141.179 69.4432ZM143.753 63.9886C144.651 63.9886 145.457 63.8068 146.173 63.4432C146.901 63.0795 147.48 62.5795 147.912 61.9432C148.344 61.2955 148.56 60.5455 148.56 59.6932V57.2045C148.321 57.3295 148.031 57.4432 147.69 57.5455C147.361 57.6477 146.997 57.7443 146.599 57.8352C146.202 57.9261 145.793 58.0057 145.372 58.0739C144.952 58.142 144.548 58.2045 144.162 58.2614C143.378 58.3864 142.707 58.5795 142.151 58.8409C141.605 59.1023 141.185 59.4432 140.889 59.8636C140.605 60.2727 140.463 60.7614 140.463 61.3295C140.463 62.1932 140.77 62.8523 141.384 63.3068C142.009 63.7614 142.798 63.9886 143.753 63.9886ZM170.259 54.0682V69H161.923V42.8182H169.849V47.625H170.139C170.719 46.0227 171.707 44.767 173.105 43.858C174.503 42.9375 176.168 42.4773 178.099 42.4773C179.94 42.4773 181.537 42.892 182.889 43.7216C184.253 44.5398 185.31 45.6875 186.06 47.1648C186.821 48.6307 187.196 50.3466 187.185 52.3125V69H178.849V53.9489C178.861 52.4943 178.491 51.358 177.741 50.5398C177.003 49.7216 175.974 49.3125 174.656 49.3125C173.781 49.3125 173.009 49.5057 172.338 49.892C171.679 50.267 171.168 50.8068 170.804 51.5114C170.452 52.2159 170.27 53.0682 170.259 54.0682Z"/>
</mask>
<path d="M2.64205 69V34.0909H17.0625C19.6761 34.0909 21.9318 34.5625 23.8295 35.5057C25.7386 36.4375 27.2102 37.7784 28.2443 39.5284C29.2784 41.267 29.7955 43.3295 29.7955 45.7159C29.7955 48.1364 29.267 50.1932 28.2102 51.8864C27.1534 53.5682 25.6534 54.8523 23.7102 55.7386C21.767 56.6136 19.4659 57.0511 16.8068 57.0511H7.6875V50.4034H15.2386C16.5114 50.4034 17.5739 50.2386 18.4261 49.9091C19.2898 49.5682 19.9432 49.0568 20.3864 48.375C20.8295 47.6818 21.0511 46.7955 21.0511 45.7159C21.0511 44.6364 20.8295 43.7443 20.3864 43.0398C19.9432 42.3239 19.2898 41.7898 18.4261 41.4375C17.5625 41.0739 16.5 40.892 15.2386 40.892H11.0795V69H2.64205ZM22.2955 53.0455L30.9886 69H21.7841L13.2614 53.0455H22.2955ZM51.3153 57.6989V42.8182H59.6335V69H51.6903V64.125H51.4176C50.8381 65.7273 49.8494 67 48.4517 67.9432C47.0653 68.875 45.3892 69.3409 43.4233 69.3409C41.6392 69.3409 40.071 68.9318 38.7188 68.1136C37.3665 67.2955 36.3153 66.1534 35.5653 64.6875C34.8153 63.2102 34.4347 61.483 34.4233 59.5057V42.8182H42.7585V57.8693C42.7699 59.2898 43.1449 60.4091 43.8835 61.2273C44.6222 62.0455 45.6278 62.4545 46.9006 62.4545C47.7301 62.4545 48.4744 62.2727 49.1335 61.9091C49.804 61.5341 50.3324 60.9943 50.7188 60.2898C51.1165 59.5739 51.3153 58.7102 51.3153 57.6989ZM87.7969 50.8125L80.1435 51.017C80.0639 50.4716 79.848 49.9886 79.4957 49.5682C79.1435 49.1364 78.6832 48.8011 78.1151 48.5625C77.5582 48.3125 76.9105 48.1875 76.1719 48.1875C75.206 48.1875 74.3821 48.3807 73.7003 48.767C73.0298 49.1534 72.7003 49.6761 72.7116 50.3352C72.7003 50.8466 72.9048 51.2898 73.3253 51.6648C73.7571 52.0398 74.5241 52.3409 75.6264 52.5682L80.6719 53.5227C83.2855 54.0227 85.2287 54.8523 86.5014 56.0114C87.7855 57.1705 88.4332 58.7045 88.4446 60.6136C88.4332 62.4091 87.8991 63.9716 86.8423 65.3011C85.7969 66.6307 84.3651 67.6648 82.5469 68.4034C80.7287 69.1307 78.6491 69.4943 76.3082 69.4943C72.5696 69.4943 69.6207 68.7273 67.4616 67.1932C65.3139 65.6477 64.0866 63.5795 63.7798 60.9886L72.0128 60.7841C72.1946 61.7386 72.6662 62.4659 73.4276 62.9659C74.1889 63.4659 75.1605 63.7159 76.3423 63.7159C77.4105 63.7159 78.2798 63.517 78.9503 63.1193C79.6207 62.7216 79.9616 62.1932 79.973 61.5341C79.9616 60.9432 79.7003 60.4716 79.1889 60.1193C78.6776 59.7557 77.8764 59.4716 76.7855 59.267L72.2173 58.3977C69.5923 57.9205 67.6378 57.0398 66.3537 55.7557C65.0696 54.4602 64.4332 52.8125 64.4446 50.8125C64.4332 49.0625 64.8991 47.5682 65.8423 46.3295C66.7855 45.0795 68.1264 44.125 69.8651 43.4659C71.6037 42.8068 73.6548 42.4773 76.0185 42.4773C79.5639 42.4773 82.3594 43.2216 84.4048 44.7102C86.4503 46.1875 87.581 48.2216 87.7969 50.8125ZM115.406 50.8125L107.753 51.017C107.673 50.4716 107.457 49.9886 107.105 49.5682C106.753 49.1364 106.293 48.8011 105.724 48.5625C105.168 48.3125 104.52 48.1875 103.781 48.1875C102.815 48.1875 101.991 48.3807 101.31 48.767C100.639 49.1534 100.31 49.6761 100.321 50.3352C100.31 50.8466 100.514 51.2898 100.935 51.6648C101.366 52.0398 102.134 52.3409 103.236 52.5682L108.281 53.5227C110.895 54.0227 112.838 54.8523 114.111 56.0114C115.395 57.1705 116.043 58.7045 116.054 60.6136C116.043 62.4091 115.509 63.9716 114.452 65.3011C113.406 66.6307 111.974 67.6648 110.156 68.4034C108.338 69.1307 106.259 69.4943 103.918 69.4943C100.179 69.4943 97.2301 68.7273 95.071 67.1932C92.9233 65.6477 91.696 63.5795 91.3892 60.9886L99.6222 60.7841C99.804 61.7386 100.276 62.4659 101.037 62.9659C101.798 63.4659 102.77 63.7159 103.952 63.7159C105.02 63.7159 105.889 63.517 106.56 63.1193C107.23 62.7216 107.571 62.1932 107.582 61.5341C107.571 60.9432 107.31 60.4716 106.798 60.1193C106.287 59.7557 105.486 59.4716 104.395 59.267L99.8267 58.3977C97.2017 57.9205 95.2472 57.0398 93.9631 55.7557C92.679 54.4602 92.0426 52.8125 92.054 50.8125C92.0426 49.0625 92.5085 47.5682 93.4517 46.3295C94.3949 45.0795 95.7358 44.125 97.4744 43.4659C99.2131 42.8068 101.264 42.4773 103.628 42.4773C107.173 42.4773 109.969 43.2216 112.014 44.7102C114.06 46.1875 115.19 48.2216 115.406 50.8125ZM120.158 69V42.8182H128.493V69H120.158ZM124.334 39.767C123.163 39.767 122.158 39.3807 121.317 38.608C120.476 37.8239 120.055 36.8807 120.055 35.7784C120.055 34.6875 120.476 33.7557 121.317 32.983C122.158 32.1989 123.163 31.8068 124.334 31.8068C125.516 31.8068 126.521 32.1989 127.351 32.983C128.192 33.7557 128.612 34.6875 128.612 35.7784C128.612 36.8807 128.192 37.8239 127.351 38.608C126.521 39.3807 125.516 39.767 124.334 39.767ZM141.179 69.4432C139.509 69.4432 138.026 69.1648 136.73 68.608C135.446 68.0398 134.429 67.1875 133.679 66.0511C132.94 64.9034 132.571 63.4659 132.571 61.7386C132.571 60.2841 132.827 59.0568 133.338 58.0568C133.849 57.0568 134.554 56.2443 135.452 55.6193C136.349 54.9943 137.384 54.5227 138.554 54.2045C139.724 53.875 140.974 53.6534 142.304 53.5398C143.793 53.4034 144.991 53.2614 145.901 53.1136C146.81 52.9545 147.469 52.733 147.878 52.4489C148.298 52.1534 148.509 51.7386 148.509 51.2045V51.1193C148.509 50.2443 148.207 49.5682 147.605 49.0909C147.003 48.6136 146.19 48.375 145.168 48.375C144.065 48.375 143.179 48.6136 142.509 49.0909C141.838 49.5682 141.412 50.2273 141.23 51.0682L133.543 50.7955C133.77 49.2045 134.355 47.7841 135.298 46.5341C136.253 45.2727 137.56 44.2841 139.219 43.5682C140.889 42.8409 142.895 42.4773 145.236 42.4773C146.906 42.4773 148.446 42.6761 149.855 43.0739C151.264 43.4602 152.491 44.0284 153.537 44.7784C154.582 45.517 155.389 46.4261 155.957 47.5057C156.537 48.5852 156.827 49.8182 156.827 51.2045V69H148.986V65.3523H148.781C148.315 66.2386 147.719 66.9886 146.991 67.6023C146.276 68.2159 145.429 68.6761 144.452 68.983C143.486 69.2898 142.395 69.4432 141.179 69.4432ZM143.753 63.9886C144.651 63.9886 145.457 63.8068 146.173 63.4432C146.901 63.0795 147.48 62.5795 147.912 61.9432C148.344 61.2955 148.56 60.5455 148.56 59.6932V57.2045C148.321 57.3295 148.031 57.4432 147.69 57.5455C147.361 57.6477 146.997 57.7443 146.599 57.8352C146.202 57.9261 145.793 58.0057 145.372 58.0739C144.952 58.142 144.548 58.2045 144.162 58.2614C143.378 58.3864 142.707 58.5795 142.151 58.8409C141.605 59.1023 141.185 59.4432 140.889 59.8636C140.605 60.2727 140.463 60.7614 140.463 61.3295C140.463 62.1932 140.77 62.8523 141.384 63.3068C142.009 63.7614 142.798 63.9886 143.753 63.9886ZM170.259 54.0682V69H161.923V42.8182H169.849V47.625H170.139C170.719 46.0227 171.707 44.767 173.105 43.858C174.503 42.9375 176.168 42.4773 178.099 42.4773C179.94 42.4773 181.537 42.892 182.889 43.7216C184.253 44.5398 185.31 45.6875 186.06 47.1648C186.821 48.6307 187.196 50.3466 187.185 52.3125V69H178.849V53.9489C178.861 52.4943 178.491 51.358 177.741 50.5398C177.003 49.7216 175.974 49.3125 174.656 49.3125C173.781 49.3125 173.009 49.5057 172.338 49.892C171.679 50.267 171.168 50.8068 170.804 51.5114C170.452 52.2159 170.27 53.0682 170.259 54.0682Z" fill="#002855"/>
<path d="M2.64205 69H1.64205V70H2.64205V69ZM2.64205 34.0909V33.0909H1.64205V34.0909H2.64205ZM23.8295 35.5057L23.3845 36.4012L23.3909 36.4043L23.8295 35.5057ZM28.2443 39.5284L27.3834 40.0371L27.3848 40.0396L28.2443 39.5284ZM28.2102 51.8864L29.0569 52.4184L29.0585 52.4159L28.2102 51.8864ZM23.7102 55.7386L24.1208 56.6505L24.1252 56.6485L23.7102 55.7386ZM7.6875 57.0511H6.6875V58.0511H7.6875V57.0511ZM7.6875 50.4034V49.4034H6.6875V50.4034H7.6875ZM18.4261 49.9091L18.7868 50.8418L18.7933 50.8392L18.4261 49.9091ZM20.3864 48.375L21.2248 48.92L21.2289 48.9137L20.3864 48.375ZM20.3864 43.0398L19.5361 43.5661L19.5399 43.5722L20.3864 43.0398ZM18.4261 41.4375L18.0381 42.3592L18.0485 42.3634L18.4261 41.4375ZM11.0795 40.892V39.892H10.0795V40.892H11.0795ZM11.0795 69V70H12.0795V69H11.0795ZM22.2955 53.0455L23.1736 52.567L22.8894 52.0455H22.2955V53.0455ZM30.9886 69V70H32.6723L31.8667 68.5215L30.9886 69ZM21.7841 69L20.9021 69.4712L21.1845 70H21.7841V69ZM13.2614 53.0455V52.0455H11.5934L12.3793 53.5166L13.2614 53.0455ZM3.64205 69V34.0909H1.64205V69H3.64205ZM2.64205 35.0909H17.0625V33.0909H2.64205V35.0909ZM17.0625 35.0909C19.557 35.0909 21.6536 35.5409 23.3845 36.4012L24.2746 34.6102C22.2101 33.5841 19.7952 33.0909 17.0625 33.0909V35.0909ZM23.3909 36.4043C25.1325 37.2544 26.4535 38.4635 27.3834 40.0371L29.1052 39.0197C27.967 37.0933 26.3448 35.6206 24.2682 34.607L23.3909 36.4043ZM27.3848 40.0396C28.3116 41.5978 28.7955 43.4769 28.7955 45.7159H30.7955C30.7955 43.1822 30.2452 40.9363 29.1038 39.0172L27.3848 40.0396ZM28.7955 45.7159C28.7955 47.9892 28.3004 49.8533 27.3619 51.3569L29.0585 52.4159C30.2337 50.533 30.7955 48.2836 30.7955 45.7159H28.7955ZM27.3635 51.3543C26.4185 52.8582 25.0747 54.0171 23.2952 54.8288L24.1252 56.6485C26.2321 55.6874 27.8883 54.2782 29.0569 52.4184L27.3635 51.3543ZM23.2996 54.8268C21.5133 55.6312 19.3584 56.0511 16.8068 56.0511V58.0511C19.5734 58.0511 22.0207 57.5961 24.1208 56.6505L23.2996 54.8268ZM16.8068 56.0511H7.6875V58.0511H16.8068V56.0511ZM8.6875 57.0511V50.4034H6.6875V57.0511H8.6875ZM7.6875 51.4034H15.2386V49.4034H7.6875V51.4034ZM15.2386 51.4034C16.5898 51.4034 17.7839 51.2296 18.7868 50.8418L18.0655 48.9764C17.3638 49.2477 16.433 49.4034 15.2386 49.4034V51.4034ZM18.7933 50.8392C19.8218 50.4333 20.6528 49.8 21.2248 48.92L19.5479 47.83C19.2336 48.3136 18.7577 48.7031 18.059 48.9789L18.7933 50.8392ZM21.2289 48.9137C21.8024 48.0166 22.0511 46.9279 22.0511 45.7159H20.0511C20.0511 46.663 19.8567 47.347 19.5438 47.8363L21.2289 48.9137ZM22.0511 45.7159C22.0511 44.503 21.8021 43.4123 21.2328 42.5073L19.5399 43.5722C19.857 44.0764 20.0511 44.7697 20.0511 45.7159H22.0511ZM21.2366 42.5134C20.6702 41.5984 19.8411 40.9347 18.8038 40.5116L18.0485 42.3634C18.7384 42.6449 19.2162 43.0494 19.5361 43.5661L21.2366 42.5134ZM18.8142 40.5159C17.7931 40.0859 16.5898 39.892 15.2386 39.892V41.892C16.4102 41.892 17.3319 42.0618 18.0381 42.3591L18.8142 40.5159ZM15.2386 39.892H11.0795V41.892H15.2386V39.892ZM10.0795 40.892V69H12.0795V40.892H10.0795ZM11.0795 68H2.64205V70H11.0795V68ZM21.4173 53.5239L30.1105 69.4785L31.8667 68.5215L23.1736 52.567L21.4173 53.5239ZM30.9886 68H21.7841V70H30.9886V68ZM22.6661 68.5288L14.1434 52.5743L12.3793 53.5166L20.9021 69.4712L22.6661 68.5288ZM13.2614 54.0455H22.2955V52.0455H13.2614V54.0455ZM51.3153 42.8182V41.8182H50.3153V42.8182H51.3153ZM59.6335 42.8182H60.6335V41.8182H59.6335V42.8182ZM59.6335 69V70H60.6335V69H59.6335ZM51.6903 69H50.6903V70H51.6903V69ZM51.6903 64.125H52.6903V63.125H51.6903V64.125ZM51.4176 64.125V63.125H50.7159L50.4772 63.7849L51.4176 64.125ZM48.4517 67.9432L49.0095 68.7731L49.0111 68.7721L48.4517 67.9432ZM38.7188 68.1136L38.2011 68.9692L38.2011 68.9692L38.7188 68.1136ZM35.5653 64.6875L34.6737 65.1402L34.6751 65.143L35.5653 64.6875ZM34.4233 59.5057L33.4233 59.5057L33.4233 59.5114L34.4233 59.5057ZM34.4233 42.8182V41.8182H33.4233V42.8182H34.4233ZM42.7585 42.8182H43.7585V41.8182H42.7585V42.8182ZM42.7585 57.8693L41.7585 57.8693L41.7586 57.8773L42.7585 57.8693ZM43.8835 61.2273L44.6258 60.5572L44.6258 60.5572L43.8835 61.2273ZM49.1335 61.9091L49.6166 62.7847L49.6217 62.7818L49.1335 61.9091ZM50.7188 60.2898L49.8446 59.8041L49.8419 59.8089L50.7188 60.2898ZM52.3153 57.6989V42.8182H50.3153V57.6989H52.3153ZM51.3153 43.8182H59.6335V41.8182H51.3153V43.8182ZM58.6335 42.8182V69H60.6335V42.8182H58.6335ZM59.6335 68H51.6903V70H59.6335V68ZM52.6903 69V64.125H50.6903V69H52.6903ZM51.6903 63.125H51.4176V65.125H51.6903V63.125ZM50.4772 63.7849C49.9689 65.1902 49.1125 66.2909 47.8923 67.1143L49.0111 68.7721C50.5863 67.7091 51.7072 66.2643 52.358 64.4651L50.4772 63.7849ZM47.8939 67.1132C46.6999 67.9157 45.2264 68.3409 43.4233 68.3409V70.3409C45.552 70.3409 47.4308 69.8343 49.0095 68.7731L47.8939 67.1132ZM43.4233 68.3409C41.7976 68.3409 40.4132 67.97 39.2364 67.2581L38.2011 68.9692C39.7289 69.8936 41.4808 70.3409 43.4233 70.3409V68.3409ZM39.2364 67.2581C38.0499 66.5402 37.1247 65.5398 36.4556 64.232L34.6751 65.143C35.506 66.767 36.683 68.0507 38.2011 68.9692L39.2364 67.2581ZM36.457 64.2348C35.7897 62.9204 35.4339 61.3516 35.4233 59.4999L33.4233 59.5114C33.4354 61.6143 33.841 63.5 34.6737 65.1402L36.457 64.2348ZM35.4233 59.5057V42.8182H33.4233V59.5057H35.4233ZM34.4233 43.8182H42.7585V41.8182H34.4233V43.8182ZM41.7585 42.8182V57.8693H43.7585V42.8182H41.7585ZM41.7586 57.8773C41.7713 59.47 42.1957 60.85 43.1413 61.8974L44.6258 60.5572C44.0941 59.9682 43.7685 59.1096 43.7585 57.8613L41.7586 57.8773ZM43.1413 61.8974C44.0996 62.9589 45.3931 63.4545 46.9006 63.4545V61.4545C45.8626 61.4545 45.1448 61.132 44.6258 60.5572L43.1413 61.8974ZM46.9006 63.4545C47.8814 63.4545 48.7949 63.238 49.6166 62.7847L48.6504 61.0335C48.154 61.3074 47.5788 61.4545 46.9006 61.4545V63.4545ZM49.6217 62.7818C50.4636 62.3109 51.1233 61.6317 51.5956 60.7706L49.8419 59.8089C49.5414 60.3569 49.1443 60.7572 48.6454 61.0363L49.6217 62.7818ZM51.5929 60.7754C52.0904 59.8799 52.3153 58.8407 52.3153 57.6989H50.3153C50.3153 58.5798 50.1425 59.2678 49.8446 59.8041L51.5929 60.7754ZM87.7969 50.8125L87.8236 51.8121L88.8813 51.7839L88.7934 50.7295L87.7969 50.8125ZM80.1435 51.017L79.1539 51.1614L79.2821 52.0404L80.1702 52.0167L80.1435 51.017ZM79.4957 49.5682L78.7208 50.2004L78.7292 50.2104L79.4957 49.5682ZM78.1151 48.5625L77.7055 49.4748L77.7166 49.4798L77.7278 49.4845L78.1151 48.5625ZM73.7003 48.767L73.2073 47.897L73.201 47.9006L73.7003 48.767ZM72.7116 50.3352L73.7114 50.3574L73.7118 50.3377L73.7115 50.318L72.7116 50.3352ZM73.3253 51.6648L72.6596 52.4111L72.6696 52.4198L73.3253 51.6648ZM75.6264 52.5682L75.4245 53.5476L75.4325 53.5492L75.4405 53.5508L75.6264 52.5682ZM80.6719 53.5227L80.8598 52.5405L80.8578 52.5402L80.6719 53.5227ZM86.5014 56.0114L85.8281 56.7507L85.8314 56.7537L86.5014 56.0114ZM88.4446 60.6136L89.4447 60.62L89.4446 60.6077L88.4446 60.6136ZM86.8423 65.3011L86.0595 64.6789L86.0562 64.683L86.8423 65.3011ZM82.5469 68.4034L82.9183 69.3319L82.9233 69.3299L82.5469 68.4034ZM67.4616 67.1932L66.8776 68.0049L66.8824 68.0084L67.4616 67.1932ZM63.7798 60.9886L63.755 59.9889L62.6577 60.0162L62.7868 61.1062L63.7798 60.9886ZM72.0128 60.7841L72.9951 60.597L72.8363 59.7633L71.9879 59.7844L72.0128 60.7841ZM73.4276 62.9659L73.9765 62.13L73.9765 62.13L73.4276 62.9659ZM78.9503 63.1193L78.4401 62.2593L78.4401 62.2593L78.9503 63.1193ZM79.973 61.5341L80.9729 61.5513L80.9732 61.5331L80.9728 61.5149L79.973 61.5341ZM79.1889 60.1193L78.6094 60.9343L78.6155 60.9386L78.6216 60.9428L79.1889 60.1193ZM76.7855 59.267L76.5986 60.2494L76.6012 60.2499L76.7855 59.267ZM72.2173 58.3977L72.4043 57.4153L72.3962 57.4139L72.2173 58.3977ZM66.3537 55.7557L65.6435 56.4597L65.6466 56.4628L66.3537 55.7557ZM64.4446 50.8125L65.4447 50.8182L65.4446 50.806L64.4446 50.8125ZM65.8423 46.3295L66.6379 46.9354L66.6406 46.9319L65.8423 46.3295ZM69.8651 43.4659L69.5106 42.5308L69.5106 42.5308L69.8651 43.4659ZM84.4048 44.7102L83.8164 45.5188L83.8193 45.5209L84.4048 44.7102ZM87.7702 49.8129L80.1168 50.0174L80.1702 52.0167L87.8236 51.8121L87.7702 49.8129ZM81.133 50.8727C81.0268 50.1448 80.7342 49.4892 80.2623 48.926L78.7292 50.2104C78.9618 50.488 79.101 50.7984 79.1539 51.1614L81.133 50.8727ZM80.2706 48.9361C79.8042 48.3643 79.2052 47.9357 78.5023 47.6405L77.7278 49.4845C78.1613 49.6665 78.4827 49.9084 78.7209 50.2003L80.2706 48.9361ZM78.5246 47.6502C77.8149 47.3316 77.0226 47.1875 76.1719 47.1875V49.1875C76.7984 49.1875 77.3016 49.2934 77.7055 49.4748L78.5246 47.6502ZM76.1719 47.1875C75.073 47.1875 74.0707 47.4078 73.2073 47.897L74.1933 49.6371C74.6936 49.3536 75.339 49.1875 76.1719 49.1875V47.1875ZM73.201 47.9006C72.2811 48.4307 71.693 49.2597 71.7118 50.3525L73.7115 50.318C73.7076 50.0925 73.7786 49.8761 74.1996 49.6335L73.201 47.9006ZM71.7119 50.313C71.6933 51.149 72.0457 51.8635 72.6597 52.4111L73.9909 50.9185C73.764 50.7161 73.7073 50.5442 73.7114 50.3574L71.7119 50.313ZM72.6696 52.4198C73.305 52.9716 74.2876 53.3132 75.4245 53.5476L75.8284 51.5888C74.7607 51.3686 74.2092 51.108 73.981 50.9097L72.6696 52.4198ZM75.4405 53.5508L80.486 54.5053L80.8578 52.5402L75.8123 51.5856L75.4405 53.5508ZM80.484 54.5049C83.0074 54.9877 84.7469 55.766 85.8281 56.7507L87.1748 55.272C85.7105 53.9385 83.5636 53.0578 80.8598 52.5405L80.484 54.5049ZM85.8314 56.7537C86.884 57.7039 87.4347 58.959 87.4446 60.6196L89.4446 60.6077C89.4317 58.4501 88.687 56.637 87.1715 55.269L85.8314 56.7537ZM87.4446 60.6073C87.4346 62.1927 86.9687 63.535 86.0595 64.6789L87.6252 65.9234C88.8296 64.4082 89.4319 62.6255 89.4446 60.62L87.4446 60.6073ZM86.0562 64.683C85.1344 65.8554 83.8537 66.7931 82.1705 67.4769L82.9233 69.3299C84.8764 68.5364 86.4594 67.406 87.6284 65.9193L86.0562 64.683ZM82.1755 67.4749C80.4961 68.1467 78.5462 68.4943 76.3082 68.4943V70.4943C78.7521 70.4943 80.9613 70.1147 82.9183 69.3319L82.1755 67.4749ZM76.3082 68.4943C72.6946 68.4943 69.974 67.7515 68.0409 66.378L66.8824 68.0084C69.2675 69.703 72.4446 70.4943 76.3082 70.4943V68.4943ZM68.0457 66.3815C66.1219 64.9972 65.0462 63.179 64.7729 60.871L62.7868 61.1062C63.1271 63.9801 64.5059 66.2983 66.8776 68.0049L68.0457 66.3815ZM63.8047 61.9883L72.0376 61.7838L71.9879 59.7844L63.755 59.9889L63.8047 61.9883ZM71.0304 60.9712C71.2592 62.172 71.8746 63.1424 72.8786 63.8018L73.9765 62.13C73.4578 61.7894 73.13 61.3053 72.9951 60.597L71.0304 60.9712ZM72.8786 63.8018C73.8451 64.4365 75.0228 64.7159 76.3423 64.7159V62.7159C75.2983 62.7159 74.5327 62.4953 73.9765 62.13L72.8786 63.8018ZM76.3423 64.7159C77.5263 64.7159 78.5887 64.4965 79.4605 63.9794L78.4401 62.2593C77.971 62.5375 77.2948 62.7159 76.3423 62.7159V64.7159ZM79.4605 63.9794C80.3655 63.4425 80.9543 62.6255 80.9729 61.5513L78.9732 61.5169C78.969 61.7609 78.876 62.0007 78.4401 62.2593L79.4605 63.9794ZM80.9728 61.5149C80.9549 60.5831 80.5171 59.8199 79.7562 59.2958L78.6216 60.9428C78.8835 61.1232 78.9684 61.3033 78.9732 61.5533L80.9728 61.5149ZM79.7684 59.3044C79.0807 58.8153 78.11 58.498 76.9698 58.2842L76.6012 60.2499C77.6429 60.4452 78.2745 60.6961 78.6094 60.9343L79.7684 59.3044ZM76.9725 58.2847L72.4043 57.4154L72.0304 59.3801L76.5986 60.2494L76.9725 58.2847ZM72.3962 57.4139C69.8822 56.9568 68.1481 56.1359 67.0608 55.0486L65.6466 56.4628C67.1275 57.9437 69.3025 58.8841 72.0384 59.3816L72.3962 57.4139ZM67.0639 55.0517C65.9858 53.964 65.4346 52.5807 65.4446 50.8182L63.4446 50.8068C63.4319 53.0443 64.1534 54.9564 65.6435 56.4597L67.0639 55.0517ZM65.4446 50.806C65.4345 49.2482 65.8452 47.9764 66.6379 46.9354L65.0467 45.7237C63.9531 47.1599 63.432 48.8768 63.4446 50.819L65.4446 50.806ZM66.6406 46.9319C67.4504 45.8586 68.6238 45.0059 70.2195 44.401L69.5106 42.5308C67.6291 43.2441 66.1206 44.3005 65.0441 45.7272L66.6406 46.9319ZM70.2195 44.401C71.8188 43.7947 73.7445 43.4773 76.0185 43.4773V41.4773C73.5651 41.4773 71.3885 41.8189 69.5106 42.5308L70.2195 44.401ZM76.0185 43.4773C79.435 43.4773 81.9983 44.1956 83.8164 45.5188L84.9933 43.9017C82.7204 42.2476 79.6929 41.4773 76.0185 41.4773V43.4773ZM83.8193 45.5209C85.62 46.8214 86.6078 48.5854 86.8003 50.8955L88.7934 50.7295C88.5541 47.8578 87.2806 45.5536 84.9903 43.8995L83.8193 45.5209ZM115.406 50.8125L115.433 51.8121L116.491 51.7839L116.403 50.7295L115.406 50.8125ZM107.753 51.017L106.763 51.1614L106.892 52.0404L107.78 52.0167L107.753 51.017ZM107.105 49.5682L106.33 50.2004L106.339 50.2104L107.105 49.5682ZM105.724 48.5625L105.315 49.4748L105.326 49.4798L105.337 49.4845L105.724 48.5625ZM101.31 48.767L100.817 47.897L100.81 47.9006L101.31 48.767ZM100.321 50.3352L101.321 50.3574L101.321 50.3377L101.321 50.318L100.321 50.3352ZM100.935 51.6648L100.269 52.4111L100.279 52.4198L100.935 51.6648ZM103.236 52.5682L103.034 53.5476L103.042 53.5492L103.05 53.5508L103.236 52.5682ZM108.281 53.5227L108.469 52.5405L108.467 52.5402L108.281 53.5227ZM114.111 56.0114L113.437 56.7507L113.441 56.7537L114.111 56.0114ZM116.054 60.6136L117.054 60.62L117.054 60.6077L116.054 60.6136ZM114.452 65.3011L113.669 64.6789L113.666 64.683L114.452 65.3011ZM110.156 68.4034L110.528 69.3319L110.533 69.3299L110.156 68.4034ZM95.071 67.1932L94.4869 68.0049L94.4918 68.0084L95.071 67.1932ZM91.3892 60.9886L91.3644 59.9889L90.2671 60.0162L90.3961 61.1062L91.3892 60.9886ZM99.6222 60.7841L100.604 60.597L100.446 59.7633L99.5973 59.7844L99.6222 60.7841ZM101.037 62.9659L101.586 62.13L101.586 62.13L101.037 62.9659ZM106.56 63.1193L106.049 62.2593L106.049 62.2593L106.56 63.1193ZM107.582 61.5341L108.582 61.5513L108.583 61.5331L108.582 61.5149L107.582 61.5341ZM106.798 60.1193L106.219 60.9343L106.225 60.9386L106.231 60.9428L106.798 60.1193ZM104.395 59.267L104.208 60.2494L104.211 60.2499L104.395 59.267ZM99.8267 58.3977L100.014 57.4153L100.006 57.4139L99.8267 58.3977ZM93.9631 55.7557L93.2528 56.4597L93.256 56.4628L93.9631 55.7557ZM92.054 50.8125L93.054 50.8182L93.054 50.806L92.054 50.8125ZM93.4517 46.3295L94.2473 46.9354L94.25 46.9319L93.4517 46.3295ZM97.4744 43.4659L97.12 42.5308L97.12 42.5308L97.4744 43.4659ZM112.014 44.7102L111.426 45.5188L111.429 45.5209L112.014 44.7102ZM115.38 49.8129L107.726 50.0174L107.78 52.0167L115.433 51.8121L115.38 49.8129ZM108.742 50.8727C108.636 50.1448 108.344 49.4892 107.872 48.926L106.339 50.2104C106.571 50.488 106.71 50.7984 106.763 51.1614L108.742 50.8727ZM107.88 48.9361C107.414 48.3643 106.815 47.9357 106.112 47.6405L105.337 49.4845C105.771 49.6665 106.092 49.9084 106.33 50.2003L107.88 48.9361ZM106.134 47.6502C105.424 47.3316 104.632 47.1875 103.781 47.1875V49.1875C104.408 49.1875 104.911 49.2934 105.315 49.4748L106.134 47.6502ZM103.781 47.1875C102.682 47.1875 101.68 47.4078 100.817 47.897L101.803 49.6371C102.303 49.3536 102.948 49.1875 103.781 49.1875V47.1875ZM100.81 47.9006C99.8904 48.4307 99.3023 49.2597 99.3212 50.3525L101.321 50.318C101.317 50.0925 101.388 49.8761 101.809 49.6335L100.81 47.9006ZM99.3213 50.313C99.3027 51.149 99.6551 51.8635 100.269 52.4111L101.6 50.9185C101.373 50.7161 101.317 50.5442 101.321 50.3574L99.3213 50.313ZM100.279 52.4198C100.914 52.9716 101.897 53.3132 103.034 53.5476L103.438 51.5888C102.37 51.3686 101.819 51.108 101.59 50.9097L100.279 52.4198ZM103.05 53.5508L108.095 54.5053L108.467 52.5402L103.422 51.5856L103.05 53.5508ZM108.093 54.5049C110.617 54.9877 112.356 55.766 113.437 56.7507L114.784 55.272C113.32 53.9385 111.173 53.0578 108.469 52.5405L108.093 54.5049ZM113.441 56.7537C114.493 57.7039 115.044 58.959 115.054 60.6196L117.054 60.6077C117.041 58.4501 116.296 56.637 114.781 55.269L113.441 56.7537ZM115.054 60.6073C115.044 62.1927 114.578 63.535 113.669 64.6789L115.235 65.9234C116.439 64.4082 117.041 62.6255 117.054 60.62L115.054 60.6073ZM113.666 64.683C112.744 65.8554 111.463 66.7931 109.78 67.4769L110.533 69.3299C112.486 68.5364 114.069 67.406 115.238 65.9193L113.666 64.683ZM109.785 67.4749C108.105 68.1467 106.156 68.4943 103.918 68.4943V70.4943C106.361 70.4943 108.571 70.1147 110.528 69.3319L109.785 67.4749ZM103.918 68.4943C100.304 68.4943 97.5834 67.7515 95.6502 66.378L94.4918 68.0084C96.8769 69.703 100.054 70.4943 103.918 70.4943V68.4943ZM95.6551 66.3815C93.7313 64.9972 92.6556 63.179 92.3823 60.871L90.3961 61.1062C90.7365 63.9801 92.1153 66.2983 94.4869 68.0049L95.6551 66.3815ZM91.414 61.9883L99.647 61.7838L99.5973 59.7844L91.3644 59.9889L91.414 61.9883ZM98.6398 60.9712C98.8685 62.172 99.484 63.1424 100.488 63.8018L101.586 62.13C101.067 61.7894 100.739 61.3053 100.604 60.597L98.6398 60.9712ZM100.488 63.8018C101.455 64.4365 102.632 64.7159 103.952 64.7159V62.7159C102.908 62.7159 102.142 62.4953 101.586 62.13L100.488 63.8018ZM103.952 64.7159C105.136 64.7159 106.198 64.4965 107.07 63.9794L106.049 62.2593C105.58 62.5375 104.904 62.7159 103.952 62.7159V64.7159ZM107.07 63.9794C107.975 63.4425 108.564 62.6255 108.582 61.5513L106.583 61.5169C106.578 61.7609 106.485 62.0007 106.049 62.2593L107.07 63.9794ZM108.582 61.5149C108.564 60.5831 108.126 59.8199 107.366 59.2958L106.231 60.9428C106.493 61.1232 106.578 61.3033 106.583 61.5533L108.582 61.5149ZM107.378 59.3044C106.69 58.8153 105.719 58.498 104.579 58.2842L104.211 60.2499C105.252 60.4452 105.884 60.6961 106.219 60.9343L107.378 59.3044ZM104.582 58.2847L100.014 57.4154L99.6398 59.3801L104.208 60.2494L104.582 58.2847ZM100.006 57.4139C97.4915 56.9568 95.7575 56.1359 94.6702 55.0486L93.256 56.4628C94.7369 57.9437 96.9119 58.8841 99.6478 59.3816L100.006 57.4139ZM94.6733 55.0517C93.5952 53.964 93.0439 52.5807 93.054 50.8182L91.054 50.8068C91.0413 53.0443 91.7628 54.9564 93.2529 56.4597L94.6733 55.0517ZM93.054 50.806C93.0438 49.2482 93.4546 47.9764 94.2473 46.9354L92.6561 45.7237C91.5625 47.1599 91.0414 48.8768 91.054 50.819L93.054 50.806ZM94.25 46.9319C95.0598 45.8586 96.2332 45.0059 97.8289 44.401L97.12 42.5308C95.2384 43.2441 93.73 44.3005 92.6534 45.7272L94.25 46.9319ZM97.8289 44.401C99.4282 43.7947 101.354 43.4773 103.628 43.4773V41.4773C101.175 41.4773 98.9979 41.8189 97.12 42.5308L97.8289 44.401ZM103.628 43.4773C107.044 43.4773 109.608 44.1956 111.426 45.5188L112.603 43.9017C110.33 42.2476 107.302 41.4773 103.628 41.4773V43.4773ZM111.429 45.5209C113.229 46.8214 114.217 48.5854 114.41 50.8955L116.403 50.7295C116.163 47.8578 114.89 45.5536 112.6 43.8995L111.429 45.5209ZM120.158 69H119.158V70H120.158V69ZM120.158 42.8182V41.8182H119.158V42.8182H120.158ZM128.493 42.8182H129.493V41.8182H128.493V42.8182ZM128.493 69V70H129.493V69H128.493ZM121.317 38.608L120.635 39.3394L120.64 39.3443L121.317 38.608ZM121.317 32.983L121.993 33.7193L121.999 33.7143L121.317 32.983ZM127.351 32.983L126.664 33.7098L126.674 33.7193L127.351 32.983ZM127.351 38.608L128.032 39.3397L128.033 39.3393L127.351 38.608ZM121.158 69V42.8182H119.158V69H121.158ZM120.158 43.8182H128.493V41.8182H120.158V43.8182ZM127.493 42.8182V69H129.493V42.8182H127.493ZM128.493 68H120.158V70H128.493V68ZM124.334 38.767C123.407 38.767 122.645 38.4702 121.993 37.8716L120.64 39.3443C121.671 40.2912 122.92 40.767 124.334 40.767V38.767ZM121.999 37.8766C121.351 37.2724 121.055 36.5901 121.055 35.7784H119.055C119.055 37.1712 119.601 38.3753 120.635 39.3393L121.999 37.8766ZM121.055 35.7784C121.055 34.9819 121.348 34.3127 121.993 33.7193L120.64 32.2466C119.604 33.1987 119.055 34.3931 119.055 35.7784H121.055ZM121.999 33.7143C122.651 33.1063 123.411 32.8068 124.334 32.8068V30.8068C122.915 30.8068 121.665 31.2914 120.635 32.2516L121.999 33.7143ZM124.334 32.8068C125.27 32.8068 126.027 33.1078 126.664 33.7097L128.038 32.2562C127.015 31.2899 125.761 30.8068 124.334 30.8068V32.8068ZM126.674 33.7193C127.32 34.3127 127.612 34.9819 127.612 35.7784H129.612C129.612 34.3931 129.064 33.1987 128.027 32.2466L126.674 33.7193ZM127.612 35.7784C127.612 36.5901 127.317 37.2724 126.669 37.8766L128.033 39.3393C129.067 38.3753 129.612 37.1712 129.612 35.7784H127.612ZM126.669 37.8762C126.033 38.4686 125.275 38.767 124.334 38.767V40.767C125.757 40.767 127.009 40.2927 128.032 39.3397L126.669 37.8762ZM136.73 68.608L136.325 69.5225L136.335 69.5267L136.73 68.608ZM133.679 66.0511L132.838 66.5924L132.844 66.602L133.679 66.0511ZM133.338 58.0568L132.448 57.6015L132.448 57.6015L133.338 58.0568ZM135.452 55.6193L136.023 56.44L136.023 56.44L135.452 55.6193ZM138.554 54.2045L138.816 55.1696L138.825 55.1671L138.554 54.2045ZM142.304 53.5398L142.389 54.5362L142.395 54.5356L142.304 53.5398ZM145.901 53.1136L146.061 54.1008L146.073 54.0987L145.901 53.1136ZM147.878 52.4489L148.448 53.2702L148.453 53.2671L147.878 52.4489ZM147.605 49.0909L148.226 48.3072L148.226 48.3072L147.605 49.0909ZM142.509 49.0909L141.929 48.2762L141.929 48.2762L142.509 49.0909ZM141.23 51.0682L141.195 52.0676L142.031 52.0972L142.208 51.2795L141.23 51.0682ZM133.543 50.7955L132.553 50.654L132.395 51.7554L133.507 51.7948L133.543 50.7955ZM135.298 46.5341L134.501 45.9306L134.5 45.9318L135.298 46.5341ZM139.219 43.5682L139.615 44.4864L139.618 44.4851L139.219 43.5682ZM149.855 43.0739L149.583 44.0363L149.591 44.0383L149.855 43.0739ZM153.537 44.7784L152.954 45.591L152.96 45.5951L153.537 44.7784ZM155.957 47.5057L155.072 47.9714L155.076 47.9787L155.957 47.5057ZM156.827 69V70H157.827V69H156.827ZM148.986 69H147.986V70H148.986V69ZM148.986 65.3523H149.986V64.3523H148.986V65.3523ZM148.781 65.3523V64.3523H148.177L147.896 64.887L148.781 65.3523ZM146.991 67.6023L146.347 66.838L146.341 66.843L146.991 67.6023ZM144.452 68.983L144.152 68.0289L144.149 68.0299L144.452 68.983ZM146.173 63.4432L145.726 62.5487L145.72 62.5516L146.173 63.4432ZM147.912 61.9432L148.739 62.5047L148.744 62.4979L147.912 61.9432ZM148.56 57.2045H149.56V55.5519L148.096 56.3187L148.56 57.2045ZM147.69 57.5455L147.403 56.5876L147.394 56.5904L147.69 57.5455ZM145.372 58.0739L145.532 59.061L145.532 59.061L145.372 58.0739ZM144.162 58.2614L144.016 57.2719L144.005 57.2738L144.162 58.2614ZM142.151 58.8409L141.726 57.9356L141.718 57.9391L142.151 58.8409ZM140.889 59.8636L140.071 59.2887L140.068 59.2932L140.889 59.8636ZM141.384 63.3068L140.788 64.1104L140.795 64.1156L141.384 63.3068ZM141.179 68.4432C139.62 68.4432 138.275 68.1835 137.125 67.6892L136.335 69.5267C137.776 70.1461 139.397 70.4432 141.179 70.4432V68.4432ZM137.135 67.6935C136.02 67.2003 135.155 66.4716 134.514 65.5003L132.844 66.602C133.703 67.9034 134.872 68.8793 136.325 69.5224L137.135 67.6935ZM134.52 65.51C133.909 64.5615 133.571 63.3246 133.571 61.7386H131.571C131.571 63.6072 131.971 65.2453 132.838 66.5923L134.52 65.51ZM133.571 61.7386C133.571 60.3972 133.807 59.3358 134.228 58.5121L132.448 57.6015C131.846 58.7778 131.571 60.171 131.571 61.7386H133.571ZM134.228 58.5121C134.667 57.6542 135.264 56.9687 136.023 56.44L134.88 54.7986C133.844 55.52 133.032 56.4595 132.448 57.6015L134.228 58.5121ZM136.023 56.44C136.817 55.8872 137.744 55.4609 138.816 55.1695L138.292 53.2396C137.023 53.5845 135.882 54.1015 134.88 54.7986L136.023 56.44ZM138.825 55.1671C139.929 54.8562 141.116 54.6449 142.389 54.5361L142.219 52.5434C140.832 52.6619 139.52 52.8938 138.283 53.242L138.825 55.1671ZM142.395 54.5356C143.895 54.3982 145.119 54.2537 146.061 54.1007L145.74 52.1266C144.864 52.269 143.691 52.4086 142.213 52.5439L142.395 54.5356ZM146.073 54.0987C147.023 53.9323 147.857 53.6807 148.448 53.2702L147.307 51.6275C147.08 51.7852 146.596 51.9768 145.728 52.1286L146.073 54.0987ZM148.453 53.2671C149.152 52.7758 149.509 52.0491 149.509 51.2045H147.509C147.509 51.4282 147.445 51.531 147.303 51.6307L148.453 53.2671ZM149.509 51.2045V51.1193H147.509V51.2045H149.509ZM149.509 51.1193C149.509 49.9868 149.103 49.002 148.226 48.3072L146.984 49.8747C147.312 50.1344 147.509 50.5018 147.509 51.1193H149.509ZM148.226 48.3072C147.396 47.6496 146.341 47.375 145.168 47.375V49.375C146.039 49.375 146.609 49.5776 146.984 49.8747L148.226 48.3072ZM145.168 47.375C143.927 47.375 142.817 47.6435 141.929 48.2762L143.088 49.9056C143.541 49.5837 144.204 49.375 145.168 49.375V47.375ZM141.929 48.2762C141.045 48.9051 140.485 49.7845 140.253 50.8568L142.208 51.2795C142.339 50.6701 142.631 50.2312 143.088 49.9056L141.929 48.2762ZM141.266 50.0688L133.578 49.7961L133.507 51.7948L141.195 52.0676L141.266 50.0688ZM134.533 50.9369C134.737 49.5087 135.258 48.2478 136.097 47.1364L134.5 45.9318C133.452 47.3204 132.803 48.9003 132.553 50.654L134.533 50.9369ZM136.096 47.1375C136.932 46.0326 138.092 45.1437 139.615 44.4863L138.823 42.65C137.028 43.4245 135.574 44.5129 134.501 45.9306L136.096 47.1375ZM139.618 44.4851C141.132 43.8258 142.995 43.4773 145.236 43.4773V41.4773C142.795 41.4773 140.646 41.856 138.82 42.6513L139.618 44.4851ZM145.236 43.4773C146.827 43.4773 148.274 43.6667 149.583 44.0363L150.127 42.1115C148.618 41.6856 146.985 41.4773 145.236 41.4773V43.4773ZM149.591 44.0383C150.901 44.3975 152.017 44.9187 152.954 45.5909L154.12 43.9659C152.966 43.1381 151.628 42.523 150.12 42.1095L149.591 44.0383ZM152.96 45.5951C153.883 46.2473 154.581 47.0385 155.072 47.9714L156.842 47.0399C156.197 45.8138 155.282 44.7868 154.114 43.9617L152.96 45.5951ZM155.076 47.9787C155.568 48.8946 155.827 49.9613 155.827 51.2045H157.827C157.827 49.6751 157.506 48.2759 156.838 47.0327L155.076 47.9787ZM155.827 51.2045V69H157.827V51.2045H155.827ZM156.827 68H148.986V70H156.827V68ZM149.986 69V65.3523H147.986V69H149.986ZM148.986 64.3523H148.781V66.3523H148.986V64.3523ZM147.896 64.887C147.487 65.6652 146.97 66.3119 146.347 66.838L147.636 68.3666C148.467 67.6654 149.144 66.8121 149.666 65.8176L147.896 64.887ZM146.341 66.843C145.736 67.3613 145.012 67.759 144.152 68.0289L144.751 69.937C145.846 69.5932 146.815 69.0706 147.642 68.3615L146.341 66.843ZM144.149 68.0299C143.298 68.3001 142.312 68.4432 141.179 68.4432V70.4432C142.478 70.4432 143.673 70.2794 144.754 69.936L144.149 68.0299ZM143.753 64.9886C144.789 64.9886 145.754 64.7777 146.626 64.3348L145.72 62.5516C145.161 62.8359 144.512 62.9886 143.753 62.9886V64.9886ZM146.621 64.3376C147.492 63.9019 148.206 63.2909 148.739 62.5047L147.084 61.3817C146.754 61.8682 146.309 62.2572 145.726 62.5488L146.621 64.3376ZM148.744 62.4979C149.296 61.6704 149.56 60.7234 149.56 59.6932H147.56C147.56 60.3675 147.392 60.9205 147.08 61.3885L148.744 62.4979ZM149.56 59.6932V57.2045H147.56V59.6932H149.56ZM148.096 56.3187C147.928 56.4065 147.701 56.4982 147.403 56.5876L147.978 58.5033C148.361 58.3881 148.714 58.2526 149.024 58.0904L148.096 56.3187ZM147.394 56.5904C147.093 56.6839 146.754 56.7741 146.377 56.8604L146.822 58.8101C147.24 58.7145 147.629 58.6115 147.987 58.5005L147.394 56.5904ZM146.377 56.8604C146.001 56.9463 145.612 57.0218 145.212 57.0868L145.532 59.061C145.973 58.9895 146.403 58.9059 146.822 58.8101L146.377 56.8604ZM145.212 57.0868C144.796 57.1542 144.398 57.216 144.016 57.272L144.307 59.2507C144.699 59.1931 145.107 59.1299 145.532 59.061L145.212 57.0868ZM144.005 57.2738C143.153 57.4095 142.388 57.6249 141.726 57.9357L142.575 59.7461C143.027 59.5342 143.602 59.3632 144.319 59.2489L144.005 57.2738ZM141.718 57.9391C141.046 58.2614 140.481 58.705 140.071 59.2887L141.707 60.4386C141.888 60.1814 142.164 59.9432 142.583 59.7427L141.718 57.9391ZM140.068 59.2932C139.652 59.8927 139.463 60.5872 139.463 61.3295H141.463C141.463 60.9355 141.559 60.6528 141.711 60.434L140.068 59.2932ZM139.463 61.3295C139.463 62.4624 139.884 63.4406 140.788 64.1104L141.979 62.5033C141.656 62.264 141.463 61.9239 141.463 61.3295H139.463ZM140.795 64.1156C141.628 64.7211 142.637 64.9886 143.753 64.9886V62.9886C142.959 62.9886 142.389 62.8016 141.972 62.4981L140.795 64.1156ZM170.259 54.0682L169.259 54.0568V54.0682H170.259ZM170.259 69V70H171.259V69H170.259ZM161.923 69H160.923V70H161.923V69ZM161.923 42.8182V41.8182H160.923V42.8182H161.923ZM169.849 42.8182H170.849V41.8182H169.849V42.8182ZM169.849 47.625H168.849V48.625H169.849V47.625ZM170.139 47.625V48.625H170.841L171.08 47.9651L170.139 47.625ZM173.105 43.858L173.65 44.6963L173.655 44.6931L173.105 43.858ZM182.889 43.7216L182.366 44.574L182.375 44.5791L182.889 43.7216ZM186.06 47.1648L185.168 47.6175L185.172 47.6257L186.06 47.1648ZM187.185 52.3125L186.185 52.3067V52.3125H187.185ZM187.185 69V70H188.185V69H187.185ZM178.849 69H177.849V70H178.849V69ZM178.849 53.9489L177.849 53.9411V53.9489H178.849ZM177.741 50.5398L176.999 51.2099L177.004 51.2155L177.741 50.5398ZM172.338 49.892L172.833 50.7612L172.837 50.7585L172.338 49.892ZM170.804 51.5114L169.915 51.0527L169.91 51.0641L170.804 51.5114ZM169.259 54.0682V69H171.259V54.0682H169.259ZM170.259 68H161.923V70H170.259V68ZM162.923 69V42.8182H160.923V69H162.923ZM161.923 43.8182H169.849V41.8182H161.923V43.8182ZM168.849 42.8182V47.625H170.849V42.8182H168.849ZM169.849 48.625H170.139V46.625H169.849V48.625ZM171.08 47.9651C171.587 46.5627 172.439 45.4839 173.65 44.6962L172.56 43.0197C170.975 44.0502 169.851 45.4828 169.199 47.2849L171.08 47.9651ZM173.655 44.6931C174.866 43.896 176.332 43.4773 178.099 43.4773V41.4773C176.003 41.4773 174.14 41.979 172.555 43.0228L173.655 44.6931ZM178.099 43.4773C179.786 43.4773 181.195 43.8556 182.366 44.574L183.412 42.8692C181.879 41.9285 180.095 41.4773 178.099 41.4773V43.4773ZM182.375 44.5791C183.57 45.2963 184.499 46.3005 185.168 47.6175L186.951 46.7121C186.12 45.0745 184.936 43.7832 183.404 42.8641L182.375 44.5791ZM185.172 47.6257C185.846 48.9225 186.195 50.4724 186.185 52.3067L188.185 52.3183C188.197 50.2207 187.796 48.3389 186.947 46.7039L185.172 47.6257ZM186.185 52.3125V69H188.185V52.3125H186.185ZM187.185 68H178.849V70H187.185V68ZM179.849 69V53.9489H177.849V69H179.849ZM179.849 53.9567C179.862 52.33 179.447 50.9207 178.479 49.864L177.004 51.2155C177.536 51.7952 177.859 52.6586 177.849 53.9411L179.849 53.9567ZM178.484 49.8697C177.518 48.8005 176.197 48.3125 174.656 48.3125V50.3125C175.752 50.3125 176.487 50.6427 176.999 51.2099L178.484 49.8697ZM174.656 48.3125C173.629 48.3125 172.68 48.5408 171.839 49.0256L172.837 50.7585C173.337 50.4706 173.933 50.3125 174.656 50.3125V48.3125ZM171.844 49.0229C171.008 49.4982 170.364 50.1843 169.915 51.0527L171.693 51.97C171.972 51.4293 172.35 51.0359 172.833 50.7612L171.844 49.0229ZM169.91 51.0641C169.474 51.9356 169.271 52.945 169.259 54.0568L171.258 54.0795C171.269 53.1913 171.43 52.4963 171.698 51.9586L169.91 51.0641Z" fill="black" mask="url(#path-1-outside-1_120_12)"/>
<path d="M2.64205 69H1.64205V70H2.64205V69ZM2.64205 34.0909V33.0909H1.64205V34.0909H2.64205ZM23.8295 35.5057L23.3845 36.4012L23.3909 36.4043L23.8295 35.5057ZM28.2443 39.5284L27.3834 40.0371L27.3848 40.0396L28.2443 39.5284ZM28.2102 51.8864L29.0569 52.4184L29.0585 52.4159L28.2102 51.8864ZM23.7102 55.7386L24.1208 56.6505L24.1252 56.6485L23.7102 55.7386ZM7.6875 57.0511H6.6875V58.0511H7.6875V57.0511ZM7.6875 50.4034V49.4034H6.6875V50.4034H7.6875ZM18.4261 49.9091L18.7868 50.8418L18.7933 50.8392L18.4261 49.9091ZM20.3864 48.375L21.2248 48.92L21.2289 48.9137L20.3864 48.375ZM20.3864 43.0398L19.5361 43.5661L19.5399 43.5722L20.3864 43.0398ZM18.4261 41.4375L18.0381 42.3592L18.0485 42.3634L18.4261 41.4375ZM11.0795 40.892V39.892H10.0795V40.892H11.0795ZM11.0795 69V70H12.0795V69H11.0795ZM22.2955 53.0455L23.1736 52.567L22.8894 52.0455H22.2955V53.0455ZM30.9886 69V70H32.6723L31.8667 68.5215L30.9886 69ZM21.7841 69L20.9021 69.4712L21.1845 70H21.7841V69ZM13.2614 53.0455V52.0455H11.5934L12.3793 53.5166L13.2614 53.0455ZM3.64205 69V34.0909H1.64205V69H3.64205ZM2.64205 35.0909H17.0625V33.0909H2.64205V35.0909ZM17.0625 35.0909C19.557 35.0909 21.6536 35.5409 23.3845 36.4012L24.2746 34.6102C22.2101 33.5841 19.7952 33.0909 17.0625 33.0909V35.0909ZM23.3909 36.4043C25.1325 37.2544 26.4535 38.4635 27.3834 40.0371L29.1052 39.0197C27.967 37.0933 26.3448 35.6206 24.2682 34.607L23.3909 36.4043ZM27.3848 40.0396C28.3116 41.5978 28.7955 43.4769 28.7955 45.7159H30.7955C30.7955 43.1822 30.2452 40.9363 29.1038 39.0172L27.3848 40.0396ZM28.7955 45.7159C28.7955 47.9892 28.3004 49.8533 27.3619 51.3569L29.0585 52.4159C30.2337 50.533 30.7955 48.2836 30.7955 45.7159H28.7955ZM27.3635 51.3543C26.4185 52.8582 25.0747 54.0171 23.2952 54.8288L24.1252 56.6485C26.2321 55.6874 27.8883 54.2782 29.0569 52.4184L27.3635 51.3543ZM23.2996 54.8268C21.5133 55.6312 19.3584 56.0511 16.8068 56.0511V58.0511C19.5734 58.0511 22.0207 57.5961 24.1208 56.6505L23.2996 54.8268ZM16.8068 56.0511H7.6875V58.0511H16.8068V56.0511ZM8.6875 57.0511V50.4034H6.6875V57.0511H8.6875ZM7.6875 51.4034H15.2386V49.4034H7.6875V51.4034ZM15.2386 51.4034C16.5898 51.4034 17.7839 51.2296 18.7868 50.8418L18.0655 48.9764C17.3638 49.2477 16.433 49.4034 15.2386 49.4034V51.4034ZM18.7933 50.8392C19.8218 50.4333 20.6528 49.8 21.2248 48.92L19.5479 47.83C19.2336 48.3136 18.7577 48.7031 18.059 48.9789L18.7933 50.8392ZM21.2289 48.9137C21.8024 48.0166 22.0511 46.9279 22.0511 45.7159H20.0511C20.0511 46.663 19.8567 47.347 19.5438 47.8363L21.2289 48.9137ZM22.0511 45.7159C22.0511 44.503 21.8021 43.4123 21.2328 42.5073L19.5399 43.5722C19.857 44.0764 20.0511 44.7697 20.0511 45.7159H22.0511ZM21.2366 42.5134C20.6702 41.5984 19.8411 40.9347 18.8038 40.5116L18.0485 42.3634C18.7384 42.6449 19.2162 43.0494 19.5361 43.5661L21.2366 42.5134ZM18.8142 40.5159C17.7931 40.0859 16.5898 39.892 15.2386 39.892V41.892C16.4102 41.892 17.3319 42.0618 18.0381 42.3591L18.8142 40.5159ZM15.2386 39.892H11.0795V41.892H15.2386V39.892ZM10.0795 40.892V69H12.0795V40.892H10.0795ZM11.0795 68H2.64205V70H11.0795V68ZM21.4173 53.5239L30.1105 69.4785L31.8667 68.5215L23.1736 52.567L21.4173 53.5239ZM30.9886 68H21.7841V70H30.9886V68ZM22.6661 68.5288L14.1434 52.5743L12.3793 53.5166L20.9021 69.4712L22.6661 68.5288ZM13.2614 54.0455H22.2955V52.0455H13.2614V54.0455ZM51.3153 42.8182V41.8182H50.3153V42.8182H51.3153ZM59.6335 42.8182H60.6335V41.8182H59.6335V42.8182ZM59.6335 69V70H60.6335V69H59.6335ZM51.6903 69H50.6903V70H51.6903V69ZM51.6903 64.125H52.6903V63.125H51.6903V64.125ZM51.4176 64.125V63.125H50.7159L50.4772 63.7849L51.4176 64.125ZM48.4517 67.9432L49.0095 68.7731L49.0111 68.7721L48.4517 67.9432ZM38.7188 68.1136L38.2011 68.9692L38.2011 68.9692L38.7188 68.1136ZM35.5653 64.6875L34.6737 65.1402L34.6751 65.143L35.5653 64.6875ZM34.4233 59.5057L33.4233 59.5057L33.4233 59.5114L34.4233 59.5057ZM34.4233 42.8182V41.8182H33.4233V42.8182H34.4233ZM42.7585 42.8182H43.7585V41.8182H42.7585V42.8182ZM42.7585 57.8693L41.7585 57.8693L41.7586 57.8773L42.7585 57.8693ZM43.8835 61.2273L44.6258 60.5572L44.6258 60.5572L43.8835 61.2273ZM49.1335 61.9091L49.6166 62.7847L49.6217 62.7818L49.1335 61.9091ZM50.7188 60.2898L49.8446 59.8041L49.8419 59.8089L50.7188 60.2898ZM52.3153 57.6989V42.8182H50.3153V57.6989H52.3153ZM51.3153 43.8182H59.6335V41.8182H51.3153V43.8182ZM58.6335 42.8182V69H60.6335V42.8182H58.6335ZM59.6335 68H51.6903V70H59.6335V68ZM52.6903 69V64.125H50.6903V69H52.6903ZM51.6903 63.125H51.4176V65.125H51.6903V63.125ZM50.4772 63.7849C49.9689 65.1902 49.1125 66.2909 47.8923 67.1143L49.0111 68.7721C50.5863 67.7091 51.7072 66.2643 52.358 64.4651L50.4772 63.7849ZM47.8939 67.1132C46.6999 67.9157 45.2264 68.3409 43.4233 68.3409V70.3409C45.552 70.3409 47.4308 69.8343 49.0095 68.7731L47.8939 67.1132ZM43.4233 68.3409C41.7976 68.3409 40.4132 67.97 39.2364 67.2581L38.2011 68.9692C39.7289 69.8936 41.4808 70.3409 43.4233 70.3409V68.3409ZM39.2364 67.2581C38.0499 66.5402 37.1247 65.5398 36.4556 64.232L34.6751 65.143C35.506 66.767 36.683 68.0507 38.2011 68.9692L39.2364 67.2581ZM36.457 64.2348C35.7897 62.9204 35.4339 61.3516 35.4233 59.4999L33.4233 59.5114C33.4354 61.6143 33.841 63.5 34.6737 65.1402L36.457 64.2348ZM35.4233 59.5057V42.8182H33.4233V59.5057H35.4233ZM34.4233 43.8182H42.7585V41.8182H34.4233V43.8182ZM41.7585 42.8182V57.8693H43.7585V42.8182H41.7585ZM41.7586 57.8773C41.7713 59.47 42.1957 60.85 43.1413 61.8974L44.6258 60.5572C44.0941 59.9682 43.7685 59.1096 43.7585 57.8613L41.7586 57.8773ZM43.1413 61.8974C44.0996 62.9589 45.3931 63.4545 46.9006 63.4545V61.4545C45.8626 61.4545 45.1448 61.132 44.6258 60.5572L43.1413 61.8974ZM46.9006 63.4545C47.8814 63.4545 48.7949 63.238 49.6166 62.7847L48.6504 61.0335C48.154 61.3074 47.5788 61.4545 46.9006 61.4545V63.4545ZM49.6217 62.7818C50.4636 62.3109 51.1233 61.6317 51.5956 60.7706L49.8419 59.8089C49.5414 60.3569 49.1443 60.7572 48.6454 61.0363L49.6217 62.7818ZM51.5929 60.7754C52.0904 59.8799 52.3153 58.8407 52.3153 57.6989H50.3153C50.3153 58.5798 50.1425 59.2678 49.8446 59.8041L51.5929 60.7754ZM87.7969 50.8125L87.8236 51.8121L88.8813 51.7839L88.7934 50.7295L87.7969 50.8125ZM80.1435 51.017L79.1539 51.1614L79.2821 52.0404L80.1702 52.0167L80.1435 51.017ZM79.4957 49.5682L78.7208 50.2004L78.7292 50.2104L79.4957 49.5682ZM78.1151 48.5625L77.7055 49.4748L77.7166 49.4798L77.7278 49.4845L78.1151 48.5625ZM73.7003 48.767L73.2073 47.897L73.201 47.9006L73.7003 48.767ZM72.7116 50.3352L73.7114 50.3574L73.7118 50.3377L73.7115 50.318L72.7116 50.3352ZM73.3253 51.6648L72.6596 52.4111L72.6696 52.4198L73.3253 51.6648ZM75.6264 52.5682L75.4245 53.5476L75.4325 53.5492L75.4405 53.5508L75.6264 52.5682ZM80.6719 53.5227L80.8598 52.5405L80.8578 52.5402L80.6719 53.5227ZM86.5014 56.0114L85.8281 56.7507L85.8314 56.7537L86.5014 56.0114ZM88.4446 60.6136L89.4447 60.62L89.4446 60.6077L88.4446 60.6136ZM86.8423 65.3011L86.0595 64.6789L86.0562 64.683L86.8423 65.3011ZM82.5469 68.4034L82.9183 69.3319L82.9233 69.3299L82.5469 68.4034ZM67.4616 67.1932L66.8776 68.0049L66.8824 68.0084L67.4616 67.1932ZM63.7798 60.9886L63.755 59.9889L62.6577 60.0162L62.7868 61.1062L63.7798 60.9886ZM72.0128 60.7841L72.9951 60.597L72.8363 59.7633L71.9879 59.7844L72.0128 60.7841ZM73.4276 62.9659L73.9765 62.13L73.9765 62.13L73.4276 62.9659ZM78.9503 63.1193L78.4401 62.2593L78.4401 62.2593L78.9503 63.1193ZM79.973 61.5341L80.9729 61.5513L80.9732 61.5331L80.9728 61.5149L79.973 61.5341ZM79.1889 60.1193L78.6094 60.9343L78.6155 60.9386L78.6216 60.9428L79.1889 60.1193ZM76.7855 59.267L76.5986 60.2494L76.6012 60.2499L76.7855 59.267ZM72.2173 58.3977L72.4043 57.4153L72.3962 57.4139L72.2173 58.3977ZM66.3537 55.7557L65.6435 56.4597L65.6466 56.4628L66.3537 55.7557ZM64.4446 50.8125L65.4447 50.8182L65.4446 50.806L64.4446 50.8125ZM65.8423 46.3295L66.6379 46.9354L66.6406 46.9319L65.8423 46.3295ZM69.8651 43.4659L69.5106 42.5308L69.5106 42.5308L69.8651 43.4659ZM84.4048 44.7102L83.8164 45.5188L83.8193 45.5209L84.4048 44.7102ZM87.7702 49.8129L80.1168 50.0174L80.1702 52.0167L87.8236 51.8121L87.7702 49.8129ZM81.133 50.8727C81.0268 50.1448 80.7342 49.4892 80.2623 48.926L78.7292 50.2104C78.9618 50.488 79.101 50.7984 79.1539 51.1614L81.133 50.8727ZM80.2706 48.9361C79.8042 48.3643 79.2052 47.9357 78.5023 47.6405L77.7278 49.4845C78.1613 49.6665 78.4827 49.9084 78.7209 50.2003L80.2706 48.9361ZM78.5246 47.6502C77.8149 47.3316 77.0226 47.1875 76.1719 47.1875V49.1875C76.7984 49.1875 77.3016 49.2934 77.7055 49.4748L78.5246 47.6502ZM76.1719 47.1875C75.073 47.1875 74.0707 47.4078 73.2073 47.897L74.1933 49.6371C74.6936 49.3536 75.339 49.1875 76.1719 49.1875V47.1875ZM73.201 47.9006C72.2811 48.4307 71.693 49.2597 71.7118 50.3525L73.7115 50.318C73.7076 50.0925 73.7786 49.8761 74.1996 49.6335L73.201 47.9006ZM71.7119 50.313C71.6933 51.149 72.0457 51.8635 72.6597 52.4111L73.9909 50.9185C73.764 50.7161 73.7073 50.5442 73.7114 50.3574L71.7119 50.313ZM72.6696 52.4198C73.305 52.9716 74.2876 53.3132 75.4245 53.5476L75.8284 51.5888C74.7607 51.3686 74.2092 51.108 73.981 50.9097L72.6696 52.4198ZM75.4405 53.5508L80.486 54.5053L80.8578 52.5402L75.8123 51.5856L75.4405 53.5508ZM80.484 54.5049C83.0074 54.9877 84.7469 55.766 85.8281 56.7507L87.1748 55.272C85.7105 53.9385 83.5636 53.0578 80.8598 52.5405L80.484 54.5049ZM85.8314 56.7537C86.884 57.7039 87.4347 58.959 87.4446 60.6196L89.4446 60.6077C89.4317 58.4501 88.687 56.637 87.1715 55.269L85.8314 56.7537ZM87.4446 60.6073C87.4346 62.1927 86.9687 63.535 86.0595 64.6789L87.6252 65.9234C88.8296 64.4082 89.4319 62.6255 89.4446 60.62L87.4446 60.6073ZM86.0562 64.683C85.1344 65.8554 83.8537 66.7931 82.1705 67.4769L82.9233 69.3299C84.8764 68.5364 86.4594 67.406 87.6284 65.9193L86.0562 64.683ZM82.1755 67.4749C80.4961 68.1467 78.5462 68.4943 76.3082 68.4943V70.4943C78.7521 70.4943 80.9613 70.1147 82.9183 69.3319L82.1755 67.4749ZM76.3082 68.4943C72.6946 68.4943 69.974 67.7515 68.0409 66.378L66.8824 68.0084C69.2675 69.703 72.4446 70.4943 76.3082 70.4943V68.4943ZM68.0457 66.3815C66.1219 64.9972 65.0462 63.179 64.7729 60.871L62.7868 61.1062C63.1271 63.9801 64.5059 66.2983 66.8776 68.0049L68.0457 66.3815ZM63.8047 61.9883L72.0376 61.7838L71.9879 59.7844L63.755 59.9889L63.8047 61.9883ZM71.0304 60.9712C71.2592 62.172 71.8746 63.1424 72.8786 63.8018L73.9765 62.13C73.4578 61.7894 73.13 61.3053 72.9951 60.597L71.0304 60.9712ZM72.8786 63.8018C73.8451 64.4365 75.0228 64.7159 76.3423 64.7159V62.7159C75.2983 62.7159 74.5327 62.4953 73.9765 62.13L72.8786 63.8018ZM76.3423 64.7159C77.5263 64.7159 78.5887 64.4965 79.4605 63.9794L78.4401 62.2593C77.971 62.5375 77.2948 62.7159 76.3423 62.7159V64.7159ZM79.4605 63.9794C80.3655 63.4425 80.9543 62.6255 80.9729 61.5513L78.9732 61.5169C78.969 61.7609 78.876 62.0007 78.4401 62.2593L79.4605 63.9794ZM80.9728 61.5149C80.9549 60.5831 80.5171 59.8199 79.7562 59.2958L78.6216 60.9428C78.8835 61.1232 78.9684 61.3033 78.9732 61.5533L80.9728 61.5149ZM79.7684 59.3044C79.0807 58.8153 78.11 58.498 76.9698 58.2842L76.6012 60.2499C77.6429 60.4452 78.2745 60.6961 78.6094 60.9343L79.7684 59.3044ZM76.9725 58.2847L72.4043 57.4154L72.0304 59.3801L76.5986 60.2494L76.9725 58.2847ZM72.3962 57.4139C69.8822 56.9568 68.1481 56.1359 67.0608 55.0486L65.6466 56.4628C67.1275 57.9437 69.3025 58.8841 72.0384 59.3816L72.3962 57.4139ZM67.0639 55.0517C65.9858 53.964 65.4346 52.5807 65.4446 50.8182L63.4446 50.8068C63.4319 53.0443 64.1534 54.9564 65.6435 56.4597L67.0639 55.0517ZM65.4446 50.806C65.4345 49.2482 65.8452 47.9764 66.6379 46.9354L65.0467 45.7237C63.9531 47.1599 63.432 48.8768 63.4446 50.819L65.4446 50.806ZM66.6406 46.9319C67.4504 45.8586 68.6238 45.0059 70.2195 44.401L69.5106 42.5308C67.6291 43.2441 66.1206 44.3005 65.0441 45.7272L66.6406 46.9319ZM70.2195 44.401C71.8188 43.7947 73.7445 43.4773 76.0185 43.4773V41.4773C73.5651 41.4773 71.3885 41.8189 69.5106 42.5308L70.2195 44.401ZM76.0185 43.4773C79.435 43.4773 81.9983 44.1956 83.8164 45.5188L84.9933 43.9017C82.7204 42.2476 79.6929 41.4773 76.0185 41.4773V43.4773ZM83.8193 45.5209C85.62 46.8214 86.6078 48.5854 86.8003 50.8955L88.7934 50.7295C88.5541 47.8578 87.2806 45.5536 84.9903 43.8995L83.8193 45.5209ZM115.406 50.8125L115.433 51.8121L116.491 51.7839L116.403 50.7295L115.406 50.8125ZM107.753 51.017L106.763 51.1614L106.892 52.0404L107.78 52.0167L107.753 51.017ZM107.105 49.5682L106.33 50.2004L106.339 50.2104L107.105 49.5682ZM105.724 48.5625L105.315 49.4748L105.326 49.4798L105.337 49.4845L105.724 48.5625ZM101.31 48.767L100.817 47.897L100.81 47.9006L101.31 48.767ZM100.321 50.3352L101.321 50.3574L101.321 50.3377L101.321 50.318L100.321 50.3352ZM100.935 51.6648L100.269 52.4111L100.279 52.4198L100.935 51.6648ZM103.236 52.5682L103.034 53.5476L103.042 53.5492L103.05 53.5508L103.236 52.5682ZM108.281 53.5227L108.469 52.5405L108.467 52.5402L108.281 53.5227ZM114.111 56.0114L113.437 56.7507L113.441 56.7537L114.111 56.0114ZM116.054 60.6136L117.054 60.62L117.054 60.6077L116.054 60.6136ZM114.452 65.3011L113.669 64.6789L113.666 64.683L114.452 65.3011ZM110.156 68.4034L110.528 69.3319L110.533 69.3299L110.156 68.4034ZM95.071 67.1932L94.4869 68.0049L94.4918 68.0084L95.071 67.1932ZM91.3892 60.9886L91.3644 59.9889L90.2671 60.0162L90.3961 61.1062L91.3892 60.9886ZM99.6222 60.7841L100.604 60.597L100.446 59.7633L99.5973 59.7844L99.6222 60.7841ZM101.037 62.9659L101.586 62.13L101.586 62.13L101.037 62.9659ZM106.56 63.1193L106.049 62.2593L106.049 62.2593L106.56 63.1193ZM107.582 61.5341L108.582 61.5513L108.583 61.5331L108.582 61.5149L107.582 61.5341ZM106.798 60.1193L106.219 60.9343L106.225 60.9386L106.231 60.9428L106.798 60.1193ZM104.395 59.267L104.208 60.2494L104.211 60.2499L104.395 59.267ZM99.8267 58.3977L100.014 57.4153L100.006 57.4139L99.8267 58.3977ZM93.9631 55.7557L93.2528 56.4597L93.256 56.4628L93.9631 55.7557ZM92.054 50.8125L93.054 50.8182L93.054 50.806L92.054 50.8125ZM93.4517 46.3295L94.2473 46.9354L94.25 46.9319L93.4517 46.3295ZM97.4744 43.4659L97.12 42.5308L97.12 42.5308L97.4744 43.4659ZM112.014 44.7102L111.426 45.5188L111.429 45.5209L112.014 44.7102ZM115.38 49.8129L107.726 50.0174L107.78 52.0167L115.433 51.8121L115.38 49.8129ZM108.742 50.8727C108.636 50.1448 108.344 49.4892 107.872 48.926L106.339 50.2104C106.571 50.488 106.71 50.7984 106.763 51.1614L108.742 50.8727ZM107.88 48.9361C107.414 48.3643 106.815 47.9357 106.112 47.6405L105.337 49.4845C105.771 49.6665 106.092 49.9084 106.33 50.2003L107.88 48.9361ZM106.134 47.6502C105.424 47.3316 104.632 47.1875 103.781 47.1875V49.1875C104.408 49.1875 104.911 49.2934 105.315 49.4748L106.134 47.6502ZM103.781 47.1875C102.682 47.1875 101.68 47.4078 100.817 47.897L101.803 49.6371C102.303 49.3536 102.948 49.1875 103.781 49.1875V47.1875ZM100.81 47.9006C99.8904 48.4307 99.3023 49.2597 99.3212 50.3525L101.321 50.318C101.317 50.0925 101.388 49.8761 101.809 49.6335L100.81 47.9006ZM99.3213 50.313C99.3027 51.149 99.6551 51.8635 100.269 52.4111L101.6 50.9185C101.373 50.7161 101.317 50.5442 101.321 50.3574L99.3213 50.313ZM100.279 52.4198C100.914 52.9716 101.897 53.3132 103.034 53.5476L103.438 51.5888C102.37 51.3686 101.819 51.108 101.59 50.9097L100.279 52.4198ZM103.05 53.5508L108.095 54.5053L108.467 52.5402L103.422 51.5856L103.05 53.5508ZM108.093 54.5049C110.617 54.9877 112.356 55.766 113.437 56.7507L114.784 55.272C113.32 53.9385 111.173 53.0578 108.469 52.5405L108.093 54.5049ZM113.441 56.7537C114.493 57.7039 115.044 58.959 115.054 60.6196L117.054 60.6077C117.041 58.4501 116.296 56.637 114.781 55.269L113.441 56.7537ZM115.054 60.6073C115.044 62.1927 114.578 63.535 113.669 64.6789L115.235 65.9234C116.439 64.4082 117.041 62.6255 117.054 60.62L115.054 60.6073ZM113.666 64.683C112.744 65.8554 111.463 66.7931 109.78 67.4769L110.533 69.3299C112.486 68.5364 114.069 67.406 115.238 65.9193L113.666 64.683ZM109.785 67.4749C108.105 68.1467 106.156 68.4943 103.918 68.4943V70.4943C106.361 70.4943 108.571 70.1147 110.528 69.3319L109.785 67.4749ZM103.918 68.4943C100.304 68.4943 97.5834 67.7515 95.6502 66.378L94.4918 68.0084C96.8769 69.703 100.054 70.4943 103.918 70.4943V68.4943ZM95.6551 66.3815C93.7313 64.9972 92.6556 63.179 92.3823 60.871L90.3961 61.1062C90.7365 63.9801 92.1153 66.2983 94.4869 68.0049L95.6551 66.3815ZM91.414 61.9883L99.647 61.7838L99.5973 59.7844L91.3644 59.9889L91.414 61.9883ZM98.6398 60.9712C98.8685 62.172 99.484 63.1424 100.488 63.8018L101.586 62.13C101.067 61.7894 100.739 61.3053 100.604 60.597L98.6398 60.9712ZM100.488 63.8018C101.455 64.4365 102.632 64.7159 103.952 64.7159V62.7159C102.908 62.7159 102.142 62.4953 101.586 62.13L100.488 63.8018ZM103.952 64.7159C105.136 64.7159 106.198 64.4965 107.07 63.9794L106.049 62.2593C105.58 62.5375 104.904 62.7159 103.952 62.7159V64.7159ZM107.07 63.9794C107.975 63.4425 108.564 62.6255 108.582 61.5513L106.583 61.5169C106.578 61.7609 106.485 62.0007 106.049 62.2593L107.07 63.9794ZM108.582 61.5149C108.564 60.5831 108.126 59.8199 107.366 59.2958L106.231 60.9428C106.493 61.1232 106.578 61.3033 106.583 61.5533L108.582 61.5149ZM107.378 59.3044C106.69 58.8153 105.719 58.498 104.579 58.2842L104.211 60.2499C105.252 60.4452 105.884 60.6961 106.219 60.9343L107.378 59.3044ZM104.582 58.2847L100.014 57.4154L99.6398 59.3801L104.208 60.2494L104.582 58.2847ZM100.006 57.4139C97.4915 56.9568 95.7575 56.1359 94.6702 55.0486L93.256 56.4628C94.7369 57.9437 96.9119 58.8841 99.6478 59.3816L100.006 57.4139ZM94.6733 55.0517C93.5952 53.964 93.0439 52.5807 93.054 50.8182L91.054 50.8068C91.0413 53.0443 91.7628 54.9564 93.2529 56.4597L94.6733 55.0517ZM93.054 50.806C93.0438 49.2482 93.4546 47.9764 94.2473 46.9354L92.6561 45.7237C91.5625 47.1599 91.0414 48.8768 91.054 50.819L93.054 50.806ZM94.25 46.9319C95.0598 45.8586 96.2332 45.0059 97.8289 44.401L97.12 42.5308C95.2384 43.2441 93.73 44.3005 92.6534 45.7272L94.25 46.9319ZM97.8289 44.401C99.4282 43.7947 101.354 43.4773 103.628 43.4773V41.4773C101.175 41.4773 98.9979 41.8189 97.12 42.5308L97.8289 44.401ZM103.628 43.4773C107.044 43.4773 109.608 44.1956 111.426 45.5188L112.603 43.9017C110.33 42.2476 107.302 41.4773 103.628 41.4773V43.4773ZM111.429 45.5209C113.229 46.8214 114.217 48.5854 114.41 50.8955L116.403 50.7295C116.163 47.8578 114.89 45.5536 112.6 43.8995L111.429 45.5209ZM120.158 69H119.158V70H120.158V69ZM120.158 42.8182V41.8182H119.158V42.8182H120.158ZM128.493 42.8182H129.493V41.8182H128.493V42.8182ZM128.493 69V70H129.493V69H128.493ZM121.317 38.608L120.635 39.3394L120.64 39.3443L121.317 38.608ZM121.317 32.983L121.993 33.7193L121.999 33.7143L121.317 32.983ZM127.351 32.983L126.664 33.7098L126.674 33.7193L127.351 32.983ZM127.351 38.608L128.032 39.3397L128.033 39.3393L127.351 38.608ZM121.158 69V42.8182H119.158V69H121.158ZM120.158 43.8182H128.493V41.8182H120.158V43.8182ZM127.493 42.8182V69H129.493V42.8182H127.493ZM128.493 68H120.158V70H128.493V68ZM124.334 38.767C123.407 38.767 122.645 38.4702 121.993 37.8716L120.64 39.3443C121.671 40.2912 122.92 40.767 124.334 40.767V38.767ZM121.999 37.8766C121.351 37.2724 121.055 36.5901 121.055 35.7784H119.055C119.055 37.1712 119.601 38.3753 120.635 39.3393L121.999 37.8766ZM121.055 35.7784C121.055 34.9819 121.348 34.3127 121.993 33.7193L120.64 32.2466C119.604 33.1987 119.055 34.3931 119.055 35.7784H121.055ZM121.999 33.7143C122.651 33.1063 123.411 32.8068 124.334 32.8068V30.8068C122.915 30.8068 121.665 31.2914 120.635 32.2516L121.999 33.7143ZM124.334 32.8068C125.27 32.8068 126.027 33.1078 126.664 33.7097L128.038 32.2562C127.015 31.2899 125.761 30.8068 124.334 30.8068V32.8068ZM126.674 33.7193C127.32 34.3127 127.612 34.9819 127.612 35.7784H129.612C129.612 34.3931 129.064 33.1987 128.027 32.2466L126.674 33.7193ZM127.612 35.7784C127.612 36.5901 127.317 37.2724 126.669 37.8766L128.033 39.3393C129.067 38.3753 129.612 37.1712 129.612 35.7784H127.612ZM126.669 37.8762C126.033 38.4686 125.275 38.767 124.334 38.767V40.767C125.757 40.767 127.009 40.2927 128.032 39.3397L126.669 37.8762ZM136.73 68.608L136.325 69.5225L136.335 69.5267L136.73 68.608ZM133.679 66.0511L132.838 66.5924L132.844 66.602L133.679 66.0511ZM133.338 58.0568L132.448 57.6015L132.448 57.6015L133.338 58.0568ZM135.452 55.6193L136.023 56.44L136.023 56.44L135.452 55.6193ZM138.554 54.2045L138.816 55.1696L138.825 55.1671L138.554 54.2045ZM142.304 53.5398L142.389 54.5362L142.395 54.5356L142.304 53.5398ZM145.901 53.1136L146.061 54.1008L146.073 54.0987L145.901 53.1136ZM147.878 52.4489L148.448 53.2702L148.453 53.2671L147.878 52.4489ZM147.605 49.0909L148.226 48.3072L148.226 48.3072L147.605 49.0909ZM142.509 49.0909L141.929 48.2762L141.929 48.2762L142.509 49.0909ZM141.23 51.0682L141.195 52.0676L142.031 52.0972L142.208 51.2795L141.23 51.0682ZM133.543 50.7955L132.553 50.654L132.395 51.7554L133.507 51.7948L133.543 50.7955ZM135.298 46.5341L134.501 45.9306L134.5 45.9318L135.298 46.5341ZM139.219 43.5682L139.615 44.4864L139.618 44.4851L139.219 43.5682ZM149.855 43.0739L149.583 44.0363L149.591 44.0383L149.855 43.0739ZM153.537 44.7784L152.954 45.591L152.96 45.5951L153.537 44.7784ZM155.957 47.5057L155.072 47.9714L155.076 47.9787L155.957 47.5057ZM156.827 69V70H157.827V69H156.827ZM148.986 69H147.986V70H148.986V69ZM148.986 65.3523H149.986V64.3523H148.986V65.3523ZM148.781 65.3523V64.3523H148.177L147.896 64.887L148.781 65.3523ZM146.991 67.6023L146.347 66.838L146.341 66.843L146.991 67.6023ZM144.452 68.983L144.152 68.0289L144.149 68.0299L144.452 68.983ZM146.173 63.4432L145.726 62.5487L145.72 62.5516L146.173 63.4432ZM147.912 61.9432L148.739 62.5047L148.744 62.4979L147.912 61.9432ZM148.56 57.2045H149.56V55.5519L148.096 56.3187L148.56 57.2045ZM147.69 57.5455L147.403 56.5876L147.394 56.5904L147.69 57.5455ZM145.372 58.0739L145.532 59.061L145.532 59.061L145.372 58.0739ZM144.162 58.2614L144.016 57.2719L144.005 57.2738L144.162 58.2614ZM142.151 58.8409L141.726 57.9356L141.718 57.9391L142.151 58.8409ZM140.889 59.8636L140.071 59.2887L140.068 59.2932L140.889 59.8636ZM141.384 63.3068L140.788 64.1104L140.795 64.1156L141.384 63.3068ZM141.179 68.4432C139.62 68.4432 138.275 68.1835 137.125 67.6892L136.335 69.5267C137.776 70.1461 139.397 70.4432 141.179 70.4432V68.4432ZM137.135 67.6935C136.02 67.2003 135.155 66.4716 134.514 65.5003L132.844 66.602C133.703 67.9034 134.872 68.8793 136.325 69.5224L137.135 67.6935ZM134.52 65.51C133.909 64.5615 133.571 63.3246 133.571 61.7386H131.571C131.571 63.6072 131.971 65.2453 132.838 66.5923L134.52 65.51ZM133.571 61.7386C133.571 60.3972 133.807 59.3358 134.228 58.5121L132.448 57.6015C131.846 58.7778 131.571 60.171 131.571 61.7386H133.571ZM134.228 58.5121C134.667 57.6542 135.264 56.9687 136.023 56.44L134.88 54.7986C133.844 55.52 133.032 56.4595 132.448 57.6015L134.228 58.5121ZM136.023 56.44C136.817 55.8872 137.744 55.4609 138.816 55.1695L138.292 53.2396C137.023 53.5845 135.882 54.1015 134.88 54.7986L136.023 56.44ZM138.825 55.1671C139.929 54.8562 141.116 54.6449 142.389 54.5361L142.219 52.5434C140.832 52.6619 139.52 52.8938 138.283 53.242L138.825 55.1671ZM142.395 54.5356C143.895 54.3982 145.119 54.2537 146.061 54.1007L145.74 52.1266C144.864 52.269 143.691 52.4086 142.213 52.5439L142.395 54.5356ZM146.073 54.0987C147.023 53.9323 147.857 53.6807 148.448 53.2702L147.307 51.6275C147.08 51.7852 146.596 51.9768 145.728 52.1286L146.073 54.0987ZM148.453 53.2671C149.152 52.7758 149.509 52.0491 149.509 51.2045H147.509C147.509 51.4282 147.445 51.531 147.303 51.6307L148.453 53.2671ZM149.509 51.2045V51.1193H147.509V51.2045H149.509ZM149.509 51.1193C149.509 49.9868 149.103 49.002 148.226 48.3072L146.984 49.8747C147.312 50.1344 147.509 50.5018 147.509 51.1193H149.509ZM148.226 48.3072C147.396 47.6496 146.341 47.375 145.168 47.375V49.375C146.039 49.375 146.609 49.5776 146.984 49.8747L148.226 48.3072ZM145.168 47.375C143.927 47.375 142.817 47.6435 141.929 48.2762L143.088 49.9056C143.541 49.5837 144.204 49.375 145.168 49.375V47.375ZM141.929 48.2762C141.045 48.9051 140.485 49.7845 140.253 50.8568L142.208 51.2795C142.339 50.6701 142.631 50.2312 143.088 49.9056L141.929 48.2762ZM141.266 50.0688L133.578 49.7961L133.507 51.7948L141.195 52.0676L141.266 50.0688ZM134.533 50.9369C134.737 49.5087 135.258 48.2478 136.097 47.1364L134.5 45.9318C133.452 47.3204 132.803 48.9003 132.553 50.654L134.533 50.9369ZM136.096 47.1375C136.932 46.0326 138.092 45.1437 139.615 44.4863L138.823 42.65C137.028 43.4245 135.574 44.5129 134.501 45.9306L136.096 47.1375ZM139.618 44.4851C141.132 43.8258 142.995 43.4773 145.236 43.4773V41.4773C142.795 41.4773 140.646 41.856 138.82 42.6513L139.618 44.4851ZM145.236 43.4773C146.827 43.4773 148.274 43.6667 149.583 44.0363L150.127 42.1115C148.618 41.6856 146.985 41.4773 145.236 41.4773V43.4773ZM149.591 44.0383C150.901 44.3975 152.017 44.9187 152.954 45.5909L154.12 43.9659C152.966 43.1381 151.628 42.523 150.12 42.1095L149.591 44.0383ZM152.96 45.5951C153.883 46.2473 154.581 47.0385 155.072 47.9714L156.842 47.0399C156.197 45.8138 155.282 44.7868 154.114 43.9617L152.96 45.5951ZM155.076 47.9787C155.568 48.8946 155.827 49.9613 155.827 51.2045H157.827C157.827 49.6751 157.506 48.2759 156.838 47.0327L155.076 47.9787ZM155.827 51.2045V69H157.827V51.2045H155.827ZM156.827 68H148.986V70H156.827V68ZM149.986 69V65.3523H147.986V69H149.986ZM148.986 64.3523H148.781V66.3523H148.986V64.3523ZM147.896 64.887C147.487 65.6652 146.97 66.3119 146.347 66.838L147.636 68.3666C148.467 67.6654 149.144 66.8121 149.666 65.8176L147.896 64.887ZM146.341 66.843C145.736 67.3613 145.012 67.759 144.152 68.0289L144.751 69.937C145.846 69.5932 146.815 69.0706 147.642 68.3615L146.341 66.843ZM144.149 68.0299C143.298 68.3001 142.312 68.4432 141.179 68.4432V70.4432C142.478 70.4432 143.673 70.2794 144.754 69.936L144.149 68.0299ZM143.753 64.9886C144.789 64.9886 145.754 64.7777 146.626 64.3348L145.72 62.5516C145.161 62.8359 144.512 62.9886 143.753 62.9886V64.9886ZM146.621 64.3376C147.492 63.9019 148.206 63.2909 148.739 62.5047L147.084 61.3817C146.754 61.8682 146.309 62.2572 145.726 62.5488L146.621 64.3376ZM148.744 62.4979C149.296 61.6704 149.56 60.7234 149.56 59.6932H147.56C147.56 60.3675 147.392 60.9205 147.08 61.3885L148.744 62.4979ZM149.56 59.6932V57.2045H147.56V59.6932H149.56ZM148.096 56.3187C147.928 56.4065 147.701 56.4982 147.403 56.5876L147.978 58.5033C148.361 58.3881 148.714 58.2526 149.024 58.0904L148.096 56.3187ZM147.394 56.5904C147.093 56.6839 146.754 56.7741 146.377 56.8604L146.822 58.8101C147.24 58.7145 147.629 58.6115 147.987 58.5005L147.394 56.5904ZM146.377 56.8604C146.001 56.9463 145.612 57.0218 145.212 57.0868L145.532 59.061C145.973 58.9895 146.403 58.9059 146.822 58.8101L146.377 56.8604ZM145.212 57.0868C144.796 57.1542 144.398 57.216 144.016 57.272L144.307 59.2507C144.699 59.1931 145.107 59.1299 145.532 59.061L145.212 57.0868ZM144.005 57.2738C143.153 57.4095 142.388 57.6249 141.726 57.9357L142.575 59.7461C143.027 59.5342 143.602 59.3632 144.319 59.2489L144.005 57.2738ZM141.718 57.9391C141.046 58.2614 140.481 58.705 140.071 59.2887L141.707 60.4386C141.888 60.1814 142.164 59.9432 142.583 59.7427L141.718 57.9391ZM140.068 59.2932C139.652 59.8927 139.463 60.5872 139.463 61.3295H141.463C141.463 60.9355 141.559 60.6528 141.711 60.434L140.068 59.2932ZM139.463 61.3295C139.463 62.4624 139.884 63.4406 140.788 64.1104L141.979 62.5033C141.656 62.264 141.463 61.9239 141.463 61.3295H139.463ZM140.795 64.1156C141.628 64.7211 142.637 64.9886 143.753 64.9886V62.9886C142.959 62.9886 142.389 62.8016 141.972 62.4981L140.795 64.1156ZM170.259 54.0682L169.259 54.0568V54.0682H170.259ZM170.259 69V70H171.259V69H170.259ZM161.923 69H160.923V70H161.923V69ZM161.923 42.8182V41.8182H160.923V42.8182H161.923ZM169.849 42.8182H170.849V41.8182H169.849V42.8182ZM169.849 47.625H168.849V48.625H169.849V47.625ZM170.139 47.625V48.625H170.841L171.08 47.9651L170.139 47.625ZM173.105 43.858L173.65 44.6963L173.655 44.6931L173.105 43.858ZM182.889 43.7216L182.366 44.574L182.375 44.5791L182.889 43.7216ZM186.06 47.1648L185.168 47.6175L185.172 47.6257L186.06 47.1648ZM187.185 52.3125L186.185 52.3067V52.3125H187.185ZM187.185 69V70H188.185V69H187.185ZM178.849 69H177.849V70H178.849V69ZM178.849 53.9489L177.849 53.9411V53.9489H178.849ZM177.741 50.5398L176.999 51.2099L177.004 51.2155L177.741 50.5398ZM172.338 49.892L172.833 50.7612L172.837 50.7585L172.338 49.892ZM170.804 51.5114L169.915 51.0527L169.91 51.0641L170.804 51.5114ZM169.259 54.0682V69H171.259V54.0682H169.259ZM170.259 68H161.923V70H170.259V68ZM162.923 69V42.8182H160.923V69H162.923ZM161.923 43.8182H169.849V41.8182H161.923V43.8182ZM168.849 42.8182V47.625H170.849V42.8182H168.849ZM169.849 48.625H170.139V46.625H169.849V48.625ZM171.08 47.9651C171.587 46.5627 172.439 45.4839 173.65 44.6962L172.56 43.0197C170.975 44.0502 169.851 45.4828 169.199 47.2849L171.08 47.9651ZM173.655 44.6931C174.866 43.896 176.332 43.4773 178.099 43.4773V41.4773C176.003 41.4773 174.14 41.979 172.555 43.0228L173.655 44.6931ZM178.099 43.4773C179.786 43.4773 181.195 43.8556 182.366 44.574L183.412 42.8692C181.879 41.9285 180.095 41.4773 178.099 41.4773V43.4773ZM182.375 44.5791C183.57 45.2963 184.499 46.3005 185.168 47.6175L186.951 46.7121C186.12 45.0745 184.936 43.7832 183.404 42.8641L182.375 44.5791ZM185.172 47.6257C185.846 48.9225 186.195 50.4724 186.185 52.3067L188.185 52.3183C188.197 50.2207 187.796 48.3389 186.947 46.7039L185.172 47.6257ZM186.185 52.3125V69H188.185V52.3125H186.185ZM187.185 68H178.849V70H187.185V68ZM179.849 69V53.9489H177.849V69H179.849ZM179.849 53.9567C179.862 52.33 179.447 50.9207 178.479 49.864L177.004 51.2155C177.536 51.7952 177.859 52.6586 177.849 53.9411L179.849 53.9567ZM178.484 49.8697C177.518 48.8005 176.197 48.3125 174.656 48.3125V50.3125C175.752 50.3125 176.487 50.6427 176.999 51.2099L178.484 49.8697ZM174.656 48.3125C173.629 48.3125 172.68 48.5408 171.839 49.0256L172.837 50.7585C173.337 50.4706 173.933 50.3125 174.656 50.3125V48.3125ZM171.844 49.0229C171.008 49.4982 170.364 50.1843 169.915 51.0527L171.693 51.97C171.972 51.4293 172.35 51.0359 172.833 50.7612L171.844 49.0229ZM169.91 51.0641C169.474 51.9356 169.271 52.945 169.259 54.0568L171.258 54.0795C171.269 53.1913 171.43 52.4963 171.698 51.9586L169.91 51.0641Z" fill="black" fill-opacity="0.2" mask="url(#path-1-outside-1_120_12)"/>
</g>
</g>
<defs>
<filter id="filter0_dd_120_12" x="-2.35791" y="30.8068" width="194.543" height="47.6875" filterUnits="userSpaceOnUse" color-interpolation-filters="sRGB">
<feFlood flood-opacity="0" result="BackgroundImageFix"/>
<feColorMatrix in="SourceAlpha" type="matrix" values="0 0 0 0 0 0 0 0 0 0 0 0 0 0 0 0 0 0 127 0" result="hardAlpha"/>
<feOffset dy="4"/>
<feGaussianBlur stdDeviation="2"/>
<feComposite in2="hardAlpha" operator="out"/>
<feColorMatrix type="matrix" values="0 0 0 0 0 0 0 0 0 0 0 0 0 0 0 0 0 0 0.25 0"/>
<feBlend mode="normal" in2="BackgroundImageFix" result="effect1_dropShadow_120_12"/>
<feColorMatrix in="SourceAlpha" type="matrix" values="0 0 0 0 0 0 0 0 0 0 0 0 0 0 0 0 0 0 127 0" result="hardAlpha"/>
<feOffset dy="4"/>
<feGaussianBlur stdDeviation="2"/>
<feComposite in2="hardAlpha" operator="out"/>
<feColorMatrix type="matrix" values="0 0 0 0 0 0 0 0 0 0 0 0 0 0 0 0 0 0 0.25 0"/>
<feBlend mode="normal" in2="effect1_dropShadow_120_12" result="effect2_dropShadow_120_12"/>
<feBlend mode="normal" in="SourceGraphic" in2="effect2_dropShadow_120_12" result="shape"/>
</filter>
<clipPath id="clip0_120_12">
<rect width="322" height="117" fill="white"/>
</clipPath>
</defs>
</svg>
