<svg width="322" height="117" viewBox="0 0 322 117" fill="none" xmlns="http://www.w3.org/2000/svg">
<g clip-path="url(#clip0_120_24)">
<rect width="322" height="117" fill="white"/>
<g filter="url(#filter0_dd_120_24)">
<mask id="path-1-outside-1_120_24" maskUnits="userSpaceOnUse" x="0" y="32" width="221" height="39" fill="black">
<rect fill="white" y="32" width="221" height="39"/>
<path d="M21.5114 44.5568C21.3977 43.3068 20.892 42.3352 19.9943 41.642C19.108 40.9375 17.8409 40.5852 16.1932 40.5852C15.1023 40.5852 14.1932 40.7273 13.4659 41.0114C12.7386 41.2955 12.1932 41.6875 11.8295 42.1875C11.4659 42.6761 11.2784 43.2386 11.267 43.875C11.2443 44.3977 11.3466 44.858 11.5739 45.2557C11.8125 45.6534 12.1534 46.0057 12.5966 46.3125C13.0511 46.608 13.5966 46.8693 14.233 47.0966C14.8693 47.3239 15.5852 47.5227 16.3807 47.6932L19.3807 48.375C21.108 48.75 22.6307 49.25 23.9489 49.875C25.2784 50.5 26.392 51.2443 27.2898 52.108C28.1989 52.9716 28.8864 53.9659 29.3523 55.0909C29.8182 56.2159 30.0568 57.4773 30.0682 58.875C30.0568 61.0795 29.5 62.9716 28.3977 64.5511C27.2955 66.1307 25.7102 67.3409 23.642 68.1818C21.5852 69.0227 19.1023 69.4432 16.1932 69.4432C13.2727 69.4432 10.7273 69.0057 8.55682 68.1307C6.38636 67.2557 4.69886 65.9261 3.49432 64.142C2.28977 62.358 1.67045 60.1023 1.63636 57.375H9.71591C9.78409 58.5 10.0852 59.4375 10.6193 60.1875C11.1534 60.9375 11.8864 61.5057 12.8182 61.892C13.7614 62.2784 14.8523 62.4716 16.0909 62.4716C17.2273 62.4716 18.1932 62.3182 18.9886 62.0114C19.7955 61.7045 20.4148 61.2784 20.8466 60.733C21.2784 60.1875 21.5 59.5625 21.5114 58.858C21.5 58.1989 21.2955 57.6364 20.8977 57.1705C20.5 56.6932 19.8864 56.2841 19.0568 55.9432C18.2386 55.5909 17.1932 55.267 15.9205 54.9716L12.2727 54.1193C9.25 53.4261 6.86932 52.3068 5.13068 50.7614C3.39205 49.2045 2.52841 47.1023 2.53977 44.4545C2.52841 42.2955 3.10795 40.4034 4.27841 38.7784C5.44886 37.1534 7.06818 35.8864 9.13636 34.9773C11.2045 34.0682 13.5625 33.6136 16.2102 33.6136C18.9148 33.6136 21.2614 34.0739 23.25 34.9943C25.25 35.9034 26.8011 37.1818 27.9034 38.8295C29.0057 40.4773 29.5682 42.3864 29.5909 44.5568H21.5114ZM41.7102 69.4432C40.0398 69.4432 38.5568 69.1648 37.2614 68.608C35.9773 68.0398 34.9602 67.1875 34.2102 66.0511C33.4716 64.9034 33.1023 63.4659 33.1023 61.7386C33.1023 60.2841 33.358 59.0568 33.8693 58.0568C34.3807 57.0568 35.0852 56.2443 35.983 55.6193C36.8807 54.9943 37.9148 54.5227 39.0852 54.2045C40.2557 53.875 41.5057 53.6534 42.8352 53.5398C44.3239 53.4034 45.5227 53.2614 46.4318 53.1136C47.3409 52.9545 48 52.733 48.4091 52.4489C48.8295 52.1534 49.0398 51.7386 49.0398 51.2045V51.1193C49.0398 50.2443 48.7386 49.5682 48.1364 49.0909C47.5341 48.6136 46.7216 48.375 45.6989 48.375C44.5966 48.375 43.7102 48.6136 43.0398 49.0909C42.3693 49.5682 41.9432 50.2273 41.7614 51.0682L34.0739 50.7955C34.3011 49.2045 34.8864 47.7841 35.8295 46.5341C36.7841 45.2727 38.0909 44.2841 39.75 43.5682C41.4205 42.8409 43.4261 42.4773 45.767 42.4773C47.4375 42.4773 48.9773 42.6761 50.3864 43.0739C51.7955 43.4602 53.0227 44.0284 54.0682 44.7784C55.1136 45.517 55.9205 46.4261 56.4886 47.5057C57.0682 48.5852 57.358 49.8182 57.358 51.2045V69H49.517V65.3523H49.3125C48.8466 66.2386 48.25 66.9886 47.5227 67.6023C46.8068 68.2159 45.9602 68.6761 44.983 68.983C44.017 69.2898 42.9261 69.4432 41.7102 69.4432ZM44.2841 63.9886C45.1818 63.9886 45.9886 63.8068 46.7045 63.4432C47.4318 63.0795 48.0114 62.5795 48.4432 61.9432C48.875 61.2955 49.0909 60.5455 49.0909 59.6932V57.2045C48.8523 57.3295 48.5625 57.4432 48.2216 57.5455C47.892 57.6477 47.5284 57.7443 47.1307 57.8352C46.733 57.9261 46.3239 58.0057 45.9034 58.0739C45.483 58.142 45.0795 58.2045 44.6932 58.2614C43.9091 58.3864 43.2386 58.5795 42.6818 58.8409C42.1364 59.1023 41.7159 59.4432 41.4205 59.8636C41.1364 60.2727 40.9943 60.7614 40.9943 61.3295C40.9943 62.1932 41.3011 62.8523 41.9148 63.3068C42.5398 63.7614 43.3295 63.9886 44.2841 63.9886ZM70.7898 34.0909V69H62.4545V34.0909H70.7898ZM88.3168 69.4943C85.5668 69.4943 83.2031 68.9318 81.2259 67.8068C79.2599 66.6705 77.7429 65.0909 76.6747 63.0682C75.6179 61.0341 75.0895 58.6761 75.0895 55.9943C75.0895 53.3011 75.6179 50.9432 76.6747 48.9205C77.7429 46.8864 79.2599 45.3068 81.2259 44.1818C83.2031 43.0455 85.5668 42.4773 88.3168 42.4773C91.0668 42.4773 93.4247 43.0455 95.3906 44.1818C97.3679 45.3068 98.8849 46.8864 99.9418 48.9205C101.01 50.9432 101.544 53.3011 101.544 55.9943C101.544 58.6761 101.01 61.0341 99.9418 63.0682C98.8849 65.0909 97.3679 66.6705 95.3906 67.8068C93.4247 68.9318 91.0668 69.4943 88.3168 69.4943ZM88.3679 63.2045C89.3679 63.2045 90.2145 62.8977 90.9077 62.2841C91.6009 61.6705 92.1293 60.8182 92.4929 59.7273C92.8679 58.6364 93.0554 57.375 93.0554 55.9432C93.0554 54.4886 92.8679 53.2159 92.4929 52.125C92.1293 51.0341 91.6009 50.1818 90.9077 49.5682C90.2145 48.9545 89.3679 48.6477 88.3679 48.6477C87.3338 48.6477 86.4588 48.9545 85.7429 49.5682C85.0384 50.1818 84.4986 51.0341 84.1236 52.125C83.7599 53.2159 83.5781 54.4886 83.5781 55.9432C83.5781 57.375 83.7599 58.6364 84.1236 59.7273C84.4986 60.8182 85.0384 61.6705 85.7429 62.2841C86.4588 62.8977 87.3338 63.2045 88.3679 63.2045ZM114.149 54.0682V69H105.814V42.8182H113.74V47.625H114.03C114.609 46.0227 115.598 44.767 116.996 43.858C118.393 42.9375 120.058 42.4773 121.99 42.4773C123.831 42.4773 125.428 42.892 126.78 43.7216C128.143 44.5398 129.2 45.6875 129.95 47.1648C130.712 48.6307 131.087 50.3466 131.075 52.3125V69H122.74V53.9489C122.751 52.4943 122.382 51.358 121.632 50.5398C120.893 49.7216 119.865 49.3125 118.547 49.3125C117.672 49.3125 116.899 49.5057 116.229 49.892C115.57 50.267 115.058 50.8068 114.695 51.5114C114.342 52.2159 114.161 53.0682 114.149 54.0682ZM146.548 69V34.0909H170.889V40.9432H154.986V48.1023H169.645V54.9716H154.986V62.1477H170.889V69H146.548ZM183.264 42.8182L187.577 51.4432L192.043 42.8182H200.446L193.134 55.9091L200.719 69H192.384L187.577 60.3068L182.889 69H174.435L182.037 55.9091L174.81 42.8182H183.264ZM219.03 42.8182V48.9545H202.513V42.8182H219.03ZM205.973 36.5455H214.308V60.767C214.308 61.2784 214.388 61.6932 214.547 62.0114C214.717 62.3182 214.962 62.5398 215.28 62.6761C215.598 62.8011 215.979 62.8636 216.422 62.8636C216.74 62.8636 217.075 62.8352 217.428 62.7784C217.791 62.7102 218.064 62.6534 218.246 62.608L219.507 68.625C219.109 68.7386 218.547 68.8807 217.82 69.0511C217.104 69.2216 216.246 69.3295 215.246 69.375C213.291 69.4659 211.615 69.2386 210.217 68.6932C208.831 68.1364 207.768 67.2727 207.03 66.1023C206.303 64.9318 205.95 63.4602 205.973 61.6875V36.5455Z"/>
</mask>
<path d="M21.5114 44.5568C21.3977 43.3068 20.892 42.3352 19.9943 41.642C19.108 40.9375 17.8409 40.5852 16.1932 40.5852C15.1023 40.5852 14.1932 40.7273 13.4659 41.0114C12.7386 41.2955 12.1932 41.6875 11.8295 42.1875C11.4659 42.6761 11.2784 43.2386 11.267 43.875C11.2443 44.3977 11.3466 44.858 11.5739 45.2557C11.8125 45.6534 12.1534 46.0057 12.5966 46.3125C13.0511 46.608 13.5966 46.8693 14.233 47.0966C14.8693 47.3239 15.5852 47.5227 16.3807 47.6932L19.3807 48.375C21.108 48.75 22.6307 49.25 23.9489 49.875C25.2784 50.5 26.392 51.2443 27.2898 52.108C28.1989 52.9716 28.8864 53.9659 29.3523 55.0909C29.8182 56.2159 30.0568 57.4773 30.0682 58.875C30.0568 61.0795 29.5 62.9716 28.3977 64.5511C27.2955 66.1307 25.7102 67.3409 23.642 68.1818C21.5852 69.0227 19.1023 69.4432 16.1932 69.4432C13.2727 69.4432 10.7273 69.0057 8.55682 68.1307C6.38636 67.2557 4.69886 65.9261 3.49432 64.142C2.28977 62.358 1.67045 60.1023 1.63636 57.375H9.71591C9.78409 58.5 10.0852 59.4375 10.6193 60.1875C11.1534 60.9375 11.8864 61.5057 12.8182 61.892C13.7614 62.2784 14.8523 62.4716 16.0909 62.4716C17.2273 62.4716 18.1932 62.3182 18.9886 62.0114C19.7955 61.7045 20.4148 61.2784 20.8466 60.733C21.2784 60.1875 21.5 59.5625 21.5114 58.858C21.5 58.1989 21.2955 57.6364 20.8977 57.1705C20.5 56.6932 19.8864 56.2841 19.0568 55.9432C18.2386 55.5909 17.1932 55.267 15.9205 54.9716L12.2727 54.1193C9.25 53.4261 6.86932 52.3068 5.13068 50.7614C3.39205 49.2045 2.52841 47.1023 2.53977 44.4545C2.52841 42.2955 3.10795 40.4034 4.27841 38.7784C5.44886 37.1534 7.06818 35.8864 9.13636 34.9773C11.2045 34.0682 13.5625 33.6136 16.2102 33.6136C18.9148 33.6136 21.2614 34.0739 23.25 34.9943C25.25 35.9034 26.8011 37.1818 27.9034 38.8295C29.0057 40.4773 29.5682 42.3864 29.5909 44.5568H21.5114ZM41.7102 69.4432C40.0398 69.4432 38.5568 69.1648 37.2614 68.608C35.9773 68.0398 34.9602 67.1875 34.2102 66.0511C33.4716 64.9034 33.1023 63.4659 33.1023 61.7386C33.1023 60.2841 33.358 59.0568 33.8693 58.0568C34.3807 57.0568 35.0852 56.2443 35.983 55.6193C36.8807 54.9943 37.9148 54.5227 39.0852 54.2045C40.2557 53.875 41.5057 53.6534 42.8352 53.5398C44.3239 53.4034 45.5227 53.2614 46.4318 53.1136C47.3409 52.9545 48 52.733 48.4091 52.4489C48.8295 52.1534 49.0398 51.7386 49.0398 51.2045V51.1193C49.0398 50.2443 48.7386 49.5682 48.1364 49.0909C47.5341 48.6136 46.7216 48.375 45.6989 48.375C44.5966 48.375 43.7102 48.6136 43.0398 49.0909C42.3693 49.5682 41.9432 50.2273 41.7614 51.0682L34.0739 50.7955C34.3011 49.2045 34.8864 47.7841 35.8295 46.5341C36.7841 45.2727 38.0909 44.2841 39.75 43.5682C41.4205 42.8409 43.4261 42.4773 45.767 42.4773C47.4375 42.4773 48.9773 42.6761 50.3864 43.0739C51.7955 43.4602 53.0227 44.0284 54.0682 44.7784C55.1136 45.517 55.9205 46.4261 56.4886 47.5057C57.0682 48.5852 57.358 49.8182 57.358 51.2045V69H49.517V65.3523H49.3125C48.8466 66.2386 48.25 66.9886 47.5227 67.6023C46.8068 68.2159 45.9602 68.6761 44.983 68.983C44.017 69.2898 42.9261 69.4432 41.7102 69.4432ZM44.2841 63.9886C45.1818 63.9886 45.9886 63.8068 46.7045 63.4432C47.4318 63.0795 48.0114 62.5795 48.4432 61.9432C48.875 61.2955 49.0909 60.5455 49.0909 59.6932V57.2045C48.8523 57.3295 48.5625 57.4432 48.2216 57.5455C47.892 57.6477 47.5284 57.7443 47.1307 57.8352C46.733 57.9261 46.3239 58.0057 45.9034 58.0739C45.483 58.142 45.0795 58.2045 44.6932 58.2614C43.9091 58.3864 43.2386 58.5795 42.6818 58.8409C42.1364 59.1023 41.7159 59.4432 41.4205 59.8636C41.1364 60.2727 40.9943 60.7614 40.9943 61.3295C40.9943 62.1932 41.3011 62.8523 41.9148 63.3068C42.5398 63.7614 43.3295 63.9886 44.2841 63.9886ZM70.7898 34.0909V69H62.4545V34.0909H70.7898ZM88.3168 69.4943C85.5668 69.4943 83.2031 68.9318 81.2259 67.8068C79.2599 66.6705 77.7429 65.0909 76.6747 63.0682C75.6179 61.0341 75.0895 58.6761 75.0895 55.9943C75.0895 53.3011 75.6179 50.9432 76.6747 48.9205C77.7429 46.8864 79.2599 45.3068 81.2259 44.1818C83.2031 43.0455 85.5668 42.4773 88.3168 42.4773C91.0668 42.4773 93.4247 43.0455 95.3906 44.1818C97.3679 45.3068 98.8849 46.8864 99.9418 48.9205C101.01 50.9432 101.544 53.3011 101.544 55.9943C101.544 58.6761 101.01 61.0341 99.9418 63.0682C98.8849 65.0909 97.3679 66.6705 95.3906 67.8068C93.4247 68.9318 91.0668 69.4943 88.3168 69.4943ZM88.3679 63.2045C89.3679 63.2045 90.2145 62.8977 90.9077 62.2841C91.6009 61.6705 92.1293 60.8182 92.4929 59.7273C92.8679 58.6364 93.0554 57.375 93.0554 55.9432C93.0554 54.4886 92.8679 53.2159 92.4929 52.125C92.1293 51.0341 91.6009 50.1818 90.9077 49.5682C90.2145 48.9545 89.3679 48.6477 88.3679 48.6477C87.3338 48.6477 86.4588 48.9545 85.7429 49.5682C85.0384 50.1818 84.4986 51.0341 84.1236 52.125C83.7599 53.2159 83.5781 54.4886 83.5781 55.9432C83.5781 57.375 83.7599 58.6364 84.1236 59.7273C84.4986 60.8182 85.0384 61.6705 85.7429 62.2841C86.4588 62.8977 87.3338 63.2045 88.3679 63.2045ZM114.149 54.0682V69H105.814V42.8182H113.74V47.625H114.03C114.609 46.0227 115.598 44.767 116.996 43.858C118.393 42.9375 120.058 42.4773 121.99 42.4773C123.831 42.4773 125.428 42.892 126.78 43.7216C128.143 44.5398 129.2 45.6875 129.95 47.1648C130.712 48.6307 131.087 50.3466 131.075 52.3125V69H122.74V53.9489C122.751 52.4943 122.382 51.358 121.632 50.5398C120.893 49.7216 119.865 49.3125 118.547 49.3125C117.672 49.3125 116.899 49.5057 116.229 49.892C115.57 50.267 115.058 50.8068 114.695 51.5114C114.342 52.2159 114.161 53.0682 114.149 54.0682ZM146.548 69V34.0909H170.889V40.9432H154.986V48.1023H169.645V54.9716H154.986V62.1477H170.889V69H146.548ZM183.264 42.8182L187.577 51.4432L192.043 42.8182H200.446L193.134 55.9091L200.719 69H192.384L187.577 60.3068L182.889 69H174.435L182.037 55.9091L174.81 42.8182H183.264ZM219.03 42.8182V48.9545H202.513V42.8182H219.03ZM205.973 36.5455H214.308V60.767C214.308 61.2784 214.388 61.6932 214.547 62.0114C214.717 62.3182 214.962 62.5398 215.28 62.6761C215.598 62.8011 215.979 62.8636 216.422 62.8636C216.74 62.8636 217.075 62.8352 217.428 62.7784C217.791 62.7102 218.064 62.6534 218.246 62.608L219.507 68.625C219.109 68.7386 218.547 68.8807 217.82 69.0511C217.104 69.2216 216.246 69.3295 215.246 69.375C213.291 69.4659 211.615 69.2386 210.217 68.6932C208.831 68.1364 207.768 67.2727 207.03 66.1023C206.303 64.9318 205.95 63.4602 205.973 61.6875V36.5455Z" fill="#002855"/>
<path d="M21.5114 44.5568L20.5155 44.6474L20.5982 45.5568H21.5114V44.5568ZM19.9943 41.642L19.372 42.4249L19.3832 42.4336L19.9943 41.642ZM13.4659 41.0114L13.1021 40.0799L13.1021 40.0799L13.4659 41.0114ZM11.8295 42.1875L12.6318 42.7845L12.6383 42.7757L11.8295 42.1875ZM11.267 43.875L12.2661 43.9184L12.2667 43.9057L12.2669 43.8929L11.267 43.875ZM11.5739 45.2557L10.7056 45.7518L10.7109 45.7611L10.7164 45.7702L11.5739 45.2557ZM12.5966 46.3125L12.0274 47.1347L12.0394 47.143L12.0516 47.1509L12.5966 46.3125ZM14.233 47.0966L14.5693 46.1548L14.5693 46.1548L14.233 47.0966ZM16.3807 47.6932L16.6023 46.718L16.5902 46.7154L16.3807 47.6932ZM19.3807 48.375L19.1591 49.3502L19.1685 49.3522L19.3807 48.375ZM23.9489 49.875L23.5204 50.7786L23.5234 50.78L23.9489 49.875ZM27.2898 52.108L26.5965 52.8286L26.601 52.833L27.2898 52.108ZM29.3523 55.0909L28.4284 55.4735L28.4284 55.4735L29.3523 55.0909ZM30.0682 58.875L31.0683 58.8802L31.0682 58.8669L30.0682 58.875ZM28.3977 64.5511L27.5777 63.9789L27.5777 63.9789L28.3977 64.5511ZM23.642 68.1818L23.2654 67.2555L23.2636 67.2562L23.642 68.1818ZM8.55682 68.1307L8.93072 67.2032L8.93072 67.2032L8.55682 68.1307ZM1.63636 57.375V56.375H0.623786L0.636442 57.3875L1.63636 57.375ZM9.71591 57.375L10.7141 57.3145L10.6571 56.375H9.71591V57.375ZM10.6193 60.1875L9.80475 60.7676L9.80475 60.7676L10.6193 60.1875ZM12.8182 61.892L12.4352 62.8158L12.4391 62.8174L12.8182 61.892ZM18.9886 62.0114L18.6332 61.0767L18.6288 61.0784L18.9886 62.0114ZM20.8466 60.733L20.0625 60.1123L20.0625 60.1123L20.8466 60.733ZM21.5114 58.858L22.5112 58.8741L22.5115 58.8574L22.5112 58.8407L21.5114 58.858ZM20.8977 57.1705L20.1295 57.8107L20.1372 57.8197L20.8977 57.1705ZM19.0568 55.9432L18.6614 56.8617L18.669 56.865L18.6767 56.8681L19.0568 55.9432ZM15.9205 54.9716L15.6929 55.9454L15.6943 55.9457L15.9205 54.9716ZM12.2727 54.1193L12.5002 53.1455L12.4962 53.1446L12.2727 54.1193ZM5.13068 50.7614L4.4636 51.5064L4.46632 51.5088L5.13068 50.7614ZM2.53977 44.4545L3.53981 44.4588L3.53976 44.4493L2.53977 44.4545ZM4.27841 38.7784L3.46698 38.194L3.46698 38.194L4.27841 38.7784ZM9.13636 34.9773L9.53877 35.8927L9.53877 35.8927L9.13636 34.9773ZM23.25 34.9943L22.8299 35.9018L22.8362 35.9047L23.25 34.9943ZM27.9034 38.8295L28.7346 38.2735L28.7346 38.2735L27.9034 38.8295ZM29.5909 44.5568V45.5568H30.6014L30.5909 44.5463L29.5909 44.5568ZM22.5073 44.4663C22.3714 42.9721 21.7481 41.7328 20.6055 40.8505L19.3832 42.4336C20.036 42.9376 20.424 43.6416 20.5155 44.6474L22.5073 44.4663ZM20.6166 40.8592C19.4885 39.9626 17.9673 39.5852 16.1932 39.5852V41.5852C17.7146 41.5852 18.7274 41.9124 19.3721 42.4249L20.6166 40.8592ZM16.1932 39.5852C15.0236 39.5852 13.9815 39.7364 13.1021 40.0799L13.8298 41.9428C14.4049 41.7182 15.1809 41.5852 16.1932 41.5852V39.5852ZM13.1021 40.0799C12.2433 40.4154 11.523 40.9088 11.0208 41.5993L12.6383 42.7757C12.8633 42.4662 13.234 42.1755 13.8298 41.9428L13.1021 40.0799ZM11.0273 41.5905C10.5331 42.2546 10.2821 43.0218 10.2672 43.8571L12.2669 43.8929C12.2747 43.4555 12.3988 43.0976 12.6318 42.7845L11.0273 41.5905ZM10.268 43.8316C10.2383 44.5154 10.3719 45.1678 10.7056 45.7518L12.4421 44.7595C12.3213 44.5481 12.2504 44.28 12.2661 43.9184L10.268 43.8316ZM10.7164 45.7702C11.0391 46.308 11.4861 46.76 12.0274 47.1347L13.1658 45.4903C12.8207 45.2514 12.5859 44.9988 12.4314 44.7412L10.7164 45.7702ZM12.0516 47.1509C12.5851 47.4977 13.2041 47.791 13.8966 48.0383L14.5693 46.1548C13.9891 45.9476 13.5172 45.7182 13.1416 45.4741L12.0516 47.1509ZM13.8966 48.0383C14.5817 48.283 15.341 48.4931 16.1712 48.671L16.5902 46.7154C15.8294 46.5524 15.1569 46.3647 14.5693 46.1548L13.8966 48.0383ZM16.1591 48.6683L19.1591 49.3501L19.6023 47.3999L16.6023 46.718L16.1591 48.6683ZM19.1685 49.3522C20.8362 49.7143 22.284 50.1923 23.5204 50.7786L24.3773 48.9714C22.9774 48.3077 21.3797 47.7857 19.5928 47.3978L19.1685 49.3522ZM23.5234 50.78C24.7715 51.3667 25.7901 52.0528 26.5965 52.8286L27.9831 51.3873C26.994 50.4358 25.7853 49.6333 24.3743 48.97L23.5234 50.78ZM26.601 52.833C27.4117 53.6031 28.0176 54.4818 28.4284 55.4735L30.2762 54.7083C29.7551 53.4501 28.986 52.3401 27.9785 51.383L26.601 52.833ZM28.4284 55.4735C28.8384 56.4635 29.0577 57.5951 29.0682 58.8831L31.0682 58.8669C31.0559 57.3594 30.798 55.9683 30.2762 54.7083L28.4284 55.4735ZM29.0682 58.8698C29.0577 60.9018 28.5476 62.589 27.5777 63.9789L29.2178 65.1234C30.4524 63.3542 31.0559 61.2573 31.0682 58.8802L29.0682 58.8698ZM27.5777 63.9789C26.6026 65.3761 25.1838 66.4755 23.2654 67.2555L24.0187 69.1082C26.2367 68.2064 27.9883 66.8853 29.2178 65.1234L27.5777 63.9789ZM23.2636 67.2562C21.3578 68.0354 19.0106 68.4432 16.1932 68.4432V70.4432C19.1939 70.4432 21.8127 70.0101 24.0205 69.1074L23.2636 67.2562ZM16.1932 68.4432C13.3702 68.4432 10.9569 68.02 8.93072 67.2032L8.18292 69.0582C10.4977 69.9913 13.1753 70.4432 16.1932 70.4432V68.4432ZM8.93072 67.2032C6.92832 66.396 5.40633 65.1869 4.32311 63.5825L2.66553 64.7016C3.99139 66.6654 5.8444 68.1154 8.18292 69.0582L8.93072 67.2032ZM4.32311 63.5825C3.25358 61.9984 2.66859 59.9465 2.63629 57.3625L0.636442 57.3875C0.672323 60.258 1.32597 62.7175 2.66553 64.7016L4.32311 63.5825ZM1.63636 58.375H9.71591V56.375H1.63636V58.375ZM8.71774 57.4355C8.79471 58.7055 9.13995 59.834 9.80475 60.7676L11.4339 59.6074C11.0305 59.041 10.7735 58.2945 10.7141 57.3145L8.71774 57.4355ZM9.80475 60.7676C10.4579 61.6848 11.3473 62.3647 12.4352 62.8158L13.2012 60.9683C12.4255 60.6467 11.8489 60.1902 11.4339 59.6074L9.80475 60.7676ZM12.4391 62.8174C13.5255 63.2624 14.7495 63.4716 16.0909 63.4716V61.4716C14.955 61.4716 13.9972 61.2944 13.1972 60.9667L12.4391 62.8174ZM16.0909 63.4716C17.3117 63.4716 18.407 63.3075 19.3485 62.9444L18.6288 61.0784C17.9793 61.3289 17.1428 61.4716 16.0909 61.4716V63.4716ZM19.3441 62.9461C20.2792 62.5905 21.0628 62.0709 21.6306 61.3537L20.0625 60.1123C19.7667 60.4859 19.3118 60.8186 18.6332 61.0767L19.3441 62.9461ZM21.6306 61.3537C22.2008 60.6335 22.4964 59.7953 22.5112 58.8741L20.5115 58.8418C20.5036 59.3297 20.3561 59.7415 20.0625 60.1123L21.6306 61.3537ZM22.5112 58.8407C22.4962 57.9685 22.2186 57.1775 21.6583 56.5212L20.1372 57.8197C20.3723 58.0952 20.5038 58.4292 20.5115 58.8752L22.5112 58.8407ZM21.6659 56.5303C21.128 55.8847 20.3548 55.3954 19.4369 55.0182L18.6767 56.8681C19.4179 57.1727 19.872 57.5016 20.1295 57.8106L21.6659 56.5303ZM19.4523 55.0247C18.5606 54.6408 17.4531 54.3008 16.1466 53.9975L15.6943 55.9457C16.9332 56.2333 17.9167 56.541 18.6614 56.8617L19.4523 55.0247ZM16.148 53.9978L12.5002 53.1455L12.0452 55.0931L15.6929 55.9454L16.148 53.9978ZM12.4962 53.1446C9.58472 52.4769 7.37326 51.4168 5.79505 50.014L4.46632 51.5088C6.36538 53.1968 8.91528 54.3753 12.0492 55.094L12.4962 53.1446ZM5.79776 50.0164C4.30196 48.677 3.52944 46.8634 3.53976 44.4588L1.53978 44.4503C1.52737 47.3411 2.48213 49.7321 4.4636 51.5063L5.79776 50.0164ZM3.53976 44.4493C3.52942 42.4843 4.05288 40.8025 5.08984 39.3629L3.46698 38.194C2.16303 40.0043 1.5274 42.1066 1.53979 44.4598L3.53976 44.4493ZM5.08984 39.3629C6.14309 37.9006 7.61264 36.7394 9.53877 35.8927L8.73396 34.0618C6.52372 35.0333 4.75464 36.4062 3.46698 38.194L5.08984 39.3629ZM9.53877 35.8927C11.4602 35.0482 13.6775 34.6136 16.2102 34.6136V32.6136C13.4475 32.6136 10.9489 33.0882 8.73396 34.0618L9.53877 35.8927ZM16.2102 34.6136C18.8029 34.6136 21.0001 35.0548 22.83 35.9018L23.67 34.0868C21.5227 33.0929 19.0267 32.6136 16.2102 32.6136V34.6136ZM22.8362 35.9047C24.6857 36.7454 26.0844 37.9089 27.0722 39.3856L28.7346 38.2735C27.5179 36.4548 25.8143 35.0614 23.6638 34.0839L22.8362 35.9047ZM27.0722 39.3856C28.0562 40.8565 28.5701 42.572 28.591 44.5673L30.5909 44.5463C30.5663 42.2007 29.9551 40.0981 28.7346 38.2735L27.0722 39.3856ZM29.5909 43.5568H21.5114V45.5568H29.5909V43.5568ZM37.2614 68.608L36.8567 69.5225L36.8665 69.5267L37.2614 68.608ZM34.2102 66.0511L33.3693 66.5924L33.3756 66.602L34.2102 66.0511ZM33.8693 58.0568L32.979 57.6015L32.979 57.6015L33.8693 58.0568ZM35.983 55.6193L36.5543 56.44L36.5543 56.44L35.983 55.6193ZM39.0852 54.2045L39.3476 55.1696L39.3562 55.1671L39.0852 54.2045ZM42.8352 53.5398L42.9204 54.5362L42.9264 54.5356L42.8352 53.5398ZM46.4318 53.1136L46.5922 54.1008L46.6042 54.0987L46.4318 53.1136ZM48.4091 52.4489L48.9795 53.2702L48.984 53.2671L48.4091 52.4489ZM48.1364 49.0909L48.7574 48.3072L48.7574 48.3072L48.1364 49.0909ZM43.0398 49.0909L42.4598 48.2762L42.4598 48.2762L43.0398 49.0909ZM41.7614 51.0682L41.7259 52.0676L42.562 52.0972L42.7388 51.2795L41.7614 51.0682ZM34.0739 50.7955L33.0839 50.654L32.9266 51.7554L34.0384 51.7948L34.0739 50.7955ZM35.8295 46.5341L35.0321 45.9306L35.0313 45.9318L35.8295 46.5341ZM39.75 43.5682L40.1462 44.4864L40.1492 44.4851L39.75 43.5682ZM50.3864 43.0739L50.1147 44.0363L50.1219 44.0383L50.3864 43.0739ZM54.0682 44.7784L53.4853 45.591L53.4912 45.5951L54.0682 44.7784ZM56.4886 47.5057L55.6037 47.9714L55.6076 47.9787L56.4886 47.5057ZM57.358 69V70H58.358V69H57.358ZM49.517 69H48.517V70H49.517V69ZM49.517 65.3523H50.517V64.3523H49.517V65.3523ZM49.3125 65.3523V64.3523H48.7084L48.4273 64.887L49.3125 65.3523ZM47.5227 67.6023L46.8778 66.838L46.8719 66.843L47.5227 67.6023ZM44.983 68.983L44.6834 68.0289L44.6802 68.0299L44.983 68.983ZM46.7045 63.4432L46.2573 62.5487L46.2517 62.5516L46.7045 63.4432ZM48.4432 61.9432L49.2707 62.5047L49.2752 62.4979L48.4432 61.9432ZM49.0909 57.2045H50.0909V55.5519L48.6269 56.3187L49.0909 57.2045ZM48.2216 57.5455L47.9342 56.5876L47.9252 56.5904L48.2216 57.5455ZM45.9034 58.0739L46.0635 59.061L46.0635 59.061L45.9034 58.0739ZM44.6932 58.2614L44.5477 57.2719L44.5358 57.2738L44.6932 58.2614ZM42.6818 58.8409L42.2569 57.9356L42.2497 57.9391L42.6818 58.8409ZM41.4205 59.8636L40.6023 59.2887L40.5991 59.2932L41.4205 59.8636ZM41.9148 63.3068L41.3195 64.1104L41.3266 64.1156L41.9148 63.3068ZM41.7102 68.4432C40.1509 68.4432 38.8061 68.1835 37.6563 67.6892L36.8665 69.5267C38.3075 70.1461 39.9287 70.4432 41.7102 70.4432V68.4432ZM37.666 67.6935C36.5513 67.2003 35.6859 66.4716 35.0448 65.5003L33.3756 66.602C34.2346 67.9034 35.4032 68.8793 36.8567 69.5224L37.666 67.6935ZM35.0511 65.51C34.4407 64.5615 34.1023 63.3246 34.1023 61.7386H32.1023C32.1023 63.6072 32.5024 65.2453 33.3693 66.5923L35.0511 65.51ZM34.1023 61.7386C34.1023 60.3972 34.3385 59.3358 34.7597 58.5121L32.979 57.6015C32.3775 58.7778 32.1023 60.171 32.1023 61.7386H34.1023ZM34.7597 58.5121C35.1984 57.6542 35.795 56.9687 36.5543 56.44L35.4116 54.7986C34.3755 55.52 33.563 56.4595 32.979 57.6015L34.7597 58.5121ZM36.5543 56.44C37.3484 55.8872 38.2756 55.4609 39.3476 55.1695L38.8229 53.2396C37.5539 53.5845 36.413 54.1015 35.4116 54.7986L36.5543 56.44ZM39.3562 55.1671C40.4604 54.8562 41.6477 54.6449 42.9204 54.5361L42.7501 52.5434C41.3637 52.6619 40.051 52.8938 38.8142 53.242L39.3562 55.1671ZM42.9264 54.5356C44.4259 54.3982 45.6506 54.2537 46.5922 54.1007L46.2714 52.1266C45.3949 52.269 44.2218 52.4086 42.744 52.5439L42.9264 54.5356ZM46.6042 54.0987C47.5547 53.9323 48.3885 53.6807 48.9795 53.2702L47.8387 51.6275C47.6115 51.7852 47.1272 51.9768 46.2594 52.1286L46.6042 54.0987ZM48.984 53.2671C49.6832 52.7758 50.0398 52.0491 50.0398 51.2045H48.0398C48.0398 51.4282 47.9759 51.531 47.8341 51.6307L48.984 53.2671ZM50.0398 51.2045V51.1193H48.0398V51.2045H50.0398ZM50.0398 51.1193C50.0398 49.9868 49.6343 49.002 48.7574 48.3072L47.5153 49.8747C47.843 50.1344 48.0398 50.5018 48.0398 51.1193H50.0398ZM48.7574 48.3072C47.9277 47.6496 46.8724 47.375 45.6989 47.375V49.375C46.5707 49.375 47.1405 49.5776 47.5153 49.8747L48.7574 48.3072ZM45.6989 47.375C44.4582 47.375 43.3486 47.6435 42.4598 48.2762L43.6197 49.9056C44.0718 49.5837 44.7349 49.375 45.6989 49.375V47.375ZM42.4598 48.2762C41.5764 48.9051 41.0158 49.7845 40.784 50.8568L42.7388 51.2795C42.8705 50.6701 43.1622 50.2312 43.6197 49.9056L42.4598 48.2762ZM41.7968 50.0688L34.1093 49.7961L34.0384 51.7948L41.7259 52.0676L41.7968 50.0688ZM35.0638 50.9369C35.2678 49.5087 35.7892 48.2478 36.6278 47.1364L35.0313 45.9318C33.9835 47.3204 33.3344 48.9003 33.0839 50.654L35.0638 50.9369ZM36.627 47.1375C37.4631 46.0326 38.6229 45.1437 40.1462 44.4863L39.3538 42.65C37.5589 43.4245 36.1051 44.5129 35.0321 45.9306L36.627 47.1375ZM40.1492 44.4851C41.6633 43.8258 43.5259 43.4773 45.767 43.4773V41.4773C43.3263 41.4773 41.1776 41.856 39.3508 42.6513L40.1492 44.4851ZM45.767 43.4773C47.3583 43.4773 48.8054 43.6667 50.1147 44.0363L50.658 42.1115C49.1491 41.6856 47.5167 41.4773 45.767 41.4773V43.4773ZM50.1219 44.0383C51.432 44.3975 52.5483 44.9187 53.4853 45.5909L54.6511 43.9659C53.4972 43.1381 52.1589 42.523 50.6508 42.1095L50.1219 44.0383ZM53.4912 45.5951C54.4143 46.2473 55.1127 47.0385 55.6037 47.9714L57.3736 47.0399C56.7282 45.8138 55.813 44.7868 54.6452 43.9617L53.4912 45.5951ZM55.6076 47.9787C56.0993 48.8946 56.358 49.9613 56.358 51.2045H58.358C58.358 49.6751 58.0371 48.2759 57.3697 47.0327L55.6076 47.9787ZM56.358 51.2045V69H58.358V51.2045H56.358ZM57.358 68H49.517V70H57.358V68ZM50.517 69V65.3523H48.517V69H50.517ZM49.517 64.3523H49.3125V66.3523H49.517V64.3523ZM48.4273 64.887C48.0183 65.6652 47.5014 66.3119 46.8779 66.838L48.1676 68.3666C48.9986 67.6654 49.6749 66.8121 50.1977 65.8176L48.4273 64.887ZM46.8719 66.843C46.2673 67.3613 45.5429 67.759 44.6834 68.0289L45.2825 69.937C46.3776 69.5932 47.3463 69.0706 48.1735 68.3615L46.8719 66.843ZM44.6802 68.0299C43.8295 68.3001 42.8433 68.4432 41.7102 68.4432V70.4432C43.009 70.4432 44.2046 70.2794 45.2857 69.936L44.6802 68.0299ZM44.2841 64.9886C45.3204 64.9886 46.2853 64.7777 47.1574 64.3348L46.2517 62.5516C45.6919 62.8359 45.0432 62.9886 44.2841 62.9886V64.9886ZM47.1518 64.3376C48.0231 63.9019 48.7371 63.2909 49.2707 62.5047L47.6157 61.3817C47.2856 61.8682 46.8405 62.2572 46.2573 62.5488L47.1518 64.3376ZM49.2752 62.4979C49.8269 61.6704 50.0909 60.7234 50.0909 59.6932H48.0909C48.0909 60.3675 47.9231 60.9205 47.6111 61.3885L49.2752 62.4979ZM50.0909 59.6932V57.2045H48.0909V59.6932H50.0909ZM48.6269 56.3187C48.4594 56.4065 48.2323 56.4982 47.9342 56.5876L48.5089 58.5033C48.8927 58.3881 49.2452 58.2526 49.5549 58.0904L48.6269 56.3187ZM47.9252 56.5904C47.6238 56.6839 47.2851 56.7741 46.9079 56.8604L47.3535 58.8101C47.7717 58.7145 48.1603 58.6115 48.518 58.5005L47.9252 56.5904ZM46.9079 56.8604C46.5318 56.9463 46.1437 57.0218 45.7433 57.0868L46.0635 59.061C46.5041 58.9895 46.9341 58.9059 47.3535 58.8101L46.9079 56.8604ZM45.7433 57.0868C45.3273 57.1542 44.9288 57.216 44.5477 57.272L44.8387 59.2507C45.2303 59.1931 45.6386 59.1299 46.0635 59.061L45.7433 57.0868ZM44.5358 57.2738C43.6845 57.4095 42.9191 57.6249 42.2569 57.9357L43.1067 59.7461C43.5582 59.5342 44.1337 59.3632 44.8506 59.2489L44.5358 57.2738ZM42.2497 57.9391C41.5772 58.2614 41.0124 58.705 40.6023 59.2887L42.2386 60.4386C42.4194 60.1814 42.6956 59.9432 43.1139 59.7427L42.2497 57.9391ZM40.5991 59.2932C40.1828 59.8927 39.9943 60.5872 39.9943 61.3295H41.9943C41.9943 60.9355 42.0899 60.6528 42.2418 60.434L40.5991 59.2932ZM39.9943 61.3295C39.9943 62.4624 40.4153 63.4406 41.3195 64.1104L42.51 62.5033C42.1869 62.264 41.9943 61.9239 41.9943 61.3295H39.9943ZM41.3266 64.1156C42.1593 64.7211 43.1687 64.9886 44.2841 64.9886V62.9886C43.4904 62.9886 42.9203 62.8016 42.5029 62.4981L41.3266 64.1156ZM70.7898 34.0909H71.7898V33.0909H70.7898V34.0909ZM70.7898 69V70H71.7898V69H70.7898ZM62.4545 69H61.4545V70H62.4545V69ZM62.4545 34.0909V33.0909H61.4545V34.0909H62.4545ZM69.7898 34.0909V69H71.7898V34.0909H69.7898ZM70.7898 68H62.4545V70H70.7898V68ZM63.4545 69V34.0909H61.4545V69H63.4545ZM62.4545 35.0909H70.7898V33.0909H62.4545V35.0909ZM81.2259 67.8068L80.7254 68.6726L80.7313 68.676L81.2259 67.8068ZM76.6747 63.0682L75.7873 63.5292L75.7904 63.5352L76.6747 63.0682ZM76.6747 48.9205L75.7894 48.4555L75.7884 48.4574L76.6747 48.9205ZM81.2259 44.1818L81.7225 45.0498L81.7241 45.0488L81.2259 44.1818ZM95.3906 44.1818L94.8902 45.0476L94.8961 45.051L95.3906 44.1818ZM99.9418 48.9205L99.0544 49.3815L99.0575 49.3874L99.9418 48.9205ZM99.9418 63.0682L99.0564 62.6032L99.0554 62.6051L99.9418 63.0682ZM95.3906 67.8068L95.8873 68.6748L95.8889 68.6738L95.3906 67.8068ZM90.9077 62.2841L90.2448 61.5353L90.2448 61.5353L90.9077 62.2841ZM92.4929 59.7273L91.5472 59.4022L91.5442 59.411L92.4929 59.7273ZM92.4929 52.125L91.5442 52.4412L91.5472 52.4501L92.4929 52.125ZM90.9077 49.5682L91.5705 48.8194L91.5705 48.8194L90.9077 49.5682ZM85.7429 49.5682L85.0921 48.8089L85.0861 48.8141L85.7429 49.5682ZM84.1236 52.125L83.1779 51.7999L83.1749 51.8088L84.1236 52.125ZM84.1236 59.7273L83.1749 60.0435L83.1779 60.0524L84.1236 59.7273ZM85.7429 62.2841L85.0861 63.0382L85.0921 63.0433L85.7429 62.2841ZM88.3168 68.4943C85.704 68.4943 83.5184 67.9607 81.7204 66.9377L80.7313 68.676C82.8879 69.903 85.4295 70.4943 88.3168 70.4943V68.4943ZM81.7263 66.941C79.9246 65.8996 78.54 64.4588 77.559 62.6012L75.7904 63.5352C76.9458 65.723 78.5953 67.4413 80.7254 68.6726L81.7263 66.941ZM77.5621 62.6071C76.5909 60.7379 76.0895 58.5429 76.0895 55.9943H74.0895C74.0895 58.8093 74.6449 61.3303 75.7873 63.5292L77.5621 62.6071ZM76.0895 55.9943C76.0895 53.4334 76.5913 51.2397 77.561 49.3835L75.7884 48.4574C74.6445 50.6467 74.0895 53.1689 74.0895 55.9943H76.0895ZM77.5601 49.3854C78.541 47.5173 79.9244 46.0787 81.7225 45.0498L80.7292 43.3139C78.5955 44.5349 76.9447 46.2554 75.7894 48.4555L77.5601 49.3854ZM81.7241 45.0488C83.5214 44.0159 85.7057 43.4773 88.3168 43.4773V41.4773C85.4279 41.4773 82.8849 42.075 80.7276 43.3148L81.7241 45.0488ZM88.3168 43.4773C90.9281 43.4773 93.1055 44.016 94.8902 45.0476L95.8911 43.316C93.7439 42.0749 91.2054 41.4773 88.3168 41.4773V43.4773ZM94.8961 45.051C96.7045 46.0799 98.0857 47.5171 99.0544 49.3815L100.829 48.4594C99.6842 46.2556 98.0313 44.5338 95.8851 43.3127L94.8961 45.051ZM99.0575 49.3874C100.037 51.2427 100.544 53.435 100.544 55.9943H102.544C102.544 53.1672 101.983 50.6436 100.826 48.4535L99.0575 49.3874ZM100.544 55.9943C100.544 58.5413 100.038 60.7348 99.0564 62.6033L100.827 63.5331C101.982 61.3334 102.544 58.811 102.544 55.9943H100.544ZM99.0554 62.6051C98.0868 64.4591 96.7043 65.8984 94.8923 66.9398L95.8889 68.6738C98.0315 67.4425 99.6831 65.7227 100.828 63.5313L99.0554 62.6051ZM94.8939 66.9389C93.1086 67.9606 90.9297 68.4943 88.3168 68.4943V70.4943C91.2038 70.4943 93.7409 69.9031 95.8873 68.6748L94.8939 66.9389ZM88.3679 64.2045C89.5909 64.2045 90.6792 63.8219 91.5705 63.0329L90.2448 61.5353C89.7498 61.9736 89.1449 62.2045 88.3679 62.2045V64.2045ZM91.5705 63.0329C92.4237 62.2776 93.0357 61.2612 93.4416 60.0435L91.5442 59.411C91.2228 60.3751 90.778 61.0633 90.2448 61.5353L91.5705 63.0329ZM93.4386 60.0524C93.857 58.8351 94.0554 57.46 94.0554 55.9432H92.0554C92.0554 57.29 91.8788 58.4376 91.5472 59.4022L93.4386 60.0524ZM94.0554 55.9432C94.0554 54.4056 93.8575 53.0187 93.4386 51.7999L91.5472 52.4501C91.8783 53.4132 92.0554 54.5717 92.0554 55.9432H94.0554ZM93.4416 51.8088C93.0357 50.5911 92.4237 49.5747 91.5705 48.8194L90.2448 50.3169C90.778 50.789 91.2228 51.4771 91.5442 52.4412L93.4416 51.8088ZM91.5705 48.8194C90.6792 48.0304 89.5909 47.6477 88.3679 47.6477V49.6477C89.1449 49.6477 89.7498 49.8787 90.2448 50.3169L91.5705 48.8194ZM88.3679 47.6477C87.1199 47.6477 86.0072 48.0245 85.0921 48.8089L86.3937 50.3274C86.9104 49.8846 87.5477 49.6477 88.3679 49.6477V47.6477ZM85.0861 48.8141C84.2216 49.5671 83.5966 50.5818 83.1779 51.7999L85.0693 52.4501C85.4005 51.4864 85.8551 50.7966 86.3997 50.3223L85.0861 48.8141ZM83.1749 51.8088C82.7696 53.0245 82.5781 54.4083 82.5781 55.9432H84.5781C84.5781 54.569 84.7502 53.4073 85.0723 52.4412L83.1749 51.8088ZM82.5781 55.9432C82.5781 57.4572 82.7701 58.8292 83.1749 60.0435L85.0723 59.411C84.7498 58.4436 84.5781 57.2928 84.5781 55.9432H82.5781ZM83.1779 60.0524C83.5966 61.2705 84.2216 62.2852 85.0861 63.0382L86.3997 61.53C85.8551 61.0557 85.4005 60.3658 85.0693 59.4022L83.1779 60.0524ZM85.0921 63.0433C86.0072 63.8278 87.1199 64.2045 88.3679 64.2045V62.2045C87.5477 62.2045 86.9104 61.9677 86.3937 61.5248L85.0921 63.0433ZM114.149 54.0682L113.149 54.0568V54.0682H114.149ZM114.149 69V70H115.149V69H114.149ZM105.814 69H104.814V70H105.814V69ZM105.814 42.8182V41.8182H104.814V42.8182H105.814ZM113.74 42.8182H114.74V41.8182H113.74V42.8182ZM113.74 47.625H112.74V48.625H113.74V47.625ZM114.03 47.625V48.625H114.732L114.97 47.9651L114.03 47.625ZM116.996 43.858L117.541 44.6963L117.546 44.6931L116.996 43.858ZM126.78 43.7216L126.257 44.574L126.265 44.5791L126.78 43.7216ZM129.95 47.1648L129.059 47.6175L129.063 47.6257L129.95 47.1648ZM131.075 52.3125L130.075 52.3067V52.3125H131.075ZM131.075 69V70H132.075V69H131.075ZM122.74 69H121.74V70H122.74V69ZM122.74 53.9489L121.74 53.9411V53.9489H122.74ZM121.632 50.5398L120.89 51.2099L120.895 51.2155L121.632 50.5398ZM116.229 49.892L116.723 50.7612L116.728 50.7585L116.229 49.892ZM114.695 51.5114L113.806 51.0527L113.8 51.0641L114.695 51.5114ZM113.149 54.0682V69H115.149V54.0682H113.149ZM114.149 68H105.814V70H114.149V68ZM106.814 69V42.8182H104.814V69H106.814ZM105.814 43.8182H113.74V41.8182H105.814V43.8182ZM112.74 42.8182V47.625H114.74V42.8182H112.74ZM113.74 48.625H114.03V46.625H113.74V48.625ZM114.97 47.9651C115.477 46.5627 116.33 45.4839 117.541 44.6962L116.451 43.0197C114.866 44.0502 113.741 45.4828 113.089 47.2849L114.97 47.9651ZM117.546 44.6931C118.756 43.896 120.223 43.4773 121.99 43.4773V41.4773C119.894 41.4773 118.031 41.979 116.446 43.0228L117.546 44.6931ZM121.99 43.4773C123.676 43.4773 125.086 43.8556 126.257 44.574L127.303 42.8692C125.769 41.9285 123.985 41.4773 121.99 41.4773V43.4773ZM126.265 44.5791C127.461 45.2963 128.39 46.3005 129.059 47.6175L130.842 46.7121C130.011 45.0745 128.826 43.7832 127.294 42.8641L126.265 44.5791ZM129.063 47.6257C129.736 48.9225 130.086 50.4724 130.075 52.3067L132.075 52.3183C132.087 50.2207 131.687 48.3389 130.838 46.7039L129.063 47.6257ZM130.075 52.3125V69H132.075V52.3125H130.075ZM131.075 68H122.74V70H131.075V68ZM123.74 69V53.9489H121.74V69H123.74ZM123.74 53.9567C123.753 52.33 123.338 50.9207 122.369 49.864L120.895 51.2155C121.426 51.7952 121.75 52.6586 121.74 53.9411L123.74 53.9567ZM122.374 49.8697C121.409 48.8005 120.088 48.3125 118.547 48.3125V50.3125C119.642 50.3125 120.378 50.6427 120.89 51.2099L122.374 49.8697ZM118.547 48.3125C117.52 48.3125 116.571 48.5408 115.729 49.0256L116.728 50.7585C117.228 50.4706 117.824 50.3125 118.547 50.3125V48.3125ZM115.734 49.0229C114.899 49.4982 114.254 50.1843 113.806 51.0527L115.583 51.97C115.862 51.4293 116.24 51.0359 116.723 50.7612L115.734 49.0229ZM113.8 51.0641C113.364 51.9356 113.162 52.945 113.149 54.0568L115.149 54.0795C115.159 53.1913 115.32 52.4963 115.589 51.9586L113.8 51.0641ZM146.548 69H145.548V70H146.548V69ZM146.548 34.0909V33.0909H145.548V34.0909H146.548ZM170.889 34.0909H171.889V33.0909H170.889V34.0909ZM170.889 40.9432V41.9432H171.889V40.9432H170.889ZM154.986 40.9432V39.9432H153.986V40.9432H154.986ZM154.986 48.1023H153.986V49.1023H154.986V48.1023ZM169.645 48.1023H170.645V47.1023H169.645V48.1023ZM169.645 54.9716V55.9716H170.645V54.9716H169.645ZM154.986 54.9716V53.9716H153.986V54.9716H154.986ZM154.986 62.1477H153.986V63.1477H154.986V62.1477ZM170.889 62.1477H171.889V61.1477H170.889V62.1477ZM170.889 69V70H171.889V69H170.889ZM147.548 69V34.0909H145.548V69H147.548ZM146.548 35.0909H170.889V33.0909H146.548V35.0909ZM169.889 34.0909V40.9432H171.889V34.0909H169.889ZM170.889 39.9432H154.986V41.9432H170.889V39.9432ZM153.986 40.9432V48.1023H155.986V40.9432H153.986ZM154.986 49.1023H169.645V47.1023H154.986V49.1023ZM168.645 48.1023V54.9716H170.645V48.1023H168.645ZM169.645 53.9716H154.986V55.9716H169.645V53.9716ZM153.986 54.9716V62.1477H155.986V54.9716H153.986ZM154.986 63.1477H170.889V61.1477H154.986V63.1477ZM169.889 62.1477V69H171.889V62.1477H169.889ZM170.889 68H146.548V70H170.889V68ZM183.264 42.8182L184.159 42.371L183.882 41.8182H183.264V42.8182ZM187.577 51.4432L186.682 51.8904L187.561 53.6481L188.465 51.903L187.577 51.4432ZM192.043 42.8182V41.8182H191.434L191.155 42.3584L192.043 42.8182ZM200.446 42.8182L201.319 43.3058L202.15 41.8182H200.446V42.8182ZM193.134 55.9091L192.26 55.4214L191.983 55.9181L192.268 56.4104L193.134 55.9091ZM200.719 69V70H202.454L201.584 68.4987L200.719 69ZM192.384 69L191.508 69.4839L191.794 70H192.384V69ZM187.577 60.3068L188.452 59.8229L187.566 58.2203L186.697 59.8322L187.577 60.3068ZM182.889 69V70H183.486L183.769 69.4746L182.889 69ZM174.435 69L173.57 68.4978L172.698 70H174.435V69ZM182.037 55.9091L182.902 56.4113L183.186 55.9216L182.912 55.4258L182.037 55.9091ZM174.81 42.8182V41.8182H173.115L173.934 43.3015L174.81 42.8182ZM182.37 43.2654L186.682 51.8904L188.471 50.996L184.159 42.371L182.37 43.2654ZM188.465 51.903L192.931 43.278L191.155 42.3584L186.689 50.9834L188.465 51.903ZM192.043 43.8182H200.446V41.8182H192.043V43.8182ZM199.573 42.3305L192.26 55.4214L194.007 56.3968L201.319 43.3058L199.573 42.3305ZM192.268 56.4104L199.854 69.5013L201.584 68.4987L193.999 55.4077L192.268 56.4104ZM200.719 68H192.384V70H200.719V68ZM193.259 68.5161L188.452 59.8229L186.702 60.7907L191.508 69.4839L193.259 68.5161ZM186.697 59.8322L182.009 68.5254L183.769 69.4746L188.457 60.7814L186.697 59.8322ZM182.889 68H174.435V70H182.889V68ZM175.299 69.5022L182.902 56.4113L181.172 55.4069L173.57 68.4978L175.299 69.5022ZM182.912 55.4258L175.685 42.3349L173.934 43.3015L181.161 56.3924L182.912 55.4258ZM174.81 43.8182H183.264V41.8182H174.81V43.8182ZM219.03 42.8182H220.03V41.8182H219.03V42.8182ZM219.03 48.9545V49.9545H220.03V48.9545H219.03ZM202.513 48.9545H201.513V49.9545H202.513V48.9545ZM202.513 42.8182V41.8182H201.513V42.8182H202.513ZM205.973 36.5455V35.5455H204.973V36.5455H205.973ZM214.308 36.5455H215.308V35.5455H214.308V36.5455ZM214.547 62.0114L213.652 62.4586L213.662 62.478L213.673 62.497L214.547 62.0114ZM215.28 62.6761L214.886 63.5953L214.9 63.6013L214.914 63.6069L215.28 62.6761ZM217.428 62.7784L217.587 63.7656L217.599 63.7636L217.612 63.7613L217.428 62.7784ZM218.246 62.608L219.224 62.4028L219.011 61.3858L218.003 61.6378L218.246 62.608ZM219.507 68.625L219.782 69.5865L220.677 69.3308L220.486 68.4198L219.507 68.625ZM217.82 69.0511L217.591 68.0775L217.588 68.0783L217.82 69.0511ZM215.246 69.375L215.2 68.376L215.199 68.3761L215.246 69.375ZM210.217 68.6932L209.845 69.6212L209.854 69.6248L210.217 68.6932ZM207.03 66.1023L206.18 66.6301L206.184 66.636L207.03 66.1023ZM205.973 61.6875L206.973 61.7003V61.6875H205.973ZM218.03 42.8182V48.9545H220.03V42.8182H218.03ZM219.03 47.9545H202.513V49.9545H219.03V47.9545ZM203.513 48.9545V42.8182H201.513V48.9545H203.513ZM202.513 43.8182H219.03V41.8182H202.513V43.8182ZM205.973 37.5455H214.308V35.5455H205.973V37.5455ZM213.308 36.5455V60.767H215.308V36.5455H213.308ZM213.308 60.767C213.308 61.3705 213.4 61.9543 213.652 62.4586L215.441 61.5641C215.375 61.432 215.308 61.1864 215.308 60.767H213.308ZM213.673 62.497C213.949 62.9946 214.361 63.3703 214.886 63.5953L215.674 61.757C215.562 61.7092 215.485 61.6417 215.421 61.5257L213.673 62.497ZM214.914 63.6069C215.378 63.789 215.889 63.8636 216.422 63.8636V61.8636C216.069 61.8636 215.818 61.8133 215.645 61.7454L214.914 63.6069ZM216.422 63.8636C216.799 63.8636 217.188 63.83 217.587 63.7656L217.268 61.7912C216.962 61.8405 216.681 61.8636 216.422 61.8636V63.8636ZM217.612 63.7613C217.98 63.6922 218.277 63.631 218.488 63.5781L218.003 61.6378C217.851 61.6758 217.602 61.7282 217.243 61.7955L217.612 63.7613ZM217.267 62.8131L218.528 68.8302L220.486 68.4198L219.224 62.4028L217.267 62.8131ZM219.232 67.6635C218.858 67.7705 218.313 67.9083 217.591 68.0775L218.048 70.0248C218.78 69.853 219.361 69.7067 219.782 69.5865L219.232 67.6635ZM217.588 68.0783C216.951 68.2301 216.158 68.3325 215.2 68.376L215.291 70.374C216.333 70.3266 217.257 70.2131 218.051 70.0239L217.588 68.0783ZM215.199 68.3761C213.344 68.4624 211.815 68.2432 210.581 67.7616L209.854 69.6248C211.415 70.2341 213.238 70.4694 215.292 70.3739L215.199 68.3761ZM210.59 67.7652C209.382 67.2802 208.493 66.5468 207.876 65.5686L206.184 66.636C207.044 67.9987 208.279 68.9925 209.845 69.6211L210.59 67.7652ZM207.879 65.5745C207.278 64.6067 206.952 63.3362 206.973 61.7003L204.973 61.6747C204.949 63.5842 205.327 65.257 206.18 66.63L207.879 65.5745ZM206.973 61.6875V36.5455H204.973V61.6875H206.973Z" fill="black" mask="url(#path-1-outside-1_120_24)"/>
<path d="M21.5114 44.5568L20.5155 44.6474L20.5982 45.5568H21.5114V44.5568ZM19.9943 41.642L19.372 42.4249L19.3832 42.4336L19.9943 41.642ZM13.4659 41.0114L13.1021 40.0799L13.1021 40.0799L13.4659 41.0114ZM11.8295 42.1875L12.6318 42.7845L12.6383 42.7757L11.8295 42.1875ZM11.267 43.875L12.2661 43.9184L12.2667 43.9057L12.2669 43.8929L11.267 43.875ZM11.5739 45.2557L10.7056 45.7518L10.7109 45.7611L10.7164 45.7702L11.5739 45.2557ZM12.5966 46.3125L12.0274 47.1347L12.0394 47.143L12.0516 47.1509L12.5966 46.3125ZM14.233 47.0966L14.5693 46.1548L14.5693 46.1548L14.233 47.0966ZM16.3807 47.6932L16.6023 46.718L16.5902 46.7154L16.3807 47.6932ZM19.3807 48.375L19.1591 49.3502L19.1685 49.3522L19.3807 48.375ZM23.9489 49.875L23.5204 50.7786L23.5234 50.78L23.9489 49.875ZM27.2898 52.108L26.5965 52.8286L26.601 52.833L27.2898 52.108ZM29.3523 55.0909L28.4284 55.4735L28.4284 55.4735L29.3523 55.0909ZM30.0682 58.875L31.0683 58.8802L31.0682 58.8669L30.0682 58.875ZM28.3977 64.5511L27.5777 63.9789L27.5777 63.9789L28.3977 64.5511ZM23.642 68.1818L23.2654 67.2555L23.2636 67.2562L23.642 68.1818ZM8.55682 68.1307L8.93072 67.2032L8.93072 67.2032L8.55682 68.1307ZM1.63636 57.375V56.375H0.623786L0.636442 57.3875L1.63636 57.375ZM9.71591 57.375L10.7141 57.3145L10.6571 56.375H9.71591V57.375ZM10.6193 60.1875L9.80475 60.7676L9.80475 60.7676L10.6193 60.1875ZM12.8182 61.892L12.4352 62.8158L12.4391 62.8174L12.8182 61.892ZM18.9886 62.0114L18.6332 61.0767L18.6288 61.0784L18.9886 62.0114ZM20.8466 60.733L20.0625 60.1123L20.0625 60.1123L20.8466 60.733ZM21.5114 58.858L22.5112 58.8741L22.5115 58.8574L22.5112 58.8407L21.5114 58.858ZM20.8977 57.1705L20.1295 57.8107L20.1372 57.8197L20.8977 57.1705ZM19.0568 55.9432L18.6614 56.8617L18.669 56.865L18.6767 56.8681L19.0568 55.9432ZM15.9205 54.9716L15.6929 55.9454L15.6943 55.9457L15.9205 54.9716ZM12.2727 54.1193L12.5002 53.1455L12.4962 53.1446L12.2727 54.1193ZM5.13068 50.7614L4.4636 51.5064L4.46632 51.5088L5.13068 50.7614ZM2.53977 44.4545L3.53981 44.4588L3.53976 44.4493L2.53977 44.4545ZM4.27841 38.7784L3.46698 38.194L3.46698 38.194L4.27841 38.7784ZM9.13636 34.9773L9.53877 35.8927L9.53877 35.8927L9.13636 34.9773ZM23.25 34.9943L22.8299 35.9018L22.8362 35.9047L23.25 34.9943ZM27.9034 38.8295L28.7346 38.2735L28.7346 38.2735L27.9034 38.8295ZM29.5909 44.5568V45.5568H30.6014L30.5909 44.5463L29.5909 44.5568ZM22.5073 44.4663C22.3714 42.9721 21.7481 41.7328 20.6055 40.8505L19.3832 42.4336C20.036 42.9376 20.424 43.6416 20.5155 44.6474L22.5073 44.4663ZM20.6166 40.8592C19.4885 39.9626 17.9673 39.5852 16.1932 39.5852V41.5852C17.7146 41.5852 18.7274 41.9124 19.3721 42.4249L20.6166 40.8592ZM16.1932 39.5852C15.0236 39.5852 13.9815 39.7364 13.1021 40.0799L13.8298 41.9428C14.4049 41.7182 15.1809 41.5852 16.1932 41.5852V39.5852ZM13.1021 40.0799C12.2433 40.4154 11.523 40.9088 11.0208 41.5993L12.6383 42.7757C12.8633 42.4662 13.234 42.1755 13.8298 41.9428L13.1021 40.0799ZM11.0273 41.5905C10.5331 42.2546 10.2821 43.0218 10.2672 43.8571L12.2669 43.8929C12.2747 43.4555 12.3988 43.0976 12.6318 42.7845L11.0273 41.5905ZM10.268 43.8316C10.2383 44.5154 10.3719 45.1678 10.7056 45.7518L12.4421 44.7595C12.3213 44.5481 12.2504 44.28 12.2661 43.9184L10.268 43.8316ZM10.7164 45.7702C11.0391 46.308 11.4861 46.76 12.0274 47.1347L13.1658 45.4903C12.8207 45.2514 12.5859 44.9988 12.4314 44.7412L10.7164 45.7702ZM12.0516 47.1509C12.5851 47.4977 13.2041 47.791 13.8966 48.0383L14.5693 46.1548C13.9891 45.9476 13.5172 45.7182 13.1416 45.4741L12.0516 47.1509ZM13.8966 48.0383C14.5817 48.283 15.341 48.4931 16.1712 48.671L16.5902 46.7154C15.8294 46.5524 15.1569 46.3647 14.5693 46.1548L13.8966 48.0383ZM16.1591 48.6683L19.1591 49.3501L19.6023 47.3999L16.6023 46.718L16.1591 48.6683ZM19.1685 49.3522C20.8362 49.7143 22.284 50.1923 23.5204 50.7786L24.3773 48.9714C22.9774 48.3077 21.3797 47.7857 19.5928 47.3978L19.1685 49.3522ZM23.5234 50.78C24.7715 51.3667 25.7901 52.0528 26.5965 52.8286L27.9831 51.3873C26.994 50.4358 25.7853 49.6333 24.3743 48.97L23.5234 50.78ZM26.601 52.833C27.4117 53.6031 28.0176 54.4818 28.4284 55.4735L30.2762 54.7083C29.7551 53.4501 28.986 52.3401 27.9785 51.383L26.601 52.833ZM28.4284 55.4735C28.8384 56.4635 29.0577 57.5951 29.0682 58.8831L31.0682 58.8669C31.0559 57.3594 30.798 55.9683 30.2762 54.7083L28.4284 55.4735ZM29.0682 58.8698C29.0577 60.9018 28.5476 62.589 27.5777 63.9789L29.2178 65.1234C30.4524 63.3542 31.0559 61.2573 31.0682 58.8802L29.0682 58.8698ZM27.5777 63.9789C26.6026 65.3761 25.1838 66.4755 23.2654 67.2555L24.0187 69.1082C26.2367 68.2064 27.9883 66.8853 29.2178 65.1234L27.5777 63.9789ZM23.2636 67.2562C21.3578 68.0354 19.0106 68.4432 16.1932 68.4432V70.4432C19.1939 70.4432 21.8127 70.0101 24.0205 69.1074L23.2636 67.2562ZM16.1932 68.4432C13.3702 68.4432 10.9569 68.02 8.93072 67.2032L8.18292 69.0582C10.4977 69.9913 13.1753 70.4432 16.1932 70.4432V68.4432ZM8.93072 67.2032C6.92832 66.396 5.40633 65.1869 4.32311 63.5825L2.66553 64.7016C3.99139 66.6654 5.8444 68.1154 8.18292 69.0582L8.93072 67.2032ZM4.32311 63.5825C3.25358 61.9984 2.66859 59.9465 2.63629 57.3625L0.636442 57.3875C0.672323 60.258 1.32597 62.7175 2.66553 64.7016L4.32311 63.5825ZM1.63636 58.375H9.71591V56.375H1.63636V58.375ZM8.71774 57.4355C8.79471 58.7055 9.13995 59.834 9.80475 60.7676L11.4339 59.6074C11.0305 59.041 10.7735 58.2945 10.7141 57.3145L8.71774 57.4355ZM9.80475 60.7676C10.4579 61.6848 11.3473 62.3647 12.4352 62.8158L13.2012 60.9683C12.4255 60.6467 11.8489 60.1902 11.4339 59.6074L9.80475 60.7676ZM12.4391 62.8174C13.5255 63.2624 14.7495 63.4716 16.0909 63.4716V61.4716C14.955 61.4716 13.9972 61.2944 13.1972 60.9667L12.4391 62.8174ZM16.0909 63.4716C17.3117 63.4716 18.407 63.3075 19.3485 62.9444L18.6288 61.0784C17.9793 61.3289 17.1428 61.4716 16.0909 61.4716V63.4716ZM19.3441 62.9461C20.2792 62.5905 21.0628 62.0709 21.6306 61.3537L20.0625 60.1123C19.7667 60.4859 19.3118 60.8186 18.6332 61.0767L19.3441 62.9461ZM21.6306 61.3537C22.2008 60.6335 22.4964 59.7953 22.5112 58.8741L20.5115 58.8418C20.5036 59.3297 20.3561 59.7415 20.0625 60.1123L21.6306 61.3537ZM22.5112 58.8407C22.4962 57.9685 22.2186 57.1775 21.6583 56.5212L20.1372 57.8197C20.3723 58.0952 20.5038 58.4292 20.5115 58.8752L22.5112 58.8407ZM21.6659 56.5303C21.128 55.8847 20.3548 55.3954 19.4369 55.0182L18.6767 56.8681C19.4179 57.1727 19.872 57.5016 20.1295 57.8106L21.6659 56.5303ZM19.4523 55.0247C18.5606 54.6408 17.4531 54.3008 16.1466 53.9975L15.6943 55.9457C16.9332 56.2333 17.9167 56.541 18.6614 56.8617L19.4523 55.0247ZM16.148 53.9978L12.5002 53.1455L12.0452 55.0931L15.6929 55.9454L16.148 53.9978ZM12.4962 53.1446C9.58472 52.4769 7.37326 51.4168 5.79505 50.014L4.46632 51.5088C6.36538 53.1968 8.91528 54.3753 12.0492 55.094L12.4962 53.1446ZM5.79776 50.0164C4.30196 48.677 3.52944 46.8634 3.53976 44.4588L1.53978 44.4503C1.52737 47.3411 2.48213 49.7321 4.4636 51.5063L5.79776 50.0164ZM3.53976 44.4493C3.52942 42.4843 4.05288 40.8025 5.08984 39.3629L3.46698 38.194C2.16303 40.0043 1.5274 42.1066 1.53979 44.4598L3.53976 44.4493ZM5.08984 39.3629C6.14309 37.9006 7.61264 36.7394 9.53877 35.8927L8.73396 34.0618C6.52372 35.0333 4.75464 36.4062 3.46698 38.194L5.08984 39.3629ZM9.53877 35.8927C11.4602 35.0482 13.6775 34.6136 16.2102 34.6136V32.6136C13.4475 32.6136 10.9489 33.0882 8.73396 34.0618L9.53877 35.8927ZM16.2102 34.6136C18.8029 34.6136 21.0001 35.0548 22.83 35.9018L23.67 34.0868C21.5227 33.0929 19.0267 32.6136 16.2102 32.6136V34.6136ZM22.8362 35.9047C24.6857 36.7454 26.0844 37.9089 27.0722 39.3856L28.7346 38.2735C27.5179 36.4548 25.8143 35.0614 23.6638 34.0839L22.8362 35.9047ZM27.0722 39.3856C28.0562 40.8565 28.5701 42.572 28.591 44.5673L30.5909 44.5463C30.5663 42.2007 29.9551 40.0981 28.7346 38.2735L27.0722 39.3856ZM29.5909 43.5568H21.5114V45.5568H29.5909V43.5568ZM37.2614 68.608L36.8567 69.5225L36.8665 69.5267L37.2614 68.608ZM34.2102 66.0511L33.3693 66.5924L33.3756 66.602L34.2102 66.0511ZM33.8693 58.0568L32.979 57.6015L32.979 57.6015L33.8693 58.0568ZM35.983 55.6193L36.5543 56.44L36.5543 56.44L35.983 55.6193ZM39.0852 54.2045L39.3476 55.1696L39.3562 55.1671L39.0852 54.2045ZM42.8352 53.5398L42.9204 54.5362L42.9264 54.5356L42.8352 53.5398ZM46.4318 53.1136L46.5922 54.1008L46.6042 54.0987L46.4318 53.1136ZM48.4091 52.4489L48.9795 53.2702L48.984 53.2671L48.4091 52.4489ZM48.1364 49.0909L48.7574 48.3072L48.7574 48.3072L48.1364 49.0909ZM43.0398 49.0909L42.4598 48.2762L42.4598 48.2762L43.0398 49.0909ZM41.7614 51.0682L41.7259 52.0676L42.562 52.0972L42.7388 51.2795L41.7614 51.0682ZM34.0739 50.7955L33.0839 50.654L32.9266 51.7554L34.0384 51.7948L34.0739 50.7955ZM35.8295 46.5341L35.0321 45.9306L35.0313 45.9318L35.8295 46.5341ZM39.75 43.5682L40.1462 44.4864L40.1492 44.4851L39.75 43.5682ZM50.3864 43.0739L50.1147 44.0363L50.1219 44.0383L50.3864 43.0739ZM54.0682 44.7784L53.4853 45.591L53.4912 45.5951L54.0682 44.7784ZM56.4886 47.5057L55.6037 47.9714L55.6076 47.9787L56.4886 47.5057ZM57.358 69V70H58.358V69H57.358ZM49.517 69H48.517V70H49.517V69ZM49.517 65.3523H50.517V64.3523H49.517V65.3523ZM49.3125 65.3523V64.3523H48.7084L48.4273 64.887L49.3125 65.3523ZM47.5227 67.6023L46.8778 66.838L46.8719 66.843L47.5227 67.6023ZM44.983 68.983L44.6834 68.0289L44.6802 68.0299L44.983 68.983ZM46.7045 63.4432L46.2573 62.5487L46.2517 62.5516L46.7045 63.4432ZM48.4432 61.9432L49.2707 62.5047L49.2752 62.4979L48.4432 61.9432ZM49.0909 57.2045H50.0909V55.5519L48.6269 56.3187L49.0909 57.2045ZM48.2216 57.5455L47.9342 56.5876L47.9252 56.5904L48.2216 57.5455ZM45.9034 58.0739L46.0635 59.061L46.0635 59.061L45.9034 58.0739ZM44.6932 58.2614L44.5477 57.2719L44.5358 57.2738L44.6932 58.2614ZM42.6818 58.8409L42.2569 57.9356L42.2497 57.9391L42.6818 58.8409ZM41.4205 59.8636L40.6023 59.2887L40.5991 59.2932L41.4205 59.8636ZM41.9148 63.3068L41.3195 64.1104L41.3266 64.1156L41.9148 63.3068ZM41.7102 68.4432C40.1509 68.4432 38.8061 68.1835 37.6563 67.6892L36.8665 69.5267C38.3075 70.1461 39.9287 70.4432 41.7102 70.4432V68.4432ZM37.666 67.6935C36.5513 67.2003 35.6859 66.4716 35.0448 65.5003L33.3756 66.602C34.2346 67.9034 35.4032 68.8793 36.8567 69.5224L37.666 67.6935ZM35.0511 65.51C34.4407 64.5615 34.1023 63.3246 34.1023 61.7386H32.1023C32.1023 63.6072 32.5024 65.2453 33.3693 66.5923L35.0511 65.51ZM34.1023 61.7386C34.1023 60.3972 34.3385 59.3358 34.7597 58.5121L32.979 57.6015C32.3775 58.7778 32.1023 60.171 32.1023 61.7386H34.1023ZM34.7597 58.5121C35.1984 57.6542 35.795 56.9687 36.5543 56.44L35.4116 54.7986C34.3755 55.52 33.563 56.4595 32.979 57.6015L34.7597 58.5121ZM36.5543 56.44C37.3484 55.8872 38.2756 55.4609 39.3476 55.1695L38.8229 53.2396C37.5539 53.5845 36.413 54.1015 35.4116 54.7986L36.5543 56.44ZM39.3562 55.1671C40.4604 54.8562 41.6477 54.6449 42.9204 54.5361L42.7501 52.5434C41.3637 52.6619 40.051 52.8938 38.8142 53.242L39.3562 55.1671ZM42.9264 54.5356C44.4259 54.3982 45.6506 54.2537 46.5922 54.1007L46.2714 52.1266C45.3949 52.269 44.2218 52.4086 42.744 52.5439L42.9264 54.5356ZM46.6042 54.0987C47.5547 53.9323 48.3885 53.6807 48.9795 53.2702L47.8387 51.6275C47.6115 51.7852 47.1272 51.9768 46.2594 52.1286L46.6042 54.0987ZM48.984 53.2671C49.6832 52.7758 50.0398 52.0491 50.0398 51.2045H48.0398C48.0398 51.4282 47.9759 51.531 47.8341 51.6307L48.984 53.2671ZM50.0398 51.2045V51.1193H48.0398V51.2045H50.0398ZM50.0398 51.1193C50.0398 49.9868 49.6343 49.002 48.7574 48.3072L47.5153 49.8747C47.843 50.1344 48.0398 50.5018 48.0398 51.1193H50.0398ZM48.7574 48.3072C47.9277 47.6496 46.8724 47.375 45.6989 47.375V49.375C46.5707 49.375 47.1405 49.5776 47.5153 49.8747L48.7574 48.3072ZM45.6989 47.375C44.4582 47.375 43.3486 47.6435 42.4598 48.2762L43.6197 49.9056C44.0718 49.5837 44.7349 49.375 45.6989 49.375V47.375ZM42.4598 48.2762C41.5764 48.9051 41.0158 49.7845 40.784 50.8568L42.7388 51.2795C42.8705 50.6701 43.1622 50.2312 43.6197 49.9056L42.4598 48.2762ZM41.7968 50.0688L34.1093 49.7961L34.0384 51.7948L41.7259 52.0676L41.7968 50.0688ZM35.0638 50.9369C35.2678 49.5087 35.7892 48.2478 36.6278 47.1364L35.0313 45.9318C33.9835 47.3204 33.3344 48.9003 33.0839 50.654L35.0638 50.9369ZM36.627 47.1375C37.4631 46.0326 38.6229 45.1437 40.1462 44.4863L39.3538 42.65C37.5589 43.4245 36.1051 44.5129 35.0321 45.9306L36.627 47.1375ZM40.1492 44.4851C41.6633 43.8258 43.5259 43.4773 45.767 43.4773V41.4773C43.3263 41.4773 41.1776 41.856 39.3508 42.6513L40.1492 44.4851ZM45.767 43.4773C47.3583 43.4773 48.8054 43.6667 50.1147 44.0363L50.658 42.1115C49.1491 41.6856 47.5167 41.4773 45.767 41.4773V43.4773ZM50.1219 44.0383C51.432 44.3975 52.5483 44.9187 53.4853 45.5909L54.6511 43.9659C53.4972 43.1381 52.1589 42.523 50.6508 42.1095L50.1219 44.0383ZM53.4912 45.5951C54.4143 46.2473 55.1127 47.0385 55.6037 47.9714L57.3736 47.0399C56.7282 45.8138 55.813 44.7868 54.6452 43.9617L53.4912 45.5951ZM55.6076 47.9787C56.0993 48.8946 56.358 49.9613 56.358 51.2045H58.358C58.358 49.6751 58.0371 48.2759 57.3697 47.0327L55.6076 47.9787ZM56.358 51.2045V69H58.358V51.2045H56.358ZM57.358 68H49.517V70H57.358V68ZM50.517 69V65.3523H48.517V69H50.517ZM49.517 64.3523H49.3125V66.3523H49.517V64.3523ZM48.4273 64.887C48.0183 65.6652 47.5014 66.3119 46.8779 66.838L48.1676 68.3666C48.9986 67.6654 49.6749 66.8121 50.1977 65.8176L48.4273 64.887ZM46.8719 66.843C46.2673 67.3613 45.5429 67.759 44.6834 68.0289L45.2825 69.937C46.3776 69.5932 47.3463 69.0706 48.1735 68.3615L46.8719 66.843ZM44.6802 68.0299C43.8295 68.3001 42.8433 68.4432 41.7102 68.4432V70.4432C43.009 70.4432 44.2046 70.2794 45.2857 69.936L44.6802 68.0299ZM44.2841 64.9886C45.3204 64.9886 46.2853 64.7777 47.1574 64.3348L46.2517 62.5516C45.6919 62.8359 45.0432 62.9886 44.2841 62.9886V64.9886ZM47.1518 64.3376C48.0231 63.9019 48.7371 63.2909 49.2707 62.5047L47.6157 61.3817C47.2856 61.8682 46.8405 62.2572 46.2573 62.5488L47.1518 64.3376ZM49.2752 62.4979C49.8269 61.6704 50.0909 60.7234 50.0909 59.6932H48.0909C48.0909 60.3675 47.9231 60.9205 47.6111 61.3885L49.2752 62.4979ZM50.0909 59.6932V57.2045H48.0909V59.6932H50.0909ZM48.6269 56.3187C48.4594 56.4065 48.2323 56.4982 47.9342 56.5876L48.5089 58.5033C48.8927 58.3881 49.2452 58.2526 49.5549 58.0904L48.6269 56.3187ZM47.9252 56.5904C47.6238 56.6839 47.2851 56.7741 46.9079 56.8604L47.3535 58.8101C47.7717 58.7145 48.1603 58.6115 48.518 58.5005L47.9252 56.5904ZM46.9079 56.8604C46.5318 56.9463 46.1437 57.0218 45.7433 57.0868L46.0635 59.061C46.5041 58.9895 46.9341 58.9059 47.3535 58.8101L46.9079 56.8604ZM45.7433 57.0868C45.3273 57.1542 44.9288 57.216 44.5477 57.272L44.8387 59.2507C45.2303 59.1931 45.6386 59.1299 46.0635 59.061L45.7433 57.0868ZM44.5358 57.2738C43.6845 57.4095 42.9191 57.6249 42.2569 57.9357L43.1067 59.7461C43.5582 59.5342 44.1337 59.3632 44.8506 59.2489L44.5358 57.2738ZM42.2497 57.9391C41.5772 58.2614 41.0124 58.705 40.6023 59.2887L42.2386 60.4386C42.4194 60.1814 42.6956 59.9432 43.1139 59.7427L42.2497 57.9391ZM40.5991 59.2932C40.1828 59.8927 39.9943 60.5872 39.9943 61.3295H41.9943C41.9943 60.9355 42.0899 60.6528 42.2418 60.434L40.5991 59.2932ZM39.9943 61.3295C39.9943 62.4624 40.4153 63.4406 41.3195 64.1104L42.51 62.5033C42.1869 62.264 41.9943 61.9239 41.9943 61.3295H39.9943ZM41.3266 64.1156C42.1593 64.7211 43.1687 64.9886 44.2841 64.9886V62.9886C43.4904 62.9886 42.9203 62.8016 42.5029 62.4981L41.3266 64.1156ZM70.7898 34.0909H71.7898V33.0909H70.7898V34.0909ZM70.7898 69V70H71.7898V69H70.7898ZM62.4545 69H61.4545V70H62.4545V69ZM62.4545 34.0909V33.0909H61.4545V34.0909H62.4545ZM69.7898 34.0909V69H71.7898V34.0909H69.7898ZM70.7898 68H62.4545V70H70.7898V68ZM63.4545 69V34.0909H61.4545V69H63.4545ZM62.4545 35.0909H70.7898V33.0909H62.4545V35.0909ZM81.2259 67.8068L80.7254 68.6726L80.7313 68.676L81.2259 67.8068ZM76.6747 63.0682L75.7873 63.5292L75.7904 63.5352L76.6747 63.0682ZM76.6747 48.9205L75.7894 48.4555L75.7884 48.4574L76.6747 48.9205ZM81.2259 44.1818L81.7225 45.0498L81.7241 45.0488L81.2259 44.1818ZM95.3906 44.1818L94.8902 45.0476L94.8961 45.051L95.3906 44.1818ZM99.9418 48.9205L99.0544 49.3815L99.0575 49.3874L99.9418 48.9205ZM99.9418 63.0682L99.0564 62.6032L99.0554 62.6051L99.9418 63.0682ZM95.3906 67.8068L95.8873 68.6748L95.8889 68.6738L95.3906 67.8068ZM90.9077 62.2841L90.2448 61.5353L90.2448 61.5353L90.9077 62.2841ZM92.4929 59.7273L91.5472 59.4022L91.5442 59.411L92.4929 59.7273ZM92.4929 52.125L91.5442 52.4412L91.5472 52.4501L92.4929 52.125ZM90.9077 49.5682L91.5705 48.8194L91.5705 48.8194L90.9077 49.5682ZM85.7429 49.5682L85.0921 48.8089L85.0861 48.8141L85.7429 49.5682ZM84.1236 52.125L83.1779 51.7999L83.1749 51.8088L84.1236 52.125ZM84.1236 59.7273L83.1749 60.0435L83.1779 60.0524L84.1236 59.7273ZM85.7429 62.2841L85.0861 63.0382L85.0921 63.0433L85.7429 62.2841ZM88.3168 68.4943C85.704 68.4943 83.5184 67.9607 81.7204 66.9377L80.7313 68.676C82.8879 69.903 85.4295 70.4943 88.3168 70.4943V68.4943ZM81.7263 66.941C79.9246 65.8996 78.54 64.4588 77.559 62.6012L75.7904 63.5352C76.9458 65.723 78.5953 67.4413 80.7254 68.6726L81.7263 66.941ZM77.5621 62.6071C76.5909 60.7379 76.0895 58.5429 76.0895 55.9943H74.0895C74.0895 58.8093 74.6449 61.3303 75.7873 63.5292L77.5621 62.6071ZM76.0895 55.9943C76.0895 53.4334 76.5913 51.2397 77.561 49.3835L75.7884 48.4574C74.6445 50.6467 74.0895 53.1689 74.0895 55.9943H76.0895ZM77.5601 49.3854C78.541 47.5173 79.9244 46.0787 81.7225 45.0498L80.7292 43.3139C78.5955 44.5349 76.9447 46.2554 75.7894 48.4555L77.5601 49.3854ZM81.7241 45.0488C83.5214 44.0159 85.7057 43.4773 88.3168 43.4773V41.4773C85.4279 41.4773 82.8849 42.075 80.7276 43.3148L81.7241 45.0488ZM88.3168 43.4773C90.9281 43.4773 93.1055 44.016 94.8902 45.0476L95.8911 43.316C93.7439 42.0749 91.2054 41.4773 88.3168 41.4773V43.4773ZM94.8961 45.051C96.7045 46.0799 98.0857 47.5171 99.0544 49.3815L100.829 48.4594C99.6842 46.2556 98.0313 44.5338 95.8851 43.3127L94.8961 45.051ZM99.0575 49.3874C100.037 51.2427 100.544 53.435 100.544 55.9943H102.544C102.544 53.1672 101.983 50.6436 100.826 48.4535L99.0575 49.3874ZM100.544 55.9943C100.544 58.5413 100.038 60.7348 99.0564 62.6033L100.827 63.5331C101.982 61.3334 102.544 58.811 102.544 55.9943H100.544ZM99.0554 62.6051C98.0868 64.4591 96.7043 65.8984 94.8923 66.9398L95.8889 68.6738C98.0315 67.4425 99.6831 65.7227 100.828 63.5313L99.0554 62.6051ZM94.8939 66.9389C93.1086 67.9606 90.9297 68.4943 88.3168 68.4943V70.4943C91.2038 70.4943 93.7409 69.9031 95.8873 68.6748L94.8939 66.9389ZM88.3679 64.2045C89.5909 64.2045 90.6792 63.8219 91.5705 63.0329L90.2448 61.5353C89.7498 61.9736 89.1449 62.2045 88.3679 62.2045V64.2045ZM91.5705 63.0329C92.4237 62.2776 93.0357 61.2612 93.4416 60.0435L91.5442 59.411C91.2228 60.3751 90.778 61.0633 90.2448 61.5353L91.5705 63.0329ZM93.4386 60.0524C93.857 58.8351 94.0554 57.46 94.0554 55.9432H92.0554C92.0554 57.29 91.8788 58.4376 91.5472 59.4022L93.4386 60.0524ZM94.0554 55.9432C94.0554 54.4056 93.8575 53.0187 93.4386 51.7999L91.5472 52.4501C91.8783 53.4132 92.0554 54.5717 92.0554 55.9432H94.0554ZM93.4416 51.8088C93.0357 50.5911 92.4237 49.5747 91.5705 48.8194L90.2448 50.3169C90.778 50.789 91.2228 51.4771 91.5442 52.4412L93.4416 51.8088ZM91.5705 48.8194C90.6792 48.0304 89.5909 47.6477 88.3679 47.6477V49.6477C89.1449 49.6477 89.7498 49.8787 90.2448 50.3169L91.5705 48.8194ZM88.3679 47.6477C87.1199 47.6477 86.0072 48.0245 85.0921 48.8089L86.3937 50.3274C86.9104 49.8846 87.5477 49.6477 88.3679 49.6477V47.6477ZM85.0861 48.8141C84.2216 49.5671 83.5966 50.5818 83.1779 51.7999L85.0693 52.4501C85.4005 51.4864 85.8551 50.7966 86.3997 50.3223L85.0861 48.8141ZM83.1749 51.8088C82.7696 53.0245 82.5781 54.4083 82.5781 55.9432H84.5781C84.5781 54.569 84.7502 53.4073 85.0723 52.4412L83.1749 51.8088ZM82.5781 55.9432C82.5781 57.4572 82.7701 58.8292 83.1749 60.0435L85.0723 59.411C84.7498 58.4436 84.5781 57.2928 84.5781 55.9432H82.5781ZM83.1779 60.0524C83.5966 61.2705 84.2216 62.2852 85.0861 63.0382L86.3997 61.53C85.8551 61.0557 85.4005 60.3658 85.0693 59.4022L83.1779 60.0524ZM85.0921 63.0433C86.0072 63.8278 87.1199 64.2045 88.3679 64.2045V62.2045C87.5477 62.2045 86.9104 61.9677 86.3937 61.5248L85.0921 63.0433ZM114.149 54.0682L113.149 54.0568V54.0682H114.149ZM114.149 69V70H115.149V69H114.149ZM105.814 69H104.814V70H105.814V69ZM105.814 42.8182V41.8182H104.814V42.8182H105.814ZM113.74 42.8182H114.74V41.8182H113.74V42.8182ZM113.74 47.625H112.74V48.625H113.74V47.625ZM114.03 47.625V48.625H114.732L114.97 47.9651L114.03 47.625ZM116.996 43.858L117.541 44.6963L117.546 44.6931L116.996 43.858ZM126.78 43.7216L126.257 44.574L126.265 44.5791L126.78 43.7216ZM129.95 47.1648L129.059 47.6175L129.063 47.6257L129.95 47.1648ZM131.075 52.3125L130.075 52.3067V52.3125H131.075ZM131.075 69V70H132.075V69H131.075ZM122.74 69H121.74V70H122.74V69ZM122.74 53.9489L121.74 53.9411V53.9489H122.74ZM121.632 50.5398L120.89 51.2099L120.895 51.2155L121.632 50.5398ZM116.229 49.892L116.723 50.7612L116.728 50.7585L116.229 49.892ZM114.695 51.5114L113.806 51.0527L113.8 51.0641L114.695 51.5114ZM113.149 54.0682V69H115.149V54.0682H113.149ZM114.149 68H105.814V70H114.149V68ZM106.814 69V42.8182H104.814V69H106.814ZM105.814 43.8182H113.74V41.8182H105.814V43.8182ZM112.74 42.8182V47.625H114.74V42.8182H112.74ZM113.74 48.625H114.03V46.625H113.74V48.625ZM114.97 47.9651C115.477 46.5627 116.33 45.4839 117.541 44.6962L116.451 43.0197C114.866 44.0502 113.741 45.4828 113.089 47.2849L114.97 47.9651ZM117.546 44.6931C118.756 43.896 120.223 43.4773 121.99 43.4773V41.4773C119.894 41.4773 118.031 41.979 116.446 43.0228L117.546 44.6931ZM121.99 43.4773C123.676 43.4773 125.086 43.8556 126.257 44.574L127.303 42.8692C125.769 41.9285 123.985 41.4773 121.99 41.4773V43.4773ZM126.265 44.5791C127.461 45.2963 128.39 46.3005 129.059 47.6175L130.842 46.7121C130.011 45.0745 128.826 43.7832 127.294 42.8641L126.265 44.5791ZM129.063 47.6257C129.736 48.9225 130.086 50.4724 130.075 52.3067L132.075 52.3183C132.087 50.2207 131.687 48.3389 130.838 46.7039L129.063 47.6257ZM130.075 52.3125V69H132.075V52.3125H130.075ZM131.075 68H122.74V70H131.075V68ZM123.74 69V53.9489H121.74V69H123.74ZM123.74 53.9567C123.753 52.33 123.338 50.9207 122.369 49.864L120.895 51.2155C121.426 51.7952 121.75 52.6586 121.74 53.9411L123.74 53.9567ZM122.374 49.8697C121.409 48.8005 120.088 48.3125 118.547 48.3125V50.3125C119.642 50.3125 120.378 50.6427 120.89 51.2099L122.374 49.8697ZM118.547 48.3125C117.52 48.3125 116.571 48.5408 115.729 49.0256L116.728 50.7585C117.228 50.4706 117.824 50.3125 118.547 50.3125V48.3125ZM115.734 49.0229C114.899 49.4982 114.254 50.1843 113.806 51.0527L115.583 51.97C115.862 51.4293 116.24 51.0359 116.723 50.7612L115.734 49.0229ZM113.8 51.0641C113.364 51.9356 113.162 52.945 113.149 54.0568L115.149 54.0795C115.159 53.1913 115.32 52.4963 115.589 51.9586L113.8 51.0641ZM146.548 69H145.548V70H146.548V69ZM146.548 34.0909V33.0909H145.548V34.0909H146.548ZM170.889 34.0909H171.889V33.0909H170.889V34.0909ZM170.889 40.9432V41.9432H171.889V40.9432H170.889ZM154.986 40.9432V39.9432H153.986V40.9432H154.986ZM154.986 48.1023H153.986V49.1023H154.986V48.1023ZM169.645 48.1023H170.645V47.1023H169.645V48.1023ZM169.645 54.9716V55.9716H170.645V54.9716H169.645ZM154.986 54.9716V53.9716H153.986V54.9716H154.986ZM154.986 62.1477H153.986V63.1477H154.986V62.1477ZM170.889 62.1477H171.889V61.1477H170.889V62.1477ZM170.889 69V70H171.889V69H170.889ZM147.548 69V34.0909H145.548V69H147.548ZM146.548 35.0909H170.889V33.0909H146.548V35.0909ZM169.889 34.0909V40.9432H171.889V34.0909H169.889ZM170.889 39.9432H154.986V41.9432H170.889V39.9432ZM153.986 40.9432V48.1023H155.986V40.9432H153.986ZM154.986 49.1023H169.645V47.1023H154.986V49.1023ZM168.645 48.1023V54.9716H170.645V48.1023H168.645ZM169.645 53.9716H154.986V55.9716H169.645V53.9716ZM153.986 54.9716V62.1477H155.986V54.9716H153.986ZM154.986 63.1477H170.889V61.1477H154.986V63.1477ZM169.889 62.1477V69H171.889V62.1477H169.889ZM170.889 68H146.548V70H170.889V68ZM183.264 42.8182L184.159 42.371L183.882 41.8182H183.264V42.8182ZM187.577 51.4432L186.682 51.8904L187.561 53.6481L188.465 51.903L187.577 51.4432ZM192.043 42.8182V41.8182H191.434L191.155 42.3584L192.043 42.8182ZM200.446 42.8182L201.319 43.3058L202.15 41.8182H200.446V42.8182ZM193.134 55.9091L192.26 55.4214L191.983 55.9181L192.268 56.4104L193.134 55.9091ZM200.719 69V70H202.454L201.584 68.4987L200.719 69ZM192.384 69L191.508 69.4839L191.794 70H192.384V69ZM187.577 60.3068L188.452 59.8229L187.566 58.2203L186.697 59.8322L187.577 60.3068ZM182.889 69V70H183.486L183.769 69.4746L182.889 69ZM174.435 69L173.57 68.4978L172.698 70H174.435V69ZM182.037 55.9091L182.902 56.4113L183.186 55.9216L182.912 55.4258L182.037 55.9091ZM174.81 42.8182V41.8182H173.115L173.934 43.3015L174.81 42.8182ZM182.37 43.2654L186.682 51.8904L188.471 50.996L184.159 42.371L182.37 43.2654ZM188.465 51.903L192.931 43.278L191.155 42.3584L186.689 50.9834L188.465 51.903ZM192.043 43.8182H200.446V41.8182H192.043V43.8182ZM199.573 42.3305L192.26 55.4214L194.007 56.3968L201.319 43.3058L199.573 42.3305ZM192.268 56.4104L199.854 69.5013L201.584 68.4987L193.999 55.4077L192.268 56.4104ZM200.719 68H192.384V70H200.719V68ZM193.259 68.5161L188.452 59.8229L186.702 60.7907L191.508 69.4839L193.259 68.5161ZM186.697 59.8322L182.009 68.5254L183.769 69.4746L188.457 60.7814L186.697 59.8322ZM182.889 68H174.435V70H182.889V68ZM175.299 69.5022L182.902 56.4113L181.172 55.4069L173.57 68.4978L175.299 69.5022ZM182.912 55.4258L175.685 42.3349L173.934 43.3015L181.161 56.3924L182.912 55.4258ZM174.81 43.8182H183.264V41.8182H174.81V43.8182ZM219.03 42.8182H220.03V41.8182H219.03V42.8182ZM219.03 48.9545V49.9545H220.03V48.9545H219.03ZM202.513 48.9545H201.513V49.9545H202.513V48.9545ZM202.513 42.8182V41.8182H201.513V42.8182H202.513ZM205.973 36.5455V35.5455H204.973V36.5455H205.973ZM214.308 36.5455H215.308V35.5455H214.308V36.5455ZM214.547 62.0114L213.652 62.4586L213.662 62.478L213.673 62.497L214.547 62.0114ZM215.28 62.6761L214.886 63.5953L214.9 63.6013L214.914 63.6069L215.28 62.6761ZM217.428 62.7784L217.587 63.7656L217.599 63.7636L217.612 63.7613L217.428 62.7784ZM218.246 62.608L219.224 62.4028L219.011 61.3858L218.003 61.6378L218.246 62.608ZM219.507 68.625L219.782 69.5865L220.677 69.3308L220.486 68.4198L219.507 68.625ZM217.82 69.0511L217.591 68.0775L217.588 68.0783L217.82 69.0511ZM215.246 69.375L215.2 68.376L215.199 68.3761L215.246 69.375ZM210.217 68.6932L209.845 69.6212L209.854 69.6248L210.217 68.6932ZM207.03 66.1023L206.18 66.6301L206.184 66.636L207.03 66.1023ZM205.973 61.6875L206.973 61.7003V61.6875H205.973ZM218.03 42.8182V48.9545H220.03V42.8182H218.03ZM219.03 47.9545H202.513V49.9545H219.03V47.9545ZM203.513 48.9545V42.8182H201.513V48.9545H203.513ZM202.513 43.8182H219.03V41.8182H202.513V43.8182ZM205.973 37.5455H214.308V35.5455H205.973V37.5455ZM213.308 36.5455V60.767H215.308V36.5455H213.308ZM213.308 60.767C213.308 61.3705 213.4 61.9543 213.652 62.4586L215.441 61.5641C215.375 61.432 215.308 61.1864 215.308 60.767H213.308ZM213.673 62.497C213.949 62.9946 214.361 63.3703 214.886 63.5953L215.674 61.757C215.562 61.7092 215.485 61.6417 215.421 61.5257L213.673 62.497ZM214.914 63.6069C215.378 63.789 215.889 63.8636 216.422 63.8636V61.8636C216.069 61.8636 215.818 61.8133 215.645 61.7454L214.914 63.6069ZM216.422 63.8636C216.799 63.8636 217.188 63.83 217.587 63.7656L217.268 61.7912C216.962 61.8405 216.681 61.8636 216.422 61.8636V63.8636ZM217.612 63.7613C217.98 63.6922 218.277 63.631 218.488 63.5781L218.003 61.6378C217.851 61.6758 217.602 61.7282 217.243 61.7955L217.612 63.7613ZM217.267 62.8131L218.528 68.8302L220.486 68.4198L219.224 62.4028L217.267 62.8131ZM219.232 67.6635C218.858 67.7705 218.313 67.9083 217.591 68.0775L218.048 70.0248C218.78 69.853 219.361 69.7067 219.782 69.5865L219.232 67.6635ZM217.588 68.0783C216.951 68.2301 216.158 68.3325 215.2 68.376L215.291 70.374C216.333 70.3266 217.257 70.2131 218.051 70.0239L217.588 68.0783ZM215.199 68.3761C213.344 68.4624 211.815 68.2432 210.581 67.7616L209.854 69.6248C211.415 70.2341 213.238 70.4694 215.292 70.3739L215.199 68.3761ZM210.59 67.7652C209.382 67.2802 208.493 66.5468 207.876 65.5686L206.184 66.636C207.044 67.9987 208.279 68.9925 209.845 69.6211L210.59 67.7652ZM207.879 65.5745C207.278 64.6067 206.952 63.3362 206.973 61.7003L204.973 61.6747C204.949 63.5842 205.327 65.257 206.18 66.63L207.879 65.5745ZM206.973 61.6875V36.5455H204.973V61.6875H206.973Z" fill="black" fill-opacity="0.2" mask="url(#path-1-outside-1_120_24)"/>
</g>
</g>
<defs>
<filter id="filter0_dd_120_24" x="-3.37622" y="32.6136" width="228.053" height="45.8806" filterUnits="userSpaceOnUse" color-interpolation-filters="sRGB">
<feFlood flood-opacity="0" result="BackgroundImageFix"/>
<feColorMatrix in="SourceAlpha" type="matrix" values="0 0 0 0 0 0 0 0 0 0 0 0 0 0 0 0 0 0 127 0" result="hardAlpha"/>
<feOffset dy="4"/>
<feGaussianBlur stdDeviation="2"/>
<feComposite in2="hardAlpha" operator="out"/>
<feColorMatrix type="matrix" values="0 0 0 0 0 0 0 0 0 0 0 0 0 0 0 0 0 0 0.25 0"/>
<feBlend mode="normal" in2="BackgroundImageFix" result="effect1_dropShadow_120_24"/>
<feColorMatrix in="SourceAlpha" type="matrix" values="0 0 0 0 0 0 0 0 0 0 0 0 0 0 0 0 0 0 127 0" result="hardAlpha"/>
<feOffset dy="4"/>
<feGaussianBlur stdDeviation="2"/>
<feComposite in2="hardAlpha" operator="out"/>
<feColorMatrix type="matrix" values="0 0 0 0 0 0 0 0 0 0 0 0 0 0 0 0 0 0 0.25 0"/>
<feBlend mode="normal" in2="effect1_dropShadow_120_24" result="effect2_dropShadow_120_24"/>
<feBlend mode="normal" in="SourceGraphic" in2="effect2_dropShadow_120_24" result="shape"/>
</filter>
<clipPath id="clip0_120_24">
<rect width="322" height="117" fill="white"/>
</clipPath>
</defs>
</svg>
