<svg width="322" height="117" viewBox="0 0 322 117" fill="none" xmlns="http://www.w3.org/2000/svg">
<g clip-path="url(#clip0_138_515)">
<rect width="322" height="117" fill="white"/>
<g filter="url(#filter0_dd_138_515)">
<mask id="path-1-outside-1_138_515" maskUnits="userSpaceOnUse" x="0" y="30" width="247" height="41" fill="black">
<rect fill="white" y="30" width="247" height="41"/>
<path d="M21.5114 44.5568C21.3977 43.3068 20.892 42.3352 19.9943 41.642C19.108 40.9375 17.8409 40.5852 16.1932 40.5852C15.1023 40.5852 14.1932 40.7273 13.4659 41.0114C12.7386 41.2955 12.1932 41.6875 11.8295 42.1875C11.4659 42.6761 11.2784 43.2386 11.267 43.875C11.2443 44.3977 11.3466 44.858 11.5739 45.2557C11.8125 45.6534 12.1534 46.0057 12.5966 46.3125C13.0511 46.608 13.5966 46.8693 14.233 47.0966C14.8693 47.3239 15.5852 47.5227 16.3807 47.6932L19.3807 48.375C21.108 48.75 22.6307 49.25 23.9489 49.875C25.2784 50.5 26.392 51.2443 27.2898 52.108C28.1989 52.9716 28.8864 53.9659 29.3523 55.0909C29.8182 56.2159 30.0568 57.4773 30.0682 58.875C30.0568 61.0795 29.5 62.9716 28.3977 64.5511C27.2955 66.1307 25.7102 67.3409 23.642 68.1818C21.5852 69.0227 19.1023 69.4432 16.1932 69.4432C13.2727 69.4432 10.7273 69.0057 8.55682 68.1307C6.38636 67.2557 4.69886 65.9261 3.49432 64.142C2.28977 62.358 1.67045 60.1023 1.63636 57.375H9.71591C9.78409 58.5 10.0852 59.4375 10.6193 60.1875C11.1534 60.9375 11.8864 61.5057 12.8182 61.892C13.7614 62.2784 14.8523 62.4716 16.0909 62.4716C17.2273 62.4716 18.1932 62.3182 18.9886 62.0114C19.7955 61.7045 20.4148 61.2784 20.8466 60.733C21.2784 60.1875 21.5 59.5625 21.5114 58.858C21.5 58.1989 21.2955 57.6364 20.8977 57.1705C20.5 56.6932 19.8864 56.2841 19.0568 55.9432C18.2386 55.5909 17.1932 55.267 15.9205 54.9716L12.2727 54.1193C9.25 53.4261 6.86932 52.3068 5.13068 50.7614C3.39205 49.2045 2.52841 47.1023 2.53977 44.4545C2.52841 42.2955 3.10795 40.4034 4.27841 38.7784C5.44886 37.1534 7.06818 35.8864 9.13636 34.9773C11.2045 34.0682 13.5625 33.6136 16.2102 33.6136C18.9148 33.6136 21.2614 34.0739 23.25 34.9943C25.25 35.9034 26.8011 37.1818 27.9034 38.8295C29.0057 40.4773 29.5682 42.3864 29.5909 44.5568H21.5114ZM42.6648 54.0682V69H34.3295V34.0909H42.392V47.625H42.6818C43.2727 46.0114 44.2386 44.75 45.5795 43.8409C46.9318 42.9318 48.5852 42.4773 50.5398 42.4773C52.3807 42.4773 53.983 42.8864 55.3466 43.7045C56.7102 44.5114 57.767 45.6534 58.517 47.1307C59.2784 48.608 59.6534 50.3352 59.642 52.3125V69H51.3068V53.9489C51.3182 52.4943 50.9545 51.358 50.2159 50.5398C49.4773 49.7216 48.4375 49.3125 47.0966 49.3125C46.2216 49.3125 45.4489 49.5057 44.7784 49.892C44.1193 50.267 43.6023 50.8068 43.2273 51.5114C42.8636 52.2159 42.6761 53.0682 42.6648 54.0682ZM77.0838 69.4943C74.3452 69.4943 71.9815 68.9545 69.9929 67.875C68.0156 66.7841 66.4929 65.233 65.4247 63.2216C64.3679 61.1989 63.8395 58.7955 63.8395 56.0114C63.8395 53.3068 64.3736 50.9432 65.4418 48.9205C66.5099 46.8864 68.0156 45.3068 69.9588 44.1818C71.902 43.0455 74.1918 42.4773 76.8281 42.4773C78.6918 42.4773 80.3963 42.767 81.9418 43.3466C83.4872 43.9261 84.8224 44.7841 85.9474 45.9205C87.0724 47.0568 87.9474 48.4602 88.5724 50.1307C89.1974 51.7898 89.5099 53.6932 89.5099 55.8409V57.9205H66.7543V53.0795H81.7543C81.7429 52.1932 81.5327 51.4034 81.1236 50.7102C80.7145 50.017 80.152 49.4773 79.4361 49.0909C78.7315 48.6932 77.919 48.4943 76.9986 48.4943C76.0668 48.4943 75.2315 48.7045 74.4929 49.125C73.7543 49.5341 73.169 50.0966 72.7372 50.8125C72.3054 51.517 72.0781 52.3182 72.0554 53.2159V58.142C72.0554 59.2102 72.2656 60.1477 72.6861 60.9545C73.1065 61.75 73.7031 62.3693 74.4759 62.8125C75.2486 63.2557 76.169 63.4773 77.2372 63.4773C77.9759 63.4773 78.6463 63.375 79.2486 63.1705C79.8509 62.9659 80.3679 62.6648 80.7997 62.267C81.2315 61.8693 81.5554 61.3807 81.7713 60.8011L89.4247 61.0227C89.1065 62.7386 88.4077 64.233 87.3281 65.5057C86.2599 66.767 84.8565 67.75 83.1179 68.4545C81.3793 69.1477 79.3679 69.4943 77.0838 69.4943ZM106.006 69.4943C103.267 69.4943 100.903 68.9545 98.9148 67.875C96.9375 66.7841 95.4148 65.233 94.3466 63.2216C93.2898 61.1989 92.7614 58.7955 92.7614 56.0114C92.7614 53.3068 93.2955 50.9432 94.3636 48.9205C95.4318 46.8864 96.9375 45.3068 98.8807 44.1818C100.824 43.0455 103.114 42.4773 105.75 42.4773C107.614 42.4773 109.318 42.767 110.864 43.3466C112.409 43.9261 113.744 44.7841 114.869 45.9205C115.994 47.0568 116.869 48.4602 117.494 50.1307C118.119 51.7898 118.432 53.6932 118.432 55.8409V57.9205H95.6761V53.0795H110.676C110.665 52.1932 110.455 51.4034 110.045 50.7102C109.636 50.017 109.074 49.4773 108.358 49.0909C107.653 48.6932 106.841 48.4943 105.92 48.4943C104.989 48.4943 104.153 48.7045 103.415 49.125C102.676 49.5341 102.091 50.0966 101.659 50.8125C101.227 51.517 101 52.3182 100.977 53.2159V58.142C100.977 59.2102 101.188 60.1477 101.608 60.9545C102.028 61.75 102.625 62.3693 103.398 62.8125C104.17 63.2557 105.091 63.4773 106.159 63.4773C106.898 63.4773 107.568 63.375 108.17 63.1705C108.773 62.9659 109.29 62.6648 109.722 62.267C110.153 61.8693 110.477 61.3807 110.693 60.8011L118.347 61.0227C118.028 62.7386 117.33 64.233 116.25 65.5057C115.182 66.767 113.778 67.75 112.04 68.4545C110.301 69.1477 108.29 69.4943 106.006 69.4943ZM122.689 69V42.8182H130.786V47.5909H131.058C131.536 45.8636 132.314 44.5795 133.393 43.7386C134.473 42.8864 135.729 42.4602 137.161 42.4602C137.547 42.4602 137.945 42.4886 138.354 42.5455C138.763 42.5909 139.143 42.6648 139.496 42.767V50.0114C139.098 49.875 138.575 49.767 137.928 49.6875C137.291 49.608 136.723 49.5682 136.223 49.5682C135.234 49.5682 134.342 49.7898 133.547 50.233C132.763 50.6648 132.143 51.2727 131.689 52.0568C131.246 52.8295 131.024 53.7386 131.024 54.7841V69H122.689ZM152.062 40.9432V34.0909H181.568V40.9432H170.983V69H162.665V40.9432H152.062ZM185.689 69V42.8182H194.024V69H185.689ZM189.865 39.767C188.695 39.767 187.689 39.3807 186.848 38.608C186.007 37.8239 185.587 36.8807 185.587 35.7784C185.587 34.6875 186.007 33.7557 186.848 32.983C187.689 32.1989 188.695 31.8068 189.865 31.8068C191.047 31.8068 192.053 32.1989 192.882 32.983C193.723 33.7557 194.143 34.6875 194.143 35.7784C194.143 36.8807 193.723 37.8239 192.882 38.608C192.053 39.3807 191.047 39.767 189.865 39.767ZM207.665 54.0682V69H199.33V42.8182H207.256V47.625H207.545C208.125 46.0227 209.114 44.767 210.511 43.858C211.909 42.9375 213.574 42.4773 215.506 42.4773C217.347 42.4773 218.943 42.892 220.295 43.7216C221.659 44.5398 222.716 45.6875 223.466 47.1648C224.227 48.6307 224.602 50.3466 224.591 52.3125V69H216.256V53.9489C216.267 52.4943 215.898 51.358 215.148 50.5398C214.409 49.7216 213.381 49.3125 212.062 49.3125C211.188 49.3125 210.415 49.5057 209.744 49.892C209.085 50.267 208.574 50.8068 208.21 51.5114C207.858 52.2159 207.676 53.0682 207.665 54.0682ZM244.53 42.8182V48.9545H228.013V42.8182H244.53ZM231.473 36.5455H239.808V60.767C239.808 61.2784 239.888 61.6932 240.047 62.0114C240.217 62.3182 240.462 62.5398 240.78 62.6761C241.098 62.8011 241.479 62.8636 241.922 62.8636C242.24 62.8636 242.575 62.8352 242.928 62.7784C243.291 62.7102 243.564 62.6534 243.746 62.608L245.007 68.625C244.609 68.7386 244.047 68.8807 243.32 69.0511C242.604 69.2216 241.746 69.3295 240.746 69.375C238.791 69.4659 237.115 69.2386 235.717 68.6932C234.331 68.1364 233.268 67.2727 232.53 66.1023C231.803 64.9318 231.45 63.4602 231.473 61.6875V36.5455Z"/>
</mask>
<path d="M21.5114 44.5568C21.3977 43.3068 20.892 42.3352 19.9943 41.642C19.108 40.9375 17.8409 40.5852 16.1932 40.5852C15.1023 40.5852 14.1932 40.7273 13.4659 41.0114C12.7386 41.2955 12.1932 41.6875 11.8295 42.1875C11.4659 42.6761 11.2784 43.2386 11.267 43.875C11.2443 44.3977 11.3466 44.858 11.5739 45.2557C11.8125 45.6534 12.1534 46.0057 12.5966 46.3125C13.0511 46.608 13.5966 46.8693 14.233 47.0966C14.8693 47.3239 15.5852 47.5227 16.3807 47.6932L19.3807 48.375C21.108 48.75 22.6307 49.25 23.9489 49.875C25.2784 50.5 26.392 51.2443 27.2898 52.108C28.1989 52.9716 28.8864 53.9659 29.3523 55.0909C29.8182 56.2159 30.0568 57.4773 30.0682 58.875C30.0568 61.0795 29.5 62.9716 28.3977 64.5511C27.2955 66.1307 25.7102 67.3409 23.642 68.1818C21.5852 69.0227 19.1023 69.4432 16.1932 69.4432C13.2727 69.4432 10.7273 69.0057 8.55682 68.1307C6.38636 67.2557 4.69886 65.9261 3.49432 64.142C2.28977 62.358 1.67045 60.1023 1.63636 57.375H9.71591C9.78409 58.5 10.0852 59.4375 10.6193 60.1875C11.1534 60.9375 11.8864 61.5057 12.8182 61.892C13.7614 62.2784 14.8523 62.4716 16.0909 62.4716C17.2273 62.4716 18.1932 62.3182 18.9886 62.0114C19.7955 61.7045 20.4148 61.2784 20.8466 60.733C21.2784 60.1875 21.5 59.5625 21.5114 58.858C21.5 58.1989 21.2955 57.6364 20.8977 57.1705C20.5 56.6932 19.8864 56.2841 19.0568 55.9432C18.2386 55.5909 17.1932 55.267 15.9205 54.9716L12.2727 54.1193C9.25 53.4261 6.86932 52.3068 5.13068 50.7614C3.39205 49.2045 2.52841 47.1023 2.53977 44.4545C2.52841 42.2955 3.10795 40.4034 4.27841 38.7784C5.44886 37.1534 7.06818 35.8864 9.13636 34.9773C11.2045 34.0682 13.5625 33.6136 16.2102 33.6136C18.9148 33.6136 21.2614 34.0739 23.25 34.9943C25.25 35.9034 26.8011 37.1818 27.9034 38.8295C29.0057 40.4773 29.5682 42.3864 29.5909 44.5568H21.5114ZM42.6648 54.0682V69H34.3295V34.0909H42.392V47.625H42.6818C43.2727 46.0114 44.2386 44.75 45.5795 43.8409C46.9318 42.9318 48.5852 42.4773 50.5398 42.4773C52.3807 42.4773 53.983 42.8864 55.3466 43.7045C56.7102 44.5114 57.767 45.6534 58.517 47.1307C59.2784 48.608 59.6534 50.3352 59.642 52.3125V69H51.3068V53.9489C51.3182 52.4943 50.9545 51.358 50.2159 50.5398C49.4773 49.7216 48.4375 49.3125 47.0966 49.3125C46.2216 49.3125 45.4489 49.5057 44.7784 49.892C44.1193 50.267 43.6023 50.8068 43.2273 51.5114C42.8636 52.2159 42.6761 53.0682 42.6648 54.0682ZM77.0838 69.4943C74.3452 69.4943 71.9815 68.9545 69.9929 67.875C68.0156 66.7841 66.4929 65.233 65.4247 63.2216C64.3679 61.1989 63.8395 58.7955 63.8395 56.0114C63.8395 53.3068 64.3736 50.9432 65.4418 48.9205C66.5099 46.8864 68.0156 45.3068 69.9588 44.1818C71.902 43.0455 74.1918 42.4773 76.8281 42.4773C78.6918 42.4773 80.3963 42.767 81.9418 43.3466C83.4872 43.9261 84.8224 44.7841 85.9474 45.9205C87.0724 47.0568 87.9474 48.4602 88.5724 50.1307C89.1974 51.7898 89.5099 53.6932 89.5099 55.8409V57.9205H66.7543V53.0795H81.7543C81.7429 52.1932 81.5327 51.4034 81.1236 50.7102C80.7145 50.017 80.152 49.4773 79.4361 49.0909C78.7315 48.6932 77.919 48.4943 76.9986 48.4943C76.0668 48.4943 75.2315 48.7045 74.4929 49.125C73.7543 49.5341 73.169 50.0966 72.7372 50.8125C72.3054 51.517 72.0781 52.3182 72.0554 53.2159V58.142C72.0554 59.2102 72.2656 60.1477 72.6861 60.9545C73.1065 61.75 73.7031 62.3693 74.4759 62.8125C75.2486 63.2557 76.169 63.4773 77.2372 63.4773C77.9759 63.4773 78.6463 63.375 79.2486 63.1705C79.8509 62.9659 80.3679 62.6648 80.7997 62.267C81.2315 61.8693 81.5554 61.3807 81.7713 60.8011L89.4247 61.0227C89.1065 62.7386 88.4077 64.233 87.3281 65.5057C86.2599 66.767 84.8565 67.75 83.1179 68.4545C81.3793 69.1477 79.3679 69.4943 77.0838 69.4943ZM106.006 69.4943C103.267 69.4943 100.903 68.9545 98.9148 67.875C96.9375 66.7841 95.4148 65.233 94.3466 63.2216C93.2898 61.1989 92.7614 58.7955 92.7614 56.0114C92.7614 53.3068 93.2955 50.9432 94.3636 48.9205C95.4318 46.8864 96.9375 45.3068 98.8807 44.1818C100.824 43.0455 103.114 42.4773 105.75 42.4773C107.614 42.4773 109.318 42.767 110.864 43.3466C112.409 43.9261 113.744 44.7841 114.869 45.9205C115.994 47.0568 116.869 48.4602 117.494 50.1307C118.119 51.7898 118.432 53.6932 118.432 55.8409V57.9205H95.6761V53.0795H110.676C110.665 52.1932 110.455 51.4034 110.045 50.7102C109.636 50.017 109.074 49.4773 108.358 49.0909C107.653 48.6932 106.841 48.4943 105.92 48.4943C104.989 48.4943 104.153 48.7045 103.415 49.125C102.676 49.5341 102.091 50.0966 101.659 50.8125C101.227 51.517 101 52.3182 100.977 53.2159V58.142C100.977 59.2102 101.188 60.1477 101.608 60.9545C102.028 61.75 102.625 62.3693 103.398 62.8125C104.17 63.2557 105.091 63.4773 106.159 63.4773C106.898 63.4773 107.568 63.375 108.17 63.1705C108.773 62.9659 109.29 62.6648 109.722 62.267C110.153 61.8693 110.477 61.3807 110.693 60.8011L118.347 61.0227C118.028 62.7386 117.33 64.233 116.25 65.5057C115.182 66.767 113.778 67.75 112.04 68.4545C110.301 69.1477 108.29 69.4943 106.006 69.4943ZM122.689 69V42.8182H130.786V47.5909H131.058C131.536 45.8636 132.314 44.5795 133.393 43.7386C134.473 42.8864 135.729 42.4602 137.161 42.4602C137.547 42.4602 137.945 42.4886 138.354 42.5455C138.763 42.5909 139.143 42.6648 139.496 42.767V50.0114C139.098 49.875 138.575 49.767 137.928 49.6875C137.291 49.608 136.723 49.5682 136.223 49.5682C135.234 49.5682 134.342 49.7898 133.547 50.233C132.763 50.6648 132.143 51.2727 131.689 52.0568C131.246 52.8295 131.024 53.7386 131.024 54.7841V69H122.689ZM152.062 40.9432V34.0909H181.568V40.9432H170.983V69H162.665V40.9432H152.062ZM185.689 69V42.8182H194.024V69H185.689ZM189.865 39.767C188.695 39.767 187.689 39.3807 186.848 38.608C186.007 37.8239 185.587 36.8807 185.587 35.7784C185.587 34.6875 186.007 33.7557 186.848 32.983C187.689 32.1989 188.695 31.8068 189.865 31.8068C191.047 31.8068 192.053 32.1989 192.882 32.983C193.723 33.7557 194.143 34.6875 194.143 35.7784C194.143 36.8807 193.723 37.8239 192.882 38.608C192.053 39.3807 191.047 39.767 189.865 39.767ZM207.665 54.0682V69H199.33V42.8182H207.256V47.625H207.545C208.125 46.0227 209.114 44.767 210.511 43.858C211.909 42.9375 213.574 42.4773 215.506 42.4773C217.347 42.4773 218.943 42.892 220.295 43.7216C221.659 44.5398 222.716 45.6875 223.466 47.1648C224.227 48.6307 224.602 50.3466 224.591 52.3125V69H216.256V53.9489C216.267 52.4943 215.898 51.358 215.148 50.5398C214.409 49.7216 213.381 49.3125 212.062 49.3125C211.188 49.3125 210.415 49.5057 209.744 49.892C209.085 50.267 208.574 50.8068 208.21 51.5114C207.858 52.2159 207.676 53.0682 207.665 54.0682ZM244.53 42.8182V48.9545H228.013V42.8182H244.53ZM231.473 36.5455H239.808V60.767C239.808 61.2784 239.888 61.6932 240.047 62.0114C240.217 62.3182 240.462 62.5398 240.78 62.6761C241.098 62.8011 241.479 62.8636 241.922 62.8636C242.24 62.8636 242.575 62.8352 242.928 62.7784C243.291 62.7102 243.564 62.6534 243.746 62.608L245.007 68.625C244.609 68.7386 244.047 68.8807 243.32 69.0511C242.604 69.2216 241.746 69.3295 240.746 69.375C238.791 69.4659 237.115 69.2386 235.717 68.6932C234.331 68.1364 233.268 67.2727 232.53 66.1023C231.803 64.9318 231.45 63.4602 231.473 61.6875V36.5455Z" fill="#002855"/>
<path d="M21.5114 44.5568L20.5155 44.6474L20.5982 45.5568H21.5114V44.5568ZM19.9943 41.642L19.372 42.4249L19.3832 42.4336L19.9943 41.642ZM13.4659 41.0114L13.1021 40.0799L13.1021 40.0799L13.4659 41.0114ZM11.8295 42.1875L12.6318 42.7845L12.6383 42.7757L11.8295 42.1875ZM11.267 43.875L12.2661 43.9184L12.2667 43.9057L12.2669 43.8929L11.267 43.875ZM11.5739 45.2557L10.7056 45.7518L10.7109 45.7611L10.7164 45.7702L11.5739 45.2557ZM12.5966 46.3125L12.0274 47.1347L12.0394 47.143L12.0516 47.1509L12.5966 46.3125ZM14.233 47.0966L14.5693 46.1548L14.5693 46.1548L14.233 47.0966ZM16.3807 47.6932L16.6023 46.718L16.5902 46.7154L16.3807 47.6932ZM19.3807 48.375L19.1591 49.3502L19.1685 49.3522L19.3807 48.375ZM23.9489 49.875L23.5204 50.7786L23.5234 50.78L23.9489 49.875ZM27.2898 52.108L26.5965 52.8286L26.601 52.833L27.2898 52.108ZM29.3523 55.0909L28.4284 55.4735L28.4284 55.4735L29.3523 55.0909ZM30.0682 58.875L31.0683 58.8802L31.0682 58.8669L30.0682 58.875ZM28.3977 64.5511L27.5777 63.9789L27.5777 63.9789L28.3977 64.5511ZM23.642 68.1818L23.2654 67.2555L23.2636 67.2562L23.642 68.1818ZM8.55682 68.1307L8.93072 67.2032L8.93072 67.2032L8.55682 68.1307ZM1.63636 57.375V56.375H0.623786L0.636442 57.3875L1.63636 57.375ZM9.71591 57.375L10.7141 57.3145L10.6571 56.375H9.71591V57.375ZM10.6193 60.1875L9.80475 60.7676L9.80475 60.7676L10.6193 60.1875ZM12.8182 61.892L12.4352 62.8158L12.4391 62.8174L12.8182 61.892ZM18.9886 62.0114L18.6332 61.0767L18.6288 61.0784L18.9886 62.0114ZM20.8466 60.733L20.0625 60.1123L20.0625 60.1123L20.8466 60.733ZM21.5114 58.858L22.5112 58.8741L22.5115 58.8574L22.5112 58.8407L21.5114 58.858ZM20.8977 57.1705L20.1295 57.8107L20.1372 57.8197L20.8977 57.1705ZM19.0568 55.9432L18.6614 56.8617L18.669 56.865L18.6767 56.8681L19.0568 55.9432ZM15.9205 54.9716L15.6929 55.9454L15.6943 55.9457L15.9205 54.9716ZM12.2727 54.1193L12.5002 53.1455L12.4962 53.1446L12.2727 54.1193ZM5.13068 50.7614L4.4636 51.5064L4.46632 51.5088L5.13068 50.7614ZM2.53977 44.4545L3.53981 44.4588L3.53976 44.4493L2.53977 44.4545ZM4.27841 38.7784L3.46698 38.194L3.46698 38.194L4.27841 38.7784ZM9.13636 34.9773L9.53877 35.8927L9.53877 35.8927L9.13636 34.9773ZM23.25 34.9943L22.8299 35.9018L22.8362 35.9047L23.25 34.9943ZM27.9034 38.8295L28.7346 38.2735L28.7346 38.2735L27.9034 38.8295ZM29.5909 44.5568V45.5568H30.6014L30.5909 44.5463L29.5909 44.5568ZM22.5073 44.4663C22.3714 42.9721 21.7481 41.7328 20.6055 40.8505L19.3832 42.4336C20.036 42.9376 20.424 43.6416 20.5155 44.6474L22.5073 44.4663ZM20.6166 40.8592C19.4885 39.9626 17.9673 39.5852 16.1932 39.5852V41.5852C17.7146 41.5852 18.7274 41.9124 19.3721 42.4249L20.6166 40.8592ZM16.1932 39.5852C15.0236 39.5852 13.9815 39.7364 13.1021 40.0799L13.8298 41.9428C14.4049 41.7182 15.1809 41.5852 16.1932 41.5852V39.5852ZM13.1021 40.0799C12.2433 40.4154 11.523 40.9088 11.0208 41.5993L12.6383 42.7757C12.8633 42.4662 13.234 42.1755 13.8298 41.9428L13.1021 40.0799ZM11.0273 41.5905C10.5331 42.2546 10.2821 43.0218 10.2672 43.8571L12.2669 43.8929C12.2747 43.4555 12.3988 43.0976 12.6318 42.7845L11.0273 41.5905ZM10.268 43.8316C10.2383 44.5154 10.3719 45.1678 10.7056 45.7518L12.4421 44.7595C12.3213 44.5481 12.2504 44.28 12.2661 43.9184L10.268 43.8316ZM10.7164 45.7702C11.0391 46.308 11.4861 46.76 12.0274 47.1347L13.1658 45.4903C12.8207 45.2514 12.5859 44.9988 12.4314 44.7412L10.7164 45.7702ZM12.0516 47.1509C12.5851 47.4977 13.2041 47.791 13.8966 48.0383L14.5693 46.1548C13.9891 45.9476 13.5172 45.7182 13.1416 45.4741L12.0516 47.1509ZM13.8966 48.0383C14.5817 48.283 15.341 48.4931 16.1712 48.671L16.5902 46.7154C15.8294 46.5524 15.1569 46.3647 14.5693 46.1548L13.8966 48.0383ZM16.1591 48.6683L19.1591 49.3501L19.6023 47.3999L16.6023 46.718L16.1591 48.6683ZM19.1685 49.3522C20.8362 49.7143 22.284 50.1923 23.5204 50.7786L24.3773 48.9714C22.9774 48.3077 21.3797 47.7857 19.5928 47.3978L19.1685 49.3522ZM23.5234 50.78C24.7715 51.3667 25.7901 52.0528 26.5965 52.8286L27.9831 51.3873C26.994 50.4358 25.7853 49.6333 24.3743 48.97L23.5234 50.78ZM26.601 52.833C27.4117 53.6031 28.0176 54.4818 28.4284 55.4735L30.2762 54.7083C29.7551 53.4501 28.986 52.3401 27.9785 51.383L26.601 52.833ZM28.4284 55.4735C28.8384 56.4635 29.0577 57.5951 29.0682 58.8831L31.0682 58.8669C31.0559 57.3594 30.798 55.9683 30.2762 54.7083L28.4284 55.4735ZM29.0682 58.8698C29.0577 60.9018 28.5476 62.589 27.5777 63.9789L29.2178 65.1234C30.4524 63.3542 31.0559 61.2573 31.0682 58.8802L29.0682 58.8698ZM27.5777 63.9789C26.6026 65.3761 25.1838 66.4755 23.2654 67.2555L24.0187 69.1082C26.2367 68.2064 27.9883 66.8853 29.2178 65.1234L27.5777 63.9789ZM23.2636 67.2562C21.3578 68.0354 19.0106 68.4432 16.1932 68.4432V70.4432C19.1939 70.4432 21.8127 70.0101 24.0205 69.1074L23.2636 67.2562ZM16.1932 68.4432C13.3702 68.4432 10.9569 68.02 8.93072 67.2032L8.18292 69.0582C10.4977 69.9913 13.1753 70.4432 16.1932 70.4432V68.4432ZM8.93072 67.2032C6.92832 66.396 5.40633 65.1869 4.32311 63.5825L2.66553 64.7016C3.99139 66.6654 5.8444 68.1154 8.18292 69.0582L8.93072 67.2032ZM4.32311 63.5825C3.25358 61.9984 2.66859 59.9465 2.63629 57.3625L0.636442 57.3875C0.672323 60.258 1.32597 62.7175 2.66553 64.7016L4.32311 63.5825ZM1.63636 58.375H9.71591V56.375H1.63636V58.375ZM8.71774 57.4355C8.79471 58.7055 9.13995 59.834 9.80475 60.7676L11.4339 59.6074C11.0305 59.041 10.7735 58.2945 10.7141 57.3145L8.71774 57.4355ZM9.80475 60.7676C10.4579 61.6848 11.3473 62.3647 12.4352 62.8158L13.2012 60.9683C12.4255 60.6467 11.8489 60.1902 11.4339 59.6074L9.80475 60.7676ZM12.4391 62.8174C13.5255 63.2624 14.7495 63.4716 16.0909 63.4716V61.4716C14.955 61.4716 13.9972 61.2944 13.1972 60.9667L12.4391 62.8174ZM16.0909 63.4716C17.3117 63.4716 18.407 63.3075 19.3485 62.9444L18.6288 61.0784C17.9793 61.3289 17.1428 61.4716 16.0909 61.4716V63.4716ZM19.3441 62.9461C20.2792 62.5905 21.0628 62.0709 21.6306 61.3537L20.0625 60.1123C19.7667 60.4859 19.3118 60.8186 18.6332 61.0767L19.3441 62.9461ZM21.6306 61.3537C22.2008 60.6335 22.4964 59.7953 22.5112 58.8741L20.5115 58.8418C20.5036 59.3297 20.3561 59.7415 20.0625 60.1123L21.6306 61.3537ZM22.5112 58.8407C22.4962 57.9685 22.2186 57.1775 21.6583 56.5212L20.1372 57.8197C20.3723 58.0952 20.5038 58.4292 20.5115 58.8752L22.5112 58.8407ZM21.6659 56.5303C21.128 55.8847 20.3548 55.3954 19.4369 55.0182L18.6767 56.8681C19.4179 57.1727 19.872 57.5016 20.1295 57.8106L21.6659 56.5303ZM19.4523 55.0247C18.5606 54.6408 17.4531 54.3008 16.1466 53.9975L15.6943 55.9457C16.9332 56.2333 17.9167 56.541 18.6614 56.8617L19.4523 55.0247ZM16.148 53.9978L12.5002 53.1455L12.0452 55.0931L15.6929 55.9454L16.148 53.9978ZM12.4962 53.1446C9.58472 52.4769 7.37326 51.4168 5.79505 50.014L4.46632 51.5088C6.36538 53.1968 8.91528 54.3753 12.0492 55.094L12.4962 53.1446ZM5.79776 50.0164C4.30196 48.677 3.52944 46.8634 3.53976 44.4588L1.53978 44.4503C1.52737 47.3411 2.48213 49.7321 4.4636 51.5063L5.79776 50.0164ZM3.53976 44.4493C3.52942 42.4843 4.05288 40.8025 5.08984 39.3629L3.46698 38.194C2.16303 40.0043 1.5274 42.1066 1.53979 44.4598L3.53976 44.4493ZM5.08984 39.3629C6.14309 37.9006 7.61264 36.7394 9.53877 35.8927L8.73396 34.0618C6.52372 35.0333 4.75464 36.4062 3.46698 38.194L5.08984 39.3629ZM9.53877 35.8927C11.4602 35.0482 13.6775 34.6136 16.2102 34.6136V32.6136C13.4475 32.6136 10.9489 33.0882 8.73396 34.0618L9.53877 35.8927ZM16.2102 34.6136C18.8029 34.6136 21.0001 35.0548 22.83 35.9018L23.67 34.0868C21.5227 33.0929 19.0267 32.6136 16.2102 32.6136V34.6136ZM22.8362 35.9047C24.6857 36.7454 26.0844 37.9089 27.0722 39.3856L28.7346 38.2735C27.5179 36.4548 25.8143 35.0614 23.6638 34.0839L22.8362 35.9047ZM27.0722 39.3856C28.0562 40.8565 28.5701 42.572 28.591 44.5673L30.5909 44.5463C30.5663 42.2007 29.9551 40.0981 28.7346 38.2735L27.0722 39.3856ZM29.5909 43.5568H21.5114V45.5568H29.5909V43.5568ZM42.6648 54.0682L41.6648 54.0568V54.0682H42.6648ZM42.6648 69V70H43.6648V69H42.6648ZM34.3295 69H33.3295V70H34.3295V69ZM34.3295 34.0909V33.0909H33.3295V34.0909H34.3295ZM42.392 34.0909H43.392V33.0909H42.392V34.0909ZM42.392 47.625H41.392V48.625H42.392V47.625ZM42.6818 47.625V48.625H43.3806L43.6208 47.9689L42.6818 47.625ZM45.5795 43.8409L45.0216 43.011L45.0184 43.0132L45.5795 43.8409ZM55.3466 43.7045L54.8321 44.5621L54.8374 44.5652L55.3466 43.7045ZM58.517 47.1307L57.6254 47.5834L57.6282 47.5888L58.517 47.1307ZM59.642 52.3125L58.642 52.3068V52.3125H59.642ZM59.642 69V70H60.642V69H59.642ZM51.3068 69H50.3068V70H51.3068V69ZM51.3068 53.9489L50.3068 53.9411V53.9489H51.3068ZM50.2159 50.5398L49.4736 51.2099L49.4736 51.2099L50.2159 50.5398ZM44.7784 49.892L45.2729 50.7612L45.2777 50.7585L44.7784 49.892ZM43.2273 51.5114L42.3445 51.0415L42.3387 51.0527L43.2273 51.5114ZM41.6648 54.0682V69H43.6648V54.0682H41.6648ZM42.6648 68H34.3295V70H42.6648V68ZM35.3295 69V34.0909H33.3295V69H35.3295ZM34.3295 35.0909H42.392V33.0909H34.3295V35.0909ZM41.392 34.0909V47.625H43.392V34.0909H41.392ZM42.392 48.625H42.6818V46.625H42.392V48.625ZM43.6208 47.9689C44.1443 46.5394 44.9842 45.4527 46.1407 44.6686L45.0184 43.0132C43.493 44.0473 42.4012 45.4833 41.7428 47.2811L43.6208 47.9689ZM46.1375 44.6708C47.2943 43.8931 48.7437 43.4773 50.5398 43.4773V41.4773C48.4268 41.4773 46.5694 41.9705 45.0216 43.011L46.1375 44.6708ZM50.5398 43.4773C52.2284 43.4773 53.647 43.851 54.8321 44.562L55.8611 42.8471C54.3189 41.9217 52.5329 41.4773 50.5398 41.4773V43.4773ZM54.8374 44.5652C56.0297 45.2706 56.9573 46.2676 57.6254 47.5834L59.4087 46.678C58.5767 45.0393 57.3908 43.7521 55.8558 42.8439L54.8374 44.5652ZM57.6282 47.5888C58.3028 48.8978 58.6527 50.4603 58.6421 52.3068L60.642 52.3182C60.6541 50.2101 60.254 48.3181 59.4059 46.6726L57.6282 47.5888ZM58.642 52.3125V69H60.642V52.3125H58.642ZM59.642 68H51.3068V70H59.642V68ZM52.3068 69V53.9489H50.3068V69H52.3068ZM52.3068 53.9567C52.3195 52.3337 51.9123 50.9266 50.9582 49.8697L49.4736 51.2099C49.9968 51.7894 50.3169 52.6549 50.3068 53.9411L52.3068 53.9567ZM50.9582 49.8697C49.9896 48.7968 48.6541 48.3125 47.0966 48.3125V50.3125C48.2209 50.3125 48.9649 50.6464 49.4736 51.2099L50.9582 49.8697ZM47.0966 48.3125C46.0697 48.3125 45.1204 48.5408 44.2791 49.0256L45.2777 50.7585C45.7773 50.4706 46.3735 50.3125 47.0966 50.3125V48.3125ZM44.2839 49.0229C43.4513 49.4966 42.8036 50.179 42.3445 51.0415L44.11 51.9812C44.4009 51.4346 44.7873 51.0375 45.2729 50.7612L44.2839 49.0229ZM42.3387 51.0527C41.8874 51.927 41.6775 52.9407 41.6648 54.0568L43.6647 54.0795C43.6748 53.1956 43.8399 52.5048 44.1159 51.97L42.3387 51.0527ZM69.9929 67.875L69.5098 68.7506L69.5158 68.7539L69.9929 67.875ZM65.4247 63.2216L64.5384 63.6847L64.5415 63.6906L65.4247 63.2216ZM65.4418 48.9205L66.326 49.3874L66.3271 49.3854L65.4418 48.9205ZM69.9588 44.1818L70.4598 45.0473L70.4636 45.045L69.9588 44.1818ZM81.9418 43.3466L82.2929 42.4103L82.2929 42.4103L81.9418 43.3466ZM88.5724 50.1307L87.6359 50.4811L87.6366 50.4832L88.5724 50.1307ZM89.5099 57.9205V58.9205H90.5099V57.9205H89.5099ZM66.7543 57.9205H65.7543V58.9205H66.7543V57.9205ZM66.7543 53.0795V52.0795H65.7543V53.0795H66.7543ZM81.7543 53.0795V54.0795H82.7672L82.7542 53.0667L81.7543 53.0795ZM79.4361 49.0909L78.9445 49.9617L78.9528 49.9664L78.9611 49.9709L79.4361 49.0909ZM74.4929 49.125L74.9774 49.9999L74.9876 49.9941L74.4929 49.125ZM72.7372 50.8125L73.5898 51.3351L73.5935 51.329L72.7372 50.8125ZM72.0554 53.2159L71.0557 53.1906L71.0554 53.2033V53.2159H72.0554ZM72.6861 60.9545L71.7993 61.4167L71.802 61.4219L72.6861 60.9545ZM74.4759 62.8125L73.9783 63.68L73.9783 63.68L74.4759 62.8125ZM79.2486 63.1705L79.5702 64.1173L79.5702 64.1173L79.2486 63.1705ZM80.7997 62.267L81.4772 63.0026L81.4772 63.0026L80.7997 62.267ZM81.7713 60.8011L81.8002 59.8016L81.0843 59.7808L80.8342 60.452L81.7713 60.8011ZM89.4247 61.0227L90.408 61.205L90.6209 60.0569L89.4537 60.0231L89.4247 61.0227ZM87.3281 65.5057L86.5655 64.8588L86.565 64.8594L87.3281 65.5057ZM83.1179 68.4545L83.4882 69.3835L83.4935 69.3813L83.1179 68.4545ZM77.0838 68.4943C74.477 68.4943 72.2844 67.9811 70.47 66.9961L69.5158 68.7539C71.6787 69.928 74.2133 70.4943 77.0838 70.4943V68.4943ZM70.476 66.9994C68.6702 66.0032 67.2858 64.594 66.3079 62.7526L64.5415 63.6906C65.7 65.8719 67.361 67.565 69.5098 68.7506L70.476 66.9994ZM66.311 62.7585C65.3436 60.9068 64.8395 58.6692 64.8395 56.0114H62.8395C62.8395 58.9217 63.3922 61.4909 64.5384 63.6847L66.311 62.7585ZM64.8395 56.0114C64.8395 53.4399 65.3466 51.2421 66.326 49.3874L64.5575 48.4535C63.4006 50.6442 62.8395 53.1737 62.8395 56.0114H64.8395ZM66.3271 49.3854C67.3097 47.5143 68.684 46.0754 70.4598 45.0472L69.4578 43.3164C67.3473 44.5382 65.7102 46.2584 64.5564 48.4555L66.3271 49.3854ZM70.4636 45.045C72.2292 44.0126 74.3385 43.4773 76.8281 43.4773V41.4773C74.045 41.4773 71.5748 42.0784 69.454 43.3186L70.4636 45.045ZM76.8281 43.4773C78.5872 43.4773 80.171 43.7506 81.5906 44.2829L82.2929 42.4103C80.6216 41.7835 78.7963 41.4773 76.8281 41.4773V43.4773ZM81.5906 44.2829C83.0053 44.8134 84.2167 45.5936 85.2368 46.624L86.6581 45.2169C85.4282 43.9746 83.9691 43.0388 82.2929 42.4103L81.5906 44.2829ZM85.2368 46.624C86.2515 47.6489 87.0546 48.9277 87.6359 50.4811L89.509 49.7803C88.8403 47.9928 87.8934 46.4647 86.6581 45.2169L85.2368 46.624ZM87.6366 50.4832C88.2113 52.0086 88.5099 53.7889 88.5099 55.8409H90.5099C90.5099 53.5975 90.1836 51.571 89.5082 49.7782L87.6366 50.4832ZM88.5099 55.8409V57.9205H90.5099V55.8409H88.5099ZM89.5099 56.9205H66.7543V58.9205H89.5099V56.9205ZM67.7543 57.9205V53.0795H65.7543V57.9205H67.7543ZM66.7543 54.0795H81.7543V52.0795H66.7543V54.0795ZM82.7542 53.0667C82.7408 52.0241 82.4913 51.0603 81.9848 50.202L80.2624 51.2185C80.574 51.7466 80.745 52.3623 80.7543 53.0924L82.7542 53.0667ZM81.9848 50.202C81.4821 49.3503 80.7853 48.6827 79.911 48.2109L78.9611 49.9709C79.5187 50.2718 79.9468 50.6838 80.2624 51.2185L81.9848 50.202ZM79.9277 48.2201C79.0535 47.7266 78.0672 47.4943 76.9986 47.4943V49.4943C77.7709 49.4943 78.4096 49.6598 78.9445 49.9617L79.9277 48.2201ZM76.9986 47.4943C75.9105 47.4943 74.9018 47.7416 73.9982 48.2559L74.9876 49.9941C75.5612 49.6675 76.2231 49.4943 76.9986 49.4943V47.4943ZM74.0084 48.2502C73.1182 48.7432 72.4041 49.4286 71.8809 50.296L73.5935 51.329C73.934 50.7646 74.3903 50.3249 74.9774 49.9998L74.0084 48.2502ZM71.8846 50.2899C71.353 51.1573 71.0825 52.1328 71.0557 53.1906L73.0551 53.2412C73.0738 52.5036 73.2578 51.8768 73.5898 51.3351L71.8846 50.2899ZM71.0554 53.2159V58.142H73.0554V53.2159H71.0554ZM71.0554 58.142C71.0554 59.3431 71.2925 60.4443 71.7993 61.4167L73.5729 60.4924C73.2387 59.8512 73.0554 59.0773 73.0554 58.142H71.0554ZM71.802 61.4219C72.3099 62.3828 73.0398 63.1417 73.9783 63.68L74.9734 61.945C74.3665 61.597 73.9032 61.1172 73.5702 60.4872L71.802 61.4219ZM73.9783 63.68C74.9301 64.2258 76.0293 64.4773 77.2372 64.4773V62.4773C76.3088 62.4773 75.5671 62.2856 74.9734 61.945L73.9783 63.68ZM77.2372 64.4773C78.068 64.4773 78.8491 64.3622 79.5702 64.1173L78.927 62.2236C78.4435 62.3878 77.8838 62.4773 77.2372 62.4773V64.4773ZM79.5702 64.1173C80.2934 63.8717 80.9345 63.5025 81.4772 63.0026L80.1222 61.5315C79.8013 61.8271 79.4083 62.0601 78.927 62.2236L79.5702 64.1173ZM81.4772 63.0026C82.0309 62.4926 82.4406 61.8691 82.7084 61.1502L80.8342 60.452C80.6702 60.8922 80.4321 61.2461 80.1222 61.5315L81.4772 63.0026ZM81.7424 61.8007L89.3958 62.0223L89.4537 60.0231L81.8002 59.8016L81.7424 61.8007ZM88.4415 60.8404C88.1536 62.393 87.527 63.7252 86.5655 64.8588L88.0907 66.1525C89.2883 64.7407 90.0595 63.0842 90.408 61.205L88.4415 60.8404ZM86.565 64.8594C85.6148 65.9815 84.3514 66.8757 82.7423 67.5277L83.4935 69.3813C85.3616 68.6243 86.9051 67.5526 88.0913 66.1519L86.565 64.8594ZM82.7476 67.5257C81.1496 68.1628 79.2682 68.4943 77.0838 68.4943V70.4943C79.4676 70.4943 81.609 70.1327 83.4882 69.3834L82.7476 67.5257ZM98.9148 67.875L98.4317 68.7506L98.4377 68.7539L98.9148 67.875ZM94.3466 63.2216L93.4603 63.6847L93.4634 63.6906L94.3466 63.2216ZM94.3636 48.9205L95.2479 49.3874L95.249 49.3854L94.3636 48.9205ZM98.8807 44.1818L99.3817 45.0473L99.3855 45.045L98.8807 44.1818ZM110.864 43.3466L111.215 42.4103L111.215 42.4103L110.864 43.3466ZM117.494 50.1307L116.558 50.4811L116.559 50.4832L117.494 50.1307ZM118.432 57.9205V58.9205H119.432V57.9205H118.432ZM95.6761 57.9205H94.6761V58.9205H95.6761V57.9205ZM95.6761 53.0795V52.0795H94.6761V53.0795H95.6761ZM110.676 53.0795V54.0795H111.689L111.676 53.0667L110.676 53.0795ZM108.358 49.0909L107.866 49.9617L107.875 49.9664L107.883 49.9709L108.358 49.0909ZM103.415 49.125L103.899 49.9999L103.909 49.9941L103.415 49.125ZM101.659 50.8125L102.512 51.3351L102.515 51.329L101.659 50.8125ZM100.977 53.2159L99.9776 53.1906L99.9773 53.2033V53.2159H100.977ZM101.608 60.9545L100.721 61.4167L100.724 61.4219L101.608 60.9545ZM103.398 62.8125L102.9 63.68L102.9 63.68L103.398 62.8125ZM108.17 63.1705L108.492 64.1173L108.492 64.1173L108.17 63.1705ZM109.722 62.267L110.399 63.0026L110.399 63.0026L109.722 62.267ZM110.693 60.8011L110.722 59.8016L110.006 59.7808L109.756 60.452L110.693 60.8011ZM118.347 61.0227L119.33 61.205L119.543 60.0569L118.376 60.0231L118.347 61.0227ZM116.25 65.5057L115.487 64.8588L115.487 64.8594L116.25 65.5057ZM112.04 68.4545L112.41 69.3835L112.415 69.3813L112.04 68.4545ZM106.006 68.4943C103.399 68.4943 101.206 67.9811 99.3919 66.9961L98.4377 68.7539C100.601 69.928 103.135 70.4943 106.006 70.4943V68.4943ZM99.3979 66.9994C97.5921 66.0032 96.2077 64.594 95.2298 62.7526L93.4634 63.6906C94.6218 65.8719 96.2829 67.565 98.4317 68.7506L99.3979 66.9994ZM95.2329 62.7585C94.2655 60.9068 93.7614 58.6692 93.7614 56.0114H91.7614C91.7614 58.9217 92.3141 61.4909 93.4603 63.6847L95.2329 62.7585ZM93.7614 56.0114C93.7614 53.4399 94.2685 51.2421 95.2479 49.3874L93.4794 48.4535C92.3225 50.6442 91.7614 53.1737 91.7614 56.0114H93.7614ZM95.249 49.3854C96.2316 47.5143 97.6058 46.0754 99.3817 45.0472L98.3796 43.3164C96.2692 44.5382 94.6321 46.2584 93.4783 48.4555L95.249 49.3854ZM99.3855 45.045C101.151 44.0126 103.26 43.4773 105.75 43.4773V41.4773C102.967 41.4773 100.497 42.0784 98.3759 43.3186L99.3855 45.045ZM105.75 43.4773C107.509 43.4773 109.093 43.7506 110.513 44.2829L111.215 42.4103C109.544 41.7835 107.718 41.4773 105.75 41.4773V43.4773ZM110.513 44.2829C111.927 44.8134 113.139 45.5936 114.159 46.624L115.58 45.2169C114.35 43.9746 112.891 43.0388 111.215 42.4103L110.513 44.2829ZM114.159 46.624C115.173 47.6489 115.977 48.9277 116.558 50.4811L118.431 49.7803C117.762 47.9928 116.815 46.4647 115.58 45.2169L114.159 46.624ZM116.559 50.4832C117.133 52.0086 117.432 53.7889 117.432 55.8409H119.432C119.432 53.5975 119.105 51.571 118.43 49.7782L116.559 50.4832ZM117.432 55.8409V57.9205H119.432V55.8409H117.432ZM118.432 56.9205H95.6761V58.9205H118.432V56.9205ZM96.6761 57.9205V53.0795H94.6761V57.9205H96.6761ZM95.6761 54.0795H110.676V52.0795H95.6761V54.0795ZM111.676 53.0667C111.663 52.0241 111.413 51.0603 110.907 50.202L109.184 51.2185C109.496 51.7466 109.667 52.3623 109.676 53.0924L111.676 53.0667ZM110.907 50.202C110.404 49.3503 109.707 48.6827 108.833 48.2109L107.883 49.9709C108.441 50.2718 108.869 50.6838 109.184 51.2185L110.907 50.202ZM108.85 48.2201C107.975 47.7266 106.989 47.4943 105.92 47.4943V49.4943C106.693 49.4943 107.331 49.6598 107.866 49.9617L108.85 48.2201ZM105.92 47.4943C104.832 47.4943 103.824 47.7416 102.92 48.2559L103.909 49.9941C104.483 49.6675 105.145 49.4943 105.92 49.4943V47.4943ZM102.93 48.2502C102.04 48.7432 101.326 49.4286 100.803 50.296L102.515 51.329C102.856 50.7646 103.312 50.3249 103.899 49.9998L102.93 48.2502ZM100.806 50.2899C100.275 51.1573 100.004 52.1328 99.9776 53.1906L101.977 53.2412C101.996 52.5036 102.18 51.8768 102.512 51.3351L100.806 50.2899ZM99.9773 53.2159V58.142H101.977V53.2159H99.9773ZM99.9773 58.142C99.9773 59.3431 100.214 60.4443 100.721 61.4167L102.495 60.4924C102.161 59.8512 101.977 59.0773 101.977 58.142H99.9773ZM100.724 61.4219C101.232 62.3828 101.962 63.1417 102.9 63.68L103.895 61.945C103.288 61.597 102.825 61.1172 102.492 60.4872L100.724 61.4219ZM102.9 63.68C103.852 64.2258 104.951 64.4773 106.159 64.4773V62.4773C105.231 62.4773 104.489 62.2856 103.895 61.945L102.9 63.68ZM106.159 64.4773C106.99 64.4773 107.771 64.3622 108.492 64.1173L107.849 62.2236C107.365 62.3878 106.806 62.4773 106.159 62.4773V64.4773ZM108.492 64.1173C109.215 63.8717 109.856 63.5025 110.399 63.0026L109.044 61.5315C108.723 61.8271 108.33 62.0601 107.849 62.2236L108.492 64.1173ZM110.399 63.0026C110.953 62.4926 111.362 61.8691 111.63 61.1502L109.756 60.452C109.592 60.8922 109.354 61.2461 109.044 61.5315L110.399 63.0026ZM110.664 61.8007L118.318 62.0223L118.376 60.0231L110.722 59.8016L110.664 61.8007ZM117.363 60.8404C117.075 62.393 116.449 63.7252 115.487 64.8588L117.013 66.1525C118.21 64.7407 118.981 63.0842 119.33 61.205L117.363 60.8404ZM115.487 64.8594C114.537 65.9815 113.273 66.8757 111.664 67.5277L112.415 69.3813C114.284 68.6243 115.827 67.5526 117.013 66.1519L115.487 64.8594ZM111.669 67.5257C110.071 68.1628 108.19 68.4943 106.006 68.4943V70.4943C108.389 70.4943 110.531 70.1327 112.41 69.3834L111.669 67.5257ZM122.689 69H121.689V70H122.689V69ZM122.689 42.8182V41.8182H121.689V42.8182H122.689ZM130.786 42.8182H131.786V41.8182H130.786V42.8182ZM130.786 47.5909H129.786V48.5909H130.786V47.5909ZM131.058 47.5909V48.5909H131.819L132.022 47.8572L131.058 47.5909ZM133.393 43.7386L134.008 44.5276L134.013 44.5235L133.393 43.7386ZM138.354 42.5455L138.216 43.5359L138.23 43.5378L138.243 43.5393L138.354 42.5455ZM139.496 42.767H140.496V42.0161L139.775 41.8067L139.496 42.767ZM139.496 50.0114L139.171 50.9573L140.496 51.4114V50.0114H139.496ZM137.928 49.6875L137.804 50.6798L137.806 50.68L137.928 49.6875ZM133.547 50.233L134.029 51.1089L134.034 51.1065L133.547 50.233ZM131.689 52.0568L130.824 51.5553L130.821 51.5593L131.689 52.0568ZM131.024 69V70H132.024V69H131.024ZM123.689 69V42.8182H121.689V69H123.689ZM122.689 43.8182H130.786V41.8182H122.689V43.8182ZM129.786 42.8182V47.5909H131.786V42.8182H129.786ZM130.786 48.5909H131.058V46.5909H130.786V48.5909ZM132.022 47.8572C132.46 46.2732 133.144 45.2006 134.008 44.5275L132.779 42.9497C131.484 43.9584 130.611 45.4541 130.094 47.3246L132.022 47.8572ZM134.013 44.5235C134.909 43.8166 135.944 43.4602 137.161 43.4602V41.4602C135.514 41.4602 134.038 41.9561 132.774 42.9538L134.013 44.5235ZM137.161 43.4602C137.498 43.4602 137.85 43.485 138.216 43.5359L138.491 41.555C138.04 41.4922 137.596 41.4602 137.161 41.4602V43.4602ZM138.243 43.5393C138.602 43.5792 138.926 43.6429 139.217 43.7274L139.775 41.8067C139.361 41.6866 138.923 41.6026 138.464 41.5516L138.243 43.5393ZM138.496 42.767V50.0114H140.496V42.767H138.496ZM139.82 49.0654C139.331 48.8978 138.733 48.7789 138.049 48.695L137.806 50.68C138.418 50.7552 138.865 50.8522 139.171 50.9573L139.82 49.0654ZM138.052 48.6952C137.385 48.6119 136.774 48.5682 136.223 48.5682V50.5682C136.672 50.5682 137.197 50.604 137.804 50.6798L138.052 48.6952ZM136.223 48.5682C135.079 48.5682 134.017 48.8263 133.06 49.3594L134.034 51.1065C134.668 50.7533 135.39 50.5682 136.223 50.5682V48.5682ZM133.064 49.357C132.119 49.8777 131.368 50.616 130.824 51.5553L132.554 52.5583C132.919 51.9295 133.407 51.4519 134.029 51.1089L133.064 49.357ZM130.821 51.5593C130.277 52.5079 130.024 53.5946 130.024 54.7841H132.024C132.024 53.8827 132.214 53.1512 132.556 52.5543L130.821 51.5593ZM130.024 54.7841V69H132.024V54.7841H130.024ZM131.024 68H122.689V70H131.024V68ZM152.062 40.9432H151.062V41.9432H152.062V40.9432ZM152.062 34.0909V33.0909H151.062V34.0909H152.062ZM181.568 34.0909H182.568V33.0909H181.568V34.0909ZM181.568 40.9432V41.9432H182.568V40.9432H181.568ZM170.983 40.9432V39.9432H169.983V40.9432H170.983ZM170.983 69V70H171.983V69H170.983ZM162.665 69H161.665V70H162.665V69ZM162.665 40.9432H163.665V39.9432H162.665V40.9432ZM153.062 40.9432V34.0909H151.062V40.9432H153.062ZM152.062 35.0909H181.568V33.0909H152.062V35.0909ZM180.568 34.0909V40.9432H182.568V34.0909H180.568ZM181.568 39.9432H170.983V41.9432H181.568V39.9432ZM169.983 40.9432V69H171.983V40.9432H169.983ZM170.983 68H162.665V70H170.983V68ZM163.665 69V40.9432H161.665V69H163.665ZM162.665 39.9432H152.062V41.9432H162.665V39.9432ZM185.689 69H184.689V70H185.689V69ZM185.689 42.8182V41.8182H184.689V42.8182H185.689ZM194.024 42.8182H195.024V41.8182H194.024V42.8182ZM194.024 69V70H195.024V69H194.024ZM186.848 38.608L186.166 39.3394L186.171 39.3443L186.848 38.608ZM186.848 32.983L187.525 33.7193L187.53 33.7143L186.848 32.983ZM192.882 32.983L192.195 33.7098L192.205 33.7193L192.882 32.983ZM192.882 38.608L193.564 39.3397L193.564 39.3393L192.882 38.608ZM186.689 69V42.8182H184.689V69H186.689ZM185.689 43.8182H194.024V41.8182H185.689V43.8182ZM193.024 42.8182V69H195.024V42.8182H193.024ZM194.024 68H185.689V70H194.024V68ZM189.865 38.767C188.938 38.767 188.176 38.4702 187.525 37.8716L186.171 39.3443C187.202 40.2912 188.451 40.767 189.865 40.767V38.767ZM187.53 37.8766C186.882 37.2724 186.587 36.5901 186.587 35.7784H184.587C184.587 37.1712 185.132 38.3753 186.166 39.3393L187.53 37.8766ZM186.587 35.7784C186.587 34.9819 186.879 34.3127 187.525 33.7193L186.171 32.2466C185.135 33.1987 184.587 34.3931 184.587 35.7784H186.587ZM187.53 33.7143C188.182 33.1063 188.943 32.8068 189.865 32.8068V30.8068C188.447 30.8068 187.196 31.2914 186.166 32.2516L187.53 33.7143ZM189.865 32.8068C190.801 32.8068 191.558 33.1078 192.195 33.7097L193.569 32.2562C192.547 31.2899 191.292 30.8068 189.865 30.8068V32.8068ZM192.205 33.7193C192.851 34.3127 193.143 34.9819 193.143 35.7784H195.143C195.143 34.3931 194.595 33.1987 193.559 32.2466L192.205 33.7193ZM193.143 35.7784C193.143 36.5901 192.848 37.2724 192.2 37.8766L193.564 39.3393C194.598 38.3753 195.143 37.1712 195.143 35.7784H193.143ZM192.2 37.8762C191.565 38.4686 190.806 38.767 189.865 38.767V40.767C191.288 40.767 192.541 40.2927 193.564 39.3397L192.2 37.8762ZM207.665 54.0682L206.665 54.0568V54.0682H207.665ZM207.665 69V70H208.665V69H207.665ZM199.33 69H198.33V70H199.33V69ZM199.33 42.8182V41.8182H198.33V42.8182H199.33ZM207.256 42.8182H208.256V41.8182H207.256V42.8182ZM207.256 47.625H206.256V48.625H207.256V47.625ZM207.545 47.625V48.625H208.247L208.486 47.9651L207.545 47.625ZM210.511 43.858L211.057 44.6963L211.061 44.6931L210.511 43.858ZM220.295 43.7216L219.773 44.574L219.781 44.5791L220.295 43.7216ZM223.466 47.1648L222.574 47.6175L222.578 47.6257L223.466 47.1648ZM224.591 52.3125L223.591 52.3067V52.3125H224.591ZM224.591 69V70H225.591V69H224.591ZM216.256 69H215.256V70H216.256V69ZM216.256 53.9489L215.256 53.9411V53.9489H216.256ZM215.148 50.5398L214.405 51.2099L214.411 51.2155L215.148 50.5398ZM209.744 49.892L210.239 50.7612L210.244 50.7585L209.744 49.892ZM208.21 51.5114L207.322 51.0527L207.316 51.0641L208.21 51.5114ZM206.665 54.0682V69H208.665V54.0682H206.665ZM207.665 68H199.33V70H207.665V68ZM200.33 69V42.8182H198.33V69H200.33ZM199.33 43.8182H207.256V41.8182H199.33V43.8182ZM206.256 42.8182V47.625H208.256V42.8182H206.256ZM207.256 48.625H207.545V46.625H207.256V48.625ZM208.486 47.9651C208.993 46.5627 209.846 45.4839 211.057 44.6962L209.966 43.0197C208.382 44.0502 207.257 45.4828 206.605 47.2849L208.486 47.9651ZM211.061 44.6931C212.272 43.896 213.738 43.4773 215.506 43.4773V41.4773C213.409 41.4773 211.546 41.979 209.961 43.0228L211.061 44.6931ZM215.506 43.4773C217.192 43.4773 218.601 43.8556 219.773 44.574L220.818 42.8692C219.285 41.9285 217.501 41.4773 215.506 41.4773V43.4773ZM219.781 44.5791C220.976 45.2963 221.906 46.3005 222.574 47.6175L224.358 46.7121C223.526 45.0745 222.342 43.7832 220.81 42.8641L219.781 44.5791ZM222.578 47.6257C223.252 48.9225 223.602 50.4724 223.591 52.3067L225.591 52.3183C225.603 50.2207 225.203 48.3389 224.353 46.7039L222.578 47.6257ZM223.591 52.3125V69H225.591V52.3125H223.591ZM224.591 68H216.256V70H224.591V68ZM217.256 69V53.9489H215.256V69H217.256ZM217.256 53.9567C217.268 52.33 216.853 50.9207 215.885 49.864L214.411 51.2155C214.942 51.7952 215.266 52.6586 215.256 53.9411L217.256 53.9567ZM215.89 49.8697C214.925 48.8005 213.603 48.3125 212.062 48.3125V50.3125C213.158 50.3125 213.893 50.6427 214.405 51.2099L215.89 49.8697ZM212.062 48.3125C211.036 48.3125 210.086 48.5408 209.245 49.0256L210.244 50.7585C210.743 50.4706 211.339 50.3125 212.062 50.3125V48.3125ZM209.25 49.0229C208.414 49.4982 207.77 50.1843 207.322 51.0527L209.099 51.97C209.378 51.4293 209.756 51.0359 210.239 50.7612L209.25 49.0229ZM207.316 51.0641C206.88 51.9356 206.677 52.945 206.665 54.0568L208.665 54.0795C208.675 53.1913 208.836 52.4963 209.105 51.9586L207.316 51.0641ZM244.53 42.8182H245.53V41.8182H244.53V42.8182ZM244.53 48.9545V49.9545H245.53V48.9545H244.53ZM228.013 48.9545H227.013V49.9545H228.013V48.9545ZM228.013 42.8182V41.8182H227.013V42.8182H228.013ZM231.473 36.5455V35.5455H230.473V36.5455H231.473ZM239.808 36.5455H240.808V35.5455H239.808V36.5455ZM240.047 62.0114L239.152 62.4586L239.162 62.478L239.173 62.497L240.047 62.0114ZM240.78 62.6761L240.386 63.5953L240.4 63.6013L240.414 63.6069L240.78 62.6761ZM242.928 62.7784L243.087 63.7656L243.099 63.7636L243.112 63.7613L242.928 62.7784ZM243.746 62.608L244.724 62.4028L244.511 61.3858L243.503 61.6378L243.746 62.608ZM245.007 68.625L245.282 69.5865L246.177 69.3308L245.986 68.4198L245.007 68.625ZM243.32 69.0511L243.091 68.0775L243.088 68.0783L243.32 69.0511ZM240.746 69.375L240.7 68.376L240.699 68.3761L240.746 69.375ZM235.717 68.6932L235.345 69.6212L235.354 69.6248L235.717 68.6932ZM232.53 66.1023L231.68 66.6301L231.684 66.636L232.53 66.1023ZM231.473 61.6875L232.473 61.7003V61.6875H231.473ZM243.53 42.8182V48.9545H245.53V42.8182H243.53ZM244.53 47.9545H228.013V49.9545H244.53V47.9545ZM229.013 48.9545V42.8182H227.013V48.9545H229.013ZM228.013 43.8182H244.53V41.8182H228.013V43.8182ZM231.473 37.5455H239.808V35.5455H231.473V37.5455ZM238.808 36.5455V60.767H240.808V36.5455H238.808ZM238.808 60.767C238.808 61.3705 238.9 61.9543 239.152 62.4586L240.941 61.5641C240.875 61.432 240.808 61.1864 240.808 60.767H238.808ZM239.173 62.497C239.449 62.9946 239.861 63.3703 240.386 63.5953L241.174 61.757C241.062 61.7092 240.985 61.6417 240.921 61.5257L239.173 62.497ZM240.414 63.6069C240.878 63.789 241.389 63.8636 241.922 63.8636V61.8636C241.569 61.8636 241.318 61.8133 241.145 61.7454L240.414 63.6069ZM241.922 63.8636C242.299 63.8636 242.688 63.83 243.087 63.7656L242.768 61.7912C242.462 61.8405 242.181 61.8636 241.922 61.8636V63.8636ZM243.112 63.7613C243.48 63.6922 243.777 63.631 243.988 63.5781L243.503 61.6378C243.351 61.6758 243.102 61.7282 242.743 61.7955L243.112 63.7613ZM242.767 62.8131L244.028 68.8302L245.986 68.4198L244.724 62.4028L242.767 62.8131ZM244.732 67.6635C244.358 67.7705 243.813 67.9083 243.091 68.0775L243.548 70.0248C244.28 69.853 244.861 69.7067 245.282 69.5865L244.732 67.6635ZM243.088 68.0783C242.451 68.2301 241.658 68.3325 240.7 68.376L240.791 70.374C241.833 70.3266 242.757 70.2131 243.551 70.0239L243.088 68.0783ZM240.699 68.3761C238.844 68.4624 237.315 68.2432 236.081 67.7616L235.354 69.6248C236.915 70.2341 238.738 70.4694 240.792 70.3739L240.699 68.3761ZM236.09 67.7652C234.882 67.2802 233.993 66.5468 233.376 65.5686L231.684 66.636C232.544 67.9987 233.779 68.9925 235.345 69.6211L236.09 67.7652ZM233.379 65.5745C232.778 64.6067 232.452 63.3362 232.473 61.7003L230.473 61.6747C230.449 63.5842 230.827 65.257 231.68 66.63L233.379 65.5745ZM232.473 61.6875V36.5455H230.473V61.6875H232.473Z" fill="black" mask="url(#path-1-outside-1_138_515)"/>
<path d="M21.5114 44.5568L20.5155 44.6474L20.5982 45.5568H21.5114V44.5568ZM19.9943 41.642L19.372 42.4249L19.3832 42.4336L19.9943 41.642ZM13.4659 41.0114L13.1021 40.0799L13.1021 40.0799L13.4659 41.0114ZM11.8295 42.1875L12.6318 42.7845L12.6383 42.7757L11.8295 42.1875ZM11.267 43.875L12.2661 43.9184L12.2667 43.9057L12.2669 43.8929L11.267 43.875ZM11.5739 45.2557L10.7056 45.7518L10.7109 45.7611L10.7164 45.7702L11.5739 45.2557ZM12.5966 46.3125L12.0274 47.1347L12.0394 47.143L12.0516 47.1509L12.5966 46.3125ZM14.233 47.0966L14.5693 46.1548L14.5693 46.1548L14.233 47.0966ZM16.3807 47.6932L16.6023 46.718L16.5902 46.7154L16.3807 47.6932ZM19.3807 48.375L19.1591 49.3502L19.1685 49.3522L19.3807 48.375ZM23.9489 49.875L23.5204 50.7786L23.5234 50.78L23.9489 49.875ZM27.2898 52.108L26.5965 52.8286L26.601 52.833L27.2898 52.108ZM29.3523 55.0909L28.4284 55.4735L28.4284 55.4735L29.3523 55.0909ZM30.0682 58.875L31.0683 58.8802L31.0682 58.8669L30.0682 58.875ZM28.3977 64.5511L27.5777 63.9789L27.5777 63.9789L28.3977 64.5511ZM23.642 68.1818L23.2654 67.2555L23.2636 67.2562L23.642 68.1818ZM8.55682 68.1307L8.93072 67.2032L8.93072 67.2032L8.55682 68.1307ZM1.63636 57.375V56.375H0.623786L0.636442 57.3875L1.63636 57.375ZM9.71591 57.375L10.7141 57.3145L10.6571 56.375H9.71591V57.375ZM10.6193 60.1875L9.80475 60.7676L9.80475 60.7676L10.6193 60.1875ZM12.8182 61.892L12.4352 62.8158L12.4391 62.8174L12.8182 61.892ZM18.9886 62.0114L18.6332 61.0767L18.6288 61.0784L18.9886 62.0114ZM20.8466 60.733L20.0625 60.1123L20.0625 60.1123L20.8466 60.733ZM21.5114 58.858L22.5112 58.8741L22.5115 58.8574L22.5112 58.8407L21.5114 58.858ZM20.8977 57.1705L20.1295 57.8107L20.1372 57.8197L20.8977 57.1705ZM19.0568 55.9432L18.6614 56.8617L18.669 56.865L18.6767 56.8681L19.0568 55.9432ZM15.9205 54.9716L15.6929 55.9454L15.6943 55.9457L15.9205 54.9716ZM12.2727 54.1193L12.5002 53.1455L12.4962 53.1446L12.2727 54.1193ZM5.13068 50.7614L4.4636 51.5064L4.46632 51.5088L5.13068 50.7614ZM2.53977 44.4545L3.53981 44.4588L3.53976 44.4493L2.53977 44.4545ZM4.27841 38.7784L3.46698 38.194L3.46698 38.194L4.27841 38.7784ZM9.13636 34.9773L9.53877 35.8927L9.53877 35.8927L9.13636 34.9773ZM23.25 34.9943L22.8299 35.9018L22.8362 35.9047L23.25 34.9943ZM27.9034 38.8295L28.7346 38.2735L28.7346 38.2735L27.9034 38.8295ZM29.5909 44.5568V45.5568H30.6014L30.5909 44.5463L29.5909 44.5568ZM22.5073 44.4663C22.3714 42.9721 21.7481 41.7328 20.6055 40.8505L19.3832 42.4336C20.036 42.9376 20.424 43.6416 20.5155 44.6474L22.5073 44.4663ZM20.6166 40.8592C19.4885 39.9626 17.9673 39.5852 16.1932 39.5852V41.5852C17.7146 41.5852 18.7274 41.9124 19.3721 42.4249L20.6166 40.8592ZM16.1932 39.5852C15.0236 39.5852 13.9815 39.7364 13.1021 40.0799L13.8298 41.9428C14.4049 41.7182 15.1809 41.5852 16.1932 41.5852V39.5852ZM13.1021 40.0799C12.2433 40.4154 11.523 40.9088 11.0208 41.5993L12.6383 42.7757C12.8633 42.4662 13.234 42.1755 13.8298 41.9428L13.1021 40.0799ZM11.0273 41.5905C10.5331 42.2546 10.2821 43.0218 10.2672 43.8571L12.2669 43.8929C12.2747 43.4555 12.3988 43.0976 12.6318 42.7845L11.0273 41.5905ZM10.268 43.8316C10.2383 44.5154 10.3719 45.1678 10.7056 45.7518L12.4421 44.7595C12.3213 44.5481 12.2504 44.28 12.2661 43.9184L10.268 43.8316ZM10.7164 45.7702C11.0391 46.308 11.4861 46.76 12.0274 47.1347L13.1658 45.4903C12.8207 45.2514 12.5859 44.9988 12.4314 44.7412L10.7164 45.7702ZM12.0516 47.1509C12.5851 47.4977 13.2041 47.791 13.8966 48.0383L14.5693 46.1548C13.9891 45.9476 13.5172 45.7182 13.1416 45.4741L12.0516 47.1509ZM13.8966 48.0383C14.5817 48.283 15.341 48.4931 16.1712 48.671L16.5902 46.7154C15.8294 46.5524 15.1569 46.3647 14.5693 46.1548L13.8966 48.0383ZM16.1591 48.6683L19.1591 49.3501L19.6023 47.3999L16.6023 46.718L16.1591 48.6683ZM19.1685 49.3522C20.8362 49.7143 22.284 50.1923 23.5204 50.7786L24.3773 48.9714C22.9774 48.3077 21.3797 47.7857 19.5928 47.3978L19.1685 49.3522ZM23.5234 50.78C24.7715 51.3667 25.7901 52.0528 26.5965 52.8286L27.9831 51.3873C26.994 50.4358 25.7853 49.6333 24.3743 48.97L23.5234 50.78ZM26.601 52.833C27.4117 53.6031 28.0176 54.4818 28.4284 55.4735L30.2762 54.7083C29.7551 53.4501 28.986 52.3401 27.9785 51.383L26.601 52.833ZM28.4284 55.4735C28.8384 56.4635 29.0577 57.5951 29.0682 58.8831L31.0682 58.8669C31.0559 57.3594 30.798 55.9683 30.2762 54.7083L28.4284 55.4735ZM29.0682 58.8698C29.0577 60.9018 28.5476 62.589 27.5777 63.9789L29.2178 65.1234C30.4524 63.3542 31.0559 61.2573 31.0682 58.8802L29.0682 58.8698ZM27.5777 63.9789C26.6026 65.3761 25.1838 66.4755 23.2654 67.2555L24.0187 69.1082C26.2367 68.2064 27.9883 66.8853 29.2178 65.1234L27.5777 63.9789ZM23.2636 67.2562C21.3578 68.0354 19.0106 68.4432 16.1932 68.4432V70.4432C19.1939 70.4432 21.8127 70.0101 24.0205 69.1074L23.2636 67.2562ZM16.1932 68.4432C13.3702 68.4432 10.9569 68.02 8.93072 67.2032L8.18292 69.0582C10.4977 69.9913 13.1753 70.4432 16.1932 70.4432V68.4432ZM8.93072 67.2032C6.92832 66.396 5.40633 65.1869 4.32311 63.5825L2.66553 64.7016C3.99139 66.6654 5.8444 68.1154 8.18292 69.0582L8.93072 67.2032ZM4.32311 63.5825C3.25358 61.9984 2.66859 59.9465 2.63629 57.3625L0.636442 57.3875C0.672323 60.258 1.32597 62.7175 2.66553 64.7016L4.32311 63.5825ZM1.63636 58.375H9.71591V56.375H1.63636V58.375ZM8.71774 57.4355C8.79471 58.7055 9.13995 59.834 9.80475 60.7676L11.4339 59.6074C11.0305 59.041 10.7735 58.2945 10.7141 57.3145L8.71774 57.4355ZM9.80475 60.7676C10.4579 61.6848 11.3473 62.3647 12.4352 62.8158L13.2012 60.9683C12.4255 60.6467 11.8489 60.1902 11.4339 59.6074L9.80475 60.7676ZM12.4391 62.8174C13.5255 63.2624 14.7495 63.4716 16.0909 63.4716V61.4716C14.955 61.4716 13.9972 61.2944 13.1972 60.9667L12.4391 62.8174ZM16.0909 63.4716C17.3117 63.4716 18.407 63.3075 19.3485 62.9444L18.6288 61.0784C17.9793 61.3289 17.1428 61.4716 16.0909 61.4716V63.4716ZM19.3441 62.9461C20.2792 62.5905 21.0628 62.0709 21.6306 61.3537L20.0625 60.1123C19.7667 60.4859 19.3118 60.8186 18.6332 61.0767L19.3441 62.9461ZM21.6306 61.3537C22.2008 60.6335 22.4964 59.7953 22.5112 58.8741L20.5115 58.8418C20.5036 59.3297 20.3561 59.7415 20.0625 60.1123L21.6306 61.3537ZM22.5112 58.8407C22.4962 57.9685 22.2186 57.1775 21.6583 56.5212L20.1372 57.8197C20.3723 58.0952 20.5038 58.4292 20.5115 58.8752L22.5112 58.8407ZM21.6659 56.5303C21.128 55.8847 20.3548 55.3954 19.4369 55.0182L18.6767 56.8681C19.4179 57.1727 19.872 57.5016 20.1295 57.8106L21.6659 56.5303ZM19.4523 55.0247C18.5606 54.6408 17.4531 54.3008 16.1466 53.9975L15.6943 55.9457C16.9332 56.2333 17.9167 56.541 18.6614 56.8617L19.4523 55.0247ZM16.148 53.9978L12.5002 53.1455L12.0452 55.0931L15.6929 55.9454L16.148 53.9978ZM12.4962 53.1446C9.58472 52.4769 7.37326 51.4168 5.79505 50.014L4.46632 51.5088C6.36538 53.1968 8.91528 54.3753 12.0492 55.094L12.4962 53.1446ZM5.79776 50.0164C4.30196 48.677 3.52944 46.8634 3.53976 44.4588L1.53978 44.4503C1.52737 47.3411 2.48213 49.7321 4.4636 51.5063L5.79776 50.0164ZM3.53976 44.4493C3.52942 42.4843 4.05288 40.8025 5.08984 39.3629L3.46698 38.194C2.16303 40.0043 1.5274 42.1066 1.53979 44.4598L3.53976 44.4493ZM5.08984 39.3629C6.14309 37.9006 7.61264 36.7394 9.53877 35.8927L8.73396 34.0618C6.52372 35.0333 4.75464 36.4062 3.46698 38.194L5.08984 39.3629ZM9.53877 35.8927C11.4602 35.0482 13.6775 34.6136 16.2102 34.6136V32.6136C13.4475 32.6136 10.9489 33.0882 8.73396 34.0618L9.53877 35.8927ZM16.2102 34.6136C18.8029 34.6136 21.0001 35.0548 22.83 35.9018L23.67 34.0868C21.5227 33.0929 19.0267 32.6136 16.2102 32.6136V34.6136ZM22.8362 35.9047C24.6857 36.7454 26.0844 37.9089 27.0722 39.3856L28.7346 38.2735C27.5179 36.4548 25.8143 35.0614 23.6638 34.0839L22.8362 35.9047ZM27.0722 39.3856C28.0562 40.8565 28.5701 42.572 28.591 44.5673L30.5909 44.5463C30.5663 42.2007 29.9551 40.0981 28.7346 38.2735L27.0722 39.3856ZM29.5909 43.5568H21.5114V45.5568H29.5909V43.5568ZM42.6648 54.0682L41.6648 54.0568V54.0682H42.6648ZM42.6648 69V70H43.6648V69H42.6648ZM34.3295 69H33.3295V70H34.3295V69ZM34.3295 34.0909V33.0909H33.3295V34.0909H34.3295ZM42.392 34.0909H43.392V33.0909H42.392V34.0909ZM42.392 47.625H41.392V48.625H42.392V47.625ZM42.6818 47.625V48.625H43.3806L43.6208 47.9689L42.6818 47.625ZM45.5795 43.8409L45.0216 43.011L45.0184 43.0132L45.5795 43.8409ZM55.3466 43.7045L54.8321 44.5621L54.8374 44.5652L55.3466 43.7045ZM58.517 47.1307L57.6254 47.5834L57.6282 47.5888L58.517 47.1307ZM59.642 52.3125L58.642 52.3068V52.3125H59.642ZM59.642 69V70H60.642V69H59.642ZM51.3068 69H50.3068V70H51.3068V69ZM51.3068 53.9489L50.3068 53.9411V53.9489H51.3068ZM50.2159 50.5398L49.4736 51.2099L49.4736 51.2099L50.2159 50.5398ZM44.7784 49.892L45.2729 50.7612L45.2777 50.7585L44.7784 49.892ZM43.2273 51.5114L42.3445 51.0415L42.3387 51.0527L43.2273 51.5114ZM41.6648 54.0682V69H43.6648V54.0682H41.6648ZM42.6648 68H34.3295V70H42.6648V68ZM35.3295 69V34.0909H33.3295V69H35.3295ZM34.3295 35.0909H42.392V33.0909H34.3295V35.0909ZM41.392 34.0909V47.625H43.392V34.0909H41.392ZM42.392 48.625H42.6818V46.625H42.392V48.625ZM43.6208 47.9689C44.1443 46.5394 44.9842 45.4527 46.1407 44.6686L45.0184 43.0132C43.493 44.0473 42.4012 45.4833 41.7428 47.2811L43.6208 47.9689ZM46.1375 44.6708C47.2943 43.8931 48.7437 43.4773 50.5398 43.4773V41.4773C48.4268 41.4773 46.5694 41.9705 45.0216 43.011L46.1375 44.6708ZM50.5398 43.4773C52.2284 43.4773 53.647 43.851 54.8321 44.562L55.8611 42.8471C54.3189 41.9217 52.5329 41.4773 50.5398 41.4773V43.4773ZM54.8374 44.5652C56.0297 45.2706 56.9573 46.2676 57.6254 47.5834L59.4087 46.678C58.5767 45.0393 57.3908 43.7521 55.8558 42.8439L54.8374 44.5652ZM57.6282 47.5888C58.3028 48.8978 58.6527 50.4603 58.6421 52.3068L60.642 52.3182C60.6541 50.2101 60.254 48.3181 59.4059 46.6726L57.6282 47.5888ZM58.642 52.3125V69H60.642V52.3125H58.642ZM59.642 68H51.3068V70H59.642V68ZM52.3068 69V53.9489H50.3068V69H52.3068ZM52.3068 53.9567C52.3195 52.3337 51.9123 50.9266 50.9582 49.8697L49.4736 51.2099C49.9968 51.7894 50.3169 52.6549 50.3068 53.9411L52.3068 53.9567ZM50.9582 49.8697C49.9896 48.7968 48.6541 48.3125 47.0966 48.3125V50.3125C48.2209 50.3125 48.9649 50.6464 49.4736 51.2099L50.9582 49.8697ZM47.0966 48.3125C46.0697 48.3125 45.1204 48.5408 44.2791 49.0256L45.2777 50.7585C45.7773 50.4706 46.3735 50.3125 47.0966 50.3125V48.3125ZM44.2839 49.0229C43.4513 49.4966 42.8036 50.179 42.3445 51.0415L44.11 51.9812C44.4009 51.4346 44.7873 51.0375 45.2729 50.7612L44.2839 49.0229ZM42.3387 51.0527C41.8874 51.927 41.6775 52.9407 41.6648 54.0568L43.6647 54.0795C43.6748 53.1956 43.8399 52.5048 44.1159 51.97L42.3387 51.0527ZM69.9929 67.875L69.5098 68.7506L69.5158 68.7539L69.9929 67.875ZM65.4247 63.2216L64.5384 63.6847L64.5415 63.6906L65.4247 63.2216ZM65.4418 48.9205L66.326 49.3874L66.3271 49.3854L65.4418 48.9205ZM69.9588 44.1818L70.4598 45.0473L70.4636 45.045L69.9588 44.1818ZM81.9418 43.3466L82.2929 42.4103L82.2929 42.4103L81.9418 43.3466ZM88.5724 50.1307L87.6359 50.4811L87.6366 50.4832L88.5724 50.1307ZM89.5099 57.9205V58.9205H90.5099V57.9205H89.5099ZM66.7543 57.9205H65.7543V58.9205H66.7543V57.9205ZM66.7543 53.0795V52.0795H65.7543V53.0795H66.7543ZM81.7543 53.0795V54.0795H82.7672L82.7542 53.0667L81.7543 53.0795ZM79.4361 49.0909L78.9445 49.9617L78.9528 49.9664L78.9611 49.9709L79.4361 49.0909ZM74.4929 49.125L74.9774 49.9999L74.9876 49.9941L74.4929 49.125ZM72.7372 50.8125L73.5898 51.3351L73.5935 51.329L72.7372 50.8125ZM72.0554 53.2159L71.0557 53.1906L71.0554 53.2033V53.2159H72.0554ZM72.6861 60.9545L71.7993 61.4167L71.802 61.4219L72.6861 60.9545ZM74.4759 62.8125L73.9783 63.68L73.9783 63.68L74.4759 62.8125ZM79.2486 63.1705L79.5702 64.1173L79.5702 64.1173L79.2486 63.1705ZM80.7997 62.267L81.4772 63.0026L81.4772 63.0026L80.7997 62.267ZM81.7713 60.8011L81.8002 59.8016L81.0843 59.7808L80.8342 60.452L81.7713 60.8011ZM89.4247 61.0227L90.408 61.205L90.6209 60.0569L89.4537 60.0231L89.4247 61.0227ZM87.3281 65.5057L86.5655 64.8588L86.565 64.8594L87.3281 65.5057ZM83.1179 68.4545L83.4882 69.3835L83.4935 69.3813L83.1179 68.4545ZM77.0838 68.4943C74.477 68.4943 72.2844 67.9811 70.47 66.9961L69.5158 68.7539C71.6787 69.928 74.2133 70.4943 77.0838 70.4943V68.4943ZM70.476 66.9994C68.6702 66.0032 67.2858 64.594 66.3079 62.7526L64.5415 63.6906C65.7 65.8719 67.361 67.565 69.5098 68.7506L70.476 66.9994ZM66.311 62.7585C65.3436 60.9068 64.8395 58.6692 64.8395 56.0114H62.8395C62.8395 58.9217 63.3922 61.4909 64.5384 63.6847L66.311 62.7585ZM64.8395 56.0114C64.8395 53.4399 65.3466 51.2421 66.326 49.3874L64.5575 48.4535C63.4006 50.6442 62.8395 53.1737 62.8395 56.0114H64.8395ZM66.3271 49.3854C67.3097 47.5143 68.684 46.0754 70.4598 45.0472L69.4578 43.3164C67.3473 44.5382 65.7102 46.2584 64.5564 48.4555L66.3271 49.3854ZM70.4636 45.045C72.2292 44.0126 74.3385 43.4773 76.8281 43.4773V41.4773C74.045 41.4773 71.5748 42.0784 69.454 43.3186L70.4636 45.045ZM76.8281 43.4773C78.5872 43.4773 80.171 43.7506 81.5906 44.2829L82.2929 42.4103C80.6216 41.7835 78.7963 41.4773 76.8281 41.4773V43.4773ZM81.5906 44.2829C83.0053 44.8134 84.2167 45.5936 85.2368 46.624L86.6581 45.2169C85.4282 43.9746 83.9691 43.0388 82.2929 42.4103L81.5906 44.2829ZM85.2368 46.624C86.2515 47.6489 87.0546 48.9277 87.6359 50.4811L89.509 49.7803C88.8403 47.9928 87.8934 46.4647 86.6581 45.2169L85.2368 46.624ZM87.6366 50.4832C88.2113 52.0086 88.5099 53.7889 88.5099 55.8409H90.5099C90.5099 53.5975 90.1836 51.571 89.5082 49.7782L87.6366 50.4832ZM88.5099 55.8409V57.9205H90.5099V55.8409H88.5099ZM89.5099 56.9205H66.7543V58.9205H89.5099V56.9205ZM67.7543 57.9205V53.0795H65.7543V57.9205H67.7543ZM66.7543 54.0795H81.7543V52.0795H66.7543V54.0795ZM82.7542 53.0667C82.7408 52.0241 82.4913 51.0603 81.9848 50.202L80.2624 51.2185C80.574 51.7466 80.745 52.3623 80.7543 53.0924L82.7542 53.0667ZM81.9848 50.202C81.4821 49.3503 80.7853 48.6827 79.911 48.2109L78.9611 49.9709C79.5187 50.2718 79.9468 50.6838 80.2624 51.2185L81.9848 50.202ZM79.9277 48.2201C79.0535 47.7266 78.0672 47.4943 76.9986 47.4943V49.4943C77.7709 49.4943 78.4096 49.6598 78.9445 49.9617L79.9277 48.2201ZM76.9986 47.4943C75.9105 47.4943 74.9018 47.7416 73.9982 48.2559L74.9876 49.9941C75.5612 49.6675 76.2231 49.4943 76.9986 49.4943V47.4943ZM74.0084 48.2502C73.1182 48.7432 72.4041 49.4286 71.8809 50.296L73.5935 51.329C73.934 50.7646 74.3903 50.3249 74.9774 49.9998L74.0084 48.2502ZM71.8846 50.2899C71.353 51.1573 71.0825 52.1328 71.0557 53.1906L73.0551 53.2412C73.0738 52.5036 73.2578 51.8768 73.5898 51.3351L71.8846 50.2899ZM71.0554 53.2159V58.142H73.0554V53.2159H71.0554ZM71.0554 58.142C71.0554 59.3431 71.2925 60.4443 71.7993 61.4167L73.5729 60.4924C73.2387 59.8512 73.0554 59.0773 73.0554 58.142H71.0554ZM71.802 61.4219C72.3099 62.3828 73.0398 63.1417 73.9783 63.68L74.9734 61.945C74.3665 61.597 73.9032 61.1172 73.5702 60.4872L71.802 61.4219ZM73.9783 63.68C74.9301 64.2258 76.0293 64.4773 77.2372 64.4773V62.4773C76.3088 62.4773 75.5671 62.2856 74.9734 61.945L73.9783 63.68ZM77.2372 64.4773C78.068 64.4773 78.8491 64.3622 79.5702 64.1173L78.927 62.2236C78.4435 62.3878 77.8838 62.4773 77.2372 62.4773V64.4773ZM79.5702 64.1173C80.2934 63.8717 80.9345 63.5025 81.4772 63.0026L80.1222 61.5315C79.8013 61.8271 79.4083 62.0601 78.927 62.2236L79.5702 64.1173ZM81.4772 63.0026C82.0309 62.4926 82.4406 61.8691 82.7084 61.1502L80.8342 60.452C80.6702 60.8922 80.4321 61.2461 80.1222 61.5315L81.4772 63.0026ZM81.7424 61.8007L89.3958 62.0223L89.4537 60.0231L81.8002 59.8016L81.7424 61.8007ZM88.4415 60.8404C88.1536 62.393 87.527 63.7252 86.5655 64.8588L88.0907 66.1525C89.2883 64.7407 90.0595 63.0842 90.408 61.205L88.4415 60.8404ZM86.565 64.8594C85.6148 65.9815 84.3514 66.8757 82.7423 67.5277L83.4935 69.3813C85.3616 68.6243 86.9051 67.5526 88.0913 66.1519L86.565 64.8594ZM82.7476 67.5257C81.1496 68.1628 79.2682 68.4943 77.0838 68.4943V70.4943C79.4676 70.4943 81.609 70.1327 83.4882 69.3834L82.7476 67.5257ZM98.9148 67.875L98.4317 68.7506L98.4377 68.7539L98.9148 67.875ZM94.3466 63.2216L93.4603 63.6847L93.4634 63.6906L94.3466 63.2216ZM94.3636 48.9205L95.2479 49.3874L95.249 49.3854L94.3636 48.9205ZM98.8807 44.1818L99.3817 45.0473L99.3855 45.045L98.8807 44.1818ZM110.864 43.3466L111.215 42.4103L111.215 42.4103L110.864 43.3466ZM117.494 50.1307L116.558 50.4811L116.559 50.4832L117.494 50.1307ZM118.432 57.9205V58.9205H119.432V57.9205H118.432ZM95.6761 57.9205H94.6761V58.9205H95.6761V57.9205ZM95.6761 53.0795V52.0795H94.6761V53.0795H95.6761ZM110.676 53.0795V54.0795H111.689L111.676 53.0667L110.676 53.0795ZM108.358 49.0909L107.866 49.9617L107.875 49.9664L107.883 49.9709L108.358 49.0909ZM103.415 49.125L103.899 49.9999L103.909 49.9941L103.415 49.125ZM101.659 50.8125L102.512 51.3351L102.515 51.329L101.659 50.8125ZM100.977 53.2159L99.9776 53.1906L99.9773 53.2033V53.2159H100.977ZM101.608 60.9545L100.721 61.4167L100.724 61.4219L101.608 60.9545ZM103.398 62.8125L102.9 63.68L102.9 63.68L103.398 62.8125ZM108.17 63.1705L108.492 64.1173L108.492 64.1173L108.17 63.1705ZM109.722 62.267L110.399 63.0026L110.399 63.0026L109.722 62.267ZM110.693 60.8011L110.722 59.8016L110.006 59.7808L109.756 60.452L110.693 60.8011ZM118.347 61.0227L119.33 61.205L119.543 60.0569L118.376 60.0231L118.347 61.0227ZM116.25 65.5057L115.487 64.8588L115.487 64.8594L116.25 65.5057ZM112.04 68.4545L112.41 69.3835L112.415 69.3813L112.04 68.4545ZM106.006 68.4943C103.399 68.4943 101.206 67.9811 99.3919 66.9961L98.4377 68.7539C100.601 69.928 103.135 70.4943 106.006 70.4943V68.4943ZM99.3979 66.9994C97.5921 66.0032 96.2077 64.594 95.2298 62.7526L93.4634 63.6906C94.6218 65.8719 96.2829 67.565 98.4317 68.7506L99.3979 66.9994ZM95.2329 62.7585C94.2655 60.9068 93.7614 58.6692 93.7614 56.0114H91.7614C91.7614 58.9217 92.3141 61.4909 93.4603 63.6847L95.2329 62.7585ZM93.7614 56.0114C93.7614 53.4399 94.2685 51.2421 95.2479 49.3874L93.4794 48.4535C92.3225 50.6442 91.7614 53.1737 91.7614 56.0114H93.7614ZM95.249 49.3854C96.2316 47.5143 97.6058 46.0754 99.3817 45.0472L98.3796 43.3164C96.2692 44.5382 94.6321 46.2584 93.4783 48.4555L95.249 49.3854ZM99.3855 45.045C101.151 44.0126 103.26 43.4773 105.75 43.4773V41.4773C102.967 41.4773 100.497 42.0784 98.3759 43.3186L99.3855 45.045ZM105.75 43.4773C107.509 43.4773 109.093 43.7506 110.513 44.2829L111.215 42.4103C109.544 41.7835 107.718 41.4773 105.75 41.4773V43.4773ZM110.513 44.2829C111.927 44.8134 113.139 45.5936 114.159 46.624L115.58 45.2169C114.35 43.9746 112.891 43.0388 111.215 42.4103L110.513 44.2829ZM114.159 46.624C115.173 47.6489 115.977 48.9277 116.558 50.4811L118.431 49.7803C117.762 47.9928 116.815 46.4647 115.58 45.2169L114.159 46.624ZM116.559 50.4832C117.133 52.0086 117.432 53.7889 117.432 55.8409H119.432C119.432 53.5975 119.105 51.571 118.43 49.7782L116.559 50.4832ZM117.432 55.8409V57.9205H119.432V55.8409H117.432ZM118.432 56.9205H95.6761V58.9205H118.432V56.9205ZM96.6761 57.9205V53.0795H94.6761V57.9205H96.6761ZM95.6761 54.0795H110.676V52.0795H95.6761V54.0795ZM111.676 53.0667C111.663 52.0241 111.413 51.0603 110.907 50.202L109.184 51.2185C109.496 51.7466 109.667 52.3623 109.676 53.0924L111.676 53.0667ZM110.907 50.202C110.404 49.3503 109.707 48.6827 108.833 48.2109L107.883 49.9709C108.441 50.2718 108.869 50.6838 109.184 51.2185L110.907 50.202ZM108.85 48.2201C107.975 47.7266 106.989 47.4943 105.92 47.4943V49.4943C106.693 49.4943 107.331 49.6598 107.866 49.9617L108.85 48.2201ZM105.92 47.4943C104.832 47.4943 103.824 47.7416 102.92 48.2559L103.909 49.9941C104.483 49.6675 105.145 49.4943 105.92 49.4943V47.4943ZM102.93 48.2502C102.04 48.7432 101.326 49.4286 100.803 50.296L102.515 51.329C102.856 50.7646 103.312 50.3249 103.899 49.9998L102.93 48.2502ZM100.806 50.2899C100.275 51.1573 100.004 52.1328 99.9776 53.1906L101.977 53.2412C101.996 52.5036 102.18 51.8768 102.512 51.3351L100.806 50.2899ZM99.9773 53.2159V58.142H101.977V53.2159H99.9773ZM99.9773 58.142C99.9773 59.3431 100.214 60.4443 100.721 61.4167L102.495 60.4924C102.161 59.8512 101.977 59.0773 101.977 58.142H99.9773ZM100.724 61.4219C101.232 62.3828 101.962 63.1417 102.9 63.68L103.895 61.945C103.288 61.597 102.825 61.1172 102.492 60.4872L100.724 61.4219ZM102.9 63.68C103.852 64.2258 104.951 64.4773 106.159 64.4773V62.4773C105.231 62.4773 104.489 62.2856 103.895 61.945L102.9 63.68ZM106.159 64.4773C106.99 64.4773 107.771 64.3622 108.492 64.1173L107.849 62.2236C107.365 62.3878 106.806 62.4773 106.159 62.4773V64.4773ZM108.492 64.1173C109.215 63.8717 109.856 63.5025 110.399 63.0026L109.044 61.5315C108.723 61.8271 108.33 62.0601 107.849 62.2236L108.492 64.1173ZM110.399 63.0026C110.953 62.4926 111.362 61.8691 111.63 61.1502L109.756 60.452C109.592 60.8922 109.354 61.2461 109.044 61.5315L110.399 63.0026ZM110.664 61.8007L118.318 62.0223L118.376 60.0231L110.722 59.8016L110.664 61.8007ZM117.363 60.8404C117.075 62.393 116.449 63.7252 115.487 64.8588L117.013 66.1525C118.21 64.7407 118.981 63.0842 119.33 61.205L117.363 60.8404ZM115.487 64.8594C114.537 65.9815 113.273 66.8757 111.664 67.5277L112.415 69.3813C114.284 68.6243 115.827 67.5526 117.013 66.1519L115.487 64.8594ZM111.669 67.5257C110.071 68.1628 108.19 68.4943 106.006 68.4943V70.4943C108.389 70.4943 110.531 70.1327 112.41 69.3834L111.669 67.5257ZM122.689 69H121.689V70H122.689V69ZM122.689 42.8182V41.8182H121.689V42.8182H122.689ZM130.786 42.8182H131.786V41.8182H130.786V42.8182ZM130.786 47.5909H129.786V48.5909H130.786V47.5909ZM131.058 47.5909V48.5909H131.819L132.022 47.8572L131.058 47.5909ZM133.393 43.7386L134.008 44.5276L134.013 44.5235L133.393 43.7386ZM138.354 42.5455L138.216 43.5359L138.23 43.5378L138.243 43.5393L138.354 42.5455ZM139.496 42.767H140.496V42.0161L139.775 41.8067L139.496 42.767ZM139.496 50.0114L139.171 50.9573L140.496 51.4114V50.0114H139.496ZM137.928 49.6875L137.804 50.6798L137.806 50.68L137.928 49.6875ZM133.547 50.233L134.029 51.1089L134.034 51.1065L133.547 50.233ZM131.689 52.0568L130.824 51.5553L130.821 51.5593L131.689 52.0568ZM131.024 69V70H132.024V69H131.024ZM123.689 69V42.8182H121.689V69H123.689ZM122.689 43.8182H130.786V41.8182H122.689V43.8182ZM129.786 42.8182V47.5909H131.786V42.8182H129.786ZM130.786 48.5909H131.058V46.5909H130.786V48.5909ZM132.022 47.8572C132.46 46.2732 133.144 45.2006 134.008 44.5275L132.779 42.9497C131.484 43.9584 130.611 45.4541 130.094 47.3246L132.022 47.8572ZM134.013 44.5235C134.909 43.8166 135.944 43.4602 137.161 43.4602V41.4602C135.514 41.4602 134.038 41.9561 132.774 42.9538L134.013 44.5235ZM137.161 43.4602C137.498 43.4602 137.85 43.485 138.216 43.5359L138.491 41.555C138.04 41.4922 137.596 41.4602 137.161 41.4602V43.4602ZM138.243 43.5393C138.602 43.5792 138.926 43.6429 139.217 43.7274L139.775 41.8067C139.361 41.6866 138.923 41.6026 138.464 41.5516L138.243 43.5393ZM138.496 42.767V50.0114H140.496V42.767H138.496ZM139.82 49.0654C139.331 48.8978 138.733 48.7789 138.049 48.695L137.806 50.68C138.418 50.7552 138.865 50.8522 139.171 50.9573L139.82 49.0654ZM138.052 48.6952C137.385 48.6119 136.774 48.5682 136.223 48.5682V50.5682C136.672 50.5682 137.197 50.604 137.804 50.6798L138.052 48.6952ZM136.223 48.5682C135.079 48.5682 134.017 48.8263 133.06 49.3594L134.034 51.1065C134.668 50.7533 135.39 50.5682 136.223 50.5682V48.5682ZM133.064 49.357C132.119 49.8777 131.368 50.616 130.824 51.5553L132.554 52.5583C132.919 51.9295 133.407 51.4519 134.029 51.1089L133.064 49.357ZM130.821 51.5593C130.277 52.5079 130.024 53.5946 130.024 54.7841H132.024C132.024 53.8827 132.214 53.1512 132.556 52.5543L130.821 51.5593ZM130.024 54.7841V69H132.024V54.7841H130.024ZM131.024 68H122.689V70H131.024V68ZM152.062 40.9432H151.062V41.9432H152.062V40.9432ZM152.062 34.0909V33.0909H151.062V34.0909H152.062ZM181.568 34.0909H182.568V33.0909H181.568V34.0909ZM181.568 40.9432V41.9432H182.568V40.9432H181.568ZM170.983 40.9432V39.9432H169.983V40.9432H170.983ZM170.983 69V70H171.983V69H170.983ZM162.665 69H161.665V70H162.665V69ZM162.665 40.9432H163.665V39.9432H162.665V40.9432ZM153.062 40.9432V34.0909H151.062V40.9432H153.062ZM152.062 35.0909H181.568V33.0909H152.062V35.0909ZM180.568 34.0909V40.9432H182.568V34.0909H180.568ZM181.568 39.9432H170.983V41.9432H181.568V39.9432ZM169.983 40.9432V69H171.983V40.9432H169.983ZM170.983 68H162.665V70H170.983V68ZM163.665 69V40.9432H161.665V69H163.665ZM162.665 39.9432H152.062V41.9432H162.665V39.9432ZM185.689 69H184.689V70H185.689V69ZM185.689 42.8182V41.8182H184.689V42.8182H185.689ZM194.024 42.8182H195.024V41.8182H194.024V42.8182ZM194.024 69V70H195.024V69H194.024ZM186.848 38.608L186.166 39.3394L186.171 39.3443L186.848 38.608ZM186.848 32.983L187.525 33.7193L187.53 33.7143L186.848 32.983ZM192.882 32.983L192.195 33.7098L192.205 33.7193L192.882 32.983ZM192.882 38.608L193.564 39.3397L193.564 39.3393L192.882 38.608ZM186.689 69V42.8182H184.689V69H186.689ZM185.689 43.8182H194.024V41.8182H185.689V43.8182ZM193.024 42.8182V69H195.024V42.8182H193.024ZM194.024 68H185.689V70H194.024V68ZM189.865 38.767C188.938 38.767 188.176 38.4702 187.525 37.8716L186.171 39.3443C187.202 40.2912 188.451 40.767 189.865 40.767V38.767ZM187.53 37.8766C186.882 37.2724 186.587 36.5901 186.587 35.7784H184.587C184.587 37.1712 185.132 38.3753 186.166 39.3393L187.53 37.8766ZM186.587 35.7784C186.587 34.9819 186.879 34.3127 187.525 33.7193L186.171 32.2466C185.135 33.1987 184.587 34.3931 184.587 35.7784H186.587ZM187.53 33.7143C188.182 33.1063 188.943 32.8068 189.865 32.8068V30.8068C188.447 30.8068 187.196 31.2914 186.166 32.2516L187.53 33.7143ZM189.865 32.8068C190.801 32.8068 191.558 33.1078 192.195 33.7097L193.569 32.2562C192.547 31.2899 191.292 30.8068 189.865 30.8068V32.8068ZM192.205 33.7193C192.851 34.3127 193.143 34.9819 193.143 35.7784H195.143C195.143 34.3931 194.595 33.1987 193.559 32.2466L192.205 33.7193ZM193.143 35.7784C193.143 36.5901 192.848 37.2724 192.2 37.8766L193.564 39.3393C194.598 38.3753 195.143 37.1712 195.143 35.7784H193.143ZM192.2 37.8762C191.565 38.4686 190.806 38.767 189.865 38.767V40.767C191.288 40.767 192.541 40.2927 193.564 39.3397L192.2 37.8762ZM207.665 54.0682L206.665 54.0568V54.0682H207.665ZM207.665 69V70H208.665V69H207.665ZM199.33 69H198.33V70H199.33V69ZM199.33 42.8182V41.8182H198.33V42.8182H199.33ZM207.256 42.8182H208.256V41.8182H207.256V42.8182ZM207.256 47.625H206.256V48.625H207.256V47.625ZM207.545 47.625V48.625H208.247L208.486 47.9651L207.545 47.625ZM210.511 43.858L211.057 44.6963L211.061 44.6931L210.511 43.858ZM220.295 43.7216L219.773 44.574L219.781 44.5791L220.295 43.7216ZM223.466 47.1648L222.574 47.6175L222.578 47.6257L223.466 47.1648ZM224.591 52.3125L223.591 52.3067V52.3125H224.591ZM224.591 69V70H225.591V69H224.591ZM216.256 69H215.256V70H216.256V69ZM216.256 53.9489L215.256 53.9411V53.9489H216.256ZM215.148 50.5398L214.405 51.2099L214.411 51.2155L215.148 50.5398ZM209.744 49.892L210.239 50.7612L210.244 50.7585L209.744 49.892ZM208.21 51.5114L207.322 51.0527L207.316 51.0641L208.21 51.5114ZM206.665 54.0682V69H208.665V54.0682H206.665ZM207.665 68H199.33V70H207.665V68ZM200.33 69V42.8182H198.33V69H200.33ZM199.33 43.8182H207.256V41.8182H199.33V43.8182ZM206.256 42.8182V47.625H208.256V42.8182H206.256ZM207.256 48.625H207.545V46.625H207.256V48.625ZM208.486 47.9651C208.993 46.5627 209.846 45.4839 211.057 44.6962L209.966 43.0197C208.382 44.0502 207.257 45.4828 206.605 47.2849L208.486 47.9651ZM211.061 44.6931C212.272 43.896 213.738 43.4773 215.506 43.4773V41.4773C213.409 41.4773 211.546 41.979 209.961 43.0228L211.061 44.6931ZM215.506 43.4773C217.192 43.4773 218.601 43.8556 219.773 44.574L220.818 42.8692C219.285 41.9285 217.501 41.4773 215.506 41.4773V43.4773ZM219.781 44.5791C220.976 45.2963 221.906 46.3005 222.574 47.6175L224.358 46.7121C223.526 45.0745 222.342 43.7832 220.81 42.8641L219.781 44.5791ZM222.578 47.6257C223.252 48.9225 223.602 50.4724 223.591 52.3067L225.591 52.3183C225.603 50.2207 225.203 48.3389 224.353 46.7039L222.578 47.6257ZM223.591 52.3125V69H225.591V52.3125H223.591ZM224.591 68H216.256V70H224.591V68ZM217.256 69V53.9489H215.256V69H217.256ZM217.256 53.9567C217.268 52.33 216.853 50.9207 215.885 49.864L214.411 51.2155C214.942 51.7952 215.266 52.6586 215.256 53.9411L217.256 53.9567ZM215.89 49.8697C214.925 48.8005 213.603 48.3125 212.062 48.3125V50.3125C213.158 50.3125 213.893 50.6427 214.405 51.2099L215.89 49.8697ZM212.062 48.3125C211.036 48.3125 210.086 48.5408 209.245 49.0256L210.244 50.7585C210.743 50.4706 211.339 50.3125 212.062 50.3125V48.3125ZM209.25 49.0229C208.414 49.4982 207.77 50.1843 207.322 51.0527L209.099 51.97C209.378 51.4293 209.756 51.0359 210.239 50.7612L209.25 49.0229ZM207.316 51.0641C206.88 51.9356 206.677 52.945 206.665 54.0568L208.665 54.0795C208.675 53.1913 208.836 52.4963 209.105 51.9586L207.316 51.0641ZM244.53 42.8182H245.53V41.8182H244.53V42.8182ZM244.53 48.9545V49.9545H245.53V48.9545H244.53ZM228.013 48.9545H227.013V49.9545H228.013V48.9545ZM228.013 42.8182V41.8182H227.013V42.8182H228.013ZM231.473 36.5455V35.5455H230.473V36.5455H231.473ZM239.808 36.5455H240.808V35.5455H239.808V36.5455ZM240.047 62.0114L239.152 62.4586L239.162 62.478L239.173 62.497L240.047 62.0114ZM240.78 62.6761L240.386 63.5953L240.4 63.6013L240.414 63.6069L240.78 62.6761ZM242.928 62.7784L243.087 63.7656L243.099 63.7636L243.112 63.7613L242.928 62.7784ZM243.746 62.608L244.724 62.4028L244.511 61.3858L243.503 61.6378L243.746 62.608ZM245.007 68.625L245.282 69.5865L246.177 69.3308L245.986 68.4198L245.007 68.625ZM243.32 69.0511L243.091 68.0775L243.088 68.0783L243.32 69.0511ZM240.746 69.375L240.7 68.376L240.699 68.3761L240.746 69.375ZM235.717 68.6932L235.345 69.6212L235.354 69.6248L235.717 68.6932ZM232.53 66.1023L231.68 66.6301L231.684 66.636L232.53 66.1023ZM231.473 61.6875L232.473 61.7003V61.6875H231.473ZM243.53 42.8182V48.9545H245.53V42.8182H243.53ZM244.53 47.9545H228.013V49.9545H244.53V47.9545ZM229.013 48.9545V42.8182H227.013V48.9545H229.013ZM228.013 43.8182H244.53V41.8182H228.013V43.8182ZM231.473 37.5455H239.808V35.5455H231.473V37.5455ZM238.808 36.5455V60.767H240.808V36.5455H238.808ZM238.808 60.767C238.808 61.3705 238.9 61.9543 239.152 62.4586L240.941 61.5641C240.875 61.432 240.808 61.1864 240.808 60.767H238.808ZM239.173 62.497C239.449 62.9946 239.861 63.3703 240.386 63.5953L241.174 61.757C241.062 61.7092 240.985 61.6417 240.921 61.5257L239.173 62.497ZM240.414 63.6069C240.878 63.789 241.389 63.8636 241.922 63.8636V61.8636C241.569 61.8636 241.318 61.8133 241.145 61.7454L240.414 63.6069ZM241.922 63.8636C242.299 63.8636 242.688 63.83 243.087 63.7656L242.768 61.7912C242.462 61.8405 242.181 61.8636 241.922 61.8636V63.8636ZM243.112 63.7613C243.48 63.6922 243.777 63.631 243.988 63.5781L243.503 61.6378C243.351 61.6758 243.102 61.7282 242.743 61.7955L243.112 63.7613ZM242.767 62.8131L244.028 68.8302L245.986 68.4198L244.724 62.4028L242.767 62.8131ZM244.732 67.6635C244.358 67.7705 243.813 67.9083 243.091 68.0775L243.548 70.0248C244.28 69.853 244.861 69.7067 245.282 69.5865L244.732 67.6635ZM243.088 68.0783C242.451 68.2301 241.658 68.3325 240.7 68.376L240.791 70.374C241.833 70.3266 242.757 70.2131 243.551 70.0239L243.088 68.0783ZM240.699 68.3761C238.844 68.4624 237.315 68.2432 236.081 67.7616L235.354 69.6248C236.915 70.2341 238.738 70.4694 240.792 70.3739L240.699 68.3761ZM236.09 67.7652C234.882 67.2802 233.993 66.5468 233.376 65.5686L231.684 66.636C232.544 67.9987 233.779 68.9925 235.345 69.6211L236.09 67.7652ZM233.379 65.5745C232.778 64.6067 232.452 63.3362 232.473 61.7003L230.473 61.6747C230.449 63.5842 230.827 65.257 231.68 66.63L233.379 65.5745ZM232.473 61.6875V36.5455H230.473V61.6875H232.473Z" fill="black" fill-opacity="0.2" mask="url(#path-1-outside-1_138_515)"/>
</g>
</g>
<defs>
<filter id="filter0_dd_138_515" x="-3.37622" y="30.8068" width="253.553" height="47.6875" filterUnits="userSpaceOnUse" color-interpolation-filters="sRGB">
<feFlood flood-opacity="0" result="BackgroundImageFix"/>
<feColorMatrix in="SourceAlpha" type="matrix" values="0 0 0 0 0 0 0 0 0 0 0 0 0 0 0 0 0 0 127 0" result="hardAlpha"/>
<feOffset dy="4"/>
<feGaussianBlur stdDeviation="2"/>
<feComposite in2="hardAlpha" operator="out"/>
<feColorMatrix type="matrix" values="0 0 0 0 0 0 0 0 0 0 0 0 0 0 0 0 0 0 0.25 0"/>
<feBlend mode="normal" in2="BackgroundImageFix" result="effect1_dropShadow_138_515"/>
<feColorMatrix in="SourceAlpha" type="matrix" values="0 0 0 0 0 0 0 0 0 0 0 0 0 0 0 0 0 0 127 0" result="hardAlpha"/>
<feOffset dy="4"/>
<feGaussianBlur stdDeviation="2"/>
<feComposite in2="hardAlpha" operator="out"/>
<feColorMatrix type="matrix" values="0 0 0 0 0 0 0 0 0 0 0 0 0 0 0 0 0 0 0.25 0"/>
<feBlend mode="normal" in2="effect1_dropShadow_138_515" result="effect2_dropShadow_138_515"/>
<feBlend mode="normal" in="SourceGraphic" in2="effect2_dropShadow_138_515" result="shape"/>
</filter>
<clipPath id="clip0_138_515">
<rect width="322" height="117" fill="white"/>
</clipPath>
</defs>
</svg>
