<svg width="322" height="117" viewBox="0 0 322 117" fill="none" xmlns="http://www.w3.org/2000/svg">
<g clip-path="url(#clip0_139_521)">
<rect width="322" height="117" fill="white"/>
<g filter="url(#filter0_dd_139_521)">
<mask id="path-1-outside-1_139_521" maskUnits="userSpaceOnUse" x="0" y="30" width="187" height="41" fill="black">
<rect fill="white" y="30" width="187" height="41"/>
<path d="M1.5 40.9432V34.0909H31.0057V40.9432H20.4205V69H12.1023V40.9432H1.5ZM43.5511 69.4943C40.8011 69.4943 38.4375 68.9318 36.4602 67.8068C34.4943 66.6705 32.9773 65.0909 31.9091 63.0682C30.8523 61.0341 30.3239 58.6761 30.3239 55.9943C30.3239 53.3011 30.8523 50.9432 31.9091 48.9205C32.9773 46.8864 34.4943 45.3068 36.4602 44.1818C38.4375 43.0455 40.8011 42.4773 43.5511 42.4773C46.3011 42.4773 48.6591 43.0455 50.625 44.1818C52.6023 45.3068 54.1193 46.8864 55.1761 48.9205C56.2443 50.9432 56.7784 53.3011 56.7784 55.9943C56.7784 58.6761 56.2443 61.0341 55.1761 63.0682C54.1193 65.0909 52.6023 66.6705 50.625 67.8068C48.6591 68.9318 46.3011 69.4943 43.5511 69.4943ZM43.6023 63.2045C44.6023 63.2045 45.4489 62.8977 46.142 62.2841C46.8352 61.6705 47.3636 60.8182 47.7273 59.7273C48.1023 58.6364 48.2898 57.375 48.2898 55.9432C48.2898 54.4886 48.1023 53.2159 47.7273 52.125C47.3636 51.0341 46.8352 50.1818 46.142 49.5682C45.4489 48.9545 44.6023 48.6477 43.6023 48.6477C42.5682 48.6477 41.6932 48.9545 40.9773 49.5682C40.2727 50.1818 39.733 51.0341 39.358 52.125C38.9943 53.2159 38.8125 54.4886 38.8125 55.9432C38.8125 57.375 38.9943 58.6364 39.358 59.7273C39.733 60.8182 40.2727 61.6705 40.9773 62.2841C41.6932 62.8977 42.5682 63.2045 43.6023 63.2045ZM73.2869 69.4943C70.5483 69.4943 68.1847 68.9545 66.196 67.875C64.2188 66.7841 62.696 65.233 61.6278 63.2216C60.571 61.1989 60.0426 58.7955 60.0426 56.0114C60.0426 53.3068 60.5767 50.9432 61.6449 48.9205C62.7131 46.8864 64.2188 45.3068 66.1619 44.1818C68.1051 43.0455 70.3949 42.4773 73.0312 42.4773C74.8949 42.4773 76.5994 42.767 78.1449 43.3466C79.6903 43.9261 81.0256 44.7841 82.1506 45.9205C83.2756 47.0568 84.1506 48.4602 84.7756 50.1307C85.4006 51.7898 85.7131 53.6932 85.7131 55.8409V57.9205H62.9574V53.0795H77.9574C77.946 52.1932 77.7358 51.4034 77.3267 50.7102C76.9176 50.017 76.3551 49.4773 75.6392 49.0909C74.9347 48.6932 74.1222 48.4943 73.2017 48.4943C72.2699 48.4943 71.4347 48.7045 70.696 49.125C69.9574 49.5341 69.3722 50.0966 68.9403 50.8125C68.5085 51.517 68.2813 52.3182 68.2585 53.2159V58.142C68.2585 59.2102 68.4688 60.1477 68.8892 60.9545C69.3097 61.75 69.9062 62.3693 70.679 62.8125C71.4517 63.2557 72.3722 63.4773 73.4403 63.4773C74.179 63.4773 74.8494 63.375 75.4517 63.1705C76.054 62.9659 76.571 62.6648 77.0028 62.267C77.4347 61.8693 77.7585 61.3807 77.9744 60.8011L85.6278 61.0227C85.3097 62.7386 84.6108 64.233 83.5312 65.5057C82.4631 66.767 81.0597 67.75 79.321 68.4545C77.5824 69.1477 75.571 69.4943 73.2869 69.4943ZM129.993 34.0909V69H122.834L108.942 48.8523H108.72V69H100.283V34.0909H107.544L121.283 54.2045H121.572V34.0909H129.993ZM142.679 69.4432C141.009 69.4432 139.526 69.1648 138.23 68.608C136.946 68.0398 135.929 67.1875 135.179 66.0511C134.44 64.9034 134.071 63.4659 134.071 61.7386C134.071 60.2841 134.327 59.0568 134.838 58.0568C135.349 57.0568 136.054 56.2443 136.952 55.6193C137.849 54.9943 138.884 54.5227 140.054 54.2045C141.224 53.875 142.474 53.6534 143.804 53.5398C145.293 53.4034 146.491 53.2614 147.401 53.1136C148.31 52.9545 148.969 52.733 149.378 52.4489C149.798 52.1534 150.009 51.7386 150.009 51.2045V51.1193C150.009 50.2443 149.707 49.5682 149.105 49.0909C148.503 48.6136 147.69 48.375 146.668 48.375C145.565 48.375 144.679 48.6136 144.009 49.0909C143.338 49.5682 142.912 50.2273 142.73 51.0682L135.043 50.7955C135.27 49.2045 135.855 47.7841 136.798 46.5341C137.753 45.2727 139.06 44.2841 140.719 43.5682C142.389 42.8409 144.395 42.4773 146.736 42.4773C148.406 42.4773 149.946 42.6761 151.355 43.0739C152.764 43.4602 153.991 44.0284 155.037 44.7784C156.082 45.517 156.889 46.4261 157.457 47.5057C158.037 48.5852 158.327 49.8182 158.327 51.2045V69H150.486V65.3523H150.281C149.815 66.2386 149.219 66.9886 148.491 67.6023C147.776 68.2159 146.929 68.6761 145.952 68.983C144.986 69.2898 143.895 69.4432 142.679 69.4432ZM145.253 63.9886C146.151 63.9886 146.957 63.8068 147.673 63.4432C148.401 63.0795 148.98 62.5795 149.412 61.9432C149.844 61.2955 150.06 60.5455 150.06 59.6932V57.2045C149.821 57.3295 149.531 57.4432 149.19 57.5455C148.861 57.6477 148.497 57.7443 148.099 57.8352C147.702 57.9261 147.293 58.0057 146.872 58.0739C146.452 58.142 146.048 58.2045 145.662 58.2614C144.878 58.3864 144.207 58.5795 143.651 58.8409C143.105 59.1023 142.685 59.4432 142.389 59.8636C142.105 60.2727 141.963 60.7614 141.963 61.3295C141.963 62.1932 142.27 62.8523 142.884 63.3068C143.509 63.7614 144.298 63.9886 145.253 63.9886ZM163.423 69V42.8182H171.759V69H163.423ZM167.599 39.767C166.429 39.767 165.423 39.3807 164.582 38.608C163.741 37.8239 163.321 36.8807 163.321 35.7784C163.321 34.6875 163.741 33.7557 164.582 32.983C165.423 32.1989 166.429 31.8068 167.599 31.8068C168.781 31.8068 169.787 32.1989 170.616 32.983C171.457 33.7557 171.878 34.6875 171.878 35.7784C171.878 36.8807 171.457 37.8239 170.616 38.608C169.787 39.3807 168.781 39.767 167.599 39.767ZM185.399 34.0909V69H177.064V34.0909H185.399Z"/>
</mask>
<path d="M1.5 40.9432V34.0909H31.0057V40.9432H20.4205V69H12.1023V40.9432H1.5ZM43.5511 69.4943C40.8011 69.4943 38.4375 68.9318 36.4602 67.8068C34.4943 66.6705 32.9773 65.0909 31.9091 63.0682C30.8523 61.0341 30.3239 58.6761 30.3239 55.9943C30.3239 53.3011 30.8523 50.9432 31.9091 48.9205C32.9773 46.8864 34.4943 45.3068 36.4602 44.1818C38.4375 43.0455 40.8011 42.4773 43.5511 42.4773C46.3011 42.4773 48.6591 43.0455 50.625 44.1818C52.6023 45.3068 54.1193 46.8864 55.1761 48.9205C56.2443 50.9432 56.7784 53.3011 56.7784 55.9943C56.7784 58.6761 56.2443 61.0341 55.1761 63.0682C54.1193 65.0909 52.6023 66.6705 50.625 67.8068C48.6591 68.9318 46.3011 69.4943 43.5511 69.4943ZM43.6023 63.2045C44.6023 63.2045 45.4489 62.8977 46.142 62.2841C46.8352 61.6705 47.3636 60.8182 47.7273 59.7273C48.1023 58.6364 48.2898 57.375 48.2898 55.9432C48.2898 54.4886 48.1023 53.2159 47.7273 52.125C47.3636 51.0341 46.8352 50.1818 46.142 49.5682C45.4489 48.9545 44.6023 48.6477 43.6023 48.6477C42.5682 48.6477 41.6932 48.9545 40.9773 49.5682C40.2727 50.1818 39.733 51.0341 39.358 52.125C38.9943 53.2159 38.8125 54.4886 38.8125 55.9432C38.8125 57.375 38.9943 58.6364 39.358 59.7273C39.733 60.8182 40.2727 61.6705 40.9773 62.2841C41.6932 62.8977 42.5682 63.2045 43.6023 63.2045ZM73.2869 69.4943C70.5483 69.4943 68.1847 68.9545 66.196 67.875C64.2188 66.7841 62.696 65.233 61.6278 63.2216C60.571 61.1989 60.0426 58.7955 60.0426 56.0114C60.0426 53.3068 60.5767 50.9432 61.6449 48.9205C62.7131 46.8864 64.2188 45.3068 66.1619 44.1818C68.1051 43.0455 70.3949 42.4773 73.0312 42.4773C74.8949 42.4773 76.5994 42.767 78.1449 43.3466C79.6903 43.9261 81.0256 44.7841 82.1506 45.9205C83.2756 47.0568 84.1506 48.4602 84.7756 50.1307C85.4006 51.7898 85.7131 53.6932 85.7131 55.8409V57.9205H62.9574V53.0795H77.9574C77.946 52.1932 77.7358 51.4034 77.3267 50.7102C76.9176 50.017 76.3551 49.4773 75.6392 49.0909C74.9347 48.6932 74.1222 48.4943 73.2017 48.4943C72.2699 48.4943 71.4347 48.7045 70.696 49.125C69.9574 49.5341 69.3722 50.0966 68.9403 50.8125C68.5085 51.517 68.2813 52.3182 68.2585 53.2159V58.142C68.2585 59.2102 68.4688 60.1477 68.8892 60.9545C69.3097 61.75 69.9062 62.3693 70.679 62.8125C71.4517 63.2557 72.3722 63.4773 73.4403 63.4773C74.179 63.4773 74.8494 63.375 75.4517 63.1705C76.054 62.9659 76.571 62.6648 77.0028 62.267C77.4347 61.8693 77.7585 61.3807 77.9744 60.8011L85.6278 61.0227C85.3097 62.7386 84.6108 64.233 83.5312 65.5057C82.4631 66.767 81.0597 67.75 79.321 68.4545C77.5824 69.1477 75.571 69.4943 73.2869 69.4943ZM129.993 34.0909V69H122.834L108.942 48.8523H108.72V69H100.283V34.0909H107.544L121.283 54.2045H121.572V34.0909H129.993ZM142.679 69.4432C141.009 69.4432 139.526 69.1648 138.23 68.608C136.946 68.0398 135.929 67.1875 135.179 66.0511C134.44 64.9034 134.071 63.4659 134.071 61.7386C134.071 60.2841 134.327 59.0568 134.838 58.0568C135.349 57.0568 136.054 56.2443 136.952 55.6193C137.849 54.9943 138.884 54.5227 140.054 54.2045C141.224 53.875 142.474 53.6534 143.804 53.5398C145.293 53.4034 146.491 53.2614 147.401 53.1136C148.31 52.9545 148.969 52.733 149.378 52.4489C149.798 52.1534 150.009 51.7386 150.009 51.2045V51.1193C150.009 50.2443 149.707 49.5682 149.105 49.0909C148.503 48.6136 147.69 48.375 146.668 48.375C145.565 48.375 144.679 48.6136 144.009 49.0909C143.338 49.5682 142.912 50.2273 142.73 51.0682L135.043 50.7955C135.27 49.2045 135.855 47.7841 136.798 46.5341C137.753 45.2727 139.06 44.2841 140.719 43.5682C142.389 42.8409 144.395 42.4773 146.736 42.4773C148.406 42.4773 149.946 42.6761 151.355 43.0739C152.764 43.4602 153.991 44.0284 155.037 44.7784C156.082 45.517 156.889 46.4261 157.457 47.5057C158.037 48.5852 158.327 49.8182 158.327 51.2045V69H150.486V65.3523H150.281C149.815 66.2386 149.219 66.9886 148.491 67.6023C147.776 68.2159 146.929 68.6761 145.952 68.983C144.986 69.2898 143.895 69.4432 142.679 69.4432ZM145.253 63.9886C146.151 63.9886 146.957 63.8068 147.673 63.4432C148.401 63.0795 148.98 62.5795 149.412 61.9432C149.844 61.2955 150.06 60.5455 150.06 59.6932V57.2045C149.821 57.3295 149.531 57.4432 149.19 57.5455C148.861 57.6477 148.497 57.7443 148.099 57.8352C147.702 57.9261 147.293 58.0057 146.872 58.0739C146.452 58.142 146.048 58.2045 145.662 58.2614C144.878 58.3864 144.207 58.5795 143.651 58.8409C143.105 59.1023 142.685 59.4432 142.389 59.8636C142.105 60.2727 141.963 60.7614 141.963 61.3295C141.963 62.1932 142.27 62.8523 142.884 63.3068C143.509 63.7614 144.298 63.9886 145.253 63.9886ZM163.423 69V42.8182H171.759V69H163.423ZM167.599 39.767C166.429 39.767 165.423 39.3807 164.582 38.608C163.741 37.8239 163.321 36.8807 163.321 35.7784C163.321 34.6875 163.741 33.7557 164.582 32.983C165.423 32.1989 166.429 31.8068 167.599 31.8068C168.781 31.8068 169.787 32.1989 170.616 32.983C171.457 33.7557 171.878 34.6875 171.878 35.7784C171.878 36.8807 171.457 37.8239 170.616 38.608C169.787 39.3807 168.781 39.767 167.599 39.767ZM185.399 34.0909V69H177.064V34.0909H185.399Z" fill="#002855"/>
<path d="M1.5 40.9432H0.5V41.9432H1.5V40.9432ZM1.5 34.0909V33.0909H0.5V34.0909H1.5ZM31.0057 34.0909H32.0057V33.0909H31.0057V34.0909ZM31.0057 40.9432V41.9432H32.0057V40.9432H31.0057ZM20.4205 40.9432V39.9432H19.4205V40.9432H20.4205ZM20.4205 69V70H21.4205V69H20.4205ZM12.1023 69H11.1023V70H12.1023V69ZM12.1023 40.9432H13.1023V39.9432H12.1023V40.9432ZM2.5 40.9432V34.0909H0.5V40.9432H2.5ZM1.5 35.0909H31.0057V33.0909H1.5V35.0909ZM30.0057 34.0909V40.9432H32.0057V34.0909H30.0057ZM31.0057 39.9432H20.4205V41.9432H31.0057V39.9432ZM19.4205 40.9432V69H21.4205V40.9432H19.4205ZM20.4205 68H12.1023V70H20.4205V68ZM13.1023 69V40.9432H11.1023V69H13.1023ZM12.1023 39.9432H1.5V41.9432H12.1023V39.9432ZM36.4602 67.8068L35.9598 68.6726L35.9657 68.676L36.4602 67.8068ZM31.9091 63.0682L31.0217 63.5292L31.0248 63.5352L31.9091 63.0682ZM31.9091 48.9205L31.0237 48.4555L31.0228 48.4574L31.9091 48.9205ZM36.4602 44.1818L36.9569 45.0498L36.9585 45.0488L36.4602 44.1818ZM50.625 44.1818L50.1245 45.0476L50.1305 45.051L50.625 44.1818ZM55.1761 48.9205L54.2887 49.3815L54.2919 49.3874L55.1761 48.9205ZM55.1761 63.0682L54.2908 62.6032L54.2898 62.6051L55.1761 63.0682ZM50.625 67.8068L51.1217 68.6748L51.1233 68.6738L50.625 67.8068ZM46.142 62.2841L45.4792 61.5353L45.4792 61.5353L46.142 62.2841ZM47.7273 59.7273L46.7815 59.4022L46.7786 59.411L47.7273 59.7273ZM47.7273 52.125L46.7785 52.4412L46.7816 52.4501L47.7273 52.125ZM46.142 49.5682L46.8049 48.8194L46.8049 48.8194L46.142 49.5682ZM40.9773 49.5682L40.3265 48.8089L40.3205 48.8141L40.9773 49.5682ZM39.358 52.125L38.4122 51.7999L38.4093 51.8088L39.358 52.125ZM39.358 59.7273L38.4092 60.0435L38.4123 60.0524L39.358 59.7273ZM40.9773 62.2841L40.3205 63.0382L40.3265 63.0433L40.9773 62.2841ZM43.5511 68.4943C40.9384 68.4943 38.7528 67.9607 36.9548 66.9377L35.9657 68.676C38.1222 69.903 40.6639 70.4943 43.5511 70.4943V68.4943ZM36.9607 66.941C35.1589 65.8996 33.7744 64.4588 32.7934 62.6012L31.0248 63.5352C32.1802 65.723 33.8297 67.4413 35.9598 68.6726L36.9607 66.941ZM32.7965 62.6071C31.8253 60.7379 31.3239 58.5429 31.3239 55.9943H29.3239C29.3239 58.8093 29.8793 61.3303 31.0217 63.5292L32.7965 62.6071ZM31.3239 55.9943C31.3239 53.4334 31.8256 51.2397 32.7954 49.3835L31.0228 48.4574C29.8789 50.6467 29.3239 53.1689 29.3239 55.9943H31.3239ZM32.7944 49.3854C33.7754 47.5173 35.1588 46.0787 36.9569 45.0498L35.9635 43.3139C33.8299 44.5349 32.1791 46.2554 31.0237 48.4555L32.7944 49.3854ZM36.9585 45.0488C38.7558 44.0159 40.94 43.4773 43.5511 43.4773V41.4773C40.6622 41.4773 38.1192 42.075 35.9619 43.3148L36.9585 45.0488ZM43.5511 43.4773C46.1624 43.4773 48.3399 44.016 50.1246 45.0476L51.1254 43.316C48.9783 42.0749 46.4398 41.4773 43.5511 41.4773V43.4773ZM50.1305 45.051C51.9388 46.0799 53.3201 47.5171 54.2888 49.3815L56.0635 48.4594C54.9185 46.2556 53.2657 44.5338 51.1195 43.3127L50.1305 45.051ZM54.2919 49.3874C55.2716 51.2427 55.7784 53.435 55.7784 55.9943H57.7784C57.7784 53.1672 57.217 50.6436 56.0604 48.4535L54.2919 49.3874ZM55.7784 55.9943C55.7784 58.5413 55.272 60.7348 54.2908 62.6033L56.0615 63.5331C57.2167 61.3334 57.7784 58.811 57.7784 55.9943H55.7784ZM54.2898 62.6051C53.3212 64.4591 51.9387 65.8984 50.1267 66.9398L51.1233 68.6738C53.2659 67.4425 54.9175 65.7227 56.0625 63.5313L54.2898 62.6051ZM50.1283 66.9389C48.3429 67.9606 46.1641 68.4943 43.5511 68.4943V70.4943C46.4382 70.4943 48.9753 69.9031 51.1217 68.6748L50.1283 66.9389ZM43.6023 64.2045C44.8253 64.2045 45.9135 63.8219 46.8049 63.0329L45.4792 61.5353C44.9842 61.9736 44.3793 62.2045 43.6023 62.2045V64.2045ZM46.8049 63.0329C47.658 62.2776 48.2701 61.2612 48.676 60.0435L46.7786 59.411C46.4572 60.3751 46.0124 61.0633 45.4792 61.5353L46.8049 63.0329ZM48.673 60.0524C49.0914 58.8351 49.2898 57.46 49.2898 55.9432H47.2898C47.2898 57.29 47.1132 58.4376 46.7816 59.4022L48.673 60.0524ZM49.2898 55.9432C49.2898 54.4056 49.0919 53.0187 48.673 51.7999L46.7816 52.4501C47.1126 53.4132 47.2898 54.5717 47.2898 55.9432H49.2898ZM48.676 51.8088C48.2701 50.5911 47.658 49.5747 46.8049 48.8194L45.4792 50.3169C46.0124 50.789 46.4572 51.4771 46.7786 52.4412L48.676 51.8088ZM46.8049 48.8194C45.9135 48.0304 44.8253 47.6477 43.6023 47.6477V49.6477C44.3793 49.6477 44.9842 49.8787 45.4792 50.3169L46.8049 48.8194ZM43.6023 47.6477C42.3543 47.6477 41.2416 48.0245 40.3265 48.8089L41.6281 50.3274C42.1447 49.8846 42.7821 49.6477 43.6023 49.6477V47.6477ZM40.3205 48.8141C39.456 49.5671 38.831 50.5818 38.4123 51.7999L40.3036 52.4501C40.6349 51.4864 41.0895 50.7966 41.6341 50.3223L40.3205 48.8141ZM38.4093 51.8088C38.004 53.0245 37.8125 54.4083 37.8125 55.9432H39.8125C39.8125 54.569 39.9846 53.4073 40.3066 52.4412L38.4093 51.8088ZM37.8125 55.9432C37.8125 57.4572 38.0045 58.8292 38.4093 60.0435L40.3066 59.411C39.9841 58.4436 39.8125 57.2928 39.8125 55.9432H37.8125ZM38.4123 60.0524C38.831 61.2705 39.456 62.2852 40.3205 63.0382L41.6341 61.53C41.0895 61.0557 40.6349 60.3658 40.3036 59.4022L38.4123 60.0524ZM40.3265 63.0433C41.2416 63.8278 42.3543 64.2045 43.6023 64.2045V62.2045C42.7821 62.2045 42.1447 61.9677 41.6281 61.5248L40.3265 63.0433ZM66.196 67.875L65.7129 68.7506L65.7189 68.7539L66.196 67.875ZM61.6278 63.2216L60.7415 63.6847L60.7447 63.6906L61.6278 63.2216ZM61.6449 48.9205L62.5292 49.3874L62.5302 49.3854L61.6449 48.9205ZM66.1619 44.1818L66.663 45.0473L66.6667 45.045L66.1619 44.1818ZM78.1449 43.3466L78.496 42.4103L78.496 42.4103L78.1449 43.3466ZM84.7756 50.1307L83.839 50.4811L83.8398 50.4832L84.7756 50.1307ZM85.7131 57.9205V58.9205H86.7131V57.9205H85.7131ZM62.9574 57.9205H61.9574V58.9205H62.9574V57.9205ZM62.9574 53.0795V52.0795H61.9574V53.0795H62.9574ZM77.9574 53.0795V54.0795H78.9703L78.9573 53.0667L77.9574 53.0795ZM75.6392 49.0909L75.1476 49.9617L75.1559 49.9664L75.1643 49.9709L75.6392 49.0909ZM70.696 49.125L71.1806 49.9999L71.1907 49.9941L70.696 49.125ZM68.9403 50.8125L69.793 51.3351L69.7966 51.329L68.9403 50.8125ZM68.2585 53.2159L67.2588 53.1906L67.2585 53.2033V53.2159H68.2585ZM68.8892 60.9545L68.0024 61.4167L68.0051 61.4219L68.8892 60.9545ZM70.679 62.8125L70.1815 63.68L70.1815 63.68L70.679 62.8125ZM75.4517 63.1705L75.7733 64.1173L75.7733 64.1173L75.4517 63.1705ZM77.0028 62.267L77.6803 63.0026L77.6803 63.0026L77.0028 62.267ZM77.9744 60.8011L78.0034 59.8016L77.2874 59.7808L77.0374 60.452L77.9744 60.8011ZM85.6278 61.0227L86.6111 61.205L86.824 60.0569L85.6568 60.0231L85.6278 61.0227ZM83.5312 65.5057L82.7686 64.8588L82.7681 64.8594L83.5312 65.5057ZM79.321 68.4545L79.6914 69.3835L79.6966 69.3813L79.321 68.4545ZM73.2869 68.4943C70.6801 68.4943 68.4875 67.9811 66.6731 66.9961L65.7189 68.7539C67.8818 69.928 70.4165 70.4943 73.2869 70.4943V68.4943ZM66.6791 66.9994C64.8734 66.0032 63.489 64.594 62.511 62.7526L60.7447 63.6906C61.9031 65.8719 63.5641 67.565 65.7129 68.7506L66.6791 66.9994ZM62.5142 62.7585C61.5467 60.9068 61.0426 58.6692 61.0426 56.0114H59.0426C59.0426 58.9217 59.5953 61.4909 60.7415 63.6847L62.5142 62.7585ZM61.0426 56.0114C61.0426 53.4399 61.5497 51.2421 62.5292 49.3874L60.7606 48.4535C59.6037 50.6442 59.0426 53.1737 59.0426 56.0114H61.0426ZM62.5302 49.3854C63.5128 47.5143 64.8871 46.0754 66.663 45.0472L65.6609 43.3164C63.5504 44.5382 61.9133 46.2584 60.7595 48.4555L62.5302 49.3854ZM66.6667 45.045C68.4323 44.0126 70.5416 43.4773 73.0312 43.4773V41.4773C70.2481 41.4773 67.7779 42.0784 65.6571 43.3186L66.6667 45.045ZM73.0312 43.4773C74.7903 43.4773 76.3741 43.7506 77.7938 44.2829L78.496 42.4103C76.8248 41.7835 74.9994 41.4773 73.0312 41.4773V43.4773ZM77.7938 44.2829C79.2084 44.8134 80.4199 45.5936 81.4399 46.624L82.8612 45.2169C81.6313 43.9746 80.1722 43.0388 78.496 42.4103L77.7938 44.2829ZM81.4399 46.624C82.4546 47.6489 83.2578 48.9277 83.839 50.4811L85.7122 49.7803C85.0434 47.9928 84.0965 46.4647 82.8612 45.2169L81.4399 46.624ZM83.8398 50.4832C84.4144 52.0086 84.7131 53.7889 84.7131 55.8409H86.7131C86.7131 53.5975 86.3867 51.571 85.7114 49.7782L83.8398 50.4832ZM84.7131 55.8409V57.9205H86.7131V55.8409H84.7131ZM85.7131 56.9205H62.9574V58.9205H85.7131V56.9205ZM63.9574 57.9205V53.0795H61.9574V57.9205H63.9574ZM62.9574 54.0795H77.9574V52.0795H62.9574V54.0795ZM78.9573 53.0667C78.9439 52.0241 78.6944 51.0603 78.1879 50.202L76.4655 51.2185C76.7772 51.7466 76.9481 52.3623 76.9575 53.0924L78.9573 53.0667ZM78.1879 50.202C77.6853 49.3503 76.9884 48.6827 76.1141 48.2109L75.1643 49.9709C75.7218 50.2718 76.15 50.6838 76.4655 51.2185L78.1879 50.202ZM76.1308 48.2201C75.2566 47.7266 74.2703 47.4943 73.2017 47.4943V49.4943C73.974 49.4943 74.6127 49.6598 75.1476 49.9617L76.1308 48.2201ZM73.2017 47.4943C72.1136 47.4943 71.105 47.7416 70.2013 48.2559L71.1907 49.9941C71.7644 49.6675 72.4262 49.4943 73.2017 49.4943V47.4943ZM70.2115 48.2502C69.3213 48.7432 68.6072 49.4286 68.084 50.296L69.7966 51.329C70.1371 50.7646 70.5934 50.3249 71.1805 49.9998L70.2115 48.2502ZM68.0877 50.2899C67.5561 51.1573 67.2856 52.1328 67.2588 53.1906L69.2582 53.2412C69.2769 52.5036 69.4609 51.8768 69.7929 51.3351L68.0877 50.2899ZM67.2585 53.2159V58.142H69.2585V53.2159H67.2585ZM67.2585 58.142C67.2585 59.3431 67.4956 60.4443 68.0024 61.4167L69.776 60.4924C69.4419 59.8512 69.2585 59.0773 69.2585 58.142H67.2585ZM68.0051 61.4219C68.513 62.3828 69.2429 63.1417 70.1815 63.68L71.1765 61.945C70.5696 61.597 70.1063 61.1172 69.7733 60.4872L68.0051 61.4219ZM70.1815 63.68C71.1332 64.2258 72.2324 64.4773 73.4403 64.4773V62.4773C72.5119 62.4773 71.7702 62.2856 71.1765 61.945L70.1815 63.68ZM73.4403 64.4773C74.2711 64.4773 75.0523 64.3622 75.7733 64.1173L75.1301 62.2236C74.6466 62.3878 74.0869 62.4773 73.4403 62.4773V64.4773ZM75.7733 64.1173C76.4965 63.8717 77.1376 63.5025 77.6803 63.0026L76.3254 61.5315C76.0045 61.8271 75.6115 62.0601 75.1301 62.2236L75.7733 64.1173ZM77.6803 63.0026C78.2341 62.4926 78.6437 61.8691 78.9115 61.1502L77.0374 60.452C76.8733 60.8922 76.6353 61.2461 76.3254 61.5315L77.6803 63.0026ZM77.9455 61.8007L85.5989 62.0223L85.6568 60.0231L78.0034 59.8016L77.9455 61.8007ZM84.6446 60.8404C84.3567 62.393 83.7302 63.7252 82.7686 64.8588L84.2939 66.1525C85.4914 64.7407 86.2626 63.0842 86.6111 61.205L84.6446 60.8404ZM82.7681 64.8594C81.8179 65.9815 80.5546 66.8757 78.9455 67.5277L79.6966 69.3813C81.5648 68.6243 83.1082 67.5526 84.2944 66.1519L82.7681 64.8594ZM78.9507 67.5257C77.3527 68.1628 75.4713 68.4943 73.2869 68.4943V70.4943C75.6707 70.4943 77.8121 70.1327 79.6914 69.3834L78.9507 67.5257ZM129.993 34.0909H130.993V33.0909H129.993V34.0909ZM129.993 69V70H130.993V69H129.993ZM122.834 69L122.011 69.5677L122.309 70H122.834V69ZM108.942 48.8523L109.765 48.2846L109.467 47.8523H108.942V48.8523ZM108.72 48.8523V47.8523H107.72V48.8523H108.72ZM108.72 69V70H109.72V69H108.72ZM100.283 69H99.2827V70H100.283V69ZM100.283 34.0909V33.0909H99.2827V34.0909H100.283ZM107.544 34.0909L108.37 33.5269L108.072 33.0909H107.544V34.0909ZM121.283 54.2045L120.457 54.7686L120.755 55.2045H121.283V54.2045ZM121.572 54.2045V55.2045H122.572V54.2045H121.572ZM121.572 34.0909V33.0909H120.572V34.0909H121.572ZM128.993 34.0909V69H130.993V34.0909H128.993ZM129.993 68H122.834V70H129.993V68ZM123.657 68.4323L109.765 48.2846L108.118 49.4199L122.011 69.5677L123.657 68.4323ZM108.942 47.8523H108.72V49.8523H108.942V47.8523ZM107.72 48.8523V69H109.72V48.8523H107.72ZM108.72 68H100.283V70H108.72V68ZM101.283 69V34.0909H99.2827V69H101.283ZM100.283 35.0909H107.544V33.0909H100.283V35.0909ZM106.718 34.6549L120.457 54.7686L122.108 53.6405L108.37 33.5269L106.718 34.6549ZM121.283 55.2045H121.572V53.2045H121.283V55.2045ZM122.572 54.2045V34.0909H120.572V54.2045H122.572ZM121.572 35.0909H129.993V33.0909H121.572V35.0909ZM138.23 68.608L137.825 69.5225L137.835 69.5267L138.23 68.608ZM135.179 66.0511L134.338 66.5924L134.344 66.602L135.179 66.0511ZM134.838 58.0568L133.948 57.6015L133.948 57.6015L134.838 58.0568ZM136.952 55.6193L137.523 56.44L137.523 56.44L136.952 55.6193ZM140.054 54.2045L140.316 55.1696L140.325 55.1671L140.054 54.2045ZM143.804 53.5398L143.889 54.5362L143.895 54.5356L143.804 53.5398ZM147.401 53.1136L147.561 54.1008L147.573 54.0987L147.401 53.1136ZM149.378 52.4489L149.948 53.2702L149.953 53.2671L149.378 52.4489ZM149.105 49.0909L149.726 48.3072L149.726 48.3072L149.105 49.0909ZM144.009 49.0909L143.429 48.2762L143.429 48.2762L144.009 49.0909ZM142.73 51.0682L142.695 52.0676L143.531 52.0972L143.708 51.2795L142.73 51.0682ZM135.043 50.7955L134.053 50.654L133.895 51.7554L135.007 51.7948L135.043 50.7955ZM136.798 46.5341L136.001 45.9306L136 45.9318L136.798 46.5341ZM140.719 43.5682L141.115 44.4864L141.118 44.4851L140.719 43.5682ZM151.355 43.0739L151.083 44.0363L151.091 44.0383L151.355 43.0739ZM155.037 44.7784L154.454 45.591L154.46 45.5951L155.037 44.7784ZM157.457 47.5057L156.572 47.9714L156.576 47.9787L157.457 47.5057ZM158.327 69V70H159.327V69H158.327ZM150.486 69H149.486V70H150.486V69ZM150.486 65.3523H151.486V64.3523H150.486V65.3523ZM150.281 65.3523V64.3523H149.677L149.396 64.887L150.281 65.3523ZM148.491 67.6023L147.847 66.838L147.841 66.843L148.491 67.6023ZM145.952 68.983L145.652 68.0289L145.649 68.0299L145.952 68.983ZM147.673 63.4432L147.226 62.5487L147.22 62.5516L147.673 63.4432ZM149.412 61.9432L150.239 62.5047L150.244 62.4979L149.412 61.9432ZM150.06 57.2045H151.06V55.5519L149.596 56.3187L150.06 57.2045ZM149.19 57.5455L148.903 56.5876L148.894 56.5904L149.19 57.5455ZM146.872 58.0739L147.032 59.061L147.032 59.061L146.872 58.0739ZM145.662 58.2614L145.516 57.2719L145.505 57.2738L145.662 58.2614ZM143.651 58.8409L143.226 57.9356L143.218 57.9391L143.651 58.8409ZM142.389 59.8636L141.571 59.2887L141.568 59.2932L142.389 59.8636ZM142.884 63.3068L142.288 64.1104L142.295 64.1156L142.884 63.3068ZM142.679 68.4432C141.12 68.4432 139.775 68.1835 138.625 67.6892L137.835 69.5267C139.276 70.1461 140.897 70.4432 142.679 70.4432V68.4432ZM138.635 67.6935C137.52 67.2003 136.655 66.4716 136.014 65.5003L134.344 66.602C135.203 67.9034 136.372 68.8793 137.825 69.5224L138.635 67.6935ZM136.02 65.51C135.409 64.5615 135.071 63.3246 135.071 61.7386H133.071C133.071 63.6072 133.471 65.2453 134.338 66.5923L136.02 65.51ZM135.071 61.7386C135.071 60.3972 135.307 59.3358 135.728 58.5121L133.948 57.6015C133.346 58.7778 133.071 60.171 133.071 61.7386H135.071ZM135.728 58.5121C136.167 57.6542 136.764 56.9687 137.523 56.44L136.38 54.7986C135.344 55.52 134.532 56.4595 133.948 57.6015L135.728 58.5121ZM137.523 56.44C138.317 55.8872 139.244 55.4609 140.316 55.1695L139.792 53.2396C138.523 53.5845 137.382 54.1015 136.38 54.7986L137.523 56.44ZM140.325 55.1671C141.429 54.8562 142.616 54.6449 143.889 54.5361L143.719 52.5434C142.332 52.6619 141.02 52.8938 139.783 53.242L140.325 55.1671ZM143.895 54.5356C145.395 54.3982 146.619 54.2537 147.561 54.1007L147.24 52.1266C146.364 52.269 145.191 52.4086 143.713 52.5439L143.895 54.5356ZM147.573 54.0987C148.523 53.9323 149.357 53.6807 149.948 53.2702L148.807 51.6275C148.58 51.7852 148.096 51.9768 147.228 52.1286L147.573 54.0987ZM149.953 53.2671C150.652 52.7758 151.009 52.0491 151.009 51.2045H149.009C149.009 51.4282 148.945 51.531 148.803 51.6307L149.953 53.2671ZM151.009 51.2045V51.1193H149.009V51.2045H151.009ZM151.009 51.1193C151.009 49.9868 150.603 49.002 149.726 48.3072L148.484 49.8747C148.812 50.1344 149.009 50.5018 149.009 51.1193H151.009ZM149.726 48.3072C148.896 47.6496 147.841 47.375 146.668 47.375V49.375C147.539 49.375 148.109 49.5776 148.484 49.8747L149.726 48.3072ZM146.668 47.375C145.427 47.375 144.317 47.6435 143.429 48.2762L144.588 49.9056C145.041 49.5837 145.704 49.375 146.668 49.375V47.375ZM143.429 48.2762C142.545 48.9051 141.985 49.7845 141.753 50.8568L143.708 51.2795C143.839 50.6701 144.131 50.2312 144.588 49.9056L143.429 48.2762ZM142.766 50.0688L135.078 49.7961L135.007 51.7948L142.695 52.0676L142.766 50.0688ZM136.033 50.9369C136.237 49.5087 136.758 48.2478 137.597 47.1364L136 45.9318C134.952 47.3204 134.303 48.9003 134.053 50.654L136.033 50.9369ZM137.596 47.1375C138.432 46.0326 139.592 45.1437 141.115 44.4863L140.323 42.65C138.528 43.4245 137.074 44.5129 136.001 45.9306L137.596 47.1375ZM141.118 44.4851C142.632 43.8258 144.495 43.4773 146.736 43.4773V41.4773C144.295 41.4773 142.146 41.856 140.32 42.6513L141.118 44.4851ZM146.736 43.4773C148.327 43.4773 149.774 43.6667 151.083 44.0363L151.627 42.1115C150.118 41.6856 148.485 41.4773 146.736 41.4773V43.4773ZM151.091 44.0383C152.401 44.3975 153.517 44.9187 154.454 45.5909L155.62 43.9659C154.466 43.1381 153.128 42.523 151.62 42.1095L151.091 44.0383ZM154.46 45.5951C155.383 46.2473 156.081 47.0385 156.572 47.9714L158.342 47.0399C157.697 45.8138 156.782 44.7868 155.614 43.9617L154.46 45.5951ZM156.576 47.9787C157.068 48.8946 157.327 49.9613 157.327 51.2045H159.327C159.327 49.6751 159.006 48.2759 158.338 47.0327L156.576 47.9787ZM157.327 51.2045V69H159.327V51.2045H157.327ZM158.327 68H150.486V70H158.327V68ZM151.486 69V65.3523H149.486V69H151.486ZM150.486 64.3523H150.281V66.3523H150.486V64.3523ZM149.396 64.887C148.987 65.6652 148.47 66.3119 147.847 66.838L149.136 68.3666C149.967 67.6654 150.644 66.8121 151.166 65.8176L149.396 64.887ZM147.841 66.843C147.236 67.3613 146.512 67.759 145.652 68.0289L146.251 69.937C147.346 69.5932 148.315 69.0706 149.142 68.3615L147.841 66.843ZM145.649 68.0299C144.798 68.3001 143.812 68.4432 142.679 68.4432V70.4432C143.978 70.4432 145.173 70.2794 146.254 69.936L145.649 68.0299ZM145.253 64.9886C146.289 64.9886 147.254 64.7777 148.126 64.3348L147.22 62.5516C146.661 62.8359 146.012 62.9886 145.253 62.9886V64.9886ZM148.121 64.3376C148.992 63.9019 149.706 63.2909 150.239 62.5047L148.584 61.3817C148.254 61.8682 147.809 62.2572 147.226 62.5488L148.121 64.3376ZM150.244 62.4979C150.796 61.6704 151.06 60.7234 151.06 59.6932H149.06C149.06 60.3675 148.892 60.9205 148.58 61.3885L150.244 62.4979ZM151.06 59.6932V57.2045H149.06V59.6932H151.06ZM149.596 56.3187C149.428 56.4065 149.201 56.4982 148.903 56.5876L149.478 58.5033C149.861 58.3881 150.214 58.2526 150.524 58.0904L149.596 56.3187ZM148.894 56.5904C148.593 56.6839 148.254 56.7741 147.877 56.8604L148.322 58.8101C148.74 58.7145 149.129 58.6115 149.487 58.5005L148.894 56.5904ZM147.877 56.8604C147.501 56.9463 147.112 57.0218 146.712 57.0868L147.032 59.061C147.473 58.9895 147.903 58.9059 148.322 58.8101L147.877 56.8604ZM146.712 57.0868C146.296 57.1542 145.898 57.216 145.516 57.272L145.807 59.2507C146.199 59.1931 146.607 59.1299 147.032 59.061L146.712 57.0868ZM145.505 57.2738C144.653 57.4095 143.888 57.6249 143.226 57.9357L144.075 59.7461C144.527 59.5342 145.102 59.3632 145.819 59.2489L145.505 57.2738ZM143.218 57.9391C142.546 58.2614 141.981 58.705 141.571 59.2887L143.207 60.4386C143.388 60.1814 143.664 59.9432 144.083 59.7427L143.218 57.9391ZM141.568 59.2932C141.152 59.8927 140.963 60.5872 140.963 61.3295H142.963C142.963 60.9355 143.059 60.6528 143.211 60.434L141.568 59.2932ZM140.963 61.3295C140.963 62.4624 141.384 63.4406 142.288 64.1104L143.479 62.5033C143.156 62.264 142.963 61.9239 142.963 61.3295H140.963ZM142.295 64.1156C143.128 64.7211 144.137 64.9886 145.253 64.9886V62.9886C144.459 62.9886 143.889 62.8016 143.472 62.4981L142.295 64.1156ZM163.423 69H162.423V70H163.423V69ZM163.423 42.8182V41.8182H162.423V42.8182H163.423ZM171.759 42.8182H172.759V41.8182H171.759V42.8182ZM171.759 69V70H172.759V69H171.759ZM164.582 38.608L163.9 39.3394L163.906 39.3443L164.582 38.608ZM164.582 32.983L165.259 33.7193L165.264 33.7143L164.582 32.983ZM170.616 32.983L169.929 33.7098L169.94 33.7193L170.616 32.983ZM170.616 38.608L171.298 39.3397L171.298 39.3393L170.616 38.608ZM164.423 69V42.8182H162.423V69H164.423ZM163.423 43.8182H171.759V41.8182H163.423V43.8182ZM170.759 42.8182V69H172.759V42.8182H170.759ZM171.759 68H163.423V70H171.759V68ZM167.599 38.767C166.673 38.767 165.91 38.4702 165.259 37.8716L163.906 39.3443C164.936 40.2912 166.185 40.767 167.599 40.767V38.767ZM165.264 37.8766C164.616 37.2724 164.321 36.5901 164.321 35.7784H162.321C162.321 37.1712 162.867 38.3753 163.9 39.3393L165.264 37.8766ZM164.321 35.7784C164.321 34.9819 164.613 34.3127 165.259 33.7193L163.906 32.2466C162.87 33.1987 162.321 34.3931 162.321 35.7784H164.321ZM165.264 33.7143C165.916 33.1063 166.677 32.8068 167.599 32.8068V30.8068C166.181 30.8068 164.93 31.2914 163.9 32.2516L165.264 33.7143ZM167.599 32.8068C168.536 32.8068 169.293 33.1078 169.93 33.7097L171.303 32.2562C170.281 31.2899 169.027 30.8068 167.599 30.8068V32.8068ZM169.94 33.7193C170.586 34.3127 170.878 34.9819 170.878 35.7784H172.878C172.878 34.3931 172.329 33.1987 171.293 32.2466L169.94 33.7193ZM170.878 35.7784C170.878 36.5901 170.582 37.2724 169.935 37.8766L171.298 39.3393C172.332 38.3753 172.878 37.1712 172.878 35.7784H170.878ZM169.935 37.8762C169.299 38.4686 168.54 38.767 167.599 38.767V40.767C169.022 40.767 170.275 40.2927 171.298 39.3397L169.935 37.8762ZM185.399 34.0909H186.399V33.0909H185.399V34.0909ZM185.399 69V70H186.399V69H185.399ZM177.064 69H176.064V70H177.064V69ZM177.064 34.0909V33.0909H176.064V34.0909H177.064ZM184.399 34.0909V69H186.399V34.0909H184.399ZM185.399 68H177.064V70H185.399V68ZM178.064 69V34.0909H176.064V69H178.064ZM177.064 35.0909H185.399V33.0909H177.064V35.0909Z" fill="black" mask="url(#path-1-outside-1_139_521)"/>
<path d="M1.5 40.9432H0.5V41.9432H1.5V40.9432ZM1.5 34.0909V33.0909H0.5V34.0909H1.5ZM31.0057 34.0909H32.0057V33.0909H31.0057V34.0909ZM31.0057 40.9432V41.9432H32.0057V40.9432H31.0057ZM20.4205 40.9432V39.9432H19.4205V40.9432H20.4205ZM20.4205 69V70H21.4205V69H20.4205ZM12.1023 69H11.1023V70H12.1023V69ZM12.1023 40.9432H13.1023V39.9432H12.1023V40.9432ZM2.5 40.9432V34.0909H0.5V40.9432H2.5ZM1.5 35.0909H31.0057V33.0909H1.5V35.0909ZM30.0057 34.0909V40.9432H32.0057V34.0909H30.0057ZM31.0057 39.9432H20.4205V41.9432H31.0057V39.9432ZM19.4205 40.9432V69H21.4205V40.9432H19.4205ZM20.4205 68H12.1023V70H20.4205V68ZM13.1023 69V40.9432H11.1023V69H13.1023ZM12.1023 39.9432H1.5V41.9432H12.1023V39.9432ZM36.4602 67.8068L35.9598 68.6726L35.9657 68.676L36.4602 67.8068ZM31.9091 63.0682L31.0217 63.5292L31.0248 63.5352L31.9091 63.0682ZM31.9091 48.9205L31.0237 48.4555L31.0228 48.4574L31.9091 48.9205ZM36.4602 44.1818L36.9569 45.0498L36.9585 45.0488L36.4602 44.1818ZM50.625 44.1818L50.1245 45.0476L50.1305 45.051L50.625 44.1818ZM55.1761 48.9205L54.2887 49.3815L54.2919 49.3874L55.1761 48.9205ZM55.1761 63.0682L54.2908 62.6032L54.2898 62.6051L55.1761 63.0682ZM50.625 67.8068L51.1217 68.6748L51.1233 68.6738L50.625 67.8068ZM46.142 62.2841L45.4792 61.5353L45.4792 61.5353L46.142 62.2841ZM47.7273 59.7273L46.7815 59.4022L46.7786 59.411L47.7273 59.7273ZM47.7273 52.125L46.7785 52.4412L46.7816 52.4501L47.7273 52.125ZM46.142 49.5682L46.8049 48.8194L46.8049 48.8194L46.142 49.5682ZM40.9773 49.5682L40.3265 48.8089L40.3205 48.8141L40.9773 49.5682ZM39.358 52.125L38.4122 51.7999L38.4093 51.8088L39.358 52.125ZM39.358 59.7273L38.4092 60.0435L38.4123 60.0524L39.358 59.7273ZM40.9773 62.2841L40.3205 63.0382L40.3265 63.0433L40.9773 62.2841ZM43.5511 68.4943C40.9384 68.4943 38.7528 67.9607 36.9548 66.9377L35.9657 68.676C38.1222 69.903 40.6639 70.4943 43.5511 70.4943V68.4943ZM36.9607 66.941C35.1589 65.8996 33.7744 64.4588 32.7934 62.6012L31.0248 63.5352C32.1802 65.723 33.8297 67.4413 35.9598 68.6726L36.9607 66.941ZM32.7965 62.6071C31.8253 60.7379 31.3239 58.5429 31.3239 55.9943H29.3239C29.3239 58.8093 29.8793 61.3303 31.0217 63.5292L32.7965 62.6071ZM31.3239 55.9943C31.3239 53.4334 31.8256 51.2397 32.7954 49.3835L31.0228 48.4574C29.8789 50.6467 29.3239 53.1689 29.3239 55.9943H31.3239ZM32.7944 49.3854C33.7754 47.5173 35.1588 46.0787 36.9569 45.0498L35.9635 43.3139C33.8299 44.5349 32.1791 46.2554 31.0237 48.4555L32.7944 49.3854ZM36.9585 45.0488C38.7558 44.0159 40.94 43.4773 43.5511 43.4773V41.4773C40.6622 41.4773 38.1192 42.075 35.9619 43.3148L36.9585 45.0488ZM43.5511 43.4773C46.1624 43.4773 48.3399 44.016 50.1246 45.0476L51.1254 43.316C48.9783 42.0749 46.4398 41.4773 43.5511 41.4773V43.4773ZM50.1305 45.051C51.9388 46.0799 53.3201 47.5171 54.2888 49.3815L56.0635 48.4594C54.9185 46.2556 53.2657 44.5338 51.1195 43.3127L50.1305 45.051ZM54.2919 49.3874C55.2716 51.2427 55.7784 53.435 55.7784 55.9943H57.7784C57.7784 53.1672 57.217 50.6436 56.0604 48.4535L54.2919 49.3874ZM55.7784 55.9943C55.7784 58.5413 55.272 60.7348 54.2908 62.6033L56.0615 63.5331C57.2167 61.3334 57.7784 58.811 57.7784 55.9943H55.7784ZM54.2898 62.6051C53.3212 64.4591 51.9387 65.8984 50.1267 66.9398L51.1233 68.6738C53.2659 67.4425 54.9175 65.7227 56.0625 63.5313L54.2898 62.6051ZM50.1283 66.9389C48.3429 67.9606 46.1641 68.4943 43.5511 68.4943V70.4943C46.4382 70.4943 48.9753 69.9031 51.1217 68.6748L50.1283 66.9389ZM43.6023 64.2045C44.8253 64.2045 45.9135 63.8219 46.8049 63.0329L45.4792 61.5353C44.9842 61.9736 44.3793 62.2045 43.6023 62.2045V64.2045ZM46.8049 63.0329C47.658 62.2776 48.2701 61.2612 48.676 60.0435L46.7786 59.411C46.4572 60.3751 46.0124 61.0633 45.4792 61.5353L46.8049 63.0329ZM48.673 60.0524C49.0914 58.8351 49.2898 57.46 49.2898 55.9432H47.2898C47.2898 57.29 47.1132 58.4376 46.7816 59.4022L48.673 60.0524ZM49.2898 55.9432C49.2898 54.4056 49.0919 53.0187 48.673 51.7999L46.7816 52.4501C47.1126 53.4132 47.2898 54.5717 47.2898 55.9432H49.2898ZM48.676 51.8088C48.2701 50.5911 47.658 49.5747 46.8049 48.8194L45.4792 50.3169C46.0124 50.789 46.4572 51.4771 46.7786 52.4412L48.676 51.8088ZM46.8049 48.8194C45.9135 48.0304 44.8253 47.6477 43.6023 47.6477V49.6477C44.3793 49.6477 44.9842 49.8787 45.4792 50.3169L46.8049 48.8194ZM43.6023 47.6477C42.3543 47.6477 41.2416 48.0245 40.3265 48.8089L41.6281 50.3274C42.1447 49.8846 42.7821 49.6477 43.6023 49.6477V47.6477ZM40.3205 48.8141C39.456 49.5671 38.831 50.5818 38.4123 51.7999L40.3036 52.4501C40.6349 51.4864 41.0895 50.7966 41.6341 50.3223L40.3205 48.8141ZM38.4093 51.8088C38.004 53.0245 37.8125 54.4083 37.8125 55.9432H39.8125C39.8125 54.569 39.9846 53.4073 40.3066 52.4412L38.4093 51.8088ZM37.8125 55.9432C37.8125 57.4572 38.0045 58.8292 38.4093 60.0435L40.3066 59.411C39.9841 58.4436 39.8125 57.2928 39.8125 55.9432H37.8125ZM38.4123 60.0524C38.831 61.2705 39.456 62.2852 40.3205 63.0382L41.6341 61.53C41.0895 61.0557 40.6349 60.3658 40.3036 59.4022L38.4123 60.0524ZM40.3265 63.0433C41.2416 63.8278 42.3543 64.2045 43.6023 64.2045V62.2045C42.7821 62.2045 42.1447 61.9677 41.6281 61.5248L40.3265 63.0433ZM66.196 67.875L65.7129 68.7506L65.7189 68.7539L66.196 67.875ZM61.6278 63.2216L60.7415 63.6847L60.7447 63.6906L61.6278 63.2216ZM61.6449 48.9205L62.5292 49.3874L62.5302 49.3854L61.6449 48.9205ZM66.1619 44.1818L66.663 45.0473L66.6667 45.045L66.1619 44.1818ZM78.1449 43.3466L78.496 42.4103L78.496 42.4103L78.1449 43.3466ZM84.7756 50.1307L83.839 50.4811L83.8398 50.4832L84.7756 50.1307ZM85.7131 57.9205V58.9205H86.7131V57.9205H85.7131ZM62.9574 57.9205H61.9574V58.9205H62.9574V57.9205ZM62.9574 53.0795V52.0795H61.9574V53.0795H62.9574ZM77.9574 53.0795V54.0795H78.9703L78.9573 53.0667L77.9574 53.0795ZM75.6392 49.0909L75.1476 49.9617L75.1559 49.9664L75.1643 49.9709L75.6392 49.0909ZM70.696 49.125L71.1806 49.9999L71.1907 49.9941L70.696 49.125ZM68.9403 50.8125L69.793 51.3351L69.7966 51.329L68.9403 50.8125ZM68.2585 53.2159L67.2588 53.1906L67.2585 53.2033V53.2159H68.2585ZM68.8892 60.9545L68.0024 61.4167L68.0051 61.4219L68.8892 60.9545ZM70.679 62.8125L70.1815 63.68L70.1815 63.68L70.679 62.8125ZM75.4517 63.1705L75.7733 64.1173L75.7733 64.1173L75.4517 63.1705ZM77.0028 62.267L77.6803 63.0026L77.6803 63.0026L77.0028 62.267ZM77.9744 60.8011L78.0034 59.8016L77.2874 59.7808L77.0374 60.452L77.9744 60.8011ZM85.6278 61.0227L86.6111 61.205L86.824 60.0569L85.6568 60.0231L85.6278 61.0227ZM83.5312 65.5057L82.7686 64.8588L82.7681 64.8594L83.5312 65.5057ZM79.321 68.4545L79.6914 69.3835L79.6966 69.3813L79.321 68.4545ZM73.2869 68.4943C70.6801 68.4943 68.4875 67.9811 66.6731 66.9961L65.7189 68.7539C67.8818 69.928 70.4165 70.4943 73.2869 70.4943V68.4943ZM66.6791 66.9994C64.8734 66.0032 63.489 64.594 62.511 62.7526L60.7447 63.6906C61.9031 65.8719 63.5641 67.565 65.7129 68.7506L66.6791 66.9994ZM62.5142 62.7585C61.5467 60.9068 61.0426 58.6692 61.0426 56.0114H59.0426C59.0426 58.9217 59.5953 61.4909 60.7415 63.6847L62.5142 62.7585ZM61.0426 56.0114C61.0426 53.4399 61.5497 51.2421 62.5292 49.3874L60.7606 48.4535C59.6037 50.6442 59.0426 53.1737 59.0426 56.0114H61.0426ZM62.5302 49.3854C63.5128 47.5143 64.8871 46.0754 66.663 45.0472L65.6609 43.3164C63.5504 44.5382 61.9133 46.2584 60.7595 48.4555L62.5302 49.3854ZM66.6667 45.045C68.4323 44.0126 70.5416 43.4773 73.0312 43.4773V41.4773C70.2481 41.4773 67.7779 42.0784 65.6571 43.3186L66.6667 45.045ZM73.0312 43.4773C74.7903 43.4773 76.3741 43.7506 77.7938 44.2829L78.496 42.4103C76.8248 41.7835 74.9994 41.4773 73.0312 41.4773V43.4773ZM77.7938 44.2829C79.2084 44.8134 80.4199 45.5936 81.4399 46.624L82.8612 45.2169C81.6313 43.9746 80.1722 43.0388 78.496 42.4103L77.7938 44.2829ZM81.4399 46.624C82.4546 47.6489 83.2578 48.9277 83.839 50.4811L85.7122 49.7803C85.0434 47.9928 84.0965 46.4647 82.8612 45.2169L81.4399 46.624ZM83.8398 50.4832C84.4144 52.0086 84.7131 53.7889 84.7131 55.8409H86.7131C86.7131 53.5975 86.3867 51.571 85.7114 49.7782L83.8398 50.4832ZM84.7131 55.8409V57.9205H86.7131V55.8409H84.7131ZM85.7131 56.9205H62.9574V58.9205H85.7131V56.9205ZM63.9574 57.9205V53.0795H61.9574V57.9205H63.9574ZM62.9574 54.0795H77.9574V52.0795H62.9574V54.0795ZM78.9573 53.0667C78.9439 52.0241 78.6944 51.0603 78.1879 50.202L76.4655 51.2185C76.7772 51.7466 76.9481 52.3623 76.9575 53.0924L78.9573 53.0667ZM78.1879 50.202C77.6853 49.3503 76.9884 48.6827 76.1141 48.2109L75.1643 49.9709C75.7218 50.2718 76.15 50.6838 76.4655 51.2185L78.1879 50.202ZM76.1308 48.2201C75.2566 47.7266 74.2703 47.4943 73.2017 47.4943V49.4943C73.974 49.4943 74.6127 49.6598 75.1476 49.9617L76.1308 48.2201ZM73.2017 47.4943C72.1136 47.4943 71.105 47.7416 70.2013 48.2559L71.1907 49.9941C71.7644 49.6675 72.4262 49.4943 73.2017 49.4943V47.4943ZM70.2115 48.2502C69.3213 48.7432 68.6072 49.4286 68.084 50.296L69.7966 51.329C70.1371 50.7646 70.5934 50.3249 71.1805 49.9998L70.2115 48.2502ZM68.0877 50.2899C67.5561 51.1573 67.2856 52.1328 67.2588 53.1906L69.2582 53.2412C69.2769 52.5036 69.4609 51.8768 69.7929 51.3351L68.0877 50.2899ZM67.2585 53.2159V58.142H69.2585V53.2159H67.2585ZM67.2585 58.142C67.2585 59.3431 67.4956 60.4443 68.0024 61.4167L69.776 60.4924C69.4419 59.8512 69.2585 59.0773 69.2585 58.142H67.2585ZM68.0051 61.4219C68.513 62.3828 69.2429 63.1417 70.1815 63.68L71.1765 61.945C70.5696 61.597 70.1063 61.1172 69.7733 60.4872L68.0051 61.4219ZM70.1815 63.68C71.1332 64.2258 72.2324 64.4773 73.4403 64.4773V62.4773C72.5119 62.4773 71.7702 62.2856 71.1765 61.945L70.1815 63.68ZM73.4403 64.4773C74.2711 64.4773 75.0523 64.3622 75.7733 64.1173L75.1301 62.2236C74.6466 62.3878 74.0869 62.4773 73.4403 62.4773V64.4773ZM75.7733 64.1173C76.4965 63.8717 77.1376 63.5025 77.6803 63.0026L76.3254 61.5315C76.0045 61.8271 75.6115 62.0601 75.1301 62.2236L75.7733 64.1173ZM77.6803 63.0026C78.2341 62.4926 78.6437 61.8691 78.9115 61.1502L77.0374 60.452C76.8733 60.8922 76.6353 61.2461 76.3254 61.5315L77.6803 63.0026ZM77.9455 61.8007L85.5989 62.0223L85.6568 60.0231L78.0034 59.8016L77.9455 61.8007ZM84.6446 60.8404C84.3567 62.393 83.7302 63.7252 82.7686 64.8588L84.2939 66.1525C85.4914 64.7407 86.2626 63.0842 86.6111 61.205L84.6446 60.8404ZM82.7681 64.8594C81.8179 65.9815 80.5546 66.8757 78.9455 67.5277L79.6966 69.3813C81.5648 68.6243 83.1082 67.5526 84.2944 66.1519L82.7681 64.8594ZM78.9507 67.5257C77.3527 68.1628 75.4713 68.4943 73.2869 68.4943V70.4943C75.6707 70.4943 77.8121 70.1327 79.6914 69.3834L78.9507 67.5257ZM129.993 34.0909H130.993V33.0909H129.993V34.0909ZM129.993 69V70H130.993V69H129.993ZM122.834 69L122.011 69.5677L122.309 70H122.834V69ZM108.942 48.8523L109.765 48.2846L109.467 47.8523H108.942V48.8523ZM108.72 48.8523V47.8523H107.72V48.8523H108.72ZM108.72 69V70H109.72V69H108.72ZM100.283 69H99.2827V70H100.283V69ZM100.283 34.0909V33.0909H99.2827V34.0909H100.283ZM107.544 34.0909L108.37 33.5269L108.072 33.0909H107.544V34.0909ZM121.283 54.2045L120.457 54.7686L120.755 55.2045H121.283V54.2045ZM121.572 54.2045V55.2045H122.572V54.2045H121.572ZM121.572 34.0909V33.0909H120.572V34.0909H121.572ZM128.993 34.0909V69H130.993V34.0909H128.993ZM129.993 68H122.834V70H129.993V68ZM123.657 68.4323L109.765 48.2846L108.118 49.4199L122.011 69.5677L123.657 68.4323ZM108.942 47.8523H108.72V49.8523H108.942V47.8523ZM107.72 48.8523V69H109.72V48.8523H107.72ZM108.72 68H100.283V70H108.72V68ZM101.283 69V34.0909H99.2827V69H101.283ZM100.283 35.0909H107.544V33.0909H100.283V35.0909ZM106.718 34.6549L120.457 54.7686L122.108 53.6405L108.37 33.5269L106.718 34.6549ZM121.283 55.2045H121.572V53.2045H121.283V55.2045ZM122.572 54.2045V34.0909H120.572V54.2045H122.572ZM121.572 35.0909H129.993V33.0909H121.572V35.0909ZM138.23 68.608L137.825 69.5225L137.835 69.5267L138.23 68.608ZM135.179 66.0511L134.338 66.5924L134.344 66.602L135.179 66.0511ZM134.838 58.0568L133.948 57.6015L133.948 57.6015L134.838 58.0568ZM136.952 55.6193L137.523 56.44L137.523 56.44L136.952 55.6193ZM140.054 54.2045L140.316 55.1696L140.325 55.1671L140.054 54.2045ZM143.804 53.5398L143.889 54.5362L143.895 54.5356L143.804 53.5398ZM147.401 53.1136L147.561 54.1008L147.573 54.0987L147.401 53.1136ZM149.378 52.4489L149.948 53.2702L149.953 53.2671L149.378 52.4489ZM149.105 49.0909L149.726 48.3072L149.726 48.3072L149.105 49.0909ZM144.009 49.0909L143.429 48.2762L143.429 48.2762L144.009 49.0909ZM142.73 51.0682L142.695 52.0676L143.531 52.0972L143.708 51.2795L142.73 51.0682ZM135.043 50.7955L134.053 50.654L133.895 51.7554L135.007 51.7948L135.043 50.7955ZM136.798 46.5341L136.001 45.9306L136 45.9318L136.798 46.5341ZM140.719 43.5682L141.115 44.4864L141.118 44.4851L140.719 43.5682ZM151.355 43.0739L151.083 44.0363L151.091 44.0383L151.355 43.0739ZM155.037 44.7784L154.454 45.591L154.46 45.5951L155.037 44.7784ZM157.457 47.5057L156.572 47.9714L156.576 47.9787L157.457 47.5057ZM158.327 69V70H159.327V69H158.327ZM150.486 69H149.486V70H150.486V69ZM150.486 65.3523H151.486V64.3523H150.486V65.3523ZM150.281 65.3523V64.3523H149.677L149.396 64.887L150.281 65.3523ZM148.491 67.6023L147.847 66.838L147.841 66.843L148.491 67.6023ZM145.952 68.983L145.652 68.0289L145.649 68.0299L145.952 68.983ZM147.673 63.4432L147.226 62.5487L147.22 62.5516L147.673 63.4432ZM149.412 61.9432L150.239 62.5047L150.244 62.4979L149.412 61.9432ZM150.06 57.2045H151.06V55.5519L149.596 56.3187L150.06 57.2045ZM149.19 57.5455L148.903 56.5876L148.894 56.5904L149.19 57.5455ZM146.872 58.0739L147.032 59.061L147.032 59.061L146.872 58.0739ZM145.662 58.2614L145.516 57.2719L145.505 57.2738L145.662 58.2614ZM143.651 58.8409L143.226 57.9356L143.218 57.9391L143.651 58.8409ZM142.389 59.8636L141.571 59.2887L141.568 59.2932L142.389 59.8636ZM142.884 63.3068L142.288 64.1104L142.295 64.1156L142.884 63.3068ZM142.679 68.4432C141.12 68.4432 139.775 68.1835 138.625 67.6892L137.835 69.5267C139.276 70.1461 140.897 70.4432 142.679 70.4432V68.4432ZM138.635 67.6935C137.52 67.2003 136.655 66.4716 136.014 65.5003L134.344 66.602C135.203 67.9034 136.372 68.8793 137.825 69.5224L138.635 67.6935ZM136.02 65.51C135.409 64.5615 135.071 63.3246 135.071 61.7386H133.071C133.071 63.6072 133.471 65.2453 134.338 66.5923L136.02 65.51ZM135.071 61.7386C135.071 60.3972 135.307 59.3358 135.728 58.5121L133.948 57.6015C133.346 58.7778 133.071 60.171 133.071 61.7386H135.071ZM135.728 58.5121C136.167 57.6542 136.764 56.9687 137.523 56.44L136.38 54.7986C135.344 55.52 134.532 56.4595 133.948 57.6015L135.728 58.5121ZM137.523 56.44C138.317 55.8872 139.244 55.4609 140.316 55.1695L139.792 53.2396C138.523 53.5845 137.382 54.1015 136.38 54.7986L137.523 56.44ZM140.325 55.1671C141.429 54.8562 142.616 54.6449 143.889 54.5361L143.719 52.5434C142.332 52.6619 141.02 52.8938 139.783 53.242L140.325 55.1671ZM143.895 54.5356C145.395 54.3982 146.619 54.2537 147.561 54.1007L147.24 52.1266C146.364 52.269 145.191 52.4086 143.713 52.5439L143.895 54.5356ZM147.573 54.0987C148.523 53.9323 149.357 53.6807 149.948 53.2702L148.807 51.6275C148.58 51.7852 148.096 51.9768 147.228 52.1286L147.573 54.0987ZM149.953 53.2671C150.652 52.7758 151.009 52.0491 151.009 51.2045H149.009C149.009 51.4282 148.945 51.531 148.803 51.6307L149.953 53.2671ZM151.009 51.2045V51.1193H149.009V51.2045H151.009ZM151.009 51.1193C151.009 49.9868 150.603 49.002 149.726 48.3072L148.484 49.8747C148.812 50.1344 149.009 50.5018 149.009 51.1193H151.009ZM149.726 48.3072C148.896 47.6496 147.841 47.375 146.668 47.375V49.375C147.539 49.375 148.109 49.5776 148.484 49.8747L149.726 48.3072ZM146.668 47.375C145.427 47.375 144.317 47.6435 143.429 48.2762L144.588 49.9056C145.041 49.5837 145.704 49.375 146.668 49.375V47.375ZM143.429 48.2762C142.545 48.9051 141.985 49.7845 141.753 50.8568L143.708 51.2795C143.839 50.6701 144.131 50.2312 144.588 49.9056L143.429 48.2762ZM142.766 50.0688L135.078 49.7961L135.007 51.7948L142.695 52.0676L142.766 50.0688ZM136.033 50.9369C136.237 49.5087 136.758 48.2478 137.597 47.1364L136 45.9318C134.952 47.3204 134.303 48.9003 134.053 50.654L136.033 50.9369ZM137.596 47.1375C138.432 46.0326 139.592 45.1437 141.115 44.4863L140.323 42.65C138.528 43.4245 137.074 44.5129 136.001 45.9306L137.596 47.1375ZM141.118 44.4851C142.632 43.8258 144.495 43.4773 146.736 43.4773V41.4773C144.295 41.4773 142.146 41.856 140.32 42.6513L141.118 44.4851ZM146.736 43.4773C148.327 43.4773 149.774 43.6667 151.083 44.0363L151.627 42.1115C150.118 41.6856 148.485 41.4773 146.736 41.4773V43.4773ZM151.091 44.0383C152.401 44.3975 153.517 44.9187 154.454 45.5909L155.62 43.9659C154.466 43.1381 153.128 42.523 151.62 42.1095L151.091 44.0383ZM154.46 45.5951C155.383 46.2473 156.081 47.0385 156.572 47.9714L158.342 47.0399C157.697 45.8138 156.782 44.7868 155.614 43.9617L154.46 45.5951ZM156.576 47.9787C157.068 48.8946 157.327 49.9613 157.327 51.2045H159.327C159.327 49.6751 159.006 48.2759 158.338 47.0327L156.576 47.9787ZM157.327 51.2045V69H159.327V51.2045H157.327ZM158.327 68H150.486V70H158.327V68ZM151.486 69V65.3523H149.486V69H151.486ZM150.486 64.3523H150.281V66.3523H150.486V64.3523ZM149.396 64.887C148.987 65.6652 148.47 66.3119 147.847 66.838L149.136 68.3666C149.967 67.6654 150.644 66.8121 151.166 65.8176L149.396 64.887ZM147.841 66.843C147.236 67.3613 146.512 67.759 145.652 68.0289L146.251 69.937C147.346 69.5932 148.315 69.0706 149.142 68.3615L147.841 66.843ZM145.649 68.0299C144.798 68.3001 143.812 68.4432 142.679 68.4432V70.4432C143.978 70.4432 145.173 70.2794 146.254 69.936L145.649 68.0299ZM145.253 64.9886C146.289 64.9886 147.254 64.7777 148.126 64.3348L147.22 62.5516C146.661 62.8359 146.012 62.9886 145.253 62.9886V64.9886ZM148.121 64.3376C148.992 63.9019 149.706 63.2909 150.239 62.5047L148.584 61.3817C148.254 61.8682 147.809 62.2572 147.226 62.5488L148.121 64.3376ZM150.244 62.4979C150.796 61.6704 151.06 60.7234 151.06 59.6932H149.06C149.06 60.3675 148.892 60.9205 148.58 61.3885L150.244 62.4979ZM151.06 59.6932V57.2045H149.06V59.6932H151.06ZM149.596 56.3187C149.428 56.4065 149.201 56.4982 148.903 56.5876L149.478 58.5033C149.861 58.3881 150.214 58.2526 150.524 58.0904L149.596 56.3187ZM148.894 56.5904C148.593 56.6839 148.254 56.7741 147.877 56.8604L148.322 58.8101C148.74 58.7145 149.129 58.6115 149.487 58.5005L148.894 56.5904ZM147.877 56.8604C147.501 56.9463 147.112 57.0218 146.712 57.0868L147.032 59.061C147.473 58.9895 147.903 58.9059 148.322 58.8101L147.877 56.8604ZM146.712 57.0868C146.296 57.1542 145.898 57.216 145.516 57.272L145.807 59.2507C146.199 59.1931 146.607 59.1299 147.032 59.061L146.712 57.0868ZM145.505 57.2738C144.653 57.4095 143.888 57.6249 143.226 57.9357L144.075 59.7461C144.527 59.5342 145.102 59.3632 145.819 59.2489L145.505 57.2738ZM143.218 57.9391C142.546 58.2614 141.981 58.705 141.571 59.2887L143.207 60.4386C143.388 60.1814 143.664 59.9432 144.083 59.7427L143.218 57.9391ZM141.568 59.2932C141.152 59.8927 140.963 60.5872 140.963 61.3295H142.963C142.963 60.9355 143.059 60.6528 143.211 60.434L141.568 59.2932ZM140.963 61.3295C140.963 62.4624 141.384 63.4406 142.288 64.1104L143.479 62.5033C143.156 62.264 142.963 61.9239 142.963 61.3295H140.963ZM142.295 64.1156C143.128 64.7211 144.137 64.9886 145.253 64.9886V62.9886C144.459 62.9886 143.889 62.8016 143.472 62.4981L142.295 64.1156ZM163.423 69H162.423V70H163.423V69ZM163.423 42.8182V41.8182H162.423V42.8182H163.423ZM171.759 42.8182H172.759V41.8182H171.759V42.8182ZM171.759 69V70H172.759V69H171.759ZM164.582 38.608L163.9 39.3394L163.906 39.3443L164.582 38.608ZM164.582 32.983L165.259 33.7193L165.264 33.7143L164.582 32.983ZM170.616 32.983L169.929 33.7098L169.94 33.7193L170.616 32.983ZM170.616 38.608L171.298 39.3397L171.298 39.3393L170.616 38.608ZM164.423 69V42.8182H162.423V69H164.423ZM163.423 43.8182H171.759V41.8182H163.423V43.8182ZM170.759 42.8182V69H172.759V42.8182H170.759ZM171.759 68H163.423V70H171.759V68ZM167.599 38.767C166.673 38.767 165.91 38.4702 165.259 37.8716L163.906 39.3443C164.936 40.2912 166.185 40.767 167.599 40.767V38.767ZM165.264 37.8766C164.616 37.2724 164.321 36.5901 164.321 35.7784H162.321C162.321 37.1712 162.867 38.3753 163.9 39.3393L165.264 37.8766ZM164.321 35.7784C164.321 34.9819 164.613 34.3127 165.259 33.7193L163.906 32.2466C162.87 33.1987 162.321 34.3931 162.321 35.7784H164.321ZM165.264 33.7143C165.916 33.1063 166.677 32.8068 167.599 32.8068V30.8068C166.181 30.8068 164.93 31.2914 163.9 32.2516L165.264 33.7143ZM167.599 32.8068C168.536 32.8068 169.293 33.1078 169.93 33.7097L171.303 32.2562C170.281 31.2899 169.027 30.8068 167.599 30.8068V32.8068ZM169.94 33.7193C170.586 34.3127 170.878 34.9819 170.878 35.7784H172.878C172.878 34.3931 172.329 33.1987 171.293 32.2466L169.94 33.7193ZM170.878 35.7784C170.878 36.5901 170.582 37.2724 169.935 37.8766L171.298 39.3393C172.332 38.3753 172.878 37.1712 172.878 35.7784H170.878ZM169.935 37.8762C169.299 38.4686 168.54 38.767 167.599 38.767V40.767C169.022 40.767 170.275 40.2927 171.298 39.3397L169.935 37.8762ZM185.399 34.0909H186.399V33.0909H185.399V34.0909ZM185.399 69V70H186.399V69H185.399ZM177.064 69H176.064V70H177.064V69ZM177.064 34.0909V33.0909H176.064V34.0909H177.064ZM184.399 34.0909V69H186.399V34.0909H184.399ZM185.399 68H177.064V70H185.399V68ZM178.064 69V34.0909H176.064V69H178.064ZM177.064 35.0909H185.399V33.0909H177.064V35.0909Z" fill="black" fill-opacity="0.2" mask="url(#path-1-outside-1_139_521)"/>
</g>
</g>
<defs>
<filter id="filter0_dd_139_521" x="-3.5" y="30.8068" width="193.899" height="47.6875" filterUnits="userSpaceOnUse" color-interpolation-filters="sRGB">
<feFlood flood-opacity="0" result="BackgroundImageFix"/>
<feColorMatrix in="SourceAlpha" type="matrix" values="0 0 0 0 0 0 0 0 0 0 0 0 0 0 0 0 0 0 127 0" result="hardAlpha"/>
<feOffset dy="4"/>
<feGaussianBlur stdDeviation="2"/>
<feComposite in2="hardAlpha" operator="out"/>
<feColorMatrix type="matrix" values="0 0 0 0 0 0 0 0 0 0 0 0 0 0 0 0 0 0 0.25 0"/>
<feBlend mode="normal" in2="BackgroundImageFix" result="effect1_dropShadow_139_521"/>
<feColorMatrix in="SourceAlpha" type="matrix" values="0 0 0 0 0 0 0 0 0 0 0 0 0 0 0 0 0 0 127 0" result="hardAlpha"/>
<feOffset dy="4"/>
<feGaussianBlur stdDeviation="2"/>
<feComposite in2="hardAlpha" operator="out"/>
<feColorMatrix type="matrix" values="0 0 0 0 0 0 0 0 0 0 0 0 0 0 0 0 0 0 0.25 0"/>
<feBlend mode="normal" in2="effect1_dropShadow_139_521" result="effect2_dropShadow_139_521"/>
<feBlend mode="normal" in="SourceGraphic" in2="effect2_dropShadow_139_521" result="shape"/>
</filter>
<clipPath id="clip0_139_521">
<rect width="322" height="117" fill="white"/>
</clipPath>
</defs>
</svg>
