<svg width="322" height="117" viewBox="0 0 322 117" fill="none" xmlns="http://www.w3.org/2000/svg">
<g clip-path="url(#clip0_138_499)">
<rect width="322" height="117" fill="white"/>
<g filter="url(#filter0_dd_138_499)">
<mask id="path-1-outside-1_138_499" maskUnits="userSpaceOnUse" x="0" y="33" width="240" height="38" fill="black">
<rect fill="white" y="33" width="240" height="38"/>
<path d="M1.5 40.9432V34.0909H31.0057V40.9432H20.4205V69H12.1023V40.9432H1.5ZM49.9048 42.8182V48.9545H33.3878V42.8182H49.9048ZM36.848 36.5455H45.1832V60.767C45.1832 61.2784 45.2628 61.6932 45.4219 62.0114C45.5923 62.3182 45.8366 62.5398 46.1548 62.6761C46.473 62.8011 46.8537 62.8636 47.2969 62.8636C47.6151 62.8636 47.9503 62.8352 48.3026 62.7784C48.6662 62.7102 48.9389 62.6534 49.1207 62.608L50.3821 68.625C49.9844 68.7386 49.4219 68.8807 48.6946 69.0511C47.9787 69.2216 47.1207 69.3295 46.1207 69.375C44.1662 69.4659 42.4901 69.2386 41.0923 68.6932C39.706 68.1364 38.6435 67.2727 37.9048 66.1023C37.1776 64.9318 36.8253 63.4602 36.848 61.6875V36.5455ZM63.0554 34.0909V69H54.7202V34.0909H63.0554ZM78.6733 69V34.0909H102.503V40.9432H87.1108V48.1023H100.986V54.9716H87.1108V69H78.6733ZM106.236 69V42.8182H114.332V47.5909H114.605C115.082 45.8636 115.861 44.5795 116.94 43.7386C118.02 42.8864 119.276 42.4602 120.707 42.4602C121.094 42.4602 121.491 42.4886 121.901 42.5455C122.31 42.5909 122.69 42.6648 123.043 42.767V50.0114C122.645 49.875 122.122 49.767 121.474 49.6875C120.838 49.608 120.27 49.5682 119.77 49.5682C118.781 49.5682 117.889 49.7898 117.094 50.233C116.31 50.6648 115.69 51.2727 115.236 52.0568C114.793 52.8295 114.571 53.7386 114.571 54.7841V69H106.236ZM137.318 69.4943C134.58 69.4943 132.216 68.9545 130.227 67.875C128.25 66.7841 126.727 65.233 125.659 63.2216C124.602 61.1989 124.074 58.7955 124.074 56.0114C124.074 53.3068 124.608 50.9432 125.676 48.9205C126.744 46.8864 128.25 45.3068 130.193 44.1818C132.136 43.0455 134.426 42.4773 137.062 42.4773C138.926 42.4773 140.631 42.767 142.176 43.3466C143.722 43.9261 145.057 44.7841 146.182 45.9205C147.307 47.0568 148.182 48.4602 148.807 50.1307C149.432 51.7898 149.744 53.6932 149.744 55.8409V57.9205H126.989V53.0795H141.989C141.977 52.1932 141.767 51.4034 141.358 50.7102C140.949 50.017 140.386 49.4773 139.67 49.0909C138.966 48.6932 138.153 48.4943 137.233 48.4943C136.301 48.4943 135.466 48.7045 134.727 49.125C133.989 49.5341 133.403 50.0966 132.972 50.8125C132.54 51.517 132.313 52.3182 132.29 53.2159V58.142C132.29 59.2102 132.5 60.1477 132.92 60.9545C133.341 61.75 133.938 62.3693 134.71 62.8125C135.483 63.2557 136.403 63.4773 137.472 63.4773C138.21 63.4773 138.881 63.375 139.483 63.1705C140.085 62.9659 140.602 62.6648 141.034 62.267C141.466 61.8693 141.79 61.3807 142.006 60.8011L149.659 61.0227C149.341 62.7386 148.642 64.233 147.562 65.5057C146.494 66.767 145.091 67.75 143.352 68.4545C141.614 69.1477 139.602 69.4943 137.318 69.4943ZM162.337 54.0682V69H154.001V42.8182H161.928V47.625H162.217C162.797 46.0227 163.786 44.767 165.183 43.858C166.581 42.9375 168.246 42.4773 170.178 42.4773C172.018 42.4773 173.615 42.892 174.967 43.7216C176.331 44.5398 177.388 45.6875 178.138 47.1648C178.899 48.6307 179.274 50.3466 179.263 52.3125V69H170.928V53.9489C170.939 52.4943 170.57 51.358 169.82 50.5398C169.081 49.7216 168.053 49.3125 166.734 49.3125C165.859 49.3125 165.087 49.5057 164.416 49.892C163.757 50.267 163.246 50.8068 162.882 51.5114C162.53 52.2159 162.348 53.0682 162.337 54.0682ZM196.645 69.4943C193.884 69.4943 191.514 68.9261 189.537 67.7898C187.571 66.6534 186.06 65.0739 185.003 63.0511C183.946 61.017 183.418 58.6648 183.418 55.9943C183.418 53.3125 183.946 50.9602 185.003 48.9375C186.071 46.9034 187.588 45.3182 189.554 44.1818C191.531 43.0455 193.889 42.4773 196.628 42.4773C199.048 42.4773 201.156 42.9148 202.952 43.7898C204.759 44.6648 206.168 45.9034 207.179 47.5057C208.202 49.0966 208.741 50.9659 208.798 53.1136H201.009C200.849 51.7727 200.395 50.7216 199.645 49.9602C198.906 49.1989 197.94 48.8182 196.747 48.8182C195.781 48.8182 194.935 49.0909 194.207 49.6364C193.48 50.1705 192.912 50.9659 192.503 52.0227C192.105 53.0682 191.906 54.3636 191.906 55.9091C191.906 57.4545 192.105 58.7614 192.503 59.8295C192.912 60.8864 193.48 61.6875 194.207 62.233C194.935 62.767 195.781 63.0341 196.747 63.0341C197.52 63.0341 198.202 62.8693 198.793 62.5398C199.395 62.2102 199.889 61.7273 200.276 61.0909C200.662 60.4432 200.906 59.6591 201.009 58.7386H208.798C208.719 60.8977 208.179 62.7841 207.179 64.3977C206.19 66.0114 204.798 67.267 203.003 68.1648C201.219 69.0511 199.099 69.4943 196.645 69.4943ZM221.399 54.0682V69H213.064V34.0909H221.126V47.625H221.416C222.007 46.0114 222.973 44.75 224.314 43.8409C225.666 42.9318 227.32 42.4773 229.274 42.4773C231.115 42.4773 232.717 42.8864 234.081 43.7045C235.445 44.5114 236.501 45.6534 237.251 47.1307C238.013 48.608 238.388 50.3352 238.376 52.3125V69H230.041V53.9489C230.053 52.4943 229.689 51.358 228.95 50.5398C228.212 49.7216 227.172 49.3125 225.831 49.3125C224.956 49.3125 224.183 49.5057 223.513 49.892C222.854 50.267 222.337 50.8068 221.962 51.5114C221.598 52.2159 221.411 53.0682 221.399 54.0682Z"/>
</mask>
<path d="M1.5 40.9432V34.0909H31.0057V40.9432H20.4205V69H12.1023V40.9432H1.5ZM49.9048 42.8182V48.9545H33.3878V42.8182H49.9048ZM36.848 36.5455H45.1832V60.767C45.1832 61.2784 45.2628 61.6932 45.4219 62.0114C45.5923 62.3182 45.8366 62.5398 46.1548 62.6761C46.473 62.8011 46.8537 62.8636 47.2969 62.8636C47.6151 62.8636 47.9503 62.8352 48.3026 62.7784C48.6662 62.7102 48.9389 62.6534 49.1207 62.608L50.3821 68.625C49.9844 68.7386 49.4219 68.8807 48.6946 69.0511C47.9787 69.2216 47.1207 69.3295 46.1207 69.375C44.1662 69.4659 42.4901 69.2386 41.0923 68.6932C39.706 68.1364 38.6435 67.2727 37.9048 66.1023C37.1776 64.9318 36.8253 63.4602 36.848 61.6875V36.5455ZM63.0554 34.0909V69H54.7202V34.0909H63.0554ZM78.6733 69V34.0909H102.503V40.9432H87.1108V48.1023H100.986V54.9716H87.1108V69H78.6733ZM106.236 69V42.8182H114.332V47.5909H114.605C115.082 45.8636 115.861 44.5795 116.94 43.7386C118.02 42.8864 119.276 42.4602 120.707 42.4602C121.094 42.4602 121.491 42.4886 121.901 42.5455C122.31 42.5909 122.69 42.6648 123.043 42.767V50.0114C122.645 49.875 122.122 49.767 121.474 49.6875C120.838 49.608 120.27 49.5682 119.77 49.5682C118.781 49.5682 117.889 49.7898 117.094 50.233C116.31 50.6648 115.69 51.2727 115.236 52.0568C114.793 52.8295 114.571 53.7386 114.571 54.7841V69H106.236ZM137.318 69.4943C134.58 69.4943 132.216 68.9545 130.227 67.875C128.25 66.7841 126.727 65.233 125.659 63.2216C124.602 61.1989 124.074 58.7955 124.074 56.0114C124.074 53.3068 124.608 50.9432 125.676 48.9205C126.744 46.8864 128.25 45.3068 130.193 44.1818C132.136 43.0455 134.426 42.4773 137.062 42.4773C138.926 42.4773 140.631 42.767 142.176 43.3466C143.722 43.9261 145.057 44.7841 146.182 45.9205C147.307 47.0568 148.182 48.4602 148.807 50.1307C149.432 51.7898 149.744 53.6932 149.744 55.8409V57.9205H126.989V53.0795H141.989C141.977 52.1932 141.767 51.4034 141.358 50.7102C140.949 50.017 140.386 49.4773 139.67 49.0909C138.966 48.6932 138.153 48.4943 137.233 48.4943C136.301 48.4943 135.466 48.7045 134.727 49.125C133.989 49.5341 133.403 50.0966 132.972 50.8125C132.54 51.517 132.313 52.3182 132.29 53.2159V58.142C132.29 59.2102 132.5 60.1477 132.92 60.9545C133.341 61.75 133.938 62.3693 134.71 62.8125C135.483 63.2557 136.403 63.4773 137.472 63.4773C138.21 63.4773 138.881 63.375 139.483 63.1705C140.085 62.9659 140.602 62.6648 141.034 62.267C141.466 61.8693 141.79 61.3807 142.006 60.8011L149.659 61.0227C149.341 62.7386 148.642 64.233 147.562 65.5057C146.494 66.767 145.091 67.75 143.352 68.4545C141.614 69.1477 139.602 69.4943 137.318 69.4943ZM162.337 54.0682V69H154.001V42.8182H161.928V47.625H162.217C162.797 46.0227 163.786 44.767 165.183 43.858C166.581 42.9375 168.246 42.4773 170.178 42.4773C172.018 42.4773 173.615 42.892 174.967 43.7216C176.331 44.5398 177.388 45.6875 178.138 47.1648C178.899 48.6307 179.274 50.3466 179.263 52.3125V69H170.928V53.9489C170.939 52.4943 170.57 51.358 169.82 50.5398C169.081 49.7216 168.053 49.3125 166.734 49.3125C165.859 49.3125 165.087 49.5057 164.416 49.892C163.757 50.267 163.246 50.8068 162.882 51.5114C162.53 52.2159 162.348 53.0682 162.337 54.0682ZM196.645 69.4943C193.884 69.4943 191.514 68.9261 189.537 67.7898C187.571 66.6534 186.06 65.0739 185.003 63.0511C183.946 61.017 183.418 58.6648 183.418 55.9943C183.418 53.3125 183.946 50.9602 185.003 48.9375C186.071 46.9034 187.588 45.3182 189.554 44.1818C191.531 43.0455 193.889 42.4773 196.628 42.4773C199.048 42.4773 201.156 42.9148 202.952 43.7898C204.759 44.6648 206.168 45.9034 207.179 47.5057C208.202 49.0966 208.741 50.9659 208.798 53.1136H201.009C200.849 51.7727 200.395 50.7216 199.645 49.9602C198.906 49.1989 197.94 48.8182 196.747 48.8182C195.781 48.8182 194.935 49.0909 194.207 49.6364C193.48 50.1705 192.912 50.9659 192.503 52.0227C192.105 53.0682 191.906 54.3636 191.906 55.9091C191.906 57.4545 192.105 58.7614 192.503 59.8295C192.912 60.8864 193.48 61.6875 194.207 62.233C194.935 62.767 195.781 63.0341 196.747 63.0341C197.52 63.0341 198.202 62.8693 198.793 62.5398C199.395 62.2102 199.889 61.7273 200.276 61.0909C200.662 60.4432 200.906 59.6591 201.009 58.7386H208.798C208.719 60.8977 208.179 62.7841 207.179 64.3977C206.19 66.0114 204.798 67.267 203.003 68.1648C201.219 69.0511 199.099 69.4943 196.645 69.4943ZM221.399 54.0682V69H213.064V34.0909H221.126V47.625H221.416C222.007 46.0114 222.973 44.75 224.314 43.8409C225.666 42.9318 227.32 42.4773 229.274 42.4773C231.115 42.4773 232.717 42.8864 234.081 43.7045C235.445 44.5114 236.501 45.6534 237.251 47.1307C238.013 48.608 238.388 50.3352 238.376 52.3125V69H230.041V53.9489C230.053 52.4943 229.689 51.358 228.95 50.5398C228.212 49.7216 227.172 49.3125 225.831 49.3125C224.956 49.3125 224.183 49.5057 223.513 49.892C222.854 50.267 222.337 50.8068 221.962 51.5114C221.598 52.2159 221.411 53.0682 221.399 54.0682Z" fill="#002855"/>
<path d="M1.5 40.9432H0.5V41.9432H1.5V40.9432ZM1.5 34.0909V33.0909H0.5V34.0909H1.5ZM31.0057 34.0909H32.0057V33.0909H31.0057V34.0909ZM31.0057 40.9432V41.9432H32.0057V40.9432H31.0057ZM20.4205 40.9432V39.9432H19.4205V40.9432H20.4205ZM20.4205 69V70H21.4205V69H20.4205ZM12.1023 69H11.1023V70H12.1023V69ZM12.1023 40.9432H13.1023V39.9432H12.1023V40.9432ZM2.5 40.9432V34.0909H0.5V40.9432H2.5ZM1.5 35.0909H31.0057V33.0909H1.5V35.0909ZM30.0057 34.0909V40.9432H32.0057V34.0909H30.0057ZM31.0057 39.9432H20.4205V41.9432H31.0057V39.9432ZM19.4205 40.9432V69H21.4205V40.9432H19.4205ZM20.4205 68H12.1023V70H20.4205V68ZM13.1023 69V40.9432H11.1023V69H13.1023ZM12.1023 39.9432H1.5V41.9432H12.1023V39.9432ZM49.9048 42.8182H50.9048V41.8182H49.9048V42.8182ZM49.9048 48.9545V49.9545H50.9048V48.9545H49.9048ZM33.3878 48.9545H32.3878V49.9545H33.3878V48.9545ZM33.3878 42.8182V41.8182H32.3878V42.8182H33.3878ZM36.848 36.5455V35.5455H35.848V36.5455H36.848ZM45.1832 36.5455H46.1832V35.5455H45.1832V36.5455ZM45.4219 62.0114L44.5274 62.4586L44.5372 62.478L44.5477 62.497L45.4219 62.0114ZM46.1548 62.6761L45.7609 63.5953L45.775 63.6013L45.7892 63.6069L46.1548 62.6761ZM48.3026 62.7784L48.4618 63.7656L48.4743 63.7636L48.4868 63.7613L48.3026 62.7784ZM49.1207 62.608L50.0995 62.4028L49.8863 61.3858L48.8782 61.6378L49.1207 62.608ZM50.3821 68.625L50.6568 69.5865L51.5518 69.3308L51.3608 68.4198L50.3821 68.625ZM48.6946 69.0511L48.4664 68.0775L48.463 68.0783L48.6946 69.0511ZM46.1207 69.375L46.0753 68.376L46.0743 68.3761L46.1207 69.375ZM41.0923 68.6932L40.7196 69.6212L40.7288 69.6248L41.0923 68.6932ZM37.9048 66.1023L37.0554 66.6301L37.0591 66.636L37.9048 66.1023ZM36.848 61.6875L37.848 61.7003V61.6875H36.848ZM48.9048 42.8182V48.9545H50.9048V42.8182H48.9048ZM49.9048 47.9545H33.3878V49.9545H49.9048V47.9545ZM34.3878 48.9545V42.8182H32.3878V48.9545H34.3878ZM33.3878 43.8182H49.9048V41.8182H33.3878V43.8182ZM36.848 37.5455H45.1832V35.5455H36.848V37.5455ZM44.1832 36.5455V60.767H46.1832V36.5455H44.1832ZM44.1832 60.767C44.1832 61.3705 44.2753 61.9543 44.5274 62.4586L46.3163 61.5641C46.2502 61.432 46.1832 61.1864 46.1832 60.767H44.1832ZM44.5477 62.497C44.8242 62.9946 45.236 63.3703 45.7609 63.5953L46.5488 61.757C46.4373 61.7092 46.3605 61.6417 46.296 61.5257L44.5477 62.497ZM45.7892 63.6069C46.2527 63.789 46.7639 63.8636 47.2969 63.8636V61.8636C46.9435 61.8636 46.6933 61.8133 46.5205 61.7454L45.7892 63.6069ZM47.2969 63.8636C47.6744 63.8636 48.0631 63.83 48.4618 63.7656L48.1433 61.7912C47.8375 61.8405 47.5558 61.8636 47.2969 61.8636V63.8636ZM48.4868 63.7613C48.8551 63.6922 49.1516 63.631 49.3633 63.5781L48.8782 61.6378C48.7262 61.6758 48.4773 61.7282 48.1183 61.7955L48.4868 63.7613ZM48.142 62.8131L49.4034 68.8302L51.3608 68.4198L50.0995 62.4028L48.142 62.8131ZM50.1074 67.6635C49.7326 67.7705 49.1883 67.9083 48.4664 68.0775L48.9228 70.0248C49.6554 69.853 50.2361 69.7067 50.6568 69.5865L50.1074 67.6635ZM48.463 68.0783C47.8255 68.2301 47.0333 68.3325 46.0753 68.376L46.1661 70.374C47.2081 70.3266 48.1319 70.2131 48.9262 70.0239L48.463 68.0783ZM46.0743 68.3761C44.2189 68.4624 42.6899 68.2432 41.4559 67.7616L40.7288 69.6248C42.2902 70.2341 44.1134 70.4694 46.1672 70.3739L46.0743 68.3761ZM41.465 67.7652C40.2575 67.2802 39.3678 66.5468 38.7505 65.5686L37.0591 66.636C37.9191 67.9987 39.1544 68.9925 40.7196 69.6211L41.465 67.7652ZM38.7542 65.5745C38.1528 64.6067 37.827 63.3362 37.8479 61.7003L35.8481 61.6747C35.8236 63.5842 36.2023 65.257 37.0554 66.63L38.7542 65.5745ZM37.848 61.6875V36.5455H35.848V61.6875H37.848ZM63.0554 34.0909H64.0554V33.0909H63.0554V34.0909ZM63.0554 69V70H64.0554V69H63.0554ZM54.7202 69H53.7202V70H54.7202V69ZM54.7202 34.0909V33.0909H53.7202V34.0909H54.7202ZM62.0554 34.0909V69H64.0554V34.0909H62.0554ZM63.0554 68H54.7202V70H63.0554V68ZM55.7202 69V34.0909H53.7202V69H55.7202ZM54.7202 35.0909H63.0554V33.0909H54.7202V35.0909ZM78.6733 69H77.6733V70H78.6733V69ZM78.6733 34.0909V33.0909H77.6733V34.0909H78.6733ZM102.503 34.0909H103.503V33.0909H102.503V34.0909ZM102.503 40.9432V41.9432H103.503V40.9432H102.503ZM87.1108 40.9432V39.9432H86.1108V40.9432H87.1108ZM87.1108 48.1023H86.1108V49.1023H87.1108V48.1023ZM100.986 48.1023H101.986V47.1023H100.986V48.1023ZM100.986 54.9716V55.9716H101.986V54.9716H100.986ZM87.1108 54.9716V53.9716H86.1108V54.9716H87.1108ZM87.1108 69V70H88.1108V69H87.1108ZM79.6733 69V34.0909H77.6733V69H79.6733ZM78.6733 35.0909H102.503V33.0909H78.6733V35.0909ZM101.503 34.0909V40.9432H103.503V34.0909H101.503ZM102.503 39.9432H87.1108V41.9432H102.503V39.9432ZM86.1108 40.9432V48.1023H88.1108V40.9432H86.1108ZM87.1108 49.1023H100.986V47.1023H87.1108V49.1023ZM99.9858 48.1023V54.9716H101.986V48.1023H99.9858ZM100.986 53.9716H87.1108V55.9716H100.986V53.9716ZM86.1108 54.9716V69H88.1108V54.9716H86.1108ZM87.1108 68H78.6733V70H87.1108V68ZM106.236 69H105.236V70H106.236V69ZM106.236 42.8182V41.8182H105.236V42.8182H106.236ZM114.332 42.8182H115.332V41.8182H114.332V42.8182ZM114.332 47.5909H113.332V48.5909H114.332V47.5909ZM114.605 47.5909V48.5909H115.366L115.569 47.8572L114.605 47.5909ZM116.94 43.7386L117.555 44.5276L117.56 44.5235L116.94 43.7386ZM121.901 42.5455L121.763 43.5359L121.777 43.5378L121.79 43.5393L121.901 42.5455ZM123.043 42.767H124.043V42.0161L123.321 41.8067L123.043 42.767ZM123.043 50.0114L122.718 50.9573L124.043 51.4114V50.0114H123.043ZM121.474 49.6875L121.35 50.6798L121.353 50.68L121.474 49.6875ZM117.094 50.233L117.576 51.1089L117.58 51.1065L117.094 50.233ZM115.236 52.0568L114.371 51.5553L114.368 51.5593L115.236 52.0568ZM114.571 69V70H115.571V69H114.571ZM107.236 69V42.8182H105.236V69H107.236ZM106.236 43.8182H114.332V41.8182H106.236V43.8182ZM113.332 42.8182V47.5909H115.332V42.8182H113.332ZM114.332 48.5909H114.605V46.5909H114.332V48.5909ZM115.569 47.8572C116.007 46.2732 116.691 45.2006 117.555 44.5275L116.326 42.9497C115.031 43.9584 114.158 45.4541 113.641 47.3246L115.569 47.8572ZM117.56 44.5235C118.455 43.8166 119.49 43.4602 120.707 43.4602V41.4602C119.061 41.4602 117.584 41.9561 116.321 42.9538L117.56 44.5235ZM120.707 43.4602C121.045 43.4602 121.396 43.485 121.763 43.5359L122.038 41.555C121.587 41.4922 121.143 41.4602 120.707 41.4602V43.4602ZM121.79 43.5393C122.149 43.5792 122.473 43.6429 122.764 43.7274L123.321 41.8067C122.908 41.6866 122.47 41.6026 122.011 41.5516L121.79 43.5393ZM122.043 42.767V50.0114H124.043V42.767H122.043ZM123.367 49.0654C122.878 48.8978 122.28 48.7789 121.596 48.695L121.353 50.68C121.965 50.7552 122.412 50.8522 122.718 50.9573L123.367 49.0654ZM121.598 48.6952C120.932 48.6119 120.321 48.5682 119.77 48.5682V50.5682C120.219 50.5682 120.744 50.604 121.35 50.6798L121.598 48.6952ZM119.77 48.5682C118.626 48.5682 117.564 48.8263 116.607 49.3594L117.58 51.1065C118.215 50.7533 118.937 50.5682 119.77 50.5682V48.5682ZM116.611 49.357C115.666 49.8777 114.915 50.616 114.371 51.5553L116.101 52.5583C116.466 51.9295 116.953 51.4519 117.576 51.1089L116.611 49.357ZM114.368 51.5593C113.824 52.5079 113.571 53.5946 113.571 54.7841H115.571C115.571 53.8827 115.761 53.1512 116.103 52.5543L114.368 51.5593ZM113.571 54.7841V69H115.571V54.7841H113.571ZM114.571 68H106.236V70H114.571V68ZM130.227 67.875L129.744 68.7506L129.75 68.7539L130.227 67.875ZM125.659 63.2216L124.773 63.6847L124.776 63.6906L125.659 63.2216ZM125.676 48.9205L126.56 49.3874L126.561 49.3854L125.676 48.9205ZM130.193 44.1818L130.694 45.0473L130.698 45.045L130.193 44.1818ZM142.176 43.3466L142.527 42.4103L142.527 42.4103L142.176 43.3466ZM148.807 50.1307L147.87 50.4811L147.871 50.4832L148.807 50.1307ZM149.744 57.9205V58.9205H150.744V57.9205H149.744ZM126.989 57.9205H125.989V58.9205H126.989V57.9205ZM126.989 53.0795V52.0795H125.989V53.0795H126.989ZM141.989 53.0795V54.0795H143.002L142.989 53.0667L141.989 53.0795ZM139.67 49.0909L139.179 49.9617L139.187 49.9664L139.196 49.9709L139.67 49.0909ZM134.727 49.125L135.212 49.9999L135.222 49.9941L134.727 49.125ZM132.972 50.8125L133.824 51.3351L133.828 51.329L132.972 50.8125ZM132.29 53.2159L131.29 53.1906L131.29 53.2033V53.2159H132.29ZM132.92 60.9545L132.034 61.4167L132.036 61.4219L132.92 60.9545ZM134.71 62.8125L134.213 63.68L134.213 63.68L134.71 62.8125ZM139.483 63.1705L139.805 64.1173L139.805 64.1173L139.483 63.1705ZM141.034 62.267L141.712 63.0026L141.712 63.0026L141.034 62.267ZM142.006 60.8011L142.035 59.8016L141.319 59.7808L141.069 60.452L142.006 60.8011ZM149.659 61.0227L150.642 61.205L150.855 60.0569L149.688 60.0231L149.659 61.0227ZM147.562 65.5057L146.8 64.8588L146.799 64.8594L147.562 65.5057ZM143.352 68.4545L143.723 69.3835L143.728 69.3813L143.352 68.4545ZM137.318 68.4943C134.711 68.4943 132.519 67.9811 130.704 66.9961L129.75 68.7539C131.913 69.928 134.448 70.4943 137.318 70.4943V68.4943ZM130.71 66.9994C128.905 66.0032 127.52 64.594 126.542 62.7526L124.776 63.6906C125.934 65.8719 127.595 67.565 129.744 68.7506L130.71 66.9994ZM126.545 62.7585C125.578 60.9068 125.074 58.6692 125.074 56.0114H123.074C123.074 58.9217 123.627 61.4909 124.773 63.6847L126.545 62.7585ZM125.074 56.0114C125.074 53.4399 125.581 51.2421 126.56 49.3874L124.792 48.4535C123.635 50.6442 123.074 53.1737 123.074 56.0114H125.074ZM126.561 49.3854C127.544 47.5143 128.918 46.0754 130.694 45.0472L129.692 43.3164C127.582 44.5382 125.945 46.2584 124.791 48.4555L126.561 49.3854ZM130.698 45.045C132.464 44.0126 134.573 43.4773 137.062 43.4773V41.4773C134.279 41.4773 131.809 42.0784 129.688 43.3186L130.698 45.045ZM137.062 43.4773C138.822 43.4773 140.405 43.7506 141.825 44.2829L142.527 42.4103C140.856 41.7835 139.031 41.4773 137.062 41.4773V43.4773ZM141.825 44.2829C143.24 44.8134 144.451 45.5936 145.471 46.624L146.892 45.2169C145.663 43.9746 144.203 43.0388 142.527 42.4103L141.825 44.2829ZM145.471 46.624C146.486 47.6489 147.289 48.9277 147.87 50.4811L149.743 49.7803C149.075 47.9928 148.128 46.4647 146.892 45.2169L145.471 46.624ZM147.871 50.4832C148.446 52.0086 148.744 53.7889 148.744 55.8409H150.744C150.744 53.5975 150.418 51.571 149.743 49.7782L147.871 50.4832ZM148.744 55.8409V57.9205H150.744V55.8409H148.744ZM149.744 56.9205H126.989V58.9205H149.744V56.9205ZM127.989 57.9205V53.0795H125.989V57.9205H127.989ZM126.989 54.0795H141.989V52.0795H126.989V54.0795ZM142.989 53.0667C142.975 52.0241 142.726 51.0603 142.219 50.202L140.497 51.2185C140.808 51.7466 140.979 52.3623 140.989 53.0924L142.989 53.0667ZM142.219 50.202C141.717 49.3503 141.02 48.6827 140.145 48.2109L139.196 49.9709C139.753 50.2718 140.181 50.6838 140.497 51.2185L142.219 50.202ZM140.162 48.2201C139.288 47.7266 138.302 47.4943 137.233 47.4943V49.4943C138.005 49.4943 138.644 49.6598 139.179 49.9617L140.162 48.2201ZM137.233 47.4943C136.145 47.4943 135.136 47.7416 134.233 48.2559L135.222 49.9941C135.796 49.6675 136.457 49.4943 137.233 49.4943V47.4943ZM134.243 48.2502C133.353 48.7432 132.638 49.4286 132.115 50.296L133.828 51.329C134.168 50.7646 134.625 50.3249 135.212 49.9998L134.243 48.2502ZM132.119 50.2899C131.587 51.1573 131.317 52.1328 131.29 53.1906L133.289 53.2412C133.308 52.5036 133.492 51.8768 133.824 51.3351L132.119 50.2899ZM131.29 53.2159V58.142H133.29V53.2159H131.29ZM131.29 58.142C131.29 59.3431 131.527 60.4443 132.034 61.4167L133.807 60.4924C133.473 59.8512 133.29 59.0773 133.29 58.142H131.29ZM132.036 61.4219C132.544 62.3828 133.274 63.1417 134.213 63.68L135.208 61.945C134.601 61.597 134.138 61.1172 133.805 60.4872L132.036 61.4219ZM134.213 63.68C135.164 64.2258 136.264 64.4773 137.472 64.4773V62.4773C136.543 62.4773 135.801 62.2856 135.208 61.945L134.213 63.68ZM137.472 64.4773C138.302 64.4773 139.084 64.3622 139.805 64.1173L139.161 62.2236C138.678 62.3878 138.118 62.4773 137.472 62.4773V64.4773ZM139.805 64.1173C140.528 63.8717 141.169 63.5025 141.712 63.0026L140.357 61.5315C140.036 61.8271 139.643 62.0601 139.161 62.2236L139.805 64.1173ZM141.712 63.0026C142.265 62.4926 142.675 61.8691 142.943 61.1502L141.069 60.452C140.905 60.8922 140.667 61.2461 140.357 61.5315L141.712 63.0026ZM141.977 61.8007L149.63 62.0223L149.688 60.0231L142.035 59.8016L141.977 61.8007ZM148.676 60.8404C148.388 62.393 147.761 63.7252 146.8 64.8588L148.325 66.1525C149.523 64.7407 150.294 63.0842 150.642 61.205L148.676 60.8404ZM146.799 64.8594C145.849 65.9815 144.586 66.8757 142.977 67.5277L143.728 69.3813C145.596 68.6243 147.139 67.5526 148.326 66.1519L146.799 64.8594ZM142.982 67.5257C141.384 68.1628 139.503 68.4943 137.318 68.4943V70.4943C139.702 70.4943 141.843 70.1327 143.723 69.3834L142.982 67.5257ZM162.337 54.0682L161.337 54.0568V54.0682H162.337ZM162.337 69V70H163.337V69H162.337ZM154.001 69H153.001V70H154.001V69ZM154.001 42.8182V41.8182H153.001V42.8182H154.001ZM161.928 42.8182H162.928V41.8182H161.928V42.8182ZM161.928 47.625H160.928V48.625H161.928V47.625ZM162.217 47.625V48.625H162.919L163.158 47.9651L162.217 47.625ZM165.183 43.858L165.728 44.6963L165.733 44.6931L165.183 43.858ZM174.967 43.7216L174.444 44.574L174.453 44.5791L174.967 43.7216ZM178.138 47.1648L177.246 47.6175L177.25 47.6257L178.138 47.1648ZM179.263 52.3125L178.263 52.3067V52.3125H179.263ZM179.263 69V70H180.263V69H179.263ZM170.928 69H169.928V70H170.928V69ZM170.928 53.9489L169.928 53.9411V53.9489H170.928ZM169.82 50.5398L169.077 51.2099L169.082 51.2155L169.82 50.5398ZM164.416 49.892L164.911 50.7612L164.915 50.7585L164.416 49.892ZM162.882 51.5114L161.993 51.0527L161.988 51.0641L162.882 51.5114ZM161.337 54.0682V69H163.337V54.0682H161.337ZM162.337 68H154.001V70H162.337V68ZM155.001 69V42.8182H153.001V69H155.001ZM154.001 43.8182H161.928V41.8182H154.001V43.8182ZM160.928 42.8182V47.625H162.928V42.8182H160.928ZM161.928 48.625H162.217V46.625H161.928V48.625ZM163.158 47.9651C163.665 46.5627 164.517 45.4839 165.728 44.6962L164.638 43.0197C163.054 44.0502 161.929 45.4828 161.277 47.2849L163.158 47.9651ZM165.733 44.6931C166.944 43.896 168.41 43.4773 170.178 43.4773V41.4773C168.081 41.4773 166.218 41.979 164.633 43.0228L165.733 44.6931ZM170.178 43.4773C171.864 43.4773 173.273 43.8556 174.444 44.574L175.49 42.8692C173.957 41.9285 172.173 41.4773 170.178 41.4773V43.4773ZM174.453 44.5791C175.648 45.2963 176.578 46.3005 177.246 47.6175L179.029 46.7121C178.198 45.0745 177.014 43.7832 175.482 42.8641L174.453 44.5791ZM177.25 47.6257C177.924 48.9225 178.273 50.4724 178.263 52.3067L180.263 52.3183C180.275 50.2207 179.874 48.3389 179.025 46.7039L177.25 47.6257ZM178.263 52.3125V69H180.263V52.3125H178.263ZM179.263 68H170.928V70H179.263V68ZM171.928 69V53.9489H169.928V69H171.928ZM171.928 53.9567C171.94 52.33 171.525 50.9207 170.557 49.864L169.082 51.2155C169.614 51.7952 169.938 52.6586 169.928 53.9411L171.928 53.9567ZM170.562 49.8697C169.597 48.8005 168.275 48.3125 166.734 48.3125V50.3125C167.83 50.3125 168.565 50.6427 169.077 51.2099L170.562 49.8697ZM166.734 48.3125C165.707 48.3125 164.758 48.5408 163.917 49.0256L164.915 50.7585C165.415 50.4706 166.011 50.3125 166.734 50.3125V48.3125ZM163.922 49.0229C163.086 49.4982 162.442 50.1843 161.993 51.0527L163.771 51.97C164.05 51.4293 164.428 51.0359 164.911 50.7612L163.922 49.0229ZM161.988 51.0641C161.552 51.9356 161.349 52.945 161.337 54.0568L163.337 54.0795C163.347 53.1913 163.508 52.4963 163.777 51.9586L161.988 51.0641ZM189.537 67.7898L189.036 68.6555L189.039 68.6568L189.537 67.7898ZM185.003 63.0511L184.115 63.5122L184.117 63.5142L185.003 63.0511ZM185.003 48.9375L184.117 48.4726L184.117 48.4744L185.003 48.9375ZM189.554 44.1818L189.056 43.3148L189.054 43.316L189.554 44.1818ZM202.952 43.7898L202.514 44.6887L202.516 44.6898L202.952 43.7898ZM207.179 47.5057L206.333 48.0395L206.338 48.0464L207.179 47.5057ZM208.798 53.1136V54.1136H209.825L209.798 53.0872L208.798 53.1136ZM201.009 53.1136L200.015 53.2315L200.12 54.1136H201.009V53.1136ZM199.645 49.9602L198.927 50.6566L198.932 50.662L199.645 49.9602ZM194.207 49.6364L194.799 50.4424L194.807 50.4364L194.207 49.6364ZM192.503 52.0227L191.57 51.6617L191.568 51.6672L192.503 52.0227ZM192.503 59.8295L191.566 60.1785L191.57 60.1905L192.503 59.8295ZM194.207 62.233L193.607 63.033L193.615 63.039L194.207 62.233ZM198.793 62.5398L198.313 61.6625L198.306 61.6664L198.793 62.5398ZM200.276 61.0909L201.13 61.6099L201.134 61.6032L200.276 61.0909ZM201.009 58.7386V57.7386H200.113L200.015 58.6282L201.009 58.7386ZM208.798 58.7386L209.798 58.7755L209.836 57.7386H208.798V58.7386ZM207.179 64.3977L206.329 63.871L206.326 63.8753L207.179 64.3977ZM203.003 68.1648L203.448 69.0603L203.45 69.0592L203.003 68.1648ZM196.645 68.4943C194.022 68.4943 191.832 67.9553 190.035 66.9228L189.039 68.6568C191.197 69.8969 193.745 70.4943 196.645 70.4943V68.4943ZM190.037 66.924C188.237 65.8831 186.859 64.4436 185.889 62.5881L184.117 63.5142C185.261 65.7041 186.905 67.4238 189.036 68.6555L190.037 66.924ZM185.89 62.5901C184.919 60.7202 184.418 58.5308 184.418 55.9943H182.418C182.418 58.7987 182.973 61.3139 184.115 63.5122L185.89 62.5901ZM184.418 55.9943C184.418 53.4455 184.919 51.2573 185.889 49.4006L184.117 48.4744C182.973 50.6632 182.418 53.1795 182.418 55.9943H184.418ZM185.888 49.4024C186.87 47.5335 188.254 46.0882 190.054 45.0476L189.054 43.316C186.922 44.5482 185.272 46.2733 184.117 48.4726L185.888 49.4024ZM190.052 45.0488C191.85 44.0156 194.029 43.4773 196.628 43.4773V41.4773C193.749 41.4773 191.212 42.0753 189.056 43.3148L190.052 45.0488ZM196.628 43.4773C198.928 43.4773 200.881 43.8928 202.514 44.6887L203.39 42.8908C201.432 41.9367 199.168 41.4773 196.628 41.4773V43.4773ZM202.516 44.6898C204.165 45.4884 205.428 46.6047 206.333 48.0394L208.025 46.9719C206.908 45.2021 205.352 43.8411 203.388 42.8898L202.516 44.6898ZM206.338 48.0464C207.249 49.4636 207.746 51.1497 207.799 53.1401L209.798 53.0872C209.737 50.7822 209.155 48.7296 208.02 46.9649L206.338 48.0464ZM208.798 52.1136H201.009V54.1136H208.798V52.1136ZM202.002 52.9958C201.823 51.4935 201.3 50.2156 200.357 49.2585L198.932 50.662C199.49 51.2276 199.876 52.052 200.015 53.2315L202.002 52.9958ZM200.363 49.2639C199.411 48.2834 198.174 47.8182 196.747 47.8182V49.8182C197.707 49.8182 198.401 50.1144 198.927 50.6565L200.363 49.2639ZM196.747 47.8182C195.579 47.8182 194.519 48.1527 193.607 48.8364L194.807 50.4364C195.35 50.0291 195.983 49.8182 196.747 49.8182V47.8182ZM193.615 48.8304C192.7 49.503 192.031 50.4724 191.57 51.6617L193.435 52.3837C193.793 51.4594 194.261 50.838 194.799 50.4424L193.615 48.8304ZM191.568 51.6672C191.114 52.8605 190.906 54.2852 190.906 55.9091H192.906C192.906 54.442 193.096 53.2759 193.437 52.3783L191.568 51.6672ZM190.906 55.9091C190.906 57.534 191.115 58.9667 191.566 60.1785L193.44 59.4806C193.096 58.556 192.906 57.375 192.906 55.9091H190.906ZM191.57 60.1905C192.03 61.3791 192.697 62.3505 193.607 63.033L194.807 61.433C194.263 61.0245 193.794 60.3937 193.435 59.4686L191.57 60.1905ZM193.615 63.039C194.527 63.7082 195.584 64.0341 196.747 64.0341V62.0341C195.978 62.0341 195.343 61.8259 194.799 61.4269L193.615 63.039ZM196.747 64.0341C197.666 64.0341 198.52 63.8369 199.28 63.4131L198.306 61.6664C197.884 61.9017 197.374 62.0341 196.747 62.0341V64.0341ZM199.273 63.417C200.042 62.996 200.661 62.3835 201.13 61.6099L199.421 60.5719C199.118 61.0711 198.748 61.4244 198.313 61.6625L199.273 63.417ZM201.134 61.6032C201.609 60.808 201.888 59.88 202.002 58.8491L200.015 58.6282C199.925 59.4382 199.715 60.0783 199.417 60.5786L201.134 61.6032ZM201.009 59.7386H208.798V57.7386H201.009V59.7386ZM207.799 58.7018C207.725 60.7117 207.225 62.4243 206.329 63.871L208.029 64.9245C209.132 63.1439 209.713 61.0837 209.798 58.7755L207.799 58.7018ZM206.326 63.8753C205.441 65.3196 204.194 66.451 202.556 67.2703L203.45 69.0592C205.402 68.0831 206.939 66.7031 208.032 64.9201L206.326 63.8753ZM202.558 67.2692C200.94 68.0728 198.98 68.4943 196.645 68.4943V70.4943C199.219 70.4943 201.497 70.0295 203.448 69.0603L202.558 67.2692ZM221.399 54.0682L220.399 54.0568V54.0682H221.399ZM221.399 69V70H222.399V69H221.399ZM213.064 69H212.064V70H213.064V69ZM213.064 34.0909V33.0909H212.064V34.0909H213.064ZM221.126 34.0909H222.126V33.0909H221.126V34.0909ZM221.126 47.625H220.126V48.625H221.126V47.625ZM221.416 47.625V48.625H222.115L222.355 47.9689L221.416 47.625ZM224.314 43.8409L223.756 43.011L223.753 43.0132L224.314 43.8409ZM234.081 43.7045L233.566 44.5621L233.572 44.5652L234.081 43.7045ZM237.251 47.1307L236.36 47.5834L236.363 47.5888L237.251 47.1307ZM238.376 52.3125L237.376 52.3068V52.3125H238.376ZM238.376 69V70H239.376V69H238.376ZM230.041 69H229.041V70H230.041V69ZM230.041 53.9489L229.041 53.9411V53.9489H230.041ZM228.95 50.5398L228.208 51.2099L228.208 51.2099L228.95 50.5398ZM223.513 49.892L224.007 50.7612L224.012 50.7585L223.513 49.892ZM221.962 51.5114L221.079 51.0415L221.073 51.0527L221.962 51.5114ZM220.399 54.0682V69H222.399V54.0682H220.399ZM221.399 68H213.064V70H221.399V68ZM214.064 69V34.0909H212.064V69H214.064ZM213.064 35.0909H221.126V33.0909H213.064V35.0909ZM220.126 34.0909V47.625H222.126V34.0909H220.126ZM221.126 48.625H221.416V46.625H221.126V48.625ZM222.355 47.9689C222.879 46.5394 223.719 45.4527 224.875 44.6686L223.753 43.0132C222.227 44.0473 221.136 45.4833 220.477 47.2811L222.355 47.9689ZM224.872 44.6708C226.029 43.8931 227.478 43.4773 229.274 43.4773V41.4773C227.161 41.4773 225.304 41.9705 223.756 43.011L224.872 44.6708ZM229.274 43.4773C230.963 43.4773 232.381 43.851 233.566 44.562L234.595 42.8471C233.053 41.9217 231.267 41.4773 229.274 41.4773V43.4773ZM233.572 44.5652C234.764 45.2706 235.692 46.2676 236.36 47.5834L238.143 46.678C237.311 45.0393 236.125 43.7521 234.59 42.8439L233.572 44.5652ZM236.363 47.5888C237.037 48.8978 237.387 50.4603 237.376 52.3068L239.376 52.3182C239.389 50.2101 238.988 48.3181 238.14 46.6726L236.363 47.5888ZM237.376 52.3125V69H239.376V52.3125H237.376ZM238.376 68H230.041V70H238.376V68ZM231.041 69V53.9489H229.041V69H231.041ZM231.041 53.9567C231.054 52.3337 230.647 50.9266 229.693 49.8697L228.208 51.2099C228.731 51.7894 229.051 52.6549 229.041 53.9411L231.041 53.9567ZM229.693 49.8697C228.724 48.7968 227.388 48.3125 225.831 48.3125V50.3125C226.955 50.3125 227.699 50.6464 228.208 51.2099L229.693 49.8697ZM225.831 48.3125C224.804 48.3125 223.855 48.5408 223.013 49.0256L224.012 50.7585C224.512 50.4706 225.108 50.3125 225.831 50.3125V48.3125ZM223.018 49.0229C222.186 49.4966 221.538 50.179 221.079 51.0415L222.844 51.9812C223.135 51.4346 223.522 51.0375 224.007 50.7612L223.018 49.0229ZM221.073 51.0527C220.622 51.927 220.412 52.9407 220.399 54.0568L222.399 54.0795C222.409 53.1956 222.574 52.5048 222.85 51.97L221.073 51.0527Z" fill="black" mask="url(#path-1-outside-1_138_499)"/>
<path d="M1.5 40.9432H0.5V41.9432H1.5V40.9432ZM1.5 34.0909V33.0909H0.5V34.0909H1.5ZM31.0057 34.0909H32.0057V33.0909H31.0057V34.0909ZM31.0057 40.9432V41.9432H32.0057V40.9432H31.0057ZM20.4205 40.9432V39.9432H19.4205V40.9432H20.4205ZM20.4205 69V70H21.4205V69H20.4205ZM12.1023 69H11.1023V70H12.1023V69ZM12.1023 40.9432H13.1023V39.9432H12.1023V40.9432ZM2.5 40.9432V34.0909H0.5V40.9432H2.5ZM1.5 35.0909H31.0057V33.0909H1.5V35.0909ZM30.0057 34.0909V40.9432H32.0057V34.0909H30.0057ZM31.0057 39.9432H20.4205V41.9432H31.0057V39.9432ZM19.4205 40.9432V69H21.4205V40.9432H19.4205ZM20.4205 68H12.1023V70H20.4205V68ZM13.1023 69V40.9432H11.1023V69H13.1023ZM12.1023 39.9432H1.5V41.9432H12.1023V39.9432ZM49.9048 42.8182H50.9048V41.8182H49.9048V42.8182ZM49.9048 48.9545V49.9545H50.9048V48.9545H49.9048ZM33.3878 48.9545H32.3878V49.9545H33.3878V48.9545ZM33.3878 42.8182V41.8182H32.3878V42.8182H33.3878ZM36.848 36.5455V35.5455H35.848V36.5455H36.848ZM45.1832 36.5455H46.1832V35.5455H45.1832V36.5455ZM45.4219 62.0114L44.5274 62.4586L44.5372 62.478L44.5477 62.497L45.4219 62.0114ZM46.1548 62.6761L45.7609 63.5953L45.775 63.6013L45.7892 63.6069L46.1548 62.6761ZM48.3026 62.7784L48.4618 63.7656L48.4743 63.7636L48.4868 63.7613L48.3026 62.7784ZM49.1207 62.608L50.0995 62.4028L49.8863 61.3858L48.8782 61.6378L49.1207 62.608ZM50.3821 68.625L50.6568 69.5865L51.5518 69.3308L51.3608 68.4198L50.3821 68.625ZM48.6946 69.0511L48.4664 68.0775L48.463 68.0783L48.6946 69.0511ZM46.1207 69.375L46.0753 68.376L46.0743 68.3761L46.1207 69.375ZM41.0923 68.6932L40.7196 69.6212L40.7288 69.6248L41.0923 68.6932ZM37.9048 66.1023L37.0554 66.6301L37.0591 66.636L37.9048 66.1023ZM36.848 61.6875L37.848 61.7003V61.6875H36.848ZM48.9048 42.8182V48.9545H50.9048V42.8182H48.9048ZM49.9048 47.9545H33.3878V49.9545H49.9048V47.9545ZM34.3878 48.9545V42.8182H32.3878V48.9545H34.3878ZM33.3878 43.8182H49.9048V41.8182H33.3878V43.8182ZM36.848 37.5455H45.1832V35.5455H36.848V37.5455ZM44.1832 36.5455V60.767H46.1832V36.5455H44.1832ZM44.1832 60.767C44.1832 61.3705 44.2753 61.9543 44.5274 62.4586L46.3163 61.5641C46.2502 61.432 46.1832 61.1864 46.1832 60.767H44.1832ZM44.5477 62.497C44.8242 62.9946 45.236 63.3703 45.7609 63.5953L46.5488 61.757C46.4373 61.7092 46.3605 61.6417 46.296 61.5257L44.5477 62.497ZM45.7892 63.6069C46.2527 63.789 46.7639 63.8636 47.2969 63.8636V61.8636C46.9435 61.8636 46.6933 61.8133 46.5205 61.7454L45.7892 63.6069ZM47.2969 63.8636C47.6744 63.8636 48.0631 63.83 48.4618 63.7656L48.1433 61.7912C47.8375 61.8405 47.5558 61.8636 47.2969 61.8636V63.8636ZM48.4868 63.7613C48.8551 63.6922 49.1516 63.631 49.3633 63.5781L48.8782 61.6378C48.7262 61.6758 48.4773 61.7282 48.1183 61.7955L48.4868 63.7613ZM48.142 62.8131L49.4034 68.8302L51.3608 68.4198L50.0995 62.4028L48.142 62.8131ZM50.1074 67.6635C49.7326 67.7705 49.1883 67.9083 48.4664 68.0775L48.9228 70.0248C49.6554 69.853 50.2361 69.7067 50.6568 69.5865L50.1074 67.6635ZM48.463 68.0783C47.8255 68.2301 47.0333 68.3325 46.0753 68.376L46.1661 70.374C47.2081 70.3266 48.1319 70.2131 48.9262 70.0239L48.463 68.0783ZM46.0743 68.3761C44.2189 68.4624 42.6899 68.2432 41.4559 67.7616L40.7288 69.6248C42.2902 70.2341 44.1134 70.4694 46.1672 70.3739L46.0743 68.3761ZM41.465 67.7652C40.2575 67.2802 39.3678 66.5468 38.7505 65.5686L37.0591 66.636C37.9191 67.9987 39.1544 68.9925 40.7196 69.6211L41.465 67.7652ZM38.7542 65.5745C38.1528 64.6067 37.827 63.3362 37.8479 61.7003L35.8481 61.6747C35.8236 63.5842 36.2023 65.257 37.0554 66.63L38.7542 65.5745ZM37.848 61.6875V36.5455H35.848V61.6875H37.848ZM63.0554 34.0909H64.0554V33.0909H63.0554V34.0909ZM63.0554 69V70H64.0554V69H63.0554ZM54.7202 69H53.7202V70H54.7202V69ZM54.7202 34.0909V33.0909H53.7202V34.0909H54.7202ZM62.0554 34.0909V69H64.0554V34.0909H62.0554ZM63.0554 68H54.7202V70H63.0554V68ZM55.7202 69V34.0909H53.7202V69H55.7202ZM54.7202 35.0909H63.0554V33.0909H54.7202V35.0909ZM78.6733 69H77.6733V70H78.6733V69ZM78.6733 34.0909V33.0909H77.6733V34.0909H78.6733ZM102.503 34.0909H103.503V33.0909H102.503V34.0909ZM102.503 40.9432V41.9432H103.503V40.9432H102.503ZM87.1108 40.9432V39.9432H86.1108V40.9432H87.1108ZM87.1108 48.1023H86.1108V49.1023H87.1108V48.1023ZM100.986 48.1023H101.986V47.1023H100.986V48.1023ZM100.986 54.9716V55.9716H101.986V54.9716H100.986ZM87.1108 54.9716V53.9716H86.1108V54.9716H87.1108ZM87.1108 69V70H88.1108V69H87.1108ZM79.6733 69V34.0909H77.6733V69H79.6733ZM78.6733 35.0909H102.503V33.0909H78.6733V35.0909ZM101.503 34.0909V40.9432H103.503V34.0909H101.503ZM102.503 39.9432H87.1108V41.9432H102.503V39.9432ZM86.1108 40.9432V48.1023H88.1108V40.9432H86.1108ZM87.1108 49.1023H100.986V47.1023H87.1108V49.1023ZM99.9858 48.1023V54.9716H101.986V48.1023H99.9858ZM100.986 53.9716H87.1108V55.9716H100.986V53.9716ZM86.1108 54.9716V69H88.1108V54.9716H86.1108ZM87.1108 68H78.6733V70H87.1108V68ZM106.236 69H105.236V70H106.236V69ZM106.236 42.8182V41.8182H105.236V42.8182H106.236ZM114.332 42.8182H115.332V41.8182H114.332V42.8182ZM114.332 47.5909H113.332V48.5909H114.332V47.5909ZM114.605 47.5909V48.5909H115.366L115.569 47.8572L114.605 47.5909ZM116.94 43.7386L117.555 44.5276L117.56 44.5235L116.94 43.7386ZM121.901 42.5455L121.763 43.5359L121.777 43.5378L121.79 43.5393L121.901 42.5455ZM123.043 42.767H124.043V42.0161L123.321 41.8067L123.043 42.767ZM123.043 50.0114L122.718 50.9573L124.043 51.4114V50.0114H123.043ZM121.474 49.6875L121.35 50.6798L121.353 50.68L121.474 49.6875ZM117.094 50.233L117.576 51.1089L117.58 51.1065L117.094 50.233ZM115.236 52.0568L114.371 51.5553L114.368 51.5593L115.236 52.0568ZM114.571 69V70H115.571V69H114.571ZM107.236 69V42.8182H105.236V69H107.236ZM106.236 43.8182H114.332V41.8182H106.236V43.8182ZM113.332 42.8182V47.5909H115.332V42.8182H113.332ZM114.332 48.5909H114.605V46.5909H114.332V48.5909ZM115.569 47.8572C116.007 46.2732 116.691 45.2006 117.555 44.5275L116.326 42.9497C115.031 43.9584 114.158 45.4541 113.641 47.3246L115.569 47.8572ZM117.56 44.5235C118.455 43.8166 119.49 43.4602 120.707 43.4602V41.4602C119.061 41.4602 117.584 41.9561 116.321 42.9538L117.56 44.5235ZM120.707 43.4602C121.045 43.4602 121.396 43.485 121.763 43.5359L122.038 41.555C121.587 41.4922 121.143 41.4602 120.707 41.4602V43.4602ZM121.79 43.5393C122.149 43.5792 122.473 43.6429 122.764 43.7274L123.321 41.8067C122.908 41.6866 122.47 41.6026 122.011 41.5516L121.79 43.5393ZM122.043 42.767V50.0114H124.043V42.767H122.043ZM123.367 49.0654C122.878 48.8978 122.28 48.7789 121.596 48.695L121.353 50.68C121.965 50.7552 122.412 50.8522 122.718 50.9573L123.367 49.0654ZM121.598 48.6952C120.932 48.6119 120.321 48.5682 119.77 48.5682V50.5682C120.219 50.5682 120.744 50.604 121.35 50.6798L121.598 48.6952ZM119.77 48.5682C118.626 48.5682 117.564 48.8263 116.607 49.3594L117.58 51.1065C118.215 50.7533 118.937 50.5682 119.77 50.5682V48.5682ZM116.611 49.357C115.666 49.8777 114.915 50.616 114.371 51.5553L116.101 52.5583C116.466 51.9295 116.953 51.4519 117.576 51.1089L116.611 49.357ZM114.368 51.5593C113.824 52.5079 113.571 53.5946 113.571 54.7841H115.571C115.571 53.8827 115.761 53.1512 116.103 52.5543L114.368 51.5593ZM113.571 54.7841V69H115.571V54.7841H113.571ZM114.571 68H106.236V70H114.571V68ZM130.227 67.875L129.744 68.7506L129.75 68.7539L130.227 67.875ZM125.659 63.2216L124.773 63.6847L124.776 63.6906L125.659 63.2216ZM125.676 48.9205L126.56 49.3874L126.561 49.3854L125.676 48.9205ZM130.193 44.1818L130.694 45.0473L130.698 45.045L130.193 44.1818ZM142.176 43.3466L142.527 42.4103L142.527 42.4103L142.176 43.3466ZM148.807 50.1307L147.87 50.4811L147.871 50.4832L148.807 50.1307ZM149.744 57.9205V58.9205H150.744V57.9205H149.744ZM126.989 57.9205H125.989V58.9205H126.989V57.9205ZM126.989 53.0795V52.0795H125.989V53.0795H126.989ZM141.989 53.0795V54.0795H143.002L142.989 53.0667L141.989 53.0795ZM139.67 49.0909L139.179 49.9617L139.187 49.9664L139.196 49.9709L139.67 49.0909ZM134.727 49.125L135.212 49.9999L135.222 49.9941L134.727 49.125ZM132.972 50.8125L133.824 51.3351L133.828 51.329L132.972 50.8125ZM132.29 53.2159L131.29 53.1906L131.29 53.2033V53.2159H132.29ZM132.92 60.9545L132.034 61.4167L132.036 61.4219L132.92 60.9545ZM134.71 62.8125L134.213 63.68L134.213 63.68L134.71 62.8125ZM139.483 63.1705L139.805 64.1173L139.805 64.1173L139.483 63.1705ZM141.034 62.267L141.712 63.0026L141.712 63.0026L141.034 62.267ZM142.006 60.8011L142.035 59.8016L141.319 59.7808L141.069 60.452L142.006 60.8011ZM149.659 61.0227L150.642 61.205L150.855 60.0569L149.688 60.0231L149.659 61.0227ZM147.562 65.5057L146.8 64.8588L146.799 64.8594L147.562 65.5057ZM143.352 68.4545L143.723 69.3835L143.728 69.3813L143.352 68.4545ZM137.318 68.4943C134.711 68.4943 132.519 67.9811 130.704 66.9961L129.75 68.7539C131.913 69.928 134.448 70.4943 137.318 70.4943V68.4943ZM130.71 66.9994C128.905 66.0032 127.52 64.594 126.542 62.7526L124.776 63.6906C125.934 65.8719 127.595 67.565 129.744 68.7506L130.71 66.9994ZM126.545 62.7585C125.578 60.9068 125.074 58.6692 125.074 56.0114H123.074C123.074 58.9217 123.627 61.4909 124.773 63.6847L126.545 62.7585ZM125.074 56.0114C125.074 53.4399 125.581 51.2421 126.56 49.3874L124.792 48.4535C123.635 50.6442 123.074 53.1737 123.074 56.0114H125.074ZM126.561 49.3854C127.544 47.5143 128.918 46.0754 130.694 45.0472L129.692 43.3164C127.582 44.5382 125.945 46.2584 124.791 48.4555L126.561 49.3854ZM130.698 45.045C132.464 44.0126 134.573 43.4773 137.062 43.4773V41.4773C134.279 41.4773 131.809 42.0784 129.688 43.3186L130.698 45.045ZM137.062 43.4773C138.822 43.4773 140.405 43.7506 141.825 44.2829L142.527 42.4103C140.856 41.7835 139.031 41.4773 137.062 41.4773V43.4773ZM141.825 44.2829C143.24 44.8134 144.451 45.5936 145.471 46.624L146.892 45.2169C145.663 43.9746 144.203 43.0388 142.527 42.4103L141.825 44.2829ZM145.471 46.624C146.486 47.6489 147.289 48.9277 147.87 50.4811L149.743 49.7803C149.075 47.9928 148.128 46.4647 146.892 45.2169L145.471 46.624ZM147.871 50.4832C148.446 52.0086 148.744 53.7889 148.744 55.8409H150.744C150.744 53.5975 150.418 51.571 149.743 49.7782L147.871 50.4832ZM148.744 55.8409V57.9205H150.744V55.8409H148.744ZM149.744 56.9205H126.989V58.9205H149.744V56.9205ZM127.989 57.9205V53.0795H125.989V57.9205H127.989ZM126.989 54.0795H141.989V52.0795H126.989V54.0795ZM142.989 53.0667C142.975 52.0241 142.726 51.0603 142.219 50.202L140.497 51.2185C140.808 51.7466 140.979 52.3623 140.989 53.0924L142.989 53.0667ZM142.219 50.202C141.717 49.3503 141.02 48.6827 140.145 48.2109L139.196 49.9709C139.753 50.2718 140.181 50.6838 140.497 51.2185L142.219 50.202ZM140.162 48.2201C139.288 47.7266 138.302 47.4943 137.233 47.4943V49.4943C138.005 49.4943 138.644 49.6598 139.179 49.9617L140.162 48.2201ZM137.233 47.4943C136.145 47.4943 135.136 47.7416 134.233 48.2559L135.222 49.9941C135.796 49.6675 136.457 49.4943 137.233 49.4943V47.4943ZM134.243 48.2502C133.353 48.7432 132.638 49.4286 132.115 50.296L133.828 51.329C134.168 50.7646 134.625 50.3249 135.212 49.9998L134.243 48.2502ZM132.119 50.2899C131.587 51.1573 131.317 52.1328 131.29 53.1906L133.289 53.2412C133.308 52.5036 133.492 51.8768 133.824 51.3351L132.119 50.2899ZM131.29 53.2159V58.142H133.29V53.2159H131.29ZM131.29 58.142C131.29 59.3431 131.527 60.4443 132.034 61.4167L133.807 60.4924C133.473 59.8512 133.29 59.0773 133.29 58.142H131.29ZM132.036 61.4219C132.544 62.3828 133.274 63.1417 134.213 63.68L135.208 61.945C134.601 61.597 134.138 61.1172 133.805 60.4872L132.036 61.4219ZM134.213 63.68C135.164 64.2258 136.264 64.4773 137.472 64.4773V62.4773C136.543 62.4773 135.801 62.2856 135.208 61.945L134.213 63.68ZM137.472 64.4773C138.302 64.4773 139.084 64.3622 139.805 64.1173L139.161 62.2236C138.678 62.3878 138.118 62.4773 137.472 62.4773V64.4773ZM139.805 64.1173C140.528 63.8717 141.169 63.5025 141.712 63.0026L140.357 61.5315C140.036 61.8271 139.643 62.0601 139.161 62.2236L139.805 64.1173ZM141.712 63.0026C142.265 62.4926 142.675 61.8691 142.943 61.1502L141.069 60.452C140.905 60.8922 140.667 61.2461 140.357 61.5315L141.712 63.0026ZM141.977 61.8007L149.63 62.0223L149.688 60.0231L142.035 59.8016L141.977 61.8007ZM148.676 60.8404C148.388 62.393 147.761 63.7252 146.8 64.8588L148.325 66.1525C149.523 64.7407 150.294 63.0842 150.642 61.205L148.676 60.8404ZM146.799 64.8594C145.849 65.9815 144.586 66.8757 142.977 67.5277L143.728 69.3813C145.596 68.6243 147.139 67.5526 148.326 66.1519L146.799 64.8594ZM142.982 67.5257C141.384 68.1628 139.503 68.4943 137.318 68.4943V70.4943C139.702 70.4943 141.843 70.1327 143.723 69.3834L142.982 67.5257ZM162.337 54.0682L161.337 54.0568V54.0682H162.337ZM162.337 69V70H163.337V69H162.337ZM154.001 69H153.001V70H154.001V69ZM154.001 42.8182V41.8182H153.001V42.8182H154.001ZM161.928 42.8182H162.928V41.8182H161.928V42.8182ZM161.928 47.625H160.928V48.625H161.928V47.625ZM162.217 47.625V48.625H162.919L163.158 47.9651L162.217 47.625ZM165.183 43.858L165.728 44.6963L165.733 44.6931L165.183 43.858ZM174.967 43.7216L174.444 44.574L174.453 44.5791L174.967 43.7216ZM178.138 47.1648L177.246 47.6175L177.25 47.6257L178.138 47.1648ZM179.263 52.3125L178.263 52.3067V52.3125H179.263ZM179.263 69V70H180.263V69H179.263ZM170.928 69H169.928V70H170.928V69ZM170.928 53.9489L169.928 53.9411V53.9489H170.928ZM169.82 50.5398L169.077 51.2099L169.082 51.2155L169.82 50.5398ZM164.416 49.892L164.911 50.7612L164.915 50.7585L164.416 49.892ZM162.882 51.5114L161.993 51.0527L161.988 51.0641L162.882 51.5114ZM161.337 54.0682V69H163.337V54.0682H161.337ZM162.337 68H154.001V70H162.337V68ZM155.001 69V42.8182H153.001V69H155.001ZM154.001 43.8182H161.928V41.8182H154.001V43.8182ZM160.928 42.8182V47.625H162.928V42.8182H160.928ZM161.928 48.625H162.217V46.625H161.928V48.625ZM163.158 47.9651C163.665 46.5627 164.517 45.4839 165.728 44.6962L164.638 43.0197C163.054 44.0502 161.929 45.4828 161.277 47.2849L163.158 47.9651ZM165.733 44.6931C166.944 43.896 168.41 43.4773 170.178 43.4773V41.4773C168.081 41.4773 166.218 41.979 164.633 43.0228L165.733 44.6931ZM170.178 43.4773C171.864 43.4773 173.273 43.8556 174.444 44.574L175.49 42.8692C173.957 41.9285 172.173 41.4773 170.178 41.4773V43.4773ZM174.453 44.5791C175.648 45.2963 176.578 46.3005 177.246 47.6175L179.029 46.7121C178.198 45.0745 177.014 43.7832 175.482 42.8641L174.453 44.5791ZM177.25 47.6257C177.924 48.9225 178.273 50.4724 178.263 52.3067L180.263 52.3183C180.275 50.2207 179.874 48.3389 179.025 46.7039L177.25 47.6257ZM178.263 52.3125V69H180.263V52.3125H178.263ZM179.263 68H170.928V70H179.263V68ZM171.928 69V53.9489H169.928V69H171.928ZM171.928 53.9567C171.94 52.33 171.525 50.9207 170.557 49.864L169.082 51.2155C169.614 51.7952 169.938 52.6586 169.928 53.9411L171.928 53.9567ZM170.562 49.8697C169.597 48.8005 168.275 48.3125 166.734 48.3125V50.3125C167.83 50.3125 168.565 50.6427 169.077 51.2099L170.562 49.8697ZM166.734 48.3125C165.707 48.3125 164.758 48.5408 163.917 49.0256L164.915 50.7585C165.415 50.4706 166.011 50.3125 166.734 50.3125V48.3125ZM163.922 49.0229C163.086 49.4982 162.442 50.1843 161.993 51.0527L163.771 51.97C164.05 51.4293 164.428 51.0359 164.911 50.7612L163.922 49.0229ZM161.988 51.0641C161.552 51.9356 161.349 52.945 161.337 54.0568L163.337 54.0795C163.347 53.1913 163.508 52.4963 163.777 51.9586L161.988 51.0641ZM189.537 67.7898L189.036 68.6555L189.039 68.6568L189.537 67.7898ZM185.003 63.0511L184.115 63.5122L184.117 63.5142L185.003 63.0511ZM185.003 48.9375L184.117 48.4726L184.117 48.4744L185.003 48.9375ZM189.554 44.1818L189.056 43.3148L189.054 43.316L189.554 44.1818ZM202.952 43.7898L202.514 44.6887L202.516 44.6898L202.952 43.7898ZM207.179 47.5057L206.333 48.0395L206.338 48.0464L207.179 47.5057ZM208.798 53.1136V54.1136H209.825L209.798 53.0872L208.798 53.1136ZM201.009 53.1136L200.015 53.2315L200.12 54.1136H201.009V53.1136ZM199.645 49.9602L198.927 50.6566L198.932 50.662L199.645 49.9602ZM194.207 49.6364L194.799 50.4424L194.807 50.4364L194.207 49.6364ZM192.503 52.0227L191.57 51.6617L191.568 51.6672L192.503 52.0227ZM192.503 59.8295L191.566 60.1785L191.57 60.1905L192.503 59.8295ZM194.207 62.233L193.607 63.033L193.615 63.039L194.207 62.233ZM198.793 62.5398L198.313 61.6625L198.306 61.6664L198.793 62.5398ZM200.276 61.0909L201.13 61.6099L201.134 61.6032L200.276 61.0909ZM201.009 58.7386V57.7386H200.113L200.015 58.6282L201.009 58.7386ZM208.798 58.7386L209.798 58.7755L209.836 57.7386H208.798V58.7386ZM207.179 64.3977L206.329 63.871L206.326 63.8753L207.179 64.3977ZM203.003 68.1648L203.448 69.0603L203.45 69.0592L203.003 68.1648ZM196.645 68.4943C194.022 68.4943 191.832 67.9553 190.035 66.9228L189.039 68.6568C191.197 69.8969 193.745 70.4943 196.645 70.4943V68.4943ZM190.037 66.924C188.237 65.8831 186.859 64.4436 185.889 62.5881L184.117 63.5142C185.261 65.7041 186.905 67.4238 189.036 68.6555L190.037 66.924ZM185.89 62.5901C184.919 60.7202 184.418 58.5308 184.418 55.9943H182.418C182.418 58.7987 182.973 61.3139 184.115 63.5122L185.89 62.5901ZM184.418 55.9943C184.418 53.4455 184.919 51.2573 185.889 49.4006L184.117 48.4744C182.973 50.6632 182.418 53.1795 182.418 55.9943H184.418ZM185.888 49.4024C186.87 47.5335 188.254 46.0882 190.054 45.0476L189.054 43.316C186.922 44.5482 185.272 46.2733 184.117 48.4726L185.888 49.4024ZM190.052 45.0488C191.85 44.0156 194.029 43.4773 196.628 43.4773V41.4773C193.749 41.4773 191.212 42.0753 189.056 43.3148L190.052 45.0488ZM196.628 43.4773C198.928 43.4773 200.881 43.8928 202.514 44.6887L203.39 42.8908C201.432 41.9367 199.168 41.4773 196.628 41.4773V43.4773ZM202.516 44.6898C204.165 45.4884 205.428 46.6047 206.333 48.0394L208.025 46.9719C206.908 45.2021 205.352 43.8411 203.388 42.8898L202.516 44.6898ZM206.338 48.0464C207.249 49.4636 207.746 51.1497 207.799 53.1401L209.798 53.0872C209.737 50.7822 209.155 48.7296 208.02 46.9649L206.338 48.0464ZM208.798 52.1136H201.009V54.1136H208.798V52.1136ZM202.002 52.9958C201.823 51.4935 201.3 50.2156 200.357 49.2585L198.932 50.662C199.49 51.2276 199.876 52.052 200.015 53.2315L202.002 52.9958ZM200.363 49.2639C199.411 48.2834 198.174 47.8182 196.747 47.8182V49.8182C197.707 49.8182 198.401 50.1144 198.927 50.6565L200.363 49.2639ZM196.747 47.8182C195.579 47.8182 194.519 48.1527 193.607 48.8364L194.807 50.4364C195.35 50.0291 195.983 49.8182 196.747 49.8182V47.8182ZM193.615 48.8304C192.7 49.503 192.031 50.4724 191.57 51.6617L193.435 52.3837C193.793 51.4594 194.261 50.838 194.799 50.4424L193.615 48.8304ZM191.568 51.6672C191.114 52.8605 190.906 54.2852 190.906 55.9091H192.906C192.906 54.442 193.096 53.2759 193.437 52.3783L191.568 51.6672ZM190.906 55.9091C190.906 57.534 191.115 58.9667 191.566 60.1785L193.44 59.4806C193.096 58.556 192.906 57.375 192.906 55.9091H190.906ZM191.57 60.1905C192.03 61.3791 192.697 62.3505 193.607 63.033L194.807 61.433C194.263 61.0245 193.794 60.3937 193.435 59.4686L191.57 60.1905ZM193.615 63.039C194.527 63.7082 195.584 64.0341 196.747 64.0341V62.0341C195.978 62.0341 195.343 61.8259 194.799 61.4269L193.615 63.039ZM196.747 64.0341C197.666 64.0341 198.52 63.8369 199.28 63.4131L198.306 61.6664C197.884 61.9017 197.374 62.0341 196.747 62.0341V64.0341ZM199.273 63.417C200.042 62.996 200.661 62.3835 201.13 61.6099L199.421 60.5719C199.118 61.0711 198.748 61.4244 198.313 61.6625L199.273 63.417ZM201.134 61.6032C201.609 60.808 201.888 59.88 202.002 58.8491L200.015 58.6282C199.925 59.4382 199.715 60.0783 199.417 60.5786L201.134 61.6032ZM201.009 59.7386H208.798V57.7386H201.009V59.7386ZM207.799 58.7018C207.725 60.7117 207.225 62.4243 206.329 63.871L208.029 64.9245C209.132 63.1439 209.713 61.0837 209.798 58.7755L207.799 58.7018ZM206.326 63.8753C205.441 65.3196 204.194 66.451 202.556 67.2703L203.45 69.0592C205.402 68.0831 206.939 66.7031 208.032 64.9201L206.326 63.8753ZM202.558 67.2692C200.94 68.0728 198.98 68.4943 196.645 68.4943V70.4943C199.219 70.4943 201.497 70.0295 203.448 69.0603L202.558 67.2692ZM221.399 54.0682L220.399 54.0568V54.0682H221.399ZM221.399 69V70H222.399V69H221.399ZM213.064 69H212.064V70H213.064V69ZM213.064 34.0909V33.0909H212.064V34.0909H213.064ZM221.126 34.0909H222.126V33.0909H221.126V34.0909ZM221.126 47.625H220.126V48.625H221.126V47.625ZM221.416 47.625V48.625H222.115L222.355 47.9689L221.416 47.625ZM224.314 43.8409L223.756 43.011L223.753 43.0132L224.314 43.8409ZM234.081 43.7045L233.566 44.5621L233.572 44.5652L234.081 43.7045ZM237.251 47.1307L236.36 47.5834L236.363 47.5888L237.251 47.1307ZM238.376 52.3125L237.376 52.3068V52.3125H238.376ZM238.376 69V70H239.376V69H238.376ZM230.041 69H229.041V70H230.041V69ZM230.041 53.9489L229.041 53.9411V53.9489H230.041ZM228.95 50.5398L228.208 51.2099L228.208 51.2099L228.95 50.5398ZM223.513 49.892L224.007 50.7612L224.012 50.7585L223.513 49.892ZM221.962 51.5114L221.079 51.0415L221.073 51.0527L221.962 51.5114ZM220.399 54.0682V69H222.399V54.0682H220.399ZM221.399 68H213.064V70H221.399V68ZM214.064 69V34.0909H212.064V69H214.064ZM213.064 35.0909H221.126V33.0909H213.064V35.0909ZM220.126 34.0909V47.625H222.126V34.0909H220.126ZM221.126 48.625H221.416V46.625H221.126V48.625ZM222.355 47.9689C222.879 46.5394 223.719 45.4527 224.875 44.6686L223.753 43.0132C222.227 44.0473 221.136 45.4833 220.477 47.2811L222.355 47.9689ZM224.872 44.6708C226.029 43.8931 227.478 43.4773 229.274 43.4773V41.4773C227.161 41.4773 225.304 41.9705 223.756 43.011L224.872 44.6708ZM229.274 43.4773C230.963 43.4773 232.381 43.851 233.566 44.562L234.595 42.8471C233.053 41.9217 231.267 41.4773 229.274 41.4773V43.4773ZM233.572 44.5652C234.764 45.2706 235.692 46.2676 236.36 47.5834L238.143 46.678C237.311 45.0393 236.125 43.7521 234.59 42.8439L233.572 44.5652ZM236.363 47.5888C237.037 48.8978 237.387 50.4603 237.376 52.3068L239.376 52.3182C239.389 50.2101 238.988 48.3181 238.14 46.6726L236.363 47.5888ZM237.376 52.3125V69H239.376V52.3125H237.376ZM238.376 68H230.041V70H238.376V68ZM231.041 69V53.9489H229.041V69H231.041ZM231.041 53.9567C231.054 52.3337 230.647 50.9266 229.693 49.8697L228.208 51.2099C228.731 51.7894 229.051 52.6549 229.041 53.9411L231.041 53.9567ZM229.693 49.8697C228.724 48.7968 227.388 48.3125 225.831 48.3125V50.3125C226.955 50.3125 227.699 50.6464 228.208 51.2099L229.693 49.8697ZM225.831 48.3125C224.804 48.3125 223.855 48.5408 223.013 49.0256L224.012 50.7585C224.512 50.4706 225.108 50.3125 225.831 50.3125V48.3125ZM223.018 49.0229C222.186 49.4966 221.538 50.179 221.079 51.0415L222.844 51.9812C223.135 51.4346 223.522 51.0375 224.007 50.7612L223.018 49.0229ZM221.073 51.0527C220.622 51.927 220.412 52.9407 220.399 54.0568L222.399 54.0795C222.409 53.1956 222.574 52.5048 222.85 51.97L221.073 51.0527Z" fill="black" fill-opacity="0.2" mask="url(#path-1-outside-1_138_499)"/>
</g>
</g>
<defs>
<filter id="filter0_dd_138_499" x="-3.5" y="33.0909" width="246.877" height="45.4034" filterUnits="userSpaceOnUse" color-interpolation-filters="sRGB">
<feFlood flood-opacity="0" result="BackgroundImageFix"/>
<feColorMatrix in="SourceAlpha" type="matrix" values="0 0 0 0 0 0 0 0 0 0 0 0 0 0 0 0 0 0 127 0" result="hardAlpha"/>
<feOffset dy="4"/>
<feGaussianBlur stdDeviation="2"/>
<feComposite in2="hardAlpha" operator="out"/>
<feColorMatrix type="matrix" values="0 0 0 0 0 0 0 0 0 0 0 0 0 0 0 0 0 0 0.25 0"/>
<feBlend mode="normal" in2="BackgroundImageFix" result="effect1_dropShadow_138_499"/>
<feColorMatrix in="SourceAlpha" type="matrix" values="0 0 0 0 0 0 0 0 0 0 0 0 0 0 0 0 0 0 127 0" result="hardAlpha"/>
<feOffset dy="4"/>
<feGaussianBlur stdDeviation="2"/>
<feComposite in2="hardAlpha" operator="out"/>
<feColorMatrix type="matrix" values="0 0 0 0 0 0 0 0 0 0 0 0 0 0 0 0 0 0 0.25 0"/>
<feBlend mode="normal" in2="effect1_dropShadow_138_499" result="effect2_dropShadow_138_499"/>
<feBlend mode="normal" in="SourceGraphic" in2="effect2_dropShadow_138_499" result="shape"/>
</filter>
<clipPath id="clip0_138_499">
<rect width="322" height="117" fill="white"/>
</clipPath>
</defs>
</svg>
