<svg width="322" height="117" viewBox="0 0 322 117" fill="none" xmlns="http://www.w3.org/2000/svg">
<g clip-path="url(#clip0_120_3)">
<rect width="322" height="117" fill="white"/>
<g filter="url(#filter0_dd_120_3)">
<mask id="path-1-outside-1_120_3" maskUnits="userSpaceOnUse" x="1" y="33" width="243" height="38" fill="black">
<rect fill="white" x="1" y="33" width="243" height="38"/>
<path d="M23.7614 34.0909H32.1818V56.608C32.1818 59.2102 31.5625 61.4773 30.3239 63.4091C29.0852 65.3295 27.358 66.8182 25.142 67.875C22.9261 68.9205 20.3523 69.4432 17.4205 69.4432C14.4545 69.4432 11.8636 68.9205 9.64773 67.875C7.43182 66.8182 5.71023 65.3295 4.48295 63.4091C3.25568 61.4773 2.64205 59.2102 2.64205 56.608V34.0909H11.0795V55.875C11.0795 57.0795 11.3409 58.1534 11.8636 59.0966C12.3977 60.0398 13.142 60.7784 14.0966 61.3125C15.0511 61.8466 16.1591 62.1136 17.4205 62.1136C18.6818 62.1136 19.7841 61.8466 20.7273 61.3125C21.6818 60.7784 22.4261 60.0398 22.9602 59.0966C23.4943 58.1534 23.7614 57.0795 23.7614 55.875V34.0909ZM45.8054 54.0682V69H37.4702V42.8182H45.3963V47.625H45.6861C46.2656 46.0227 47.2543 44.767 48.652 43.858C50.0497 42.9375 51.7145 42.4773 53.6463 42.4773C55.4872 42.4773 57.0838 42.892 58.4361 43.7216C59.7997 44.5398 60.8565 45.6875 61.6065 47.1648C62.3679 48.6307 62.7429 50.3466 62.7315 52.3125V69H54.3963V53.9489C54.4077 52.4943 54.0384 51.358 53.2884 50.5398C52.5497 49.7216 51.5213 49.3125 50.2031 49.3125C49.3281 49.3125 48.5554 49.5057 47.8849 49.892C47.2259 50.267 46.7145 50.8068 46.3509 51.5114C45.9986 52.2159 45.8168 53.0682 45.8054 54.0682ZM77.4545 69.375C75.5227 69.375 73.767 68.875 72.1875 67.875C70.608 66.875 69.3466 65.375 68.4034 63.375C67.4602 61.375 66.9886 58.892 66.9886 55.9261C66.9886 52.8466 67.4773 50.3125 68.4545 48.3239C69.4318 46.3352 70.7102 44.8636 72.2898 43.9091C73.8807 42.9545 75.5909 42.4773 77.4205 42.4773C78.7955 42.4773 79.9716 42.7159 80.9489 43.1932C81.9261 43.6591 82.733 44.2614 83.3693 45C84.0057 45.7386 84.4886 46.5057 84.8182 47.3011H84.9886V34.0909H93.3239V69H85.0739V64.7557H84.8182C84.4659 65.5625 83.9659 66.3182 83.3182 67.0227C82.6705 67.7273 81.858 68.2955 80.8807 68.7273C79.9148 69.1591 78.7727 69.375 77.4545 69.375ZM80.3523 62.8807C81.3636 62.8807 82.2273 62.5966 82.9432 62.0284C83.6591 61.4489 84.2102 60.6364 84.5966 59.5909C84.983 58.5455 85.1761 57.3182 85.1761 55.9091C85.1761 54.4773 84.983 53.2443 84.5966 52.2102C84.2216 51.1761 83.6705 50.3807 82.9432 49.8239C82.2273 49.267 81.3636 48.9886 80.3523 48.9886C79.3182 48.9886 78.4432 49.2727 77.7273 49.8409C77.0114 50.4091 76.4659 51.2102 76.0909 52.2443C75.7273 53.2784 75.5455 54.5 75.5455 55.9091C75.5455 57.3182 75.733 58.5455 76.108 59.5909C76.483 60.6364 77.0227 61.4489 77.7273 62.0284C78.4432 62.5966 79.3182 62.8807 80.3523 62.8807ZM110.834 69.4943C108.095 69.4943 105.732 68.9545 103.743 67.875C101.766 66.7841 100.243 65.233 99.1747 63.2216C98.1179 61.1989 97.5895 58.7955 97.5895 56.0114C97.5895 53.3068 98.1236 50.9432 99.1918 48.9205C100.26 46.8864 101.766 45.3068 103.709 44.1818C105.652 43.0455 107.942 42.4773 110.578 42.4773C112.442 42.4773 114.146 42.767 115.692 43.3466C117.237 43.9261 118.572 44.7841 119.697 45.9205C120.822 47.0568 121.697 48.4602 122.322 50.1307C122.947 51.7898 123.26 53.6932 123.26 55.8409V57.9205H100.504V53.0795H115.504C115.493 52.1932 115.283 51.4034 114.874 50.7102C114.464 50.017 113.902 49.4773 113.186 49.0909C112.482 48.6932 111.669 48.4943 110.749 48.4943C109.817 48.4943 108.982 48.7045 108.243 49.125C107.504 49.5341 106.919 50.0966 106.487 50.8125C106.055 51.517 105.828 52.3182 105.805 53.2159V58.142C105.805 59.2102 106.016 60.1477 106.436 60.9545C106.857 61.75 107.453 62.3693 108.226 62.8125C108.999 63.2557 109.919 63.4773 110.987 63.4773C111.726 63.4773 112.396 63.375 112.999 63.1705C113.601 62.9659 114.118 62.6648 114.55 62.267C114.982 61.8693 115.305 61.3807 115.521 60.8011L123.175 61.0227C122.857 62.7386 122.158 64.233 121.078 65.5057C120.01 66.767 118.607 67.75 116.868 68.4545C115.129 69.1477 113.118 69.4943 110.834 69.4943ZM127.517 69V42.8182H135.614V47.5909H135.886C136.364 45.8636 137.142 44.5795 138.222 43.7386C139.301 42.8864 140.557 42.4602 141.989 42.4602C142.375 42.4602 142.773 42.4886 143.182 42.5455C143.591 42.5909 143.972 42.6648 144.324 42.767V50.0114C143.926 49.875 143.403 49.767 142.756 49.6875C142.119 49.608 141.551 49.5682 141.051 49.5682C140.063 49.5682 139.17 49.7898 138.375 50.233C137.591 50.6648 136.972 51.2727 136.517 52.0568C136.074 52.8295 135.852 53.7386 135.852 54.7841V69H127.517ZM156.055 34.0909V69H147.72V34.0909H156.055ZM168.741 69.4432C167.071 69.4432 165.588 69.1648 164.293 68.608C163.009 68.0398 161.991 67.1875 161.241 66.0511C160.503 64.9034 160.134 63.4659 160.134 61.7386C160.134 60.2841 160.389 59.0568 160.901 58.0568C161.412 57.0568 162.116 56.2443 163.014 55.6193C163.912 54.9943 164.946 54.5227 166.116 54.2045C167.287 53.875 168.537 53.6534 169.866 53.5398C171.355 53.4034 172.554 53.2614 173.463 53.1136C174.372 52.9545 175.031 52.733 175.44 52.4489C175.861 52.1534 176.071 51.7386 176.071 51.2045V51.1193C176.071 50.2443 175.77 49.5682 175.168 49.0909C174.565 48.6136 173.753 48.375 172.73 48.375C171.628 48.375 170.741 48.6136 170.071 49.0909C169.401 49.5682 168.974 50.2273 168.793 51.0682L161.105 50.7955C161.332 49.2045 161.918 47.7841 162.861 46.5341C163.815 45.2727 165.122 44.2841 166.781 43.5682C168.452 42.8409 170.457 42.4773 172.798 42.4773C174.469 42.4773 176.009 42.6761 177.418 43.0739C178.827 43.4602 180.054 44.0284 181.099 44.7784C182.145 45.517 182.952 46.4261 183.52 47.5057C184.099 48.5852 184.389 49.8182 184.389 51.2045V69H176.548V65.3523H176.344C175.878 66.2386 175.281 66.9886 174.554 67.6023C173.838 68.2159 172.991 68.6761 172.014 68.983C171.048 69.2898 169.957 69.4432 168.741 69.4432ZM171.315 63.9886C172.213 63.9886 173.02 63.8068 173.736 63.4432C174.463 63.0795 175.043 62.5795 175.474 61.9432C175.906 61.2955 176.122 60.5455 176.122 59.6932V57.2045C175.884 57.3295 175.594 57.4432 175.253 57.5455C174.923 57.6477 174.56 57.7443 174.162 57.8352C173.764 57.9261 173.355 58.0057 172.935 58.0739C172.514 58.142 172.111 58.2045 171.724 58.2614C170.94 58.3864 170.27 58.5795 169.713 58.8409C169.168 59.1023 168.747 59.4432 168.452 59.8636C168.168 60.2727 168.026 60.7614 168.026 61.3295C168.026 62.1932 168.332 62.8523 168.946 63.3068C169.571 63.7614 170.361 63.9886 171.315 63.9886ZM212.344 50.8125L204.69 51.017C204.611 50.4716 204.395 49.9886 204.043 49.5682C203.69 49.1364 203.23 48.8011 202.662 48.5625C202.105 48.3125 201.457 48.1875 200.719 48.1875C199.753 48.1875 198.929 48.3807 198.247 48.767C197.577 49.1534 197.247 49.6761 197.259 50.3352C197.247 50.8466 197.452 51.2898 197.872 51.6648C198.304 52.0398 199.071 52.3409 200.173 52.5682L205.219 53.5227C207.832 54.0227 209.776 54.8523 211.048 56.0114C212.332 57.1705 212.98 58.7045 212.991 60.6136C212.98 62.4091 212.446 63.9716 211.389 65.3011C210.344 66.6307 208.912 67.6648 207.094 68.4034C205.276 69.1307 203.196 69.4943 200.855 69.4943C197.116 69.4943 194.168 68.7273 192.009 67.1932C189.861 65.6477 188.634 63.5795 188.327 60.9886L196.56 60.7841C196.741 61.7386 197.213 62.4659 197.974 62.9659C198.736 63.4659 199.707 63.7159 200.889 63.7159C201.957 63.7159 202.827 63.517 203.497 63.1193C204.168 62.7216 204.509 62.1932 204.52 61.5341C204.509 60.9432 204.247 60.4716 203.736 60.1193C203.224 59.7557 202.423 59.4716 201.332 59.267L196.764 58.3977C194.139 57.9205 192.185 57.0398 190.901 55.7557C189.616 54.4602 188.98 52.8125 188.991 50.8125C188.98 49.0625 189.446 47.5682 190.389 46.3295C191.332 45.0795 192.673 44.125 194.412 43.4659C196.151 42.8068 198.202 42.4773 200.565 42.4773C204.111 42.4773 206.906 43.2216 208.952 44.7102C210.997 46.1875 212.128 48.2216 212.344 50.8125ZM225.43 54.0682V69H217.095V34.0909H225.158V47.625H225.447C226.038 46.0114 227.004 44.75 228.345 43.8409C229.697 42.9318 231.351 42.4773 233.305 42.4773C235.146 42.4773 236.749 42.8864 238.112 43.7045C239.476 44.5114 240.533 45.6534 241.283 47.1307C242.044 48.608 242.419 50.3352 242.408 52.3125V69H234.072V53.9489C234.084 52.4943 233.72 51.358 232.982 50.5398C232.243 49.7216 231.203 49.3125 229.862 49.3125C228.987 49.3125 228.214 49.5057 227.544 49.892C226.885 50.267 226.368 50.8068 225.993 51.5114C225.629 52.2159 225.442 53.0682 225.43 54.0682Z"/>
</mask>
<path d="M23.7614 34.0909H32.1818V56.608C32.1818 59.2102 31.5625 61.4773 30.3239 63.4091C29.0852 65.3295 27.358 66.8182 25.142 67.875C22.9261 68.9205 20.3523 69.4432 17.4205 69.4432C14.4545 69.4432 11.8636 68.9205 9.64773 67.875C7.43182 66.8182 5.71023 65.3295 4.48295 63.4091C3.25568 61.4773 2.64205 59.2102 2.64205 56.608V34.0909H11.0795V55.875C11.0795 57.0795 11.3409 58.1534 11.8636 59.0966C12.3977 60.0398 13.142 60.7784 14.0966 61.3125C15.0511 61.8466 16.1591 62.1136 17.4205 62.1136C18.6818 62.1136 19.7841 61.8466 20.7273 61.3125C21.6818 60.7784 22.4261 60.0398 22.9602 59.0966C23.4943 58.1534 23.7614 57.0795 23.7614 55.875V34.0909ZM45.8054 54.0682V69H37.4702V42.8182H45.3963V47.625H45.6861C46.2656 46.0227 47.2543 44.767 48.652 43.858C50.0497 42.9375 51.7145 42.4773 53.6463 42.4773C55.4872 42.4773 57.0838 42.892 58.4361 43.7216C59.7997 44.5398 60.8565 45.6875 61.6065 47.1648C62.3679 48.6307 62.7429 50.3466 62.7315 52.3125V69H54.3963V53.9489C54.4077 52.4943 54.0384 51.358 53.2884 50.5398C52.5497 49.7216 51.5213 49.3125 50.2031 49.3125C49.3281 49.3125 48.5554 49.5057 47.8849 49.892C47.2259 50.267 46.7145 50.8068 46.3509 51.5114C45.9986 52.2159 45.8168 53.0682 45.8054 54.0682ZM77.4545 69.375C75.5227 69.375 73.767 68.875 72.1875 67.875C70.608 66.875 69.3466 65.375 68.4034 63.375C67.4602 61.375 66.9886 58.892 66.9886 55.9261C66.9886 52.8466 67.4773 50.3125 68.4545 48.3239C69.4318 46.3352 70.7102 44.8636 72.2898 43.9091C73.8807 42.9545 75.5909 42.4773 77.4205 42.4773C78.7955 42.4773 79.9716 42.7159 80.9489 43.1932C81.9261 43.6591 82.733 44.2614 83.3693 45C84.0057 45.7386 84.4886 46.5057 84.8182 47.3011H84.9886V34.0909H93.3239V69H85.0739V64.7557H84.8182C84.4659 65.5625 83.9659 66.3182 83.3182 67.0227C82.6705 67.7273 81.858 68.2955 80.8807 68.7273C79.9148 69.1591 78.7727 69.375 77.4545 69.375ZM80.3523 62.8807C81.3636 62.8807 82.2273 62.5966 82.9432 62.0284C83.6591 61.4489 84.2102 60.6364 84.5966 59.5909C84.983 58.5455 85.1761 57.3182 85.1761 55.9091C85.1761 54.4773 84.983 53.2443 84.5966 52.2102C84.2216 51.1761 83.6705 50.3807 82.9432 49.8239C82.2273 49.267 81.3636 48.9886 80.3523 48.9886C79.3182 48.9886 78.4432 49.2727 77.7273 49.8409C77.0114 50.4091 76.4659 51.2102 76.0909 52.2443C75.7273 53.2784 75.5455 54.5 75.5455 55.9091C75.5455 57.3182 75.733 58.5455 76.108 59.5909C76.483 60.6364 77.0227 61.4489 77.7273 62.0284C78.4432 62.5966 79.3182 62.8807 80.3523 62.8807ZM110.834 69.4943C108.095 69.4943 105.732 68.9545 103.743 67.875C101.766 66.7841 100.243 65.233 99.1747 63.2216C98.1179 61.1989 97.5895 58.7955 97.5895 56.0114C97.5895 53.3068 98.1236 50.9432 99.1918 48.9205C100.26 46.8864 101.766 45.3068 103.709 44.1818C105.652 43.0455 107.942 42.4773 110.578 42.4773C112.442 42.4773 114.146 42.767 115.692 43.3466C117.237 43.9261 118.572 44.7841 119.697 45.9205C120.822 47.0568 121.697 48.4602 122.322 50.1307C122.947 51.7898 123.26 53.6932 123.26 55.8409V57.9205H100.504V53.0795H115.504C115.493 52.1932 115.283 51.4034 114.874 50.7102C114.464 50.017 113.902 49.4773 113.186 49.0909C112.482 48.6932 111.669 48.4943 110.749 48.4943C109.817 48.4943 108.982 48.7045 108.243 49.125C107.504 49.5341 106.919 50.0966 106.487 50.8125C106.055 51.517 105.828 52.3182 105.805 53.2159V58.142C105.805 59.2102 106.016 60.1477 106.436 60.9545C106.857 61.75 107.453 62.3693 108.226 62.8125C108.999 63.2557 109.919 63.4773 110.987 63.4773C111.726 63.4773 112.396 63.375 112.999 63.1705C113.601 62.9659 114.118 62.6648 114.55 62.267C114.982 61.8693 115.305 61.3807 115.521 60.8011L123.175 61.0227C122.857 62.7386 122.158 64.233 121.078 65.5057C120.01 66.767 118.607 67.75 116.868 68.4545C115.129 69.1477 113.118 69.4943 110.834 69.4943ZM127.517 69V42.8182H135.614V47.5909H135.886C136.364 45.8636 137.142 44.5795 138.222 43.7386C139.301 42.8864 140.557 42.4602 141.989 42.4602C142.375 42.4602 142.773 42.4886 143.182 42.5455C143.591 42.5909 143.972 42.6648 144.324 42.767V50.0114C143.926 49.875 143.403 49.767 142.756 49.6875C142.119 49.608 141.551 49.5682 141.051 49.5682C140.063 49.5682 139.17 49.7898 138.375 50.233C137.591 50.6648 136.972 51.2727 136.517 52.0568C136.074 52.8295 135.852 53.7386 135.852 54.7841V69H127.517ZM156.055 34.0909V69H147.72V34.0909H156.055ZM168.741 69.4432C167.071 69.4432 165.588 69.1648 164.293 68.608C163.009 68.0398 161.991 67.1875 161.241 66.0511C160.503 64.9034 160.134 63.4659 160.134 61.7386C160.134 60.2841 160.389 59.0568 160.901 58.0568C161.412 57.0568 162.116 56.2443 163.014 55.6193C163.912 54.9943 164.946 54.5227 166.116 54.2045C167.287 53.875 168.537 53.6534 169.866 53.5398C171.355 53.4034 172.554 53.2614 173.463 53.1136C174.372 52.9545 175.031 52.733 175.44 52.4489C175.861 52.1534 176.071 51.7386 176.071 51.2045V51.1193C176.071 50.2443 175.77 49.5682 175.168 49.0909C174.565 48.6136 173.753 48.375 172.73 48.375C171.628 48.375 170.741 48.6136 170.071 49.0909C169.401 49.5682 168.974 50.2273 168.793 51.0682L161.105 50.7955C161.332 49.2045 161.918 47.7841 162.861 46.5341C163.815 45.2727 165.122 44.2841 166.781 43.5682C168.452 42.8409 170.457 42.4773 172.798 42.4773C174.469 42.4773 176.009 42.6761 177.418 43.0739C178.827 43.4602 180.054 44.0284 181.099 44.7784C182.145 45.517 182.952 46.4261 183.52 47.5057C184.099 48.5852 184.389 49.8182 184.389 51.2045V69H176.548V65.3523H176.344C175.878 66.2386 175.281 66.9886 174.554 67.6023C173.838 68.2159 172.991 68.6761 172.014 68.983C171.048 69.2898 169.957 69.4432 168.741 69.4432ZM171.315 63.9886C172.213 63.9886 173.02 63.8068 173.736 63.4432C174.463 63.0795 175.043 62.5795 175.474 61.9432C175.906 61.2955 176.122 60.5455 176.122 59.6932V57.2045C175.884 57.3295 175.594 57.4432 175.253 57.5455C174.923 57.6477 174.56 57.7443 174.162 57.8352C173.764 57.9261 173.355 58.0057 172.935 58.0739C172.514 58.142 172.111 58.2045 171.724 58.2614C170.94 58.3864 170.27 58.5795 169.713 58.8409C169.168 59.1023 168.747 59.4432 168.452 59.8636C168.168 60.2727 168.026 60.7614 168.026 61.3295C168.026 62.1932 168.332 62.8523 168.946 63.3068C169.571 63.7614 170.361 63.9886 171.315 63.9886ZM212.344 50.8125L204.69 51.017C204.611 50.4716 204.395 49.9886 204.043 49.5682C203.69 49.1364 203.23 48.8011 202.662 48.5625C202.105 48.3125 201.457 48.1875 200.719 48.1875C199.753 48.1875 198.929 48.3807 198.247 48.767C197.577 49.1534 197.247 49.6761 197.259 50.3352C197.247 50.8466 197.452 51.2898 197.872 51.6648C198.304 52.0398 199.071 52.3409 200.173 52.5682L205.219 53.5227C207.832 54.0227 209.776 54.8523 211.048 56.0114C212.332 57.1705 212.98 58.7045 212.991 60.6136C212.98 62.4091 212.446 63.9716 211.389 65.3011C210.344 66.6307 208.912 67.6648 207.094 68.4034C205.276 69.1307 203.196 69.4943 200.855 69.4943C197.116 69.4943 194.168 68.7273 192.009 67.1932C189.861 65.6477 188.634 63.5795 188.327 60.9886L196.56 60.7841C196.741 61.7386 197.213 62.4659 197.974 62.9659C198.736 63.4659 199.707 63.7159 200.889 63.7159C201.957 63.7159 202.827 63.517 203.497 63.1193C204.168 62.7216 204.509 62.1932 204.52 61.5341C204.509 60.9432 204.247 60.4716 203.736 60.1193C203.224 59.7557 202.423 59.4716 201.332 59.267L196.764 58.3977C194.139 57.9205 192.185 57.0398 190.901 55.7557C189.616 54.4602 188.98 52.8125 188.991 50.8125C188.98 49.0625 189.446 47.5682 190.389 46.3295C191.332 45.0795 192.673 44.125 194.412 43.4659C196.151 42.8068 198.202 42.4773 200.565 42.4773C204.111 42.4773 206.906 43.2216 208.952 44.7102C210.997 46.1875 212.128 48.2216 212.344 50.8125ZM225.43 54.0682V69H217.095V34.0909H225.158V47.625H225.447C226.038 46.0114 227.004 44.75 228.345 43.8409C229.697 42.9318 231.351 42.4773 233.305 42.4773C235.146 42.4773 236.749 42.8864 238.112 43.7045C239.476 44.5114 240.533 45.6534 241.283 47.1307C242.044 48.608 242.419 50.3352 242.408 52.3125V69H234.072V53.9489C234.084 52.4943 233.72 51.358 232.982 50.5398C232.243 49.7216 231.203 49.3125 229.862 49.3125C228.987 49.3125 228.214 49.5057 227.544 49.892C226.885 50.267 226.368 50.8068 225.993 51.5114C225.629 52.2159 225.442 53.0682 225.43 54.0682Z" fill="#002855"/>
<path d="M23.7614 34.0909V33.0909H22.7614V34.0909H23.7614ZM32.1818 34.0909H33.1818V33.0909H32.1818V34.0909ZM30.3239 63.4091L31.1642 63.9511L31.1657 63.9488L30.3239 63.4091ZM25.142 67.875L25.5687 68.7794L25.5725 68.7776L25.142 67.875ZM9.64773 67.875L9.21725 68.7776L9.22104 68.7794L9.64773 67.875ZM4.48295 63.4091L3.63888 63.9453L3.64032 63.9476L4.48295 63.4091ZM2.64205 34.0909V33.0909H1.64205V34.0909H2.64205ZM11.0795 34.0909H12.0795V33.0909H11.0795V34.0909ZM11.8636 59.0966L10.9889 59.5814L10.9935 59.5893L11.8636 59.0966ZM14.0966 61.3125L14.5849 60.4398L14.5849 60.4398L14.0966 61.3125ZM20.7273 61.3125L20.239 60.4398L20.2345 60.4423L20.7273 61.3125ZM23.7614 35.0909H32.1818V33.0909H23.7614V35.0909ZM31.1818 34.0909V56.608H33.1818V34.0909H31.1818ZM31.1818 56.608C31.1818 59.0452 30.604 61.1194 29.482 62.8693L31.1657 63.9488C32.521 61.8351 33.1818 59.3752 33.1818 56.608H31.1818ZM29.4835 62.8671C28.3529 64.62 26.773 65.9893 24.7116 66.9724L25.5725 68.7776C27.9429 67.6471 29.8176 66.0391 31.1642 63.9511L29.4835 62.8671ZM24.7154 66.9706C22.6565 67.9419 20.2334 68.4432 17.4205 68.4432V70.4432C20.4712 70.4432 23.1957 69.899 25.5687 68.7794L24.7154 66.9706ZM17.4205 68.4432C14.5716 68.4432 12.1318 67.9413 10.0744 66.9706L9.22104 68.7794C11.5955 69.8997 14.3375 70.4432 17.4205 70.4432V68.4432ZM10.0782 66.9724C8.01746 65.9896 6.44442 64.6214 5.32559 62.8706L3.64032 63.9476C4.97604 66.0377 6.84618 67.6468 9.21726 68.7776L10.0782 66.9724ZM5.32702 62.8729C4.21503 61.1225 3.64205 59.047 3.64205 56.608H1.64205C1.64205 59.3734 2.29633 61.832 3.63888 63.9453L5.32702 62.8729ZM3.64205 56.608V34.0909H1.64205V56.608H3.64205ZM2.64205 35.0909H11.0795V33.0909H2.64205V35.0909ZM10.0795 34.0909V55.875H12.0795V34.0909H10.0795ZM10.0795 55.875C10.0795 57.2289 10.3748 58.4731 10.989 59.5813L12.7383 58.6118C12.3071 57.8337 12.0795 56.9302 12.0795 55.875H10.0795ZM10.9935 59.5893C11.6186 60.6932 12.4956 61.5626 13.6083 62.1852L14.5849 60.4398C13.7884 59.9942 13.1769 59.3863 12.7338 58.6038L10.9935 59.5893ZM13.6083 62.1852C14.7336 62.8148 16.0146 63.1136 17.4205 63.1136V61.1136C16.3036 61.1136 15.3687 60.8784 14.5849 60.4398L13.6083 62.1852ZM17.4205 63.1136C18.826 63.1136 20.1035 62.8149 21.22 62.1827L20.2345 60.4423C19.4646 60.8783 18.5376 61.1136 17.4205 61.1136V63.1136ZM21.2156 62.1852C22.3282 61.5626 23.2053 60.6932 23.8304 59.5893L22.0901 58.6038C21.647 59.3863 21.0354 59.9942 20.239 60.4398L21.2156 62.1852ZM23.8304 59.5893C24.4588 58.4796 24.7614 57.2326 24.7614 55.875H22.7614C22.7614 56.9265 22.5299 57.8272 22.0901 58.6038L23.8304 59.5893ZM24.7614 55.875V34.0909H22.7614V55.875H24.7614ZM45.8054 54.0682L44.8054 54.0568V54.0682H45.8054ZM45.8054 69V70H46.8054V69H45.8054ZM37.4702 69H36.4702V70H37.4702V69ZM37.4702 42.8182V41.8182H36.4702V42.8182H37.4702ZM45.3963 42.8182H46.3963V41.8182H45.3963V42.8182ZM45.3963 47.625H44.3963V48.625H45.3963V47.625ZM45.6861 47.625V48.625H46.3878L46.6265 47.9651L45.6861 47.625ZM48.652 43.858L49.1972 44.6963L49.202 44.6931L48.652 43.858ZM58.4361 43.7216L57.9132 44.574L57.9216 44.5791L58.4361 43.7216ZM61.6065 47.1648L60.7148 47.6175L60.7191 47.6257L61.6065 47.1648ZM62.7315 52.3125L61.7315 52.3067V52.3125H62.7315ZM62.7315 69V70H63.7315V69H62.7315ZM54.3963 69H53.3963V70H54.3963V69ZM54.3963 53.9489L53.3963 53.9411V53.9489H54.3963ZM53.2884 50.5398L52.5461 51.2099L52.5512 51.2155L53.2884 50.5398ZM47.8849 49.892L48.3795 50.7612L48.3842 50.7585L47.8849 49.892ZM46.3509 51.5114L45.4622 51.0527L45.4564 51.0641L46.3509 51.5114ZM44.8054 54.0682V69H46.8054V54.0682H44.8054ZM45.8054 68H37.4702V70H45.8054V68ZM38.4702 69V42.8182H36.4702V69H38.4702ZM37.4702 43.8182H45.3963V41.8182H37.4702V43.8182ZM44.3963 42.8182V47.625H46.3963V42.8182H44.3963ZM45.3963 48.625H45.6861V46.625H45.3963V48.625ZM46.6265 47.9651C47.1337 46.5627 47.9862 45.4839 49.1972 44.6962L48.1068 43.0197C46.5224 44.0502 45.3975 45.4828 44.7457 47.2849L46.6265 47.9651ZM49.202 44.6931C50.4124 43.896 51.879 43.4773 53.6463 43.4773V41.4773C51.5499 41.4773 49.6871 41.979 48.102 43.0228L49.202 44.6931ZM53.6463 43.4773C55.3327 43.4773 56.7421 43.8556 57.9132 44.574L58.959 42.8692C57.4255 41.9285 55.6417 41.4773 53.6463 41.4773V43.4773ZM57.9216 44.5791C59.117 45.2963 60.0463 46.3005 60.7149 47.6175L62.4982 46.7121C61.6668 45.0745 60.4824 43.7832 58.9506 42.8641L57.9216 44.5791ZM60.7191 47.6257C61.3926 48.9225 61.7422 50.4724 61.7316 52.3067L63.7315 52.3183C63.7436 50.2207 63.3432 48.3389 62.494 46.7039L60.7191 47.6257ZM61.7315 52.3125V69H63.7315V52.3125H61.7315ZM62.7315 68H54.3963V70H62.7315V68ZM55.3963 69V53.9489H53.3963V69H55.3963ZM55.3963 53.9567C55.409 52.33 54.9941 50.9207 54.0255 49.864L52.5512 51.2155C53.0826 51.7952 53.4064 52.6586 53.3963 53.9411L55.3963 53.9567ZM54.0306 49.8697C53.0654 48.8005 51.7439 48.3125 50.2031 48.3125V50.3125C51.2987 50.3125 52.0341 50.6427 52.5461 51.2099L54.0306 49.8697ZM50.2031 48.3125C49.1762 48.3125 48.227 48.5408 47.3856 49.0256L48.3842 50.7585C48.8838 50.4706 49.48 50.3125 50.2031 50.3125V48.3125ZM47.3904 49.0229C46.5551 49.4982 45.9104 50.1843 45.4622 51.0527L47.2395 51.97C47.5185 51.4293 47.8966 51.0359 48.3795 50.7612L47.3904 49.0229ZM45.4564 51.0641C45.0207 51.9356 44.8181 52.945 44.8055 54.0568L46.8053 54.0795C46.8154 53.1913 46.9764 52.4963 47.2453 51.9586L45.4564 51.0641ZM72.1875 67.875L71.6526 68.7199L71.6526 68.7199L72.1875 67.875ZM68.4034 63.375L67.4989 63.8015L67.4989 63.8015L68.4034 63.375ZM68.4545 48.3239L69.352 48.7649L69.352 48.7649L68.4545 48.3239ZM72.2898 43.9091L71.7753 43.0516L71.7726 43.0532L72.2898 43.9091ZM80.9489 43.1932L80.51 44.0918L80.5185 44.0958L80.9489 43.1932ZM83.3693 45L84.1269 44.3473L84.1269 44.3473L83.3693 45ZM84.8182 47.3011L83.8943 47.6839L84.15 48.3011H84.8182V47.3011ZM84.9886 47.3011V48.3011H85.9886V47.3011H84.9886ZM84.9886 34.0909V33.0909H83.9886V34.0909H84.9886ZM93.3239 34.0909H94.3239V33.0909H93.3239V34.0909ZM93.3239 69V70H94.3239V69H93.3239ZM85.0739 69H84.0739V70H85.0739V69ZM85.0739 64.7557H86.0739V63.7557H85.0739V64.7557ZM84.8182 64.7557V63.7557H84.1636L83.9017 64.3555L84.8182 64.7557ZM83.3182 67.0227L82.582 66.3459L82.582 66.3459L83.3182 67.0227ZM80.8807 68.7273L80.4765 67.8126L80.4726 67.8143L80.8807 68.7273ZM82.9432 62.0284L83.5649 62.8117L83.5724 62.8057L82.9432 62.0284ZM84.5966 59.5909L85.5346 59.9376L85.5346 59.9376L84.5966 59.5909ZM84.5966 52.2102L83.6565 52.5512L83.6598 52.5602L84.5966 52.2102ZM82.9432 49.8239L82.3292 50.6132L82.3353 50.6179L82.9432 49.8239ZM76.0909 52.2443L75.1508 51.9034L75.1475 51.9126L76.0909 52.2443ZM77.7273 62.0284L77.092 62.8007L77.0988 62.8063L77.1056 62.8117L77.7273 62.0284ZM77.4545 68.375C75.7055 68.375 74.1364 67.9253 72.7224 67.0301L71.6526 68.7199C73.3977 69.8247 75.34 70.375 77.4545 70.375V68.375ZM72.7224 67.0301C71.3306 66.149 70.1851 64.8086 69.3079 62.9485L67.4989 63.8015C68.5081 65.9414 69.8853 67.601 71.6526 68.7199L72.7224 67.0301ZM69.3079 62.9485C68.4452 61.1192 67.9886 58.7924 67.9886 55.9261H65.9886C65.9886 58.9917 66.4752 61.6308 67.4989 63.8015L69.3079 62.9485ZM67.9886 55.9261C67.9886 52.9434 68.4632 50.5736 69.352 48.7649L67.5571 47.8828C66.4913 50.0514 65.9886 52.7498 65.9886 55.9261H67.9886ZM69.352 48.7649C70.262 46.9133 71.4216 45.6021 72.807 44.7649L71.7726 43.0532C69.9988 44.1251 68.6017 45.7572 67.5571 47.8828L69.352 48.7649ZM72.8043 44.7666C74.2421 43.9039 75.7748 43.4773 77.4205 43.4773V41.4773C75.407 41.4773 73.5193 42.0052 71.7753 43.0516L72.8043 44.7666ZM77.4205 43.4773C78.6824 43.4773 79.7006 43.6965 80.51 44.0917L81.3877 42.2946C80.2425 41.7353 78.9085 41.4773 77.4205 41.4773V43.4773ZM80.5185 44.0958C81.3844 44.5087 82.0755 45.0303 82.6117 45.6527L84.1269 44.3473C83.3905 43.4925 82.4678 42.8095 81.3792 42.2905L80.5185 44.0958ZM82.6117 45.6527C83.1877 46.3213 83.6105 46.9987 83.8943 47.6839L85.742 46.9184C85.3668 46.0126 84.8237 45.156 84.1269 44.3473L82.6117 45.6527ZM84.8182 48.3011H84.9886V46.3011H84.8182V48.3011ZM85.9886 47.3011V34.0909H83.9886V47.3011H85.9886ZM84.9886 35.0909H93.3239V33.0909H84.9886V35.0909ZM92.3239 34.0909V69H94.3239V34.0909H92.3239ZM93.3239 68H85.0739V70H93.3239V68ZM86.0739 69V64.7557H84.0739V69H86.0739ZM85.0739 63.7557H84.8182V65.7557H85.0739V63.7557ZM83.9017 64.3555C83.5975 65.0523 83.1613 65.7159 82.582 66.3459L84.0544 67.6995C84.7706 66.9205 85.3343 66.0727 85.7346 65.1558L83.9017 64.3555ZM82.582 66.3459C82.0377 66.938 81.3426 67.4299 80.4765 67.8126L81.2848 69.642C82.3733 69.161 83.3032 68.5165 84.0544 67.6995L82.582 66.3459ZM80.4726 67.8143C79.6625 68.1765 78.6657 68.375 77.4545 68.375V70.375C78.8798 70.375 80.167 70.1417 81.2888 69.6402L80.4726 67.8143ZM80.3523 63.8807C81.5639 63.8807 82.6531 63.5353 83.5648 62.8117L82.3215 61.2451C81.8014 61.6579 81.1634 61.8807 80.3523 61.8807V63.8807ZM83.5724 62.8057C84.4548 62.0913 85.099 61.1162 85.5346 59.9376L83.6586 59.2443C83.3215 60.1565 82.8634 60.8064 82.314 61.2512L83.5724 62.8057ZM85.5346 59.9376C85.9712 58.7562 86.1761 57.4066 86.1761 55.9091H84.1761C84.1761 57.2298 83.9947 58.3347 83.6586 59.2443L85.5346 59.9376ZM86.1761 55.9091C86.1761 54.3915 85.9719 53.034 85.5333 51.8602L83.6598 52.5602C83.994 53.4546 84.1761 54.5631 84.1761 55.9091H86.1761ZM85.5367 51.8693C85.1098 50.692 84.4582 49.7244 83.5511 49.0299L82.3353 50.6179C82.8827 51.037 83.3334 51.6602 83.6565 52.5511L85.5367 51.8693ZM83.5571 49.0345C82.6455 48.3254 81.559 47.9886 80.3523 47.9886V49.9886C81.1683 49.9886 81.8091 50.2086 82.3292 50.6132L83.5571 49.0345ZM80.3523 47.9886C79.1237 47.9886 78.0214 48.3308 77.1056 49.0576L78.3489 50.6242C78.865 50.2146 79.5126 49.9886 80.3523 49.9886V47.9886ZM77.1056 49.0576C76.2176 49.7624 75.576 50.7309 75.1508 51.9034L77.031 52.5852C77.3558 51.6896 77.8052 51.0558 78.3489 50.6242L77.1056 49.0576ZM75.1475 51.9126C74.7375 53.0788 74.5455 54.4177 74.5455 55.9091H76.5455C76.5455 54.5823 76.7171 53.4781 77.0343 52.5761L75.1475 51.9126ZM74.5455 55.9091C74.5455 57.4037 74.744 58.7501 75.1667 59.9285L77.0492 59.2533C76.7219 58.3408 76.5455 57.2326 76.5455 55.9091H74.5455ZM75.1667 59.9285C75.5894 61.1069 76.2207 62.0839 77.092 62.8007L78.3625 61.2561C77.8248 60.8138 77.3766 60.1658 77.0492 59.2533L75.1667 59.9285ZM77.1056 62.8117C78.0214 63.5385 79.1237 63.8807 80.3523 63.8807V61.8807C79.5126 61.8807 78.865 61.6547 78.3489 61.2451L77.1056 62.8117ZM103.743 67.875L103.26 68.7506L103.266 68.7539L103.743 67.875ZM99.1747 63.2216L98.2884 63.6847L98.2915 63.6906L99.1747 63.2216ZM99.1918 48.9205L100.076 49.3874L100.077 49.3854L99.1918 48.9205ZM103.709 44.1818L104.21 45.0473L104.214 45.045L103.709 44.1818ZM115.692 43.3466L116.043 42.4103L116.043 42.4103L115.692 43.3466ZM122.322 50.1307L121.386 50.4811L121.387 50.4832L122.322 50.1307ZM123.26 57.9205V58.9205H124.26V57.9205H123.26ZM100.504 57.9205H99.5043V58.9205H100.504V57.9205ZM100.504 53.0795V52.0795H99.5043V53.0795H100.504ZM115.504 53.0795V54.0795H116.517L116.504 53.0667L115.504 53.0795ZM113.186 49.0909L112.694 49.9617L112.703 49.9664L112.711 49.9709L113.186 49.0909ZM108.243 49.125L108.727 49.9999L108.738 49.9941L108.243 49.125ZM106.487 50.8125L107.34 51.3351L107.344 51.329L106.487 50.8125ZM105.805 53.2159L104.806 53.1906L104.805 53.2033V53.2159H105.805ZM106.436 60.9545L105.549 61.4167L105.552 61.4219L106.436 60.9545ZM108.226 62.8125L107.728 63.68L107.728 63.68L108.226 62.8125ZM112.999 63.1705L113.32 64.1173L113.32 64.1173L112.999 63.1705ZM114.55 62.267L115.227 63.0026L115.227 63.0026L114.55 62.267ZM115.521 60.8011L115.55 59.8016L114.834 59.7808L114.584 60.452L115.521 60.8011ZM123.175 61.0227L124.158 61.205L124.371 60.0569L123.204 60.0231L123.175 61.0227ZM121.078 65.5057L120.316 64.8588L120.315 64.8594L121.078 65.5057ZM116.868 68.4545L117.238 69.3835L117.243 69.3813L116.868 68.4545ZM110.834 68.4943C108.227 68.4943 106.034 67.9811 104.22 66.9961L103.266 68.7539C105.429 69.928 107.963 70.4943 110.834 70.4943V68.4943ZM104.226 66.9994C102.42 66.0032 101.036 64.594 100.058 62.7526L98.2915 63.6906C99.45 65.8719 101.111 67.565 103.26 68.7506L104.226 66.9994ZM100.061 62.7585C99.0936 60.9068 98.5895 58.6692 98.5895 56.0114H96.5895C96.5895 58.9217 97.1422 61.4909 98.2884 63.6847L100.061 62.7585ZM98.5895 56.0114C98.5895 53.4399 99.0966 51.2421 100.076 49.3874L98.3075 48.4535C97.1506 50.6442 96.5895 53.1737 96.5895 56.0114H98.5895ZM100.077 49.3854C101.06 47.5143 102.434 46.0754 104.21 45.0472L103.208 43.3164C101.097 44.5382 99.4602 46.2584 98.3064 48.4555L100.077 49.3854ZM104.214 45.045C105.979 44.0126 108.089 43.4773 110.578 43.4773V41.4773C107.795 41.4773 105.325 42.0784 103.204 43.3186L104.214 45.045ZM110.578 43.4773C112.337 43.4773 113.921 43.7506 115.341 44.2829L116.043 42.4103C114.372 41.7835 112.546 41.4773 110.578 41.4773V43.4773ZM115.341 44.2829C116.755 44.8134 117.967 45.5936 118.987 46.624L120.408 45.2169C119.178 43.9746 117.719 43.0388 116.043 42.4103L115.341 44.2829ZM118.987 46.624C120.001 47.6489 120.805 48.9277 121.386 50.4811L123.259 49.7803C122.59 47.9928 121.643 46.4647 120.408 45.2169L118.987 46.624ZM121.387 50.4832C121.961 52.0086 122.26 53.7889 122.26 55.8409H124.26C124.26 53.5975 123.934 51.571 123.258 49.7782L121.387 50.4832ZM122.26 55.8409V57.9205H124.26V55.8409H122.26ZM123.26 56.9205H100.504V58.9205H123.26V56.9205ZM101.504 57.9205V53.0795H99.5043V57.9205H101.504ZM100.504 54.0795H115.504V52.0795H100.504V54.0795ZM116.504 53.0667C116.491 52.0241 116.241 51.0603 115.735 50.202L114.012 51.2185C114.324 51.7466 114.495 52.3623 114.504 53.0924L116.504 53.0667ZM115.735 50.202C115.232 49.3503 114.535 48.6827 113.661 48.2109L112.711 49.9709C113.269 50.2718 113.697 50.6838 114.012 51.2185L115.735 50.202ZM113.678 48.2201C112.803 47.7266 111.817 47.4943 110.749 47.4943V49.4943C111.521 49.4943 112.16 49.6598 112.694 49.9617L113.678 48.2201ZM110.749 47.4943C109.66 47.4943 108.652 47.7416 107.748 48.2559L108.738 49.9941C109.311 49.6675 109.973 49.4943 110.749 49.4943V47.4943ZM107.758 48.2502C106.868 48.7432 106.154 49.4286 105.631 50.296L107.344 51.329C107.684 50.7646 108.14 50.3249 108.727 49.9998L107.758 48.2502ZM105.635 50.2899C105.103 51.1573 104.832 52.1328 104.806 53.1906L106.805 53.2412C106.824 52.5036 107.008 51.8768 107.34 51.3351L105.635 50.2899ZM104.805 53.2159V58.142H106.805V53.2159H104.805ZM104.805 58.142C104.805 59.3431 105.043 60.4443 105.549 61.4167L107.323 60.4924C106.989 59.8512 106.805 59.0773 106.805 58.142H104.805ZM105.552 61.4219C106.06 62.3828 106.79 63.1417 107.728 63.68L108.723 61.945C108.116 61.597 107.653 61.1172 107.32 60.4872L105.552 61.4219ZM107.728 63.68C108.68 64.2258 109.779 64.4773 110.987 64.4773V62.4773C110.059 62.4773 109.317 62.2856 108.723 61.945L107.728 63.68ZM110.987 64.4773C111.818 64.4773 112.599 64.3622 113.32 64.1173L112.677 62.2236C112.193 62.3878 111.634 62.4773 110.987 62.4773V64.4773ZM113.32 64.1173C114.043 63.8717 114.684 63.5025 115.227 63.0026L113.872 61.5315C113.551 61.8271 113.158 62.0601 112.677 62.2236L113.32 64.1173ZM115.227 63.0026C115.781 62.4926 116.191 61.8691 116.458 61.1502L114.584 60.452C114.42 60.8922 114.182 61.2461 113.872 61.5315L115.227 63.0026ZM115.492 61.8007L123.146 62.0223L123.204 60.0231L115.55 59.8016L115.492 61.8007ZM122.191 60.8404C121.904 62.393 121.277 63.7252 120.316 64.8588L121.841 66.1525C123.038 64.7407 123.809 63.0842 124.158 61.205L122.191 60.8404ZM120.315 64.8594C119.365 65.9815 118.101 66.8757 116.492 67.5277L117.243 69.3813C119.112 68.6243 120.655 67.5526 121.841 66.1519L120.315 64.8594ZM116.498 67.5257C114.9 68.1628 113.018 68.4943 110.834 68.4943V70.4943C113.218 70.4943 115.359 70.1327 117.238 69.3834L116.498 67.5257ZM127.517 69H126.517V70H127.517V69ZM127.517 42.8182V41.8182H126.517V42.8182H127.517ZM135.614 42.8182H136.614V41.8182H135.614V42.8182ZM135.614 47.5909H134.614V48.5909H135.614V47.5909ZM135.886 47.5909V48.5909H136.648L136.85 47.8572L135.886 47.5909ZM138.222 43.7386L138.836 44.5276L138.841 44.5235L138.222 43.7386ZM143.182 42.5455L143.044 43.5359L143.058 43.5378L143.071 43.5393L143.182 42.5455ZM144.324 42.767H145.324V42.0161L144.603 41.8067L144.324 42.767ZM144.324 50.0114L144 50.9573L145.324 51.4114V50.0114H144.324ZM142.756 49.6875L142.632 50.6798L142.634 50.68L142.756 49.6875ZM138.375 50.233L138.857 51.1089L138.862 51.1065L138.375 50.233ZM136.517 52.0568L135.652 51.5553L135.65 51.5593L136.517 52.0568ZM135.852 69V70H136.852V69H135.852ZM128.517 69V42.8182H126.517V69H128.517ZM127.517 43.8182H135.614V41.8182H127.517V43.8182ZM134.614 42.8182V47.5909H136.614V42.8182H134.614ZM135.614 48.5909H135.886V46.5909H135.614V48.5909ZM136.85 47.8572C137.288 46.2732 137.972 45.2006 138.836 44.5275L137.607 42.9497C136.312 43.9584 135.439 45.4541 134.922 47.3246L136.85 47.8572ZM138.841 44.5235C139.737 43.8166 140.772 43.4602 141.989 43.4602V41.4602C140.342 41.4602 138.866 41.9561 137.602 42.9538L138.841 44.5235ZM141.989 43.4602C142.326 43.4602 142.678 43.485 143.044 43.5359L143.319 41.555C142.868 41.4922 142.424 41.4602 141.989 41.4602V43.4602ZM143.071 43.5393C143.43 43.5792 143.754 43.6429 144.045 43.7274L144.603 41.8067C144.189 41.6866 143.752 41.6026 143.292 41.5516L143.071 43.5393ZM143.324 42.767V50.0114H145.324V42.767H143.324ZM144.648 49.0654C144.159 48.8978 143.561 48.7789 142.878 48.695L142.634 50.68C143.246 50.7552 143.693 50.8522 144 50.9573L144.648 49.0654ZM142.88 48.6952C142.213 48.6119 141.602 48.5682 141.051 48.5682V50.5682C141.5 50.5682 142.026 50.604 142.632 50.6798L142.88 48.6952ZM141.051 48.5682C139.907 48.5682 138.845 48.8263 137.888 49.3594L138.862 51.1065C139.496 50.7533 140.218 50.5682 141.051 50.5682V48.5682ZM137.893 49.357C136.947 49.8777 136.196 50.616 135.652 51.5553L137.382 52.5583C137.747 51.9295 138.235 51.4519 138.857 51.1089L137.893 49.357ZM135.65 51.5593C135.106 52.5079 134.852 53.5946 134.852 54.7841H136.852C136.852 53.8827 137.042 53.1512 137.385 52.5543L135.65 51.5593ZM134.852 54.7841V69H136.852V54.7841H134.852ZM135.852 68H127.517V70H135.852V68ZM156.055 34.0909H157.055V33.0909H156.055V34.0909ZM156.055 69V70H157.055V69H156.055ZM147.72 69H146.72V70H147.72V69ZM147.72 34.0909V33.0909H146.72V34.0909H147.72ZM155.055 34.0909V69H157.055V34.0909H155.055ZM156.055 68H147.72V70H156.055V68ZM148.72 69V34.0909H146.72V69H148.72ZM147.72 35.0909H156.055V33.0909H147.72V35.0909ZM164.293 68.608L163.888 69.5225L163.898 69.5267L164.293 68.608ZM161.241 66.0511L160.401 66.5924L160.407 66.602L161.241 66.0511ZM160.901 58.0568L160.01 57.6015L160.01 57.6015L160.901 58.0568ZM163.014 55.6193L163.586 56.44L163.586 56.44L163.014 55.6193ZM166.116 54.2045L166.379 55.1696L166.387 55.1671L166.116 54.2045ZM169.866 53.5398L169.952 54.5362L169.958 54.5356L169.866 53.5398ZM173.463 53.1136L173.623 54.1008L173.635 54.0987L173.463 53.1136ZM175.44 52.4489L176.011 53.2702L176.015 53.2671L175.44 52.4489ZM175.168 49.0909L175.789 48.3072L175.789 48.3072L175.168 49.0909ZM170.071 49.0909L169.491 48.2762L169.491 48.2762L170.071 49.0909ZM168.793 51.0682L168.757 52.0676L169.593 52.0972L169.77 51.2795L168.793 51.0682ZM161.105 50.7955L160.115 50.654L159.958 51.7554L161.07 51.7948L161.105 50.7955ZM162.861 46.5341L162.063 45.9306L162.063 45.9318L162.861 46.5341ZM166.781 43.5682L167.177 44.4864L167.18 44.4851L166.781 43.5682ZM177.418 43.0739L177.146 44.0363L177.153 44.0383L177.418 43.0739ZM181.099 44.7784L180.517 45.591L180.522 45.5951L181.099 44.7784ZM183.52 47.5057L182.635 47.9714L182.639 47.9787L183.52 47.5057ZM184.389 69V70H185.389V69H184.389ZM176.548 69H175.548V70H176.548V69ZM176.548 65.3523H177.548V64.3523H176.548V65.3523ZM176.344 65.3523V64.3523H175.74L175.459 64.887L176.344 65.3523ZM174.554 67.6023L173.909 66.838L173.903 66.843L174.554 67.6023ZM172.014 68.983L171.715 68.0289L171.711 68.0299L172.014 68.983ZM173.736 63.4432L173.289 62.5487L173.283 62.5516L173.736 63.4432ZM175.474 61.9432L176.302 62.5047L176.306 62.4979L175.474 61.9432ZM176.122 57.2045H177.122V55.5519L175.658 56.3187L176.122 57.2045ZM175.253 57.5455L174.965 56.5876L174.956 56.5904L175.253 57.5455ZM172.935 58.0739L173.095 59.061L173.095 59.061L172.935 58.0739ZM171.724 58.2614L171.579 57.2719L171.567 57.2738L171.724 58.2614ZM169.713 58.8409L169.288 57.9356L169.281 57.9391L169.713 58.8409ZM168.452 59.8636L167.634 59.2887L167.63 59.2932L168.452 59.8636ZM168.946 63.3068L168.351 64.1104L168.358 64.1156L168.946 63.3068ZM168.741 68.4432C167.182 68.4432 165.837 68.1835 164.688 67.6892L163.898 69.5267C165.339 70.1461 166.96 70.4432 168.741 70.4432V68.4432ZM164.697 67.6935C163.583 67.2003 162.717 66.4716 162.076 65.5003L160.407 66.602C161.266 67.9034 162.434 68.8793 163.888 69.5224L164.697 67.6935ZM162.082 65.51C161.472 64.5615 161.134 63.3246 161.134 61.7386H159.134C159.134 63.6072 159.534 65.2453 160.401 66.5923L162.082 65.51ZM161.134 61.7386C161.134 60.3972 161.37 59.3358 161.791 58.5121L160.01 57.6015C159.409 58.7778 159.134 60.171 159.134 61.7386H161.134ZM161.791 58.5121C162.23 57.6542 162.826 56.9687 163.586 56.44L162.443 54.7986C161.407 55.52 160.594 56.4595 160.01 57.6015L161.791 58.5121ZM163.586 56.44C164.38 55.8872 165.307 55.4609 166.379 55.1695L165.854 53.2396C164.585 53.5845 163.444 54.1015 162.443 54.7986L163.586 56.44ZM166.387 55.1671C167.492 54.8562 168.679 54.6449 169.952 54.5361L169.781 52.5434C168.395 52.6619 167.082 52.8938 165.845 53.242L166.387 55.1671ZM169.958 54.5356C171.457 54.3982 172.682 54.2537 173.623 54.1007L173.303 52.1266C172.426 52.269 171.253 52.4086 169.775 52.5439L169.958 54.5356ZM173.635 54.0987C174.586 53.9323 175.42 53.6807 176.011 53.2702L174.87 51.6275C174.643 51.7852 174.158 51.9768 173.291 52.1286L173.635 54.0987ZM176.015 53.2671C176.714 52.7758 177.071 52.0491 177.071 51.2045H175.071C175.071 51.4282 175.007 51.531 174.865 51.6307L176.015 53.2671ZM177.071 51.2045V51.1193H175.071V51.2045H177.071ZM177.071 51.1193C177.071 49.9868 176.666 49.002 175.789 48.3072L174.547 49.8747C174.874 50.1344 175.071 50.5018 175.071 51.1193H177.071ZM175.789 48.3072C174.959 47.6496 173.904 47.375 172.73 47.375V49.375C173.602 49.375 174.172 49.5776 174.547 49.8747L175.789 48.3072ZM172.73 47.375C171.489 47.375 170.38 47.6435 169.491 48.2762L170.651 49.9056C171.103 49.5837 171.766 49.375 172.73 49.375V47.375ZM169.491 48.2762C168.608 48.9051 168.047 49.7845 167.815 50.8568L169.77 51.2795C169.902 50.6701 170.193 50.2312 170.651 49.9056L169.491 48.2762ZM168.828 50.0688L161.141 49.7961L161.07 51.7948L168.757 52.0676L168.828 50.0688ZM162.095 50.9369C162.299 49.5087 162.82 48.2478 163.659 47.1364L162.063 45.9318C161.015 47.3204 160.366 48.9003 160.115 50.654L162.095 50.9369ZM163.658 47.1375C164.494 46.0326 165.654 45.1437 167.177 44.4863L166.385 42.65C164.59 43.4245 163.136 44.5129 162.063 45.9306L163.658 47.1375ZM167.18 44.4851C168.695 43.8258 170.557 43.4773 172.798 43.4773V41.4773C170.358 41.4773 168.209 41.856 166.382 42.6513L167.18 44.4851ZM172.798 43.4773C174.39 43.4773 175.837 43.6667 177.146 44.0363L177.689 42.1115C176.18 41.6856 174.548 41.4773 172.798 41.4773V43.4773ZM177.153 44.0383C178.463 44.3975 179.58 44.9187 180.517 45.5909L181.682 43.9659C180.528 43.1381 179.19 42.523 177.682 42.1095L177.153 44.0383ZM180.522 45.5951C181.446 46.2473 182.144 47.0385 182.635 47.9714L184.405 47.0399C183.759 45.8138 182.844 44.7868 181.676 43.9617L180.522 45.5951ZM182.639 47.9787C183.131 48.8946 183.389 49.9613 183.389 51.2045H185.389C185.389 49.6751 185.068 48.2759 184.401 47.0327L182.639 47.9787ZM183.389 51.2045V69H185.389V51.2045H183.389ZM184.389 68H176.548V70H184.389V68ZM177.548 69V65.3523H175.548V69H177.548ZM176.548 64.3523H176.344V66.3523H176.548V64.3523ZM175.459 64.887C175.05 65.6652 174.533 66.3119 173.909 66.838L175.199 68.3666C176.03 67.6654 176.706 66.8121 177.229 65.8176L175.459 64.887ZM173.903 66.843C173.299 67.3613 172.574 67.759 171.715 68.0289L172.314 69.937C173.409 69.5932 174.378 69.0706 175.205 68.3615L173.903 66.843ZM171.711 68.0299C170.861 68.3001 169.875 68.4432 168.741 68.4432V70.4432C170.04 70.4432 171.236 70.2794 172.317 69.936L171.711 68.0299ZM171.315 64.9886C172.352 64.9886 173.317 64.7777 174.189 64.3348L173.283 62.5516C172.723 62.8359 172.074 62.9886 171.315 62.9886V64.9886ZM174.183 64.3376C175.054 63.9019 175.768 63.2909 176.302 62.5047L174.647 61.3817C174.317 61.8682 173.872 62.2572 173.289 62.5488L174.183 64.3376ZM176.306 62.4979C176.858 61.6704 177.122 60.7234 177.122 59.6932H175.122C175.122 60.3675 174.954 60.9205 174.642 61.3885L176.306 62.4979ZM177.122 59.6932V57.2045H175.122V59.6932H177.122ZM175.658 56.3187C175.491 56.4065 175.264 56.4982 174.965 56.5876L175.54 58.5033C175.924 58.3881 176.276 58.2526 176.586 58.0904L175.658 56.3187ZM174.956 56.5904C174.655 56.6839 174.316 56.7741 173.939 56.8604L174.385 58.8101C174.803 58.7145 175.192 58.6115 175.549 58.5005L174.956 56.5904ZM173.939 56.8604C173.563 56.9463 173.175 57.0218 172.775 57.0868L173.095 59.061C173.535 58.9895 173.965 58.9059 174.385 58.8101L173.939 56.8604ZM172.775 57.0868C172.359 57.1542 171.96 57.216 171.579 57.272L171.87 59.2507C172.262 59.1931 172.67 59.1299 173.095 59.061L172.775 57.0868ZM171.567 57.2738C170.716 57.4095 169.95 57.6249 169.288 57.9357L170.138 59.7461C170.589 59.5342 171.165 59.3632 171.882 59.2489L171.567 57.2738ZM169.281 57.9391C168.608 58.2614 168.044 58.705 167.634 59.2887L169.27 60.4386C169.451 60.1814 169.727 59.9432 170.145 59.7427L169.281 57.9391ZM167.63 59.2932C167.214 59.8927 167.026 60.5872 167.026 61.3295H169.026C169.026 60.9355 169.121 60.6528 169.273 60.434L167.63 59.2932ZM167.026 61.3295C167.026 62.4624 167.447 63.4406 168.351 64.1104L169.541 62.5033C169.218 62.264 169.026 61.9239 169.026 61.3295H167.026ZM168.358 64.1156C169.191 64.7211 170.2 64.9886 171.315 64.9886V62.9886C170.522 62.9886 169.952 62.8016 169.534 62.4981L168.358 64.1156ZM212.344 50.8125L212.37 51.8121L213.428 51.7839L213.34 50.7295L212.344 50.8125ZM204.69 51.017L203.701 51.1614L203.829 52.0404L204.717 52.0167L204.69 51.017ZM204.043 49.5682L203.268 50.2004L203.276 50.2104L204.043 49.5682ZM202.662 48.5625L202.252 49.4748L202.263 49.4798L202.275 49.4845L202.662 48.5625ZM198.247 48.767L197.754 47.897L197.748 47.9006L198.247 48.767ZM197.259 50.3352L198.258 50.3574L198.259 50.3377L198.258 50.318L197.259 50.3352ZM197.872 51.6648L197.206 52.4111L197.216 52.4198L197.872 51.6648ZM200.173 52.5682L199.971 53.5476L199.979 53.5492L199.987 53.5508L200.173 52.5682ZM205.219 53.5227L205.407 52.5405L205.405 52.5402L205.219 53.5227ZM211.048 56.0114L210.375 56.7507L210.378 56.7537L211.048 56.0114ZM212.991 60.6136L213.992 60.62L213.991 60.6077L212.991 60.6136ZM211.389 65.3011L210.606 64.6789L210.603 64.683L211.389 65.3011ZM207.094 68.4034L207.465 69.3319L207.47 69.3299L207.094 68.4034ZM192.009 67.1932L191.424 68.0049L191.429 68.0084L192.009 67.1932ZM188.327 60.9886L188.302 59.9889L187.205 60.0162L187.334 61.1062L188.327 60.9886ZM196.56 60.7841L197.542 60.597L197.383 59.7633L196.535 59.7844L196.56 60.7841ZM197.974 62.9659L198.523 62.13L198.523 62.13L197.974 62.9659ZM203.497 63.1193L202.987 62.2593L202.987 62.2593L203.497 63.1193ZM204.52 61.5341L205.52 61.5513L205.52 61.5331L205.52 61.5149L204.52 61.5341ZM203.736 60.1193L203.156 60.9343L203.162 60.9386L203.168 60.9428L203.736 60.1193ZM201.332 59.267L201.145 60.2494L201.148 60.2499L201.332 59.267ZM196.764 58.3977L196.951 57.4153L196.943 57.4139L196.764 58.3977ZM190.901 55.7557L190.19 56.4597L190.193 56.4628L190.901 55.7557ZM188.991 50.8125L189.992 50.8182L189.991 50.806L188.991 50.8125ZM190.389 46.3295L191.185 46.9354L191.187 46.9319L190.389 46.3295ZM194.412 43.4659L194.057 42.5308L194.057 42.5308L194.412 43.4659ZM208.952 44.7102L208.363 45.5188L208.366 45.5209L208.952 44.7102ZM212.317 49.8129L204.664 50.0174L204.717 52.0167L212.37 51.8121L212.317 49.8129ZM205.68 50.8727C205.574 50.1448 205.281 49.4892 204.809 48.926L203.276 50.2104C203.509 50.488 203.648 50.7984 203.701 51.1614L205.68 50.8727ZM204.817 48.9361C204.351 48.3643 203.752 47.9357 203.049 47.6405L202.275 49.4845C202.708 49.6665 203.03 49.9084 203.268 50.2003L204.817 48.9361ZM203.072 47.6502C202.362 47.3316 201.569 47.1875 200.719 47.1875V49.1875C201.345 49.1875 201.848 49.2934 202.252 49.4748L203.072 47.6502ZM200.719 47.1875C199.62 47.1875 198.618 47.4078 197.754 47.897L198.74 49.6371C199.24 49.3536 199.886 49.1875 200.719 49.1875V47.1875ZM197.748 47.9006C196.828 48.4307 196.24 49.2597 196.259 50.3525L198.258 50.318C198.254 50.0925 198.325 49.8761 198.746 49.6335L197.748 47.9006ZM196.259 50.313C196.24 51.149 196.593 51.8635 197.207 52.4111L198.538 50.9185C198.311 50.7161 198.254 50.5442 198.258 50.3574L196.259 50.313ZM197.216 52.4198C197.852 52.9716 198.835 53.3132 199.971 53.5476L200.375 51.5888C199.308 51.3686 198.756 51.108 198.528 50.9097L197.216 52.4198ZM199.987 53.5508L205.033 54.5053L205.405 52.5402L200.359 51.5856L199.987 53.5508ZM205.031 54.5049C207.554 54.9877 209.294 55.766 210.375 56.7507L211.722 55.272C210.257 53.9385 208.11 53.0578 205.407 52.5405L205.031 54.5049ZM210.378 56.7537C211.431 57.7039 211.982 58.959 211.991 60.6196L213.991 60.6077C213.979 58.4501 213.234 56.637 211.718 55.269L210.378 56.7537ZM211.991 60.6073C211.981 62.1927 211.516 63.535 210.606 64.6789L212.172 65.9234C213.376 64.4082 213.979 62.6255 213.991 60.62L211.991 60.6073ZM210.603 64.683C209.681 65.8554 208.401 66.7931 206.717 67.4769L207.47 69.3299C209.423 68.5364 211.006 67.406 212.175 65.9193L210.603 64.683ZM206.722 67.4749C205.043 68.1467 203.093 68.4943 200.855 68.4943V70.4943C203.299 70.4943 205.508 70.1147 207.465 69.3319L206.722 67.4749ZM200.855 68.4943C197.241 68.4943 194.521 67.7515 192.588 66.378L191.429 68.0084C193.814 69.703 196.991 70.4943 200.855 70.4943V68.4943ZM192.593 66.3815C190.669 64.9972 189.593 63.179 189.32 60.871L187.334 61.1062C187.674 63.9801 189.053 66.2983 191.424 68.0049L192.593 66.3815ZM188.352 61.9883L196.584 61.7838L196.535 59.7844L188.302 59.9889L188.352 61.9883ZM195.577 60.9712C195.806 62.172 196.421 63.1424 197.426 63.8018L198.523 62.13C198.005 61.7894 197.677 61.3053 197.542 60.597L195.577 60.9712ZM197.426 63.8018C198.392 64.4365 199.57 64.7159 200.889 64.7159V62.7159C199.845 62.7159 199.08 62.4953 198.523 62.13L197.426 63.8018ZM200.889 64.7159C202.073 64.7159 203.136 64.4965 204.007 63.9794L202.987 62.2593C202.518 62.5375 201.842 62.7159 200.889 62.7159V64.7159ZM204.007 63.9794C204.912 63.4425 205.501 62.6255 205.52 61.5513L203.52 61.5169C203.516 61.7609 203.423 62.0007 202.987 62.2593L204.007 63.9794ZM205.52 61.5149C205.502 60.5831 205.064 59.8199 204.303 59.2958L203.168 60.9428C203.43 61.1232 203.515 61.3033 203.52 61.5533L205.52 61.5149ZM204.315 59.3044C203.628 58.8153 202.657 58.498 201.517 58.2842L201.148 60.2499C202.19 60.4452 202.821 60.6961 203.156 60.9343L204.315 59.3044ZM201.519 58.2847L196.951 57.4154L196.577 59.3801L201.145 60.2494L201.519 58.2847ZM196.943 57.4139C194.429 56.9568 192.695 56.1359 191.608 55.0486L190.193 56.4628C191.674 57.9437 193.849 58.8841 196.585 59.3816L196.943 57.4139ZM191.611 55.0517C190.533 53.964 189.981 52.5807 189.991 50.8182L187.991 50.8068C187.979 53.0443 188.7 54.9564 190.19 56.4597L191.611 55.0517ZM189.991 50.806C189.981 49.2482 190.392 47.9764 191.185 46.9354L189.594 45.7237C188.5 47.1599 187.979 48.8768 187.991 50.819L189.991 50.806ZM191.187 46.9319C191.997 45.8586 193.171 45.0059 194.766 44.401L194.057 42.5308C192.176 43.2441 190.668 44.3005 189.591 45.7272L191.187 46.9319ZM194.766 44.401C196.366 43.7947 198.291 43.4773 200.565 43.4773V41.4773C198.112 41.4773 195.935 41.8189 194.057 42.5308L194.766 44.401ZM200.565 43.4773C203.982 43.4773 206.545 44.1956 208.363 45.5188L209.54 43.9017C207.267 42.2476 204.24 41.4773 200.565 41.4773V43.4773ZM208.366 45.5209C210.167 46.8214 211.155 48.5854 211.347 50.8955L213.34 50.7295C213.101 47.8578 211.827 45.5536 209.537 43.8995L208.366 45.5209ZM225.43 54.0682L224.43 54.0568V54.0682H225.43ZM225.43 69V70H226.43V69H225.43ZM217.095 69H216.095V70H217.095V69ZM217.095 34.0909V33.0909H216.095V34.0909H217.095ZM225.158 34.0909H226.158V33.0909H225.158V34.0909ZM225.158 47.625H224.158V48.625H225.158V47.625ZM225.447 47.625V48.625H226.146L226.386 47.9689L225.447 47.625ZM228.345 43.8409L227.787 43.011L227.784 43.0132L228.345 43.8409ZM238.112 43.7045L237.598 44.5621L237.603 44.5652L238.112 43.7045ZM241.283 47.1307L240.391 47.5834L240.394 47.5888L241.283 47.1307ZM242.408 52.3125L241.408 52.3068V52.3125H242.408ZM242.408 69V70H243.408V69H242.408ZM234.072 69H233.072V70H234.072V69ZM234.072 53.9489L233.072 53.9411V53.9489H234.072ZM232.982 50.5398L232.239 51.2099L232.239 51.2099L232.982 50.5398ZM227.544 49.892L228.039 50.7612L228.043 50.7585L227.544 49.892ZM225.993 51.5114L225.11 51.0415L225.104 51.0527L225.993 51.5114ZM224.43 54.0682V69H226.43V54.0682H224.43ZM225.43 68H217.095V70H225.43V68ZM218.095 69V34.0909H216.095V69H218.095ZM217.095 35.0909H225.158V33.0909H217.095V35.0909ZM224.158 34.0909V47.625H226.158V34.0909H224.158ZM225.158 48.625H225.447V46.625H225.158V48.625ZM226.386 47.9689C226.91 46.5394 227.75 45.4527 228.906 44.6686L227.784 43.0132C226.259 44.0473 225.167 45.4833 224.508 47.2811L226.386 47.9689ZM228.903 44.6708C230.06 43.8931 231.509 43.4773 233.305 43.4773V41.4773C231.192 41.4773 229.335 41.9705 227.787 43.011L228.903 44.6708ZM233.305 43.4773C234.994 43.4773 236.413 43.851 237.598 44.562L238.627 42.8471C237.085 41.9217 235.299 41.4773 233.305 41.4773V43.4773ZM237.603 44.5652C238.795 45.2706 239.723 46.2676 240.391 47.5834L242.174 46.678C241.342 45.0393 240.156 43.7521 238.621 42.8439L237.603 44.5652ZM240.394 47.5888C241.068 48.8978 241.418 50.4603 241.408 52.3068L243.408 52.3182C243.42 50.2101 243.02 48.3181 242.172 46.6726L240.394 47.5888ZM241.408 52.3125V69H243.408V52.3125H241.408ZM242.408 68H234.072V70H242.408V68ZM235.072 69V53.9489H233.072V69H235.072ZM235.072 53.9567C235.085 52.3337 234.678 50.9266 233.724 49.8697L232.239 51.2099C232.762 51.7894 233.083 52.6549 233.072 53.9411L235.072 53.9567ZM233.724 49.8697C232.755 48.7968 231.42 48.3125 229.862 48.3125V50.3125C230.987 50.3125 231.731 50.6464 232.239 51.2099L233.724 49.8697ZM229.862 48.3125C228.835 48.3125 227.886 48.5408 227.045 49.0256L228.043 50.7585C228.543 50.4706 229.139 50.3125 229.862 50.3125V48.3125ZM227.05 49.0229C226.217 49.4966 225.569 50.179 225.11 51.0415L226.876 51.9812C227.167 51.4346 227.553 51.0375 228.039 50.7612L227.05 49.0229ZM225.104 51.0527C224.653 51.927 224.443 52.9407 224.43 54.0568L226.43 54.0795C226.44 53.1956 226.606 52.5048 226.882 51.97L225.104 51.0527Z" fill="black" mask="url(#path-1-outside-1_120_3)"/>
<path d="M23.7614 34.0909V33.0909H22.7614V34.0909H23.7614ZM32.1818 34.0909H33.1818V33.0909H32.1818V34.0909ZM30.3239 63.4091L31.1642 63.9511L31.1657 63.9488L30.3239 63.4091ZM25.142 67.875L25.5687 68.7794L25.5725 68.7776L25.142 67.875ZM9.64773 67.875L9.21725 68.7776L9.22104 68.7794L9.64773 67.875ZM4.48295 63.4091L3.63888 63.9453L3.64032 63.9476L4.48295 63.4091ZM2.64205 34.0909V33.0909H1.64205V34.0909H2.64205ZM11.0795 34.0909H12.0795V33.0909H11.0795V34.0909ZM11.8636 59.0966L10.9889 59.5814L10.9935 59.5893L11.8636 59.0966ZM14.0966 61.3125L14.5849 60.4398L14.5849 60.4398L14.0966 61.3125ZM20.7273 61.3125L20.239 60.4398L20.2345 60.4423L20.7273 61.3125ZM23.7614 35.0909H32.1818V33.0909H23.7614V35.0909ZM31.1818 34.0909V56.608H33.1818V34.0909H31.1818ZM31.1818 56.608C31.1818 59.0452 30.604 61.1194 29.482 62.8693L31.1657 63.9488C32.521 61.8351 33.1818 59.3752 33.1818 56.608H31.1818ZM29.4835 62.8671C28.3529 64.62 26.773 65.9893 24.7116 66.9724L25.5725 68.7776C27.9429 67.6471 29.8176 66.0391 31.1642 63.9511L29.4835 62.8671ZM24.7154 66.9706C22.6565 67.9419 20.2334 68.4432 17.4205 68.4432V70.4432C20.4712 70.4432 23.1957 69.899 25.5687 68.7794L24.7154 66.9706ZM17.4205 68.4432C14.5716 68.4432 12.1318 67.9413 10.0744 66.9706L9.22104 68.7794C11.5955 69.8997 14.3375 70.4432 17.4205 70.4432V68.4432ZM10.0782 66.9724C8.01746 65.9896 6.44442 64.6214 5.32559 62.8706L3.64032 63.9476C4.97604 66.0377 6.84618 67.6468 9.21726 68.7776L10.0782 66.9724ZM5.32702 62.8729C4.21503 61.1225 3.64205 59.047 3.64205 56.608H1.64205C1.64205 59.3734 2.29633 61.832 3.63888 63.9453L5.32702 62.8729ZM3.64205 56.608V34.0909H1.64205V56.608H3.64205ZM2.64205 35.0909H11.0795V33.0909H2.64205V35.0909ZM10.0795 34.0909V55.875H12.0795V34.0909H10.0795ZM10.0795 55.875C10.0795 57.2289 10.3748 58.4731 10.989 59.5813L12.7383 58.6118C12.3071 57.8337 12.0795 56.9302 12.0795 55.875H10.0795ZM10.9935 59.5893C11.6186 60.6932 12.4956 61.5626 13.6083 62.1852L14.5849 60.4398C13.7884 59.9942 13.1769 59.3863 12.7338 58.6038L10.9935 59.5893ZM13.6083 62.1852C14.7336 62.8148 16.0146 63.1136 17.4205 63.1136V61.1136C16.3036 61.1136 15.3687 60.8784 14.5849 60.4398L13.6083 62.1852ZM17.4205 63.1136C18.826 63.1136 20.1035 62.8149 21.22 62.1827L20.2345 60.4423C19.4646 60.8783 18.5376 61.1136 17.4205 61.1136V63.1136ZM21.2156 62.1852C22.3282 61.5626 23.2053 60.6932 23.8304 59.5893L22.0901 58.6038C21.647 59.3863 21.0354 59.9942 20.239 60.4398L21.2156 62.1852ZM23.8304 59.5893C24.4588 58.4796 24.7614 57.2326 24.7614 55.875H22.7614C22.7614 56.9265 22.5299 57.8272 22.0901 58.6038L23.8304 59.5893ZM24.7614 55.875V34.0909H22.7614V55.875H24.7614ZM45.8054 54.0682L44.8054 54.0568V54.0682H45.8054ZM45.8054 69V70H46.8054V69H45.8054ZM37.4702 69H36.4702V70H37.4702V69ZM37.4702 42.8182V41.8182H36.4702V42.8182H37.4702ZM45.3963 42.8182H46.3963V41.8182H45.3963V42.8182ZM45.3963 47.625H44.3963V48.625H45.3963V47.625ZM45.6861 47.625V48.625H46.3878L46.6265 47.9651L45.6861 47.625ZM48.652 43.858L49.1972 44.6963L49.202 44.6931L48.652 43.858ZM58.4361 43.7216L57.9132 44.574L57.9216 44.5791L58.4361 43.7216ZM61.6065 47.1648L60.7148 47.6175L60.7191 47.6257L61.6065 47.1648ZM62.7315 52.3125L61.7315 52.3067V52.3125H62.7315ZM62.7315 69V70H63.7315V69H62.7315ZM54.3963 69H53.3963V70H54.3963V69ZM54.3963 53.9489L53.3963 53.9411V53.9489H54.3963ZM53.2884 50.5398L52.5461 51.2099L52.5512 51.2155L53.2884 50.5398ZM47.8849 49.892L48.3795 50.7612L48.3842 50.7585L47.8849 49.892ZM46.3509 51.5114L45.4622 51.0527L45.4564 51.0641L46.3509 51.5114ZM44.8054 54.0682V69H46.8054V54.0682H44.8054ZM45.8054 68H37.4702V70H45.8054V68ZM38.4702 69V42.8182H36.4702V69H38.4702ZM37.4702 43.8182H45.3963V41.8182H37.4702V43.8182ZM44.3963 42.8182V47.625H46.3963V42.8182H44.3963ZM45.3963 48.625H45.6861V46.625H45.3963V48.625ZM46.6265 47.9651C47.1337 46.5627 47.9862 45.4839 49.1972 44.6962L48.1068 43.0197C46.5224 44.0502 45.3975 45.4828 44.7457 47.2849L46.6265 47.9651ZM49.202 44.6931C50.4124 43.896 51.879 43.4773 53.6463 43.4773V41.4773C51.5499 41.4773 49.6871 41.979 48.102 43.0228L49.202 44.6931ZM53.6463 43.4773C55.3327 43.4773 56.7421 43.8556 57.9132 44.574L58.959 42.8692C57.4255 41.9285 55.6417 41.4773 53.6463 41.4773V43.4773ZM57.9216 44.5791C59.117 45.2963 60.0463 46.3005 60.7149 47.6175L62.4982 46.7121C61.6668 45.0745 60.4824 43.7832 58.9506 42.8641L57.9216 44.5791ZM60.7191 47.6257C61.3926 48.9225 61.7422 50.4724 61.7316 52.3067L63.7315 52.3183C63.7436 50.2207 63.3432 48.3389 62.494 46.7039L60.7191 47.6257ZM61.7315 52.3125V69H63.7315V52.3125H61.7315ZM62.7315 68H54.3963V70H62.7315V68ZM55.3963 69V53.9489H53.3963V69H55.3963ZM55.3963 53.9567C55.409 52.33 54.9941 50.9207 54.0255 49.864L52.5512 51.2155C53.0826 51.7952 53.4064 52.6586 53.3963 53.9411L55.3963 53.9567ZM54.0306 49.8697C53.0654 48.8005 51.7439 48.3125 50.2031 48.3125V50.3125C51.2987 50.3125 52.0341 50.6427 52.5461 51.2099L54.0306 49.8697ZM50.2031 48.3125C49.1762 48.3125 48.227 48.5408 47.3856 49.0256L48.3842 50.7585C48.8838 50.4706 49.48 50.3125 50.2031 50.3125V48.3125ZM47.3904 49.0229C46.5551 49.4982 45.9104 50.1843 45.4622 51.0527L47.2395 51.97C47.5185 51.4293 47.8966 51.0359 48.3795 50.7612L47.3904 49.0229ZM45.4564 51.0641C45.0207 51.9356 44.8181 52.945 44.8055 54.0568L46.8053 54.0795C46.8154 53.1913 46.9764 52.4963 47.2453 51.9586L45.4564 51.0641ZM72.1875 67.875L71.6526 68.7199L71.6526 68.7199L72.1875 67.875ZM68.4034 63.375L67.4989 63.8015L67.4989 63.8015L68.4034 63.375ZM68.4545 48.3239L69.352 48.7649L69.352 48.7649L68.4545 48.3239ZM72.2898 43.9091L71.7753 43.0516L71.7726 43.0532L72.2898 43.9091ZM80.9489 43.1932L80.51 44.0918L80.5185 44.0958L80.9489 43.1932ZM83.3693 45L84.1269 44.3473L84.1269 44.3473L83.3693 45ZM84.8182 47.3011L83.8943 47.6839L84.15 48.3011H84.8182V47.3011ZM84.9886 47.3011V48.3011H85.9886V47.3011H84.9886ZM84.9886 34.0909V33.0909H83.9886V34.0909H84.9886ZM93.3239 34.0909H94.3239V33.0909H93.3239V34.0909ZM93.3239 69V70H94.3239V69H93.3239ZM85.0739 69H84.0739V70H85.0739V69ZM85.0739 64.7557H86.0739V63.7557H85.0739V64.7557ZM84.8182 64.7557V63.7557H84.1636L83.9017 64.3555L84.8182 64.7557ZM83.3182 67.0227L82.582 66.3459L82.582 66.3459L83.3182 67.0227ZM80.8807 68.7273L80.4765 67.8126L80.4726 67.8143L80.8807 68.7273ZM82.9432 62.0284L83.5649 62.8117L83.5724 62.8057L82.9432 62.0284ZM84.5966 59.5909L85.5346 59.9376L85.5346 59.9376L84.5966 59.5909ZM84.5966 52.2102L83.6565 52.5512L83.6598 52.5602L84.5966 52.2102ZM82.9432 49.8239L82.3292 50.6132L82.3353 50.6179L82.9432 49.8239ZM76.0909 52.2443L75.1508 51.9034L75.1475 51.9126L76.0909 52.2443ZM77.7273 62.0284L77.092 62.8007L77.0988 62.8063L77.1056 62.8117L77.7273 62.0284ZM77.4545 68.375C75.7055 68.375 74.1364 67.9253 72.7224 67.0301L71.6526 68.7199C73.3977 69.8247 75.34 70.375 77.4545 70.375V68.375ZM72.7224 67.0301C71.3306 66.149 70.1851 64.8086 69.3079 62.9485L67.4989 63.8015C68.5081 65.9414 69.8853 67.601 71.6526 68.7199L72.7224 67.0301ZM69.3079 62.9485C68.4452 61.1192 67.9886 58.7924 67.9886 55.9261H65.9886C65.9886 58.9917 66.4752 61.6308 67.4989 63.8015L69.3079 62.9485ZM67.9886 55.9261C67.9886 52.9434 68.4632 50.5736 69.352 48.7649L67.5571 47.8828C66.4913 50.0514 65.9886 52.7498 65.9886 55.9261H67.9886ZM69.352 48.7649C70.262 46.9133 71.4216 45.6021 72.807 44.7649L71.7726 43.0532C69.9988 44.1251 68.6017 45.7572 67.5571 47.8828L69.352 48.7649ZM72.8043 44.7666C74.2421 43.9039 75.7748 43.4773 77.4205 43.4773V41.4773C75.407 41.4773 73.5193 42.0052 71.7753 43.0516L72.8043 44.7666ZM77.4205 43.4773C78.6824 43.4773 79.7006 43.6965 80.51 44.0917L81.3877 42.2946C80.2425 41.7353 78.9085 41.4773 77.4205 41.4773V43.4773ZM80.5185 44.0958C81.3844 44.5087 82.0755 45.0303 82.6117 45.6527L84.1269 44.3473C83.3905 43.4925 82.4678 42.8095 81.3792 42.2905L80.5185 44.0958ZM82.6117 45.6527C83.1877 46.3213 83.6105 46.9987 83.8943 47.6839L85.742 46.9184C85.3668 46.0126 84.8237 45.156 84.1269 44.3473L82.6117 45.6527ZM84.8182 48.3011H84.9886V46.3011H84.8182V48.3011ZM85.9886 47.3011V34.0909H83.9886V47.3011H85.9886ZM84.9886 35.0909H93.3239V33.0909H84.9886V35.0909ZM92.3239 34.0909V69H94.3239V34.0909H92.3239ZM93.3239 68H85.0739V70H93.3239V68ZM86.0739 69V64.7557H84.0739V69H86.0739ZM85.0739 63.7557H84.8182V65.7557H85.0739V63.7557ZM83.9017 64.3555C83.5975 65.0523 83.1613 65.7159 82.582 66.3459L84.0544 67.6995C84.7706 66.9205 85.3343 66.0727 85.7346 65.1558L83.9017 64.3555ZM82.582 66.3459C82.0377 66.938 81.3426 67.4299 80.4765 67.8126L81.2848 69.642C82.3733 69.161 83.3032 68.5165 84.0544 67.6995L82.582 66.3459ZM80.4726 67.8143C79.6625 68.1765 78.6657 68.375 77.4545 68.375V70.375C78.8798 70.375 80.167 70.1417 81.2888 69.6402L80.4726 67.8143ZM80.3523 63.8807C81.5639 63.8807 82.6531 63.5353 83.5648 62.8117L82.3215 61.2451C81.8014 61.6579 81.1634 61.8807 80.3523 61.8807V63.8807ZM83.5724 62.8057C84.4548 62.0913 85.099 61.1162 85.5346 59.9376L83.6586 59.2443C83.3215 60.1565 82.8634 60.8064 82.314 61.2512L83.5724 62.8057ZM85.5346 59.9376C85.9712 58.7562 86.1761 57.4066 86.1761 55.9091H84.1761C84.1761 57.2298 83.9947 58.3347 83.6586 59.2443L85.5346 59.9376ZM86.1761 55.9091C86.1761 54.3915 85.9719 53.034 85.5333 51.8602L83.6598 52.5602C83.994 53.4546 84.1761 54.5631 84.1761 55.9091H86.1761ZM85.5367 51.8693C85.1098 50.692 84.4582 49.7244 83.5511 49.0299L82.3353 50.6179C82.8827 51.037 83.3334 51.6602 83.6565 52.5511L85.5367 51.8693ZM83.5571 49.0345C82.6455 48.3254 81.559 47.9886 80.3523 47.9886V49.9886C81.1683 49.9886 81.8091 50.2086 82.3292 50.6132L83.5571 49.0345ZM80.3523 47.9886C79.1237 47.9886 78.0214 48.3308 77.1056 49.0576L78.3489 50.6242C78.865 50.2146 79.5126 49.9886 80.3523 49.9886V47.9886ZM77.1056 49.0576C76.2176 49.7624 75.576 50.7309 75.1508 51.9034L77.031 52.5852C77.3558 51.6896 77.8052 51.0558 78.3489 50.6242L77.1056 49.0576ZM75.1475 51.9126C74.7375 53.0788 74.5455 54.4177 74.5455 55.9091H76.5455C76.5455 54.5823 76.7171 53.4781 77.0343 52.5761L75.1475 51.9126ZM74.5455 55.9091C74.5455 57.4037 74.744 58.7501 75.1667 59.9285L77.0492 59.2533C76.7219 58.3408 76.5455 57.2326 76.5455 55.9091H74.5455ZM75.1667 59.9285C75.5894 61.1069 76.2207 62.0839 77.092 62.8007L78.3625 61.2561C77.8248 60.8138 77.3766 60.1658 77.0492 59.2533L75.1667 59.9285ZM77.1056 62.8117C78.0214 63.5385 79.1237 63.8807 80.3523 63.8807V61.8807C79.5126 61.8807 78.865 61.6547 78.3489 61.2451L77.1056 62.8117ZM103.743 67.875L103.26 68.7506L103.266 68.7539L103.743 67.875ZM99.1747 63.2216L98.2884 63.6847L98.2915 63.6906L99.1747 63.2216ZM99.1918 48.9205L100.076 49.3874L100.077 49.3854L99.1918 48.9205ZM103.709 44.1818L104.21 45.0473L104.214 45.045L103.709 44.1818ZM115.692 43.3466L116.043 42.4103L116.043 42.4103L115.692 43.3466ZM122.322 50.1307L121.386 50.4811L121.387 50.4832L122.322 50.1307ZM123.26 57.9205V58.9205H124.26V57.9205H123.26ZM100.504 57.9205H99.5043V58.9205H100.504V57.9205ZM100.504 53.0795V52.0795H99.5043V53.0795H100.504ZM115.504 53.0795V54.0795H116.517L116.504 53.0667L115.504 53.0795ZM113.186 49.0909L112.694 49.9617L112.703 49.9664L112.711 49.9709L113.186 49.0909ZM108.243 49.125L108.727 49.9999L108.738 49.9941L108.243 49.125ZM106.487 50.8125L107.34 51.3351L107.344 51.329L106.487 50.8125ZM105.805 53.2159L104.806 53.1906L104.805 53.2033V53.2159H105.805ZM106.436 60.9545L105.549 61.4167L105.552 61.4219L106.436 60.9545ZM108.226 62.8125L107.728 63.68L107.728 63.68L108.226 62.8125ZM112.999 63.1705L113.32 64.1173L113.32 64.1173L112.999 63.1705ZM114.55 62.267L115.227 63.0026L115.227 63.0026L114.55 62.267ZM115.521 60.8011L115.55 59.8016L114.834 59.7808L114.584 60.452L115.521 60.8011ZM123.175 61.0227L124.158 61.205L124.371 60.0569L123.204 60.0231L123.175 61.0227ZM121.078 65.5057L120.316 64.8588L120.315 64.8594L121.078 65.5057ZM116.868 68.4545L117.238 69.3835L117.243 69.3813L116.868 68.4545ZM110.834 68.4943C108.227 68.4943 106.034 67.9811 104.22 66.9961L103.266 68.7539C105.429 69.928 107.963 70.4943 110.834 70.4943V68.4943ZM104.226 66.9994C102.42 66.0032 101.036 64.594 100.058 62.7526L98.2915 63.6906C99.45 65.8719 101.111 67.565 103.26 68.7506L104.226 66.9994ZM100.061 62.7585C99.0936 60.9068 98.5895 58.6692 98.5895 56.0114H96.5895C96.5895 58.9217 97.1422 61.4909 98.2884 63.6847L100.061 62.7585ZM98.5895 56.0114C98.5895 53.4399 99.0966 51.2421 100.076 49.3874L98.3075 48.4535C97.1506 50.6442 96.5895 53.1737 96.5895 56.0114H98.5895ZM100.077 49.3854C101.06 47.5143 102.434 46.0754 104.21 45.0472L103.208 43.3164C101.097 44.5382 99.4602 46.2584 98.3064 48.4555L100.077 49.3854ZM104.214 45.045C105.979 44.0126 108.089 43.4773 110.578 43.4773V41.4773C107.795 41.4773 105.325 42.0784 103.204 43.3186L104.214 45.045ZM110.578 43.4773C112.337 43.4773 113.921 43.7506 115.341 44.2829L116.043 42.4103C114.372 41.7835 112.546 41.4773 110.578 41.4773V43.4773ZM115.341 44.2829C116.755 44.8134 117.967 45.5936 118.987 46.624L120.408 45.2169C119.178 43.9746 117.719 43.0388 116.043 42.4103L115.341 44.2829ZM118.987 46.624C120.001 47.6489 120.805 48.9277 121.386 50.4811L123.259 49.7803C122.59 47.9928 121.643 46.4647 120.408 45.2169L118.987 46.624ZM121.387 50.4832C121.961 52.0086 122.26 53.7889 122.26 55.8409H124.26C124.26 53.5975 123.934 51.571 123.258 49.7782L121.387 50.4832ZM122.26 55.8409V57.9205H124.26V55.8409H122.26ZM123.26 56.9205H100.504V58.9205H123.26V56.9205ZM101.504 57.9205V53.0795H99.5043V57.9205H101.504ZM100.504 54.0795H115.504V52.0795H100.504V54.0795ZM116.504 53.0667C116.491 52.0241 116.241 51.0603 115.735 50.202L114.012 51.2185C114.324 51.7466 114.495 52.3623 114.504 53.0924L116.504 53.0667ZM115.735 50.202C115.232 49.3503 114.535 48.6827 113.661 48.2109L112.711 49.9709C113.269 50.2718 113.697 50.6838 114.012 51.2185L115.735 50.202ZM113.678 48.2201C112.803 47.7266 111.817 47.4943 110.749 47.4943V49.4943C111.521 49.4943 112.16 49.6598 112.694 49.9617L113.678 48.2201ZM110.749 47.4943C109.66 47.4943 108.652 47.7416 107.748 48.2559L108.738 49.9941C109.311 49.6675 109.973 49.4943 110.749 49.4943V47.4943ZM107.758 48.2502C106.868 48.7432 106.154 49.4286 105.631 50.296L107.344 51.329C107.684 50.7646 108.14 50.3249 108.727 49.9998L107.758 48.2502ZM105.635 50.2899C105.103 51.1573 104.832 52.1328 104.806 53.1906L106.805 53.2412C106.824 52.5036 107.008 51.8768 107.34 51.3351L105.635 50.2899ZM104.805 53.2159V58.142H106.805V53.2159H104.805ZM104.805 58.142C104.805 59.3431 105.043 60.4443 105.549 61.4167L107.323 60.4924C106.989 59.8512 106.805 59.0773 106.805 58.142H104.805ZM105.552 61.4219C106.06 62.3828 106.79 63.1417 107.728 63.68L108.723 61.945C108.116 61.597 107.653 61.1172 107.32 60.4872L105.552 61.4219ZM107.728 63.68C108.68 64.2258 109.779 64.4773 110.987 64.4773V62.4773C110.059 62.4773 109.317 62.2856 108.723 61.945L107.728 63.68ZM110.987 64.4773C111.818 64.4773 112.599 64.3622 113.32 64.1173L112.677 62.2236C112.193 62.3878 111.634 62.4773 110.987 62.4773V64.4773ZM113.32 64.1173C114.043 63.8717 114.684 63.5025 115.227 63.0026L113.872 61.5315C113.551 61.8271 113.158 62.0601 112.677 62.2236L113.32 64.1173ZM115.227 63.0026C115.781 62.4926 116.191 61.8691 116.458 61.1502L114.584 60.452C114.42 60.8922 114.182 61.2461 113.872 61.5315L115.227 63.0026ZM115.492 61.8007L123.146 62.0223L123.204 60.0231L115.55 59.8016L115.492 61.8007ZM122.191 60.8404C121.904 62.393 121.277 63.7252 120.316 64.8588L121.841 66.1525C123.038 64.7407 123.809 63.0842 124.158 61.205L122.191 60.8404ZM120.315 64.8594C119.365 65.9815 118.101 66.8757 116.492 67.5277L117.243 69.3813C119.112 68.6243 120.655 67.5526 121.841 66.1519L120.315 64.8594ZM116.498 67.5257C114.9 68.1628 113.018 68.4943 110.834 68.4943V70.4943C113.218 70.4943 115.359 70.1327 117.238 69.3834L116.498 67.5257ZM127.517 69H126.517V70H127.517V69ZM127.517 42.8182V41.8182H126.517V42.8182H127.517ZM135.614 42.8182H136.614V41.8182H135.614V42.8182ZM135.614 47.5909H134.614V48.5909H135.614V47.5909ZM135.886 47.5909V48.5909H136.648L136.85 47.8572L135.886 47.5909ZM138.222 43.7386L138.836 44.5276L138.841 44.5235L138.222 43.7386ZM143.182 42.5455L143.044 43.5359L143.058 43.5378L143.071 43.5393L143.182 42.5455ZM144.324 42.767H145.324V42.0161L144.603 41.8067L144.324 42.767ZM144.324 50.0114L144 50.9573L145.324 51.4114V50.0114H144.324ZM142.756 49.6875L142.632 50.6798L142.634 50.68L142.756 49.6875ZM138.375 50.233L138.857 51.1089L138.862 51.1065L138.375 50.233ZM136.517 52.0568L135.652 51.5553L135.65 51.5593L136.517 52.0568ZM135.852 69V70H136.852V69H135.852ZM128.517 69V42.8182H126.517V69H128.517ZM127.517 43.8182H135.614V41.8182H127.517V43.8182ZM134.614 42.8182V47.5909H136.614V42.8182H134.614ZM135.614 48.5909H135.886V46.5909H135.614V48.5909ZM136.85 47.8572C137.288 46.2732 137.972 45.2006 138.836 44.5275L137.607 42.9497C136.312 43.9584 135.439 45.4541 134.922 47.3246L136.85 47.8572ZM138.841 44.5235C139.737 43.8166 140.772 43.4602 141.989 43.4602V41.4602C140.342 41.4602 138.866 41.9561 137.602 42.9538L138.841 44.5235ZM141.989 43.4602C142.326 43.4602 142.678 43.485 143.044 43.5359L143.319 41.555C142.868 41.4922 142.424 41.4602 141.989 41.4602V43.4602ZM143.071 43.5393C143.43 43.5792 143.754 43.6429 144.045 43.7274L144.603 41.8067C144.189 41.6866 143.752 41.6026 143.292 41.5516L143.071 43.5393ZM143.324 42.767V50.0114H145.324V42.767H143.324ZM144.648 49.0654C144.159 48.8978 143.561 48.7789 142.878 48.695L142.634 50.68C143.246 50.7552 143.693 50.8522 144 50.9573L144.648 49.0654ZM142.88 48.6952C142.213 48.6119 141.602 48.5682 141.051 48.5682V50.5682C141.5 50.5682 142.026 50.604 142.632 50.6798L142.88 48.6952ZM141.051 48.5682C139.907 48.5682 138.845 48.8263 137.888 49.3594L138.862 51.1065C139.496 50.7533 140.218 50.5682 141.051 50.5682V48.5682ZM137.893 49.357C136.947 49.8777 136.196 50.616 135.652 51.5553L137.382 52.5583C137.747 51.9295 138.235 51.4519 138.857 51.1089L137.893 49.357ZM135.65 51.5593C135.106 52.5079 134.852 53.5946 134.852 54.7841H136.852C136.852 53.8827 137.042 53.1512 137.385 52.5543L135.65 51.5593ZM134.852 54.7841V69H136.852V54.7841H134.852ZM135.852 68H127.517V70H135.852V68ZM156.055 34.0909H157.055V33.0909H156.055V34.0909ZM156.055 69V70H157.055V69H156.055ZM147.72 69H146.72V70H147.72V69ZM147.72 34.0909V33.0909H146.72V34.0909H147.72ZM155.055 34.0909V69H157.055V34.0909H155.055ZM156.055 68H147.72V70H156.055V68ZM148.72 69V34.0909H146.72V69H148.72ZM147.72 35.0909H156.055V33.0909H147.72V35.0909ZM164.293 68.608L163.888 69.5225L163.898 69.5267L164.293 68.608ZM161.241 66.0511L160.401 66.5924L160.407 66.602L161.241 66.0511ZM160.901 58.0568L160.01 57.6015L160.01 57.6015L160.901 58.0568ZM163.014 55.6193L163.586 56.44L163.586 56.44L163.014 55.6193ZM166.116 54.2045L166.379 55.1696L166.387 55.1671L166.116 54.2045ZM169.866 53.5398L169.952 54.5362L169.958 54.5356L169.866 53.5398ZM173.463 53.1136L173.623 54.1008L173.635 54.0987L173.463 53.1136ZM175.44 52.4489L176.011 53.2702L176.015 53.2671L175.44 52.4489ZM175.168 49.0909L175.789 48.3072L175.789 48.3072L175.168 49.0909ZM170.071 49.0909L169.491 48.2762L169.491 48.2762L170.071 49.0909ZM168.793 51.0682L168.757 52.0676L169.593 52.0972L169.77 51.2795L168.793 51.0682ZM161.105 50.7955L160.115 50.654L159.958 51.7554L161.07 51.7948L161.105 50.7955ZM162.861 46.5341L162.063 45.9306L162.063 45.9318L162.861 46.5341ZM166.781 43.5682L167.177 44.4864L167.18 44.4851L166.781 43.5682ZM177.418 43.0739L177.146 44.0363L177.153 44.0383L177.418 43.0739ZM181.099 44.7784L180.517 45.591L180.522 45.5951L181.099 44.7784ZM183.52 47.5057L182.635 47.9714L182.639 47.9787L183.52 47.5057ZM184.389 69V70H185.389V69H184.389ZM176.548 69H175.548V70H176.548V69ZM176.548 65.3523H177.548V64.3523H176.548V65.3523ZM176.344 65.3523V64.3523H175.74L175.459 64.887L176.344 65.3523ZM174.554 67.6023L173.909 66.838L173.903 66.843L174.554 67.6023ZM172.014 68.983L171.715 68.0289L171.711 68.0299L172.014 68.983ZM173.736 63.4432L173.289 62.5487L173.283 62.5516L173.736 63.4432ZM175.474 61.9432L176.302 62.5047L176.306 62.4979L175.474 61.9432ZM176.122 57.2045H177.122V55.5519L175.658 56.3187L176.122 57.2045ZM175.253 57.5455L174.965 56.5876L174.956 56.5904L175.253 57.5455ZM172.935 58.0739L173.095 59.061L173.095 59.061L172.935 58.0739ZM171.724 58.2614L171.579 57.2719L171.567 57.2738L171.724 58.2614ZM169.713 58.8409L169.288 57.9356L169.281 57.9391L169.713 58.8409ZM168.452 59.8636L167.634 59.2887L167.63 59.2932L168.452 59.8636ZM168.946 63.3068L168.351 64.1104L168.358 64.1156L168.946 63.3068ZM168.741 68.4432C167.182 68.4432 165.837 68.1835 164.688 67.6892L163.898 69.5267C165.339 70.1461 166.96 70.4432 168.741 70.4432V68.4432ZM164.697 67.6935C163.583 67.2003 162.717 66.4716 162.076 65.5003L160.407 66.602C161.266 67.9034 162.434 68.8793 163.888 69.5224L164.697 67.6935ZM162.082 65.51C161.472 64.5615 161.134 63.3246 161.134 61.7386H159.134C159.134 63.6072 159.534 65.2453 160.401 66.5923L162.082 65.51ZM161.134 61.7386C161.134 60.3972 161.37 59.3358 161.791 58.5121L160.01 57.6015C159.409 58.7778 159.134 60.171 159.134 61.7386H161.134ZM161.791 58.5121C162.23 57.6542 162.826 56.9687 163.586 56.44L162.443 54.7986C161.407 55.52 160.594 56.4595 160.01 57.6015L161.791 58.5121ZM163.586 56.44C164.38 55.8872 165.307 55.4609 166.379 55.1695L165.854 53.2396C164.585 53.5845 163.444 54.1015 162.443 54.7986L163.586 56.44ZM166.387 55.1671C167.492 54.8562 168.679 54.6449 169.952 54.5361L169.781 52.5434C168.395 52.6619 167.082 52.8938 165.845 53.242L166.387 55.1671ZM169.958 54.5356C171.457 54.3982 172.682 54.2537 173.623 54.1007L173.303 52.1266C172.426 52.269 171.253 52.4086 169.775 52.5439L169.958 54.5356ZM173.635 54.0987C174.586 53.9323 175.42 53.6807 176.011 53.2702L174.87 51.6275C174.643 51.7852 174.158 51.9768 173.291 52.1286L173.635 54.0987ZM176.015 53.2671C176.714 52.7758 177.071 52.0491 177.071 51.2045H175.071C175.071 51.4282 175.007 51.531 174.865 51.6307L176.015 53.2671ZM177.071 51.2045V51.1193H175.071V51.2045H177.071ZM177.071 51.1193C177.071 49.9868 176.666 49.002 175.789 48.3072L174.547 49.8747C174.874 50.1344 175.071 50.5018 175.071 51.1193H177.071ZM175.789 48.3072C174.959 47.6496 173.904 47.375 172.73 47.375V49.375C173.602 49.375 174.172 49.5776 174.547 49.8747L175.789 48.3072ZM172.73 47.375C171.489 47.375 170.38 47.6435 169.491 48.2762L170.651 49.9056C171.103 49.5837 171.766 49.375 172.73 49.375V47.375ZM169.491 48.2762C168.608 48.9051 168.047 49.7845 167.815 50.8568L169.77 51.2795C169.902 50.6701 170.193 50.2312 170.651 49.9056L169.491 48.2762ZM168.828 50.0688L161.141 49.7961L161.07 51.7948L168.757 52.0676L168.828 50.0688ZM162.095 50.9369C162.299 49.5087 162.82 48.2478 163.659 47.1364L162.063 45.9318C161.015 47.3204 160.366 48.9003 160.115 50.654L162.095 50.9369ZM163.658 47.1375C164.494 46.0326 165.654 45.1437 167.177 44.4863L166.385 42.65C164.59 43.4245 163.136 44.5129 162.063 45.9306L163.658 47.1375ZM167.18 44.4851C168.695 43.8258 170.557 43.4773 172.798 43.4773V41.4773C170.358 41.4773 168.209 41.856 166.382 42.6513L167.18 44.4851ZM172.798 43.4773C174.39 43.4773 175.837 43.6667 177.146 44.0363L177.689 42.1115C176.18 41.6856 174.548 41.4773 172.798 41.4773V43.4773ZM177.153 44.0383C178.463 44.3975 179.58 44.9187 180.517 45.5909L181.682 43.9659C180.528 43.1381 179.19 42.523 177.682 42.1095L177.153 44.0383ZM180.522 45.5951C181.446 46.2473 182.144 47.0385 182.635 47.9714L184.405 47.0399C183.759 45.8138 182.844 44.7868 181.676 43.9617L180.522 45.5951ZM182.639 47.9787C183.131 48.8946 183.389 49.9613 183.389 51.2045H185.389C185.389 49.6751 185.068 48.2759 184.401 47.0327L182.639 47.9787ZM183.389 51.2045V69H185.389V51.2045H183.389ZM184.389 68H176.548V70H184.389V68ZM177.548 69V65.3523H175.548V69H177.548ZM176.548 64.3523H176.344V66.3523H176.548V64.3523ZM175.459 64.887C175.05 65.6652 174.533 66.3119 173.909 66.838L175.199 68.3666C176.03 67.6654 176.706 66.8121 177.229 65.8176L175.459 64.887ZM173.903 66.843C173.299 67.3613 172.574 67.759 171.715 68.0289L172.314 69.937C173.409 69.5932 174.378 69.0706 175.205 68.3615L173.903 66.843ZM171.711 68.0299C170.861 68.3001 169.875 68.4432 168.741 68.4432V70.4432C170.04 70.4432 171.236 70.2794 172.317 69.936L171.711 68.0299ZM171.315 64.9886C172.352 64.9886 173.317 64.7777 174.189 64.3348L173.283 62.5516C172.723 62.8359 172.074 62.9886 171.315 62.9886V64.9886ZM174.183 64.3376C175.054 63.9019 175.768 63.2909 176.302 62.5047L174.647 61.3817C174.317 61.8682 173.872 62.2572 173.289 62.5488L174.183 64.3376ZM176.306 62.4979C176.858 61.6704 177.122 60.7234 177.122 59.6932H175.122C175.122 60.3675 174.954 60.9205 174.642 61.3885L176.306 62.4979ZM177.122 59.6932V57.2045H175.122V59.6932H177.122ZM175.658 56.3187C175.491 56.4065 175.264 56.4982 174.965 56.5876L175.54 58.5033C175.924 58.3881 176.276 58.2526 176.586 58.0904L175.658 56.3187ZM174.956 56.5904C174.655 56.6839 174.316 56.7741 173.939 56.8604L174.385 58.8101C174.803 58.7145 175.192 58.6115 175.549 58.5005L174.956 56.5904ZM173.939 56.8604C173.563 56.9463 173.175 57.0218 172.775 57.0868L173.095 59.061C173.535 58.9895 173.965 58.9059 174.385 58.8101L173.939 56.8604ZM172.775 57.0868C172.359 57.1542 171.96 57.216 171.579 57.272L171.87 59.2507C172.262 59.1931 172.67 59.1299 173.095 59.061L172.775 57.0868ZM171.567 57.2738C170.716 57.4095 169.95 57.6249 169.288 57.9357L170.138 59.7461C170.589 59.5342 171.165 59.3632 171.882 59.2489L171.567 57.2738ZM169.281 57.9391C168.608 58.2614 168.044 58.705 167.634 59.2887L169.27 60.4386C169.451 60.1814 169.727 59.9432 170.145 59.7427L169.281 57.9391ZM167.63 59.2932C167.214 59.8927 167.026 60.5872 167.026 61.3295H169.026C169.026 60.9355 169.121 60.6528 169.273 60.434L167.63 59.2932ZM167.026 61.3295C167.026 62.4624 167.447 63.4406 168.351 64.1104L169.541 62.5033C169.218 62.264 169.026 61.9239 169.026 61.3295H167.026ZM168.358 64.1156C169.191 64.7211 170.2 64.9886 171.315 64.9886V62.9886C170.522 62.9886 169.952 62.8016 169.534 62.4981L168.358 64.1156ZM212.344 50.8125L212.37 51.8121L213.428 51.7839L213.34 50.7295L212.344 50.8125ZM204.69 51.017L203.701 51.1614L203.829 52.0404L204.717 52.0167L204.69 51.017ZM204.043 49.5682L203.268 50.2004L203.276 50.2104L204.043 49.5682ZM202.662 48.5625L202.252 49.4748L202.263 49.4798L202.275 49.4845L202.662 48.5625ZM198.247 48.767L197.754 47.897L197.748 47.9006L198.247 48.767ZM197.259 50.3352L198.258 50.3574L198.259 50.3377L198.258 50.318L197.259 50.3352ZM197.872 51.6648L197.206 52.4111L197.216 52.4198L197.872 51.6648ZM200.173 52.5682L199.971 53.5476L199.979 53.5492L199.987 53.5508L200.173 52.5682ZM205.219 53.5227L205.407 52.5405L205.405 52.5402L205.219 53.5227ZM211.048 56.0114L210.375 56.7507L210.378 56.7537L211.048 56.0114ZM212.991 60.6136L213.992 60.62L213.991 60.6077L212.991 60.6136ZM211.389 65.3011L210.606 64.6789L210.603 64.683L211.389 65.3011ZM207.094 68.4034L207.465 69.3319L207.47 69.3299L207.094 68.4034ZM192.009 67.1932L191.424 68.0049L191.429 68.0084L192.009 67.1932ZM188.327 60.9886L188.302 59.9889L187.205 60.0162L187.334 61.1062L188.327 60.9886ZM196.56 60.7841L197.542 60.597L197.383 59.7633L196.535 59.7844L196.56 60.7841ZM197.974 62.9659L198.523 62.13L198.523 62.13L197.974 62.9659ZM203.497 63.1193L202.987 62.2593L202.987 62.2593L203.497 63.1193ZM204.52 61.5341L205.52 61.5513L205.52 61.5331L205.52 61.5149L204.52 61.5341ZM203.736 60.1193L203.156 60.9343L203.162 60.9386L203.168 60.9428L203.736 60.1193ZM201.332 59.267L201.145 60.2494L201.148 60.2499L201.332 59.267ZM196.764 58.3977L196.951 57.4153L196.943 57.4139L196.764 58.3977ZM190.901 55.7557L190.19 56.4597L190.193 56.4628L190.901 55.7557ZM188.991 50.8125L189.992 50.8182L189.991 50.806L188.991 50.8125ZM190.389 46.3295L191.185 46.9354L191.187 46.9319L190.389 46.3295ZM194.412 43.4659L194.057 42.5308L194.057 42.5308L194.412 43.4659ZM208.952 44.7102L208.363 45.5188L208.366 45.5209L208.952 44.7102ZM212.317 49.8129L204.664 50.0174L204.717 52.0167L212.37 51.8121L212.317 49.8129ZM205.68 50.8727C205.574 50.1448 205.281 49.4892 204.809 48.926L203.276 50.2104C203.509 50.488 203.648 50.7984 203.701 51.1614L205.68 50.8727ZM204.817 48.9361C204.351 48.3643 203.752 47.9357 203.049 47.6405L202.275 49.4845C202.708 49.6665 203.03 49.9084 203.268 50.2003L204.817 48.9361ZM203.072 47.6502C202.362 47.3316 201.569 47.1875 200.719 47.1875V49.1875C201.345 49.1875 201.848 49.2934 202.252 49.4748L203.072 47.6502ZM200.719 47.1875C199.62 47.1875 198.618 47.4078 197.754 47.897L198.74 49.6371C199.24 49.3536 199.886 49.1875 200.719 49.1875V47.1875ZM197.748 47.9006C196.828 48.4307 196.24 49.2597 196.259 50.3525L198.258 50.318C198.254 50.0925 198.325 49.8761 198.746 49.6335L197.748 47.9006ZM196.259 50.313C196.24 51.149 196.593 51.8635 197.207 52.4111L198.538 50.9185C198.311 50.7161 198.254 50.5442 198.258 50.3574L196.259 50.313ZM197.216 52.4198C197.852 52.9716 198.835 53.3132 199.971 53.5476L200.375 51.5888C199.308 51.3686 198.756 51.108 198.528 50.9097L197.216 52.4198ZM199.987 53.5508L205.033 54.5053L205.405 52.5402L200.359 51.5856L199.987 53.5508ZM205.031 54.5049C207.554 54.9877 209.294 55.766 210.375 56.7507L211.722 55.272C210.257 53.9385 208.11 53.0578 205.407 52.5405L205.031 54.5049ZM210.378 56.7537C211.431 57.7039 211.982 58.959 211.991 60.6196L213.991 60.6077C213.979 58.4501 213.234 56.637 211.718 55.269L210.378 56.7537ZM211.991 60.6073C211.981 62.1927 211.516 63.535 210.606 64.6789L212.172 65.9234C213.376 64.4082 213.979 62.6255 213.991 60.62L211.991 60.6073ZM210.603 64.683C209.681 65.8554 208.401 66.7931 206.717 67.4769L207.47 69.3299C209.423 68.5364 211.006 67.406 212.175 65.9193L210.603 64.683ZM206.722 67.4749C205.043 68.1467 203.093 68.4943 200.855 68.4943V70.4943C203.299 70.4943 205.508 70.1147 207.465 69.3319L206.722 67.4749ZM200.855 68.4943C197.241 68.4943 194.521 67.7515 192.588 66.378L191.429 68.0084C193.814 69.703 196.991 70.4943 200.855 70.4943V68.4943ZM192.593 66.3815C190.669 64.9972 189.593 63.179 189.32 60.871L187.334 61.1062C187.674 63.9801 189.053 66.2983 191.424 68.0049L192.593 66.3815ZM188.352 61.9883L196.584 61.7838L196.535 59.7844L188.302 59.9889L188.352 61.9883ZM195.577 60.9712C195.806 62.172 196.421 63.1424 197.426 63.8018L198.523 62.13C198.005 61.7894 197.677 61.3053 197.542 60.597L195.577 60.9712ZM197.426 63.8018C198.392 64.4365 199.57 64.7159 200.889 64.7159V62.7159C199.845 62.7159 199.08 62.4953 198.523 62.13L197.426 63.8018ZM200.889 64.7159C202.073 64.7159 203.136 64.4965 204.007 63.9794L202.987 62.2593C202.518 62.5375 201.842 62.7159 200.889 62.7159V64.7159ZM204.007 63.9794C204.912 63.4425 205.501 62.6255 205.52 61.5513L203.52 61.5169C203.516 61.7609 203.423 62.0007 202.987 62.2593L204.007 63.9794ZM205.52 61.5149C205.502 60.5831 205.064 59.8199 204.303 59.2958L203.168 60.9428C203.43 61.1232 203.515 61.3033 203.52 61.5533L205.52 61.5149ZM204.315 59.3044C203.628 58.8153 202.657 58.498 201.517 58.2842L201.148 60.2499C202.19 60.4452 202.821 60.6961 203.156 60.9343L204.315 59.3044ZM201.519 58.2847L196.951 57.4154L196.577 59.3801L201.145 60.2494L201.519 58.2847ZM196.943 57.4139C194.429 56.9568 192.695 56.1359 191.608 55.0486L190.193 56.4628C191.674 57.9437 193.849 58.8841 196.585 59.3816L196.943 57.4139ZM191.611 55.0517C190.533 53.964 189.981 52.5807 189.991 50.8182L187.991 50.8068C187.979 53.0443 188.7 54.9564 190.19 56.4597L191.611 55.0517ZM189.991 50.806C189.981 49.2482 190.392 47.9764 191.185 46.9354L189.594 45.7237C188.5 47.1599 187.979 48.8768 187.991 50.819L189.991 50.806ZM191.187 46.9319C191.997 45.8586 193.171 45.0059 194.766 44.401L194.057 42.5308C192.176 43.2441 190.668 44.3005 189.591 45.7272L191.187 46.9319ZM194.766 44.401C196.366 43.7947 198.291 43.4773 200.565 43.4773V41.4773C198.112 41.4773 195.935 41.8189 194.057 42.5308L194.766 44.401ZM200.565 43.4773C203.982 43.4773 206.545 44.1956 208.363 45.5188L209.54 43.9017C207.267 42.2476 204.24 41.4773 200.565 41.4773V43.4773ZM208.366 45.5209C210.167 46.8214 211.155 48.5854 211.347 50.8955L213.34 50.7295C213.101 47.8578 211.827 45.5536 209.537 43.8995L208.366 45.5209ZM225.43 54.0682L224.43 54.0568V54.0682H225.43ZM225.43 69V70H226.43V69H225.43ZM217.095 69H216.095V70H217.095V69ZM217.095 34.0909V33.0909H216.095V34.0909H217.095ZM225.158 34.0909H226.158V33.0909H225.158V34.0909ZM225.158 47.625H224.158V48.625H225.158V47.625ZM225.447 47.625V48.625H226.146L226.386 47.9689L225.447 47.625ZM228.345 43.8409L227.787 43.011L227.784 43.0132L228.345 43.8409ZM238.112 43.7045L237.598 44.5621L237.603 44.5652L238.112 43.7045ZM241.283 47.1307L240.391 47.5834L240.394 47.5888L241.283 47.1307ZM242.408 52.3125L241.408 52.3068V52.3125H242.408ZM242.408 69V70H243.408V69H242.408ZM234.072 69H233.072V70H234.072V69ZM234.072 53.9489L233.072 53.9411V53.9489H234.072ZM232.982 50.5398L232.239 51.2099L232.239 51.2099L232.982 50.5398ZM227.544 49.892L228.039 50.7612L228.043 50.7585L227.544 49.892ZM225.993 51.5114L225.11 51.0415L225.104 51.0527L225.993 51.5114ZM224.43 54.0682V69H226.43V54.0682H224.43ZM225.43 68H217.095V70H225.43V68ZM218.095 69V34.0909H216.095V69H218.095ZM217.095 35.0909H225.158V33.0909H217.095V35.0909ZM224.158 34.0909V47.625H226.158V34.0909H224.158ZM225.158 48.625H225.447V46.625H225.158V48.625ZM226.386 47.9689C226.91 46.5394 227.75 45.4527 228.906 44.6686L227.784 43.0132C226.259 44.0473 225.167 45.4833 224.508 47.2811L226.386 47.9689ZM228.903 44.6708C230.06 43.8931 231.509 43.4773 233.305 43.4773V41.4773C231.192 41.4773 229.335 41.9705 227.787 43.011L228.903 44.6708ZM233.305 43.4773C234.994 43.4773 236.413 43.851 237.598 44.562L238.627 42.8471C237.085 41.9217 235.299 41.4773 233.305 41.4773V43.4773ZM237.603 44.5652C238.795 45.2706 239.723 46.2676 240.391 47.5834L242.174 46.678C241.342 45.0393 240.156 43.7521 238.621 42.8439L237.603 44.5652ZM240.394 47.5888C241.068 48.8978 241.418 50.4603 241.408 52.3068L243.408 52.3182C243.42 50.2101 243.02 48.3181 242.172 46.6726L240.394 47.5888ZM241.408 52.3125V69H243.408V52.3125H241.408ZM242.408 68H234.072V70H242.408V68ZM235.072 69V53.9489H233.072V69H235.072ZM235.072 53.9567C235.085 52.3337 234.678 50.9266 233.724 49.8697L232.239 51.2099C232.762 51.7894 233.083 52.6549 233.072 53.9411L235.072 53.9567ZM233.724 49.8697C232.755 48.7968 231.42 48.3125 229.862 48.3125V50.3125C230.987 50.3125 231.731 50.6464 232.239 51.2099L233.724 49.8697ZM229.862 48.3125C228.835 48.3125 227.886 48.5408 227.045 49.0256L228.043 50.7585C228.543 50.4706 229.139 50.3125 229.862 50.3125V48.3125ZM227.05 49.0229C226.217 49.4966 225.569 50.179 225.11 51.0415L226.876 51.9812C227.167 51.4346 227.553 51.0375 228.039 50.7612L227.05 49.0229ZM225.104 51.0527C224.653 51.927 224.443 52.9407 224.43 54.0568L226.43 54.0795C226.44 53.1956 226.606 52.5048 226.882 51.97L225.104 51.0527Z" fill="black" fill-opacity="0.2" mask="url(#path-1-outside-1_120_3)"/>
</g>
</g>
<defs>
<filter id="filter0_dd_120_3" x="-2.35791" y="33.0909" width="249.766" height="45.4034" filterUnits="userSpaceOnUse" color-interpolation-filters="sRGB">
<feFlood flood-opacity="0" result="BackgroundImageFix"/>
<feColorMatrix in="SourceAlpha" type="matrix" values="0 0 0 0 0 0 0 0 0 0 0 0 0 0 0 0 0 0 127 0" result="hardAlpha"/>
<feOffset dy="4"/>
<feGaussianBlur stdDeviation="2"/>
<feComposite in2="hardAlpha" operator="out"/>
<feColorMatrix type="matrix" values="0 0 0 0 0 0 0 0 0 0 0 0 0 0 0 0 0 0 0.25 0"/>
<feBlend mode="normal" in2="BackgroundImageFix" result="effect1_dropShadow_120_3"/>
<feColorMatrix in="SourceAlpha" type="matrix" values="0 0 0 0 0 0 0 0 0 0 0 0 0 0 0 0 0 0 127 0" result="hardAlpha"/>
<feOffset dy="4"/>
<feGaussianBlur stdDeviation="2"/>
<feComposite in2="hardAlpha" operator="out"/>
<feColorMatrix type="matrix" values="0 0 0 0 0 0 0 0 0 0 0 0 0 0 0 0 0 0 0.25 0"/>
<feBlend mode="normal" in2="effect1_dropShadow_120_3" result="effect2_dropShadow_120_3"/>
<feBlend mode="normal" in="SourceGraphic" in2="effect2_dropShadow_120_3" result="shape"/>
</filter>
<clipPath id="clip0_120_3">
<rect width="322" height="117" fill="white"/>
</clipPath>
</defs>
</svg>
