<svg width="322" height="117" viewBox="0 0 322 117" fill="none" xmlns="http://www.w3.org/2000/svg">
<g clip-path="url(#clip0_120_15)">
<rect width="322" height="117" fill="white"/>
<g filter="url(#filter0_dd_120_15)">
<mask id="path-1-outside-1_120_15" maskUnits="userSpaceOnUse" x="-1" y="33" width="182" height="38" fill="black">
<rect fill="white" x="-1" y="33" width="182" height="38"/>
<path d="M10.5682 34.0909L18.375 59.6591H18.6648L26.4716 34.0909H35.9148L24.1364 69H12.9034L1.125 34.0909H10.5682ZM48.7543 69.4943C46.0043 69.4943 43.6406 68.9318 41.6634 67.8068C39.6974 66.6705 38.1804 65.0909 37.1122 63.0682C36.0554 61.0341 35.527 58.6761 35.527 55.9943C35.527 53.3011 36.0554 50.9432 37.1122 48.9205C38.1804 46.8864 39.6974 45.3068 41.6634 44.1818C43.6406 43.0455 46.0043 42.4773 48.7543 42.4773C51.5043 42.4773 53.8622 43.0455 55.8281 44.1818C57.8054 45.3068 59.3224 46.8864 60.3793 48.9205C61.4474 50.9432 61.9815 53.3011 61.9815 55.9943C61.9815 58.6761 61.4474 61.0341 60.3793 63.0682C59.3224 65.0909 57.8054 66.6705 55.8281 67.8068C53.8622 68.9318 51.5043 69.4943 48.7543 69.4943ZM48.8054 63.2045C49.8054 63.2045 50.652 62.8977 51.3452 62.2841C52.0384 61.6705 52.5668 60.8182 52.9304 59.7273C53.3054 58.6364 53.4929 57.375 53.4929 55.9432C53.4929 54.4886 53.3054 53.2159 52.9304 52.125C52.5668 51.0341 52.0384 50.1818 51.3452 49.5682C50.652 48.9545 49.8054 48.6477 48.8054 48.6477C47.7713 48.6477 46.8963 48.9545 46.1804 49.5682C45.4759 50.1818 44.9361 51.0341 44.5611 52.125C44.1974 53.2159 44.0156 54.4886 44.0156 55.9432C44.0156 57.375 44.1974 58.6364 44.5611 59.7273C44.9361 60.8182 45.4759 61.6705 46.1804 62.2841C46.8963 62.8977 47.7713 63.2045 48.8054 63.2045ZM74.5866 34.0909V69H66.2514V34.0909H74.5866ZM96.7841 57.6989V42.8182H105.102V69H97.1591V64.125H96.8864C96.3068 65.7273 95.3182 67 93.9205 67.9432C92.5341 68.875 90.858 69.3409 88.892 69.3409C87.108 69.3409 85.5398 68.9318 84.1875 68.1136C82.8352 67.2955 81.7841 66.1534 81.0341 64.6875C80.2841 63.2102 79.9034 61.483 79.892 59.5057V42.8182H88.2273V57.8693C88.2386 59.2898 88.6136 60.4091 89.3523 61.2273C90.0909 62.0455 91.0966 62.4545 92.3693 62.4545C93.1989 62.4545 93.9432 62.2727 94.6023 61.9091C95.2727 61.5341 95.8011 60.9943 96.1875 60.2898C96.5852 59.5739 96.7841 58.7102 96.7841 57.6989ZM110.408 69V42.8182H118.334V47.625H118.624C119.169 46.0341 120.089 44.7784 121.385 43.858C122.68 42.9375 124.226 42.4773 126.021 42.4773C127.839 42.4773 129.396 42.9432 130.692 43.875C131.987 44.8068 132.811 46.0568 133.163 47.625H133.436C133.925 46.0682 134.879 44.8239 136.3 43.892C137.72 42.9489 139.396 42.4773 141.328 42.4773C143.805 42.4773 145.817 43.2727 147.362 44.8636C148.908 46.4432 149.68 48.6136 149.68 51.375V69H141.345V53.2841C141.345 51.9773 141.01 50.983 140.339 50.3011C139.669 49.608 138.8 49.2614 137.732 49.2614C136.584 49.2614 135.68 49.6364 135.021 50.3864C134.374 51.125 134.05 52.1193 134.05 53.3693V69H126.038V53.1989C126.038 51.983 125.709 51.0227 125.05 50.3182C124.391 49.6136 123.521 49.2614 122.442 49.2614C121.714 49.2614 121.072 49.4375 120.516 49.7898C119.959 50.1307 119.521 50.6193 119.203 51.2557C118.896 51.892 118.743 52.642 118.743 53.5057V69H110.408ZM167.084 69.4943C164.345 69.4943 161.982 68.9545 159.993 67.875C158.016 66.7841 156.493 65.233 155.425 63.2216C154.368 61.1989 153.839 58.7955 153.839 56.0114C153.839 53.3068 154.374 50.9432 155.442 48.9205C156.51 46.8864 158.016 45.3068 159.959 44.1818C161.902 43.0455 164.192 42.4773 166.828 42.4773C168.692 42.4773 170.396 42.767 171.942 43.3466C173.487 43.9261 174.822 44.7841 175.947 45.9205C177.072 47.0568 177.947 48.4602 178.572 50.1307C179.197 51.7898 179.51 53.6932 179.51 55.8409V57.9205H156.754V53.0795H171.754C171.743 52.1932 171.533 51.4034 171.124 50.7102C170.714 50.017 170.152 49.4773 169.436 49.0909C168.732 48.6932 167.919 48.4943 166.999 48.4943C166.067 48.4943 165.232 48.7045 164.493 49.125C163.754 49.5341 163.169 50.0966 162.737 50.8125C162.305 51.517 162.078 52.3182 162.055 53.2159V58.142C162.055 59.2102 162.266 60.1477 162.686 60.9545C163.107 61.75 163.703 62.3693 164.476 62.8125C165.249 63.2557 166.169 63.4773 167.237 63.4773C167.976 63.4773 168.646 63.375 169.249 63.1705C169.851 62.9659 170.368 62.6648 170.8 62.267C171.232 61.8693 171.555 61.3807 171.771 60.8011L179.425 61.0227C179.107 62.7386 178.408 64.233 177.328 65.5057C176.26 66.767 174.857 67.75 173.118 68.4545C171.379 69.1477 169.368 69.4943 167.084 69.4943Z"/>
</mask>
<path d="M10.5682 34.0909L18.375 59.6591H18.6648L26.4716 34.0909H35.9148L24.1364 69H12.9034L1.125 34.0909H10.5682ZM48.7543 69.4943C46.0043 69.4943 43.6406 68.9318 41.6634 67.8068C39.6974 66.6705 38.1804 65.0909 37.1122 63.0682C36.0554 61.0341 35.527 58.6761 35.527 55.9943C35.527 53.3011 36.0554 50.9432 37.1122 48.9205C38.1804 46.8864 39.6974 45.3068 41.6634 44.1818C43.6406 43.0455 46.0043 42.4773 48.7543 42.4773C51.5043 42.4773 53.8622 43.0455 55.8281 44.1818C57.8054 45.3068 59.3224 46.8864 60.3793 48.9205C61.4474 50.9432 61.9815 53.3011 61.9815 55.9943C61.9815 58.6761 61.4474 61.0341 60.3793 63.0682C59.3224 65.0909 57.8054 66.6705 55.8281 67.8068C53.8622 68.9318 51.5043 69.4943 48.7543 69.4943ZM48.8054 63.2045C49.8054 63.2045 50.652 62.8977 51.3452 62.2841C52.0384 61.6705 52.5668 60.8182 52.9304 59.7273C53.3054 58.6364 53.4929 57.375 53.4929 55.9432C53.4929 54.4886 53.3054 53.2159 52.9304 52.125C52.5668 51.0341 52.0384 50.1818 51.3452 49.5682C50.652 48.9545 49.8054 48.6477 48.8054 48.6477C47.7713 48.6477 46.8963 48.9545 46.1804 49.5682C45.4759 50.1818 44.9361 51.0341 44.5611 52.125C44.1974 53.2159 44.0156 54.4886 44.0156 55.9432C44.0156 57.375 44.1974 58.6364 44.5611 59.7273C44.9361 60.8182 45.4759 61.6705 46.1804 62.2841C46.8963 62.8977 47.7713 63.2045 48.8054 63.2045ZM74.5866 34.0909V69H66.2514V34.0909H74.5866ZM96.7841 57.6989V42.8182H105.102V69H97.1591V64.125H96.8864C96.3068 65.7273 95.3182 67 93.9205 67.9432C92.5341 68.875 90.858 69.3409 88.892 69.3409C87.108 69.3409 85.5398 68.9318 84.1875 68.1136C82.8352 67.2955 81.7841 66.1534 81.0341 64.6875C80.2841 63.2102 79.9034 61.483 79.892 59.5057V42.8182H88.2273V57.8693C88.2386 59.2898 88.6136 60.4091 89.3523 61.2273C90.0909 62.0455 91.0966 62.4545 92.3693 62.4545C93.1989 62.4545 93.9432 62.2727 94.6023 61.9091C95.2727 61.5341 95.8011 60.9943 96.1875 60.2898C96.5852 59.5739 96.7841 58.7102 96.7841 57.6989ZM110.408 69V42.8182H118.334V47.625H118.624C119.169 46.0341 120.089 44.7784 121.385 43.858C122.68 42.9375 124.226 42.4773 126.021 42.4773C127.839 42.4773 129.396 42.9432 130.692 43.875C131.987 44.8068 132.811 46.0568 133.163 47.625H133.436C133.925 46.0682 134.879 44.8239 136.3 43.892C137.72 42.9489 139.396 42.4773 141.328 42.4773C143.805 42.4773 145.817 43.2727 147.362 44.8636C148.908 46.4432 149.68 48.6136 149.68 51.375V69H141.345V53.2841C141.345 51.9773 141.01 50.983 140.339 50.3011C139.669 49.608 138.8 49.2614 137.732 49.2614C136.584 49.2614 135.68 49.6364 135.021 50.3864C134.374 51.125 134.05 52.1193 134.05 53.3693V69H126.038V53.1989C126.038 51.983 125.709 51.0227 125.05 50.3182C124.391 49.6136 123.521 49.2614 122.442 49.2614C121.714 49.2614 121.072 49.4375 120.516 49.7898C119.959 50.1307 119.521 50.6193 119.203 51.2557C118.896 51.892 118.743 52.642 118.743 53.5057V69H110.408ZM167.084 69.4943C164.345 69.4943 161.982 68.9545 159.993 67.875C158.016 66.7841 156.493 65.233 155.425 63.2216C154.368 61.1989 153.839 58.7955 153.839 56.0114C153.839 53.3068 154.374 50.9432 155.442 48.9205C156.51 46.8864 158.016 45.3068 159.959 44.1818C161.902 43.0455 164.192 42.4773 166.828 42.4773C168.692 42.4773 170.396 42.767 171.942 43.3466C173.487 43.9261 174.822 44.7841 175.947 45.9205C177.072 47.0568 177.947 48.4602 178.572 50.1307C179.197 51.7898 179.51 53.6932 179.51 55.8409V57.9205H156.754V53.0795H171.754C171.743 52.1932 171.533 51.4034 171.124 50.7102C170.714 50.017 170.152 49.4773 169.436 49.0909C168.732 48.6932 167.919 48.4943 166.999 48.4943C166.067 48.4943 165.232 48.7045 164.493 49.125C163.754 49.5341 163.169 50.0966 162.737 50.8125C162.305 51.517 162.078 52.3182 162.055 53.2159V58.142C162.055 59.2102 162.266 60.1477 162.686 60.9545C163.107 61.75 163.703 62.3693 164.476 62.8125C165.249 63.2557 166.169 63.4773 167.237 63.4773C167.976 63.4773 168.646 63.375 169.249 63.1705C169.851 62.9659 170.368 62.6648 170.8 62.267C171.232 61.8693 171.555 61.3807 171.771 60.8011L179.425 61.0227C179.107 62.7386 178.408 64.233 177.328 65.5057C176.26 66.767 174.857 67.75 173.118 68.4545C171.379 69.1477 169.368 69.4943 167.084 69.4943Z" fill="#002855"/>
<path d="M10.5682 34.0909L11.5246 33.7989L11.3084 33.0909H10.5682V34.0909ZM18.375 59.6591L17.4186 59.9511L17.6348 60.6591H18.375V59.6591ZM18.6648 59.6591V60.6591H19.405L19.6212 59.9511L18.6648 59.6591ZM26.4716 34.0909V33.0909H25.7313L25.5152 33.7989L26.4716 34.0909ZM35.9148 34.0909L36.8623 34.4106L37.3076 33.0909H35.9148V34.0909ZM24.1364 69V70H24.8543L25.0839 69.3197L24.1364 69ZM12.9034 69L11.9559 69.3197L12.1854 70H12.9034V69ZM1.125 34.0909V33.0909H-0.267789L0.17748 34.4106L1.125 34.0909ZM9.61177 34.3829L17.4186 59.9511L19.3314 59.3671L11.5246 33.7989L9.61177 34.3829ZM18.375 60.6591H18.6648V58.6591H18.375V60.6591ZM19.6212 59.9511L27.428 34.3829L25.5152 33.7989L17.7084 59.3671L19.6212 59.9511ZM26.4716 35.0909H35.9148V33.0909H26.4716V35.0909ZM34.9673 33.7712L23.1888 68.6803L25.0839 69.3197L36.8623 34.4106L34.9673 33.7712ZM24.1364 68H12.9034V70H24.1364V68ZM13.8509 68.6803L2.07252 33.7712L0.17748 34.4106L11.9559 69.3197L13.8509 68.6803ZM1.125 35.0909H10.5682V33.0909H1.125V35.0909ZM41.6634 67.8068L41.1629 68.6726L41.1688 68.676L41.6634 67.8068ZM37.1122 63.0682L36.2248 63.5292L36.2279 63.5352L37.1122 63.0682ZM37.1122 48.9205L36.2269 48.4555L36.2259 48.4574L37.1122 48.9205ZM41.6634 44.1818L42.16 45.0498L42.1616 45.0488L41.6634 44.1818ZM55.8281 44.1818L55.3277 45.0476L55.3336 45.051L55.8281 44.1818ZM60.3793 48.9205L59.4919 49.3815L59.495 49.3874L60.3793 48.9205ZM60.3793 63.0682L59.4939 62.6032L59.4929 62.6051L60.3793 63.0682ZM55.8281 67.8068L56.3248 68.6748L56.3264 68.6738L55.8281 67.8068ZM51.3452 62.2841L50.6823 61.5353L50.6823 61.5353L51.3452 62.2841ZM52.9304 59.7273L51.9847 59.4022L51.9817 59.411L52.9304 59.7273ZM52.9304 52.125L51.9817 52.4412L51.9847 52.4501L52.9304 52.125ZM51.3452 49.5682L52.008 48.8194L52.008 48.8194L51.3452 49.5682ZM46.1804 49.5682L45.5296 48.8089L45.5236 48.8141L46.1804 49.5682ZM44.5611 52.125L43.6154 51.7999L43.6124 51.8088L44.5611 52.125ZM44.5611 59.7273L43.6124 60.0435L43.6154 60.0524L44.5611 59.7273ZM46.1804 62.2841L45.5236 63.0382L45.5296 63.0433L46.1804 62.2841ZM48.7543 68.4943C46.1415 68.4943 43.9559 67.9607 42.1579 66.9377L41.1688 68.676C43.3254 69.903 45.867 70.4943 48.7543 70.4943V68.4943ZM42.1638 66.941C40.3621 65.8996 38.9775 64.4588 37.9965 62.6012L36.2279 63.5352C37.3833 65.723 39.0328 67.4413 41.1629 68.6726L42.1638 66.941ZM37.9996 62.6071C37.0284 60.7379 36.527 58.5429 36.527 55.9943H34.527C34.527 58.8093 35.0824 61.3303 36.2248 63.5292L37.9996 62.6071ZM36.527 55.9943C36.527 53.4334 37.0288 51.2397 37.9985 49.3835L36.2259 48.4574C35.082 50.6467 34.527 53.1689 34.527 55.9943H36.527ZM37.9976 49.3854C38.9785 47.5173 40.3619 46.0787 42.16 45.0498L41.1667 43.3139C39.033 44.5349 37.3822 46.2554 36.2269 48.4555L37.9976 49.3854ZM42.1616 45.0488C43.9589 44.0159 46.1432 43.4773 48.7543 43.4773V41.4773C45.8654 41.4773 43.3224 42.075 41.1651 43.3148L42.1616 45.0488ZM48.7543 43.4773C51.3656 43.4773 53.543 44.016 55.3277 45.0476L56.3286 43.316C54.1814 42.0749 51.6429 41.4773 48.7543 41.4773V43.4773ZM55.3336 45.051C57.142 46.0799 58.5232 47.5171 59.4919 49.3815L61.2666 48.4594C60.1217 46.2556 58.4688 44.5338 56.3226 43.3127L55.3336 45.051ZM59.495 49.3874C60.4748 51.2427 60.9815 53.435 60.9815 55.9943H62.9815C62.9815 53.1672 62.4201 50.6436 61.2635 48.4535L59.495 49.3874ZM60.9815 55.9943C60.9815 58.5413 60.4751 60.7348 59.4939 62.6033L61.2646 63.5331C62.4198 61.3334 62.9815 58.811 62.9815 55.9943H60.9815ZM59.4929 62.6051C58.5243 64.4591 57.1418 65.8984 55.3298 66.9398L56.3264 68.6738C58.469 67.4425 60.1206 65.7227 61.2656 63.5313L59.4929 62.6051ZM55.3314 66.9389C53.5461 67.9606 51.3672 68.4943 48.7543 68.4943V70.4943C51.6413 70.4943 54.1784 69.9031 56.3248 68.6748L55.3314 66.9389ZM48.8054 64.2045C50.0284 64.2045 51.1167 63.8219 52.008 63.0329L50.6823 61.5353C50.1873 61.9736 49.5824 62.2045 48.8054 62.2045V64.2045ZM52.008 63.0329C52.8612 62.2776 53.4732 61.2612 53.8791 60.0435L51.9817 59.411C51.6603 60.3751 51.2155 61.0633 50.6823 61.5353L52.008 63.0329ZM53.8761 60.0524C54.2945 58.8351 54.4929 57.46 54.4929 55.9432H52.4929C52.4929 57.29 52.3163 58.4376 51.9847 59.4022L53.8761 60.0524ZM54.4929 55.9432C54.4929 54.4056 54.295 53.0187 53.8761 51.7999L51.9847 52.4501C52.3158 53.4132 52.4929 54.5717 52.4929 55.9432H54.4929ZM53.8791 51.8088C53.4732 50.5911 52.8612 49.5747 52.008 48.8194L50.6823 50.3169C51.2155 50.789 51.6603 51.4771 51.9817 52.4412L53.8791 51.8088ZM52.008 48.8194C51.1167 48.0304 50.0284 47.6477 48.8054 47.6477V49.6477C49.5824 49.6477 50.1873 49.8787 50.6823 50.3169L52.008 48.8194ZM48.8054 47.6477C47.5574 47.6477 46.4447 48.0245 45.5296 48.8089L46.8312 50.3274C47.3479 49.8846 47.9852 49.6477 48.8054 49.6477V47.6477ZM45.5236 48.8141C44.6591 49.5671 44.0341 50.5818 43.6154 51.7999L45.5068 52.4501C45.838 51.4864 46.2926 50.7966 46.8372 50.3223L45.5236 48.8141ZM43.6124 51.8088C43.2071 53.0245 43.0156 54.4083 43.0156 55.9432H45.0156C45.0156 54.569 45.1877 53.4073 45.5098 52.4412L43.6124 51.8088ZM43.0156 55.9432C43.0156 57.4572 43.2076 58.8292 43.6124 60.0435L45.5098 59.411C45.1873 58.4436 45.0156 57.2928 45.0156 55.9432H43.0156ZM43.6154 60.0524C44.0341 61.2705 44.6591 62.2852 45.5236 63.0382L46.8372 61.53C46.2926 61.0557 45.838 60.3658 45.5068 59.4022L43.6154 60.0524ZM45.5296 63.0433C46.4447 63.8278 47.5574 64.2045 48.8054 64.2045V62.2045C47.9852 62.2045 47.3479 61.9677 46.8312 61.5248L45.5296 63.0433ZM74.5866 34.0909H75.5866V33.0909H74.5866V34.0909ZM74.5866 69V70H75.5866V69H74.5866ZM66.2514 69H65.2514V70H66.2514V69ZM66.2514 34.0909V33.0909H65.2514V34.0909H66.2514ZM73.5866 34.0909V69H75.5866V34.0909H73.5866ZM74.5866 68H66.2514V70H74.5866V68ZM67.2514 69V34.0909H65.2514V69H67.2514ZM66.2514 35.0909H74.5866V33.0909H66.2514V35.0909ZM96.7841 42.8182V41.8182H95.7841V42.8182H96.7841ZM105.102 42.8182H106.102V41.8182H105.102V42.8182ZM105.102 69V70H106.102V69H105.102ZM97.1591 69H96.1591V70H97.1591V69ZM97.1591 64.125H98.1591V63.125H97.1591V64.125ZM96.8864 64.125V63.125H96.1847L95.946 63.7849L96.8864 64.125ZM93.9205 67.9432L94.4783 68.7731L94.4798 68.7721L93.9205 67.9432ZM84.1875 68.1136L83.6698 68.9692L83.6698 68.9692L84.1875 68.1136ZM81.0341 64.6875L80.1424 65.1402L80.1438 65.143L81.0341 64.6875ZM79.892 59.5057L78.892 59.5057L78.8921 59.5114L79.892 59.5057ZM79.892 42.8182V41.8182H78.892V42.8182H79.892ZM88.2273 42.8182H89.2273V41.8182H88.2273V42.8182ZM88.2273 57.8693L87.2272 57.8693L87.2273 57.8773L88.2273 57.8693ZM89.3523 61.2273L90.0945 60.5572L90.0945 60.5572L89.3523 61.2273ZM94.6023 61.9091L95.0854 62.7847L95.0904 62.7818L94.6023 61.9091ZM96.1875 60.2898L95.3133 59.8041L95.3107 59.8089L96.1875 60.2898ZM97.7841 57.6989V42.8182H95.7841V57.6989H97.7841ZM96.7841 43.8182H105.102V41.8182H96.7841V43.8182ZM104.102 42.8182V69H106.102V42.8182H104.102ZM105.102 68H97.1591V70H105.102V68ZM98.1591 69V64.125H96.1591V69H98.1591ZM97.1591 63.125H96.8864V65.125H97.1591V63.125ZM95.946 63.7849C95.4377 65.1902 94.5813 66.2909 93.3611 67.1143L94.4798 68.7721C96.0551 67.7091 97.176 66.2643 97.8267 64.4651L95.946 63.7849ZM93.3626 67.1132C92.1687 67.9157 90.6952 68.3409 88.892 68.3409V70.3409C91.0207 70.3409 92.8995 69.8343 94.4783 68.7731L93.3626 67.1132ZM88.892 68.3409C87.2664 68.3409 85.8819 67.97 84.7052 67.2581L83.6698 68.9692C85.1976 69.8936 86.9495 70.3409 88.892 70.3409V68.3409ZM84.7052 67.2581C83.5187 66.5402 82.5934 65.5398 81.9243 64.232L80.1438 65.143C80.9747 66.767 82.1518 68.0507 83.6698 68.9692L84.7052 67.2581ZM81.9258 64.2348C81.2584 62.9204 80.9027 61.3516 80.892 59.4999L78.8921 59.5114C78.9041 61.6143 79.3097 63.5 80.1424 65.1402L81.9258 64.2348ZM80.892 59.5057V42.8182H78.892V59.5057H80.892ZM79.892 43.8182H88.2273V41.8182H79.892V43.8182ZM87.2273 42.8182V57.8693H89.2273V42.8182H87.2273ZM87.2273 57.8773C87.24 59.47 87.6644 60.85 88.61 61.8974L90.0945 60.5572C89.5628 59.9682 89.2372 59.1096 89.2272 57.8613L87.2273 57.8773ZM88.61 61.8974C89.5683 62.9589 90.8618 63.4545 92.3693 63.4545V61.4545C91.3314 61.4545 90.6135 61.132 90.0945 60.5572L88.61 61.8974ZM92.3693 63.4545C93.3502 63.4545 94.2636 63.238 95.0854 62.7847L94.1192 61.0335C93.6227 61.3074 93.0475 61.4545 92.3693 61.4545V63.4545ZM95.0904 62.7818C95.9324 62.3109 96.5921 61.6317 97.0643 60.7706L95.3107 59.8089C95.0102 60.3569 94.6131 60.7572 94.1141 61.0363L95.0904 62.7818ZM97.0617 60.7754C97.5592 59.8799 97.7841 58.8407 97.7841 57.6989H95.7841C95.7841 58.5798 95.6113 59.2678 95.3133 59.8041L97.0617 60.7754ZM110.408 69H109.408V70H110.408V69ZM110.408 42.8182V41.8182H109.408V42.8182H110.408ZM118.334 42.8182H119.334V41.8182H118.334V42.8182ZM118.334 47.625H117.334V48.625H118.334V47.625ZM118.624 47.625V48.625H119.338L119.57 47.9493L118.624 47.625ZM121.385 43.858L121.964 44.6731L121.964 44.6731L121.385 43.858ZM130.692 43.875L130.108 44.6868L130.108 44.6868L130.692 43.875ZM133.163 47.625L132.188 47.8442L132.363 48.625H133.163V47.625ZM133.436 47.625V48.625H134.17L134.39 47.9245L133.436 47.625ZM136.3 43.892L136.848 44.7282L136.853 44.7251L136.3 43.892ZM147.362 44.8636L146.645 45.5604L146.647 45.563L147.362 44.8636ZM149.68 69V70H150.68V69H149.68ZM141.345 69H140.345V70H141.345V69ZM140.339 50.3011L139.621 50.9964L139.626 51.0023L140.339 50.3011ZM135.021 50.3864L134.27 49.7262L134.269 49.727L135.021 50.3864ZM134.05 69V70H135.05V69H134.05ZM126.038 69H125.038V70H126.038V69ZM125.05 50.3182L125.78 49.635L125.78 49.635L125.05 50.3182ZM120.516 49.7898L121.038 50.6426L121.044 50.6388L121.05 50.6349L120.516 49.7898ZM119.203 51.2557L118.309 50.8085L118.305 50.8149L118.302 50.8214L119.203 51.2557ZM118.743 69V70H119.743V69H118.743ZM111.408 69V42.8182H109.408V69H111.408ZM110.408 43.8182H118.334V41.8182H110.408V43.8182ZM117.334 42.8182V47.625H119.334V42.8182H117.334ZM118.334 48.625H118.624V46.625H118.334V48.625ZM119.57 47.9493C120.051 46.5441 120.85 45.4651 121.964 44.6731L120.806 43.0428C119.329 44.0917 118.287 45.5241 117.678 47.3007L119.57 47.9493ZM121.964 44.6731C123.069 43.8882 124.405 43.4773 126.021 43.4773V41.4773C124.046 41.4773 122.292 41.9868 120.806 43.0428L121.964 44.6731ZM126.021 43.4773C127.66 43.4773 129.006 43.894 130.108 44.6868L131.276 43.0632C129.787 41.9924 128.019 41.4773 126.021 41.4773V43.4773ZM130.108 44.6868C131.203 45.4746 131.889 46.5129 132.188 47.8442L134.139 47.4058C133.734 45.6007 132.771 44.1391 131.276 43.0632L130.108 44.6868ZM133.163 48.625H133.436V46.625H133.163V48.625ZM134.39 47.9245C134.807 46.5976 135.612 45.539 136.848 44.7282L135.751 43.0559C134.146 44.1088 133.043 45.5387 132.482 47.3255L134.39 47.9245ZM136.853 44.7251C138.088 43.9048 139.566 43.4773 141.328 43.4773V41.4773C139.227 41.4773 137.352 41.9929 135.747 43.059L136.853 44.7251ZM141.328 43.4773C143.57 43.4773 145.311 44.1869 146.645 45.5604L148.079 44.1668C146.323 42.3585 144.041 41.4773 141.328 41.4773V43.4773ZM146.647 45.563C147.967 46.9117 148.68 48.8064 148.68 51.375H150.68C150.68 48.4209 149.848 45.9746 148.077 44.1643L146.647 45.563ZM148.68 51.375V69H150.68V51.375H148.68ZM149.68 68H141.345V70H149.68V68ZM142.345 69V53.2841H140.345V69H142.345ZM142.345 53.2841C142.345 51.8132 141.966 50.5288 141.053 49.6L139.626 51.0023C140.054 51.4371 140.345 52.1414 140.345 53.2841H142.345ZM141.058 49.6059C140.178 48.696 139.039 48.2614 137.732 48.2614V50.2614C138.561 50.2614 139.16 50.5199 139.621 50.9964L141.058 49.6059ZM137.732 48.2614C136.344 48.2614 135.148 48.7268 134.27 49.7262L135.772 51.0465C136.212 50.5459 136.824 50.2614 137.732 50.2614V48.2614ZM134.269 49.727C133.422 50.6935 133.05 51.9448 133.05 53.3693H135.05C135.05 52.2939 135.325 51.5565 135.773 51.0457L134.269 49.727ZM133.05 53.3693V69H135.05V53.3693H133.05ZM134.05 68H126.038V70H134.05V68ZM127.038 69V53.1989H125.038V69H127.038ZM127.038 53.1989C127.038 51.7981 126.654 50.5696 125.78 49.635L124.319 51.0013C124.763 51.4758 125.038 52.1678 125.038 53.1989H127.038ZM125.78 49.635C124.908 48.7032 123.762 48.2614 122.442 48.2614V50.2614C123.281 50.2614 123.873 50.524 124.319 51.0013L125.78 49.635ZM122.442 48.2614C121.546 48.2614 120.714 48.4809 119.981 48.9447L121.05 50.6349C121.431 50.3941 121.883 50.2614 122.442 50.2614V48.2614ZM119.993 48.9369C119.263 49.3843 118.703 50.0203 118.309 50.8085L120.098 51.7029C120.34 51.2183 120.655 50.8771 121.038 50.6426L119.993 48.9369ZM118.302 50.8214C117.917 51.62 117.743 52.5245 117.743 53.5057H119.743C119.743 52.7596 119.875 52.1641 120.104 51.69L118.302 50.8214ZM117.743 53.5057V69H119.743V53.5057H117.743ZM118.743 68H110.408V70H118.743V68ZM159.993 67.875L159.51 68.7506L159.516 68.7539L159.993 67.875ZM155.425 63.2216L154.538 63.6847L154.542 63.6906L155.425 63.2216ZM155.442 48.9205L156.326 49.3874L156.327 49.3854L155.442 48.9205ZM159.959 44.1818L160.46 45.0473L160.464 45.045L159.959 44.1818ZM171.942 43.3466L172.293 42.4103L172.293 42.4103L171.942 43.3466ZM178.572 50.1307L177.636 50.4811L177.637 50.4832L178.572 50.1307ZM179.51 57.9205V58.9205H180.51V57.9205H179.51ZM156.754 57.9205H155.754V58.9205H156.754V57.9205ZM156.754 53.0795V52.0795H155.754V53.0795H156.754ZM171.754 53.0795V54.0795H172.767L172.754 53.0667L171.754 53.0795ZM169.436 49.0909L168.944 49.9617L168.953 49.9664L168.961 49.9709L169.436 49.0909ZM164.493 49.125L164.977 49.9999L164.988 49.9941L164.493 49.125ZM162.737 50.8125L163.59 51.3351L163.594 51.329L162.737 50.8125ZM162.055 53.2159L161.056 53.1906L161.055 53.2033V53.2159H162.055ZM162.686 60.9545L161.799 61.4167L161.802 61.4219L162.686 60.9545ZM164.476 62.8125L163.978 63.68L163.978 63.68L164.476 62.8125ZM169.249 63.1705L169.57 64.1173L169.57 64.1173L169.249 63.1705ZM170.8 62.267L171.477 63.0026L171.477 63.0026L170.8 62.267ZM171.771 60.8011L171.8 59.8016L171.084 59.7808L170.834 60.452L171.771 60.8011ZM179.425 61.0227L180.408 61.205L180.621 60.0569L179.454 60.0231L179.425 61.0227ZM177.328 65.5057L176.566 64.8588L176.565 64.8594L177.328 65.5057ZM173.118 68.4545L173.488 69.3835L173.493 69.3813L173.118 68.4545ZM167.084 68.4943C164.477 68.4943 162.284 67.9811 160.47 66.9961L159.516 68.7539C161.679 69.928 164.213 70.4943 167.084 70.4943V68.4943ZM160.476 66.9994C158.67 66.0032 157.286 64.594 156.308 62.7526L154.542 63.6906C155.7 65.8719 157.361 67.565 159.51 68.7506L160.476 66.9994ZM156.311 62.7585C155.344 60.9068 154.839 58.6692 154.839 56.0114H152.839C152.839 58.9217 153.392 61.4909 154.538 63.6847L156.311 62.7585ZM154.839 56.0114C154.839 53.4399 155.347 51.2421 156.326 49.3874L154.557 48.4535C153.401 50.6442 152.839 53.1737 152.839 56.0114H154.839ZM156.327 49.3854C157.31 47.5143 158.684 46.0754 160.46 45.0472L159.458 43.3164C157.347 44.5382 155.71 46.2584 154.556 48.4555L156.327 49.3854ZM160.464 45.045C162.229 44.0126 164.339 43.4773 166.828 43.4773V41.4773C164.045 41.4773 161.575 42.0784 159.454 43.3186L160.464 45.045ZM166.828 43.4773C168.587 43.4773 170.171 43.7506 171.591 44.2829L172.293 42.4103C170.622 41.7835 168.796 41.4773 166.828 41.4773V43.4773ZM171.591 44.2829C173.005 44.8134 174.217 45.5936 175.237 46.624L176.658 45.2169C175.428 43.9746 173.969 43.0388 172.293 42.4103L171.591 44.2829ZM175.237 46.624C176.251 47.6489 177.055 48.9277 177.636 50.4811L179.509 49.7803C178.84 47.9928 177.893 46.4647 176.658 45.2169L175.237 46.624ZM177.637 50.4832C178.211 52.0086 178.51 53.7889 178.51 55.8409H180.51C180.51 53.5975 180.184 51.571 179.508 49.7782L177.637 50.4832ZM178.51 55.8409V57.9205H180.51V55.8409H178.51ZM179.51 56.9205H156.754V58.9205H179.51V56.9205ZM157.754 57.9205V53.0795H155.754V57.9205H157.754ZM156.754 54.0795H171.754V52.0795H156.754V54.0795ZM172.754 53.0667C172.741 52.0241 172.491 51.0603 171.985 50.202L170.262 51.2185C170.574 51.7466 170.745 52.3623 170.754 53.0924L172.754 53.0667ZM171.985 50.202C171.482 49.3503 170.785 48.6827 169.911 48.2109L168.961 49.9709C169.519 50.2718 169.947 50.6838 170.262 51.2185L171.985 50.202ZM169.928 48.2201C169.053 47.7266 168.067 47.4943 166.999 47.4943V49.4943C167.771 49.4943 168.41 49.6598 168.944 49.9617L169.928 48.2201ZM166.999 47.4943C165.91 47.4943 164.902 47.7416 163.998 48.2559L164.988 49.9941C165.561 49.6675 166.223 49.4943 166.999 49.4943V47.4943ZM164.008 48.2502C163.118 48.7432 162.404 49.4286 161.881 50.296L163.594 51.329C163.934 50.7646 164.39 50.3249 164.977 49.9998L164.008 48.2502ZM161.885 50.2899C161.353 51.1573 161.082 52.1328 161.056 53.1906L163.055 53.2412C163.074 52.5036 163.258 51.8768 163.59 51.3351L161.885 50.2899ZM161.055 53.2159V58.142H163.055V53.2159H161.055ZM161.055 58.142C161.055 59.3431 161.293 60.4443 161.799 61.4167L163.573 60.4924C163.239 59.8512 163.055 59.0773 163.055 58.142H161.055ZM161.802 61.4219C162.31 62.3828 163.04 63.1417 163.978 63.68L164.973 61.945C164.366 61.597 163.903 61.1172 163.57 60.4872L161.802 61.4219ZM163.978 63.68C164.93 64.2258 166.029 64.4773 167.237 64.4773V62.4773C166.309 62.4773 165.567 62.2856 164.973 61.945L163.978 63.68ZM167.237 64.4773C168.068 64.4773 168.849 64.3622 169.57 64.1173L168.927 62.2236C168.443 62.3878 167.884 62.4773 167.237 62.4773V64.4773ZM169.57 64.1173C170.293 63.8717 170.934 63.5025 171.477 63.0026L170.122 61.5315C169.801 61.8271 169.408 62.0601 168.927 62.2236L169.57 64.1173ZM171.477 63.0026C172.031 62.4926 172.441 61.8691 172.708 61.1502L170.834 60.452C170.67 60.8922 170.432 61.2461 170.122 61.5315L171.477 63.0026ZM171.742 61.8007L179.396 62.0223L179.454 60.0231L171.8 59.8016L171.742 61.8007ZM178.441 60.8404C178.154 62.393 177.527 63.7252 176.566 64.8588L178.091 66.1525C179.288 64.7407 180.059 63.0842 180.408 61.205L178.441 60.8404ZM176.565 64.8594C175.615 65.9815 174.351 66.8757 172.742 67.5277L173.493 69.3813C175.362 68.6243 176.905 67.5526 178.091 66.1519L176.565 64.8594ZM172.748 67.5257C171.15 68.1628 169.268 68.4943 167.084 68.4943V70.4943C169.468 70.4943 171.609 70.1327 173.488 69.3834L172.748 67.5257Z" fill="black" mask="url(#path-1-outside-1_120_15)"/>
<path d="M10.5682 34.0909L11.5246 33.7989L11.3084 33.0909H10.5682V34.0909ZM18.375 59.6591L17.4186 59.9511L17.6348 60.6591H18.375V59.6591ZM18.6648 59.6591V60.6591H19.405L19.6212 59.9511L18.6648 59.6591ZM26.4716 34.0909V33.0909H25.7313L25.5152 33.7989L26.4716 34.0909ZM35.9148 34.0909L36.8623 34.4106L37.3076 33.0909H35.9148V34.0909ZM24.1364 69V70H24.8543L25.0839 69.3197L24.1364 69ZM12.9034 69L11.9559 69.3197L12.1854 70H12.9034V69ZM1.125 34.0909V33.0909H-0.267789L0.17748 34.4106L1.125 34.0909ZM9.61177 34.3829L17.4186 59.9511L19.3314 59.3671L11.5246 33.7989L9.61177 34.3829ZM18.375 60.6591H18.6648V58.6591H18.375V60.6591ZM19.6212 59.9511L27.428 34.3829L25.5152 33.7989L17.7084 59.3671L19.6212 59.9511ZM26.4716 35.0909H35.9148V33.0909H26.4716V35.0909ZM34.9673 33.7712L23.1888 68.6803L25.0839 69.3197L36.8623 34.4106L34.9673 33.7712ZM24.1364 68H12.9034V70H24.1364V68ZM13.8509 68.6803L2.07252 33.7712L0.17748 34.4106L11.9559 69.3197L13.8509 68.6803ZM1.125 35.0909H10.5682V33.0909H1.125V35.0909ZM41.6634 67.8068L41.1629 68.6726L41.1688 68.676L41.6634 67.8068ZM37.1122 63.0682L36.2248 63.5292L36.2279 63.5352L37.1122 63.0682ZM37.1122 48.9205L36.2269 48.4555L36.2259 48.4574L37.1122 48.9205ZM41.6634 44.1818L42.16 45.0498L42.1616 45.0488L41.6634 44.1818ZM55.8281 44.1818L55.3277 45.0476L55.3336 45.051L55.8281 44.1818ZM60.3793 48.9205L59.4919 49.3815L59.495 49.3874L60.3793 48.9205ZM60.3793 63.0682L59.4939 62.6032L59.4929 62.6051L60.3793 63.0682ZM55.8281 67.8068L56.3248 68.6748L56.3264 68.6738L55.8281 67.8068ZM51.3452 62.2841L50.6823 61.5353L50.6823 61.5353L51.3452 62.2841ZM52.9304 59.7273L51.9847 59.4022L51.9817 59.411L52.9304 59.7273ZM52.9304 52.125L51.9817 52.4412L51.9847 52.4501L52.9304 52.125ZM51.3452 49.5682L52.008 48.8194L52.008 48.8194L51.3452 49.5682ZM46.1804 49.5682L45.5296 48.8089L45.5236 48.8141L46.1804 49.5682ZM44.5611 52.125L43.6154 51.7999L43.6124 51.8088L44.5611 52.125ZM44.5611 59.7273L43.6124 60.0435L43.6154 60.0524L44.5611 59.7273ZM46.1804 62.2841L45.5236 63.0382L45.5296 63.0433L46.1804 62.2841ZM48.7543 68.4943C46.1415 68.4943 43.9559 67.9607 42.1579 66.9377L41.1688 68.676C43.3254 69.903 45.867 70.4943 48.7543 70.4943V68.4943ZM42.1638 66.941C40.3621 65.8996 38.9775 64.4588 37.9965 62.6012L36.2279 63.5352C37.3833 65.723 39.0328 67.4413 41.1629 68.6726L42.1638 66.941ZM37.9996 62.6071C37.0284 60.7379 36.527 58.5429 36.527 55.9943H34.527C34.527 58.8093 35.0824 61.3303 36.2248 63.5292L37.9996 62.6071ZM36.527 55.9943C36.527 53.4334 37.0288 51.2397 37.9985 49.3835L36.2259 48.4574C35.082 50.6467 34.527 53.1689 34.527 55.9943H36.527ZM37.9976 49.3854C38.9785 47.5173 40.3619 46.0787 42.16 45.0498L41.1667 43.3139C39.033 44.5349 37.3822 46.2554 36.2269 48.4555L37.9976 49.3854ZM42.1616 45.0488C43.9589 44.0159 46.1432 43.4773 48.7543 43.4773V41.4773C45.8654 41.4773 43.3224 42.075 41.1651 43.3148L42.1616 45.0488ZM48.7543 43.4773C51.3656 43.4773 53.543 44.016 55.3277 45.0476L56.3286 43.316C54.1814 42.0749 51.6429 41.4773 48.7543 41.4773V43.4773ZM55.3336 45.051C57.142 46.0799 58.5232 47.5171 59.4919 49.3815L61.2666 48.4594C60.1217 46.2556 58.4688 44.5338 56.3226 43.3127L55.3336 45.051ZM59.495 49.3874C60.4748 51.2427 60.9815 53.435 60.9815 55.9943H62.9815C62.9815 53.1672 62.4201 50.6436 61.2635 48.4535L59.495 49.3874ZM60.9815 55.9943C60.9815 58.5413 60.4751 60.7348 59.4939 62.6033L61.2646 63.5331C62.4198 61.3334 62.9815 58.811 62.9815 55.9943H60.9815ZM59.4929 62.6051C58.5243 64.4591 57.1418 65.8984 55.3298 66.9398L56.3264 68.6738C58.469 67.4425 60.1206 65.7227 61.2656 63.5313L59.4929 62.6051ZM55.3314 66.9389C53.5461 67.9606 51.3672 68.4943 48.7543 68.4943V70.4943C51.6413 70.4943 54.1784 69.9031 56.3248 68.6748L55.3314 66.9389ZM48.8054 64.2045C50.0284 64.2045 51.1167 63.8219 52.008 63.0329L50.6823 61.5353C50.1873 61.9736 49.5824 62.2045 48.8054 62.2045V64.2045ZM52.008 63.0329C52.8612 62.2776 53.4732 61.2612 53.8791 60.0435L51.9817 59.411C51.6603 60.3751 51.2155 61.0633 50.6823 61.5353L52.008 63.0329ZM53.8761 60.0524C54.2945 58.8351 54.4929 57.46 54.4929 55.9432H52.4929C52.4929 57.29 52.3163 58.4376 51.9847 59.4022L53.8761 60.0524ZM54.4929 55.9432C54.4929 54.4056 54.295 53.0187 53.8761 51.7999L51.9847 52.4501C52.3158 53.4132 52.4929 54.5717 52.4929 55.9432H54.4929ZM53.8791 51.8088C53.4732 50.5911 52.8612 49.5747 52.008 48.8194L50.6823 50.3169C51.2155 50.789 51.6603 51.4771 51.9817 52.4412L53.8791 51.8088ZM52.008 48.8194C51.1167 48.0304 50.0284 47.6477 48.8054 47.6477V49.6477C49.5824 49.6477 50.1873 49.8787 50.6823 50.3169L52.008 48.8194ZM48.8054 47.6477C47.5574 47.6477 46.4447 48.0245 45.5296 48.8089L46.8312 50.3274C47.3479 49.8846 47.9852 49.6477 48.8054 49.6477V47.6477ZM45.5236 48.8141C44.6591 49.5671 44.0341 50.5818 43.6154 51.7999L45.5068 52.4501C45.838 51.4864 46.2926 50.7966 46.8372 50.3223L45.5236 48.8141ZM43.6124 51.8088C43.2071 53.0245 43.0156 54.4083 43.0156 55.9432H45.0156C45.0156 54.569 45.1877 53.4073 45.5098 52.4412L43.6124 51.8088ZM43.0156 55.9432C43.0156 57.4572 43.2076 58.8292 43.6124 60.0435L45.5098 59.411C45.1873 58.4436 45.0156 57.2928 45.0156 55.9432H43.0156ZM43.6154 60.0524C44.0341 61.2705 44.6591 62.2852 45.5236 63.0382L46.8372 61.53C46.2926 61.0557 45.838 60.3658 45.5068 59.4022L43.6154 60.0524ZM45.5296 63.0433C46.4447 63.8278 47.5574 64.2045 48.8054 64.2045V62.2045C47.9852 62.2045 47.3479 61.9677 46.8312 61.5248L45.5296 63.0433ZM74.5866 34.0909H75.5866V33.0909H74.5866V34.0909ZM74.5866 69V70H75.5866V69H74.5866ZM66.2514 69H65.2514V70H66.2514V69ZM66.2514 34.0909V33.0909H65.2514V34.0909H66.2514ZM73.5866 34.0909V69H75.5866V34.0909H73.5866ZM74.5866 68H66.2514V70H74.5866V68ZM67.2514 69V34.0909H65.2514V69H67.2514ZM66.2514 35.0909H74.5866V33.0909H66.2514V35.0909ZM96.7841 42.8182V41.8182H95.7841V42.8182H96.7841ZM105.102 42.8182H106.102V41.8182H105.102V42.8182ZM105.102 69V70H106.102V69H105.102ZM97.1591 69H96.1591V70H97.1591V69ZM97.1591 64.125H98.1591V63.125H97.1591V64.125ZM96.8864 64.125V63.125H96.1847L95.946 63.7849L96.8864 64.125ZM93.9205 67.9432L94.4783 68.7731L94.4798 68.7721L93.9205 67.9432ZM84.1875 68.1136L83.6698 68.9692L83.6698 68.9692L84.1875 68.1136ZM81.0341 64.6875L80.1424 65.1402L80.1438 65.143L81.0341 64.6875ZM79.892 59.5057L78.892 59.5057L78.8921 59.5114L79.892 59.5057ZM79.892 42.8182V41.8182H78.892V42.8182H79.892ZM88.2273 42.8182H89.2273V41.8182H88.2273V42.8182ZM88.2273 57.8693L87.2272 57.8693L87.2273 57.8773L88.2273 57.8693ZM89.3523 61.2273L90.0945 60.5572L90.0945 60.5572L89.3523 61.2273ZM94.6023 61.9091L95.0854 62.7847L95.0904 62.7818L94.6023 61.9091ZM96.1875 60.2898L95.3133 59.8041L95.3107 59.8089L96.1875 60.2898ZM97.7841 57.6989V42.8182H95.7841V57.6989H97.7841ZM96.7841 43.8182H105.102V41.8182H96.7841V43.8182ZM104.102 42.8182V69H106.102V42.8182H104.102ZM105.102 68H97.1591V70H105.102V68ZM98.1591 69V64.125H96.1591V69H98.1591ZM97.1591 63.125H96.8864V65.125H97.1591V63.125ZM95.946 63.7849C95.4377 65.1902 94.5813 66.2909 93.3611 67.1143L94.4798 68.7721C96.0551 67.7091 97.176 66.2643 97.8267 64.4651L95.946 63.7849ZM93.3626 67.1132C92.1687 67.9157 90.6952 68.3409 88.892 68.3409V70.3409C91.0207 70.3409 92.8995 69.8343 94.4783 68.7731L93.3626 67.1132ZM88.892 68.3409C87.2664 68.3409 85.8819 67.97 84.7052 67.2581L83.6698 68.9692C85.1976 69.8936 86.9495 70.3409 88.892 70.3409V68.3409ZM84.7052 67.2581C83.5187 66.5402 82.5934 65.5398 81.9243 64.232L80.1438 65.143C80.9747 66.767 82.1518 68.0507 83.6698 68.9692L84.7052 67.2581ZM81.9258 64.2348C81.2584 62.9204 80.9027 61.3516 80.892 59.4999L78.8921 59.5114C78.9041 61.6143 79.3097 63.5 80.1424 65.1402L81.9258 64.2348ZM80.892 59.5057V42.8182H78.892V59.5057H80.892ZM79.892 43.8182H88.2273V41.8182H79.892V43.8182ZM87.2273 42.8182V57.8693H89.2273V42.8182H87.2273ZM87.2273 57.8773C87.24 59.47 87.6644 60.85 88.61 61.8974L90.0945 60.5572C89.5628 59.9682 89.2372 59.1096 89.2272 57.8613L87.2273 57.8773ZM88.61 61.8974C89.5683 62.9589 90.8618 63.4545 92.3693 63.4545V61.4545C91.3314 61.4545 90.6135 61.132 90.0945 60.5572L88.61 61.8974ZM92.3693 63.4545C93.3502 63.4545 94.2636 63.238 95.0854 62.7847L94.1192 61.0335C93.6227 61.3074 93.0475 61.4545 92.3693 61.4545V63.4545ZM95.0904 62.7818C95.9324 62.3109 96.5921 61.6317 97.0643 60.7706L95.3107 59.8089C95.0102 60.3569 94.6131 60.7572 94.1141 61.0363L95.0904 62.7818ZM97.0617 60.7754C97.5592 59.8799 97.7841 58.8407 97.7841 57.6989H95.7841C95.7841 58.5798 95.6113 59.2678 95.3133 59.8041L97.0617 60.7754ZM110.408 69H109.408V70H110.408V69ZM110.408 42.8182V41.8182H109.408V42.8182H110.408ZM118.334 42.8182H119.334V41.8182H118.334V42.8182ZM118.334 47.625H117.334V48.625H118.334V47.625ZM118.624 47.625V48.625H119.338L119.57 47.9493L118.624 47.625ZM121.385 43.858L121.964 44.6731L121.964 44.6731L121.385 43.858ZM130.692 43.875L130.108 44.6868L130.108 44.6868L130.692 43.875ZM133.163 47.625L132.188 47.8442L132.363 48.625H133.163V47.625ZM133.436 47.625V48.625H134.17L134.39 47.9245L133.436 47.625ZM136.3 43.892L136.848 44.7282L136.853 44.7251L136.3 43.892ZM147.362 44.8636L146.645 45.5604L146.647 45.563L147.362 44.8636ZM149.68 69V70H150.68V69H149.68ZM141.345 69H140.345V70H141.345V69ZM140.339 50.3011L139.621 50.9964L139.626 51.0023L140.339 50.3011ZM135.021 50.3864L134.27 49.7262L134.269 49.727L135.021 50.3864ZM134.05 69V70H135.05V69H134.05ZM126.038 69H125.038V70H126.038V69ZM125.05 50.3182L125.78 49.635L125.78 49.635L125.05 50.3182ZM120.516 49.7898L121.038 50.6426L121.044 50.6388L121.05 50.6349L120.516 49.7898ZM119.203 51.2557L118.309 50.8085L118.305 50.8149L118.302 50.8214L119.203 51.2557ZM118.743 69V70H119.743V69H118.743ZM111.408 69V42.8182H109.408V69H111.408ZM110.408 43.8182H118.334V41.8182H110.408V43.8182ZM117.334 42.8182V47.625H119.334V42.8182H117.334ZM118.334 48.625H118.624V46.625H118.334V48.625ZM119.57 47.9493C120.051 46.5441 120.85 45.4651 121.964 44.6731L120.806 43.0428C119.329 44.0917 118.287 45.5241 117.678 47.3007L119.57 47.9493ZM121.964 44.6731C123.069 43.8882 124.405 43.4773 126.021 43.4773V41.4773C124.046 41.4773 122.292 41.9868 120.806 43.0428L121.964 44.6731ZM126.021 43.4773C127.66 43.4773 129.006 43.894 130.108 44.6868L131.276 43.0632C129.787 41.9924 128.019 41.4773 126.021 41.4773V43.4773ZM130.108 44.6868C131.203 45.4746 131.889 46.5129 132.188 47.8442L134.139 47.4058C133.734 45.6007 132.771 44.1391 131.276 43.0632L130.108 44.6868ZM133.163 48.625H133.436V46.625H133.163V48.625ZM134.39 47.9245C134.807 46.5976 135.612 45.539 136.848 44.7282L135.751 43.0559C134.146 44.1088 133.043 45.5387 132.482 47.3255L134.39 47.9245ZM136.853 44.7251C138.088 43.9048 139.566 43.4773 141.328 43.4773V41.4773C139.227 41.4773 137.352 41.9929 135.747 43.059L136.853 44.7251ZM141.328 43.4773C143.57 43.4773 145.311 44.1869 146.645 45.5604L148.079 44.1668C146.323 42.3585 144.041 41.4773 141.328 41.4773V43.4773ZM146.647 45.563C147.967 46.9117 148.68 48.8064 148.68 51.375H150.68C150.68 48.4209 149.848 45.9746 148.077 44.1643L146.647 45.563ZM148.68 51.375V69H150.68V51.375H148.68ZM149.68 68H141.345V70H149.68V68ZM142.345 69V53.2841H140.345V69H142.345ZM142.345 53.2841C142.345 51.8132 141.966 50.5288 141.053 49.6L139.626 51.0023C140.054 51.4371 140.345 52.1414 140.345 53.2841H142.345ZM141.058 49.6059C140.178 48.696 139.039 48.2614 137.732 48.2614V50.2614C138.561 50.2614 139.16 50.5199 139.621 50.9964L141.058 49.6059ZM137.732 48.2614C136.344 48.2614 135.148 48.7268 134.27 49.7262L135.772 51.0465C136.212 50.5459 136.824 50.2614 137.732 50.2614V48.2614ZM134.269 49.727C133.422 50.6935 133.05 51.9448 133.05 53.3693H135.05C135.05 52.2939 135.325 51.5565 135.773 51.0457L134.269 49.727ZM133.05 53.3693V69H135.05V53.3693H133.05ZM134.05 68H126.038V70H134.05V68ZM127.038 69V53.1989H125.038V69H127.038ZM127.038 53.1989C127.038 51.7981 126.654 50.5696 125.78 49.635L124.319 51.0013C124.763 51.4758 125.038 52.1678 125.038 53.1989H127.038ZM125.78 49.635C124.908 48.7032 123.762 48.2614 122.442 48.2614V50.2614C123.281 50.2614 123.873 50.524 124.319 51.0013L125.78 49.635ZM122.442 48.2614C121.546 48.2614 120.714 48.4809 119.981 48.9447L121.05 50.6349C121.431 50.3941 121.883 50.2614 122.442 50.2614V48.2614ZM119.993 48.9369C119.263 49.3843 118.703 50.0203 118.309 50.8085L120.098 51.7029C120.34 51.2183 120.655 50.8771 121.038 50.6426L119.993 48.9369ZM118.302 50.8214C117.917 51.62 117.743 52.5245 117.743 53.5057H119.743C119.743 52.7596 119.875 52.1641 120.104 51.69L118.302 50.8214ZM117.743 53.5057V69H119.743V53.5057H117.743ZM118.743 68H110.408V70H118.743V68ZM159.993 67.875L159.51 68.7506L159.516 68.7539L159.993 67.875ZM155.425 63.2216L154.538 63.6847L154.542 63.6906L155.425 63.2216ZM155.442 48.9205L156.326 49.3874L156.327 49.3854L155.442 48.9205ZM159.959 44.1818L160.46 45.0473L160.464 45.045L159.959 44.1818ZM171.942 43.3466L172.293 42.4103L172.293 42.4103L171.942 43.3466ZM178.572 50.1307L177.636 50.4811L177.637 50.4832L178.572 50.1307ZM179.51 57.9205V58.9205H180.51V57.9205H179.51ZM156.754 57.9205H155.754V58.9205H156.754V57.9205ZM156.754 53.0795V52.0795H155.754V53.0795H156.754ZM171.754 53.0795V54.0795H172.767L172.754 53.0667L171.754 53.0795ZM169.436 49.0909L168.944 49.9617L168.953 49.9664L168.961 49.9709L169.436 49.0909ZM164.493 49.125L164.977 49.9999L164.988 49.9941L164.493 49.125ZM162.737 50.8125L163.59 51.3351L163.594 51.329L162.737 50.8125ZM162.055 53.2159L161.056 53.1906L161.055 53.2033V53.2159H162.055ZM162.686 60.9545L161.799 61.4167L161.802 61.4219L162.686 60.9545ZM164.476 62.8125L163.978 63.68L163.978 63.68L164.476 62.8125ZM169.249 63.1705L169.57 64.1173L169.57 64.1173L169.249 63.1705ZM170.8 62.267L171.477 63.0026L171.477 63.0026L170.8 62.267ZM171.771 60.8011L171.8 59.8016L171.084 59.7808L170.834 60.452L171.771 60.8011ZM179.425 61.0227L180.408 61.205L180.621 60.0569L179.454 60.0231L179.425 61.0227ZM177.328 65.5057L176.566 64.8588L176.565 64.8594L177.328 65.5057ZM173.118 68.4545L173.488 69.3835L173.493 69.3813L173.118 68.4545ZM167.084 68.4943C164.477 68.4943 162.284 67.9811 160.47 66.9961L159.516 68.7539C161.679 69.928 164.213 70.4943 167.084 70.4943V68.4943ZM160.476 66.9994C158.67 66.0032 157.286 64.594 156.308 62.7526L154.542 63.6906C155.7 65.8719 157.361 67.565 159.51 68.7506L160.476 66.9994ZM156.311 62.7585C155.344 60.9068 154.839 58.6692 154.839 56.0114H152.839C152.839 58.9217 153.392 61.4909 154.538 63.6847L156.311 62.7585ZM154.839 56.0114C154.839 53.4399 155.347 51.2421 156.326 49.3874L154.557 48.4535C153.401 50.6442 152.839 53.1737 152.839 56.0114H154.839ZM156.327 49.3854C157.31 47.5143 158.684 46.0754 160.46 45.0472L159.458 43.3164C157.347 44.5382 155.71 46.2584 154.556 48.4555L156.327 49.3854ZM160.464 45.045C162.229 44.0126 164.339 43.4773 166.828 43.4773V41.4773C164.045 41.4773 161.575 42.0784 159.454 43.3186L160.464 45.045ZM166.828 43.4773C168.587 43.4773 170.171 43.7506 171.591 44.2829L172.293 42.4103C170.622 41.7835 168.796 41.4773 166.828 41.4773V43.4773ZM171.591 44.2829C173.005 44.8134 174.217 45.5936 175.237 46.624L176.658 45.2169C175.428 43.9746 173.969 43.0388 172.293 42.4103L171.591 44.2829ZM175.237 46.624C176.251 47.6489 177.055 48.9277 177.636 50.4811L179.509 49.7803C178.84 47.9928 177.893 46.4647 176.658 45.2169L175.237 46.624ZM177.637 50.4832C178.211 52.0086 178.51 53.7889 178.51 55.8409H180.51C180.51 53.5975 180.184 51.571 179.508 49.7782L177.637 50.4832ZM178.51 55.8409V57.9205H180.51V55.8409H178.51ZM179.51 56.9205H156.754V58.9205H179.51V56.9205ZM157.754 57.9205V53.0795H155.754V57.9205H157.754ZM156.754 54.0795H171.754V52.0795H156.754V54.0795ZM172.754 53.0667C172.741 52.0241 172.491 51.0603 171.985 50.202L170.262 51.2185C170.574 51.7466 170.745 52.3623 170.754 53.0924L172.754 53.0667ZM171.985 50.202C171.482 49.3503 170.785 48.6827 169.911 48.2109L168.961 49.9709C169.519 50.2718 169.947 50.6838 170.262 51.2185L171.985 50.202ZM169.928 48.2201C169.053 47.7266 168.067 47.4943 166.999 47.4943V49.4943C167.771 49.4943 168.41 49.6598 168.944 49.9617L169.928 48.2201ZM166.999 47.4943C165.91 47.4943 164.902 47.7416 163.998 48.2559L164.988 49.9941C165.561 49.6675 166.223 49.4943 166.999 49.4943V47.4943ZM164.008 48.2502C163.118 48.7432 162.404 49.4286 161.881 50.296L163.594 51.329C163.934 50.7646 164.39 50.3249 164.977 49.9998L164.008 48.2502ZM161.885 50.2899C161.353 51.1573 161.082 52.1328 161.056 53.1906L163.055 53.2412C163.074 52.5036 163.258 51.8768 163.59 51.3351L161.885 50.2899ZM161.055 53.2159V58.142H163.055V53.2159H161.055ZM161.055 58.142C161.055 59.3431 161.293 60.4443 161.799 61.4167L163.573 60.4924C163.239 59.8512 163.055 59.0773 163.055 58.142H161.055ZM161.802 61.4219C162.31 62.3828 163.04 63.1417 163.978 63.68L164.973 61.945C164.366 61.597 163.903 61.1172 163.57 60.4872L161.802 61.4219ZM163.978 63.68C164.93 64.2258 166.029 64.4773 167.237 64.4773V62.4773C166.309 62.4773 165.567 62.2856 164.973 61.945L163.978 63.68ZM167.237 64.4773C168.068 64.4773 168.849 64.3622 169.57 64.1173L168.927 62.2236C168.443 62.3878 167.884 62.4773 167.237 62.4773V64.4773ZM169.57 64.1173C170.293 63.8717 170.934 63.5025 171.477 63.0026L170.122 61.5315C169.801 61.8271 169.408 62.0601 168.927 62.2236L169.57 64.1173ZM171.477 63.0026C172.031 62.4926 172.441 61.8691 172.708 61.1502L170.834 60.452C170.67 60.8922 170.432 61.2461 170.122 61.5315L171.477 63.0026ZM171.742 61.8007L179.396 62.0223L179.454 60.0231L171.8 59.8016L171.742 61.8007ZM178.441 60.8404C178.154 62.393 177.527 63.7252 176.566 64.8588L178.091 66.1525C179.288 64.7407 180.059 63.0842 180.408 61.205L178.441 60.8404ZM176.565 64.8594C175.615 65.9815 174.351 66.8757 172.742 67.5277L173.493 69.3813C175.362 68.6243 176.905 67.5526 178.091 66.1519L176.565 64.8594ZM172.748 67.5257C171.15 68.1628 169.268 68.4943 167.084 68.4943V70.4943C169.468 70.4943 171.609 70.1327 173.488 69.3834L172.748 67.5257Z" fill="black" fill-opacity="0.2" mask="url(#path-1-outside-1_120_15)"/>
</g>
</g>
<defs>
<filter id="filter0_dd_120_15" x="-4.26782" y="33.0909" width="188.889" height="45.4033" filterUnits="userSpaceOnUse" color-interpolation-filters="sRGB">
<feFlood flood-opacity="0" result="BackgroundImageFix"/>
<feColorMatrix in="SourceAlpha" type="matrix" values="0 0 0 0 0 0 0 0 0 0 0 0 0 0 0 0 0 0 127 0" result="hardAlpha"/>
<feOffset dy="4"/>
<feGaussianBlur stdDeviation="2"/>
<feComposite in2="hardAlpha" operator="out"/>
<feColorMatrix type="matrix" values="0 0 0 0 0 0 0 0 0 0 0 0 0 0 0 0 0 0 0.25 0"/>
<feBlend mode="normal" in2="BackgroundImageFix" result="effect1_dropShadow_120_15"/>
<feColorMatrix in="SourceAlpha" type="matrix" values="0 0 0 0 0 0 0 0 0 0 0 0 0 0 0 0 0 0 127 0" result="hardAlpha"/>
<feOffset dy="4"/>
<feGaussianBlur stdDeviation="2"/>
<feComposite in2="hardAlpha" operator="out"/>
<feColorMatrix type="matrix" values="0 0 0 0 0 0 0 0 0 0 0 0 0 0 0 0 0 0 0.25 0"/>
<feBlend mode="normal" in2="effect1_dropShadow_120_15" result="effect2_dropShadow_120_15"/>
<feBlend mode="normal" in="SourceGraphic" in2="effect2_dropShadow_120_15" result="shape"/>
</filter>
<clipPath id="clip0_120_15">
<rect width="322" height="117" fill="white"/>
</clipPath>
</defs>
</svg>
