<svg width="322" height="117" viewBox="0 0 322 117" fill="none" xmlns="http://www.w3.org/2000/svg">
<g clip-path="url(#clip0_120_27)">
<rect width="322" height="117" fill="white"/>
<g filter="url(#filter0_dd_120_27)">
<mask id="path-1-outside-1_120_27" maskUnits="userSpaceOnUse" x="-1" y="30" width="153" height="50" fill="black">
<rect fill="white" x="-1" y="30" width="153" height="50"/>
<path d="M11.0114 69L0.852273 34.0909H10.1761L15.4432 56.9659H15.733L21.75 34.0909H29.3523L35.3693 57.017H35.6591L40.9432 34.0909H50.25L40.108 69H31.9773L25.6875 47.8295H25.4148L19.125 69H11.0114ZM53.7358 69V42.8182H62.071V69H53.7358ZM57.9119 39.767C56.7415 39.767 55.7358 39.3807 54.8949 38.608C54.054 37.8239 53.6335 36.8807 53.6335 35.7784C53.6335 34.6875 54.054 33.7557 54.8949 32.983C55.7358 32.1989 56.7415 31.8068 57.9119 31.8068C59.0938 31.8068 60.0994 32.1989 60.929 32.983C61.7699 33.7557 62.1903 34.6875 62.1903 35.7784C62.1903 36.8807 61.7699 37.8239 60.929 38.608C60.0994 39.3807 59.0938 39.767 57.9119 39.767ZM90.2344 50.8125L82.581 51.017C82.5014 50.4716 82.2855 49.9886 81.9332 49.5682C81.581 49.1364 81.1207 48.8011 80.5526 48.5625C79.9957 48.3125 79.348 48.1875 78.6094 48.1875C77.6435 48.1875 76.8196 48.3807 76.1378 48.767C75.4673 49.1534 75.1378 49.6761 75.1491 50.3352C75.1378 50.8466 75.3423 51.2898 75.7628 51.6648C76.1946 52.0398 76.9616 52.3409 78.0639 52.5682L83.1094 53.5227C85.723 54.0227 87.6662 54.8523 88.9389 56.0114C90.223 57.1705 90.8707 58.7045 90.8821 60.6136C90.8707 62.4091 90.3366 63.9716 89.2798 65.3011C88.2344 66.6307 86.8026 67.6648 84.9844 68.4034C83.1662 69.1307 81.0866 69.4943 78.7457 69.4943C75.0071 69.4943 72.0582 68.7273 69.8991 67.1932C67.7514 65.6477 66.5241 63.5795 66.2173 60.9886L74.4503 60.7841C74.6321 61.7386 75.1037 62.4659 75.8651 62.9659C76.6264 63.4659 77.598 63.7159 78.7798 63.7159C79.848 63.7159 80.7173 63.517 81.3878 63.1193C82.0582 62.7216 82.3991 62.1932 82.4105 61.5341C82.3991 60.9432 82.1378 60.4716 81.6264 60.1193C81.1151 59.7557 80.3139 59.4716 79.223 59.267L74.6548 58.3977C72.0298 57.9205 70.0753 57.0398 68.7912 55.7557C67.5071 54.4602 66.8707 52.8125 66.8821 50.8125C66.8707 49.0625 67.3366 47.5682 68.2798 46.3295C69.223 45.0795 70.5639 44.125 72.3026 43.4659C74.0412 42.8068 76.0923 42.4773 78.456 42.4773C82.0014 42.4773 84.7969 43.2216 86.8423 44.7102C88.8878 46.1875 90.0185 48.2216 90.2344 50.8125ZM94.9858 78.8182V42.8182H103.236V47.3011H103.491C103.832 46.5057 104.315 45.7386 104.94 45C105.577 44.2614 106.384 43.6591 107.361 43.1932C108.349 42.7159 109.531 42.4773 110.906 42.4773C112.724 42.4773 114.423 42.9545 116.003 43.9091C117.594 44.8636 118.878 46.3352 119.855 48.3239C120.832 50.3125 121.321 52.8466 121.321 55.9261C121.321 58.892 120.849 61.375 119.906 63.375C118.974 65.375 117.713 66.875 116.122 67.875C114.543 68.875 112.787 69.375 110.855 69.375C109.537 69.375 108.395 69.1591 107.429 68.7273C106.463 68.2955 105.651 67.7273 104.991 67.0227C104.344 66.3182 103.844 65.5625 103.491 64.7557H103.321V78.8182H94.9858ZM103.151 55.9091C103.151 57.3182 103.338 58.5455 103.713 59.5909C104.099 60.6364 104.651 61.4489 105.366 62.0284C106.094 62.5966 106.963 62.8807 107.974 62.8807C108.997 62.8807 109.866 62.5966 110.582 62.0284C111.298 61.4489 111.838 60.6364 112.202 59.5909C112.577 58.5455 112.764 57.3182 112.764 55.9091C112.764 54.5 112.577 53.2784 112.202 52.2443C111.838 51.2102 111.298 50.4091 110.582 49.8409C109.878 49.2727 109.009 48.9886 107.974 48.9886C106.952 48.9886 106.082 49.267 105.366 49.8239C104.651 50.3807 104.099 51.1761 103.713 52.2102C103.338 53.2443 103.151 54.4773 103.151 55.9091ZM129.942 78.8182C128.942 78.8182 127.999 78.7386 127.112 78.5795C126.226 78.4318 125.464 78.233 124.828 77.983L126.669 71.9318C127.487 72.2045 128.226 72.3636 128.885 72.4091C129.555 72.4545 130.129 72.3466 130.607 72.0852C131.095 71.8352 131.47 71.3864 131.732 70.7386L132.055 69.9545L122.749 42.8182H131.476L136.3 61.5H136.572L141.464 42.8182H150.243L140.374 71.5057C139.896 72.9375 139.22 74.1989 138.345 75.2898C137.482 76.392 136.362 77.2557 134.987 77.8807C133.624 78.5057 131.942 78.8182 129.942 78.8182Z"/>
</mask>
<path d="M11.0114 69L0.852273 34.0909H10.1761L15.4432 56.9659H15.733L21.75 34.0909H29.3523L35.3693 57.017H35.6591L40.9432 34.0909H50.25L40.108 69H31.9773L25.6875 47.8295H25.4148L19.125 69H11.0114ZM53.7358 69V42.8182H62.071V69H53.7358ZM57.9119 39.767C56.7415 39.767 55.7358 39.3807 54.8949 38.608C54.054 37.8239 53.6335 36.8807 53.6335 35.7784C53.6335 34.6875 54.054 33.7557 54.8949 32.983C55.7358 32.1989 56.7415 31.8068 57.9119 31.8068C59.0938 31.8068 60.0994 32.1989 60.929 32.983C61.7699 33.7557 62.1903 34.6875 62.1903 35.7784C62.1903 36.8807 61.7699 37.8239 60.929 38.608C60.0994 39.3807 59.0938 39.767 57.9119 39.767ZM90.2344 50.8125L82.581 51.017C82.5014 50.4716 82.2855 49.9886 81.9332 49.5682C81.581 49.1364 81.1207 48.8011 80.5526 48.5625C79.9957 48.3125 79.348 48.1875 78.6094 48.1875C77.6435 48.1875 76.8196 48.3807 76.1378 48.767C75.4673 49.1534 75.1378 49.6761 75.1491 50.3352C75.1378 50.8466 75.3423 51.2898 75.7628 51.6648C76.1946 52.0398 76.9616 52.3409 78.0639 52.5682L83.1094 53.5227C85.723 54.0227 87.6662 54.8523 88.9389 56.0114C90.223 57.1705 90.8707 58.7045 90.8821 60.6136C90.8707 62.4091 90.3366 63.9716 89.2798 65.3011C88.2344 66.6307 86.8026 67.6648 84.9844 68.4034C83.1662 69.1307 81.0866 69.4943 78.7457 69.4943C75.0071 69.4943 72.0582 68.7273 69.8991 67.1932C67.7514 65.6477 66.5241 63.5795 66.2173 60.9886L74.4503 60.7841C74.6321 61.7386 75.1037 62.4659 75.8651 62.9659C76.6264 63.4659 77.598 63.7159 78.7798 63.7159C79.848 63.7159 80.7173 63.517 81.3878 63.1193C82.0582 62.7216 82.3991 62.1932 82.4105 61.5341C82.3991 60.9432 82.1378 60.4716 81.6264 60.1193C81.1151 59.7557 80.3139 59.4716 79.223 59.267L74.6548 58.3977C72.0298 57.9205 70.0753 57.0398 68.7912 55.7557C67.5071 54.4602 66.8707 52.8125 66.8821 50.8125C66.8707 49.0625 67.3366 47.5682 68.2798 46.3295C69.223 45.0795 70.5639 44.125 72.3026 43.4659C74.0412 42.8068 76.0923 42.4773 78.456 42.4773C82.0014 42.4773 84.7969 43.2216 86.8423 44.7102C88.8878 46.1875 90.0185 48.2216 90.2344 50.8125ZM94.9858 78.8182V42.8182H103.236V47.3011H103.491C103.832 46.5057 104.315 45.7386 104.94 45C105.577 44.2614 106.384 43.6591 107.361 43.1932C108.349 42.7159 109.531 42.4773 110.906 42.4773C112.724 42.4773 114.423 42.9545 116.003 43.9091C117.594 44.8636 118.878 46.3352 119.855 48.3239C120.832 50.3125 121.321 52.8466 121.321 55.9261C121.321 58.892 120.849 61.375 119.906 63.375C118.974 65.375 117.713 66.875 116.122 67.875C114.543 68.875 112.787 69.375 110.855 69.375C109.537 69.375 108.395 69.1591 107.429 68.7273C106.463 68.2955 105.651 67.7273 104.991 67.0227C104.344 66.3182 103.844 65.5625 103.491 64.7557H103.321V78.8182H94.9858ZM103.151 55.9091C103.151 57.3182 103.338 58.5455 103.713 59.5909C104.099 60.6364 104.651 61.4489 105.366 62.0284C106.094 62.5966 106.963 62.8807 107.974 62.8807C108.997 62.8807 109.866 62.5966 110.582 62.0284C111.298 61.4489 111.838 60.6364 112.202 59.5909C112.577 58.5455 112.764 57.3182 112.764 55.9091C112.764 54.5 112.577 53.2784 112.202 52.2443C111.838 51.2102 111.298 50.4091 110.582 49.8409C109.878 49.2727 109.009 48.9886 107.974 48.9886C106.952 48.9886 106.082 49.267 105.366 49.8239C104.651 50.3807 104.099 51.1761 103.713 52.2102C103.338 53.2443 103.151 54.4773 103.151 55.9091ZM129.942 78.8182C128.942 78.8182 127.999 78.7386 127.112 78.5795C126.226 78.4318 125.464 78.233 124.828 77.983L126.669 71.9318C127.487 72.2045 128.226 72.3636 128.885 72.4091C129.555 72.4545 130.129 72.3466 130.607 72.0852C131.095 71.8352 131.47 71.3864 131.732 70.7386L132.055 69.9545L122.749 42.8182H131.476L136.3 61.5H136.572L141.464 42.8182H150.243L140.374 71.5057C139.896 72.9375 139.22 74.1989 138.345 75.2898C137.482 76.392 136.362 77.2557 134.987 77.8807C133.624 78.5057 131.942 78.8182 129.942 78.8182Z" fill="#002855"/>
<path d="M11.0114 69L10.0512 69.2794L10.2609 70H11.0114V69ZM0.852273 34.0909V33.0909H-0.480227L-0.107895 34.3703L0.852273 34.0909ZM10.1761 34.0909L11.1506 33.8665L10.972 33.0909H10.1761V34.0909ZM15.4432 56.9659L14.4687 57.1903L14.6473 57.9659H15.4432V56.9659ZM15.733 56.9659V57.9659H16.5039L16.7001 57.2203L15.733 56.9659ZM21.75 34.0909V33.0909H20.979L20.7829 33.8365L21.75 34.0909ZM29.3523 34.0909L30.3195 33.8371L30.1237 33.0909H29.3523V34.0909ZM35.3693 57.017L34.4021 57.2709L34.5979 58.017H35.3693V57.017ZM35.6591 57.017V58.017H36.4548L36.6335 57.2416L35.6591 57.017ZM40.9432 34.0909V33.0909H40.1474L39.9687 33.8663L40.9432 34.0909ZM50.25 34.0909L51.2103 34.3699L51.5819 33.0909H50.25V34.0909ZM40.108 69V70H40.8588L41.0683 69.279L40.108 69ZM31.9773 69L31.0187 69.2848L31.2312 70H31.9773V69ZM25.6875 47.8295L26.6461 47.5447L26.4336 46.8295H25.6875V47.8295ZM25.4148 47.8295V46.8295H24.6687L24.4562 47.5447L25.4148 47.8295ZM19.125 69V70H19.8711L20.0836 69.2848L19.125 69ZM11.9715 68.7206L1.81244 33.8115L-0.107895 34.3703L10.0512 69.2794L11.9715 68.7206ZM0.852273 35.0909H10.1761V33.0909H0.852273V35.0909ZM9.20164 34.3153L14.4687 57.1903L16.4177 56.7415L11.1506 33.8665L9.20164 34.3153ZM15.4432 57.9659H15.733V55.9659H15.4432V57.9659ZM16.7001 57.2203L22.7171 34.3453L20.7829 33.8365L14.7659 56.7115L16.7001 57.2203ZM21.75 35.0909H29.3523V33.0909H21.75V35.0909ZM28.385 34.3448L34.4021 57.2709L36.3366 56.7632L30.3195 33.8371L28.385 34.3448ZM35.3693 58.017H35.6591V56.017H35.3693V58.017ZM36.6335 57.2416L41.9176 34.3155L39.9687 33.8663L34.6846 56.7925L36.6335 57.2416ZM40.9432 35.0909H50.25V33.0909H40.9432V35.0909ZM49.2897 33.8119L39.1477 68.721L41.0683 69.279L51.2103 34.3699L49.2897 33.8119ZM40.108 68H31.9773V70H40.108V68ZM32.9359 68.7152L26.6461 47.5447L24.7289 48.1143L31.0187 69.2848L32.9359 68.7152ZM25.6875 46.8295H25.4148V48.8295H25.6875V46.8295ZM24.4562 47.5447L18.1664 68.7152L20.0836 69.2848L26.3734 48.1143L24.4562 47.5447ZM19.125 68H11.0114V70H19.125V68ZM53.7358 69H52.7358V70H53.7358V69ZM53.7358 42.8182V41.8182H52.7358V42.8182H53.7358ZM62.071 42.8182H63.071V41.8182H62.071V42.8182ZM62.071 69V70H63.071V69H62.071ZM54.8949 38.608L54.2129 39.3394L54.2183 39.3443L54.8949 38.608ZM54.8949 32.983L55.5715 33.7193L55.5769 33.7143L54.8949 32.983ZM60.929 32.983L60.242 33.7098L60.2524 33.7193L60.929 32.983ZM60.929 38.608L61.6106 39.3397L61.6109 39.3393L60.929 38.608ZM54.7358 69V42.8182H52.7358V69H54.7358ZM53.7358 43.8182H62.071V41.8182H53.7358V43.8182ZM61.071 42.8182V69H63.071V42.8182H61.071ZM62.071 68H53.7358V70H62.071V68ZM57.9119 38.767C56.9852 38.767 56.2229 38.4702 55.5715 37.8716L54.2183 39.3443C55.2487 40.2912 56.4978 40.767 57.9119 40.767V38.767ZM55.5769 37.8766C54.9289 37.2724 54.6335 36.5901 54.6335 35.7784H52.6335C52.6335 37.1712 53.179 38.3753 54.2129 39.3393L55.5769 37.8766ZM54.6335 35.7784C54.6335 34.9819 54.9258 34.3127 55.5715 33.7193L54.2183 32.2466C53.1822 33.1987 52.6335 34.3931 52.6335 35.7784H54.6335ZM55.5769 33.7143C56.229 33.1063 56.9895 32.8068 57.9119 32.8068V30.8068C56.4934 30.8068 55.2426 31.2914 54.2129 32.2516L55.5769 33.7143ZM57.9119 32.8068C58.8483 32.8068 59.6053 33.1078 60.2421 33.7097L61.6159 32.2562C60.5935 31.2899 59.3392 30.8068 57.9119 30.8068V32.8068ZM60.2524 33.7193C60.8981 34.3127 61.1903 34.9819 61.1903 35.7784H63.1903C63.1903 34.3931 62.6417 33.1987 61.6056 32.2466L60.2524 33.7193ZM61.1903 35.7784C61.1903 36.5901 60.8949 37.2724 60.247 37.8766L61.6109 39.3393C62.6449 38.3753 63.1903 37.1712 63.1903 35.7784H61.1903ZM60.2474 37.8762C59.6114 38.4686 58.8526 38.767 57.9119 38.767V40.767C59.3349 40.767 60.5875 40.2927 61.6106 39.3397L60.2474 37.8762ZM90.2344 50.8125L90.2611 51.8121L91.3188 51.7839L91.2309 50.7295L90.2344 50.8125ZM82.581 51.017L81.5914 51.1614L81.7196 52.0404L82.6077 52.0167L82.581 51.017ZM81.9332 49.5682L81.1583 50.2004L81.1667 50.2104L81.9332 49.5682ZM80.5526 48.5625L80.143 49.4748L80.1541 49.4798L80.1653 49.4845L80.5526 48.5625ZM76.1378 48.767L75.6448 47.897L75.6385 47.9006L76.1378 48.767ZM75.1491 50.3352L76.1489 50.3574L76.1493 50.3377L76.149 50.318L75.1491 50.3352ZM75.7628 51.6648L75.0971 52.4111L75.1071 52.4198L75.7628 51.6648ZM78.0639 52.5682L77.862 53.5476L77.87 53.5492L77.878 53.5508L78.0639 52.5682ZM83.1094 53.5227L83.2973 52.5405L83.2953 52.5402L83.1094 53.5227ZM88.9389 56.0114L88.2656 56.7507L88.2689 56.7537L88.9389 56.0114ZM90.8821 60.6136L91.8822 60.62L91.8821 60.6077L90.8821 60.6136ZM89.2798 65.3011L88.497 64.6789L88.4937 64.683L89.2798 65.3011ZM84.9844 68.4034L85.3558 69.3319L85.3608 69.3299L84.9844 68.4034ZM69.8991 67.1932L69.3151 68.0049L69.3199 68.0084L69.8991 67.1932ZM66.2173 60.9886L66.1925 59.9889L65.0952 60.0162L65.2243 61.1062L66.2173 60.9886ZM74.4503 60.7841L75.4326 60.597L75.2738 59.7633L74.4254 59.7844L74.4503 60.7841ZM75.8651 62.9659L76.414 62.13L76.414 62.13L75.8651 62.9659ZM81.3878 63.1193L80.8776 62.2593L80.8776 62.2593L81.3878 63.1193ZM82.4105 61.5341L83.4104 61.5513L83.4107 61.5331L83.4103 61.5149L82.4105 61.5341ZM81.6264 60.1193L81.0469 60.9343L81.053 60.9386L81.0591 60.9428L81.6264 60.1193ZM79.223 59.267L79.0361 60.2494L79.0387 60.2499L79.223 59.267ZM74.6548 58.3977L74.8418 57.4153L74.8337 57.4139L74.6548 58.3977ZM68.7912 55.7557L68.081 56.4597L68.0841 56.4628L68.7912 55.7557ZM66.8821 50.8125L67.8822 50.8182L67.8821 50.806L66.8821 50.8125ZM68.2798 46.3295L69.0754 46.9354L69.0781 46.9319L68.2798 46.3295ZM72.3026 43.4659L71.9481 42.5308L71.9481 42.5308L72.3026 43.4659ZM86.8423 44.7102L86.2539 45.5188L86.2568 45.5209L86.8423 44.7102ZM90.2077 49.8129L82.5543 50.0174L82.6077 52.0167L90.2611 51.8121L90.2077 49.8129ZM83.5705 50.8727C83.4643 50.1448 83.1717 49.4892 82.6998 48.926L81.1667 50.2104C81.3993 50.488 81.5385 50.7984 81.5914 51.1614L83.5705 50.8727ZM82.7081 48.9361C82.2417 48.3643 81.6427 47.9357 80.9398 47.6405L80.1653 49.4845C80.5988 49.6665 80.9202 49.9084 81.1584 50.2003L82.7081 48.9361ZM80.9621 47.6502C80.2524 47.3316 79.4601 47.1875 78.6094 47.1875V49.1875C79.2359 49.1875 79.7391 49.2934 80.143 49.4748L80.9621 47.6502ZM78.6094 47.1875C77.5105 47.1875 76.5082 47.4078 75.6448 47.897L76.6308 49.6371C77.1311 49.3536 77.7765 49.1875 78.6094 49.1875V47.1875ZM75.6385 47.9006C74.7186 48.4307 74.1305 49.2597 74.1493 50.3525L76.149 50.318C76.1451 50.0925 76.2161 49.8761 76.6371 49.6335L75.6385 47.9006ZM74.1494 50.313C74.1308 51.149 74.4832 51.8635 75.0972 52.4111L76.4284 50.9185C76.2015 50.7161 76.1448 50.5442 76.1489 50.3574L74.1494 50.313ZM75.1071 52.4198C75.7425 52.9716 76.7251 53.3132 77.862 53.5476L78.2659 51.5888C77.1982 51.3686 76.6467 51.108 76.4185 50.9097L75.1071 52.4198ZM77.878 53.5508L82.9235 54.5053L83.2953 52.5402L78.2498 51.5856L77.878 53.5508ZM82.9215 54.5049C85.4449 54.9877 87.1844 55.766 88.2656 56.7507L89.6123 55.272C88.148 53.9385 86.0011 53.0578 83.2973 52.5405L82.9215 54.5049ZM88.2689 56.7537C89.3215 57.7039 89.8722 58.959 89.8821 60.6196L91.8821 60.6077C91.8692 58.4501 91.1245 56.637 89.609 55.269L88.2689 56.7537ZM89.8821 60.6073C89.8721 62.1927 89.4062 63.535 88.497 64.6789L90.0627 65.9234C91.2671 64.4082 91.8694 62.6255 91.8821 60.62L89.8821 60.6073ZM88.4937 64.683C87.5719 65.8554 86.2912 66.7931 84.608 67.4769L85.3608 69.3299C87.3139 68.5364 88.8969 67.406 90.0659 65.9193L88.4937 64.683ZM84.613 67.4749C82.9336 68.1467 80.9837 68.4943 78.7457 68.4943V70.4943C81.1896 70.4943 83.3988 70.1147 85.3558 69.3319L84.613 67.4749ZM78.7457 68.4943C75.1321 68.4943 72.4115 67.7515 70.4784 66.378L69.3199 68.0084C71.705 69.703 74.8821 70.4943 78.7457 70.4943V68.4943ZM70.4832 66.3815C68.5594 64.9972 67.4837 63.179 67.2104 60.871L65.2243 61.1062C65.5646 63.9801 66.9434 66.2983 69.3151 68.0049L70.4832 66.3815ZM66.2422 61.9883L74.4751 61.7838L74.4254 59.7844L66.1925 59.9889L66.2422 61.9883ZM73.4679 60.9712C73.6967 62.172 74.3121 63.1424 75.3161 63.8018L76.414 62.13C75.8953 61.7894 75.5675 61.3053 75.4326 60.597L73.4679 60.9712ZM75.3161 63.8018C76.2826 64.4365 77.4603 64.7159 78.7798 64.7159V62.7159C77.7358 62.7159 76.9702 62.4953 76.414 62.13L75.3161 63.8018ZM78.7798 64.7159C79.9638 64.7159 81.0262 64.4965 81.898 63.9794L80.8776 62.2593C80.4085 62.5375 79.7323 62.7159 78.7798 62.7159V64.7159ZM81.898 63.9794C82.803 63.4425 83.3918 62.6255 83.4104 61.5513L81.4107 61.5169C81.4065 61.7609 81.3135 62.0007 80.8776 62.2593L81.898 63.9794ZM83.4103 61.5149C83.3924 60.5831 82.9546 59.8199 82.1937 59.2958L81.0591 60.9428C81.321 61.1232 81.4059 61.3033 81.4107 61.5533L83.4103 61.5149ZM82.2059 59.3044C81.5182 58.8153 80.5475 58.498 79.4073 58.2842L79.0387 60.2499C80.0804 60.4452 80.712 60.6961 81.0469 60.9343L82.2059 59.3044ZM79.41 58.2847L74.8418 57.4154L74.4679 59.3801L79.0361 60.2494L79.41 58.2847ZM74.8337 57.4139C72.3197 56.9568 70.5856 56.1359 69.4983 55.0486L68.0841 56.4628C69.565 57.9437 71.74 58.8841 74.4759 59.3816L74.8337 57.4139ZM69.5014 55.0517C68.4233 53.964 67.8721 52.5807 67.8821 50.8182L65.8821 50.8068C65.8694 53.0443 66.5909 54.9564 68.081 56.4597L69.5014 55.0517ZM67.8821 50.806C67.872 49.2482 68.2827 47.9764 69.0754 46.9354L67.4842 45.7237C66.3906 47.1599 65.8695 48.8768 65.8821 50.819L67.8821 50.806ZM69.0781 46.9319C69.8879 45.8586 71.0613 45.0059 72.657 44.401L71.9481 42.5308C70.0666 43.2441 68.5581 44.3005 67.4816 45.7272L69.0781 46.9319ZM72.657 44.401C74.2563 43.7947 76.182 43.4773 78.456 43.4773V41.4773C76.0026 41.4773 73.826 41.8189 71.9481 42.5308L72.657 44.401ZM78.456 43.4773C81.8725 43.4773 84.4358 44.1956 86.2539 45.5188L87.4308 43.9017C85.1579 42.2476 82.1304 41.4773 78.456 41.4773V43.4773ZM86.2568 45.5209C88.0575 46.8214 89.0453 48.5854 89.2378 50.8955L91.2309 50.7295C90.9916 47.8578 89.7181 45.5536 87.4278 43.8995L86.2568 45.5209ZM94.9858 78.8182H93.9858V79.8182H94.9858V78.8182ZM94.9858 42.8182V41.8182H93.9858V42.8182H94.9858ZM103.236 42.8182H104.236V41.8182H103.236V42.8182ZM103.236 47.3011H102.236V48.3011H103.236V47.3011ZM103.491 47.3011V48.3011H104.151L104.411 47.6951L103.491 47.3011ZM104.94 45L104.183 44.3473L104.177 44.3541L104.94 45ZM107.361 43.1932L107.791 44.0959L107.796 44.0937L107.361 43.1932ZM116.003 43.9091L115.486 44.765L115.488 44.7666L116.003 43.9091ZM119.855 48.3239L120.753 47.8828L120.753 47.8828L119.855 48.3239ZM119.906 63.375L119.002 62.9485L119 62.9527L119.906 63.375ZM116.122 67.875L115.59 67.0284L115.587 67.0301L116.122 67.875ZM107.429 68.7273L107.021 69.6402L107.021 69.6402L107.429 68.7273ZM104.991 67.0227L104.255 67.6996L104.261 67.7059L104.991 67.0227ZM103.491 64.7557L104.408 64.3555L104.146 63.7557H103.491V64.7557ZM103.321 64.7557V63.7557H102.321V64.7557H103.321ZM103.321 78.8182V79.8182H104.321V78.8182H103.321ZM103.713 59.5909L102.772 59.9286L102.775 59.9376L103.713 59.5909ZM105.366 62.0284L104.737 62.8057L104.744 62.8111L104.751 62.8164L105.366 62.0284ZM110.582 62.0284L111.204 62.8117L111.212 62.8057L110.582 62.0284ZM112.202 59.5909L111.26 59.2533L111.257 59.2624L112.202 59.5909ZM112.202 52.2443L111.258 52.5761L111.262 52.5852L112.202 52.2443ZM110.582 49.8409L109.955 50.6193L109.961 50.6242L110.582 49.8409ZM105.366 49.8239L104.753 49.0345L104.753 49.0345L105.366 49.8239ZM103.713 52.2102L102.776 51.8602L102.773 51.8693L103.713 52.2102ZM95.9858 78.8182V42.8182H93.9858V78.8182H95.9858ZM94.9858 43.8182H103.236V41.8182H94.9858V43.8182ZM102.236 42.8182V47.3011H104.236V42.8182H102.236ZM103.236 48.3011H103.491V46.3011H103.236V48.3011ZM104.411 47.6951C104.708 47.0009 105.135 46.3176 105.704 45.6459L104.177 44.3541C103.495 45.1597 102.957 46.0104 102.572 46.9072L104.411 47.6951ZM105.698 45.6527C106.234 45.0303 106.925 44.5087 107.791 44.0958L106.93 42.2905C105.842 42.8095 104.919 43.4925 104.183 44.3473L105.698 45.6527ZM107.796 44.0937C108.619 43.6963 109.645 43.4773 110.906 43.4773V41.4773C109.418 41.4773 108.08 41.7355 106.926 42.2926L107.796 44.0937ZM110.906 43.4773C112.539 43.4773 114.06 43.9032 115.486 44.7649L116.52 43.0532C114.787 42.0059 112.91 41.4773 110.906 41.4773V43.4773ZM115.488 44.7666C116.884 45.6042 118.049 46.915 118.958 48.7649L120.753 47.8828C119.707 45.7554 118.303 44.123 116.517 43.0516L115.488 44.7666ZM118.958 48.7649C119.846 50.5736 120.321 52.9434 120.321 55.9261H122.321C122.321 52.7498 121.818 50.0514 120.753 47.8828L118.958 48.7649ZM120.321 55.9261C120.321 58.7924 119.864 61.1192 119.002 62.9485L120.811 63.8015C121.834 61.6308 122.321 58.9917 122.321 55.9261H120.321ZM119 62.9527C118.135 64.8091 116.991 66.1476 115.59 67.0284L116.654 68.7216C118.435 67.6024 119.814 65.9409 120.813 63.7973L119 62.9527ZM115.587 67.0301C114.173 67.9253 112.604 68.375 110.855 68.375V70.375C112.97 70.375 114.912 69.8247 116.657 68.7199L115.587 67.0301ZM110.855 68.375C109.644 68.375 108.647 68.1765 107.837 67.8143L107.021 69.6402C108.143 70.1417 109.43 70.375 110.855 70.375V68.375ZM107.837 67.8143C106.981 67.4316 106.281 66.9378 105.722 66.3396L104.261 67.7059C105.02 68.5167 105.945 69.1593 107.021 69.6402L107.837 67.8143ZM105.728 66.3459C105.148 65.7159 104.712 65.0523 104.408 64.3555L102.575 65.1558C102.975 66.0727 103.539 66.9205 104.255 67.6995L105.728 66.3459ZM103.491 63.7557H103.321V65.7557H103.491V63.7557ZM102.321 64.7557V78.8182H104.321V64.7557H102.321ZM103.321 77.8182H94.9858V79.8182H103.321V77.8182ZM102.151 55.9091C102.151 57.4037 102.349 58.7501 102.772 59.9285L104.654 59.2533C104.327 58.3408 104.151 57.2326 104.151 55.9091H102.151ZM102.775 59.9376C103.211 61.1162 103.855 62.0913 104.737 62.8057L105.996 61.2512C105.446 60.8064 104.988 60.1565 104.651 59.2443L102.775 59.9376ZM104.751 62.8164C105.671 63.5353 106.763 63.8807 107.974 63.8807V61.8807C107.163 61.8807 106.516 61.6579 105.982 61.2404L104.751 62.8164ZM107.974 63.8807C109.194 63.8807 110.29 63.5369 111.204 62.8117L109.961 61.2451C109.443 61.6563 108.8 61.8807 107.974 61.8807V63.8807ZM111.212 62.8057C112.099 62.0871 112.734 61.1052 113.146 59.9194L111.257 59.2624C110.942 60.1676 110.497 60.8106 109.953 61.2512L111.212 62.8057ZM113.143 59.9285C113.566 58.7501 113.764 57.4037 113.764 55.9091H111.764C111.764 57.2326 111.588 58.3408 111.26 59.2533L113.143 59.9285ZM113.764 55.9091C113.764 54.4148 113.566 53.0726 113.142 51.9034L111.262 52.5852C111.588 53.4842 111.764 54.5852 111.764 55.9091H113.764ZM113.145 51.9126C112.731 50.7364 112.095 49.7645 111.204 49.0576L109.961 50.6242C110.502 51.0537 110.945 51.684 111.258 52.5761L113.145 51.9126ZM111.21 49.0625C110.303 48.3308 109.203 47.9886 107.974 47.9886V49.9886C108.814 49.9886 109.453 50.2147 109.955 50.6193L111.21 49.0625ZM107.974 47.9886C106.759 47.9886 105.666 48.3239 104.753 49.0345L105.98 50.6132C106.499 50.2102 107.144 49.9886 107.974 49.9886V47.9886ZM104.753 49.0345C103.862 49.7275 103.213 50.6904 102.776 51.8602L104.65 52.5602C104.985 51.6619 105.44 51.0339 105.98 50.6132L104.753 49.0345ZM102.773 51.8693C102.348 53.0401 102.151 54.3942 102.151 55.9091H104.151C104.151 54.5603 104.328 53.4486 104.653 52.5511L102.773 51.8693ZM127.112 78.5795L127.289 77.5952L127.277 77.5932L127.112 78.5795ZM124.828 77.983L123.871 77.6919L123.602 78.5759L124.462 78.9137L124.828 77.983ZM126.669 71.9318L126.985 70.9831L126.011 70.6584L125.712 71.6408L126.669 71.9318ZM128.885 72.4091L128.816 73.4067L128.817 73.4068L128.885 72.4091ZM130.607 72.0852L130.151 71.195L130.139 71.2014L130.126 71.2081L130.607 72.0852ZM131.732 70.7386L130.807 70.3569L130.804 70.3644L131.732 70.7386ZM132.055 69.9545L132.98 70.3363L133.124 69.9873L133.001 69.6301L132.055 69.9545ZM122.749 42.8182V41.8182H121.348L121.803 43.1426L122.749 42.8182ZM131.476 42.8182L132.444 42.5682L132.25 41.8182H131.476V42.8182ZM136.3 61.5L135.331 61.75L135.525 62.5H136.3V61.5ZM136.572 61.5V62.5H137.344L137.54 61.7533L136.572 61.5ZM141.464 42.8182V41.8182H140.693L140.497 42.5649L141.464 42.8182ZM150.243 42.8182L151.189 43.1435L151.644 41.8182H150.243V42.8182ZM140.374 71.5057L139.428 71.1804L139.425 71.1895L140.374 71.5057ZM138.345 75.2898L137.565 74.664L137.558 74.673L138.345 75.2898ZM134.987 77.8807L134.573 76.9703L134.571 76.9716L134.987 77.8807ZM129.942 77.8182C128.995 77.8182 128.111 77.7428 127.289 77.5953L126.936 79.5638C127.886 79.7344 128.889 79.8182 129.942 79.8182V77.8182ZM127.277 77.5932C126.439 77.4535 125.749 77.2702 125.194 77.0522L124.462 78.9137C125.18 79.1957 126.013 79.4101 126.948 79.5659L127.277 77.5932ZM125.785 78.274L127.626 72.2229L125.712 71.6408L123.871 77.6919L125.785 78.274ZM126.353 72.8805C127.228 73.1723 128.052 73.354 128.816 73.4067L128.954 71.4115C128.4 71.3733 127.746 71.2368 126.985 70.9831L126.353 72.8805ZM128.817 73.4068C129.633 73.4621 130.407 73.3348 131.087 72.9623L130.126 71.2081C129.852 71.3584 129.477 71.447 128.953 71.4114L128.817 73.4068ZM131.062 72.9755C131.818 72.5886 132.333 71.9212 132.659 71.1128L130.804 70.3644C130.608 70.8515 130.372 71.0819 130.151 71.195L131.062 72.9755ZM132.656 71.1204L132.98 70.3363L131.131 69.5728L130.807 70.3569L132.656 71.1204ZM133.001 69.6301L123.694 42.4938L121.803 43.1426L131.109 70.279L133.001 69.6301ZM122.749 43.8182H131.476V41.8182H122.749V43.8182ZM130.508 43.0682L135.331 61.75L137.268 61.25L132.444 42.5682L130.508 43.0682ZM136.3 62.5H136.572V60.5H136.3V62.5ZM137.54 61.7533L142.432 43.0715L140.497 42.5649L135.605 61.2467L137.54 61.7533ZM141.464 43.8182H150.243V41.8182H141.464V43.8182ZM149.297 42.4929L139.428 71.1804L141.319 71.831L151.189 43.1435L149.297 42.4929ZM139.425 71.1895C138.982 72.5179 138.36 73.6726 137.565 74.6641L139.125 75.9155C140.08 74.7251 140.811 73.3571 141.322 71.8219L139.425 71.1895ZM137.558 74.673C136.801 75.6391 135.814 76.4064 134.573 76.9703L135.401 78.791C136.91 78.1049 138.162 77.145 139.132 75.9065L137.558 74.673ZM134.571 76.9716C133.374 77.5202 131.844 77.8182 129.942 77.8182V79.8182C132.04 79.8182 133.874 79.4911 135.404 78.7897L134.571 76.9716Z" fill="black" mask="url(#path-1-outside-1_120_27)"/>
<path d="M11.0114 69L10.0512 69.2794L10.2609 70H11.0114V69ZM0.852273 34.0909V33.0909H-0.480227L-0.107895 34.3703L0.852273 34.0909ZM10.1761 34.0909L11.1506 33.8665L10.972 33.0909H10.1761V34.0909ZM15.4432 56.9659L14.4687 57.1903L14.6473 57.9659H15.4432V56.9659ZM15.733 56.9659V57.9659H16.5039L16.7001 57.2203L15.733 56.9659ZM21.75 34.0909V33.0909H20.979L20.7829 33.8365L21.75 34.0909ZM29.3523 34.0909L30.3195 33.8371L30.1237 33.0909H29.3523V34.0909ZM35.3693 57.017L34.4021 57.2709L34.5979 58.017H35.3693V57.017ZM35.6591 57.017V58.017H36.4548L36.6335 57.2416L35.6591 57.017ZM40.9432 34.0909V33.0909H40.1474L39.9687 33.8663L40.9432 34.0909ZM50.25 34.0909L51.2103 34.3699L51.5819 33.0909H50.25V34.0909ZM40.108 69V70H40.8588L41.0683 69.279L40.108 69ZM31.9773 69L31.0187 69.2848L31.2312 70H31.9773V69ZM25.6875 47.8295L26.6461 47.5447L26.4336 46.8295H25.6875V47.8295ZM25.4148 47.8295V46.8295H24.6687L24.4562 47.5447L25.4148 47.8295ZM19.125 69V70H19.8711L20.0836 69.2848L19.125 69ZM11.9715 68.7206L1.81244 33.8115L-0.107895 34.3703L10.0512 69.2794L11.9715 68.7206ZM0.852273 35.0909H10.1761V33.0909H0.852273V35.0909ZM9.20164 34.3153L14.4687 57.1903L16.4177 56.7415L11.1506 33.8665L9.20164 34.3153ZM15.4432 57.9659H15.733V55.9659H15.4432V57.9659ZM16.7001 57.2203L22.7171 34.3453L20.7829 33.8365L14.7659 56.7115L16.7001 57.2203ZM21.75 35.0909H29.3523V33.0909H21.75V35.0909ZM28.385 34.3448L34.4021 57.2709L36.3366 56.7632L30.3195 33.8371L28.385 34.3448ZM35.3693 58.017H35.6591V56.017H35.3693V58.017ZM36.6335 57.2416L41.9176 34.3155L39.9687 33.8663L34.6846 56.7925L36.6335 57.2416ZM40.9432 35.0909H50.25V33.0909H40.9432V35.0909ZM49.2897 33.8119L39.1477 68.721L41.0683 69.279L51.2103 34.3699L49.2897 33.8119ZM40.108 68H31.9773V70H40.108V68ZM32.9359 68.7152L26.6461 47.5447L24.7289 48.1143L31.0187 69.2848L32.9359 68.7152ZM25.6875 46.8295H25.4148V48.8295H25.6875V46.8295ZM24.4562 47.5447L18.1664 68.7152L20.0836 69.2848L26.3734 48.1143L24.4562 47.5447ZM19.125 68H11.0114V70H19.125V68ZM53.7358 69H52.7358V70H53.7358V69ZM53.7358 42.8182V41.8182H52.7358V42.8182H53.7358ZM62.071 42.8182H63.071V41.8182H62.071V42.8182ZM62.071 69V70H63.071V69H62.071ZM54.8949 38.608L54.2129 39.3394L54.2183 39.3443L54.8949 38.608ZM54.8949 32.983L55.5715 33.7193L55.5769 33.7143L54.8949 32.983ZM60.929 32.983L60.242 33.7098L60.2524 33.7193L60.929 32.983ZM60.929 38.608L61.6106 39.3397L61.6109 39.3393L60.929 38.608ZM54.7358 69V42.8182H52.7358V69H54.7358ZM53.7358 43.8182H62.071V41.8182H53.7358V43.8182ZM61.071 42.8182V69H63.071V42.8182H61.071ZM62.071 68H53.7358V70H62.071V68ZM57.9119 38.767C56.9852 38.767 56.2229 38.4702 55.5715 37.8716L54.2183 39.3443C55.2487 40.2912 56.4978 40.767 57.9119 40.767V38.767ZM55.5769 37.8766C54.9289 37.2724 54.6335 36.5901 54.6335 35.7784H52.6335C52.6335 37.1712 53.179 38.3753 54.2129 39.3393L55.5769 37.8766ZM54.6335 35.7784C54.6335 34.9819 54.9258 34.3127 55.5715 33.7193L54.2183 32.2466C53.1822 33.1987 52.6335 34.3931 52.6335 35.7784H54.6335ZM55.5769 33.7143C56.229 33.1063 56.9895 32.8068 57.9119 32.8068V30.8068C56.4934 30.8068 55.2426 31.2914 54.2129 32.2516L55.5769 33.7143ZM57.9119 32.8068C58.8483 32.8068 59.6053 33.1078 60.2421 33.7097L61.6159 32.2562C60.5935 31.2899 59.3392 30.8068 57.9119 30.8068V32.8068ZM60.2524 33.7193C60.8981 34.3127 61.1903 34.9819 61.1903 35.7784H63.1903C63.1903 34.3931 62.6417 33.1987 61.6056 32.2466L60.2524 33.7193ZM61.1903 35.7784C61.1903 36.5901 60.8949 37.2724 60.247 37.8766L61.6109 39.3393C62.6449 38.3753 63.1903 37.1712 63.1903 35.7784H61.1903ZM60.2474 37.8762C59.6114 38.4686 58.8526 38.767 57.9119 38.767V40.767C59.3349 40.767 60.5875 40.2927 61.6106 39.3397L60.2474 37.8762ZM90.2344 50.8125L90.2611 51.8121L91.3188 51.7839L91.2309 50.7295L90.2344 50.8125ZM82.581 51.017L81.5914 51.1614L81.7196 52.0404L82.6077 52.0167L82.581 51.017ZM81.9332 49.5682L81.1583 50.2004L81.1667 50.2104L81.9332 49.5682ZM80.5526 48.5625L80.143 49.4748L80.1541 49.4798L80.1653 49.4845L80.5526 48.5625ZM76.1378 48.767L75.6448 47.897L75.6385 47.9006L76.1378 48.767ZM75.1491 50.3352L76.1489 50.3574L76.1493 50.3377L76.149 50.318L75.1491 50.3352ZM75.7628 51.6648L75.0971 52.4111L75.1071 52.4198L75.7628 51.6648ZM78.0639 52.5682L77.862 53.5476L77.87 53.5492L77.878 53.5508L78.0639 52.5682ZM83.1094 53.5227L83.2973 52.5405L83.2953 52.5402L83.1094 53.5227ZM88.9389 56.0114L88.2656 56.7507L88.2689 56.7537L88.9389 56.0114ZM90.8821 60.6136L91.8822 60.62L91.8821 60.6077L90.8821 60.6136ZM89.2798 65.3011L88.497 64.6789L88.4937 64.683L89.2798 65.3011ZM84.9844 68.4034L85.3558 69.3319L85.3608 69.3299L84.9844 68.4034ZM69.8991 67.1932L69.3151 68.0049L69.3199 68.0084L69.8991 67.1932ZM66.2173 60.9886L66.1925 59.9889L65.0952 60.0162L65.2243 61.1062L66.2173 60.9886ZM74.4503 60.7841L75.4326 60.597L75.2738 59.7633L74.4254 59.7844L74.4503 60.7841ZM75.8651 62.9659L76.414 62.13L76.414 62.13L75.8651 62.9659ZM81.3878 63.1193L80.8776 62.2593L80.8776 62.2593L81.3878 63.1193ZM82.4105 61.5341L83.4104 61.5513L83.4107 61.5331L83.4103 61.5149L82.4105 61.5341ZM81.6264 60.1193L81.0469 60.9343L81.053 60.9386L81.0591 60.9428L81.6264 60.1193ZM79.223 59.267L79.0361 60.2494L79.0387 60.2499L79.223 59.267ZM74.6548 58.3977L74.8418 57.4153L74.8337 57.4139L74.6548 58.3977ZM68.7912 55.7557L68.081 56.4597L68.0841 56.4628L68.7912 55.7557ZM66.8821 50.8125L67.8822 50.8182L67.8821 50.806L66.8821 50.8125ZM68.2798 46.3295L69.0754 46.9354L69.0781 46.9319L68.2798 46.3295ZM72.3026 43.4659L71.9481 42.5308L71.9481 42.5308L72.3026 43.4659ZM86.8423 44.7102L86.2539 45.5188L86.2568 45.5209L86.8423 44.7102ZM90.2077 49.8129L82.5543 50.0174L82.6077 52.0167L90.2611 51.8121L90.2077 49.8129ZM83.5705 50.8727C83.4643 50.1448 83.1717 49.4892 82.6998 48.926L81.1667 50.2104C81.3993 50.488 81.5385 50.7984 81.5914 51.1614L83.5705 50.8727ZM82.7081 48.9361C82.2417 48.3643 81.6427 47.9357 80.9398 47.6405L80.1653 49.4845C80.5988 49.6665 80.9202 49.9084 81.1584 50.2003L82.7081 48.9361ZM80.9621 47.6502C80.2524 47.3316 79.4601 47.1875 78.6094 47.1875V49.1875C79.2359 49.1875 79.7391 49.2934 80.143 49.4748L80.9621 47.6502ZM78.6094 47.1875C77.5105 47.1875 76.5082 47.4078 75.6448 47.897L76.6308 49.6371C77.1311 49.3536 77.7765 49.1875 78.6094 49.1875V47.1875ZM75.6385 47.9006C74.7186 48.4307 74.1305 49.2597 74.1493 50.3525L76.149 50.318C76.1451 50.0925 76.2161 49.8761 76.6371 49.6335L75.6385 47.9006ZM74.1494 50.313C74.1308 51.149 74.4832 51.8635 75.0972 52.4111L76.4284 50.9185C76.2015 50.7161 76.1448 50.5442 76.1489 50.3574L74.1494 50.313ZM75.1071 52.4198C75.7425 52.9716 76.7251 53.3132 77.862 53.5476L78.2659 51.5888C77.1982 51.3686 76.6467 51.108 76.4185 50.9097L75.1071 52.4198ZM77.878 53.5508L82.9235 54.5053L83.2953 52.5402L78.2498 51.5856L77.878 53.5508ZM82.9215 54.5049C85.4449 54.9877 87.1844 55.766 88.2656 56.7507L89.6123 55.272C88.148 53.9385 86.0011 53.0578 83.2973 52.5405L82.9215 54.5049ZM88.2689 56.7537C89.3215 57.7039 89.8722 58.959 89.8821 60.6196L91.8821 60.6077C91.8692 58.4501 91.1245 56.637 89.609 55.269L88.2689 56.7537ZM89.8821 60.6073C89.8721 62.1927 89.4062 63.535 88.497 64.6789L90.0627 65.9234C91.2671 64.4082 91.8694 62.6255 91.8821 60.62L89.8821 60.6073ZM88.4937 64.683C87.5719 65.8554 86.2912 66.7931 84.608 67.4769L85.3608 69.3299C87.3139 68.5364 88.8969 67.406 90.0659 65.9193L88.4937 64.683ZM84.613 67.4749C82.9336 68.1467 80.9837 68.4943 78.7457 68.4943V70.4943C81.1896 70.4943 83.3988 70.1147 85.3558 69.3319L84.613 67.4749ZM78.7457 68.4943C75.1321 68.4943 72.4115 67.7515 70.4784 66.378L69.3199 68.0084C71.705 69.703 74.8821 70.4943 78.7457 70.4943V68.4943ZM70.4832 66.3815C68.5594 64.9972 67.4837 63.179 67.2104 60.871L65.2243 61.1062C65.5646 63.9801 66.9434 66.2983 69.3151 68.0049L70.4832 66.3815ZM66.2422 61.9883L74.4751 61.7838L74.4254 59.7844L66.1925 59.9889L66.2422 61.9883ZM73.4679 60.9712C73.6967 62.172 74.3121 63.1424 75.3161 63.8018L76.414 62.13C75.8953 61.7894 75.5675 61.3053 75.4326 60.597L73.4679 60.9712ZM75.3161 63.8018C76.2826 64.4365 77.4603 64.7159 78.7798 64.7159V62.7159C77.7358 62.7159 76.9702 62.4953 76.414 62.13L75.3161 63.8018ZM78.7798 64.7159C79.9638 64.7159 81.0262 64.4965 81.898 63.9794L80.8776 62.2593C80.4085 62.5375 79.7323 62.7159 78.7798 62.7159V64.7159ZM81.898 63.9794C82.803 63.4425 83.3918 62.6255 83.4104 61.5513L81.4107 61.5169C81.4065 61.7609 81.3135 62.0007 80.8776 62.2593L81.898 63.9794ZM83.4103 61.5149C83.3924 60.5831 82.9546 59.8199 82.1937 59.2958L81.0591 60.9428C81.321 61.1232 81.4059 61.3033 81.4107 61.5533L83.4103 61.5149ZM82.2059 59.3044C81.5182 58.8153 80.5475 58.498 79.4073 58.2842L79.0387 60.2499C80.0804 60.4452 80.712 60.6961 81.0469 60.9343L82.2059 59.3044ZM79.41 58.2847L74.8418 57.4154L74.4679 59.3801L79.0361 60.2494L79.41 58.2847ZM74.8337 57.4139C72.3197 56.9568 70.5856 56.1359 69.4983 55.0486L68.0841 56.4628C69.565 57.9437 71.74 58.8841 74.4759 59.3816L74.8337 57.4139ZM69.5014 55.0517C68.4233 53.964 67.8721 52.5807 67.8821 50.8182L65.8821 50.8068C65.8694 53.0443 66.5909 54.9564 68.081 56.4597L69.5014 55.0517ZM67.8821 50.806C67.872 49.2482 68.2827 47.9764 69.0754 46.9354L67.4842 45.7237C66.3906 47.1599 65.8695 48.8768 65.8821 50.819L67.8821 50.806ZM69.0781 46.9319C69.8879 45.8586 71.0613 45.0059 72.657 44.401L71.9481 42.5308C70.0666 43.2441 68.5581 44.3005 67.4816 45.7272L69.0781 46.9319ZM72.657 44.401C74.2563 43.7947 76.182 43.4773 78.456 43.4773V41.4773C76.0026 41.4773 73.826 41.8189 71.9481 42.5308L72.657 44.401ZM78.456 43.4773C81.8725 43.4773 84.4358 44.1956 86.2539 45.5188L87.4308 43.9017C85.1579 42.2476 82.1304 41.4773 78.456 41.4773V43.4773ZM86.2568 45.5209C88.0575 46.8214 89.0453 48.5854 89.2378 50.8955L91.2309 50.7295C90.9916 47.8578 89.7181 45.5536 87.4278 43.8995L86.2568 45.5209ZM94.9858 78.8182H93.9858V79.8182H94.9858V78.8182ZM94.9858 42.8182V41.8182H93.9858V42.8182H94.9858ZM103.236 42.8182H104.236V41.8182H103.236V42.8182ZM103.236 47.3011H102.236V48.3011H103.236V47.3011ZM103.491 47.3011V48.3011H104.151L104.411 47.6951L103.491 47.3011ZM104.94 45L104.183 44.3473L104.177 44.3541L104.94 45ZM107.361 43.1932L107.791 44.0959L107.796 44.0937L107.361 43.1932ZM116.003 43.9091L115.486 44.765L115.488 44.7666L116.003 43.9091ZM119.855 48.3239L120.753 47.8828L120.753 47.8828L119.855 48.3239ZM119.906 63.375L119.002 62.9485L119 62.9527L119.906 63.375ZM116.122 67.875L115.59 67.0284L115.587 67.0301L116.122 67.875ZM107.429 68.7273L107.021 69.6402L107.021 69.6402L107.429 68.7273ZM104.991 67.0227L104.255 67.6996L104.261 67.7059L104.991 67.0227ZM103.491 64.7557L104.408 64.3555L104.146 63.7557H103.491V64.7557ZM103.321 64.7557V63.7557H102.321V64.7557H103.321ZM103.321 78.8182V79.8182H104.321V78.8182H103.321ZM103.713 59.5909L102.772 59.9286L102.775 59.9376L103.713 59.5909ZM105.366 62.0284L104.737 62.8057L104.744 62.8111L104.751 62.8164L105.366 62.0284ZM110.582 62.0284L111.204 62.8117L111.212 62.8057L110.582 62.0284ZM112.202 59.5909L111.26 59.2533L111.257 59.2624L112.202 59.5909ZM112.202 52.2443L111.258 52.5761L111.262 52.5852L112.202 52.2443ZM110.582 49.8409L109.955 50.6193L109.961 50.6242L110.582 49.8409ZM105.366 49.8239L104.753 49.0345L104.753 49.0345L105.366 49.8239ZM103.713 52.2102L102.776 51.8602L102.773 51.8693L103.713 52.2102ZM95.9858 78.8182V42.8182H93.9858V78.8182H95.9858ZM94.9858 43.8182H103.236V41.8182H94.9858V43.8182ZM102.236 42.8182V47.3011H104.236V42.8182H102.236ZM103.236 48.3011H103.491V46.3011H103.236V48.3011ZM104.411 47.6951C104.708 47.0009 105.135 46.3176 105.704 45.6459L104.177 44.3541C103.495 45.1597 102.957 46.0104 102.572 46.9072L104.411 47.6951ZM105.698 45.6527C106.234 45.0303 106.925 44.5087 107.791 44.0958L106.93 42.2905C105.842 42.8095 104.919 43.4925 104.183 44.3473L105.698 45.6527ZM107.796 44.0937C108.619 43.6963 109.645 43.4773 110.906 43.4773V41.4773C109.418 41.4773 108.08 41.7355 106.926 42.2926L107.796 44.0937ZM110.906 43.4773C112.539 43.4773 114.06 43.9032 115.486 44.7649L116.52 43.0532C114.787 42.0059 112.91 41.4773 110.906 41.4773V43.4773ZM115.488 44.7666C116.884 45.6042 118.049 46.915 118.958 48.7649L120.753 47.8828C119.707 45.7554 118.303 44.123 116.517 43.0516L115.488 44.7666ZM118.958 48.7649C119.846 50.5736 120.321 52.9434 120.321 55.9261H122.321C122.321 52.7498 121.818 50.0514 120.753 47.8828L118.958 48.7649ZM120.321 55.9261C120.321 58.7924 119.864 61.1192 119.002 62.9485L120.811 63.8015C121.834 61.6308 122.321 58.9917 122.321 55.9261H120.321ZM119 62.9527C118.135 64.8091 116.991 66.1476 115.59 67.0284L116.654 68.7216C118.435 67.6024 119.814 65.9409 120.813 63.7973L119 62.9527ZM115.587 67.0301C114.173 67.9253 112.604 68.375 110.855 68.375V70.375C112.97 70.375 114.912 69.8247 116.657 68.7199L115.587 67.0301ZM110.855 68.375C109.644 68.375 108.647 68.1765 107.837 67.8143L107.021 69.6402C108.143 70.1417 109.43 70.375 110.855 70.375V68.375ZM107.837 67.8143C106.981 67.4316 106.281 66.9378 105.722 66.3396L104.261 67.7059C105.02 68.5167 105.945 69.1593 107.021 69.6402L107.837 67.8143ZM105.728 66.3459C105.148 65.7159 104.712 65.0523 104.408 64.3555L102.575 65.1558C102.975 66.0727 103.539 66.9205 104.255 67.6995L105.728 66.3459ZM103.491 63.7557H103.321V65.7557H103.491V63.7557ZM102.321 64.7557V78.8182H104.321V64.7557H102.321ZM103.321 77.8182H94.9858V79.8182H103.321V77.8182ZM102.151 55.9091C102.151 57.4037 102.349 58.7501 102.772 59.9285L104.654 59.2533C104.327 58.3408 104.151 57.2326 104.151 55.9091H102.151ZM102.775 59.9376C103.211 61.1162 103.855 62.0913 104.737 62.8057L105.996 61.2512C105.446 60.8064 104.988 60.1565 104.651 59.2443L102.775 59.9376ZM104.751 62.8164C105.671 63.5353 106.763 63.8807 107.974 63.8807V61.8807C107.163 61.8807 106.516 61.6579 105.982 61.2404L104.751 62.8164ZM107.974 63.8807C109.194 63.8807 110.29 63.5369 111.204 62.8117L109.961 61.2451C109.443 61.6563 108.8 61.8807 107.974 61.8807V63.8807ZM111.212 62.8057C112.099 62.0871 112.734 61.1052 113.146 59.9194L111.257 59.2624C110.942 60.1676 110.497 60.8106 109.953 61.2512L111.212 62.8057ZM113.143 59.9285C113.566 58.7501 113.764 57.4037 113.764 55.9091H111.764C111.764 57.2326 111.588 58.3408 111.26 59.2533L113.143 59.9285ZM113.764 55.9091C113.764 54.4148 113.566 53.0726 113.142 51.9034L111.262 52.5852C111.588 53.4842 111.764 54.5852 111.764 55.9091H113.764ZM113.145 51.9126C112.731 50.7364 112.095 49.7645 111.204 49.0576L109.961 50.6242C110.502 51.0537 110.945 51.684 111.258 52.5761L113.145 51.9126ZM111.21 49.0625C110.303 48.3308 109.203 47.9886 107.974 47.9886V49.9886C108.814 49.9886 109.453 50.2147 109.955 50.6193L111.21 49.0625ZM107.974 47.9886C106.759 47.9886 105.666 48.3239 104.753 49.0345L105.98 50.6132C106.499 50.2102 107.144 49.9886 107.974 49.9886V47.9886ZM104.753 49.0345C103.862 49.7275 103.213 50.6904 102.776 51.8602L104.65 52.5602C104.985 51.6619 105.44 51.0339 105.98 50.6132L104.753 49.0345ZM102.773 51.8693C102.348 53.0401 102.151 54.3942 102.151 55.9091H104.151C104.151 54.5603 104.328 53.4486 104.653 52.5511L102.773 51.8693ZM127.112 78.5795L127.289 77.5952L127.277 77.5932L127.112 78.5795ZM124.828 77.983L123.871 77.6919L123.602 78.5759L124.462 78.9137L124.828 77.983ZM126.669 71.9318L126.985 70.9831L126.011 70.6584L125.712 71.6408L126.669 71.9318ZM128.885 72.4091L128.816 73.4067L128.817 73.4068L128.885 72.4091ZM130.607 72.0852L130.151 71.195L130.139 71.2014L130.126 71.2081L130.607 72.0852ZM131.732 70.7386L130.807 70.3569L130.804 70.3644L131.732 70.7386ZM132.055 69.9545L132.98 70.3363L133.124 69.9873L133.001 69.6301L132.055 69.9545ZM122.749 42.8182V41.8182H121.348L121.803 43.1426L122.749 42.8182ZM131.476 42.8182L132.444 42.5682L132.25 41.8182H131.476V42.8182ZM136.3 61.5L135.331 61.75L135.525 62.5H136.3V61.5ZM136.572 61.5V62.5H137.344L137.54 61.7533L136.572 61.5ZM141.464 42.8182V41.8182H140.693L140.497 42.5649L141.464 42.8182ZM150.243 42.8182L151.189 43.1435L151.644 41.8182H150.243V42.8182ZM140.374 71.5057L139.428 71.1804L139.425 71.1895L140.374 71.5057ZM138.345 75.2898L137.565 74.664L137.558 74.673L138.345 75.2898ZM134.987 77.8807L134.573 76.9703L134.571 76.9716L134.987 77.8807ZM129.942 77.8182C128.995 77.8182 128.111 77.7428 127.289 77.5953L126.936 79.5638C127.886 79.7344 128.889 79.8182 129.942 79.8182V77.8182ZM127.277 77.5932C126.439 77.4535 125.749 77.2702 125.194 77.0522L124.462 78.9137C125.18 79.1957 126.013 79.4101 126.948 79.5659L127.277 77.5932ZM125.785 78.274L127.626 72.2229L125.712 71.6408L123.871 77.6919L125.785 78.274ZM126.353 72.8805C127.228 73.1723 128.052 73.354 128.816 73.4067L128.954 71.4115C128.4 71.3733 127.746 71.2368 126.985 70.9831L126.353 72.8805ZM128.817 73.4068C129.633 73.4621 130.407 73.3348 131.087 72.9623L130.126 71.2081C129.852 71.3584 129.477 71.447 128.953 71.4114L128.817 73.4068ZM131.062 72.9755C131.818 72.5886 132.333 71.9212 132.659 71.1128L130.804 70.3644C130.608 70.8515 130.372 71.0819 130.151 71.195L131.062 72.9755ZM132.656 71.1204L132.98 70.3363L131.131 69.5728L130.807 70.3569L132.656 71.1204ZM133.001 69.6301L123.694 42.4938L121.803 43.1426L131.109 70.279L133.001 69.6301ZM122.749 43.8182H131.476V41.8182H122.749V43.8182ZM130.508 43.0682L135.331 61.75L137.268 61.25L132.444 42.5682L130.508 43.0682ZM136.3 62.5H136.572V60.5H136.3V62.5ZM137.54 61.7533L142.432 43.0715L140.497 42.5649L135.605 61.2467L137.54 61.7533ZM141.464 43.8182H150.243V41.8182H141.464V43.8182ZM149.297 42.4929L139.428 71.1804L141.319 71.831L151.189 43.1435L149.297 42.4929ZM139.425 71.1895C138.982 72.5179 138.36 73.6726 137.565 74.6641L139.125 75.9155C140.08 74.7251 140.811 73.3571 141.322 71.8219L139.425 71.1895ZM137.558 74.673C136.801 75.6391 135.814 76.4064 134.573 76.9703L135.401 78.791C136.91 78.1049 138.162 77.145 139.132 75.9065L137.558 74.673ZM134.571 76.9716C133.374 77.5202 131.844 77.8182 129.942 77.8182V79.8182C132.04 79.8182 133.874 79.4911 135.404 78.7897L134.571 76.9716Z" fill="black" fill-opacity="0.2" mask="url(#path-1-outside-1_120_27)"/>
</g>
</g>
<defs>
<filter id="filter0_dd_120_27" x="-4.48022" y="30.8068" width="160.125" height="57.0115" filterUnits="userSpaceOnUse" color-interpolation-filters="sRGB">
<feFlood flood-opacity="0" result="BackgroundImageFix"/>
<feColorMatrix in="SourceAlpha" type="matrix" values="0 0 0 0 0 0 0 0 0 0 0 0 0 0 0 0 0 0 127 0" result="hardAlpha"/>
<feOffset dy="4"/>
<feGaussianBlur stdDeviation="2"/>
<feComposite in2="hardAlpha" operator="out"/>
<feColorMatrix type="matrix" values="0 0 0 0 0 0 0 0 0 0 0 0 0 0 0 0 0 0 0.25 0"/>
<feBlend mode="normal" in2="BackgroundImageFix" result="effect1_dropShadow_120_27"/>
<feColorMatrix in="SourceAlpha" type="matrix" values="0 0 0 0 0 0 0 0 0 0 0 0 0 0 0 0 0 0 127 0" result="hardAlpha"/>
<feOffset dy="4"/>
<feGaussianBlur stdDeviation="2"/>
<feComposite in2="hardAlpha" operator="out"/>
<feColorMatrix type="matrix" values="0 0 0 0 0 0 0 0 0 0 0 0 0 0 0 0 0 0 0.25 0"/>
<feBlend mode="normal" in2="effect1_dropShadow_120_27" result="effect2_dropShadow_120_27"/>
<feBlend mode="normal" in="SourceGraphic" in2="effect2_dropShadow_120_27" result="shape"/>
</filter>
<clipPath id="clip0_120_27">
<rect width="322" height="117" fill="white"/>
</clipPath>
</defs>
</svg>
